<svg xmlns="http://www.w3.org/2000/svg" width="131.514" height="131.514" viewBox="0 0 131.514 131.514">
  <g id="Group_1218" data-name="Group 1218" transform="translate(-1617.394 -677.066)">
    <g id="Group_912" data-name="Group 912" transform="translate(60.831 153.046)">
      <circle id="Ellipse_136" data-name="Ellipse 136" cx="56.727" cy="56.727" r="56.727" transform="translate(1568.044 534.41)" fill="#f69128"/>
      <path id="Ellipse_137" data-name="Ellipse 137" d="M62.257-3.5A65.757,65.757,0,1,1-3.5,62.257,65.831,65.831,0,0,1,62.257-3.5Zm0,124.514A58.757,58.757,0,1,0,3.5,62.257,58.824,58.824,0,0,0,62.257,121.014Z" transform="translate(1560.063 527.52)"/>
      <path id="Path_1872" data-name="Path 1872" d="M1576.245,577.835a3.5,3.5,0,0,1-3.321-4.608,51.462,51.462,0,0,1,10.85-18.5,3.5,3.5,0,0,1,5.174,4.715,44.5,44.5,0,0,0-9.384,16A3.5,3.5,0,0,1,1576.245,577.835Z" fill="#fff"/>
      <path id="Path_1873" data-name="Path 1873" d="M1653.027,555.792a3.485,3.485,0,0,1-2.221-.8,45.247,45.247,0,0,0-48.458-5.7,3.5,3.5,0,0,1-3.07-6.291,52.264,52.264,0,0,1,55.974,6.584,3.5,3.5,0,0,1-2.225,6.2Z" fill="#fff"/>
      <g id="C" style="isolation: isolate">
        <text id="C-2" data-name="C" transform="translate(1600.813 610.902)" fill="#fff" font-size="60" font-family="Quicksand-Bold, Quicksand" font-weight="700" style="isolation: isolate"><tspan x="0" y="0">C</tspan></text>
      </g>
    </g>
  </g>
</svg>
