<svg xmlns="http://www.w3.org/2000/svg" width="567" height="567" viewBox="0 0 567 567">
  <g id="Group_1352" data-name="Group 1352" transform="translate(-1071 -185)">
    <circle id="Ellipse_519" data-name="Ellipse 519" cx="283.5" cy="283.5" r="283.5" transform="translate(1071 185)" fill="#fffbf1"/>
    <path id="Path_2926" data-name="Path 2926" d="M250.13,0C388.273,0,500.26,111.987,500.26,250.13S388.273,500.26,250.13,500.26,0,388.273,0,250.13,111.987,0,250.13,0Z" transform="translate(1089.431 185)" fill="#fff8e9"/>
    <circle id="Ellipse_521" data-name="Ellipse 521" cx="211" cy="211" r="211" transform="translate(1168 224)" fill="#ffedd2"/>
    <g id="Group_1075" data-name="Group 1075" transform="translate(1209.283 343.102)">
      <g id="Group_667" data-name="Group 667" transform="translate(0 0)">
        <g id="Group_219" data-name="Group 219" transform="translate(0 0)">
          <path id="Path_216" data-name="Path 216" d="M140.479,248.091,54.5,71.5h0a85.135,85.135,0,0,1,76.08,46.929l20.7,41.219a71.975,71.975,0,0,1,1.183,62.128Z" transform="translate(-54.5 -64.035)" fill="#5cbc2a" fill-rule="evenodd"/>
          <path id="Path_214" data-name="Path 214" d="M263.232,176.441S212.044,77.593,312.656,57C281.472,124.664,263.232,176.441,263.232,176.441Z" transform="translate(-149.451 -57)" fill="#5cbc2a" fill-rule="evenodd"/>
          <path id="Path_215" data-name="Path 215" d="M273.31,233s-24.2-55.239,11.891-80.694C278.65,172.027,270.125,173.921,273.31,233Z" transform="translate(-159.588 -113.557)" fill="#fff" fill-rule="evenodd"/>
        </g>
      </g>
      <path id="Path_245" data-name="Path 245" d="M-205.144-396.131a15.18,15.18,0,0,1-11.154-4.581,15.179,15.179,0,0,1-4.581-11.154A15.513,15.513,0,0,1-216.3-423.12a15.019,15.019,0,0,1,11.154-4.681,15.345,15.345,0,0,1,11.254,4.681,15.344,15.344,0,0,1,4.681,11.254,15.017,15.017,0,0,1-4.681,11.154A15.512,15.512,0,0,1-205.144-396.131Zm-13.544,111.539q-9.56,0-15.436-5.976T-240-308.493a69.06,69.06,0,0,1,1.594-12.947l13.544-63.936h28.681l-14.341,67.72a24.644,24.644,0,0,0-.8,6.374q0,3.983,1.892,5.677t6.274,1.693q5.776,0,10.756-4.88a27.9,27.9,0,0,0,7.17-12.648h8.365q-7.37,21.511-18.922,29.179T-218.688-284.592Zm53.18,0q-9.56,0-15.436-5.976t-5.876-17.926a69.05,69.05,0,0,1,1.594-12.947l11.951-55.968h-6.573l1.593-7.967h6.573l5.975-27.486,29.478-3.983L-143-385.375h11.95l-1.593,7.967h-11.951l-12.747,59.753a24.65,24.65,0,0,0-.8,6.374q0,3.983,1.892,5.677t6.274,1.693q5.776,0,10.756-4.88a27.893,27.893,0,0,0,7.17-12.648h8.365q-7.37,21.511-18.922,29.179T-165.508-284.592Zm57.363,0a25.333,25.333,0,0,1-18.922-7.768q-7.569-7.768-7.569-24.3a90.976,90.976,0,0,1,5.876-30.972,71.328,71.328,0,0,1,17.528-27.486,38.61,38.61,0,0,1,27.785-11.254q8.166,0,12.15,2.788a8.6,8.6,0,0,1,3.983,7.369v1.394l2.191-10.556h28.682l-14.341,67.72a24.651,24.651,0,0,0-.8,6.374q0,3.983,1.892,5.677t6.274,1.693a9.936,9.936,0,0,0,4.382-.8q-4.382,11.154-8.365,15.635t-11.552,4.482q-8.166,0-13.245-4.88t-6.274-13.644Q-90.618-284.592-108.145-284.592Zm12.947-19.32q4.979,0,9.859-4.681t6.672-12.847l9.56-45.014a8.082,8.082,0,0,0-1.992-5.079q-1.992-2.49-6.174-2.49-7.967,0-14.341,9.262a73.33,73.33,0,0,0-9.959,22.308,88.233,88.233,0,0,0-3.585,23.005q0,9.959,2.888,12.747A9.8,9.8,0,0,0-95.2-303.912Z" transform="translate(375.984 468.649)" fill="#ff960c"/>
    </g>
  </g>
</svg>
