<svg xmlns="http://www.w3.org/2000/svg" width="568.284" height="568.284" viewBox="0 0 568.284 568.284">
  <g id="Group_1146" data-name="Group 1146" transform="translate(-1008.956 -1548.975)">
    <path id="Path_2459" data-name="Path 2459" d="M857.118,331.5a126.487,126.487,0,0,1,27.074-78.4L760.421,156.32a284.678,284.678,0,0,0-52.93,240.195l152.973-35.951A127.377,127.377,0,0,1,857.118,331.5Z" transform="translate(308.949 1501.62)" fill="#29ab4b"/>
    <path id="Path_2460" data-name="Path 2460" d="M972.768,224.993V67.882A283.641,283.641,0,0,0,749.04,176.847l123.772,96.774A126.808,126.808,0,0,1,972.768,224.993Z" transform="translate(320.33 1481.093)" fill="#168b16"/>
    <path id="Path_2461" data-name="Path 2461" d="M1038.833,331.563a127.423,127.423,0,0,1-3.257,28.7l153.084,35.5a284.789,284.789,0,0,0-53.4-239.73L1011.7,253.089A126.486,126.486,0,0,1,1038.833,331.563Z" transform="translate(381.297 1501.553)" fill="#1a4be5" style="isolation: isolate"/>
    <path id="Path_2462" data-name="Path 2462" d="M1030.52,273.549l123.555-97.056A283.643,283.643,0,0,0,930.621,67.882V224.993A126.807,126.807,0,0,1,1030.52,273.549Z" transform="translate(362.477 1481.093)" fill="#6d23b5"/>
    <path id="Path_2463" data-name="Path 2463" d="M953.711,403.969a126.534,126.534,0,0,1-54.8-12.4L831.142,533.348a284.753,284.753,0,0,0,246.04-.429l-68.271-141.54A126.517,126.517,0,0,1,953.711,403.969Z" transform="translate(339.387 1556.18)" fill="#20b6ce"/>
    <path id="Path_2464" data-name="Path 2464" d="M859.054,322.088,706.081,358.039A284.7,284.7,0,0,0,860.17,549.431l67.772-141.776A127.285,127.285,0,0,1,859.054,322.088Z" transform="translate(310.359 1540.097)" fill="#35c985"/>
    <path id="Path_2465" data-name="Path 2465" d="M1197.081,357.289,1044,321.791a127.285,127.285,0,0,1-68.575,85.74l68.271,141.54A284.705,284.705,0,0,0,1197.081,357.289Z" transform="translate(372.876 1540.028)" fill="#1898e8" style="isolation: isolate"/>
    <text id="P" transform="translate(1356.773 1680.172)" fill="#fff" font-size="60" font-family="Quicksand-Bold, Quicksand" font-weight="700"><tspan x="0" y="0">P</tspan></text>
    <text id="Zn" transform="translate(1447.618 1816.86)" fill="#fff" font-size="60" font-family="Quicksand-Bold, Quicksand" font-weight="700"><tspan x="0" y="0">Zn</tspan></text>
    <text id="Ca" transform="translate(1410.118 1979.974)" fill="#fff" font-size="60" font-family="Quicksand-Bold, Quicksand" font-weight="700"><tspan x="0" y="0">Ca</tspan></text>
    <text id="K" transform="translate(1274.049 2054.909)" fill="#fff" font-size="60" font-family="Quicksand-Bold, Quicksand" font-weight="700"><tspan x="0" y="0">K</tspan></text>
    <text id="Fe" transform="translate(1101.049 1979.975)" fill="#fff" font-size="60" font-family="Quicksand-Bold, Quicksand" font-weight="700"><tspan x="0" y="0">Fe</tspan></text>
    <text id="Mg" transform="translate(1047.007 1816.859)" fill="#fff" font-size="60" font-family="Quicksand-Bold, Quicksand" font-weight="700"><tspan x="0" y="0">Mg</tspan></text>
    <text id="Cu" transform="translate(1170.529 1674.344)" fill="#fff" font-size="60" font-family="Quicksand-Bold, Quicksand" font-weight="700"><tspan x="0" y="0">Cu</tspan></text>
  </g>
</svg>
