<svg xmlns="http://www.w3.org/2000/svg" width="135.384" height="121.916" viewBox="0 0 135.384 121.916">
  <g id="Group_1549" data-name="Group 1549" transform="translate(-1843.735 -502.785)">
    <g id="Group_921" data-name="Group 921" transform="translate(60.831 153.046)">
      <path id="Path_1894" data-name="Path 1894" d="M1876.8,359.749h-42.31a15.2,15.2,0,0,0-13.164,7.6l-21.154,36.641a15.2,15.2,0,0,0,0,15.2l21.154,36.641a15.2,15.2,0,0,0,13.164,7.6h42.31a15.2,15.2,0,0,0,13.164-7.6l21.155-36.641a15.2,15.2,0,0,0,0-15.2l-21.155-36.641A15.2,15.2,0,0,0,1876.8,359.749Z" fill="#1a4be5" style="isolation: isolate"/>
      <path id="Path_1895" data-name="Path 1895" d="M1874.993,353.239H1826.2a15.2,15.2,0,0,0-13.164,7.6l-24.4,42.258a15.2,15.2,0,0,0,0,15.2l24.4,42.258a15.2,15.2,0,0,0,13.164,7.6h48.8a15.2,15.2,0,0,0,13.164-7.6l24.4-42.258a15.2,15.2,0,0,0,0-15.2l-24.4-42.258A15.2,15.2,0,0,0,1874.993,353.239Z" fill="none" stroke="#000" stroke-linejoin="round" stroke-width="7"/>
      <g id="Zn" style="isolation: isolate">
        <text id="Zn-2" data-name="Zn" transform="translate(1818.423 428.772)" fill="#fff" font-size="48" font-family="Quicksand-Bold, Quicksand" font-weight="700" style="isolation: isolate"><tspan x="0" y="0">Zn</tspan></text>
      </g>
      <g id="Group_804" data-name="Group 804">
        <path id="Path_1896" data-name="Path 1896" d="M1817.977,383.426l6.826-11.553a8.41,8.41,0,0,1,7.239-4.13h12.311" fill="none" stroke="#fff" stroke-linecap="round" stroke-miterlimit="10" stroke-width="5"/>
        <line id="Line_311" data-name="Line 311" x1="7.218" y2="11.851" transform="translate(1806.107 391.213)" fill="none" stroke="#fff" stroke-linecap="round" stroke-miterlimit="10" stroke-width="5"/>
      </g>
    </g>
  </g>
</svg>
