<svg xmlns="http://www.w3.org/2000/svg" width="135.384" height="121.916" viewBox="0 0 135.384 121.916">
  <g id="Group_1548" data-name="Group 1548" transform="translate(-1843.735 -323.845)">
    <g id="Group_920" data-name="Group 920" transform="translate(60.831 153.046)">
      <path id="Path_1891" data-name="Path 1891" d="M1876.8,180.809h-42.306a15.2,15.2,0,0,0-13.164,7.6l-21.155,36.641a15.2,15.2,0,0,0,0,15.2l21.155,36.641a15.2,15.2,0,0,0,13.164,7.6H1876.8a15.2,15.2,0,0,0,13.164-7.6l21.155-36.641a15.2,15.2,0,0,0,0-15.2l-21.155-36.641A15.2,15.2,0,0,0,1876.8,180.809Z" fill="#6d23b5"/>
      <path id="Path_1892" data-name="Path 1892" d="M1874.994,174.3h-48.8a15.2,15.2,0,0,0-13.164,7.6l-24.4,42.258a15.2,15.2,0,0,0,0,15.2l24.4,42.258a15.2,15.2,0,0,0,13.164,7.6h48.8a15.2,15.2,0,0,0,13.164-7.6l24.4-42.258a15.2,15.2,0,0,0,0-15.2l-24.4-42.258A15.2,15.2,0,0,0,1874.994,174.3Z" fill="none" stroke="#000" stroke-linejoin="round" stroke-width="7"/>
      <g id="P" transform="translate(0.657 7.381)" style="isolation: isolate">
        <text id="P-2" data-name="P" transform="translate(1836.992 247.769)" fill="#fff" font-size="60" font-family="Quicksand-Bold, Quicksand" font-weight="700" style="isolation: isolate"><tspan x="0" y="0">P</tspan></text>
      </g>
      <g id="Group_803" data-name="Group 803">
        <path id="Path_1893" data-name="Path 1893" d="M1819.433,204.486l6.827-11.553a8.412,8.412,0,0,1,7.238-4.13h12.312" fill="none" stroke="#fff" stroke-linecap="round" stroke-miterlimit="10" stroke-width="5"/>
        <line id="Line_310" data-name="Line 310" x1="7.218" y2="11.851" transform="translate(1807.563 212.273)" fill="none" stroke="#fff" stroke-linecap="round" stroke-miterlimit="10" stroke-width="5"/>
      </g>
    </g>
  </g>
</svg>
