<svg xmlns="http://www.w3.org/2000/svg" width="135.389" height="121.915" viewBox="0 0 135.389 121.915">
  <g id="Group_1554" data-name="Group 1554" transform="translate(-1843.735 -1218.547)">
    <g id="Group_922" data-name="Group 922" transform="translate(60.831 153.046)">
      <path id="Path_1897" data-name="Path 1897" d="M1876.809,1075.508H1834.5a15.2,15.2,0,0,0-13.164,7.6l-21.155,36.641a15.2,15.2,0,0,0,0,15.2l21.155,36.641a15.2,15.2,0,0,0,13.164,7.6h42.31a15.2,15.2,0,0,0,13.163-7.6l21.155-36.641a15.2,15.2,0,0,0,0-15.2l-21.155-36.641A15.2,15.2,0,0,0,1876.809,1075.508Z" fill="#30b553"/>
      <path id="Path_1898" data-name="Path 1898" d="M1875,1069h-48.8a15.2,15.2,0,0,0-13.164,7.6l-24.4,42.258a15.2,15.2,0,0,0,0,15.2l24.4,42.257a15.2,15.2,0,0,0,13.164,7.6H1875a15.2,15.2,0,0,0,13.164-7.6l24.4-42.257a15.2,15.2,0,0,0,0-15.2l-24.4-42.258A15.2,15.2,0,0,0,1875,1069Z" fill="none" stroke="#000" stroke-linejoin="round" stroke-width="7"/>
      <g id="Mg" transform="translate(4.256 1)" style="isolation: isolate">
        <text id="Mg-2" data-name="Mg" transform="translate(1816.398 1139.861)" fill="#fff" font-size="48" font-family="Quicksand-Bold, Quicksand" font-weight="700" style="isolation: isolate"><tspan x="0" y="0">Mg</tspan></text>
      </g>
      <g id="Group_805" data-name="Group 805">
        <path id="Path_1899" data-name="Path 1899" d="M1818.2,1097.208l6.827-11.553a8.407,8.407,0,0,1,7.238-4.13h12.311" fill="none" stroke="#fff" stroke-linecap="round" stroke-miterlimit="10" stroke-width="5"/>
        <line id="Line_312" data-name="Line 312" x1="7.218" y2="11.851" transform="translate(1806.33 1104.995)" fill="none" stroke="#fff" stroke-linecap="round" stroke-miterlimit="10" stroke-width="5"/>
      </g>
    </g>
  </g>
</svg>
