<svg xmlns="http://www.w3.org/2000/svg" width="399.181" height="217.041" viewBox="0 0 399.181 217.041">
  <g id="Group_1351" data-name="Group 1351" transform="translate(-7114.115 -9807.402)">
    <g id="Group_910" data-name="Group 910" transform="translate(7114.115 9894.932)">
      <circle id="Ellipse_134" data-name="Ellipse 134" cx="13.737" cy="13.737" r="13.737" transform="translate(2.78 2.516)" fill="#eb3860"/>
      <path id="Path_3394" data-name="Path 3394" d="M1178.357,2944.976a15.923,15.923,0,1,1,15.923-15.922A15.941,15.941,0,0,1,1178.357,2944.976Zm0-30.151a14.228,14.228,0,1,0,14.228,14.229A14.245,14.245,0,0,0,1178.357,2914.825Z" transform="translate(-1162.434 -2913.13)"/>
      <path id="Path_3395" data-name="Path 3395" d="M1169.714,2930.753a.849.849,0,0,1-.8-1.116,12.48,12.48,0,0,1,2.628-4.481.848.848,0,0,1,1.253,1.142,10.79,10.79,0,0,0-2.272,3.875A.847.847,0,0,1,1169.714,2930.753Z" transform="translate(-1164.947 -2917.722)" fill="#fff"/>
      <path id="Path_3396" data-name="Path 3396" d="M1192.123,2922.956a.843.843,0,0,1-.538-.193,10.957,10.957,0,0,0-11.734-1.38.848.848,0,0,1-.743-1.524,12.658,12.658,0,0,1,13.553,1.594.848.848,0,0,1-.538,1.5Z" transform="translate(-1168.764 -2915.262)" fill="#fff"/>
      <g id="B5" transform="translate(6.964 7.689)">
        <g id="B5-2" style="isolation: isolate">
          <text id="B5-2-2" data-name="B5" transform="translate(0 12)" fill="#fff" font-size="13" font-family="Quicksand-Bold, Quicksand" font-weight="700" style="isolation: isolate"><tspan x="0" y="0">B5</tspan></text>
        </g>
      </g>
    </g>
    <g id="Group_911" data-name="Group 911" transform="translate(7189.247 9907.33)">
      <path id="Path_1903" data-name="Path 1903" d="M1145.323,2844.776a16.777,16.777,0,1,1-16.777,16.777,16.777,16.777,0,0,1,16.777-16.777Z" transform="translate(-1125.15 -2841.703)" fill="#e8a113"/>
      <path id="Path_3397" data-name="Path 3397" d="M1142.42,2878.626a19.447,19.447,0,1,1,19.448-19.448A19.47,19.47,0,0,1,1142.42,2878.626Zm0-36.824a17.377,17.377,0,1,0,17.377,17.377A17.4,17.4,0,0,0,1142.42,2841.8Z" transform="translate(-1122.972 -2839.732)"/>
      <path id="Path_3398" data-name="Path 3398" d="M1131.863,2861.255a1.035,1.035,0,0,1-.983-1.362,15.212,15.212,0,0,1,3.209-5.473,1.035,1.035,0,1,1,1.53,1.395,13.163,13.163,0,0,0-2.775,4.732A1.035,1.035,0,0,1,1131.863,2861.255Z" transform="translate(-1126.042 -2845.34)" fill="#fff"/>
      <path id="Path_3399" data-name="Path 3399" d="M1159.232,2851.732a1.029,1.029,0,0,1-.657-.235,13.382,13.382,0,0,0-14.332-1.686,1.035,1.035,0,0,1-.908-1.861,15.459,15.459,0,0,1,16.554,1.947,1.035,1.035,0,0,1-.657,1.835Z" transform="translate(-1130.703 -2842.336)" fill="#fff"/>
      <g id="E" transform="translate(14.874 9.203)">
        <g id="E-2" style="isolation: isolate">
          <text id="E-2-2" data-name="E" transform="translate(0 16)" fill="#fff" font-size="17" font-family="Quicksand-Bold, Quicksand" font-weight="700" style="isolation: isolate"><tspan x="0" y="0">E</tspan></text>
        </g>
      </g>
      <path id="Path_1871" data-name="Path 1871" d="M1166.387,2853.076" transform="translate(-1139.938 -2844.947)" fill="#ff9d00"/>
    </g>
    <g id="Group_912" data-name="Group 912" transform="translate(7215.754 9863.086)">
      <circle id="Ellipse_136" data-name="Ellipse 136" cx="13.737" cy="13.737" r="13.737" transform="translate(2.78 2.516)" fill="#f69128"/>
      <path id="Path_3400" data-name="Path 3400" d="M1033.4,2750.368a15.923,15.923,0,1,1,15.923-15.923A15.941,15.941,0,0,1,1033.4,2750.368Zm0-30.151a14.228,14.228,0,1,0,14.228,14.228A14.244,14.244,0,0,0,1033.4,2720.217Z" transform="translate(-1017.475 -2718.522)"/>
      <path id="Path_3401" data-name="Path 3401" d="M1024.754,2736.145a.849.849,0,0,1-.8-1.116,12.456,12.456,0,0,1,2.628-4.48.847.847,0,1,1,1.252,1.142,10.768,10.768,0,0,0-2.272,3.875A.848.848,0,0,1,1024.754,2736.145Z" transform="translate(-1019.988 -2723.114)" fill="#fff"/>
      <path id="Path_3402" data-name="Path 3402" d="M1047.163,2728.347a.844.844,0,0,1-.537-.193,10.957,10.957,0,0,0-11.735-1.38.848.848,0,0,1-.743-1.524,12.657,12.657,0,0,1,13.555,1.594.848.848,0,0,1-.539,1.5Z" transform="translate(-1023.804 -2720.654)" fill="#fff"/>
      <g id="C" transform="translate(10.715 7.026)">
        <g id="C-2" style="isolation: isolate">
          <text id="C-2-2" data-name="C" transform="translate(0 12)" fill="#fff" font-size="13" font-family="Quicksand-Bold, Quicksand" font-weight="700" style="isolation: isolate"><tspan x="0" y="0">C</tspan></text>
        </g>
      </g>
    </g>
    <g id="Group_913" data-name="Group 913" transform="translate(7214.558 9811.678)">
      <circle id="Ellipse_138" data-name="Ellipse 138" cx="16.527" cy="16.527" r="16.527" transform="translate(3.345 3.028)" fill="#f56224"/>
      <path id="Path_3403" data-name="Path 3403" d="M816.607,2773.817a19.158,19.158,0,1,1,19.158-19.158A19.179,19.179,0,0,1,816.607,2773.817Zm0-36.276a17.118,17.118,0,1,0,17.119,17.118A17.138,17.138,0,0,0,816.607,2737.541Z" transform="translate(-797.449 -2735.501)"/>
      <path id="Path_3404" data-name="Path 3404" d="M806.207,2756.7a1.02,1.02,0,0,1-.967-1.343,15,15,0,0,1,3.162-5.39,1.02,1.02,0,0,1,1.507,1.374,12.965,12.965,0,0,0-2.734,4.662A1.02,1.02,0,0,1,806.207,2756.7Z" transform="translate(-800.473 -2741.025)" fill="#fff"/>
      <path id="Path_3405" data-name="Path 3405" d="M833.168,2747.323a1.014,1.014,0,0,1-.647-.232,13.183,13.183,0,0,0-14.118-1.66,1.02,1.02,0,0,1-.894-1.833,15.229,15.229,0,0,1,16.308,1.918,1.02,1.02,0,0,1-.648,1.808Z" transform="translate(-805.064 -2738.066)" fill="#fff"/>
      <g id="B3" transform="translate(9.262 10.727)">
        <g id="B3-2" style="isolation: isolate">
          <text id="B3-2-2" data-name="B3" transform="translate(0 15)" fill="#fff" font-size="16" font-family="Quicksand-Bold, Quicksand" font-weight="700" style="isolation: isolate"><tspan x="0" y="0">B3</tspan></text>
        </g>
      </g>
    </g>
    <g id="Group_914" data-name="Group 914" transform="translate(7145.961 9849.993)">
      <circle id="Ellipse_140" data-name="Ellipse 140" cx="22.668" cy="22.668" r="22.668" transform="translate(4.588 4.153)" fill="#f1483d"/>
      <path id="Path_3406" data-name="Path 3406" d="M701.992,2922.091a26.276,26.276,0,1,1,26.277-26.276A26.306,26.306,0,0,1,701.992,2922.091Zm0-49.756a23.479,23.479,0,1,0,23.48,23.48A23.506,23.506,0,0,0,701.992,2872.335Z" transform="translate(-675.716 -2869.538)"/>
      <path id="Path_3407" data-name="Path 3407" d="M682,2888.164a1.376,1.376,0,0,1-.442-.073,1.4,1.4,0,0,1-.885-1.768,20.538,20.538,0,0,1,4.336-7.4,1.4,1.4,0,1,1,2.067,1.884,17.8,17.8,0,0,0-3.749,6.4A1.4,1.4,0,0,1,682,2888.164Z" transform="translate(-674.139 -2866.657)" fill="#fff"/>
      <path id="Path_3408" data-name="Path 3408" d="M710.291,2880.9a1.391,1.391,0,0,1-.887-.319,18.086,18.086,0,0,0-19.364-2.277,1.4,1.4,0,1,1-1.226-2.514,20.892,20.892,0,0,1,22.366,2.63,1.4,1.4,0,0,1-.889,2.48Z" transform="translate(-671.745 -2868.2)" fill="#fff"/>
      <g id="B6" transform="translate(11.725 12.715)">
        <g id="B6-2" style="isolation: isolate">
          <text id="B6-2-2" data-name="B6" transform="translate(0 21)" fill="#fff" font-size="22" font-family="Quicksand-Bold, Quicksand" font-weight="700" style="isolation: isolate"><tspan x="0" y="0">B6</tspan></text>
        </g>
      </g>
    </g>
    <g id="Group_915" data-name="Group 915" transform="translate(7260.919 9860.262)">
      <circle id="Ellipse_142" data-name="Ellipse 142" cx="19.064" cy="19.064" r="19.064" transform="translate(3.859 3.492)" fill="#eabb36"/>
      <path id="Path_3409" data-name="Path 3409" d="M759.959,2846.565a22.1,22.1,0,1,1,22.1-22.1A22.124,22.124,0,0,1,759.959,2846.565Zm0-41.844a19.746,19.746,0,1,0,19.747,19.746A19.768,19.768,0,0,0,759.959,2804.721Z" transform="translate(-737.861 -2802.368)"/>
      <path id="Path_3410" data-name="Path 3410" d="M747.964,2826.827a1.189,1.189,0,0,1-.372-.061,1.176,1.176,0,0,1-.744-1.488,17.286,17.286,0,0,1,3.647-6.218,1.176,1.176,0,0,1,1.739,1.585,14.956,14.956,0,0,0-3.154,5.377A1.176,1.176,0,0,1,747.964,2826.827Z" transform="translate(-741.349 -2808.741)" fill="#fff"/>
      <path id="Path_3411" data-name="Path 3411" d="M779.065,2816.005a1.172,1.172,0,0,1-.746-.268,15.206,15.206,0,0,0-16.285-1.916,1.176,1.176,0,1,1-1.031-2.114,17.566,17.566,0,0,1,18.81,2.212,1.176,1.176,0,0,1-.748,2.085Z" transform="translate(-746.646 -2805.327)" fill="#fff"/>
      <g id="A" transform="translate(14.872 9.817)">
        <g id="A-2" style="isolation: isolate">
          <text id="A-2-2" data-name="A" transform="translate(0 18)" fill="#fff" font-size="19" font-family="Quicksand-Bold, Quicksand" font-weight="700" style="isolation: isolate"><tspan x="0" y="0">A</tspan></text>
        </g>
      </g>
    </g>
    <g id="Group_916" data-name="Group 916" transform="translate(7152.197 9949.604)">
      <circle id="Ellipse_144" data-name="Ellipse 144" cx="21.536" cy="21.536" r="21.536" transform="translate(4.359 3.945)" fill="#b71174"/>
      <path id="Path_3412" data-name="Path 3412" d="M1195.912,2821.281a24.964,24.964,0,1,1,24.964-24.963A24.992,24.992,0,0,1,1195.912,2821.281Zm0-47.27a22.306,22.306,0,1,0,22.307,22.307A22.331,22.331,0,0,0,1195.912,2774.01Z" transform="translate(-1170.948 -2771.353)"/>
      <path id="Path_3413" data-name="Path 3413" d="M1182.36,2798.983a1.33,1.33,0,0,1-1.261-1.75,19.527,19.527,0,0,1,4.119-7.025,1.329,1.329,0,0,1,1.964,1.79,16.906,16.906,0,0,0-3.562,6.075A1.329,1.329,0,0,1,1182.36,2798.983Z" transform="translate(-1174.888 -2778.552)" fill="#fff"/>
      <path id="Path_3414" data-name="Path 3414" d="M1217.494,2786.759a1.326,1.326,0,0,1-.843-.3,17.178,17.178,0,0,0-18.4-2.165,1.328,1.328,0,1,1-1.165-2.388,19.844,19.844,0,0,1,21.25,2.5,1.329,1.329,0,0,1-.844,2.355Z" transform="translate(-1180.871 -2774.696)" fill="#fff"/>
      <g id="K" transform="translate(19.628 11.54)">
        <g id="K-2" style="isolation: isolate">
          <text id="K-2-2" data-name="K" transform="translate(0 20)" fill="#fff" font-size="21" font-family="Quicksand-Bold, Quicksand" font-weight="700" style="isolation: isolate"><tspan x="0" y="0">K</tspan></text>
        </g>
      </g>
    </g>
    <g id="Group_917" data-name="Group 917" transform="translate(7403.783 9887.545)">
      <path id="Path_1882" data-name="Path 1882" d="M1094.776,2775.414h-13.615a4.892,4.892,0,0,0-4.236,2.446l-6.808,11.791a4.892,4.892,0,0,0,0,4.891l6.808,11.791a4.892,4.892,0,0,0,4.236,2.446h13.615a4.892,4.892,0,0,0,4.236-2.446l6.808-11.791a4.891,4.891,0,0,0,0-4.891l-6.808-11.791A4.892,4.892,0,0,0,1094.776,2775.414Z" transform="translate(-1064.625 -2772.194)" fill="#1898e8"/>
      <g id="Ca" transform="translate(12.526 11.017)">
        <g id="Ca-2" style="isolation: isolate">
          <text id="Ca-2-2" data-name="Ca" transform="translate(0 12)" fill="#fff" font-size="13" font-family="Quicksand-Bold, Quicksand" font-weight="700" style="isolation: isolate"><tspan x="0" y="0">Ca</tspan></text>
        </g>
      </g>
      <path id="Path_3415" data-name="Path 3415" d="M1091.509,2809.638h-15.7a6.036,6.036,0,0,1-5.211-3.009l-7.852-13.6a6.035,6.035,0,0,1,0-6.017l7.852-13.6a6.033,6.033,0,0,1,5.211-3.009h15.7a6.034,6.034,0,0,1,5.212,3.009l7.852,13.6a6.035,6.035,0,0,1,0,6.017l-7.852,13.6A6.037,6.037,0,0,1,1091.509,2809.638Zm-15.7-36.98a3.775,3.775,0,0,0-3.26,1.882l-7.852,13.6a3.774,3.774,0,0,0,0,3.765l7.852,13.6a3.776,3.776,0,0,0,3.261,1.883h15.7a3.776,3.776,0,0,0,3.26-1.883l7.852-13.6a3.774,3.774,0,0,0,0-3.765l-7.852-13.6a3.774,3.774,0,0,0-3.26-1.882Z" transform="translate(-1061.938 -2770.405)"/>
      <g id="Group_800" data-name="Group 800" transform="translate(7.066 4.53)">
        <path id="Path_3416" data-name="Path 3416" d="M1079.674,2784.106a.8.8,0,0,1-.408-.112.8.8,0,0,1-.284-1.1l2.2-3.718a3.52,3.52,0,0,1,3.02-1.725h3.964a.8.8,0,0,1,0,1.609H1084.2a1.907,1.907,0,0,0-1.635.933l-2.2,3.718A.805.805,0,0,1,1079.674,2784.106Z" transform="translate(-1075.05 -2777.451)" fill="#fff"/>
        <path id="Path_3417" data-name="Path 3417" d="M1073.733,2794.62a.8.8,0,0,1-.686-1.223l2.323-3.813a.8.8,0,0,1,1.374.837l-2.323,3.813A.8.8,0,0,1,1073.733,2794.62Z" transform="translate(-1072.929 -2781.645)" fill="#fff"/>
      </g>
    </g>
    <g id="Group_918" data-name="Group 918" transform="translate(7343.074 9873.53)">
      <path id="Path_1885" data-name="Path 1885" d="M702.7,2786.36H687.557a5.335,5.335,0,0,0-4.621,2.668l-7.571,13.114a5.337,5.337,0,0,0,0,5.336l7.571,13.114a5.335,5.335,0,0,0,4.621,2.668H702.7a5.335,5.335,0,0,0,4.621-2.668l7.572-13.114a5.332,5.332,0,0,0,0-5.336l-7.572-13.114A5.336,5.336,0,0,0,702.7,2786.36Z" transform="translate(-669.445 -2782.846)" fill="#35c985"/>
      <path id="Path_3418" data-name="Path 3418" d="M701.019,2825.184H683.886a6.583,6.583,0,0,1-5.686-3.283l-8.567-14.836a6.586,6.586,0,0,1,0-6.565l8.567-14.836a6.582,6.582,0,0,1,5.686-3.283h17.133a6.583,6.583,0,0,1,5.686,3.283l8.566,14.836a6.581,6.581,0,0,1,0,6.565L706.7,2821.9A6.585,6.585,0,0,1,701.019,2825.184Zm-17.133-40.344a4.118,4.118,0,0,0-3.558,2.054l-8.566,14.835a4.119,4.119,0,0,0,0,4.107l8.566,14.835a4.119,4.119,0,0,0,3.558,2.054h17.133a4.118,4.118,0,0,0,3.557-2.054l8.567-14.835a4.119,4.119,0,0,0,0-4.107l-8.567-14.835a4.117,4.117,0,0,0-3.557-2.054Z" transform="translate(-668.757 -2782.381)"/>
      <g id="Fe" transform="translate(16.02 12.021)">
        <g id="Fe-2" style="isolation: isolate">
          <text id="Fe-2-2" data-name="Fe" transform="translate(0 13)" fill="#fff" font-size="14" font-family="Quicksand-Bold, Quicksand" font-weight="700" style="isolation: isolate"><tspan x="0" y="0">Fe</tspan></text>
        </g>
      </g>
      <g id="Group_801" data-name="Group 801" transform="translate(7.79 4.943)">
        <path id="Path_3419" data-name="Path 3419" d="M683.172,2795.239a.877.877,0,0,1-.755-1.324l2.4-4.056a3.841,3.841,0,0,1,3.295-1.881h4.324a.878.878,0,1,1,0,1.755h-4.324a2.078,2.078,0,0,0-1.783,1.019l-2.4,4.056A.877.877,0,0,1,683.172,2795.239Z" transform="translate(-678.127 -2787.977)" fill="#fff"/>
        <path id="Path_3420" data-name="Path 3420" d="M678.454,2803.221a.877.877,0,0,1-.749-1.333l2.534-4.161a.878.878,0,0,1,1.5.913L679.2,2802.8A.876.876,0,0,1,678.454,2803.221Z" transform="translate(-677.577 -2789.066)" fill="#fff"/>
      </g>
    </g>
    <g id="Group_920" data-name="Group 920" transform="translate(7392.95 9831.844)">
      <path id="Path_1891" data-name="Path 1891" d="M752.915,2912.039h-12.6a4.526,4.526,0,0,0-3.919,2.262l-6.3,10.91a4.527,4.527,0,0,0,0,4.526l6.3,10.909a4.525,4.525,0,0,0,3.919,2.263h12.6a4.525,4.525,0,0,0,3.919-2.263l6.3-10.909a4.527,4.527,0,0,0,0-4.526l-6.3-10.91A4.526,4.526,0,0,0,752.915,2912.039Z" transform="translate(-725.016 -2909.059)" fill="#6d23b5"/>
      <path id="Path_3421" data-name="Path 3421" d="M749.505,2943.448h-14.53a5.582,5.582,0,0,1-4.822-2.784l-7.265-12.582a5.584,5.584,0,0,1,0-5.568l7.265-12.582a5.581,5.581,0,0,1,4.821-2.784h14.532a5.582,5.582,0,0,1,4.821,2.784l7.265,12.582a5.581,5.581,0,0,1,0,5.568l-7.265,12.582A5.583,5.583,0,0,1,749.505,2943.448Zm-14.531-34.215a3.492,3.492,0,0,0-3.016,1.741l-7.265,12.582a3.5,3.5,0,0,0,0,3.484l7.265,12.581a3.492,3.492,0,0,0,3.017,1.743h14.53a3.493,3.493,0,0,0,3.017-1.743l7.265-12.581a3.492,3.492,0,0,0,0-3.484l-7.265-12.582a3.492,3.492,0,0,0-3.016-1.741H734.974Z" transform="translate(-722.145 -2907.148)"/>
      <g id="P" transform="translate(17.774 10.178)">
        <g id="P-2" style="isolation: isolate">
          <text id="P-2-2" data-name="P" transform="translate(0 11)" fill="#fff" font-size="12" font-family="Quicksand-Bold, Quicksand" font-weight="700" style="isolation: isolate"><tspan x="0" y="0">P</tspan></text>
        </g>
      </g>
      <g id="Group_803" data-name="Group 803" transform="translate(6.539 4.616)">
        <path id="Path_3422" data-name="Path 3422" d="M739.423,2920.883a.744.744,0,0,1-.64-1.124l2.032-3.44a3.264,3.264,0,0,1,2.8-1.6h3.666a.744.744,0,1,1,0,1.489h-3.666a1.768,1.768,0,0,0-1.515.865l-2.033,3.439A.745.745,0,0,1,739.423,2920.883Z" transform="translate(-735.144 -2914.724)" fill="#fff"/>
        <path id="Path_3423" data-name="Path 3423" d="M733.621,2931.212a.744.744,0,0,1-.635-1.131l2.149-3.529a.744.744,0,0,1,1.271.774l-2.149,3.528A.744.744,0,0,1,733.621,2931.212Z" transform="translate(-732.877 -2919.207)" fill="#fff"/>
      </g>
    </g>
    <g id="Group_922" data-name="Group 922" transform="translate(7305.117 9807.402)">
      <path id="Path_1897" data-name="Path 1897" d="M957.257,2706.184H937.933a6.943,6.943,0,0,0-6.012,3.471l-9.662,16.736a6.942,6.942,0,0,0,0,6.942l9.662,16.736a6.942,6.942,0,0,0,6.012,3.471h19.325a6.943,6.943,0,0,0,6.012-3.471l9.663-16.736a6.942,6.942,0,0,0,0-6.942l-9.663-16.736A6.942,6.942,0,0,0,957.257,2706.184Z" transform="translate(-914.461 -2701.613)" fill="#30b553"/>
      <path id="Path_3424" data-name="Path 3424" d="M953.785,2755.536H931.5a8.566,8.566,0,0,1-7.4-4.271l-11.145-19.3a8.567,8.567,0,0,1,0-8.541l11.145-19.3a8.564,8.564,0,0,1,7.4-4.271h22.289a8.567,8.567,0,0,1,7.4,4.271l11.144,19.3a8.564,8.564,0,0,1,0,8.541l-11.144,19.3A8.566,8.566,0,0,1,953.785,2755.536ZM931.5,2703.049a5.358,5.358,0,0,0-4.628,2.672l-11.145,19.3a5.359,5.359,0,0,0,0,5.344l11.145,19.3a5.358,5.358,0,0,0,4.628,2.672h22.289a5.359,5.359,0,0,0,4.628-2.672l11.144-19.3a5.356,5.356,0,0,0,0-5.344l-11.144-19.3a5.36,5.36,0,0,0-4.628-2.672Z" transform="translate(-911.814 -2699.852)"/>
      <g id="Mg" transform="translate(17.148 13.486)">
        <g id="Mg-2" style="isolation: isolate">
          <text id="Mg-2-2" data-name="Mg" transform="translate(0 19)" fill="#fff" font-size="20" font-family="Quicksand-Bold, Quicksand" font-weight="700" style="isolation: isolate"><tspan x="0" y="0">Mg</tspan></text>
        </g>
      </g>
      <g id="Group_805" data-name="Group 805" transform="translate(9.464 6.178)">
        <path id="Path_3425" data-name="Path 3425" d="M933.577,2717.856a1.128,1.128,0,0,1-.58-.159,1.141,1.141,0,0,1-.4-1.563l3.118-5.277A5,5,0,0,1,940,2708.41h5.623a1.141,1.141,0,1,1,0,2.283H940a2.711,2.711,0,0,0-2.323,1.325l-3.118,5.277A1.141,1.141,0,0,1,933.577,2717.856Z" transform="translate(-927.015 -2708.41)" fill="#fff"/>
        <path id="Path_3426" data-name="Path 3426" d="M926.066,2730.956a1.13,1.13,0,0,1-.593-.167,1.141,1.141,0,0,1-.381-1.569l3.3-5.413a1.142,1.142,0,0,1,1.95,1.188l-3.3,5.413A1.14,1.14,0,0,1,926.066,2730.956Z" transform="translate(-924.926 -2712.54)" fill="#fff"/>
      </g>
    </g>
    <g id="Group_923" data-name="Group 923" transform="translate(7457.567 9869.765)">
      <path id="Path_1900" data-name="Path 1900" d="M1268.522,2870.615h-17.468a6.277,6.277,0,0,0-5.435,3.138l-8.733,15.127a6.276,6.276,0,0,0,0,6.276l8.733,15.127a6.275,6.275,0,0,0,5.435,3.137h17.468a6.275,6.275,0,0,0,5.434-3.137l8.734-15.127a6.277,6.277,0,0,0,0-6.276l-8.734-15.127A6.276,6.276,0,0,0,1268.522,2870.615Z" transform="translate(-1229.838 -2866.483)" fill="#168b16"/>
      <g id="Cu" transform="translate(16.903 13.79)">
        <g id="Cu-2" style="isolation: isolate">
          <text id="Cu-2-2" data-name="Cu" transform="translate(0 16)" fill="#fff" font-size="17" font-family="Quicksand-Bold, Quicksand" font-weight="700" style="isolation: isolate"><tspan x="0" y="0">Cu</tspan></text>
        </g>
      </g>
      <path id="Path_3427" data-name="Path 3427" d="M1268.007,2916.971h-20.146a7.744,7.744,0,0,1-6.687-3.86l-10.073-17.447a7.745,7.745,0,0,1,0-7.721l10.073-17.446a7.744,7.744,0,0,1,6.687-3.86h20.146a7.742,7.742,0,0,1,6.686,3.859l10.073,17.447a7.741,7.741,0,0,1,0,7.721l-10.073,17.447A7.743,7.743,0,0,1,1268.007,2916.971Zm-20.146-47.444a4.845,4.845,0,0,0-4.184,2.415l-10.074,17.446a4.85,4.85,0,0,0,0,4.831l10.074,17.447a4.843,4.843,0,0,0,4.184,2.416h20.146a4.845,4.845,0,0,0,4.184-2.416l10.073-17.447a4.844,4.844,0,0,0,0-4.831l-10.073-17.446a4.847,4.847,0,0,0-4.184-2.415Z" transform="translate(-1230.07 -2866.637)"/>
      <g id="Group_806" data-name="Group 806" transform="translate(9.222 5.812)">
        <path id="Path_3428" data-name="Path 3428" d="M1244.7,2880.771a1.032,1.032,0,0,1-.888-1.558l2.819-4.769a4.517,4.517,0,0,1,3.875-2.212h5.086a1.032,1.032,0,0,1,0,2.065H1250.5a2.445,2.445,0,0,0-2.1,1.2l-2.819,4.77A1.031,1.031,0,0,1,1244.7,2880.771Z" transform="translate(-1238.766 -2872.232)" fill="#fff"/>
        <path id="Path_3429" data-name="Path 3429" d="M1239.979,2888.518a1.032,1.032,0,0,1-.88-1.569l2.979-4.893a1.033,1.033,0,0,1,1.764,1.074l-2.98,4.893A1.033,1.033,0,0,1,1239.979,2888.518Z" transform="translate(-1238.949 -2871.871)" fill="#fff"/>
      </g>
    </g>
    <path id="Path_3430" data-name="Path 3430" d="M909.928,2814.015a87.7,87.7,0,0,0-86.085,71,14,14,0,0,0,13.742,16.664H982.27a14,14,0,0,0,13.742-16.664A87.7,87.7,0,0,0,909.928,2814.015Z" transform="translate(6410.131 7112.762)" fill="#bef6a2"/>
    <path id="Path_3431" data-name="Path 3431" d="M939.277,2883.193a48.244,48.244,0,0,0-47.359,39.061,7.7,7.7,0,0,0,7.56,9.167h79.6a7.7,7.7,0,0,0,7.56-9.167A48.244,48.244,0,0,0,939.277,2883.193Z" transform="translate(6374.407 7081.121)" fill="#71dc71"/>
    <g id="Path_3432" data-name="Path 3432" transform="translate(6406.754 7111.048)" fill="none" stroke-linecap="round" stroke-linejoin="round">
      <path d="M904.323,2806.61A96.816,96.816,0,0,0,809.285,2885a15.461,15.461,0,0,0,15.171,18.4H984.191a15.462,15.462,0,0,0,15.171-18.4A96.817,96.817,0,0,0,904.323,2806.61Z" stroke="none"/>
      <path d="M 904.3233032226562 2806.610107421875 C 857.1610107421875 2806.610107421875 817.8777465820312 2840.34326171875 809.28466796875 2884.998046875 C 807.448486328125 2894.537841796875 814.7415161132812 2903.3955078125 824.4561157226562 2903.3955078125 L 984.1910400390625 2903.3955078125 C 993.9057006835938 2903.3955078125 1001.198059082031 2894.537841796875 999.3624877929688 2884.998046875 C 990.7694702148438 2840.34326171875 951.4861450195312 2806.610107421875 904.3233032226562 2806.610107421875 M 904.3233032226562 2796.610107421875 C 955.4379272460938 2796.610107421875 999.5375366210938 2832.98779296875 1009.182312011719 2883.1083984375 C 1010.624328613281 2890.6025390625 1008.665466308594 2898.273681640625 1003.80810546875 2904.154541015625 C 998.9576416015625 2910.02734375 991.8075561523438 2913.3955078125 984.1910400390625 2913.3955078125 L 824.4561157226562 2913.3955078125 C 816.8392333984375 2913.3955078125 809.688720703125 2910.027099609375 804.8381958007812 2904.15380859375 C 799.9810180664062 2898.272705078125 798.0225219726562 2890.601806640625 799.4649047851562 2883.10791015625 C 809.1096801757812 2832.98779296875 853.2090454101562 2796.610107421875 904.3233032226562 2796.610107421875 Z" stroke="none" fill="#000"/>
    </g>
    <line id="Line_395" data-name="Line 395" y1="36.91" x2="22.917" transform="translate(7315.52 9960.582)" fill="none" stroke="#000" stroke-linecap="round" stroke-linejoin="round" stroke-width="10"/>
    <g id="Group_1350" data-name="Group 1350" transform="translate(7424.851 9942.221)">
      <path id="Path_1894" data-name="Path 1894" d="M1833.44,359.749H1814.45a6.822,6.822,0,0,0-5.908,3.411l-9.494,16.445a6.82,6.82,0,0,0,0,6.822l9.494,16.445a6.822,6.822,0,0,0,5.908,3.411h18.989a6.823,6.823,0,0,0,5.908-3.411l9.495-16.445a6.824,6.824,0,0,0,0-6.822l-9.495-16.445A6.823,6.823,0,0,0,1833.44,359.749Z" transform="translate(-1791.389 -355.256)" fill="#1a4be5" style="isolation: isolate"/>
      <path id="Path_1895" data-name="Path 1895" d="M1802.447,349.739h21.9a8.417,8.417,0,0,1,7.269,4.2l10.951,18.966a8.417,8.417,0,0,1,0,8.393l-10.951,18.966a8.417,8.417,0,0,1-7.268,4.2h-21.9a8.416,8.416,0,0,1-7.269-4.2l-10.951-18.966a8.414,8.414,0,0,1,0-8.393l10.951-18.966A8.416,8.416,0,0,1,1802.447,349.739Zm21.9,51.576a5.267,5.267,0,0,0,4.548-2.626l10.951-18.966a5.266,5.266,0,0,0,0-5.251l-10.951-18.966a5.267,5.267,0,0,0-4.548-2.626h-21.9a5.266,5.266,0,0,0-4.548,2.625l-10.951,18.966a5.264,5.264,0,0,0,0,5.251l10.951,18.966a5.266,5.266,0,0,0,4.548,2.626Z" transform="translate(-1783.106 -349.739)"/>
      <g id="Zn" transform="translate(18.401 14.825)" style="isolation: isolate">
        <text id="Zn-2" data-name="Zn" transform="translate(0 19)" fill="#fff" font-size="20" font-family="Quicksand-Bold, Quicksand" font-weight="700" style="isolation: isolate"><tspan x="0" y="0">Zn</tspan></text>
      </g>
      <g id="Group_804" data-name="Group 804" transform="translate(9.201 6.958)">
        <path id="Path_1896" data-name="Path 1896" d="M1816.6,374.526a1.122,1.122,0,0,1-.965-1.693l3.064-5.185a4.9,4.9,0,0,1,4.215-2.4h5.525a1.122,1.122,0,1,1,0,2.244h-5.525a2.664,2.664,0,0,0-2.283,1.3l-3.063,5.185A1.121,1.121,0,0,1,1816.6,374.526Z" transform="translate(-1810.149 -365.243)" fill="#fff"/>
        <path id="Line_311" data-name="Line 311" d="M-1.379,5.063A1.117,1.117,0,0,1-1.962,4.9a1.122,1.122,0,0,1-.375-1.542L.9-1.962a1.122,1.122,0,0,1,1.542-.375A1.122,1.122,0,0,1,2.82-.795L-.42,4.524A1.121,1.121,0,0,1-1.379,5.063Z" transform="translate(2.5 13.034)" fill="#fff"/>
      </g>
    </g>
  </g>
</svg>
