<svg xmlns="http://www.w3.org/2000/svg" width="438.386" height="199.655" viewBox="0 0 438.386 199.655">
  <g id="Group_1346" data-name="Group 1346" transform="translate(-654.833 -2316.309)">
    <g id="Group_1345" data-name="Group 1345" transform="translate(654.833 2316.309)">
      <g id="Group_1169" data-name="Group 1169" transform="translate(24.09 40.449)">
        <g id="Group_1054" data-name="Group 1054" transform="translate(1.884 3.641)">
          <path id="Path_2757" data-name="Path 2757" d="M-61.9,2831.231l3.307-.458a2.268,2.268,0,0,0,1.935-2.557c0-.024-.007-.048-.011-.073l-1.442-8.412-7.48-3.867,1.45,13.612a1.98,1.98,0,0,0,2.178,1.761Z" transform="translate(80.687 -2775.659)" fill="#fbfbfb"/>
          <path id="Path_2758" data-name="Path 2758" d="M-59.554,2787.111l4.172-21.823a.8.8,0,0,0-.639-.94.67.67,0,0,0-.082-.012l-3.794-.326a1.244,1.244,0,0,0-1.28.828l-5.286,15.035Z" transform="translate(80.97 -2758.767)" fill="#62a537"/>
          <path id="Path_2759" data-name="Path 2759" d="M-78.723,2756.623l1.25-.348a1.063,1.063,0,0,1,1.208.5l7.918,13.886-2.348,6.684-5.537-4.416-3.206-15.123A1.008,1.008,0,0,1-78.723,2756.623Z" transform="translate(85.204 -2756.236)" fill="#4d9e1d"/>
          <path id="Path_2760" data-name="Path 2760" d="M-68.417,2765.385l2.52-5.411a1,1,0,0,1,1.221-.529l1.485.487a.794.794,0,0,1,.537.876l-1.4,9.114-.695,1.765Z" transform="translate(81.607 -2757.265)" fill="#157b23"/>
          <path id="Path_2761" data-name="Path 2761" d="M-65.406,2805.926l-7.479-3.867-1.672-9.364a13.937,13.937,0,0,0-3.831-7.374l-9.345-9.414a.848.848,0,0,1,0-1.2c.02-.02.041-.039.063-.056l1.092-.887a1.248,1.248,0,0,1,1.565-.007l16.875,13.46a4.207,4.207,0,0,1,1.573,2.981Z" transform="translate(87.979 -2761.855)" fill="#82cc58"/>
        </g>
        <g id="Path_2894" data-name="Path 2894" transform="translate(0 1.758)">
          <path id="Path_3433" data-name="Path 3433" d="M-63.963,2808.721l-1.442-8.412-1.154-15.729,4.172-21.823a.8.8,0,0,0-.638-.94.806.806,0,0,0-.083-.011l-3.795-.327a1.244,1.244,0,0,0-1.28.828l-2.185,6.213,1.347-8.741a.794.794,0,0,0-.537-.876l-1.485-.488a1,1,0,0,0-1.221.53l-2.489,5.341-4.284-7.513a1.063,1.063,0,0,0-1.208-.5l-1.25.347a1.01,1.01,0,0,0-.717,1.181l3.206,15.122-6-4.787a1.248,1.248,0,0,0-1.564.008l-1.092.887a.847.847,0,0,0-.123,1.192c.018.022.036.043.057.064l9.345,9.413a13.937,13.937,0,0,1,3.831,7.374l1.672,9.367,1.45,13.613a1.981,1.981,0,0,0,2.18,1.76l.061-.007,3.307-.459a2.268,2.268,0,0,0,1.932-2.559C-63.955,2808.768-63.959,2808.745-63.963,2808.721Z" transform="translate(89.862 -2754.354)" fill="none"/>
          <path id="Path_3434" data-name="Path 3434" d="M-70.791,2810.874a1.97,1.97,0,0,0,.687.024l3.307-.458a2.268,2.268,0,0,0,1.924-2.63l-1.442-8.411-1.156-15.729,4.172-21.823a.8.8,0,0,0-.721-.951l-3.794-.327a1.245,1.245,0,0,0-1.28.828l-2.185,6.213,1.347-8.741a.8.8,0,0,0-.537-.876l-1.485-.488a1,1,0,0,0-1.222.53l-2.488,5.34-4.284-7.514a1.063,1.063,0,0,0-1.208-.5l-1.249.348a1.009,1.009,0,0,0-.717,1.181l3.206,15.122-6-4.786a1.247,1.247,0,0,0-1.565.008l-1.092.887a.848.848,0,0,0-.067,1.255l9.345,9.414a13.937,13.937,0,0,1,3.831,7.374l1.672,9.366,1.45,13.613a1.982,1.982,0,0,0,1.554,1.728m-.4,1.842h0a3.858,3.858,0,0,1-3.032-3.37l-1.443-13.547-1.66-9.3a12.01,12.01,0,0,0-3.313-6.377l-9.345-9.414a2.737,2.737,0,0,1-.789-2.07,2.736,2.736,0,0,1,1-1.974l1.092-.887a3.115,3.115,0,0,1,2.632-.632,3.153,3.153,0,0,1,1.295.613l1.9,1.512-2.117-9.984a2.9,2.9,0,0,1,2.056-3.387l1.25-.346a2.948,2.948,0,0,1,1.405-.042,2.948,2.948,0,0,1,1.942,1.42l2.48,4.349.949-2.038a2.893,2.893,0,0,1,1.337-1.369,2.9,2.9,0,0,1,1.884-.235,3.014,3.014,0,0,1,.3.08l1.485.488a2.682,2.682,0,0,1,1.448,1.144,2.679,2.679,0,0,1,.394,1.335,3.128,3.128,0,0,1,.385.009l3.8.326a2.823,2.823,0,0,1,.335.051,2.671,2.671,0,0,1,1.669,1.133,2.669,2.669,0,0,1,.4,2l-4.124,21.578,1.131,15.391,1.427,8.322a4.12,4.12,0,0,1-.742,3.153,4.118,4.118,0,0,1-2.78,1.66l-3.307.458A3.845,3.845,0,0,1-71.186,2812.716Z" transform="translate(90.773 -2753.444)"/>
        </g>
        <g id="Group_1055" data-name="Group 1055" transform="translate(23.633 1.884)">
          <path id="Path_2763" data-name="Path 2763" d="M-20.472,2758.217l3.742-4.252a.99.99,0,0,1,.945-.314l.352.076a.672.672,0,0,1,.521.8.687.687,0,0,1-.042.13l-4.7,10.806-3.785,1.136Z" transform="translate(45.208 -2753.63)" fill="#569e2b"/>
          <path id="Path_2764" data-name="Path 2764" d="M-55.057,2812.1l1.766,1.32a1.487,1.487,0,0,0,2.081-.3l.014-.02,8.928-12.362-3.248-7.329-9.969,16.5A1.661,1.661,0,0,0-55.057,2812.1Z" transform="translate(55.723 -2766.588)" fill="#fbfbfb"/>
          <path id="Path_2765" data-name="Path 2765" d="M-35.913,2775.3l-4.671,7.667,3.247,7.329,6.127-9.341a6.539,6.539,0,0,0,1.015-4.439l-1.928-14.666a.585.585,0,0,0-.639-.506l-1.632.165a1.015,1.015,0,0,0-.912.961Z" transform="translate(50.792 -2756.142)" fill="#9dd77f"/>
          <path id="Path_2766" data-name="Path 2766" d="M-26.434,2771.7l6.884-7.487a1,1,0,0,1,1.1-.259l2.477.947a.8.8,0,0,1,.459,1.026.806.806,0,0,1-.094.176l-11.152,15.764Z" transform="translate(46.289 -2756.97)" fill="#82cc58"/>
          <path id="Path_2767" data-name="Path 2767" d="M-26.994,2764.759l3.751-10.369a.764.764,0,0,1,.941-.472l.836.255a.631.631,0,0,1,.436.712l-1.647,9.383-3.832,4.168Z" transform="translate(46.365 -2753.713)" fill="#62a537"/>
        </g>
        <g id="Path_2895" data-name="Path 2895" transform="translate(21.749)">
          <path id="Path_3435" data-name="Path 3435" d="M-25.408,2761.557l-2.477-.947a1.04,1.04,0,0,0-.163-.035l2.577-5.923a.673.673,0,0,0-.348-.885.644.644,0,0,0-.13-.041l-.353-.076a.989.989,0,0,0-.944.314l-3.742,4.251h0l.6-3.41a.63.63,0,0,0-.436-.712l-.836-.255a.763.763,0,0,0-.941.473l-3.75,10.365-.7-5.337a.585.585,0,0,0-.639-.505l-1.632.165a1.014,1.014,0,0,0-.912.96l-.608,12.829-4.671,7.667-9.969,16.5a1.661,1.661,0,0,0,.427,2.188l1.766,1.319a1.487,1.487,0,0,0,2.081-.3l.015-.021,8.928-12.361,6.072-9.257h0l11.152-15.766a.8.8,0,0,0-.19-1.107A.806.806,0,0,0-25.408,2761.557Z" transform="translate(57.607 -2751.746)" fill="none"/>
          <path id="Path_3436" data-name="Path 3436" d="M-26.855,2752.816h0l-.353-.074a.987.987,0,0,0-.944.314l-3.742,4.252.6-3.411a.63.63,0,0,0-.437-.712l-.836-.256a.764.764,0,0,0-.941.471l-3.75,10.366-.7-5.338a.585.585,0,0,0-.639-.506l-1.632.166a1.013,1.013,0,0,0-.912.961l-.608,12.829-4.671,7.667-9.969,16.5a1.661,1.661,0,0,0,.427,2.188l1.766,1.319a1.486,1.486,0,0,0,2.1-.32l8.928-12.361,6.072-9.258,11.152-15.765a.8.8,0,0,0-.365-1.2l-2.477-.947a.979.979,0,0,0-.162-.035l2.578-5.924a.672.672,0,0,0-.476-.926m.4-1.841a2.543,2.543,0,0,1,1.738,1.333,2.543,2.543,0,0,1,.069,2.188l-1.781,4.092.789.3a2.66,2.66,0,0,1,1.606,1.723,2.66,2.66,0,0,1-.376,2.326l-11.133,15.738-6.055,9.23c-.016.024-.031.047-.048.07l-8.927,12.361a3.372,3.372,0,0,1-3.44,1.322,3.338,3.338,0,0,1-1.311-.6l-1.765-1.319a3.536,3.536,0,0,1-1.357-2.16,3.532,3.532,0,0,1,.444-2.511l9.969-16.5,0-.005,4.42-7.257.585-12.348a2.9,2.9,0,0,1,.792-1.858,2.9,2.9,0,0,1,1.813-.889l1.632-.165a2.489,2.489,0,0,1,.766.042,2.467,2.467,0,0,1,1.277.72l1.466-4.052a2.646,2.646,0,0,1,1.212-1.418,2.646,2.646,0,0,1,1.832-.27c.073.015.146.034.217.056l.837.255a2.511,2.511,0,0,1,1.243.853l.374-.424a2.876,2.876,0,0,1,2.746-.914Z" transform="translate(58.517 -2750.837)"/>
        </g>
      </g>
      <g id="Group_1170" data-name="Group 1170" transform="translate(64.219 131.615)">
        <path id="Path_3437" data-name="Path 3437" d="M-.125,2894.618a8.4,8.4,0,0,1,6.48-4.925,19.009,19.009,0,0,1,9.85.6c1.3.519,8.9-.086,12.7,4.32s.436,6.048.564,6.393-14.764,2.852-20.581.864A18.8,18.8,0,0,1-.125,2894.618Z" transform="translate(21.117 -2887.119)" fill="#90be16"/>
        <path id="Path_3438" data-name="Path 3438" d="M-14.989,2903.909s.519-5.3,3.456-6.451,4.2-1.958,4.55-2.073,4.147-1.67,6.394,0,2.246,2.3,4.377,2.362,7.085.749,7.315,3.8,3.226,12.269,1.037,13.305S1.2,2919.577-.531,2918.136-12.742,2908.633-14.989,2903.909Z" transform="translate(25.958 -2888.836)" fill="#5faa2e"/>
        <path id="Path_3439" data-name="Path 3439" d="M13.474,2915.44s-1.21-3.11,1.9-6.048c.864-4.665,1.382-7,2.679-8.121,0-1.9-.087-7.171,3.974-7.948,3.8,0,7.517,1.727,8.813,4.233,2.073.346,5.7,1.9,6.307,4.752a7.358,7.358,0,0,1,2.16,7.258c-.432,1.469-1.033,16.588-5.484,17.02s-11.8,4.147-13.351,2.16S13.474,2915.44,13.474,2915.44Z" transform="translate(16.762 -2888.415)" fill="#5ea036"/>
        <path id="Path_3440" data-name="Path 3440" d="M34.378,2924.666a.8.8,0,0,1-.167-.018.794.794,0,0,1-.61-.942c3.313-15.493-6.184-23.153-6.28-23.229a.794.794,0,1,1,.98-1.249c.1.082,10.372,8.359,6.853,24.81A.794.794,0,0,1,34.378,2924.666Z" transform="translate(12.276 -2890.283)" fill="#e4ffa9"/>
        <path id="Path_3441" data-name="Path 3441" d="M5.17,2918.628a.792.792,0,0,1-.593-.266,16.1,16.1,0,0,1-3.168-16.118.794.794,0,0,1,1.474.588,14.511,14.511,0,0,0,2.88,14.475.794.794,0,0,1-.593,1.321Z" transform="translate(20.919 -2891.158)" fill="#e4ffa9"/>
        <path id="Path_3442" data-name="Path 3442" d="M-4.921,2947.943s-10.972-.864-16.416-11.146c-3.284-3.2-4.406-3.888-5.1-9.677-1.556-4.061-2.247-7.6-1.123-9.677a11.668,11.668,0,0,0,1.555-5.27c-.086-.951-1.123-6.826.6-8.468s4.406-.432,5.357,1.123c1.555.086,4.752-.086,5.7,1.987,2.419,1.642,4.061-.345,7.344,5.53,1.469.864,7.344,1.382,8.726,4.579s5.27,5.869,4.665,8.507c2.419.825,8.122,7.218,6.048,13.958S7.175,2950.795-4.921,2947.943Z" transform="translate(30.233 -2891.542)" fill="#90be16"/>
        <path id="Path_3443" data-name="Path 3443" d="M22.647,2949.44s-5.311-2.228-4.553-7.429,2.788-5.431,3.948-6.852,2.117-9.242,6.137-10.163,3.029-1.852,4.5-3.6,5.489-3.492,6.339-4.583,2.36-1.561,2.928-5.871,3.61-1.331,3.61-1.331,1.741,3.2,2.771,3.769,5.224,6.3-.489,16.747C44.475,2938.282,39.428,2950.114,22.647,2949.44Z" transform="translate(15.206 -2893.393)" fill="#afd634"/>
        <path id="Path_3444" data-name="Path 3444" d="M4.3,2952.44a.815.815,0,0,1-.167-.017c-14.067-3.015-20.351-10.964-23.146-17.1a29.41,29.41,0,0,1-2.7-12.752.792.792,0,0,1,.839-.745.793.793,0,0,1,.746.838,28.346,28.346,0,0,0,2.593,12.064c3.855,8.409,11.258,13.841,22.006,16.144a.794.794,0,0,1-.166,1.57Z" transform="translate(28.154 -2897.699)" fill="#fff"/>
        <path id="Path_3445" data-name="Path 3445" d="M30.758,2950.551a.794.794,0,0,1-.26-1.544,30.541,30.541,0,0,0,9.978-6.419c6.2-6.03,8.482-13.7,6.782-22.805a.794.794,0,1,1,1.56-.291c4.309,23.076-17.579,30.938-17.8,31.015A.783.783,0,0,1,30.758,2950.551Z" transform="translate(11.316 -2896.728)" fill="#fff"/>
        <path id="Path_3446" data-name="Path 3446" d="M-13.323,2942.377a.793.793,0,0,1-.332-.073.794.794,0,0,1-.388-1.053,32.812,32.812,0,0,0,2.692-10.153.808.808,0,0,1,.831-.754.793.793,0,0,1,.754.831,33.778,33.778,0,0,1-2.836,10.741A.793.793,0,0,1-13.323,2942.377Z" transform="translate(25.674 -2900.474)" fill="#fff"/>
        <path id="Path_3447" data-name="Path 3447" d="M.294,2954.021a.793.793,0,0,1-.481-1.425c.071-.055,7.178-5.513,7.842-10.283a.793.793,0,1,1,1.572.219c-.753,5.419-8.139,11.089-8.453,11.328A.793.793,0,0,1,.294,2954.021Z" transform="translate(21.239 -2904.15)" fill="#fff"/>
        <path id="Path_3448" data-name="Path 3448" d="M38.177,2916.808a.794.794,0,0,1-.581-1.335c.034-.035,3.336-3.61,3.645-6.733a.794.794,0,1,1,1.58.156c-.361,3.661-3.913,7.5-4.064,7.661A.792.792,0,0,1,38.177,2916.808Z" transform="translate(8.899 -2893.203)" fill="#e4ffa9"/>
        <path id="Path_3449" data-name="Path 3449" d="M1.318,2909.266a.793.793,0,0,1-.326-1.517,5.575,5.575,0,0,0,2.262-1.579.8.8,0,0,1,.965-.572.781.781,0,0,1,.58.936c-.3,1.293-2.493,2.365-3.157,2.662A.792.792,0,0,1,1.318,2909.266Z" transform="translate(20.905 -2892.405)" fill="#e4ffa9"/>
        <path id="Path_3450" data-name="Path 3450" d="M32.613,2903.547a.809.809,0,0,1-.266-.046.794.794,0,0,1-.481-1.014,10.708,10.708,0,0,0,.546-2.663.794.794,0,0,1,1.587.06,12.134,12.134,0,0,1-.638,3.136A.794.794,0,0,1,32.613,2903.547Z" transform="translate(10.711 -2890.284)" fill="#e4ffa9"/>
        <path id="Path_3451" data-name="Path 3451" d="M33.817,2913.83l-.069,0a11.966,11.966,0,0,1-5.054-2.115.794.794,0,0,1,.936-1.282,10.511,10.511,0,0,0,4.255,1.816.793.793,0,0,1-.067,1.584Z" transform="translate(11.835 -2893.938)" fill="#e4ffa9"/>
        <path id="Path_3452" data-name="Path 3452" d="M-13.463,2953.661a11.823,11.823,0,0,1-2.7-.335.793.793,0,0,1-.568-.967.8.8,0,0,1,.968-.569,8.6,8.6,0,0,0,3.7.117.794.794,0,0,1,.981.546.794.794,0,0,1-.545.981A6.76,6.76,0,0,1-13.463,2953.661Z" transform="translate(26.535 -2907.451)" fill="#fff"/>
        <path id="Path_3453" data-name="Path 3453" d="M41.726,2953.551a.794.794,0,0,1-.76-.564,25.564,25.564,0,0,1-.49-9.522.793.793,0,1,1,1.57.228,24.4,24.4,0,0,0,.439,8.835.793.793,0,0,1-.531.988A.772.772,0,0,1,41.726,2953.551Z" transform="translate(7.97 -2904.526)" fill="#fff"/>
        <path id="Path_3454" data-name="Path 3454" d="M53.3,2938.641a.794.794,0,0,1-.759-.563,25.568,25.568,0,0,1-.49-9.523.793.793,0,0,1,1.57.228,24.4,24.4,0,0,0,.439,8.835.793.793,0,0,1-.761,1.023Z" transform="translate(4.199 -2899.669)" fill="#fff"/>
        <path id="Path_3455" data-name="Path 3455" d="M.187,2888.161a16.5,16.5,0,0,1,5.877.953c1.3.519,8.9-.086,12.7,4.32a6.561,6.561,0,0,1,1.8,3.431,5.11,5.11,0,0,1,2.092,2.963,7.357,7.357,0,0,1,2.16,7.258c-.013.042-.026.1-.038.164a9.856,9.856,0,0,0,1.12-3.767c.239-1.809.913-2.334,1.616-2.334a3.584,3.584,0,0,1,1.994,1s1.741,3.2,2.771,3.769,5.224,6.3-.489,16.747c-3.272,7.932-8.132,19.341-23.835,19.341-.442,0-.9-.009-1.356-.027,0,0-.135-.057-.357-.172a11.142,11.142,0,0,1-5.813,1.378,28.089,28.089,0,0,1-6.371-.851s-10.973-.865-16.416-11.146c-3.284-3.2-4.406-3.888-5.1-9.677-1.555-4.06-2.246-7.6-1.123-9.677a11.677,11.677,0,0,0,1.555-5.27c-.086-.951-1.123-6.826.6-8.468a2.8,2.8,0,0,1,1.975-.784,4.228,4.228,0,0,1,3.382,1.907c.31.018.688.025,1.1.041.411-1.653,1.3-3.988,3.135-4.706,2.937-1.153,4.2-1.959,4.55-2.074a12.258,12.258,0,0,1,3-.733,8.58,8.58,0,0,1,5.493-3.241,23.33,23.33,0,0,1,3.973-.348m0-2.117a25.561,25.561,0,0,0-4.333.38,10.719,10.719,0,0,0-6.228,3.341,14.647,14.647,0,0,0-2.531.694l-.061.022a6.214,6.214,0,0,0-.851.395,37.313,37.313,0,0,1-3.789,1.712,6.767,6.767,0,0,0-3.534,3.63,6.16,6.16,0,0,0-3.309-1.018,4.894,4.894,0,0,0-3.433,1.366c-2.019,1.918-1.824,5.807-1.313,9.724.027.209.049.371.058.469a10.256,10.256,0,0,1-1.308,4.071c-1.328,2.451-1.038,6.012.914,11.2.71,5.674,2,7.115,5.03,10.042l.429.414c5.64,10.3,16.22,11.784,17.78,11.948a29.731,29.731,0,0,0,6.715.875,13.791,13.791,0,0,0,6.024-1.211l.061,0c.484.02.969.03,1.441.03,17.2,0,22.558-12.811,25.749-20.546,3.26-6.01,3.4-10.566,2.948-13.334-.529-3.213-2.059-5.416-3.283-6.14a15.434,15.434,0,0,1-2-2.967,2.1,2.1,0,0,0-.378-.5,5.412,5.412,0,0,0-3.475-1.608,3.324,3.324,0,0,0-2.139.763,11.759,11.759,0,0,0-.815-1.027,7.1,7.1,0,0,0-2.07-3.061,9.6,9.6,0,0,0-2.119-3.656c-3.452-4-9.168-4.509-12.239-4.782-.5-.044-1.123-.1-1.345-.146a18.456,18.456,0,0,0-6.6-1.079Z" transform="translate(31.258 -2886.044)"/>
      </g>
      <g id="Group_939" data-name="Group 939" transform="translate(322.781 44.255)">
        <g id="Group_871" data-name="Group 871" transform="translate(15.435)">
          <g id="Group_766" data-name="Group 766" transform="translate(0.513 1.965)">
            <path id="Path_1798" data-name="Path 1798" d="M406.083,2772.826l6.869-12.576a1.639,1.639,0,0,1,2.223-.656c.02.011.04.021.059.034l2.4,1.444a2.36,2.36,0,0,1,.808,3.238,2.328,2.328,0,0,1-.241.332l-8.82,10.164Z" transform="translate(-385.708 -2759.395)" fill="#e4ff83"/>
            <path id="Path_1799" data-name="Path 1799" d="M401.6,2771.955l4.625-10.186a1.428,1.428,0,0,1,1.893-.706,1.363,1.363,0,0,1,.129.067l2.108,1.24a1.505,1.505,0,0,1,.534,2.061c-.017.027-.034.055-.052.082l-6.092,8.982Z" transform="translate(-384.247 -2759.896)" fill="#39b54a"/>
            <g id="Group_1171" data-name="Group 1171" transform="translate(0 9.532)">
              <path id="Path_1800" data-name="Path 1800" d="M398.736,2777.824c8.589,5.932,3.349,11.927-6.126,21.428s-13.041,6.322-13.041,6.322-4.236-2.208,1.295-14.433S390.147,2771.892,398.736,2777.824Z" transform="translate(-376.567 -2774.232)" fill="#ff7139"/>
              <path id="Path_1800-2" data-name="Path 1800" d="M392.451,2774.982a10.072,10.072,0,0,1,5.584,2.141c8.589,5.932,3.349,11.927-6.126,21.428-5.676,5.692-9.231,6.833-11.17,6.833a2.909,2.909,0,0,1-1.871-.511s-4.236-2.207,1.295-14.433c4.164-9.2,7.319-15.458,12.289-15.458m0-1.451h0c-5.8,0-9.153,6.459-13.611,16.311-2.416,5.342-3.368,9.6-2.828,12.652a5.07,5.07,0,0,0,2.036,3.58,4.511,4.511,0,0,0,2.69.762c3.29,0,7.394-2.443,12.2-7.26,6.855-6.874,11.315-11.746,10.868-16.632-.236-2.585-1.854-4.879-4.945-7.014a11.422,11.422,0,0,0-6.408-2.4Z" transform="translate(-375.865 -2773.531)"/>
            </g>
            <path id="Path_1801" data-name="Path 1801" d="M392.073,2786a1.179,1.179,0,0,1-1.394-1.587c.076-.185,1.9-4.532,5.359-5.459a1.178,1.178,0,0,1,.61,2.276c-2.307.619-3.775,4.046-3.79,4.08A1.175,1.175,0,0,1,392.073,2786Z" transform="translate(-380.661 -2765.751)" fill="#fff"/>
          </g>
          <path id="Path_1802" data-name="Path 1802" d="M398.524,2759.531a1.42,1.42,0,0,0-.929.788l-4.189,9.226c-5.683-1.077-9,5.418-13.488,15.342-5.532,12.225-1.3,14.432-1.3,14.432s3.564,3.18,13.041-6.322c8.589-8.615,13.7-14.346,8.174-19.764l8.28-9.54a2.361,2.361,0,0,0-.568-3.571l-2.4-1.442a1.639,1.639,0,0,0-2.249.56c-.011.02-.023.039-.034.059l-.959,1.753a1.492,1.492,0,0,0-.179-.135l-2.109-1.238a1.42,1.42,0,0,0-1.092-.149m-.509-1.9a3.371,3.371,0,0,1,2.6.352l.554.327a3.6,3.6,0,0,1,4.992-1.318l2.4,1.444a4.324,4.324,0,0,1,1.482,5.933,4.413,4.413,0,0,1-.442.609l-7.162,8.252a9.085,9.085,0,0,1,.912,1.51,7.667,7.667,0,0,1,.75,3.261c.013,2.389-1.042,4.91-3.323,7.934a89.708,89.708,0,0,1-7.724,8.449c-3.9,3.911-7.4,6.3-10.392,7.1-2.893.775-4.558-.119-5.149-.548a4.2,4.2,0,0,1-1.014-.95,6.626,6.626,0,0,1-1.238-2.963c-.558-3.157.407-7.515,2.866-12.952a83.731,83.731,0,0,1,5.4-10.575c2.137-3.289,4.268-5.125,6.7-5.778a7.607,7.607,0,0,1,1.963-.258l3.617-7.959a3.378,3.378,0,0,1,2.209-1.873Z" transform="translate(-375.105 -2756.481)"/>
          <path id="Line_296" data-name="Line 296" d="M390.086,2811.99a.584.584,0,0,1-.456-.064l-3.283-1.97a.589.589,0,0,1,.607-1.01l3.282,1.971a.589.589,0,0,1-.15,1.074Z" transform="translate(-378.674 -2773.543)" fill="#e2511e"/>
          <path id="Line_297" data-name="Line 297" d="M390.5,2799.559a.59.59,0,0,1-.456-.064l-3.282-1.97a.589.589,0,1,1,.607-1.011l3.282,1.971a.59.59,0,0,1-.15,1.074Z" transform="translate(-378.808 -2769.493)" fill="#e2511e"/>
          <path id="Line_298" data-name="Line 298" d="M405.194,2794.414a.589.589,0,0,1-.456-.064l-3.282-1.971a.589.589,0,1,1,.607-1.01l3.282,1.971a.589.589,0,0,1-.15,1.074Z" transform="translate(-383.595 -2767.818)" fill="#e2511e"/>
        </g>
        <g id="Group_870" data-name="Group 870" transform="translate(0 7.365)">
          <g id="Group_869" data-name="Group 869" transform="translate(1.966 1.965)">
            <path id="Path_1798-2" data-name="Path 1798-2" d="M365.739,2786.309l-8.086-11.83a1.639,1.639,0,0,1,.425-2.278l.057-.037,2.378-1.487a2.36,2.36,0,0,1,3.253.75,2.408,2.408,0,0,1,.187.365L369,2784.264Z" transform="translate(-355.858 -2770.317)" fill="#e4ff83"/>
            <path id="Path_1799-2" data-name="Path 1799-2" d="M362.415,2791.123l-6.975-8.746a1.429,1.429,0,0,1,.231-2.007q.057-.045.117-.084l2.062-1.315a1.506,1.506,0,0,1,2.078.46c.018.027.034.054.049.083l5.237,9.506Z" transform="translate(-355.13 -2773.059)" fill="#39b54a"/>
            <g id="Group_1172" data-name="Group 1172" transform="translate(3.902 11.247)">
              <path id="Path_1800-2-2" data-name="Path 1800-2" d="M368.139,2790.705c9.186-4.96,12.147,2.431,16.311,15.187s-.288,14.49-.288,14.49-3.89,2.773-12.272-7.706S358.954,2795.666,368.139,2790.705Z" transform="translate(-361.619 -2787.699)" fill="#ff7139"/>
              <path id="Path_1800-2-3" data-name="Path 1800-2" d="M372.545,2788.449c5.4,0,7.928,6.712,11.2,16.742,4.164,12.756-.288,14.49-.288,14.49a2.589,2.589,0,0,1-1.422.332c-1.808,0-5.368-1.185-10.85-8.038-8.383-10.479-12.937-17.01-3.752-21.97a10.968,10.968,0,0,1,5.109-1.556m0-1.451v0h0a12.309,12.309,0,0,0-5.8,1.73c-3.306,1.785-5.164,3.889-5.681,6.433-.978,4.811,2.924,10.139,8.988,17.72,5.675,7.094,9.649,8.583,11.983,8.583a4.154,4.154,0,0,0,2.115-.505,5.076,5.076,0,0,0,2.406-3.332c.87-2.977.388-7.312-1.431-12.885-2.979-9.125-5.793-17.744-12.581-17.744Z" transform="translate(-360.917 -2786.998)"/>
            </g>
            <path id="Path_1801-2" data-name="Path 1801-2" d="M370.531,2806.765a1.178,1.178,0,0,1-2.047.521c-.13-.151-3.175-3.751-2.431-7.253a1.178,1.178,0,0,1,2.305.49c-.5,2.337,1.891,5.2,1.914,5.229A1.175,1.175,0,0,1,370.531,2806.765Z" transform="translate(-358.65 -2779.692)" fill="#fff"/>
          </g>
          <path id="Path_1802-2" data-name="Path 1802-2" d="M354.21,2777.5a1.421,1.421,0,0,0,.28,1.185l6.319,7.922c-3.54,4.574.742,10.477,7.546,18.983,8.381,10.479,12.271,7.706,12.271,7.706s4.452-1.732.288-14.49c-3.777-11.563-6.563-18.719-13.9-16.255l-4.741-11.709a2.359,2.359,0,0,0-3.073-1.3,2.388,2.388,0,0,0-.366.187l-2.377,1.488a1.639,1.639,0,0,0-.521,2.258c.012.019.024.039.037.057l1.127,1.65a1.432,1.432,0,0,0-.2.1l-2.061,1.317a1.423,1.423,0,0,0-.628.906m-1.921-.408a3.366,3.366,0,0,1,1.491-2.152l.543-.345a3.6,3.6,0,0,1,1.092-5.046l2.378-1.487a4.326,4.326,0,0,1,6.3,2.043l4.1,10.128a9.032,9.032,0,0,1,1.759-.127,7.672,7.672,0,0,1,3.246.813c2.135,1.073,3.9,3.158,5.56,6.563a89.673,89.673,0,0,1,4.021,10.718c1.714,5.251,2.257,9.45,1.612,12.485-.622,2.929-2.175,4.007-2.827,4.339a4.187,4.187,0,0,1-1.307.472,6.617,6.617,0,0,1-3.2-.243c-3.067-.936-6.511-3.774-10.24-8.433a83.846,83.846,0,0,1-6.972-9.61c-1.96-3.4-2.628-6.13-2.1-8.6a7.608,7.608,0,0,1,.661-1.866l-5.449-6.836a3.378,3.378,0,0,1-.666-2.819Z" transform="translate(-352.214 -2767.403)"/>
          <path id="Line_296-2" data-name="Line 296-2" d="M391.733,2821.733a.587.587,0,0,1-.264.378l-3.246,2.03a.589.589,0,1,1-.624-1l3.246-2.03a.589.589,0,0,1,.889.621Z" transform="translate(-363.649 -2784.869)" fill="#e2511e"/>
          <path id="Line_297-2" data-name="Line 297-2" d="M380.844,2815.723a.592.592,0,0,1-.264.378l-3.246,2.03a.589.589,0,1,1-.625-1l3.247-2.03a.589.589,0,0,1,.889.621Z" transform="translate(-360.102 -2782.911)" fill="#e2511e"/>
          <path id="Line_298-2" data-name="Line 298-2" d="M382.932,2800.293a.588.588,0,0,1-.264.378l-3.246,2.03a.589.589,0,0,1-.624-1l3.246-2.029a.589.589,0,0,1,.889.621Z" transform="translate(-360.783 -2777.885)" fill="#e2511e"/>
        </g>
      </g>
      <g id="Group_1174" data-name="Group 1174" transform="translate(102.461 7.958)">
        <path id="Path_3456" data-name="Path 3456" d="M72.524,2727.6c-.945-1.04-1.763-1.939-2.254-2.578-.35-.454-.811-1.127-1.345-1.906-3.3-4.807-9.428-13.753-19.376-16.637a18.325,18.325,0,0,0-5.095-.744v1.614h0v-1.614h0a17.7,17.7,0,0,0-9.923,3.12,13.056,13.056,0,0,0-7.726-6.168,1.067,1.067,0,0,0-.519,2.07,10.937,10.937,0,0,1,6.513,5.4,19.117,19.117,0,0,0-2.992,3.077c-3.1,3.928-6.517,13.394-2.563,22.216l.016.033.016.033c3.266,6.668,7.787,11.505,13.438,14.379a32.633,32.633,0,0,0,15.108,3.269c2.5,0,4.791-.2,6.3-.346,8.919-.881,14.542-3.968,17.694-9.715C82.373,2738.428,76.681,2732.167,72.524,2727.6Z" transform="translate(-25.459 -2702.649)" fill="#fff"/>
        <g id="Group_1173" data-name="Group 1173" transform="translate(0)">
          <path id="Path_3457" data-name="Path 3457" d="M34.977,2719.805s6.512-8.966,17.161-5.942,16.7,14.08,19.18,17.294,11.419,11.189,9.116,15.342-6.372,7.527-15.78,8.5-23.865,1.154-32.043-15.591C29.065,2731.459,32.505,2722.894,34.977,2719.805Z" transform="translate(-27.294 -2706.099)" fill="#efa937"/>
          <path id="Path_3458" data-name="Path 3458" d="M44.453,2709.352a16.114,16.114,0,0,1,4.5.659c10.863,3.149,17.083,14.494,19.625,17.8s11.688,11.509,9.363,15.748-6.453,7.672-16.033,8.617c-1.864.184-3.922.336-6.091.336-8.98,0-19.852-2.615-26.63-16.452-3.654-8.152-.191-16.9,2.313-20.049,0,0,4.8-6.656,12.95-6.656m0-2.134v0h0c-8.863,0-14.133,6.8-14.646,7.5-3.1,3.927-6.517,13.394-2.563,22.216l.016.033.016.033c3.266,6.668,7.787,11.5,13.438,14.378a32.63,32.63,0,0,0,15.108,3.269c2.5,0,4.791-.2,6.3-.347,8.919-.881,14.542-3.967,17.694-9.715,2.559-4.666-3.133-10.927-7.29-15.5-.945-1.041-1.763-1.939-2.254-2.578-.35-.455-.811-1.127-1.345-1.907-3.3-4.806-9.428-13.752-19.376-16.636a18.334,18.334,0,0,0-5.095-.744Z" transform="translate(-25.459 -2704.138)"/>
          <path id="Path_3459" data-name="Path 3459" d="M38.759,2721.928s4.926-6.836,13.046-4.482,12.771,10.834,14.671,13.3,8.737,8.6,7,11.773-4.824,5.735-11.985,6.441-18.17.795-24.459-12.047C34.3,2730.822,36.888,2724.282,38.759,2721.928Z" transform="translate(-28.842 -2707.308)" fill="#f2cf37"/>
          <path id="Path_3460" data-name="Path 3460" d="M33.933,2711.1a1.068,1.068,0,0,1-.974-.631,10.887,10.887,0,0,0-6.666-5.718,1.067,1.067,0,0,1,.519-2.07,12.959,12.959,0,0,1,8.1,6.915,1.068,1.068,0,0,1-.974,1.5Z" transform="translate(-25.468 -2702.649)"/>
          <circle id="Ellipse_613" data-name="Ellipse 613" cx="1.023" cy="1.023" r="1.023" transform="translate(20.369 36.088)" fill="#f57b00"/>
          <circle id="Ellipse_614" data-name="Ellipse 614" cx="1.023" cy="1.023" r="1.023" transform="translate(29.344 37.111)" fill="#f57b00"/>
          <circle id="Ellipse_615" data-name="Ellipse 615" cx="1.023" cy="1.023" r="1.023" transform="translate(40.398 39.392)" fill="#f57b00"/>
          <circle id="Ellipse_616" data-name="Ellipse 616" cx="1.023" cy="1.023" r="1.023" transform="translate(34.516 42.131)" fill="#f57b00"/>
          <circle id="Ellipse_617" data-name="Ellipse 617" cx="1.023" cy="1.023" r="1.023" transform="translate(25.339 41.906)" fill="#f57b00"/>
          <path id="Path_3461" data-name="Path 3461" d="M44.118,2722.53a1.216,1.216,0,0,1,.552-1.089c2.632-1.708,8.987-3.824,14.191.4a1.226,1.226,0,0,1,.185,1.713,1.2,1.2,0,0,1-1.7.185c-5.133-4.164-11.12-.406-11.372-.244a1.2,1.2,0,0,1-1.667-.37A1.232,1.232,0,0,1,44.118,2722.53Z" transform="translate(-31.536 -2708.097)" fill="#fff"/>
        </g>
      </g>
      <g id="Group_1176" data-name="Group 1176" transform="translate(266.64 0.9)">
        <path id="Path_3462" data-name="Path 3462" d="M295.678,2714.842c3.278,0,11.133,2.924,11.133,13.383,0,12.925-10.526,18.542-13.339,18.542-2.621,0-2.574-1.455-4.683-1.455s-2.062,1.455-4.683,1.455c-2.813,0-13.339-5.618-13.339-18.542,0-10.458,7.855-13.383,11.133-13.383a14.048,14.048,0,0,1,4.422.907,7.4,7.4,0,0,0,4.934,0,14.048,14.048,0,0,1,4.422-.907m0-1.816a15.471,15.471,0,0,0-5.027,1.011,5.578,5.578,0,0,1-3.723,0,15.471,15.471,0,0,0-5.027-1.011c-4.225,0-12.949,3.716-12.949,15.2a21.356,21.356,0,0,0,6.139,15.394c3.219,3.259,6.973,4.965,9.016,4.965a5.992,5.992,0,0,0,3.6-1.067,1.711,1.711,0,0,1,2.171,0,5.993,5.993,0,0,0,3.6,1.067c2.044,0,5.8-1.705,9.016-4.965a21.356,21.356,0,0,0,6.139-15.394c0-11.483-8.724-15.2-12.949-15.2Z" transform="translate(-268.951 -2698.97)"/>
        <path id="Path_3463" data-name="Path 3463" d="M289.9,2746.865c2.094,0,2.048,1.374,4.652,1.374,2.794,0,13.25-5.3,13.25-17.508,0-9.875-7.8-12.635-11.059-12.635a14.587,14.587,0,0,0-4.392.856,7.722,7.722,0,0,1-4.9,0,14.587,14.587,0,0,0-4.392-.856c-3.257,0-11.059,2.76-11.059,12.635,0,12.2,10.456,17.508,13.249,17.508C287.854,2748.238,287.809,2746.865,289.9,2746.865Z" transform="translate(-269.944 -2700.622)" fill="#e20736"/>
        <path id="Path_3464" data-name="Path 3464" d="M316.507,2696.448c-3.7,8.981-11.168,4.195-11.168,4.195S307.812,2692.12,316.507,2696.448Z" transform="translate(-280.804 -2693.171)" fill="#5cbc2a"/>
        <path id="Path_3465" data-name="Path 3465" d="M306.624,2702.526a12.444,12.444,0,0,1-6.114-1.768.907.907,0,0,1-.382-1.017c.059-.2,1.483-4.964,5.743-6.831,2.783-1.22,6.064-.907,9.755.929a.909.909,0,0,1,.435,1.158c-1.569,3.813-3.833,6.209-6.731,7.122A8.975,8.975,0,0,1,306.624,2702.526Zm-4.5-2.954a9.347,9.347,0,0,0,6.676.811c2.159-.686,3.919-2.462,5.238-5.285-2.853-1.257-5.346-1.436-7.423-.531A9.348,9.348,0,0,0,302.121,2699.573Z" transform="translate(-279.094 -2692.18)"/>
        <g id="Group_1175" data-name="Group 1175" transform="translate(22.984 27.879)">
          <path id="Path_3466" data-name="Path 3466" d="M304.391,2744.564s1.291,9.337,8.859,10.115c6.49.667,21.686-2.984,19.81-18.91-.257-1.74-2.893-.512-4.551.023s-23.607,7.976-23.607,7.976S304.33,2743.805,304.391,2744.564Z" transform="translate(-303.478 -2733.965)" fill="#e20736"/>
          <path id="Path_3467" data-name="Path 3467" d="M314.278,2755.219a15.333,15.333,0,0,1-1.56-.074c-8.182-.841-9.652-10.793-9.666-10.894l-.006-.052a1.673,1.673,0,0,1,.372-1.274,1.462,1.462,0,0,1,.825-.479c1.61-.546,21.934-7.437,23.548-7.957.227-.073.472-.159.727-.249,1.429-.5,3.049-1.074,4.133-.42a1.846,1.846,0,0,1,.868,1.378c.693,5.872-.744,10.649-4.268,14.225C324.959,2753.781,318.478,2755.219,314.278,2755.219Zm-9.4-11.068c.2,1.184,1.682,8.535,8.029,9.188,3.631.376,10.633-.7,15.054-5.189,3.117-3.164,4.383-7.441,3.762-12.711a.246.246,0,0,0-.025-.081c-.338-.191-1.9.361-2.574.6-.271.1-.531.187-.772.265C326.78,2736.724,306.624,2743.557,304.874,2744.15Z" transform="translate(-303.039 -2733.527)"/>
        </g>
        <path id="Path_3468" data-name="Path 3468" d="M305.859,2743.813l25.3-8.525a1.344,1.344,0,0,1,1.818,1c.37,3.135.132,10.369-8.821,14.373-9.129,4.083-16.243-2.081-18.9-4.94A1.172,1.172,0,0,1,305.859,2743.813Z" transform="translate(-280.682 -2706.196)" fill="#fff"/>
        <ellipse id="Ellipse_618" data-name="Ellipse 618" cx="1.819" cy="0.797" rx="1.819" ry="0.797" transform="matrix(0.11, -0.994, 0.994, 0.11, 37.024, 37.931)" fill="#6d3609"/>
        <ellipse id="Ellipse_619" data-name="Ellipse 619" cx="0.797" cy="1.819" rx="0.797" ry="1.819" transform="matrix(0.822, -0.57, 0.57, 0.822, 39.141, 34.343)" fill="#6d3609"/>
        <path id="Path_3469" data-name="Path 3469" d="M296.235,2710.77l-.065,0a.909.909,0,0,1-.842-.97,13.493,13.493,0,0,0-4.638-11.274.908.908,0,0,1,1.092-1.45,15.162,15.162,0,0,1,5.357,12.853A.909.909,0,0,1,296.235,2710.77Z" transform="translate(-275.914 -2693.715)"/>
        <path id="Path_3470" data-name="Path 3470" d="M297.556,2705.954a.908.908,0,0,1-.784-1.363c.121-.208,3-5.083,8.3-4.644a.908.908,0,0,1-.148,1.81c-4.128-.334-6.563,3.708-6.588,3.749A.911.911,0,0,1,297.556,2705.954Z" transform="translate(-277.973 -2694.701)"/>
        <path id="Path_3471" data-name="Path 3471" d="M277.886,2739.746a1.267,1.267,0,0,1-1.1-.642c-1.631-2.864-3.477-9.662,1.216-14.89a1.271,1.271,0,1,1,1.892,1.7c-4.629,5.157-1.052,11.663-.9,11.937a1.272,1.272,0,0,1-1.107,1.9Z" transform="translate(-270.926 -2702.477)" fill="#fff"/>
      </g>
      <g id="Group_1180" data-name="Group 1180" transform="translate(62.273 67.703)">
        <g id="Group_1177" data-name="Group 1177" transform="translate(13.459 12.727)">
          <path id="Path_3472" data-name="Path 3472" d="M24.086,2846.506a14.583,14.583,0,0,1-1.255-7.554c.38-4.516,0-9.159-1.647-6.953s-4.156,5.456-4.807,1.76.229-5.715-2.249-10.5-3.81-6.85-4.576-4.754-2.9,5.585-3.59,1.7.079-6.29-1.27-7.024-2.523-.354-4.081-.347-3.883-.736-4.734-1.82-10.108-1.441-10.056.508,1.7,4.614,1.608,6.853.177,4.117,3.7,4.375,1.471,3.781,1.075,4.836-1.269,3.211,3.334,3.438,7.921-1.607,11.579.087c.974,1.041.415,2.317-1.145,3.479s-5.15,5.988.192,4.655,6.961-2.111,9.4-.226-1.447,2.894-2.208,3.347-.1,2.017,2.488,1.822S20.421,2843.965,24.086,2846.506Z" transform="translate(14.181 -2810.131)" fill="#90be16"/>
          <path id="Path_3473" data-name="Path 3473" d="M33.488,2856.577a.665.665,0,0,0,.527-1.072c-14.857-19.247-37.05-38.439-37.273-38.631a.665.665,0,0,0-.939.071.665.665,0,0,0,.07.938c.222.191,22.315,19.3,37.087,38.436A.667.667,0,0,0,33.488,2856.577Z" transform="translate(10.981 -2812.275)" fill="#f7fae5"/>
        </g>
        <g id="Group_1178" data-name="Group 1178" transform="translate(38.3 1.817)">
          <path id="Path_3474" data-name="Path 3474" d="M31.394,2793.951s2.964,2.452,2.9,4.158-.5,3.51.9,3.452,3.586.906.789,3.02-4.694,3.992-1.137,2.6,4.1.619,2.733,3.511-3.087,7.413,1.183,4.531-.448,5.417-.862,6.678-3.292,9,4.412,6.913c-.836,3.752-1.817,7.926-1.15,9.6s-1.727-.951-2.9-2.371-4.417-3.455-6.73-3.485c-.643-.7-.265-.795,1.217-1.3s2.755-1.584.149-3.842a27.4,27.4,0,0,0-6.95-3.888s-2.814-1.512.546-2.1,4.708-.942,2.8-2.517-5.491-2.714-6.31-4.747-.128-3.135,2.524-2.907,3.342-1.1,1.746-2.357-6.273-6.37-1.273-6.639c1.1,0,1.669-.666,1.5-1.313s-.868-2.885,1.349-4.1A4.821,4.821,0,0,0,31.394,2793.951Z" transform="translate(-22.659 -2793.951)" fill="#64a338"/>
          <path id="Path_3475" data-name="Path 3475" d="M50.393,2848.063a.666.666,0,0,0,.44-1.165c-17.5-15.4-15.644-44.829-15.623-45.124a.665.665,0,0,0-.617-.711.675.675,0,0,0-.71.616c-.022.3-1.934,30.378,16.07,46.218A.664.664,0,0,0,50.393,2848.063Z" transform="translate(-26.293 -2796.267)" fill="#f7fae5"/>
        </g>
        <g id="Group_1179" data-name="Group 1179" transform="translate(1.775 23.959)">
          <path id="Path_3476" data-name="Path 3476" d="M13.6,2853.2a14.414,14.414,0,0,0-7.484,1.12c-4.13,1.733-10.931,3.861-9.358,1.645s.893-3.622-2.779-3.109-2.541-1.114-7.8-1.986-5.07-1.449-3.334-2.808,4.367-4.431.508-3.894-5.89,1.989-6.991.944-1.1-2.265-1.569-3.731-1.874-3.427-3.152-3.9-4.432-9.064-2.584-9.608,4.856.2,6.933-.575,3.924-1.087,5.241,2.151,4,.232,4.874-.463,2.632-2.17,4.247,2.089.9,7.935,3.607,10.858c1.276.6,2.305-.315,2.923-2.135s4.06-6.665,4.435-1.237.135,7.187,2.649,8.905,2.28-2.242,2.475-3.095,1.866-.708,2.471,1.785S10.091,2850.531,13.6,2853.2Z" transform="translate(31.511 -2826.789)" fill="#64a338"/>
          <path id="Path_3477" data-name="Path 3477" d="M20.353,2858.5a33.882,33.882,0,0,0,14.275-2.882.665.665,0,0,0-.6-1.187,33.268,33.268,0,0,1-14.515,2.729c-7.947-.177-19.964-3.091-32.084-15.969a.665.665,0,0,0-.941-.028.665.665,0,0,0-.029.94c12.463,13.242,24.877,16.221,33.1,16.389Q19.958,2858.5,20.353,2858.5Z" transform="translate(25.717 -2831.413)" fill="#f7fae5"/>
        </g>
        <path id="Path_3478" data-name="Path 3478" d="M12.892,2793.073s2.964,2.452,2.9,4.158c-.061,1.68-.483,3.454.837,3.454H16.7c.039,0,.08,0,.12,0,1.4,0,3.388.969.669,3.023-2.128,1.607-3.735,3.079-2.816,3.079a5.708,5.708,0,0,0,1.679-.478,5.552,5.552,0,0,1,1.941-.45c1.763,0,1.853,1.714.792,3.961s-2.328,5.455-.866,5.455a4.32,4.32,0,0,0,2.049-.925,2.83,2.83,0,0,1,1.339-.6c1.643,0-1.848,6.206-2.2,7.282-.365,1.112-2.647,7.269,2.11,7.269a8.938,8.938,0,0,0,2.3-.356c-.709,3.178-1.516,6.654-1.343,8.659q.953,1.4,2.036,2.736a22.88,22.88,0,0,0,2.825-1.076l.055-.026a.66.66,0,0,1,.287-.066.666.666,0,0,1,.3,1.26l-.111.054a22.267,22.267,0,0,1-2.423.961A35.929,35.929,0,0,0,28.7,2843.7a.666.666,0,0,1-.879,1,37.37,37.37,0,0,1-3.76-3.831,35.859,35.859,0,0,1-4.11.925c1.5,1.794,2.966,3.6,4.364,5.416a.665.665,0,0,1-.119.933.665.665,0,0,1-.933-.12c-1.552-2.01-3.185-4.019-4.865-6.007a38.68,38.68,0,0,1-4.7.286c-.262,0-.525,0-.792-.008a38.322,38.322,0,0,1-4.891-.419,15.894,15.894,0,0,0-2.758.87c-2.866,1.2-7.017,2.594-8.765,2.594-.771,0-1.075-.271-.593-.949,1.355-1.907,1.038-3.215-1.417-3.215a9.934,9.934,0,0,0-1.362.106,8.935,8.935,0,0,1-1.225.1c-2.26,0-2.007-1.326-6.57-2.084-5.254-.872-5.07-1.449-3.334-2.808,1.6-1.252,3.957-3.957,1.3-3.957a5.831,5.831,0,0,0-.8.063c-2.883.4-4.746,1.313-5.963,1.313a1.411,1.411,0,0,1-1.029-.369c-1.1-1.044-1.1-2.264-1.568-3.731s-1.874-3.426-3.152-3.9-4.432-9.065-2.584-9.608a7.824,7.824,0,0,1,2.138-.219c.614,0,1.258.024,1.9.024a8.484,8.484,0,0,0,2.9-.38,6.611,6.611,0,0,1,2.214-.513c1.169,0,2.2.634,3.027,2.664.444,1.092,1.044,1.474,1.677,1.474,1.245,0,2.62-1.476,3.2-1.937a6.675,6.675,0,0,1,.652-.477,2.959,2.959,0,0,0-1.269-.337c-3.528-.258-3.8-2.135-3.7-4.375s-1.556-4.9-1.608-6.853c-.027-1,2.392-1.392,4.871-1.392,2.358,0,4.77.356,5.185.884.848,1.079,3.156,1.82,4.713,1.82h.021c.8,0,1.493-.1,2.164-.1a3.8,3.8,0,0,1,1.918.452c1.349.734.584,3.142,1.27,7.025.225,1.27.6,1.751,1.04,1.751.9,0,2.034-2.042,2.551-3.454.2-.552.444-.814.736-.814a.726.726,0,0,1,.385.131c.1-.854.794-1.324,2.188-1.324q.3,0,.649.03c.2.018.394.026.574.026,2.171,0,2.646-1.225,1.173-2.384-1.595-1.254-6.273-6.37-1.273-6.639h0c1.092,0,1.664-.667,1.5-1.313s-.868-2.884,1.349-4.1a4.821,4.821,0,0,0,2.563-2.9m-3.928,27.3c2.628-.5,3.54-.928,1.828-2.34a40.767,40.767,0,0,0-3.971-2.451c.255.474.521.982.805,1.53a17.92,17.92,0,0,1,1.338,3.261m2.055,8.916c.929,0,2.193-1.5,3.234-2.867a23.049,23.049,0,0,0-4.75-2.885,36.261,36.261,0,0,0,.372,4.075c.214,1.211.627,1.677,1.144,1.677m-11.7-4.786a8.685,8.685,0,0,0-2.2-.261c-1.97,0-4,.513-6.343.631a10.142,10.142,0,0,0,2.319,5.492,1.774,1.774,0,0,0,.758.183c.926,0,1.675-.874,2.165-2.318.408-1.205,2.053-3.729,3.228-3.729.023,0,.045,0,.067,0m1.172,3a1.763,1.763,0,0,0,.126-2.536,7.578,7.578,0,0,0-1.013-.377c.43.233.753.945.854,2.4.012.177.022.339.033.508m7.814,8.07c1.2-.573,2.384-1.44.758-2.7a4.618,4.618,0,0,0-3.019-1.122,23.129,23.129,0,0,0-5.077,1.015,4.6,4.6,0,0,0,2.141,3.13,2.015,2.015,0,0,0,1.085.427c1.361,0,1.229-2.818,1.39-3.521a.6.6,0,0,1,.628-.471c.6,0,1.448.626,1.843,2.256.082.338.165.665.253.984m10.628,5.027a35.764,35.764,0,0,0,4.195-.86,42.048,42.048,0,0,1-2.568-3.644c-.292-.329-.569-.653-.8-.932a11.5,11.5,0,0,0-3.42-2.518c0,.053-.008.106-.013.159a15.814,15.814,0,0,0,.438,5.287q1.093,1.245,2.167,2.507m-5.259.377c1.3,0,2.524-.069,3.675-.183q-.562-.656-1.131-1.307a9.579,9.579,0,0,0-5.2-1.521c-.544,0-1.092.036-1.672.079H9.309a11.425,11.425,0,0,0,2.56,2.885c.336.017.668.03.991.038q.412.009.814.009m-.846-49.718a1.561,1.561,0,0,0-.572.107,1.68,1.68,0,0,0-1.1,1.327,3.37,3.37,0,0,1-1.68,1.724,4.676,4.676,0,0,0-2.41,5.219c-2.316.216-3.164,1.366-3.464,2.316-.768,2.429,1.7,5.259,3.125,6.633-.127-.005-.251-.009-.372-.009a3.921,3.921,0,0,0-3.3,1.314,2.79,2.79,0,0,0-1.67,1.859c-.1.285-.223.562-.347.821-.1-.9-.13-1.707-.156-2.443-.068-1.912-.133-3.719-1.842-4.649a5.6,5.6,0,0,0-2.767-.668c-.39,0-.768.027-1.133.053s-.689.05-1.052.051a5.513,5.513,0,0,1-3.317-1.141c-1.014-1.292-4.139-1.563-6.581-1.562-4.525,0-5.588,1.093-5.938,1.451a2.424,2.424,0,0,0-.707,1.762,12.357,12.357,0,0,0,.852,3.547,9.991,9.991,0,0,1,.757,3.182,10.671,10.671,0,0,0,.029,1.675,4.344,4.344,0,0,0-1.837-.386,8.281,8.281,0,0,0-2.833.624,7.159,7.159,0,0,1-2.278.269c-.313,0-.626-.006-.936-.011-.326-.006-.648-.012-.962-.012a9.5,9.5,0,0,0-2.639.291,2.715,2.715,0,0,0-1.837,2.83,17.2,17.2,0,0,0,1.278,5.7c1.487,3.874,2.57,4.271,3.032,4.441a5.518,5.518,0,0,1,2.074,2.771c.1.328.183.65.268.99a6.418,6.418,0,0,0,1.771,3.489,3.153,3.153,0,0,0,2.249.856,10.281,10.281,0,0,0,2.7-.534c.68-.195,1.423-.406,2.27-.582-.19.179-.4.357-.611.525-.787.616-2.1,1.647-1.707,3.2.443,1.736,2.5,2.2,5.844,2.752a10.188,10.188,0,0,1,3.784,1.239,5.739,5.739,0,0,0,3.077.869,10.612,10.612,0,0,0,1.471-.115,8.261,8.261,0,0,1,1.117-.088c.086,0,.164,0,.233.006-.065.114-.15.249-.262.406a2.337,2.337,0,0,0-.328,2.531,2.418,2.418,0,0,0,2.368,1.221c2.319,0,7.032-1.718,9.451-2.733a14.107,14.107,0,0,1,2.145-.7,39.912,39.912,0,0,0,4.781.389q.419.009.829.009c1.316,0,2.641-.065,3.952-.193,1.5,1.793,2.913,3.547,4.206,5.222a2.422,2.422,0,0,0,1.933.951,2.45,2.45,0,0,0,1.056-.241,2.482,2.482,0,0,0,.434-.268,2.441,2.441,0,0,0,.441-3.423c-.8-1.04-1.648-2.106-2.525-3.187l.262-.066a38.763,38.763,0,0,0,3.191,3.159,2.435,2.435,0,0,0,1.612.609,2.439,2.439,0,0,0,1.612-4.271q-.679-.6-1.338-1.245l.1-.049.1-.047.048-.024a2.44,2.44,0,0,0-2.139-4.385l-.058.028-.016.008c-.073.036-.58.274-1.44.591q-.464-.611-.9-1.239a41.056,41.056,0,0,1,1.22-7.215l.1-.469a1.774,1.774,0,0,0-2.2-2.1,7.27,7.27,0,0,1-1.838.293c-.354,0-.81-.049-.98-.284s-.6-1.212.5-4.477l.059-.177c.059-.172.356-.791.594-1.288,1.874-3.911,2.66-5.909,1.769-7.325a2.134,2.134,0,0,0-1.847-1h0a3.54,3.54,0,0,0-1.757.55c.2-.514.467-1.154.84-1.944,1.016-2.152,1.135-3.868.355-5.1a2.936,2.936,0,0,0-1.529-1.2,3.075,3.075,0,0,0,.965-3.211,3.5,3.5,0,0,0-3.013-2.114c.011-.229.029-.478.044-.679.024-.313.047-.638.06-.974.086-2.394-2.692-4.883-3.545-5.589a1.894,1.894,0,0,0-1.194-.45Zm-18.907,37.31a6.857,6.857,0,0,1-.972-2.111c.4-.049.781-.1,1.163-.155.319-.043.632-.086.941-.125a9.967,9.967,0,0,0-.711,1.484,3.807,3.807,0,0,1-.421.908Zm17.77-1.818c-.047.051-.092.1-.136.146-.013-.086-.025-.171-.036-.255l.171.109Zm-8.033,7.344q-.083-.071-.158-.142l.18-.043c-.007.061-.014.123-.022.185Zm15.478,3.069q.465.735.956,1.447-.228.042-.455.082-.621-.723-1.25-1.442-.135-.592-.216-1.2c.087.087.162.168.224.243.231.279.485.577.742.867Z" transform="translate(34.143 -2791.256)"/>
      </g>
      <g id="Group_1181" data-name="Group 1181" transform="translate(327.755 117.089)">
        <path id="Path_3479" data-name="Path 3479" d="M416.2,2926.732s3.857.069,3.967-.22l.909-2.38c.107-.282-1.405-28.223-4.9-40.718a3.375,3.375,0,0,0,.2-.409,3.378,3.378,0,0,0-1.249-4c.013-.033.034-.061.047-.094a3.4,3.4,0,0,0-1.961-4.385,3.5,3.5,0,0,0-.357-.1,3.372,3.372,0,0,0-5.445-2.345,3.373,3.373,0,0,0-4.8-2.446,4.012,4.012,0,1,0-.647,6.868,3.383,3.383,0,0,0,2.15,2.807c.02.008.04.009.06.016a51.087,51.087,0,0,1,4.082,8.176,1.251,1.251,0,1,1-.771,2.019,3.4,3.4,0,0,0,1.961,4.385c.1.04.21.056.314.085l2.408,15.828Zm-5.234-39.363a3.618,3.618,0,0,0,.388-.237c-.04.092-.08.183-.119.276C411.147,2887.394,411.057,2887.377,410.968,2887.369Z" transform="translate(-371.527 -2865.921)" fill="#66aa17"/>
        <path id="Path_3480" data-name="Path 3480" d="M390.032,2923.183l-9.929-12.56c.051-.1.111-.185.152-.287a3.391,3.391,0,0,0-.822-3.745,5.061,5.061,0,0,0-3.9-5.26,3.357,3.357,0,0,0-1.02-.66,3.392,3.392,0,0,0-1.324-4.138c.008-.02.021-.036.029-.055a3.383,3.383,0,0,0-.585-3.488,4.018,4.018,0,1,0-5.462-4.212,7.14,7.14,0,0,1-4.1,7.243,3.385,3.385,0,0,0,.61,3.518,3.475,3.475,0,0,0-.173.326,3.4,3.4,0,0,0,1.868,4.425c.034.014.068.018.1.03a3.381,3.381,0,0,0,2.071,3.643,3.326,3.326,0,0,0,.434.134c6.75,11.081,26.145,31.251,26.425,31.365l2.36.959c.286.116,2.868-2.75,2.868-2.75Z" transform="translate(-360.646 -2871.259)" fill="#66aa17"/>
        <path id="Path_3481" data-name="Path 3481" d="M381.13,2899.681s4.328,30.476,22.467,45.753c4.731-1.453,8.8-2.385,8.8-2.385s4.056-17.634-21.516-40.928S381.13,2899.681,381.13,2899.681Z" transform="translate(-365.03 -2873.163)" fill="#efefbf"/>
        <path id="Path_3482" data-name="Path 3482" d="M412.846,2914.137a4.8,4.8,0,0,0-1.142-4.758c-.009-.011-.026-.01-.039-.015a33.907,33.907,0,0,1-3.407-9.245,3.781,3.781,0,0,0-2.143-4.093l-.04-.015a72.6,72.6,0,0,1-3.9-9.524,3.776,3.776,0,0,1-2.743-4.742,3.774,3.774,0,0,1-3.3-5,3.768,3.768,0,0,1-3.836-3.715,3.761,3.761,0,0,0-2.241-.285,3.781,3.781,0,0,0-5.709-3.354,3.778,3.778,0,0,0-5.425-.693,91.419,91.419,0,0,1-8.946,11.324,169597.315,169597.315,0,0,1,3.718,10.031,41.845,41.845,0,0,1,5.4,9.871,3.783,3.783,0,0,1,3.481,5,3.782,3.782,0,0,0,4.122-.638,3.78,3.78,0,0,0,5.371,4.214,7.879,7.879,0,0,0,7.2,8.562,3.776,3.776,0,0,0,7.4,1.151,3.78,3.78,0,0,0,4.187-1.689C412.007,2916.3,412.561,2915.367,412.846,2914.137Z" transform="translate(-362.86 -2865.592)" fill="#afd634"/>
        <path id="Path_3483" data-name="Path 3483" d="M397.1,2889.629s-2.369-1.131-1.411.668,19.639,32.885,20.715,45.525c-.074,4.043-.461,6.923.752,7.055s6.507-2.7,6.812-3.921S426.106,2920.062,397.1,2889.629Z" transform="translate(-371.275 -2872.571)" fill="#f7fae5"/>
        <path id="Path_3484" data-name="Path 3484" d="M392.789,2867.875a3.329,3.329,0,0,1,.593.167,3.382,3.382,0,0,1,2.118,2.566,3.373,3.373,0,0,1,5.445,2.345,3.18,3.18,0,0,1,.356.1,3.4,3.4,0,0,1,1.961,4.385c-.013.033-.034.061-.047.094a3.382,3.382,0,0,1,1.25,4,3.439,3.439,0,0,1-.2.408c1.619,5.789,2.812,14.892,3.617,23.025a3.785,3.785,0,0,1,.537,3.253c.013.006.03,0,.04.016a4.806,4.806,0,0,1,1.141,4.758,3.938,3.938,0,0,1-.732,1.639c4.232,9.931,3.608,15.534,3.441,16.2-.305,1.219-5.6,4.054-6.812,3.922l-.019,0a.816.816,0,0,1-.1-.03c-1.615.4-4.278,1.1-7.2,2-.4-.338-.792-.684-1.178-1.035-1.884-.424-7.066-3.206-18.074-18.8a135.592,135.592,0,0,1-11.97-15.6,3.22,3.22,0,0,1-.434-.134,3.357,3.357,0,0,1-.653-.353,3.4,3.4,0,0,1-1.419-3.291c-.034-.012-.068-.015-.1-.03a3.4,3.4,0,0,1-1.867-4.426,3.244,3.244,0,0,1,.173-.325,9.88,9.88,0,0,0,1.57-8.881,3.38,3.38,0,0,1,1.918-1.88,4.017,4.017,0,0,1,.262-1.025c0-.007.007-.013.009-.021a8.541,8.541,0,0,0,1.959-6.552,3.78,3.78,0,0,0,1.547-5.4,3.772,3.772,0,0,1,5.752-1.409,3.777,3.777,0,0,1,5.425.692,3.744,3.744,0,0,1,4.358.362,3.994,3.994,0,0,1,5.24-.445,3.4,3.4,0,0,1,2.09-.287m.4-2.17h0a5.54,5.54,0,0,0-2.251.048c-.125-.058-.252-.111-.38-.16a6.32,6.32,0,0,0-1.1-.309,6.2,6.2,0,0,0-4.143.68,5.952,5.952,0,0,0-3.7-.287,5.952,5.952,0,0,0-1.066-.632,5.97,5.97,0,0,0-4.905-.039,5.983,5.983,0,0,0-7.731,3.034,5.984,5.984,0,0,1-1.548,5.405,5.993,5.993,0,0,1-1.646,4.51,5.957,5.957,0,0,0-.543,2.566,17.717,17.717,0,0,1-4.179,7.855,5.55,5.55,0,0,0,.187,4.611,9.771,9.771,0,0,0,5.3,10.12,140.883,140.883,0,0,0,11.693,15.135c7.99,11.3,14.437,17.986,18.718,19.418.307.274.585.516.855.743a2.207,2.207,0,0,0,2.069.422c2.611-.8,5.016-1.442,6.685-1.865a10.959,10.959,0,0,0,4.806-1.736c3.679-2.053,4-3.318,4.131-3.858.014-.057,1.322-5.626-3.125-16.574a7.306,7.306,0,0,0,.424-1.3,6.9,6.9,0,0,0-.984-5.884,5.941,5.941,0,0,0-.738-3.369c-.975-9.719-2.127-17.153-3.429-22.123a221.136,221.136,0,0,1-1.4-8.177,7.761,7.761,0,0,0-8.615-6.164,5.589,5.589,0,0,0-3.4-2.066Z" transform="translate(-359.591 -2864.499)"/>
        <path id="Path_3485" data-name="Path 3485" d="M409.988,2954.711c-4.873-.66-22.231-18.473-29.832-26.5a.494.494,0,0,0-.768.615c19.393,29.989,24.89,27.633,24.89,27.633Z" transform="translate(-366.012 -2885.202)" fill="#f7fae5"/>
      </g>
      <g id="Group_1183" data-name="Group 1183" transform="translate(182.443)">
        <path id="Path_3486" data-name="Path 3486" d="M184.326,2697.572c-.484,10.22-9.64,9.8-9.64,9.8S174.116,2698.219,184.326,2697.572Z" transform="translate(-154.048 -2693.037)" fill="#5cbc2a"/>
        <path id="Path_3487" data-name="Path 3487" d="M173.1,2707.425c-.09,0-.141,0-.148,0l-.537-.025-.033-.537c-.007-.115-.57-11.472,12.011-12.271l.668-.042-.032.669C184.467,2707.019,174.447,2707.425,173.1,2707.425Zm10.686-11.582c-9.332.928-10.171,8.25-10.216,10.379C175.694,2706.137,183.005,2705.165,183.785,2695.843Z" transform="translate(-153.296 -2692.052)"/>
        <path id="Path_3488" data-name="Path 3488" d="M154.369,2696.97c10.452-.154,10.952,9.158,10.952,9.158S156.067,2707.285,154.369,2696.97Z" transform="translate(-147.432 -2692.841)" fill="#5cbc2a"/>
        <path id="Path_3489" data-name="Path 3489" d="M163.725,2706.837c-2.772,0-11.107-.9-12.917-11.533l-.119-.693.7-.007h.2c12.73,0,13.554,11.448,13.561,11.565l.034.564-.561.067A8.775,8.775,0,0,1,163.725,2706.837Zm-11.6-11.028c1.963,9.438,9.552,9.908,11.765,9.838C163.564,2703.459,161.758,2696.073,152.122,2695.81Z" transform="translate(-146.233 -2692.07)"/>
        <path id="Path_3490" data-name="Path 3490" d="M169.989,2706.645h-.026a1,1,0,0,1-.973-1.025c0-.095.192-9.557-4.317-12.978a1,1,0,1,1,1.208-1.591c5.327,4.042,5.118,14.192,5.107,14.623A1,1,0,0,1,169.989,2706.645Z" transform="translate(-150.659 -2690.846)"/>
        <g id="Group_1182" data-name="Group 1182" transform="translate(0 9.256)">
          <path id="Path_3491" data-name="Path 3491" d="M183.773,2713.9c-1.217-2.138-7.086-10.864-17.615-3.4-.206.146-.4.3-.589.458a11.432,11.432,0,0,0-10.206-2.061c-.971.459-11.011,4.9-7.633,16.908s20.166,15.775,20.166,15.775C189.5,2731.316,184.99,2716.041,183.773,2713.9Z" transform="translate(-145.044 -2705.54)" fill="#fff"/>
          <path id="Path_3492" data-name="Path 3492" d="M173.167,2706.573c5.564,0,8.778,4.845,9.643,6.365,1.217,2.139,5.727,17.414-15.878,27.681,0,0-16.787-3.763-20.166-15.774s6.662-16.45,7.633-16.909a8.767,8.767,0,0,1,2.984-.429,11.375,11.375,0,0,1,7.222,2.491c.189-.157.383-.312.589-.458a13.855,13.855,0,0,1,7.973-2.965m0-2a15.517,15.517,0,0,0-8.58,2.956,13.508,13.508,0,0,0-7.2-2.023,10.347,10.347,0,0,0-3.839.622l-.057.026a17.419,17.419,0,0,0-6.218,4.8c-2.191,2.727-4.391,7.445-2.427,14.427,3.66,13.009,20.92,17.019,21.653,17.182l.672.151.622-.3c9.264-4.4,15.086-10.212,17.306-17.268,2.025-6.435.237-11.825-.55-13.206-.984-1.73-4.715-7.375-11.38-7.375Z" transform="translate(-144.08 -2704.574)"/>
        </g>
        <path id="Path_3493" data-name="Path 3493" d="M174.189,2742.775s-12.388-22.323-1.754-29.379,16.559,1.192,17.789,3.213S196.005,2733.07,174.189,2742.775Z" transform="translate(-151.912 -2697.279)" fill="#ed833b"/>
        <path id="Path_3494" data-name="Path 3494" d="M168.864,2742.946s-15.853-3.553-19.044-14.9,6.291-15.535,7.208-15.968,10.88-2.518,14.261,9.7A27.649,27.649,0,0,1,168.864,2742.946Z" transform="translate(-145.737 -2697.632)" fill="#ffa539"/>
        <path id="Path_3495" data-name="Path 3495" d="M153.936,2729.3a1.131,1.131,0,0,1-.881-.715c-1.034-2.727-1.708-8.916,3.149-12.814a1.138,1.138,0,0,1,1.592.168,1.117,1.117,0,0,1-.165,1.579c-4.791,3.844-2.554,10.021-2.457,10.283a1.118,1.118,0,0,1-.664,1.442A1.135,1.135,0,0,1,153.936,2729.3Z" transform="translate(-146.763 -2698.885)" fill="#fff"/>
        <path id="Path_3496" data-name="Path 3496" d="M176.115,2740.714a1.418,1.418,0,0,1,.177-.5A.861.861,0,0,0,176.115,2740.714Z" transform="translate(-154.515 -2706.928)" fill="#e20736"/>
        <path id="Path_3497" data-name="Path 3497" d="M211.357,2724.91a1.237,1.237,0,0,0-.381-.771,1.378,1.378,0,0,1,.316.719c.453,3.868.131,12.8-11.11,17.769-11.462,5.069-20.363-2.514-23.679-6.034a1.378,1.378,0,0,1-.285-.45c.4,2.082,2.584,11.148,10.807,11.993C195,2748.955,213.662,2744.47,211.357,2724.91Z" transform="translate(-154.549 -2701.691)" fill="#ed833b"/>
        <path id="Path_3498" data-name="Path 3498" d="M176.108,2740.955a1.3,1.3,0,0,0,.07.665c-.051-.271-.074-.429-.074-.429A1.487,1.487,0,0,1,176.108,2740.955Z" transform="translate(-154.508 -2707.168)" fill="#fff"/>
        <path id="Path_3499" data-name="Path 3499" d="M200.145,2742.469c11.241-4.972,11.563-13.9,11.11-17.769a1.378,1.378,0,0,0-.316-.719c-.974-.885-3.508.25-5.209.8-.386.124-1.666.553-3.487,1.167a8.615,8.615,0,0,1-15.808,5.344l-9.7,3.287a.7.7,0,0,0-.447.244,1.417,1.417,0,0,0-.177.5,1.486,1.486,0,0,0,0,.235s.023.158.074.43a1.378,1.378,0,0,0,.285.45C179.782,2739.955,188.683,2747.538,200.145,2742.469Z" transform="translate(-154.511 -2701.533)" fill="#fce5c6"/>
        <path id="Path_3500" data-name="Path 3500" d="M209.365,2723.077a1.52,1.52,0,0,1,1.054.326,1.238,1.238,0,0,1,.382.771c2.137,18.144-13.768,23.315-22.444,23.315a18.63,18.63,0,0,1-1.887-.09c-8.223-.845-10.411-9.912-10.807-11.993a1.3,1.3,0,0,1-.069-.665.865.865,0,0,1,.176-.5.705.705,0,0,1,.448-.244l9.7-3.287a8.213,8.213,0,0,0,7.1,3.942,8.832,8.832,0,0,0,3.458-.71,8.492,8.492,0,0,0,5.245-8.576c1.821-.613,3.1-1.042,3.487-1.166a16.433,16.433,0,0,1,4.155-1.125m0-1.2h0a12.037,12.037,0,0,0-3.644.882c-.308.108-.6.212-.879.3-.369.119-1.515.5-3.5,1.171l-.908.306.1.952a7.331,7.331,0,0,1-4.522,7.35,7.6,7.6,0,0,1-2.989.615,7.045,7.045,0,0,1-6.073-3.355l-.5-.835-.92.312c-4.9,1.658-8.967,3.038-9.612,3.257a1.894,1.894,0,0,0-1.073.643,2.054,2.054,0,0,0-.446,1.13,2.52,2.52,0,0,0,.1,1.114c.431,2.193,2.851,11.948,11.845,12.873a19.854,19.854,0,0,0,2.01.1c5.555,0,13.874-2.061,19.037-7.867,3.853-4.334,5.4-9.983,4.6-16.789l0-.017,0-.019a2.423,2.423,0,0,0-.762-1.483,2.672,2.672,0,0,0-1.859-.638Z" transform="translate(-153.949 -2700.954)"/>
      </g>
      <rect id="Rectangle_1113" data-name="Rectangle 1113" width="178.908" height="124.012" rx="19.621" transform="translate(139.133 70.643)" fill="#fff" stroke="#000" stroke-linejoin="round" stroke-width="10"/>
      <path id="Rectangle_1114" data-name="Rectangle 1114" d="M19.621,0H137.036a19.621,19.621,0,0,1,19.621,19.621V93.163a13.895,13.895,0,0,1-13.895,13.895H19.621A19.621,19.621,0,0,1,0,87.437V19.621A19.621,19.621,0,0,1,19.621,0Z" transform="translate(155.065 81.912)" fill="#7fd5ef"/>
      <path id="Path_3501" data-name="Path 3501" d="M250.279,2832.449l-53.039,31.086a22.517,22.517,0,0,1-22.772,0l-53.039-31.086" transform="translate(45.741 -2736.971)" fill="none" stroke="#fff" stroke-linecap="round" stroke-linejoin="round" stroke-width="7"/>
      <g id="Group_1185" data-name="Group 1185" transform="translate(375.784 73.904)">
        <path id="Path_3502" data-name="Path 3502" d="M460.314,2812.953a4.635,4.635,0,0,0-1.17-1.692,5.82,5.82,0,0,0-.917-.692c.017-.034.034-.067.052-.1a2.588,2.588,0,0,1,.45-.649,1.8,1.8,0,0,0,1.682-1.717h0a1.8,1.8,0,0,0-1.249-1.78h0a1.813,1.813,0,0,0-.469-.083,3.646,3.646,0,0,0-3.222,1.931,8.438,8.438,0,0,0-.67,1.238,5.462,5.462,0,0,0-2.456.277,4.479,4.479,0,0,0-2.024,1.477,3.3,3.3,0,0,0-.36.592,1.6,1.6,0,0,0-.144,1.018,7.876,7.876,0,0,0-.462,1.268c-.2.73-.347,1.531-.485,2.305a8.9,8.9,0,0,1-2.474,5.6,8.748,8.748,0,0,0-.708-1.422,10.2,10.2,0,0,1-1.075-4.839,32.483,32.483,0,0,1,.2-4.335c.007-.061.012-.117.018-.165.007-.067.014-.14.021-.218a1.811,1.811,0,0,0,.15-.449,2.942,2.942,0,0,0,.049-.643,4.426,4.426,0,0,0-.96-2.565,6.6,6.6,0,0,0-2.766-2.009,5.745,5.745,0,0,0-.283-1.121,7.459,7.459,0,0,0-.868-1.676,9.152,9.152,0,0,0-1.386-1.6,1.775,1.775,0,0,0-.643-.364,1.8,1.8,0,0,0-1.886.523h0a1.8,1.8,0,0,0,.156,2.526,5.806,5.806,0,0,1,.813.959q-.213.018-.419.05a4.647,4.647,0,0,0-3.927,3.8l-.033.212.014.086a8.61,8.61,0,0,0-.7,1.923,8.354,8.354,0,0,0-.2,1.208,23.2,23.2,0,0,0,.188,5.308,16.662,16.662,0,0,0,1.332,4.58,10.254,10.254,0,0,0,3.3,4.083l.04.028.042.026a8.7,8.7,0,0,1,2.686,2.507,46.571,46.571,0,0,1-4.523,2.842c-1.467.809-2.443,1.24-2.452,1.243l-.079.035-.074.044a5.74,5.74,0,0,0-.651.461,3.364,3.364,0,0,0-.541.548,1.8,1.8,0,0,0-.4,1.316,1.628,1.628,0,0,0,.523,1.012,1.982,1.982,0,0,0,.748.419,3.412,3.412,0,0,0,.69.134l.022,0h.021a26.608,26.608,0,0,0,5.586-.19,23.894,23.894,0,0,0,3.179-.681c.019.271.035.533.051.783a17.723,17.723,0,0,0,.2,2.076,3.337,3.337,0,0,0,.321.976,1.877,1.877,0,0,0,1.1.948,1.806,1.806,0,0,0,.4.079,1.827,1.827,0,0,0,1.286-.4,2.846,2.846,0,0,0,.647-.734,7.7,7.7,0,0,0,.779-1.79,24.943,24.943,0,0,0,.883-4.436,25.758,25.758,0,0,0,4.985-4,31.444,31.444,0,0,0,3.9-4.92,36.623,36.623,0,0,0,3.4-6.712,1.92,1.92,0,0,0,.427-.362l.123-.141.081-.169A5.028,5.028,0,0,0,460.314,2812.953Zm-2.118-.7c.009.008.019.016.027.024C458.215,2812.273,458.205,2812.266,458.2,2812.257Zm-.706-.529c.119.072.227.147.331.223C457.718,2811.875,457.609,2811.8,457.49,2811.728Zm-6.077.964a.441.441,0,0,1-.11-.045.345.345,0,0,0,.111.042Zm-.245-.192a.349.349,0,0,0,.107.129A.416.416,0,0,1,451.168,2812.5Zm-10.887-6.118.117.042-.118-.042Zm1.089,22.345-.023.017.022-.017c-.065-.125-.136-.248-.206-.371C441.232,2828.479,441.305,2828.6,441.37,2828.727Zm-.317-.567c-.076-.126-.158-.249-.239-.373C440.895,2827.91,440.977,2828.032,441.053,2828.159Zm-.373-.576c-.071-.1-.15-.205-.226-.307C440.53,2827.378,440.608,2827.479,440.68,2827.583Zm-.417-.559c-.074-.092-.154-.183-.232-.273C440.109,2826.841,440.188,2826.931,440.263,2827.024Zm18.61-19.326-.009-.008Zm-.125-.067c.008,0,.015.009.023.012a.425.425,0,0,0-.079-.021C458.71,2807.625,458.73,2807.625,458.747,2807.63Zm-3.071,3.339h0c-2.982-.818-4.259.866-4.479,1.386C451.417,2811.837,452.694,2810.152,455.677,2810.97Zm-7.929,11.458a23.314,23.314,0,0,1-1.838,2.213h0A26.024,26.024,0,0,0,447.748,2822.427Zm-4.933-14.492c-.042-.047-.078-.094-.124-.14C442.737,2807.841,442.773,2807.888,442.815,2807.936Zm-.326-.327c-.055-.049-.1-.1-.163-.147C442.385,2807.51,442.434,2807.56,442.489,2807.609Zm-.4-.32c-.069-.05-.133-.1-.208-.151C441.958,2807.188,442.021,2807.239,442.091,2807.289Zm-.475-.309c-.086-.05-.166-.1-.258-.148C441.45,2806.88,441.53,2806.931,441.615,2806.98Zm-.563-.291c-.1-.048-.2-.1-.311-.142C440.852,2806.594,440.949,2806.642,441.052,2806.69Zm-3.474,17.989c-5.194-3.7-4.251-12.728-4.251-12.728a7.521,7.521,0,0,1,1.017-3.092.63.63,0,0,1-.109-.251s.542-3.493,4.928-2.544c.024-1.836-1.819-3.485-1.839-3.5a.419.419,0,0,1,.41-.71.419.419,0,0,0-.41.711c.021.019,1.863,1.667,1.839,3.5-4.385-.949-4.927,2.545-4.927,2.545a.626.626,0,0,0,.109.25,7.518,7.518,0,0,0-1.017,3.092s-.943,9.032,4.251,12.729a10.074,10.074,0,0,1,1.231.873A10.813,10.813,0,0,0,437.579,2824.679Zm1.75,1.333c-.137-.129-.28-.256-.429-.381C439.046,2825.753,439.191,2825.88,439.329,2826.011Zm.192.191c.1.1.2.195.29.3C439.718,2826.4,439.62,2826.3,439.521,2826.2Zm.052,3.815-.35.237Q439.4,2830.138,439.573,2830.018Zm-2.412,1.542c.131-.078.259-.154.393-.236C437.424,2831.4,437.293,2831.48,437.161,2831.559Zm-4.035,2.146.007,0-.007,0s-1.533.917-.651,1.247h0C431.591,2834.622,433.126,2833.7,433.126,2833.7Zm9.705.217h0c.307,2.627.136,4.756.806,5.076C442.967,2838.679,443.138,2836.55,442.831,2833.922Z" transform="translate(-430.821 -2800.453)" fill="#fff"/>
        <g id="Group_1184" data-name="Group 1184">
          <g id="Path_2780" data-name="Path 2780">
            <path id="Path_3503" data-name="Path 3503" d="M457.161,2811.906l-.024-.01c.3-.928,1.112-2.826,2.131-2.785a.418.418,0,1,0,.055-.834H459.3c-1.726-.07-2.679,2.464-2.961,3.358-3.408-.936-4.589,1.4-4.511,1.526a.358.358,0,0,0,.292.208c-1.171,1.5-1.11,4.528-1.93,6.887a23.384,23.384,0,0,1-3.758,5.2,10.365,10.365,0,0,0-1.248-3.549c-1.888-3.023-1.2-8.893-1.063-10.206.02-.2.043-.407.047-.629a.816.816,0,0,0,.086-.03c.155-.058.507-2.839-3.6-4.1.168-2.3-2.011-4.258-2.112-4.346a.418.418,0,1,0-.554.627c.021.019,1.863,1.667,1.839,3.5-4.385-.948-4.927,2.544-4.927,2.544a.624.624,0,0,0,.109.251,7.518,7.518,0,0,0-1.017,3.092s-.943,9.032,4.251,12.728a10.108,10.108,0,0,1,3.791,4.048,45.34,45.34,0,0,1-8.244,4.978s-1.954,1.167-.2,1.342a23.369,23.369,0,0,0,9.877-1.345c.367,2.912.113,5.265.982,5.336s1.827-3.045,2.187-6.821c8.19-4.669,11.7-13.581,12.525-15.911a.46.46,0,0,0,.447-.154S461.2,2813.485,457.161,2811.906Z" transform="translate(-431.485 -2801.117)" fill="none"/>
            <path id="Path_3504" data-name="Path 3504" d="M458.747,2807.63a.418.418,0,0,0-.109-.019c-1.726-.071-2.679,2.464-2.961,3.358-3.408-.935-4.589,1.4-4.511,1.527a.36.36,0,0,0,.292.208c-1.171,1.5-1.11,4.528-1.93,6.887a23.365,23.365,0,0,1-3.758,5.206,10.358,10.358,0,0,0-1.249-3.549c-1.887-3.023-1.2-8.893-1.063-10.206.02-.2.041-.408.047-.629.031-.009.059-.021.086-.031.154-.058.5-2.8-3.524-4.078l-.078-.025c.167-2.3-2.012-4.259-2.112-4.347a.418.418,0,0,0-.553.628c.02.018,1.862,1.666,1.839,3.5-4.385-.948-4.927,2.544-4.927,2.544a.625.625,0,0,0,.109.252,7.521,7.521,0,0,0-1.017,3.092s-.943,9.032,4.251,12.728a10.109,10.109,0,0,1,3.791,4.048,45.346,45.346,0,0,1-8.244,4.978s-1.955,1.167-.2,1.341a23.361,23.361,0,0,0,9.877-1.345c.367,2.911.113,5.265.982,5.336s1.827-3.045,2.188-6.821c8.19-4.67,11.7-13.581,12.525-15.912.237.086.446-.153.446-.153s1.591-3.331-2.45-4.91l-.024-.01c.3-.928,1.112-2.826,2.131-2.784a.419.419,0,0,0,.144-.817m.415-1.31h0a1.8,1.8,0,0,1,1.249,1.781h0a1.8,1.8,0,0,1-1.682,1.717,2.615,2.615,0,0,0-.45.649c-.018.032-.035.066-.052.1a5.82,5.82,0,0,1,.917.692,4.64,4.64,0,0,1,1.17,1.692,5.029,5.029,0,0,1-.127,3.792l-.081.169-.123.141a1.913,1.913,0,0,1-.427.362,36.639,36.639,0,0,1-3.4,6.712,31.453,31.453,0,0,1-3.9,4.92,25.759,25.759,0,0,1-4.985,4,24.868,24.868,0,0,1-.883,4.435,7.7,7.7,0,0,1-.779,1.79,2.857,2.857,0,0,1-.647.734,1.827,1.827,0,0,1-1.286.4,1.848,1.848,0,0,1-.4-.078,1.883,1.883,0,0,1-1.1-.949,3.352,3.352,0,0,1-.321-.976,17.723,17.723,0,0,1-.2-2.076q-.023-.376-.051-.784a23.819,23.819,0,0,1-3.179.682,26.608,26.608,0,0,1-5.586.191h-.021l-.022,0a3.412,3.412,0,0,1-.69-.134,1.981,1.981,0,0,1-.748-.419,1.628,1.628,0,0,1-.523-1.012,1.8,1.8,0,0,1,.4-1.316,3.364,3.364,0,0,1,.541-.548,5.74,5.74,0,0,1,.651-.461l.074-.044.079-.035c.009,0,.985-.434,2.452-1.243a46.619,46.619,0,0,0,4.523-2.842,8.709,8.709,0,0,0-2.686-2.508l-.042-.026-.04-.029a10.253,10.253,0,0,1-3.3-4.083,16.664,16.664,0,0,1-1.332-4.58,23.2,23.2,0,0,1-.188-5.308,8.466,8.466,0,0,1,.2-1.209,8.61,8.61,0,0,1,.7-1.923l-.014-.086.033-.213a4.648,4.648,0,0,1,3.927-3.8q.205-.033.419-.05a5.785,5.785,0,0,0-.812-.959,1.8,1.8,0,0,1-.156-2.526h0a1.794,1.794,0,0,1,1.886-.523,1.775,1.775,0,0,1,.643.364h0a9.1,9.1,0,0,1,1.386,1.6,7.454,7.454,0,0,1,.868,1.676,5.752,5.752,0,0,1,.283,1.121,6.606,6.606,0,0,1,2.767,2.009,4.429,4.429,0,0,1,.96,2.565,2.943,2.943,0,0,1-.049.643,1.812,1.812,0,0,1-.15.448c-.007.077-.014.15-.021.218-.005.048-.011.1-.018.165a32.483,32.483,0,0,0-.2,4.335,10.209,10.209,0,0,0,1.075,4.839,8.757,8.757,0,0,1,.708,1.422,8.9,8.9,0,0,0,2.474-5.6c.138-.774.281-1.575.485-2.305a7.881,7.881,0,0,1,.462-1.267,1.6,1.6,0,0,1,.144-1.018,3.3,3.3,0,0,1,.359-.592,4.483,4.483,0,0,1,2.024-1.477,5.462,5.462,0,0,1,2.456-.277,8.376,8.376,0,0,1,.67-1.238,3.646,3.646,0,0,1,3.222-1.931A1.823,1.823,0,0,1,459.163,2806.32Z" transform="translate(-430.821 -2800.453)"/>
          </g>
          <path id="Path_2781" data-name="Path 2781" d="M435.515,2815.92s.364-5.413,5.164-4.685,4.6,2.628,4.48,3.865-.76,6.765,1.048,9.621c2.982,4.708,1.061,16.9-.636,16.758s1.071-9.293-5.964-13.551C434.649,2824.427,435.515,2815.92,435.515,2815.92Z" transform="translate(-432.331 -2803.943)" fill="#e2474f"/>
          <path id="Path_2782" data-name="Path 2782" d="M434.138,2839.468s11.731-5.13,16.336-14.054c1.081-3.111.624-7.4,3.512-7.75s6.215,2.153,5.565,4.068-6.958,20.345-25.608,19.073C432.191,2840.63,434.138,2839.468,434.138,2839.468Z" transform="translate(-431.6 -2806.048)" fill="#5cbc2a"/>
          <path id="Path_2783" data-name="Path 2783" d="M436.484,2811.69a.455.455,0,0,0,.457.4c.4-.021,5.093-1.4,7.648.844.819.663.961.562,1.12.5s.532-3.028-4.068-4.192S436.484,2811.69,436.484,2811.69Z" transform="translate(-432.666 -2803.242)" fill="#4e9624"/>
          <path id="Path_2784" data-name="Path 2784" d="M469.021,2821.475s-.276.32-.554.084-2.94-3.945-6.027-3.49c-.96.1-1.007-.062-1.091-.2s1.271-2.793,5.256-1.237S469.021,2821.475,469.021,2821.475Z" transform="translate(-440.764 -2805.565)" fill="#4e9624"/>
          <path id="Path_3505" data-name="Path 3505" d="M442.942,2807.675a.412.412,0,0,1-.276-.489c.482-2.02-1.722-3.993-1.744-4.012a.412.412,0,1,1,.545-.618c.106.094,2.6,2.325,2,4.822a.413.413,0,0,1-.5.306Z" transform="translate(-434.066 -2801.104)" fill="#4e9624"/>
          <path id="Path_3506" data-name="Path 3506" d="M468.1,2815.641a.412.412,0,0,1-.273-.5c.1-.375,1.052-3.658,3-3.579a.413.413,0,0,1-.034.824c-1.1-.044-1.955,2.186-2.169,2.971a.412.412,0,0,1-.506.289Z" transform="translate(-442.87 -2804.071)" fill="#4e9624"/>
          <path id="Path_3507" data-name="Path 3507" d="M439.775,2826.732a.543.543,0,0,1-.3-.235c-.121-.2-2.954-4.866-1.526-9.115a.562.562,0,0,1,.7-.346.55.55,0,0,1,.346.7c-1.262,3.755,1.392,8.144,1.419,8.188a.549.549,0,0,1-.634.812Z" transform="translate(-433.012 -2805.847)" fill="#fff"/>
          <path id="Path_3508" data-name="Path 3508" d="M462.1,2831.4a.55.55,0,0,1-.129-.989c3.344-2.123,4.043-7.205,4.05-7.256a.55.55,0,0,1,1.09.142c-.03.229-.767,5.641-4.55,8.043A.551.551,0,0,1,462.1,2831.4Z" transform="translate(-440.885 -2807.692)" fill="#fff"/>
        </g>
      </g>
      <g id="Group_1187" data-name="Group 1187" transform="translate(384.644 115.946)">
        <path id="Path_3509" data-name="Path 3509" d="M497.661,2893.938a6.364,6.364,0,0,0-.183-1.152c-1.494-5.75-9.242-10.276-15.4-10.726a12.733,12.733,0,0,0-4.855-6.114c-1.539-.887-3.114-1.7-4.637-2.477-4.432-2.274-8.618-4.422-9.761-7.506-.32-.864-1.171-3.158-3.2-3.158h0c-2.4,0-3.087,2.962-3.541,4.924-.026.111-.056.242-.077.328s-.066.16-.1.25c-1.014,2.586-3.182,5.684-6.443,9.208l-.046.05c-.256.3-6.266,7.354-5.362,15.761.513,4.773,3.115,8.949,7.734,12.413.16.121,4.232,3.151,11.682,3.151a33.49,33.49,0,0,0,10.388-1.77c.283-.092.562-.193.836-.3.241.167.48.327.718.479a14.816,14.816,0,0,0,7.778,2.268c3.632,0,8.834-1.449,12.994-8.348a2.029,2.029,0,0,0,.177-.378A12.007,12.007,0,0,0,497.661,2893.938Z" transform="translate(-443.962 -2862.805)" fill="#fff"/>
        <g id="Group_1186" data-name="Group 1186" transform="translate(0 0.024)">
          <path id="Path_3510" data-name="Path 3510" d="M454.559,2879.9s-11.815,14.36,1.953,25.217c0,0,6.732,5.379,19.227,1.076s8.813-23.866,2.84-27.484-12.764-6.015-14.532-11.027-2.7,1.784-2.884,2.126S460.141,2873.557,454.559,2879.9Z" transform="translate(-445.877 -2863.818)" fill="#f49227"/>
          <path id="Path_3511" data-name="Path 3511" d="M480.965,2883.779a6.729,6.729,0,0,0,.324,4.222,7.184,7.184,0,0,1,.432,3.126,51.659,51.659,0,0,1-1.127,7.182c-1.521,6.8,4.679,12.039,7.929,14.124,3.6,2.308,11.987,4.462,17.944-5.422Z" transform="translate(-455.818 -2869.661)" fill="#ffbf73"/>
          <path id="Path_3512" data-name="Path 3512" d="M482.028,2883.107c-.146.075-.295.144-.444.212-.332.152-.863.881,1.079,4.365,2.5,4.479,1.416,6.725,1.243,8.946-.1,1.292-.307,12.638,14.847,13.253,2.652.108,9.831-.092,9.2-9.232a4.323,4.323,0,0,0-.123-.784c-1.351-5.2-9.268-9.285-14.5-9.247-4.654.034-8.5-5.009-9.432-6.346a4.113,4.113,0,0,1-.286-.468C483.437,2883.463,482.907,2882.654,482.028,2883.107Z" transform="translate(-456.111 -2869.398)" fill="#efe9b9"/>
          <path id="Path_3513" data-name="Path 3513" d="M481.653,2882.386c.579,0,.94.562,1.081.835a4.057,4.057,0,0,0,.287.467c.933,1.333,4.752,6.346,9.385,6.346h.12c5.228,0,13.079,4.073,14.423,9.248a4.274,4.274,0,0,1,.123.784,9.62,9.62,0,0,1-1.225,6.066l.034.031c-3.408,5.655-7.612,7.369-11.259,7.369a12.755,12.755,0,0,1-6.685-1.947c-3.25-2.085-9.451-7.321-7.929-14.124a51.686,51.686,0,0,0,1.127-7.182,7.181,7.181,0,0,0-.432-3.126,6.731,6.731,0,0,1-.324-4.222l.078.071a.5.5,0,0,1,.249-.268c.149-.069.3-.138.444-.212a1.086,1.086,0,0,1,.506-.134m0-1.215h0a2.3,2.3,0,0,0-1.062.269c-.13.067-.262.127-.394.188a1.65,1.65,0,0,0-.322.195,1.217,1.217,0,0,0-.651.721,7.842,7.842,0,0,0,.342,5.041,5.923,5.923,0,0,1,.356,2.6,50.575,50.575,0,0,1-1.1,7.012c-1.812,8.1,6.017,13.845,8.459,15.411a13.973,13.973,0,0,0,7.341,2.14c3.423,0,8.336-1.38,12.3-7.956a1.2,1.2,0,0,0,.127-.292,11.162,11.162,0,0,0,1.235-6.517,5.478,5.478,0,0,0-.159-1.006c-1.461-5.625-9.728-10.156-15.6-10.156h-.12c-4.1,0-7.709-4.854-8.391-5.828a2.876,2.876,0,0,1-.2-.328,2.47,2.47,0,0,0-2.16-1.494Z" transform="translate(-455.229 -2868.811)"/>
          <path id="Path_3514" data-name="Path 3514" d="M485.684,2887.836a30.346,30.346,0,0,1,2.586,11.219c.4,7.826,9.275,14.1,18.937,10.119,2.154-6.628-1.669-12.576-10.7-14.514A20.309,20.309,0,0,1,485.684,2887.836Z" transform="translate(-457.552 -2870.982)" fill="#f4f0dc"/>
          <path id="Path_3515" data-name="Path 3515" d="M492.3,2897.517s1.282,3.03,3,7.8c1.828,5.09,5.9,7.082,13.7,6.5.174-4.375-4.4-9.506-9.5-10.784S492.3,2897.517,492.3,2897.517Z" transform="translate(-459.708 -2874.135)" fill="#fafcf5"/>
          <path id="Path_3516" data-name="Path 3516" d="M499.72,2904.573s.858,1.955,2,5.034c1.222,3.285,3.961,4.564,9.219,4.175.125-2.828-2.949-6.134-6.384-6.95A10.4,10.4,0,0,1,499.72,2904.573Z" transform="translate(-462.124 -2876.434)" fill="#e4fcca"/>
          <path id="Path_3517" data-name="Path 3517" d="M459.624,2864.865c.373,0,.808.5,1.3,1.838,1.86,5.015,9,7.411,15.286,11.032,1.807,1.041,3.413,3.4,4.474,6.339.1,0,.2.009.3.009h.1c5.228,0,13.079,4.072,14.423,9.247a4.343,4.343,0,0,1,.123.784,9.616,9.616,0,0,1-1.225,6.065l.034.031c-3.408,5.655-7.612,7.369-11.259,7.369a12.755,12.755,0,0,1-6.685-1.947c-.468-.3-1-.668-1.558-1.094a13.478,13.478,0,0,1-1.72.695,31.289,31.289,0,0,1-9.757,1.669c-6.853,0-10.467-2.746-10.467-2.746-14.482-10.862-2.055-25.23-2.055-25.23,5.871-6.344,6.751-9.753,6.948-10.1.143-.251.706-3.966,1.728-3.966m0-2.025c-2.4,0-3.087,2.963-3.54,4.924-.026.111-.056.242-.078.328s-.065.16-.1.251c-1.014,2.585-3.181,5.684-6.443,9.208-.015.016-.03.034-.045.051-.256.3-6.266,7.353-5.362,15.76.513,4.773,3.115,8.95,7.734,12.414.159.121,4.232,3.151,11.682,3.151a33.491,33.491,0,0,0,10.388-1.77c.282-.093.561-.192.835-.3q.361.25.719.48a14.812,14.812,0,0,0,7.778,2.268c3.632,0,8.834-1.448,12.993-8.348a2.017,2.017,0,0,0,.178-.378,12.017,12.017,0,0,0,1.3-6.9,6.352,6.352,0,0,0-.183-1.152c-1.493-5.75-9.241-10.276-15.4-10.726a12.741,12.741,0,0,0-4.855-6.114c-1.539-.886-3.114-1.695-4.638-2.476-4.432-2.274-8.618-4.423-9.761-7.506-.32-.864-1.171-3.158-3.2-3.159h0Z" transform="translate(-443.962 -2862.84)"/>
          <path id="Path_3518" data-name="Path 3518" d="M463.87,2869.156a38.161,38.161,0,0,1-2.521,11.382,27.522,27.522,0,0,1-1.2,2.708l-.315.634-.289.621c-.187.418-.358.845-.515,1.279a25.115,25.115,0,0,0-1.311,5.371,19.711,19.711,0,0,0,0,5.466,12.748,12.748,0,0,0,1.825,5.025,11.557,11.557,0,0,0,3.961,3.685,20.041,20.041,0,0,0,5.313,2.028,15.789,15.789,0,0,1-5.752-1.136,12.794,12.794,0,0,1-2.627-1.5,11.335,11.335,0,0,1-2.182-2.163,13.052,13.052,0,0,1-2.431-5.617,19.436,19.436,0,0,1-.118-6.05,23.651,23.651,0,0,1,1.531-5.8q.285-.7.622-1.377c.113-.227.229-.452.353-.673l.366-.641c.465-.811.914-1.636,1.325-2.486A68.793,68.793,0,0,0,463.87,2869.156Z" transform="translate(-447.729 -2864.897)" fill="#ffbf73"/>
          <path id="Path_3519" data-name="Path 3519" d="M467.278,2871.51a50.346,50.346,0,0,1,.055,10.15,23.446,23.446,0,0,1-.98,5.117l-.212.624c-.059.172-.123.339-.169.522a8.854,8.854,0,0,0-.243,1.115,15.142,15.142,0,0,0-.2,2.345,19.511,19.511,0,0,0,2.1,9.223,13.084,13.084,0,0,0,1.3,1.993,10.7,10.7,0,0,0,1.656,1.729,13.017,13.017,0,0,0,4.287,2.4,10.785,10.785,0,0,1-4.872-1.595,12.169,12.169,0,0,1-3.726-3.716,16.327,16.327,0,0,1-2.124-4.832,21.272,21.272,0,0,1-.5-2.591,20.3,20.3,0,0,1-.142-2.642,16.539,16.539,0,0,1,.257-2.663,10.723,10.723,0,0,1,.333-1.334c.063-.223.153-.446.239-.668l.216-.559a29.867,29.867,0,0,0,1.225-4.691C466.38,2878.181,466.8,2874.854,467.278,2871.51Z" transform="translate(-450.327 -2865.664)" fill="#ffbf73"/>
        </g>
      </g>
      <g id="Group_1192" data-name="Group 1192" transform="translate(0 108.829)">
        <path id="Path_3520" data-name="Path 3520" d="M-83.5,2888.583a24.391,24.391,0,0,0-4.936-2.159c.045-.477.071-.96.071-1.448a15.348,15.348,0,0,0-1.806-7.227c4.306-3.459,8.974-8.35,9.428-13.541a3.332,3.332,0,0,0-.772-2.451,3.33,3.33,0,0,0-2.28-1.187,2.984,2.984,0,0,0-.3-.014,3.371,3.371,0,0,0-1.013.154,15.965,15.965,0,0,0,.456-5.468,3.355,3.355,0,0,0-3.339-2.993h0a3.3,3.3,0,0,0-.361.02,3.336,3.336,0,0,0-2.256,1.235,3.338,3.338,0,0,0-.72,2.467A6.96,6.96,0,0,1-91.3,2857a3.376,3.376,0,0,0-2.726-1.4,3.359,3.359,0,0,0-1.173.211,3.363,3.363,0,0,0-1.972,4.323c.728,1.946,0,5.607-1.949,9.973a16.671,16.671,0,0,0-5.588-.951,13.737,13.737,0,0,0-10.883,5.256,18.38,18.38,0,0,0-3.854,11.518,14.711,14.711,0,0,0,2.689,8.913c-1.912,3.818-5.549,6.45-8.371,8.023a2.629,2.629,0,0,0-1.286,2.99,2.681,2.681,0,0,0,2.586,2.017,2.776,2.776,0,0,0,.533-.052c5.82-1.13,11.367-4.833,15.193-7.948a19.856,19.856,0,0,0,3.393.283,18.57,18.57,0,0,0,2.434-.159,18.533,18.533,0,0,0,1.983,5.16,14.369,14.369,0,0,0,12.454,7.031h.207c9.185-.129,12.8-8.641,12.947-9C-72.886,2898.776-76.677,2892.5-83.5,2888.583Zm-6.611-28.13c-.005.019-.012.038-.018.057l0-.005c.007-.024.016-.049.022-.073Zm-5.133,3.325h0l-.006.012,0-.024Zm4.911,7.581.014-.044a25.767,25.767,0,0,0,2.533-2.849l.027-.01A25.6,25.6,0,0,1-90.333,2871.358Zm-8.794,33.128c-.231-.4-.454-.836-.668-1.306.214.469.438.908.668,1.306q.229.394.481.765Q-98.9,2904.88-99.127,2904.486Zm11.291,6.361c-.111,0-.222-.008-.333-.01.173,0,.346.011.519.009Zm9.73-16.028q-.342-.427-.725-.848a21.573,21.573,0,0,0-4.211-3.535,21.573,21.573,0,0,1,4.211,3.535q.382.42.725.848t.64.86Q-77.764,2895.247-78.106,2894.819Zm2.328,7.425a5.074,5.074,0,0,0,.2-1.51A5.074,5.074,0,0,1-75.777,2902.245Z" transform="translate(126.5 -2852.25)" fill="#fff"/>
        <g id="Group_1191" data-name="Group 1191" transform="translate(0.002 0.014)">
          <g id="Group_1189" data-name="Group 1189">
            <path id="Path_3521" data-name="Path 3521" d="M-87.992,2854.063a1.57,1.57,0,0,1,1.558,1.4c.732,6.7-5.019,15.373-8.1,19.48,3.585-2.693,8.552-7.235,8.893-11.138a1.563,1.563,0,0,1,1.549-1.43c.049,0,.1,0,.148.006a1.566,1.566,0,0,1,1.423,1.7c-.463,5.285-6.343,10.5-10,13.26A13.6,13.6,0,0,1-90.154,2885c0,7.745-6.515,13.393-14.551,13.393a17.405,17.405,0,0,1-3.878-.416c-3.895,3.27-9.372,7.011-15.05,8.114a.978.978,0,0,1-.191.019.882.882,0,0,1-.427-1.649c3.274-1.826,7.642-5.037,9.589-9.867a12.449,12.449,0,0,1-2.987-8.634c0-7.745,4.909-14.981,12.945-14.981a14.938,14.938,0,0,1,6.482,1.468c1.953-3.962,4-9.528,2.733-12.91a1.567,1.567,0,0,1,.918-2.016,1.578,1.578,0,0,1,.548-.1,1.567,1.567,0,0,1,1.467,1.018,13.447,13.447,0,0,1,.046,7.63c1.846-3.4,3.3-7.185,2.962-10.267a1.567,1.567,0,0,1,1.387-1.727,1.648,1.648,0,0,1,.169-.009m0-1.792a3.444,3.444,0,0,0-.361.02,3.338,3.338,0,0,0-2.256,1.235,3.334,3.334,0,0,0-.719,2.467,7.06,7.06,0,0,1,.032,1.032,3.376,3.376,0,0,0-2.726-1.4,3.359,3.359,0,0,0-1.173.211,3.364,3.364,0,0,0-1.972,4.322c.728,1.946,0,5.607-1.949,9.974a16.658,16.658,0,0,0-5.588-.95,13.733,13.733,0,0,0-10.883,5.256,18.379,18.379,0,0,0-3.854,11.517,14.712,14.712,0,0,0,2.689,8.913c-1.912,3.818-5.549,6.45-8.371,8.023a2.626,2.626,0,0,0-1.285,2.989,2.681,2.681,0,0,0,2.585,2.017,2.855,2.855,0,0,0,.533-.052c5.82-1.131,11.367-4.833,15.193-7.949a19.818,19.818,0,0,0,3.393.283,17.04,17.04,0,0,0,11.49-4.254A14.56,14.56,0,0,0-88.362,2885a15.348,15.348,0,0,0-1.806-7.227c4.306-3.459,8.974-8.35,9.428-13.542a3.335,3.335,0,0,0-.773-2.451,3.328,3.328,0,0,0-2.28-1.187c-.094-.009-.2-.015-.3-.015a3.371,3.371,0,0,0-1.013.155,15.948,15.948,0,0,0,.456-5.468,3.355,3.355,0,0,0-3.339-2.993h0Z" transform="translate(126.497 -2852.271)"/>
            <g id="Group_1188" data-name="Group 1188" transform="translate(1.793 1.822)">
              <path id="Path_3522" data-name="Path 3522" d="M-86.345,2881.019a1.557,1.557,0,0,1-.839-.244,1.567,1.567,0,0,1-.483-2.163c1.914-3.016,6.5-11.866,4.745-16.543a1.568,1.568,0,0,1,.919-2.017,1.567,1.567,0,0,1,2.018.919c2.655,7.093-4.72,18.826-5.035,19.323A1.566,1.566,0,0,1-86.345,2881.019Z" transform="translate(112.136 -2856.595)" fill="#1c7c1c"/>
              <path id="Path_3523" data-name="Path 3523" d="M-82.353,2884.508a1.565,1.565,0,0,1-1.33-.736,1.567,1.567,0,0,1,.5-2.16c3.025-1.9,10.973-7.911,11.409-12.885a1.565,1.565,0,0,1,1.7-1.426,1.568,1.568,0,0,1,1.425,1.7c-.66,7.545-12.37,14.958-12.868,15.269A1.557,1.557,0,0,1-82.353,2884.508Z" transform="translate(110.837 -2858.987)" fill="#1c7c1c"/>
              <path id="Path_3524" data-name="Path 3524" d="M-84.371,2878.743a1.562,1.562,0,0,1-1.017-.376,1.568,1.568,0,0,1-.175-2.21c.1-.118,10.052-11.879,9.225-19.445a1.568,1.568,0,0,1,1.388-1.729,1.567,1.567,0,0,1,1.729,1.389c.974,8.91-9.511,21.3-9.958,21.821A1.562,1.562,0,0,1-84.371,2878.743Z" transform="translate(111.493 -2854.974)" fill="#1c7c1c"/>
              <path id="Path_3525" data-name="Path 3525" d="M-85.467,2894.635c0,7.656-6.388,13.239-14.268,13.239s-12.693-4.635-12.693-12.291,4.814-14.809,12.693-14.809A14.07,14.07,0,0,1-85.467,2894.635Z" transform="translate(120.122 -2863.377)" fill="#c41b5c"/>
              <path id="Path_3526" data-name="Path 3526" d="M-122.766,2920.826a.882.882,0,0,1-.619-1.63c4.669-2.6,11.57-8.021,10.487-16.938-1.44-11.864,8.3,1.435,10.43,4.455a.88.88,0,0,1-.073,1.109C-104.652,2910.09-113.444,2919.015-122.766,2920.826Z" transform="translate(123.838 -2868.799)" fill="#c41b5c"/>
            </g>
          </g>
          <path id="Path_3527" data-name="Path 3527" d="M-103.815,2891.625a1.116,1.116,0,0,1-.67-.224,1.117,1.117,0,0,1-.227-1.562A10.8,10.8,0,0,1-94.139,2886a1.12,1.12,0,0,1,.873,1.321,1.121,1.121,0,0,1-1.322.873,8.557,8.557,0,0,0-8.331,2.986A1.123,1.123,0,0,1-103.815,2891.625Z" transform="translate(119.473 -2863.182)" fill="#fff"/>
          <g id="Group_1190" data-name="Group 1190" transform="translate(23.767 33.312)">
            <path id="Path_3528" data-name="Path 3528" d="M-63.793,2919.438c1.513-3.715-2.022-9.356-8.243-12.927-6.284-3.608-13.01-3.787-15.394-.507h0l-.007.011a4.453,4.453,0,0,0-.252.386,4.456,4.456,0,0,0-.243.5c-2.533,4.962-.989,11.02.939,14.346a13,13,0,0,0,11.479,6.36C-67.111,2927.491-63.793,2919.438-63.793,2919.438Z" transform="translate(90.6 -2902.324)" fill="#c41b5c"/>
            <path id="Path_3529" data-name="Path 3529" d="M-82.253,2903.019a19.893,19.893,0,0,1,9.569,2.843c6.221,3.572,9.756,9.213,8.243,12.927,0,0-3.318,8.053-11.722,8.171h-.188a12.984,12.984,0,0,1-11.291-6.361c-1.928-3.326-3.472-9.384-.939-14.347a4.427,4.427,0,0,1,.243-.5,4.463,4.463,0,0,1,.252-.387l.007-.012h0c1.132-1.559,3.245-2.336,5.825-2.336m0-1.344c-3.067,0-5.5,1-6.865,2.825a1.359,1.359,0,0,0-.088.12c-.114.161-.212.312-.3.462a5.666,5.666,0,0,0-.3.605c-2.586,5.117-1.367,11.51,1,15.586a14.368,14.368,0,0,0,12.454,7.031l.207,0c9.184-.129,12.8-8.641,12.946-9,1.8-4.411-1.994-10.687-8.817-14.6a21.187,21.187,0,0,0-10.237-3.021Z" transform="translate(91.248 -2901.675)"/>
          </g>
          <ellipse id="Ellipse_620" data-name="Ellipse 620" cx="7.259" cy="12.849" rx="7.259" ry="12.849" transform="translate(23.79 44.135) rotate(-60.137)" fill="#d85993"/>
          <ellipse id="Ellipse_621" data-name="Ellipse 621" cx="5.339" cy="9.451" rx="5.339" ry="9.451" transform="translate(27.952 43.71) rotate(-60.137)" fill="#c41b5c"/>
          <ellipse id="Ellipse_622" data-name="Ellipse 622" cx="4.503" cy="7.971" rx="4.503" ry="7.971" transform="translate(29.856 43.529) rotate(-60.137)" fill="#d85993"/>
          <ellipse id="Ellipse_623" data-name="Ellipse 623" cx="3.424" cy="6.061" rx="3.424" ry="6.061" transform="translate(32.159 43.353) rotate(-60.137)" fill="#c41b5c"/>
          <path id="Path_3530" data-name="Path 3530" d="M-105.989,2906.515a.456.456,0,0,1-.145-.024,7.783,7.783,0,0,1-3.528-2.792.448.448,0,0,1,.125-.62.448.448,0,0,1,.62.124,6.984,6.984,0,0,0,3.073,2.441.448.448,0,0,1,.278.569A.448.448,0,0,1-105.989,2906.515Z" transform="translate(121.038 -2868.796)" fill="#d85993"/>
          <path id="Path_3531" data-name="Path 3531" d="M-101.561,2916.848a.448.448,0,0,1-.144-.024,7.774,7.774,0,0,1-3.528-2.792.447.447,0,0,1,.125-.62.448.448,0,0,1,.62.125,6.984,6.984,0,0,0,3.072,2.44.448.448,0,0,1,.279.569A.448.448,0,0,1-101.561,2916.848Z" transform="translate(119.595 -2872.162)" fill="#d85993"/>
          <path id="Path_3532" data-name="Path 3532" d="M-92.885,2906.969a.45.45,0,0,1-.145-.024,7.782,7.782,0,0,1-3.528-2.792.448.448,0,0,1,.125-.62.448.448,0,0,1,.62.125,6.99,6.99,0,0,0,3.073,2.44.448.448,0,0,1,.278.569A.448.448,0,0,1-92.885,2906.969Z" transform="translate(116.769 -2868.944)" fill="#d85993"/>
        </g>
      </g>
    </g>
  </g>
</svg>
