<svg xmlns="http://www.w3.org/2000/svg" width="196" height="196" viewBox="0 0 196 196">
  <g id="Group_1955" data-name="Group 1955" transform="translate(-315 -163)">
    <rect id="Rectangle_1132" data-name="Rectangle 1132" width="196" height="196" rx="5" transform="translate(315 163)" fill="#fff"/>
    <g id="Group_1893" data-name="Group 1893" transform="translate(296.388 18.414)">
      <g id="Group_1437" data-name="Group 1437" transform="translate(56.612 176)">
        <g id="Path_3739" data-name="Path 3739" transform="translate(-61.087 -96.211)" fill="none" stroke-miterlimit="10">
          <path d="M111.341,222.9c5.879,0,5.75,4.057,13.059,4.057,7.844,0,37.2-15.666,37.2-51.706,0-29.164-21.9-37.318-31.044-37.318a39.171,39.171,0,0,0-12.33,2.53,20.654,20.654,0,0,1-13.76,0,39.171,39.171,0,0,0-12.33-2.53c-9.141,0-31.044,8.155-31.044,37.318,0,36.04,29.352,51.706,37.2,51.706C105.591,226.955,105.463,222.9,111.341,222.9Z" stroke="none"/>
          <path d="M 124.4002456665039 226.9546203613281 C 132.2438659667969 226.9546203613281 161.5960540771484 211.2885589599609 161.5960540771484 175.2483367919922 C 161.5960540771484 146.0845336914062 139.6925659179688 137.9299926757812 130.5515899658203 137.9299926757812 C 126.4459686279297 137.9299926757812 121.8744964599609 139.1675720214844 118.221549987793 140.4598236083984 C 113.772590637207 142.0325775146484 108.9104537963867 142.0325775146484 104.4614944458008 140.4598236083984 C 100.8085479736328 139.1675720214844 96.23707580566406 137.9299926757812 92.13142395019531 137.9299926757812 C 82.99047088623047 137.9299926757812 61.08699798583984 146.0845336914062 61.08699798583984 175.2483367919922 C 61.08699798583984 211.2885589599609 90.43914794921875 226.9546203613281 98.28279876708984 226.9546203613281 C 105.5906982421875 226.9546203613281 105.4630966186523 222.8975677490234 111.3410186767578 222.8975677490234 C 117.2199478149414 222.8975677490234 117.0913238525391 226.9546203613281 124.4002456665039 226.9546203613281 M 124.4002456665039 231.9546203613281 C 122.0817718505859 231.9546203613281 120.0577697753906 231.6277465820312 118.2126007080078 230.9553375244141 C 116.5695190429688 230.3565979003906 115.3681716918945 229.5981597900391 114.4028701782227 228.98876953125 C 113.1099700927734 228.1725463867188 112.6744232177734 227.8975677490234 111.3410186767578 227.8975677490234 C 110.0081253051758 227.8975677490234 109.5725708007812 228.1725158691406 108.2796936035156 228.9887390136719 C 107.3143997192383 229.59814453125 106.1130752563477 230.3565368652344 104.470100402832 230.9552917480469 C 102.6249465942383 231.6277465820312 100.60107421875 231.9546203613281 98.28279876708984 231.9546203613281 C 95.28704833984375 231.9546203613281 91.21987152099609 230.6804656982422 86.83049774169922 228.3668365478516 C 83.46832275390625 226.5946655273438 78.37197113037109 223.3801727294922 73.18629455566406 218.1302642822266 C 68.12167358398438 213.0029144287109 64.09522247314453 207.0861968994141 61.21877288818359 200.5444946289062 C 57.81357192993164 192.8003387451172 56.08699798583984 184.2894592285156 56.08699798583984 175.2483367919922 C 56.08699798583984 167.7421112060547 57.43547058105469 160.9487152099609 60.09499740600586 155.0567932128906 C 62.42134857177734 149.9029846191406 65.72819519042969 145.4628143310547 69.92372131347656 141.859619140625 C 73.35726928710938 138.9107971191406 77.43229675292969 136.5261840820312 81.70819854736328 134.9635925292969 C 85.29666900634766 133.6521911621094 88.99837493896484 132.9299926757812 92.13142395019531 132.9299926757812 C 96.13732147216797 132.9299926757812 100.846794128418 133.8774719238281 106.1289978027344 135.7460632324219 C 107.805419921875 136.3387145996094 109.5594940185547 136.6393890380859 111.3415222167969 136.6393890380859 C 113.1235504150391 136.6393890380859 114.8776245117188 136.3387145996094 116.5550231933594 135.7457122802734 C 121.8362503051758 133.8774719238281 126.5457229614258 132.9299926757812 130.5515899658203 132.9299926757812 C 133.6846466064453 132.9299926757812 137.3863525390625 133.6521911621094 140.974853515625 134.9635925292969 C 145.2507476806641 136.5261840820312 149.3257446289062 138.9107971191406 152.7593231201172 141.859619140625 C 156.9548187255859 145.4628143310547 160.2617034912109 149.9029846191406 162.5880432128906 155.0567932128906 C 165.2475738525391 160.9487152099609 166.5960540771484 167.7421112060547 166.5960540771484 175.2483367919922 C 166.5960540771484 184.2894592285156 164.8694763183594 192.8003387451172 161.4642791748047 200.5444946289062 C 158.5878295898438 207.0861968994141 154.5613403320312 213.0029144287109 149.4967498779297 218.1302642822266 C 144.3110656738281 223.3801727294922 139.2146911621094 226.5946655273438 135.8525543212891 228.3668365478516 C 131.4631500244141 230.6804656982422 127.3959732055664 231.9546203613281 124.4002456665039 231.9546203613281 Z" stroke="none" fill="#000"/>
        </g>
        <path id="Path_3740" data-name="Path 3740" d="M111.669,222.566c5.839,0,5.712,3.831,12.971,3.831,7.791,0,36.948-14.793,36.948-48.822,0-27.536-21.757-35.235-30.838-35.235a40.689,40.689,0,0,0-12.247,2.388,21.528,21.528,0,0,1-13.668,0,40.7,40.7,0,0,0-12.248-2.388c-9.08,0-30.838,7.7-30.838,35.235C61.749,211.6,90.906,226.4,98.7,226.4,105.957,226.4,105.829,222.566,111.669,222.566Z" transform="translate(-61.078 -96.155)" fill="#e20736"/>
        <path id="Path_3741" data-name="Path 3741" d="M154.787,103.293c-10.306,25.045-31.143,11.7-31.143,11.7S130.541,91.225,154.787,103.293Z" transform="translate(-60.29 -96.696)" fill="#5cbc2a"/>
        <path id="Path_3742" data-name="Path 3742" d="M156.061,101.089c-13.124,31.894-39.659,14.9-39.659,14.9S125.184,85.72,156.061,101.089Z" transform="translate(-60.382 -96.736)" fill="none" stroke="#000" stroke-linecap="round" stroke-linejoin="round" stroke-width="5"/>
        <path id="Path_3743" data-name="Path 3743" d="M121.888,200.518s3.6,26.035,24.7,28.2c18.1,1.86,60.475-8.323,55.243-52.73-.718-4.852-8.069-1.428-12.692.063s-65.83,22.243-65.83,22.243S121.718,198.4,121.888,200.518Z" transform="translate(-60.313 -95.758)" fill="#e20736" stroke="#000" stroke-linecap="round" stroke-miterlimit="10" stroke-width="3"/>
        <path id="Path_3744" data-name="Path 3744" d="M124.978,198.183l70.993-23.842c2.347-.788,4.834.561,5.1,2.778,1.029,8.742.342,28.918-24.781,40.11-25.617,11.412-44.355-7.1-51.784-15.067C122.868,200.41,122.536,199,124.978,198.183Z" transform="translate(-60.296 -95.75)" fill="#fff"/>
        <ellipse id="Ellipse_679" data-name="Ellipse 679" cx="5.073" cy="2.222" rx="5.073" ry="2.222" transform="matrix(0.11, -0.994, 0.994, 0.11, 98.178, 103.234)" fill="#6d3609"/>
        <ellipse id="Ellipse_680" data-name="Ellipse 680" cx="2.222" cy="5.073" rx="2.222" ry="5.073" transform="matrix(0.822, -0.57, 0.57, 0.822, 104.083, 93.228)" fill="#6d3609"/>
        <path id="Path_3745" data-name="Path 3745" d="M98.277,105.472a40.039,40.039,0,0,1,13.934,33.641" transform="translate(-60.613 -96.625)" fill="#fff" stroke="#000" stroke-linecap="round" stroke-miterlimit="10" stroke-width="5"/>
        <path id="Path_3746" data-name="Path 3746" d="M110.01,122.863s7.44-12.79,20.762-11.7" transform="translate(-60.464 -96.553)" fill="none" stroke="#000" stroke-linecap="round" stroke-miterlimit="10" stroke-width="3"/>
        <path id="Path_3747" data-name="Path 3747" d="M75.354,197.407a3.534,3.534,0,0,1-3.078-1.787c-4.549-7.987-9.695-26.945,3.392-41.524a3.545,3.545,0,1,1,5.275,4.736c-12.908,14.38-2.934,32.522-2.5,33.288a3.548,3.548,0,0,1-3.087,5.289Z" transform="translate(-61.007 -96.02)" fill="#fff"/>
      </g>
    </g>
  </g>
</svg>
