<svg xmlns="http://www.w3.org/2000/svg" width="196" height="196" viewBox="0 0 196 196">
  <g id="Group_1956" data-name="Group 1956" transform="translate(-545 -166)">
    <g id="Group_1829" data-name="Group 1829" transform="translate(12579 3499)">
      <g id="Group_1858" data-name="Group 1858" transform="translate(-12595 -3402)">
        <rect id="Rectangle_1255" data-name="Rectangle 1255" width="196" height="196" rx="5" transform="translate(561 69)" fill="#fff"/>
      </g>
    </g>
    <g id="Group_1894" data-name="Group 1894" transform="translate(333.366 13.683)">
      <g id="Group_1438" data-name="Group 1438" transform="translate(241.428 190.593)">
        <path id="Path_3748" data-name="Path 3748" d="M319.3,123.153c-1.271,26.808-25.287,25.694-25.287,25.694S292.52,124.851,319.3,123.153Z" transform="translate(-245.108 -113.88)" fill="#5cbc2a"/>
        <path id="Path_3749" data-name="Path 3749" d="M321.657,119.655c-1.511,31.842-30.037,30.519-30.037,30.519S289.842,121.672,321.657,119.655Z" transform="translate(-245.224 -114.049)" fill="none" stroke="#000" stroke-miterlimit="10" stroke-width="3"/>
        <path id="Path_3750" data-name="Path 3750" d="M259.734,122.139c27.418-.4,28.729,24.023,28.729,24.023S264.19,149.2,259.734,122.139Z" transform="translate(-246.767 -113.929)" fill="#5cbc2a"/>
        <path id="Path_3751" data-name="Path 3751" d="M255.3,119.648c32.779-.3,34.507,28.854,34.507,28.854S260.8,151.963,255.3,119.648Z" transform="translate(-246.981 -114.05)" fill="none" stroke="#000" stroke-miterlimit="10" stroke-width="3"/>
        <path id="Path_3752" data-name="Path 3752" d="M291.31,150.508s.7-26.29-12.361-36.2" transform="translate(-245.837 -114.308)" fill="none" stroke="#000" stroke-linecap="round" stroke-miterlimit="10" stroke-width="5"/>
        <g id="Path_3753" data-name="Path 3753" transform="translate(-247.365 -113.066)" fill="#fff" stroke-miterlimit="10">
          <path d="M 302.373291015625 231.8998565673828 L 301.5320434570312 231.7112731933594 C 301.4146423339844 231.6849670410156 298.6075439453125 231.05029296875 294.271484375 229.6095275878906 C 290.2886657714844 228.2861480712891 284.1953125 225.9971466064453 277.7846374511719 222.6077423095703 C 270.5299072265625 218.7721099853516 264.3511962890625 214.3356323242188 259.4201049804688 209.4215545654297 C 253.1680908203125 203.1910858154297 248.9133911132812 196.17578125 246.7741851806641 188.5705108642578 C 244.6665344238281 181.0782775878906 244.3050079345703 174.0294647216797 245.6996765136719 167.6199493408203 C 246.8480529785156 162.3423461914062 249.1836090087891 157.4847259521484 252.6414489746094 153.1820220947266 C 255.3767242431641 149.7784729003906 260.2574768066406 144.96337890625 267.9760437011719 141.3526763916016 C 268.0360717773438 141.3246002197266 268.0886535644531 141.3000183105469 268.1334533691406 141.2788391113281 C 269.2921142578125 140.7300415039062 272.6194763183594 139.9124755859375 277.0310363769531 139.9124755859375 C 282.0045776367188 139.9124755859375 289.16845703125 140.96923828125 295.9524230957031 145.7909393310547 C 295.9924011230469 145.7621307373047 296.0323486328125 145.7335357666016 296.072265625 145.7051849365234 C 303.7853393554688 140.2375640869141 311.3080139160156 137.4661102294922 318.4336853027344 137.4661102294922 C 322.1564331054688 137.4661102294922 325.7867431640625 138.2252044677734 329.2237548828125 139.7222747802734 C 332.0688781738281 140.9615325927734 334.8022766113281 142.7152862548828 337.3479919433594 144.9348602294922 C 341.8117065429688 148.8266296386719 344.6236267089844 153.1779327392578 345.9025268554688 155.4253082275391 C 347.8108215332031 158.7781219482422 352.1290893554688 171.9386749267578 347.1110229492188 187.8857421875 C 344.5925903320312 195.8891143798828 340.0834655761719 203.4041442871094 333.7089233398438 210.2220764160156 C 330.0705871582031 214.1134948730469 325.7717895507812 217.8238220214844 320.9319152832031 221.2500152587891 C 315.712890625 224.9446563720703 309.7308654785156 228.4032745361328 303.1519775390625 231.5298004150391 L 302.373291015625 231.8998565673828 Z" stroke="none"/>
          <path d="M 318.4336853027344 139.9661102294922 C 312.4862060546875 139.9656982421875 305.5164489746094 142.0748443603516 297.5204162597656 147.7430267333984 C 296.9804992675781 148.126708984375 296.4710083007812 148.5314331054688 295.9750671386719 148.9455261230469 C 284.577880859375 139.7164764404297 270.9529418945312 142.7096405029297 269.2020874023438 143.5389251708984 C 266.6545104980469 144.7434997558594 240.3175964355469 156.3870544433594 249.1807861328125 187.8935852050781 C 258.0429077148438 219.4000854492188 302.0788879394531 229.2718200683594 302.0788879394531 229.2718200683594 C 358.7500915527344 202.3394775390625 346.9220581054688 162.2706604003906 343.729736328125 156.6617736816406 C 341.4614562988281 152.6758117675781 333.0309143066406 139.9671325683594 318.4336853027344 139.9661102294922 M 318.4319152832031 134.9661102294922 L 318.4319152832031 139.9661102294922 L 318.4324035644531 134.9661102294922 C 322.5022888183594 134.9664001464844 326.4684143066406 135.7956085205078 330.22216796875 137.4307098388672 C 333.3019714355469 138.7722473144531 336.252197265625 140.6631164550781 338.9908447265625 143.0508270263672 C 343.7332458496094 147.1854248046875 346.7181701660156 151.8038482666016 348.0753784179688 154.1888427734375 C 349.2639465332031 156.2771911621094 350.9005737304688 160.8249816894531 351.6007080078125 166.7680816650391 C 351.9898681640625 170.0716857910156 352.0540771484375 173.4536437988281 351.7916259765625 176.8200073242188 C 351.4807739257812 180.8071136474609 350.7083129882812 184.7826080322266 349.4957275390625 188.6361083984375 C 346.8641662597656 196.9991149902344 342.1671142578125 204.8361053466797 335.5350952148438 211.9294586181641 C 331.7813720703125 215.9442749023438 327.3541259765625 219.7666625976562 322.3764038085938 223.2904815673828 C 317.0404052734375 227.0679321289062 310.9334106445312 230.5997161865234 304.2250671386719 233.7877960205078 L 302.6676940917969 234.5278930664062 L 300.9851684570312 234.1507415771484 C 300.509033203125 234.0439758300781 289.1794128417969 231.4601898193359 276.6161193847656 224.81787109375 C 269.1417541503906 220.8661041259766 262.762451171875 216.2818145751953 257.6553955078125 211.1923675537109 C 251.0952453613281 204.6548156738281 246.6245727539062 197.271484375 244.3675842285156 189.2474517822266 C 242.1479797363281 181.3573150634766 241.7742614746094 173.9018707275391 243.2568359375 167.0883941650391 C 244.48828125 161.4289245605469 246.9901123046875 156.2232360839844 250.6927490234375 151.6159515380859 C 253.5939025878906 148.0059814453125 258.7635803222656 142.9021911621094 266.916748046875 139.0881958007812 C 266.9731750488281 139.0617980957031 267.0226745605469 139.0386657714844 267.0647888183594 139.0187377929688 C 268.6965026855469 138.2458801269531 272.5135498046875 137.4124603271484 277.0310668945312 137.4124603271484 C 282.0218505859375 137.4124603271484 289.0674133300781 138.4050140380859 295.9308776855469 142.7644653320312 C 303.6242370605469 137.5884399414062 311.1873168945312 134.9661102294922 318.4319152832031 134.9661102294922 Z" stroke="none" fill="#000"/>
        </g>
        <path id="Path_3754" data-name="Path 3754" d="M300.342,229.022s-34-58.042-6.111-76.551,43.438,3.128,46.662,8.431S357.57,203.564,300.342,229.022Z" transform="translate(-245.629 -112.817)" fill="#ed833b"/>
        <path id="Path_3755" data-name="Path 3755" d="M301.9,228.934s-40.863-9.283-49.233-39.035,16.5-40.749,18.907-41.887,28.541-6.6,37.411,25.436S301.9,228.934,301.9,228.934Z" transform="translate(-247.192 -112.728)" fill="#ffa539"/>
        <path id="Path_3756" data-name="Path 3756" d="M260.52,189.584a2.966,2.966,0,0,1-2.312-1.875c-2.714-7.154-4.481-23.387,8.261-33.614a2.985,2.985,0,0,1,4.176.442,2.927,2.927,0,0,1-.434,4.141c-12.567,10.087-6.7,26.29-6.443,26.975a2.935,2.935,0,0,1-1.742,3.783A2.992,2.992,0,0,1,260.52,189.584Z" transform="translate(-246.935 -112.414)" fill="#fff"/>
        <path id="Path_3757" data-name="Path 3757" d="M296.421,196.4a3.735,3.735,0,0,1,.462-1.307A2.269,2.269,0,0,0,296.421,196.4Z" transform="translate(-244.991 -110.398)" fill="#e20736"/>
        <path id="Path_3758" data-name="Path 3758" d="M388.77,170a3.255,3.255,0,0,0-1-2.022,3.615,3.615,0,0,1,.829,1.886c1.189,10.145.344,33.567-29.143,46.609-30.066,13.3-53.416-6.594-62.113-15.828a3.6,3.6,0,0,1-.746-1.182c1.038,5.46,6.778,29.243,28.348,31.46C345.855,233.069,394.815,221.3,388.77,170Z" transform="translate(-244.983 -111.711)" fill="#ed833b"/>
        <path id="Path_3759" data-name="Path 3759" d="M296.423,196.343a3.414,3.414,0,0,0,.184,1.743c-.135-.713-.194-1.127-.194-1.127A3.7,3.7,0,0,1,296.423,196.343Z" transform="translate(-244.993 -110.338)" fill="#fff"/>
        <path id="Path_3760" data-name="Path 3760" d="M359.465,216.508c29.487-13.042,30.332-36.463,29.143-46.609a3.614,3.614,0,0,0-.829-1.886c-2.556-2.321-9.2.656-13.664,2.095-1.011.326-4.371,1.451-9.148,3.06a22.271,22.271,0,0,1-13.759,22.493c-10.481,4.455-22.294.644-27.706-8.475-14.015,4.745-25.444,8.621-25.444,8.621a1.848,1.848,0,0,0-1.174.641,3.121,3.121,0,0,0-.473,1.924s.059.414.194,1.127a3.6,3.6,0,0,0,.746,1.182C306.049,209.914,329.4,229.806,359.465,216.508Z" transform="translate(-244.992 -111.75)" fill="#fce5c6"/>
        <g id="Path_3761" data-name="Path 3761" transform="translate(-244.988 -111.75)" fill="none" stroke-miterlimit="10">
          <path d="M388.887,170.036a3.249,3.249,0,0,0-1-2.022c-2.555-2.321-9.2.656-13.663,2.095-1.012.326-4.371,1.451-9.148,3.06a22.273,22.273,0,0,1-13.759,22.493c-10.482,4.455-22.3.644-27.707-8.475-14.014,4.745-25.444,8.621-25.444,8.621a1.844,1.844,0,0,0-1.173.641,2.269,2.269,0,0,0-.462,1.307,3.414,3.414,0,0,0,.183,1.743c1.038,5.46,6.777,29.243,28.348,31.46C345.971,233.109,394.932,221.344,388.887,170.036Z" stroke="none"/>
          <path d="M 385.1228637695312 167.1572418212891 C 381.9745178222656 167.1572418212891 377.5077514648438 169.0495452880859 374.2235717773438 170.1082458496094 C 373.2119140625 170.4342956542969 369.8528442382812 171.5592193603516 365.0752563476562 173.1685333251953 C 366.0177612304688 182.3881378173828 360.6646728515625 191.6884918212891 351.3161010742188 195.6619262695312 C 340.8341674804688 200.1165618896484 329.0207824707031 196.3056488037109 323.6089477539062 187.1866912841797 C 309.594970703125 191.9317321777344 298.1653442382812 195.8076782226562 298.1653442382812 195.8076782226562 C 298.1653442382812 195.8076782226562 297.4818115234375 195.8590393066406 296.9921875 196.4482269287109 C 296.7542114257812 196.7333984375 296.5759887695312 197.1579895019531 296.5298461914062 197.7555999755859 C 296.4417724609375 198.3374328613281 296.4962768554688 198.9339752197266 296.7133178710938 199.4990692138672 C 297.751220703125 204.9591522216797 303.4901733398438 228.7421112060547 325.0609741210938 230.9594573974609 C 345.9716491699219 233.1087799072266 394.9315795898438 221.3435516357422 388.8865356445312 170.035888671875 C 388.750244140625 169.1132965087891 388.3895874023438 168.4706268310547 387.8863525390625 168.0135345458984 C 387.2119140625 167.4008026123047 386.2520141601562 167.1572418212891 385.1228637695312 167.1572418212891 M 385.1228637695312 164.1572265625 C 387.1004028320312 164.1572265625 388.7089233398438 164.7076110839844 389.9036865234375 165.7930755615234 C 390.9678344726562 166.7597198486328 391.6242065429688 168.0397491455078 391.8543090820312 169.5974578857422 L 391.8659362792969 169.6848602294922 C 392.9588012695312 178.9608764648438 392.3610534667969 187.5312347412109 390.0892333984375 195.1578369140625 C 388.0305786132812 202.0688171386719 384.5820617675781 208.2776184082031 379.8395385742188 213.6117401123047 C 376.5737915039062 217.2848358154297 372.6707763671875 220.5661773681641 368.2388916015625 223.3646545410156 C 364.2727661132812 225.8689880371094 359.8658447265625 227.9999389648438 355.1405029296875 229.6982574462891 C 347.0673522949219 232.5997924804688 338.1433715820312 234.1977386474609 330.0124816894531 234.1977386474609 C 328.1631469726562 234.1977386474609 326.3940124511719 234.1122741699219 324.7542419433594 233.9437255859375 C 319.2454528808594 233.3774566650391 314.24951171875 231.4775390625 309.9051513671875 228.2967071533203 C 306.3584289550781 225.6998596191406 303.2392272949219 222.2424926757812 300.6342163085938 218.0206146240234 C 296.2389221191406 210.8972930908203 294.4197692871094 203.4029235839844 293.8096923828125 200.2852935791016 C 293.5081787109375 199.3685455322266 293.4180603027344 198.3846588134766 293.548095703125 197.4153747558594 C 293.6538696289062 196.2940979003906 294.0457153320312 195.2988891601562 294.6849060058594 194.5308380126953 L 294.6849060058594 194.5308380126953 C 295.6001281738281 193.4295043945312 296.7326965332031 193.03271484375 297.4278564453125 192.8899688720703 C 299.1040344238281 192.3216094970703 309.8629760742188 188.6736755371094 322.6468505859375 184.3451538085938 L 324.9486083984375 183.5657958984375 L 326.1888427734375 185.6555938720703 C 327.7997131347656 188.3699340820312 330.145263671875 190.6240692138672 332.971923828125 192.1743774414062 C 335.7758483886719 193.7121887207031 338.9820861816406 194.5250396728516 342.2440185546875 194.5250396728516 C 344.9494018554688 194.5250396728516 347.6069030761719 193.9786071777344 350.1427307128906 192.9009399414062 C 354.0910949707031 191.2227325439453 357.3211669921875 188.4342346191406 359.483642578125 184.8369140625 C 360.5189819335938 183.1146087646484 361.2695922851562 181.2646789550781 361.7146606445312 179.3384857177734 C 362.1635131835938 177.3959503173828 362.2900695800781 175.4227294921875 362.0908203125 173.4736328125 L 361.84716796875 171.0902709960938 L 364.1175842285156 170.3254852294922 C 369.2293090820312 168.6036376953125 372.31982421875 167.5698547363281 373.3033447265625 167.2528686523438 C 374.0096130371094 167.0251922607422 374.788330078125 166.751708984375 375.6127014160156 166.4621734619141 C 378.6890258789062 165.3817901611328 382.17578125 164.1572265625 385.1228637695312 164.1572265625 Z" stroke="none" fill="#000"/>
        </g>
      </g>
    </g>
  </g>
</svg>
