<svg xmlns="http://www.w3.org/2000/svg" width="145.739" height="120.436" viewBox="0 0 145.739 120.436">
  <g id="Group_1500" data-name="Group 1500" transform="translate(-236.43 -187.091)">
    <g id="Group_1438" data-name="Group 1438" transform="translate(-5.938 76.285)">
      <path id="Path_3748" data-name="Path 3748" d="M318.135,123.153c-1.212,25.57-24.12,24.508-24.12,24.508S292.588,124.773,318.135,123.153Z" fill="#5cbc2a"/>
      <path id="Path_3749" data-name="Path 3749" d="M320.269,119.655c-1.441,30.372-28.65,29.11-28.65,29.11S289.923,121.579,320.269,119.655Z" fill="none" stroke="#000" stroke-miterlimit="10" stroke-width="3"/>
      <path id="Path_3750" data-name="Path 3750" d="M259.734,122.139c26.152-.385,27.4,22.914,27.4,22.914S263.984,147.947,259.734,122.139Z" fill="#5cbc2a"/>
      <path id="Path_3751" data-name="Path 3751" d="M255.3,119.648c31.266-.289,32.914,27.522,32.914,27.522S260.55,150.471,255.3,119.648Z" fill="none" stroke="#000" stroke-miterlimit="10" stroke-width="3"/>
      <path id="Path_3752" data-name="Path 3752" d="M290.739,148.837s.672-25.076-11.79-34.529" fill="none" stroke="#000" stroke-linecap="round" stroke-miterlimit="10" stroke-width="5"/>
      <g id="Path_3753" data-name="Path 3753" fill="#fff" stroke-miterlimit="10">
        <path d="M 299.847412109375 227.7770538330078 L 299.0061340332031 227.5884399414062 C 298.8939514160156 227.5632934570312 296.2109375 226.9566955566406 292.0696411132812 225.5806427001953 C 288.2665405273438 224.3169708251953 282.4480895996094 222.1312255859375 276.3263854980469 218.8946075439453 C 269.3964233398438 215.2306823730469 263.4937133789062 210.9922027587891 258.7821350097656 206.296875 C 252.8045196533203 200.3398590087891 248.7362670898438 193.6314239501953 246.6903839111328 186.3579254150391 C 244.6748657226562 179.1932373046875 244.3294677734375 172.4510803222656 245.6638031005859 166.3188323974609 C 246.7629699707031 161.2672424316406 248.9983673095703 156.6178131103516 252.3078765869141 152.4997100830078 C 254.9244842529297 149.2437438964844 259.5932312011719 144.6376190185547 266.9756164550781 141.1841583251953 C 267.03271484375 141.1574401855469 267.0827331542969 141.1340637207031 267.1253662109375 141.1139068603516 C 268.2399291992188 140.5859985351562 271.4346618652344 139.7995452880859 275.6615600585938 139.7995452880859 C 280.4061584472656 139.7995452880859 287.2339172363281 140.8048248291016 293.7089538574219 145.3802642822266 C 293.7248840332031 145.3688812255859 293.7408142089844 145.3575286865234 293.7567443847656 145.3462066650391 C 301.1338500976562 140.1167755126953 308.3316650390625 137.4661102294922 315.1527709960938 137.4661102294922 C 318.7196044921875 137.4661102294922 322.1978454589844 138.1933746337891 325.4908142089844 139.6277313232422 C 328.2154235839844 140.8144836425781 330.8326416015625 142.4936065673828 333.2697448730469 144.6184844970703 C 337.540283203125 148.3418273925781 340.2303771972656 152.5045776367188 341.4538269042969 154.6545715332031 C 343.2804565429688 157.8639373779297 347.4150695800781 170.4581146240234 342.6163330078125 185.7081604003906 C 340.2089538574219 193.3586578369141 335.8993225097656 200.5416107177734 329.8071594238281 207.0575103759766 C 322.570556640625 214.7974243164062 312.7526245117188 221.6439819335938 300.6260986328125 227.406982421875 L 299.847412109375 227.7770538330078 Z" stroke="none"/>
        <path d="M 315.1527709960938 139.9661254882812 C 309.4798583984375 139.9657287597656 302.8318786621094 141.9774932861328 295.2049865722656 147.3840026855469 C 294.6900024414062 147.75 294.2040100097656 148.1360015869141 293.7309875488281 148.5309906005859 C 282.8599853515625 139.7280426025391 269.8639831542969 142.5830078125 268.1940002441406 143.3739929199219 C 265.7640075683594 144.5229949951172 240.6430053710938 155.6289978027344 249.0969848632812 185.6809997558594 C 257.5499877929688 215.7330017089844 299.5530090332031 225.1490020751953 299.5530090332031 225.1490020751953 C 353.6079711914062 199.4599914550781 342.3259887695312 161.2409973144531 339.281005859375 155.8909912109375 C 337.1174926757812 152.0890502929688 329.0761413574219 139.9671020507812 315.1527709960938 139.9661254882812 M 315.151123046875 134.9661254882812 L 315.151123046875 139.9661254882812 L 315.1515808105469 134.9661254882812 C 319.0654602050781 134.9663848876953 322.8794860839844 135.7637939453125 326.4892272949219 137.3361511230469 C 329.4485168457031 138.6251831054688 332.2825622558594 140.4414215087891 334.9126281738281 142.7344207763672 C 339.4617309570312 146.7005462646484 342.3248901367188 151.1304779052734 343.6266784667969 153.4180755615234 C 344.8259582519531 155.5252380371094 346.3467712402344 159.8069763183594 347.0178527832031 165.5038146972656 C 347.3908081054688 168.6697540283203 347.452392578125 171.9107055664062 347.2008666992188 175.1366271972656 C 346.9030151367188 178.9570770263672 346.1629028320312 182.7663421630859 345.0010375976562 186.4586029052734 C 342.48046875 194.4687042236328 337.98291015625 201.9736480712891 331.6332702636719 208.7649230957031 C 328.0422058105469 212.6057891845703 323.8075256347656 216.2620544433594 319.0468444824219 219.6322021484375 C 313.9463500976562 223.2428894042969 308.1097717285156 226.618408203125 301.6991577148438 229.6649780273438 L 300.1418151855469 230.4050750732422 L 298.4592895507812 230.0279235839844 C 298.0038757324219 229.9258117675781 287.1681213378906 227.4546508789062 275.1578674316406 221.1047058105469 C 268.00830078125 217.3246765136719 261.9049682617188 212.9383850097656 257.0174255371094 208.0676879882812 C 250.7316589355469 201.8036041259766 246.4474487304688 194.7271270751953 244.2837829589844 187.0348663330078 C 242.1563415527344 179.4722900390625 241.7987365722656 172.3235168457031 243.220947265625 165.7873382568359 C 244.4031982421875 160.3539123535156 246.8048400878906 155.3564147949219 250.359130859375 150.9337005615234 C 253.1416320800781 147.4713439941406 258.0993041992188 142.5764770507812 265.916259765625 138.9197082519531 C 265.9698181152344 138.8946533203125 266.0166931152344 138.8727416992188 266.056640625 138.8538360595703 C 267.6357116699219 138.1059417724609 271.3170776367188 137.2995452880859 275.6615600585938 137.2995452880859 C 280.4231262207031 137.2995452880859 287.1333618164062 138.2410888671875 293.6851196289062 142.3597869873047 C 301.0187683105469 137.4525909423828 308.2337951660156 134.9661254882812 315.151123046875 134.9661254882812 Z" stroke="none" fill="#000"/>
      </g>
      <path id="Path_3754" data-name="Path 3754" d="M299.553,225.149s-32.433-55.362-5.829-73.017,41.433,2.984,44.508,8.042S354.139,200.866,299.553,225.149Z" fill="#ed833b"/>
      <path id="Path_3755" data-name="Path 3755" d="M299.553,225.149s-38.977-8.854-46.96-37.233,15.739-38.868,18.034-39.953,27.223-6.3,35.684,24.262S299.553,225.149,299.553,225.149Z" fill="#ffa539"/>
      <path id="Path_3756" data-name="Path 3756" d="M260.324,187.915a2.829,2.829,0,0,1-2.205-1.788c-2.589-6.824-4.274-22.307,7.88-32.062a2.848,2.848,0,0,1,3.983.422,2.792,2.792,0,0,1-.414,3.95c-11.987,9.621-6.39,25.076-6.146,25.73a2.8,2.8,0,0,1-1.662,3.608A2.854,2.854,0,0,1,260.324,187.915Z" fill="#fff"/>
      <path id="Path_3757" data-name="Path 3757" d="M296.421,196.343a3.563,3.563,0,0,1,.441-1.247A2.164,2.164,0,0,0,296.421,196.343Z" fill="#e20736"/>
      <path id="Path_3758" data-name="Path 3758" d="M384.515,169.9a3.1,3.1,0,0,0-.954-1.929,3.448,3.448,0,0,1,.791,1.8c1.134,9.677.328,32.017-27.8,44.457-28.678,12.684-50.95-6.29-59.246-15.1a3.433,3.433,0,0,1-.712-1.127c.99,5.208,6.465,27.893,27.039,30.008C343.581,230.064,390.281,218.842,384.515,169.9Z" fill="#ed833b"/>
      <path id="Path_3759" data-name="Path 3759" d="M296.421,196.343a3.257,3.257,0,0,0,.175,1.663c-.129-.68-.185-1.075-.185-1.075A3.532,3.532,0,0,1,296.421,196.343Z" fill="#fff"/>
      <path id="Path_3760" data-name="Path 3760" d="M356.554,214.23c28.126-12.44,28.932-34.78,27.8-44.457a3.448,3.448,0,0,0-.791-1.8c-2.438-2.214-8.777.626-13.033,2-.964.311-4.169,1.384-8.726,2.919a21.243,21.243,0,0,1-13.124,21.455c-10,4.249-21.265.614-26.427-8.084-13.368,4.526-24.269,8.223-24.269,8.223a1.762,1.762,0,0,0-1.12.611,2.977,2.977,0,0,0-.451,1.835s.056.4.185,1.075a3.433,3.433,0,0,0,.712,1.127C305.6,207.94,327.876,226.914,356.554,214.23Z" fill="#fce5c6"/>
      <g id="Path_3761" data-name="Path 3761" fill="none" stroke-miterlimit="10">
        <path d="M384.621,169.9a3.1,3.1,0,0,0-.954-1.929c-2.437-2.214-8.776.626-13.032,2-.965.311-4.169,1.384-8.726,2.919a21.245,21.245,0,0,1-13.124,21.455c-10,4.249-21.266.614-26.428-8.084-13.367,4.526-24.269,8.223-24.269,8.223a1.759,1.759,0,0,0-1.119.611,2.164,2.164,0,0,0-.441,1.247,3.256,3.256,0,0,0,.175,1.663c.99,5.208,6.464,27.893,27.039,30.008C343.687,230.064,390.387,218.842,384.621,169.9Z" stroke="none"/>
        <path d="M 381.0310668945312 167.1572418212891 C 378.028076171875 167.1572418212891 373.7675170898438 168.9621887207031 370.635009765625 169.9720001220703 C 369.6700134277344 170.2830047607422 366.4660034179688 171.3560028076172 361.9089965820312 172.8910064697266 C 362.8080139160156 181.6849822998047 357.7019958496094 190.5559997558594 348.7850036621094 194.3459930419922 C 338.786865234375 198.594970703125 327.5190124511719 194.9599914550781 322.3569946289062 186.2619934082031 C 308.989990234375 190.7879943847656 298.0880126953125 194.4850006103516 298.0880126953125 194.4850006103516 C 298.0880126953125 194.4850006103516 297.4360046386719 194.5339813232422 296.968994140625 195.0959930419922 C 296.7420043945312 195.3679809570312 296.5719909667969 195.7729797363281 296.5280151367188 196.3430023193359 C 296.4440002441406 196.8979797363281 296.4960021972656 197.4669799804688 296.7030029296875 198.0059814453125 C 297.6929931640625 203.2140045166016 303.1669921875 225.8990020751953 323.7420043945312 228.0140075683594 C 343.6866760253906 230.0639801025391 390.386962890625 218.8419952392578 384.6210021972656 169.9029998779297 C 384.4909973144531 169.0229797363281 384.1470031738281 168.4100036621094 383.6669921875 167.9740142822266 C 383.023681640625 167.3895568847656 382.1080932617188 167.1572418212891 381.0310668945312 167.1572418212891 M 381.0310668945312 164.1572418212891 C 382.952880859375 164.1572418212891 384.5184631347656 164.6943206787109 385.684326171875 165.7535705566406 C 386.7236633300781 166.6976318359375 387.364501953125 167.9462738037109 387.5888061523438 169.4645843505859 L 387.6004028320312 169.5519714355469 C 388.6450500488281 178.4185638427734 388.0732727050781 186.6120147705078 385.9009094238281 193.9046936035156 C 383.9314880371094 200.5161895751953 380.6323547363281 206.4560089111328 376.0951843261719 211.5591278076172 C 372.9715881347656 215.0723724365234 369.23876953125 218.210693359375 365.0005187988281 220.8869018554688 C 361.208984375 223.2810211181641 356.9963684082031 225.3180236816406 352.4797058105469 226.9413452148438 C 344.7645874023438 229.7142028808594 336.2359619140625 231.2412872314453 328.46484375 231.2412872314453 C 326.6961975097656 231.2412872314453 325.0039978027344 231.1595306396484 323.4352416992188 230.998291015625 C 318.156005859375 230.4556121826172 313.367919921875 228.6346282958984 309.2040100097656 225.5859069824219 C 305.8065185546875 223.0983428955078 302.8191833496094 219.7874450683594 300.3250122070312 215.7452087402344 C 296.1250610351562 208.9384307861328 294.3843688964844 201.7780303955078 293.7991638183594 198.7910003662109 C 293.5074768066406 197.8998870849609 293.4203796386719 196.9442596435547 293.5462951660156 196.0027770996094 C 293.6502685546875 194.9053955078125 294.0354919433594 193.9300079345703 294.6637573242188 193.1761322021484 C 295.5574951171875 192.1021118164062 296.6626586914062 191.7108154296875 297.3469848632812 191.5685119628906 C 298.9686279296875 191.0186309814453 309.2189331054688 187.5431671142578 321.3948669433594 183.4204406738281 L 323.6966247558594 182.6410827636719 L 324.9368896484375 184.7309112548828 C 326.4607543945312 187.2986450195312 328.6798706054688 189.4311828613281 331.3543090820312 190.8980102539062 C 334.0083923339844 192.3536682128906 337.0436096191406 193.1230926513672 340.1317443847656 193.1230926513672 C 342.6934814453125 193.1230926513672 345.2100830078125 192.6055908203125 347.6116027832031 191.5849914550781 C 351.3506469726562 189.9957733154297 354.4093017578125 187.3554077148438 356.4568176269531 183.9493713378906 C 357.4368591308594 182.3190460205078 358.1473693847656 180.5680236816406 358.568603515625 178.7449493408203 C 358.9932861328125 176.9069519042969 359.1130676269531 175.0400543212891 358.924560546875 173.1961059570312 L 358.680908203125 170.812744140625 L 360.9513244628906 170.0479736328125 C 365.8285217285156 168.4051055908203 368.7769775390625 167.4188690185547 369.7147827148438 167.1166229248047 C 370.3867492675781 166.9000091552734 371.128662109375 166.6394500732422 371.9141540527344 166.3635864257812 C 374.8588562011719 165.3294067382812 378.1964416503906 164.1572418212891 381.0310668945312 164.1572418212891 Z" stroke="none" fill="#000"/>
      </g>
    </g>
  </g>
</svg>
