<svg xmlns="http://www.w3.org/2000/svg" width="196" height="196" viewBox="0 0 196 196">
  <g id="Group_1957" data-name="Group 1957" transform="translate(-781 -166)">
    <g id="Group_1865" data-name="Group 1865" transform="translate(12579 3499)">
      <g id="Group_1860" data-name="Group 1860" transform="translate(137 -455)">
        <g id="Group_1856" data-name="Group 1856" transform="translate(-11968 -2947)">
          <rect id="Rectangle_1253" data-name="Rectangle 1253" width="196" height="196" rx="5" transform="translate(33 69)" fill="#fff"/>
        </g>
      </g>
    </g>
    <g id="Group_1895" data-name="Group 1895" transform="translate(394.105 22.829)">
      <g id="Group_1439" data-name="Group 1439" transform="translate(-13 71.586)">
        <g id="Path_2241" data-name="Path 2241" transform="translate(0 0)" fill="none" stroke-miterlimit="10">
          <path d="M534.087,170.724c0,33.08-20.48,51.554-46.3,51.554s-46.752-17.254-46.752-50.328,23.785-69.441,46.752-69.441C513.607,102.509,534.087,137.651,534.087,170.724Z" stroke="none"/>
          <path d="M 487.7845764160156 222.2774810791016 C 513.6065063476562 222.2774810791016 534.0869140625 203.8038635253906 534.0869140625 170.7237548828125 C 534.0869140625 137.6510009765625 513.6065063476562 102.5092315673828 487.7845764160156 102.5079803466797 C 464.8176574707031 102.5079803466797 441.032958984375 138.8753204345703 441.032958984375 171.9493103027344 C 441.032958984375 205.0233154296875 461.9625244140625 222.2774810791016 487.7845764160156 222.2774810791016 M 487.7845764160156 227.2774810791016 C 480.68408203125 227.2774810791016 473.96142578125 226.0860137939453 467.8033752441406 223.7361755371094 C 461.4527282714844 221.3128662109375 455.8640441894531 217.7189483642578 451.1925354003906 213.0542602539062 C 441.2750854492188 203.1512603759766 436.032958984375 188.9373931884766 436.032958984375 171.9493103027344 C 436.032958984375 167.6287231445312 436.4149169921875 163.1526489257812 437.168212890625 158.6454315185547 C 437.8916015625 154.3171691894531 438.9613342285156 149.9338073730469 440.34765625 145.6171417236328 C 443.0362243652344 137.2456817626953 446.9396057128906 129.0971527099609 451.6358947753906 122.0524826049805 C 453.9972839355469 118.5102310180664 456.5532836914062 115.2489547729492 459.2328796386719 112.3592300415039 C 462.0017700195312 109.3732604980469 464.9081115722656 106.7787551879883 467.8712158203125 104.6478424072266 C 471.007568359375 102.3923416137695 474.2267456054688 100.6430892944336 477.4392395019531 99.44867706298828 C 480.90283203125 98.16092681884766 484.3834838867188 97.50798034667969 487.7845764160156 97.50798034667969 C 491.4820251464844 97.50814819335938 495.1847839355469 98.12681579589844 498.7903442382812 99.34675598144531 C 502.1930847167969 100.4980621337891 505.5416564941406 102.1963424682617 508.7430725097656 104.3944244384766 C 511.7711486816406 106.4735107421875 514.6973266601562 109.0200119018555 517.4402465820312 111.9631500244141 C 520.0709838867188 114.7859497070312 522.5534057617188 117.9947891235352 524.818603515625 121.5005340576172 C 527.0282592773438 124.9203414916992 529.0421752929688 128.6392059326172 530.8043823242188 132.5537872314453 C 532.5529174804688 136.4379577636719 534.0595703125 140.5276184082031 535.2824096679688 144.7092590332031 C 536.5155029296875 148.9260711669922 537.46435546875 153.2515106201172 538.1026611328125 157.5653991699219 C 538.7557373046875 161.9799499511719 539.0869140625 166.4070892333984 539.0869140625 170.7237548828125 C 539.0869140625 179.3445587158203 537.7730712890625 187.3254852294922 535.1818237304688 194.4447937011719 C 532.6683349609375 201.3505859375 528.986083984375 207.3769226074219 524.2373046875 212.3563690185547 C 519.6080932617188 217.2105407714844 514.074462890625 220.9625854492188 507.7902526855469 223.5083160400391 C 501.6162414550781 226.0093383789062 494.8853759765625 227.2774810791016 487.7845764160156 227.2774810791016 Z" stroke="none" fill="#000"/>
        </g>
        <path id="Path_2242" data-name="Path 2242" d="M534.6,172.2c0,31.446-19.47,49.016-44.02,49.016s-44.452-16.4-44.452-47.85,22.613-66.021,44.452-66.021C515.128,107.339,534.6,140.751,534.6,172.2Z" transform="translate(1.124 1.066)" fill="#0d6024"/>
        <g id="Group_862" data-name="Group 862" transform="translate(492.615 154.588)">
          <path id="Path_2243" data-name="Path 2243" d="M495.384,217.508s27.857,20.445,52.464-1.169c24.96-21.924,21.319-54.625,21.319-54.625s-1.5-10.542-6-12.016S487.5,186.23,487.5,186.23,475.648,200.6,495.384,217.508Z" transform="translate(-483.14 -144.184)" fill="#175b11"/>
          <path id="Path_2244" data-name="Path 2244" d="M535.021,204.82s19.151-15.755,26.557-33.412,1.532-30.68-20.938-24.806-69.578,29.109-54.389,57.07C494.549,218.95,512.083,224.142,535.021,204.82Z" transform="translate(-483.291 -145.173)" fill="#e4ff83"/>
          <ellipse id="Ellipse_171" data-name="Ellipse 171" cx="19.388" cy="15.231" rx="19.388" ry="15.231" transform="matrix(0.822, -0.57, 0.57, 0.822, 4.19, 40.474)" fill="#e2a54d" stroke="#965d0b" stroke-miterlimit="10" stroke-width="3"/>
          <path id="Path_2245" data-name="Path 2245" d="M499.425,180.387s3.848-9.776,14.454-7.383" transform="translate(-479.73 -139.115)" fill="none" stroke="#fff" stroke-linecap="round" stroke-miterlimit="10" stroke-width="3"/>
        </g>
        <g id="Path_3762" data-name="Path 3762" transform="translate(9.325 9.415)" fill="none" stroke-miterlimit="10">
          <path d="M569.317,162.7s-1.5-10.542-6-12.016a1.711,1.711,0,0,0-.7-.012c-3.205-5.09-10.374-7.109-21.987-4.075-21.083,5.511-63.855,26.308-56.508,51.95.121,5.466,2.659,12.456,11.4,19.947,0,0,27.857,20.445,52.464-1.169C572.959,195.4,569.317,162.7,569.317,162.7Z" stroke="none"/>
          <path d="M 550.4472045898438 145.1730194091797 C 547.623291015625 145.1730194091797 544.359130859375 145.6265106201172 540.6388549804688 146.5987091064453 C 519.5555419921875 152.1100463867188 476.7833251953125 172.9065704345703 484.1304931640625 198.5491333007812 C 484.2514038085938 204.0152893066406 486.7891845703125 211.0048065185547 495.5339965820312 218.4960479736328 C 495.5339965820312 218.4960479736328 523.3909301757812 238.9409484863281 547.9983520507812 217.32666015625 C 572.9586181640625 195.4010467529297 569.3173217773438 162.7017669677734 569.3173217773438 162.7017669677734 C 569.3173217773438 162.7017669677734 567.8170166015625 152.1600952148438 563.3213500976562 150.6855163574219 C 563.1676025390625 150.6342468261719 562.9296875 150.6342620849609 562.6255493164062 150.6733093261719 C 560.4470825195312 147.2138977050781 556.437744140625 145.1730194091797 550.4472045898438 145.1730194091797 M 550.4472045898438 142.1730194091797 C 553.8078002929688 142.1730194091797 556.763671875 142.7562408447266 559.2327880859375 143.906494140625 C 561.2703857421875 144.855712890625 562.9674072265625 146.1779022216797 564.294677734375 147.8476409912109 C 565.9732666015625 148.4096984863281 567.4466552734375 149.6573791503906 568.67431640625 151.5565795898438 C 569.4954833984375 152.8270263671875 570.228271484375 154.4231414794922 570.8521728515625 156.3005523681641 C 571.8626708984375 159.3414764404297 572.2705078125 162.1605529785156 572.287353515625 162.2790679931641 L 572.2988891601562 162.3697509765625 C 572.338134765625 162.7226104736328 573.2349853515625 171.1407318115234 570.958251953125 182.3873596191406 C 569.6204223632812 188.9960479736328 567.4564208984375 195.2299499511719 564.5263061523438 200.9158935546875 C 560.849365234375 208.0510101318359 555.9547119140625 214.3307189941406 549.978271484375 219.5805511474609 C 545.70361328125 223.3352813720703 541.041259765625 226.1382293701172 536.1207275390625 227.91162109375 C 531.8230590820312 229.4605407714844 527.2708740234375 230.2458953857422 522.5906982421875 230.2458953857422 C 518.8910522460938 230.2458953857422 515.0732421875 229.7551574707031 511.2433471679688 228.7872924804688 C 508.2027587890625 228.0188903808594 505.1461181640625 226.9491729736328 502.1583251953125 225.6078186035156 C 497.0546264648438 223.3165130615234 493.8911743164062 221.0116119384766 493.759033203125 220.9146270751953 L 493.6680297851562 220.8478393554688 L 493.582275390625 220.7743682861328 C 489.2575073242188 217.0695953369141 486.0113525390625 213.1559295654297 483.9340209960938 209.1421356201172 C 482.2178344726562 205.8262786865234 481.27978515625 202.4179992675781 481.143310546875 199.0048980712891 C 479.3677368164062 192.4406585693359 480.3599853515625 185.7925415039062 484.094970703125 179.2393188476562 C 486.5610961914062 174.9124145507812 490.2447509765625 170.6239776611328 495.0435180664062 166.4931335449219 C 499.2020263671875 162.9133911132812 504.18896484375 159.4529266357422 509.8656616210938 156.2078399658203 C 519.2823486328125 150.8248138427734 530.502685546875 146.1475677490234 539.880126953125 143.6962280273438 C 543.7479248046875 142.6854705810547 547.3031616210938 142.1730194091797 550.4472045898438 142.1730194091797 Z" stroke="none" fill="#000"/>
        </g>
      </g>
    </g>
  </g>
</svg>
