<svg xmlns="http://www.w3.org/2000/svg" width="148.28" height="133.119" viewBox="0 0 148.28 133.119">
  <g id="Group_1502" data-name="Group 1502" transform="translate(-607.212 -175.29)">
    <g id="Group_1120" data-name="Group 1120" transform="translate(-13.833 77.782)">
      <g id="Group_1118" data-name="Group 1118" transform="translate(626.045 102.508)">
        <g id="Group_1117" data-name="Group 1117">
          <path id="Path_3091" data-name="Path 3091" d="M635.282,186.029c-4.088-3.527-6.259-11.449-2.284-15.622,8.979-9.426,36.324,8.333,61.79-6.7,24.024-14.184,29.644-43.756,36.021-45.175,18.16-4.043,21.156,48.14-17.836,70C679.164,207.479,647.557,196.618,635.282,186.029Z" transform="translate(-625.678 -101.312)" fill="#ffe854"/>
          <path id="Path_3092" data-name="Path 3092" d="M692.63,176.61a42.187,42.187,0,0,0,14.732-8.551" transform="translate(-621.003 -97.544)" fill="none" stroke="#eaaf47" stroke-linecap="round" stroke-miterlimit="10" stroke-width="3"/>
          <path id="Path_3093" data-name="Path 3093" d="M631.543,167.254s11.451,10.683,36.882,12.413a87.872,87.872,0,0,0,17.9-.454" transform="translate(-625.629 -97.605)" fill="none" stroke="#eaaf47" stroke-linecap="round" stroke-miterlimit="10" stroke-width="3"/>
          <path id="Path_3094" data-name="Path 3094" d="M723,121.981l1.721-17.044c.3-1.568,1.636-2.669,2.894-2.384l7.407,1.679c1.27.288,1.909,1.866,1.373,3.4l-5.323,15.2Z" transform="translate(-618.703 -102.508)" fill="#ffe854"/>
          <line id="Line_367" data-name="Line 367" x2="5.118" y2="1.117" transform="translate(109.136 3.202)" fill="none" stroke="#eaaf47" stroke-linecap="round" stroke-miterlimit="10" stroke-width="3"/>
          <circle id="Ellipse_531" data-name="Ellipse 531" cx="3.979" cy="3.979" r="3.979" transform="translate(0 63.956)" fill="#704716"/>
        </g>
        <g id="Path_3095" data-name="Path 3095" transform="translate(-626.045 -102.508)" fill="none" stroke-miterlimit="10">
          <path d="M743.736,107.628c.537-1.53-.1-3.108-1.373-3.4l-7.407-1.679c-1.258-.285-2.595.815-2.894,2.384l-1.25,12.378c-.3.029-.609.071-.919.131-6.606,1.275-11.577,31.676-36.2,45.618-24.505,13.874-51.6-2.182-62.337,3.645a3.959,3.959,0,0,0-3.892,6.758,14.925,14.925,0,0,0,4.858,10.886c13.115,11.317,46.4,23.493,81.077,4.916,32.265-17.283,35.447-55.777,25.6-68.11Z" stroke="none"/>
          <path d="M 734.5518798828125 102.5081176757812 C 733.4246215820312 102.5081024169922 732.3290405273438 103.5357971191406 732.0618286132812 104.9369659423828 L 730.8118286132812 117.3153228759766 C 730.5095825195312 117.3443603515625 730.2029418945312 117.3863372802734 729.8931884765625 117.4465484619141 C 723.2871704101562 118.7212677001953 718.3162231445312 149.1222686767578 693.6929931640625 163.0647430419922 C 685.8302612304688 167.5162506103516 677.6962890625 168.8870239257812 669.92578125 168.8870239257812 C 653.478759765625 168.8870239257812 638.6454467773438 162.7525634765625 631.3558349609375 166.7093048095703 C 630.9374389648438 166.5608367919922 630.4931030273438 166.4640197753906 630.0241088867188 166.4640197753906 C 627.826416015625 166.4640197753906 626.0450439453125 168.2454071044922 626.0450439453125 170.443115234375 C 626.0450439453125 171.6608276367188 626.6033935546875 172.7365570068359 627.4639282226562 173.4669647216797 C 627.3746337890625 177.4105834960938 629.4324340820312 181.8608245849609 632.3218994140625 184.353271484375 C 645.4370727539062 195.6698760986328 678.7177734375 207.8460235595703 713.3990478515625 189.2693481445312 C 745.6643676757812 171.9867706298828 748.8463745117188 133.4920501708984 738.9959106445312 121.1588897705078 L 743.735595703125 107.62841796875 C 744.2723388671875 106.0987396240234 743.6334228515625 104.5206604003906 742.3629150390625 104.2323913574219 L 734.9555053710938 102.5531616210938 C 734.8214111328125 102.5227661132812 734.6864013671875 102.5081329345703 734.5518798828125 102.5081176757812 M 734.5518188476562 97.50813293457031 C 735.0591430664062 97.50813293457031 735.5667724609375 97.56488037109375 736.0606689453125 97.67683410644531 L 743.4683227539062 99.35610961914062 C 745.3687744140625 99.78730773925781 747.0117797851562 101.0356597900391 747.9769897460938 102.7812957763672 C 749.0493774414062 104.7207183837891 749.22314453125 107.0908355712891 748.4535522460938 109.2839202880859 L 744.5479736328125 120.433349609375 C 746.4713745117188 123.6833190917969 747.8120727539062 127.7779541015625 748.4669189453125 132.4504089355469 C 749.2715454101562 138.1915588378906 749.007080078125 144.5850219726562 747.7020263671875 150.9396362304688 C 746.8767700195312 154.9581298828125 745.6455078125 158.9271697998047 744.04248046875 162.7364349365234 C 742.3258666992188 166.8154907226562 740.1821899414062 170.7089996337891 737.6710815429688 174.308837890625 C 732.0313110351562 182.3936614990234 724.6593017578125 188.9100341796875 715.7598876953125 193.6768798828125 C 709.205078125 197.1879119873047 702.3567504882812 199.8291625976562 695.405029296875 201.5272521972656 C 689.064453125 203.0760803222656 682.558349609375 203.8613891601562 676.0674438476562 203.8613891601562 C 671.1265869140625 203.8613891601562 666.1542358398438 203.4059753417969 661.288330078125 202.5078125 C 656.8364868164062 201.6860504150391 652.45751953125 200.4921112060547 648.2731323242188 198.9591979980469 C 640.7898559570312 196.2177124023438 633.9649047851562 192.375 629.0554809570312 188.1388244628906 C 627.0767822265625 186.4320068359375 625.4037475585938 184.1394958496094 624.2178955078125 181.5096588134766 C 623.3152465820312 179.5080261230469 622.7486572265625 177.4256134033203 622.5455932617188 175.3904266357422 C 621.5758666992188 173.9351196289062 621.0450439453125 172.2202301025391 621.0450439453125 170.443115234375 C 621.0450439453125 165.4920196533203 625.0730590820312 161.4640197753906 630.0241088867188 161.4640197753906 C 630.274658203125 161.4640197753906 630.5262451171875 161.4753875732422 630.7781982421875 161.4980010986328 C 632.8081665039062 160.7472381591797 635.1736450195312 160.3797760009766 637.9483032226562 160.3797760009766 C 641.9302368164062 160.3797760009766 646.4971923828125 161.1245880126953 651.332275390625 161.9131317138672 C 657.0054931640625 162.8383636474609 663.4356689453125 163.8870239257812 669.92578125 163.8870239257812 C 673.818359375 163.8870239257812 677.33447265625 163.5208892822266 680.6749877929688 162.7676696777344 C 684.470458984375 161.911865234375 687.9228515625 160.5858001708984 691.2296142578125 158.7136688232422 C 697.4706420898438 155.1798248291016 702.8828735351562 150.1759490966797 707.7752685546875 143.4162445068359 C 712.0658569335938 137.4881591796875 715.211669921875 131.2088317871094 717.7393798828125 126.1632690429688 C 719.3261108398438 122.9961090087891 720.6964111328125 120.2608642578125 722.07861328125 118.1139678955078 C 723.0748901367188 116.5664672851562 724.3712768554688 114.8239135742188 726.1541748046875 113.67333984375 L 727.1091918945312 104.2161102294922 L 727.1503295898438 104.0003814697266 C 727.4703979492188 102.3220520019531 728.3098754882812 100.7583923339844 729.51416015625 99.59744262695312 C 730.9117431640625 98.25013732910156 732.7008056640625 97.50813293457031 734.5518188476562 97.50813293457031 Z" stroke="none" fill="#000"/>
        </g>
      </g>
      <path id="Path_3096" data-name="Path 3096" d="M744.62,109.615c-.082-1.619-1.268-2.839-2.555-2.626l-7.492,1.244c-1.273.211-2.093,1.735-1.779,3.3l3.519,11.933c-.269.141-.537.3-.8.469-5.634,3.676,1.247,33.7-16.286,55.912-17.448,22.1-48.6,17.473-56.341,26.922a3.959,3.959,0,0,0-1.051,7.727,14.925,14.925,0,0,0,8.609,8.245c16.419,5.524,51.833,4.227,76.928-26.074,23.347-28.189,11.752-65.035-2.027-72.733Z" transform="translate(2.502 0.337)" fill="#fff"/>
      <g id="Group_1119" data-name="Group 1119" transform="translate(661.583 107.302)">
        <path id="Path_3097" data-name="Path 3097" d="M676,223.669c-4.944-1.663-9.717-8.139-7.608-13.55,4.765-12.221,35.767-6.489,53.433-30.339,16.667-22.5,11.248-52.037,16.5-55.84,14.97-10.834,36.2,36.238,8.733,71.681C723.248,226.352,690.845,228.663,676,223.669Z" transform="translate(-658.415 -105.799)" fill="#ffe854"/>
        <path id="Path_3098" data-name="Path 3098" d="M724.915,190.2a42.184,42.184,0,0,0,10.411-13.483" transform="translate(-654.096 -101.683)" fill="none" stroke="#eaaf47" stroke-linecap="round" stroke-miterlimit="10" stroke-width="3"/>
        <path id="Path_3099" data-name="Path 3099" d="M665.048,204.9s14.638,5.566,38.839-2.439a87.951,87.951,0,0,0,16.4-7.182" transform="translate(-658.63 -100.277)" fill="none" stroke="#eaaf47" stroke-linecap="round" stroke-miterlimit="10" stroke-width="3"/>
        <path id="Path_3100" data-name="Path 3100" d="M732.455,127.964l-4.845-16.432c-.314-1.565.507-3.089,1.779-3.3l7.492-1.244c1.287-.213,2.473,1.007,2.555,2.626l.811,16.081Z" transform="translate(-653.897 -106.965)" fill="#ffe854"/>
        <line id="Line_368" data-name="Line 368" y1="0.899" x2="5.161" transform="translate(76.893 3.207)" fill="none" stroke="#eaaf47" stroke-linecap="round" stroke-miterlimit="10" stroke-width="3"/>
        <circle id="Ellipse_532" data-name="Ellipse 532" cx="3.979" cy="3.979" r="3.979" transform="translate(0 99.786)" fill="#704716"/>
      </g>
      <g id="Path_3101" data-name="Path 3101" transform="translate(2.579 0.337)" fill="none" stroke-miterlimit="10">
        <path d="M745.642,109.615c-.082-1.619-1.269-2.839-2.555-2.626l-7.493,1.244c-1.272.211-2.093,1.735-1.778,3.3l3.518,11.933c-.269.141-.536.3-.8.469-5.635,3.676,1.246,33.7-16.286,55.912-17.449,22.1-48.6,17.473-56.342,26.922a3.959,3.959,0,0,0-1.051,7.727,14.927,14.927,0,0,0,8.61,8.245c16.419,5.524,51.833,4.227,76.928-26.074,23.346-28.189,11.751-65.035-2.028-72.733Z" stroke="none"/>
        <path d="M 743.3801879882812 106.9645080566406 C 743.2835083007812 106.9645080566406 743.1859130859375 106.972412109375 743.0875854492188 106.9886932373047 L 735.5941772460938 108.2322235107422 C 734.3226318359375 108.4430847167969 733.5007934570312 109.9673614501953 733.8159790039062 111.5325622558594 L 737.3335571289062 123.4655303955078 C 737.0646362304688 123.6064453125 736.7978515625 123.7613983154297 736.5332641601562 123.9345550537109 C 730.8985595703125 127.6103057861328 737.7789306640625 157.6370086669922 720.246826171875 179.8463592529297 C 702.7974853515625 201.9492340087891 671.6424560546875 197.3193054199219 663.9047241210938 206.7684478759766 C 663.4614868164062 206.7888946533203 663.0140991210938 206.8674468994141 662.578369140625 207.044921875 C 660.544189453125 207.8753662109375 659.5673828125 210.19677734375 660.3978881835938 212.2320556640625 C 660.8572387695312 213.3594207763672 661.78125 214.1446990966797 662.853759765625 214.495361328125 C 664.2608642578125 218.1808166503906 667.8472900390625 221.5241394042969 671.4638671875 222.7407836914062 C 687.882568359375 228.2646026611328 723.2965087890625 226.9673156738281 748.3920288085938 196.6663360595703 C 771.7384033203125 168.4770355224609 760.1432495117188 131.6313629150391 746.3642578125 123.9334716796875 L 745.6424560546875 109.6145324707031 C 745.56689453125 108.1193695068359 744.5481567382812 106.9646148681641 743.3801879882812 106.9645080566406 M 743.3801879882812 101.9645080566406 L 743.3806762695312 101.9645080566406 C 747.2395629882812 101.9648590087891 750.4265747070312 105.2143707275391 750.6361083984375 109.3622894287109 L 751.2310180664062 121.1645355224609 C 754.2395629882812 123.4470672607422 757.02734375 126.7316589355469 759.3986206054688 130.8105621337891 C 762.312255859375 135.8223724365234 764.4824829101562 141.8420257568359 765.674560546875 148.2188110351562 C 766.4284057617188 152.2513427734375 766.7876586914062 156.3914184570312 766.7423095703125 160.5240631103516 C 766.6937866210938 164.9493408203125 766.1797485351562 169.3641510009766 765.2144775390625 173.6458435058594 C 763.0465698242188 183.2621459960938 758.6822509765625 192.0803680419922 752.2428588867188 199.8555908203125 C 747.6609497070312 205.3878326416016 742.5153198242188 210.2756958007812 736.9488525390625 214.3833923339844 C 731.853271484375 218.1436157226562 726.3358154296875 221.3028411865234 720.5498046875 223.7732543945312 C 710.5653076171875 228.0362854003906 699.6484985351562 230.2895812988281 688.9796142578125 230.2895812988281 C 681.94140625 230.2895812988281 675.333251953125 229.3179779052734 669.8695068359375 227.4797821044922 C 667.3922729492188 226.6464233398438 664.9774780273438 225.1556091308594 662.8861694335938 223.1685638427734 C 661.2945556640625 221.6562347412109 659.983642578125 219.9425964355469 659.02685546875 218.1350402832031 C 657.5782470703125 217.1536560058594 656.4384155273438 215.7654113769531 655.7674560546875 214.1186828613281 C 653.8982543945312 209.537841796875 656.1054077148438 204.2868957519531 660.6885375976562 202.4158172607422 C 660.9196166992188 202.3216857910156 661.1553955078125 202.2376556396484 661.3954467773438 202.1637420654297 C 663.304443359375 200.4085388183594 665.8551635742188 198.9972229003906 669.2637329101562 197.7935638427734 C 672.59423828125 196.6174774169922 676.4774780273438 195.7258605957031 680.5887451171875 194.7818908691406 C 686.5582885742188 193.4112548828125 693.3243408203125 191.8577575683594 699.6719970703125 189.1151733398438 C 706.7053833007812 186.0763092041016 712.1517944335938 182.0310363769531 716.3223876953125 176.7481689453125 C 720.7661743164062 171.118896484375 723.88720703125 164.4415283203125 725.8638305664062 156.3347015380859 C 727.5972290039062 149.2251739501953 728.1381225585938 142.2227325439453 728.5726928710938 136.5961761474609 C 728.845458984375 133.0643920898438 729.0810546875 130.0142211914062 729.5498657226562 127.5043640136719 C 729.8877563476562 125.6954040527344 730.4298706054688 123.5924072265625 731.645751953125 121.8537445068359 L 728.9578247070312 112.7352905273438 L 728.9143676757812 112.5196380615234 C 728.4738159179688 110.3319702148438 728.9229125976562 108.06005859375 730.1464233398438 106.2864532470703 C 731.2610473632812 104.6705932617188 732.9052734375 103.6098327636719 734.7761840820312 103.2995910644531 L 742.26904296875 102.0561370849609 C 742.6369018554688 101.9952545166016 743.0101928710938 101.9645080566406 743.3801879882812 101.9645080566406 Z" stroke="none" fill="#000"/>
      </g>
    </g>
  </g>
</svg>
