<svg xmlns="http://www.w3.org/2000/svg" width="196" height="196" viewBox="0 0 196 196">
  <g id="Group_1866" data-name="Group 1866" transform="translate(11798 3333)">
    <g id="Group_1865" data-name="Group 1865">
      <g id="Group_1860" data-name="Group 1860" transform="translate(137 -455)">
        <g id="Group_1856" data-name="Group 1856" transform="translate(-11968 -2947)">
          <rect id="Rectangle_1253" data-name="Rectangle 1253" width="196" height="196" rx="5" transform="translate(33 69)" fill="#fbf8f3"/>
          <g id="Group_1854" data-name="Group 1854" transform="translate(11296 2889.58)">
            <path id="Path_4046" data-name="Path 4046" d="M1043.567,102.13s1.355-11.95-5.913-16.263" transform="translate(-12214.688 -2882.14)" fill="none" stroke="#000" stroke-linecap="round" stroke-linejoin="round" stroke-width="5"/>
            <g id="Group_1853" data-name="Group 1853" transform="translate(-11228 -2777.038)">
              <ellipse id="Ellipse_870" data-name="Ellipse 870" cx="2.564" cy="2.564" rx="2.564" ry="2.564" transform="translate(35.586 57.456)" fill="#fff"/>
              <ellipse id="Ellipse_871" data-name="Ellipse 871" cx="2.564" cy="2.564" rx="2.564" ry="2.564" transform="translate(34.355 74.978)" fill="#fff"/>
              <ellipse id="Ellipse_872" data-name="Ellipse 872" cx="2.564" cy="2.564" rx="2.564" ry="2.564" transform="translate(50.862 73.776)" fill="#fff"/>
              <ellipse id="Ellipse_873" data-name="Ellipse 873" cx="2.564" cy="2.564" rx="2.564" ry="2.564" transform="translate(45.196 89.546)" fill="#fff"/>
              <g id="Ellipse_874" data-name="Ellipse 874" fill="none" stroke="#000" stroke-miterlimit="10" stroke-width="5">
                <ellipse cx="55.328" cy="57.177" rx="55.328" ry="57.177" stroke="none"/>
                <ellipse cx="55.328" cy="57.177" rx="57.828" ry="59.677" fill="none"/>
              </g>
              <ellipse id="Ellipse_875" data-name="Ellipse 875" cx="52.608" cy="57.039" rx="52.608" ry="57.039" transform="translate(5.441 0.277)" fill="#89d65c"/>
              <g id="Group_1852" data-name="Group 1852" transform="translate(58.561 41.673)">
                <path id="Path_2821" data-name="Path 2821" d="M1130.026,203.743c5.015-12.312-6.7-31.007-27.323-42.847-20.826-11.959-43.122-12.551-51.023-1.679l0,0-.023.039a13.244,13.244,0,0,0-1.64,2.941c-8.4,16.448-3.28,36.528,3.111,47.552,8.135,14.034,23.2,21.289,38.048,21.08C1119.026,230.436,1130.026,203.743,1130.026,203.743Z" transform="translate(-1044.955 -144.353)" fill="#b6f98f" stroke="#000" stroke-miterlimit="10" stroke-width="5"/>
                <ellipse id="Ellipse_443" data-name="Ellipse 443" cx="22.236" cy="39.361" rx="22.236" ry="39.361" transform="translate(0 38.567) rotate(-60.137)" fill="#f7c172"/>
                <ellipse id="Ellipse_444" data-name="Ellipse 444" cx="15.03" cy="26.606" rx="15.03" ry="26.606" transform="translate(14.45 35.423) rotate(-60.137)" fill="#ff9d00"/>
                <line id="Line_357" data-name="Line 357" x2="47.581" y2="35.023" transform="translate(21.982 18.009)" fill="none" stroke="#f7c172" stroke-miterlimit="10" stroke-width="5"/>
                <line id="Line_358" data-name="Line 358" x2="51.465" y2="4.835" transform="translate(19.678 33.569)" fill="none" stroke="#f7c172" stroke-miterlimit="10" stroke-width="5"/>
                <line id="Line_359" data-name="Line 359" y1="40.271" x2="0.344" transform="translate(46.117 17.385)" fill="none" stroke="#f7c172" stroke-miterlimit="10" stroke-width="5"/>
              </g>
              <ellipse id="Ellipse_876" data-name="Ellipse 876" cx="2.564" cy="2.564" rx="2.564" ry="2.564" transform="translate(23.729 61.671)" fill="#fff"/>
              <ellipse id="Ellipse_877" data-name="Ellipse 877" cx="2.564" cy="2.564" rx="2.564" ry="2.564" transform="translate(22.497 79.193)" fill="#fff"/>
              <ellipse id="Ellipse_878" data-name="Ellipse 878" cx="2.564" cy="2.564" rx="2.564" ry="2.564" transform="translate(39.005 77.992)" fill="#fff"/>
              <ellipse id="Ellipse_879" data-name="Ellipse 879" cx="2.564" cy="2.564" rx="2.564" ry="2.564" transform="translate(33.338 93.761)" fill="#fff"/>
              <ellipse id="Ellipse_880" data-name="Ellipse 880" cx="2.564" cy="2.564" rx="2.564" ry="2.564" transform="translate(48.738 93.761)" fill="#fff"/>
              <path id="Path_4047" data-name="Path 4047" d="M1005.322,148.88a2.607,2.607,0,0,1-.913-2.649c1.472-7.752,8.378-23.638,23.976-28.285a2.371,2.371,0,0,1,3.163,2.029,3.589,3.589,0,0,1-2.48,3.711c-15.383,4.583-18.945,22.03-19.089,22.77a3.5,3.5,0,0,1-3.358,2.868A2.338,2.338,0,0,1,1005.322,148.88Z" transform="translate(-987.917 -103.922)" fill="#fff"/>
            </g>
          </g>
        </g>
      </g>
    </g>
  </g>
</svg>
