<svg xmlns="http://www.w3.org/2000/svg" width="196" height="196" viewBox="0 0 196 196">
  <g id="Group_1959" data-name="Group 1959" transform="translate(-1454 -166)">
    <g id="Group_1907" data-name="Group 1907" transform="translate(1157 97)">
      <rect id="Rectangle_1254" data-name="Rectangle 1254" width="196" height="196" rx="5" transform="translate(297 69)" fill="#fff"/>
    </g>
    <g id="Group_1874" data-name="Group 1874" transform="translate(318.261 28.42)">
      <path id="Path_2817" data-name="Path 2817" d="M1294.516,116.862c-29.567,11.475-35.062-16.978-35.062-16.978S1285.183,86.551,1294.516,116.862Z" transform="translate(-11.529 78.777)" fill="#5cbc2a"/>
      <path id="Path_2818" data-name="Path 2818" d="M1285.589,124.6a26.842,26.842,0,0,1-14.55-4.022,29.044,29.044,0,0,1-8.731-8.749,38.524,38.524,0,0,1-5.327-12.556l-.336-1.741,1.574-.816a38.278,38.278,0,0,1,16.043-3.734,26.445,26.445,0,0,1,16.064,5.1c5.73,4.228,10.07,11.028,12.9,20.211l.65,2.111-2.059.8A45.317,45.317,0,0,1,1285.589,124.6Zm-23.479-24.421a34.9,34.9,0,0,0,4.244,9.166,24.246,24.246,0,0,0,7.286,7.263,22.191,22.191,0,0,0,11.95,3.247,38.556,38.556,0,0,0,12.4-2.3c-2.5-7.1-6.016-12.362-10.476-15.653a21.8,21.8,0,0,0-13.247-4.171A33.923,33.923,0,0,0,1262.11,100.182Z" transform="translate(-11.386 78.96)"/>
      <path id="Path_2819" data-name="Path 2819" d="M1255.981,100.471c-20.065,20.854-38.1,2.068-38.1,2.068S1233.776,81.911,1255.981,100.471Z" transform="translate(-9.953 78.937)" fill="#5cbc2a"/>
      <path id="Path_2820" data-name="Path 2820" d="M1233.335,85.329c8.18,0,16.4,3.925,24.432,11.666l1.59,1.533-1.415,1.7a44.532,44.532,0,0,1-13.226,11.188,26.923,26.923,0,0,1-12.55,3.2,27.392,27.392,0,0,1-9.825-1.881,35.112,35.112,0,0,1-7.55-4.065,37.3,37.3,0,0,1-6.7-5.937l-1.137-1.361.983-1.476a37.814,37.814,0,0,1,6.757-7.262,33.711,33.711,0,0,1,7.936-4.992A26.392,26.392,0,0,1,1233.335,85.329Zm19.49,13.553c-6.566-5.847-13.115-8.808-19.49-8.808-10.249,0-17.616,7.665-20.314,10.968a35.72,35.72,0,0,0,4.6,3.818,30.252,30.252,0,0,0,6.489,3.471,22.644,22.644,0,0,0,8.053,1.539C1239.294,109.869,1246.236,106.175,1252.825,98.883Z" transform="translate(-9.497 79.251)"/>
      <path id="Path_2822" data-name="Path 2822" d="M1254.163,157.717s6.838,3.787,13.675,0,19.684-5.68,24.864,10.517-11.811,36.393-31.7,36.393-31.7-19.353-27.971-36.393S1249.168,156.188,1254.163,157.717Z" transform="translate(-10.501 76.572)" fill="#fff"/>
      <path id="Path_2822_-_Outline" data-name="Path 2822 - Outline" d="M1277.246,154.854a20.536,20.536,0,0,0-9.663,2.608c-6.838,3.787-13.675,0-13.675,0-5-1.53-17.4-6.521-21.134,10.517s8.08,36.393,27.971,36.393,36.881-20.194,31.7-36.393c-3.209-10.035-9.359-13.126-15.2-13.125m0-4.745h0a19.614,19.614,0,0,1,5.786.851,18.233,18.233,0,0,1,5.671,2.916c3.693,2.805,6.472,7.064,8.261,12.658a24.777,24.777,0,0,1,1.158,6.908,27.691,27.691,0,0,1-.7,6.86,34.7,34.7,0,0,1-5.866,12.571,40.753,40.753,0,0,1-13.173,11.577,38.273,38.273,0,0,1-8.4,3.417,35.2,35.2,0,0,1-9.234,1.248,32.224,32.224,0,0,1-25.494-12.2,36.117,36.117,0,0,1-6.9-14.1,35.576,35.576,0,0,1-.215-15.85,28.854,28.854,0,0,1,2.583-7.345,17.583,17.583,0,0,1,4.057-5.174,15.249,15.249,0,0,1,10.207-3.6,31.2,31.2,0,0,1,9.487,1.82c.3.095.579.184.824.259a3.949,3.949,0,0,1,.888.374,11.569,11.569,0,0,0,4.814,1.1,8.74,8.74,0,0,0,4.286-1.089A25.378,25.378,0,0,1,1277.246,150.109Z" transform="translate(-10.246 76.827)"/>
      <path id="Path_2823" data-name="Path 2823" d="M1256.54,160.63s6.326,3.5,12.65,0,18.209-5.254,23,9.73-10.925,33.665-29.326,33.665-29.326-17.9-25.876-33.665S1251.92,159.215,1256.54,160.63Z" transform="translate(-10.653 76.454)" fill="#e20736"/>
      <path id="Path_2824" data-name="Path 2824" d="M1216,174.066a62.88,62.88,0,0,1-.187-8.372,89.486,89.486,0,0,1,3.006-20.048,75.688,75.688,0,0,1,11.553-24.588,72.592,72.592,0,0,1,25.444-21.8l1.325,2.52a73.426,73.426,0,0,0-14.2,9.683,67.385,67.385,0,0,0-10.219,11.213,72.812,72.812,0,0,0-11.125,23.619,86.592,86.592,0,0,0-2.932,19.4,61.691,61.691,0,0,0,.167,8.058Z" transform="translate(-9.853 78.707)"/>
      <path id="Path_2825" data-name="Path 2825" d="M1260.643,156.435c-.2-.143-4.917-3.607-7.738-12.409a49.447,49.447,0,0,1-2-17.351,96.91,96.91,0,0,1,5.553-26.578l2.693.924a94.1,94.1,0,0,0-5.4,25.786,46.63,46.63,0,0,0,1.867,16.351,27.356,27.356,0,0,0,4.386,8.57,13.572,13.572,0,0,0,2.3,2.4Z" transform="translate(-11.183 78.664)"/>
      <path id="Path_2828" data-name="Path 2828" d="M1246.547,184.606a2.552,2.552,0,0,1-2.023-.832c-3.067-3.814-6.678-12.93,1.6-20.127a2.874,2.874,0,0,1,3.244-.185,1.435,1.435,0,0,1,.247,2.419c-8.169,7.1-1.436,15.767-1.145,16.133a1.5,1.5,0,0,1-.8,2.35A2.907,2.907,0,0,1,1246.547,184.606Z" transform="translate(-10.831 76.271)" fill="#fff"/>
      <path id="Path_2829" data-name="Path 2829" d="M1210.39,176.014s6.838,3.787,13.675,0,19.684-5.68,24.864,10.518-11.811,36.392-31.7,36.392-31.7-19.353-27.972-36.392S1205.4,174.484,1210.39,176.014Z" transform="translate(-8.841 75.878)" fill="#fff"/>
      <path id="Path_2829_-_Outline" data-name="Path 2829 - Outline" d="M1233.473,173.151a20.535,20.535,0,0,0-9.663,2.608c-6.838,3.787-13.675,0-13.675,0-4.995-1.53-17.4-6.521-21.134,10.518s8.081,36.392,27.972,36.392,36.881-20.194,31.7-36.392c-3.209-10.035-9.359-13.127-15.2-13.126m0-4.745h0a19.613,19.613,0,0,1,5.787.851,18.231,18.231,0,0,1,5.671,2.916c3.693,2.805,6.473,7.065,8.262,12.659a24.771,24.771,0,0,1,1.158,6.908,27.694,27.694,0,0,1-.7,6.859,34.7,34.7,0,0,1-5.865,12.571,40.754,40.754,0,0,1-13.173,11.578,38.275,38.275,0,0,1-8.4,3.417,35.2,35.2,0,0,1-9.234,1.248,32.224,32.224,0,0,1-25.494-12.2,36.117,36.117,0,0,1-6.9-14.1,35.573,35.573,0,0,1-.214-15.85,28.848,28.848,0,0,1,2.583-7.346,17.582,17.582,0,0,1,4.057-5.174,15.249,15.249,0,0,1,10.207-3.6,31.2,31.2,0,0,1,9.486,1.82c.3.095.579.184.824.259a3.948,3.948,0,0,1,.888.374,11.569,11.569,0,0,0,4.814,1.1,8.74,8.74,0,0,0,4.286-1.089A25.377,25.377,0,0,1,1233.473,168.406Z" transform="translate(-8.586 76.133)"/>
      <path id="Path_2830" data-name="Path 2830" d="M1212.767,178.927s6.326,3.5,12.65,0,18.209-5.254,23,9.73-10.925,33.665-29.326,33.665-29.326-17.9-25.876-33.665S1208.147,177.512,1212.767,178.927Z" transform="translate(-8.994 75.76)" fill="#e20736"/>
      <path id="Path_2831" data-name="Path 2831" d="M1203.194,205.874a2.152,2.152,0,0,1-1.854-.942c-2.812-4.32-6.122-14.642,1.471-22.791a2.235,2.235,0,0,1,2.973-.21,1.838,1.838,0,0,1,.227,2.739c-7.488,8.037-1.317,17.853-1.05,18.268a1.861,1.861,0,0,1-.734,2.661A2.244,2.244,0,0,1,1203.194,205.874Z" transform="translate(-10.167 73.071)" fill="#fff"/>
    </g>
  </g>
</svg>
