<svg xmlns="http://www.w3.org/2000/svg" width="117.78" height="146.656" viewBox="0 0 117.78 146.656">
  <g id="Group_1508" data-name="Group 1508" transform="translate(-1737.338 -164.277)">
    <path id="Path_2518" data-name="Path 2518" d="M1753.005,110.28s22.189,9.084,31.458,33.109" transform="translate(-8.201 67.807)" fill="none" stroke="#000" stroke-linecap="round" stroke-miterlimit="10" stroke-width="3"/>
    <path id="Path_2519" data-name="Path 2519" d="M1772.481,131.476s.036-15.7,9.835-25.5,21.524-3.006,25.5-.429,14.23,7.733,17.7,3.221,2.069-7.733-1.476-8.592-15.173,9.471-.982,15.807c2.614.9,9.768.6,11.181-1.69" transform="translate(-4.076 65.657)" fill="none" stroke="#000" stroke-linecap="round" stroke-miterlimit="10" stroke-width="3"/>
    <g id="Group_991" data-name="Group 991" transform="translate(1738.838 204.866)">
      <ellipse id="Ellipse_212" data-name="Ellipse 212" cx="17.183" cy="17.183" rx="17.183" ry="17.183" transform="translate(0 0)" fill="#cba6ff" stroke="#000" stroke-miterlimit="10" stroke-width="3"/>
      <ellipse id="Ellipse_213" data-name="Ellipse 213" cx="14.994" cy="14.994" rx="14.994" ry="14.994" transform="translate(3.061 3.544)" fill="#9b47fc"/>
      <ellipse id="Ellipse_214" data-name="Ellipse 214" cx="5.998" cy="5.998" rx="5.998" ry="5.998" transform="translate(7.736 1.693)" fill="#cba6ff" opacity="0.46"/>
      <ellipse id="Ellipse_215" data-name="Ellipse 215" cx="3.852" cy="3.852" rx="3.852" ry="3.852" transform="translate(4.675 18.538)" fill="#cba6ff" opacity="0.46"/>
    </g>
    <g id="Group_992" data-name="Group 992" transform="translate(1779.004 179.951)">
      <ellipse id="Ellipse_216" data-name="Ellipse 216" cx="17.183" cy="17.183" rx="17.183" ry="17.183" transform="translate(0 0)" fill="#cba6ff" stroke="#000" stroke-miterlimit="10" stroke-width="3"/>
      <ellipse id="Ellipse_217" data-name="Ellipse 217" cx="14.994" cy="14.994" rx="14.994" ry="14.994" transform="translate(3.061 3.544)" fill="#9b47fc"/>
      <ellipse id="Ellipse_218" data-name="Ellipse 218" cx="5.998" cy="5.998" rx="5.998" ry="5.998" transform="translate(7.736 1.693)" fill="#cba6ff" opacity="0.46"/>
      <ellipse id="Ellipse_219" data-name="Ellipse 219" cx="3.852" cy="3.852" rx="3.852" ry="3.852" transform="translate(4.675 18.538)" fill="#cba6ff" opacity="0.46"/>
    </g>
    <g id="Group_993" data-name="Group 993" transform="translate(1764.882 238.398)">
      <ellipse id="Ellipse_220" data-name="Ellipse 220" cx="17.183" cy="17.183" rx="17.183" ry="17.183" transform="translate(0 0)" fill="#cba6ff" stroke="#000" stroke-miterlimit="10" stroke-width="3"/>
      <ellipse id="Ellipse_221" data-name="Ellipse 221" cx="14.994" cy="14.994" rx="14.994" ry="14.994" transform="translate(3.062 3.544)" fill="#9b47fc"/>
      <ellipse id="Ellipse_222" data-name="Ellipse 222" cx="5.998" cy="5.998" rx="5.998" ry="5.998" transform="translate(7.736 1.693)" fill="#cba6ff" opacity="0.46"/>
      <ellipse id="Ellipse_223" data-name="Ellipse 223" cx="3.852" cy="3.852" rx="3.852" ry="3.852" transform="translate(4.675 18.538)" fill="#cba6ff" opacity="0.46"/>
    </g>
    <g id="Group_994" data-name="Group 994" transform="translate(1796.048 272.957)">
      <ellipse id="Ellipse_224" data-name="Ellipse 224" cx="14.654" cy="14.654" rx="14.654" ry="14.654" transform="translate(0 0)" fill="#cba6ff" stroke="#000" stroke-miterlimit="10" stroke-width="3"/>
      <ellipse id="Ellipse_225" data-name="Ellipse 225" cx="12.787" cy="12.787" rx="12.787" ry="12.787" transform="translate(2.611 3.022)" fill="#9b47fc"/>
      <ellipse id="Ellipse_226" data-name="Ellipse 226" cx="5.115" cy="5.115" rx="5.115" ry="5.115" transform="translate(6.597 1.443)" fill="#cba6ff" opacity="0.46"/>
      <ellipse id="Ellipse_227" data-name="Ellipse 227" cx="3.285" cy="3.285" rx="3.285" ry="3.285" transform="translate(3.987 15.809)" fill="#cba6ff" opacity="0.46"/>
    </g>
    <g id="Group_995" data-name="Group 995" transform="translate(1827.375 283.19)">
      <ellipse id="Ellipse_228" data-name="Ellipse 228" cx="13.121" cy="13.121" rx="13.121" ry="13.121" transform="translate(0 0)" fill="#cba6ff" stroke="#000" stroke-miterlimit="10" stroke-width="3"/>
      <ellipse id="Ellipse_229" data-name="Ellipse 229" cx="11.45" cy="11.45" rx="11.45" ry="11.45" transform="translate(2.338 2.706)" fill="#9b47fc"/>
      <ellipse id="Ellipse_230" data-name="Ellipse 230" cx="4.58" cy="4.58" rx="4.58" ry="4.58" transform="translate(5.907 1.293)" fill="#cba6ff" opacity="0.46"/>
      <ellipse id="Ellipse_231" data-name="Ellipse 231" cx="2.942" cy="2.942" rx="2.942" ry="2.942" transform="translate(3.57 14.156)" fill="#cba6ff" opacity="0.46"/>
    </g>
    <g id="Group_996" data-name="Group 996" transform="translate(1799.248 217.721)">
      <ellipse id="Ellipse_232" data-name="Ellipse 232" cx="17.183" cy="17.183" rx="17.183" ry="17.183" transform="translate(0 0)" fill="#cba6ff" stroke="#000" stroke-miterlimit="10" stroke-width="3"/>
      <ellipse id="Ellipse_233" data-name="Ellipse 233" cx="14.994" cy="14.994" rx="14.994" ry="14.994" transform="translate(3.062 3.544)" fill="#9b47fc"/>
      <ellipse id="Ellipse_234" data-name="Ellipse 234" cx="5.998" cy="5.998" rx="5.998" ry="5.998" transform="translate(7.736 1.693)" fill="#cba6ff" opacity="0.46"/>
      <ellipse id="Ellipse_235" data-name="Ellipse 235" cx="3.852" cy="3.852" rx="3.852" ry="3.852" transform="translate(4.675 18.538)" fill="#cba6ff" opacity="0.46"/>
    </g>
    <g id="Group_997" data-name="Group 997" transform="translate(1807.963 197.134)">
      <ellipse id="Ellipse_236" data-name="Ellipse 236" cx="13.035" cy="13.035" rx="13.035" ry="13.035" transform="translate(0 0)" fill="#cba6ff" stroke="#000" stroke-miterlimit="10" stroke-width="3"/>
      <ellipse id="Ellipse_237" data-name="Ellipse 237" cx="11.374" cy="11.374" rx="11.374" ry="11.374" transform="translate(2.322 2.688)" fill="#9b47fc"/>
      <ellipse id="Ellipse_238" data-name="Ellipse 238" cx="4.55" cy="4.55" rx="4.55" ry="4.55" transform="translate(5.868 1.284)" fill="#cba6ff" opacity="0.46"/>
      <ellipse id="Ellipse_239" data-name="Ellipse 239" cx="2.922" cy="2.922" rx="2.922" ry="2.922" transform="translate(3.546 14.062)" fill="#cba6ff" opacity="0.46"/>
    </g>
    <g id="Group_998" data-name="Group 998" transform="translate(1765.581 202.968)">
      <ellipse id="Ellipse_240" data-name="Ellipse 240" cx="13.035" cy="13.035" rx="13.035" ry="13.035" transform="translate(0 0)" fill="#cba6ff" stroke="#000" stroke-miterlimit="10" stroke-width="3"/>
      <ellipse id="Ellipse_241" data-name="Ellipse 241" cx="11.374" cy="11.374" rx="11.374" ry="11.374" transform="translate(2.322 2.688)" fill="#9b47fc"/>
      <ellipse id="Ellipse_242" data-name="Ellipse 242" cx="4.55" cy="4.55" rx="4.55" ry="4.55" transform="translate(5.868 1.284)" fill="#cba6ff" opacity="0.46"/>
      <ellipse id="Ellipse_243" data-name="Ellipse 243" cx="2.922" cy="2.922" rx="2.922" ry="2.922" transform="translate(3.546 14.062)" fill="#cba6ff" opacity="0.46"/>
    </g>
    <g id="Group_999" data-name="Group 999" transform="translate(1769.03 217.03)">
      <ellipse id="Ellipse_244" data-name="Ellipse 244" cx="15.454" cy="15.454" rx="15.454" ry="15.454" transform="translate(0 0)" fill="#cba6ff" stroke="#000" stroke-miterlimit="10" stroke-width="3"/>
      <ellipse id="Ellipse_245" data-name="Ellipse 245" cx="13.486" cy="13.486" rx="13.486" ry="13.486" transform="translate(2.753 3.187)" fill="#9b47fc"/>
      <ellipse id="Ellipse_246" data-name="Ellipse 246" cx="5.395" cy="5.395" rx="5.395" ry="5.395" transform="translate(6.957 1.522)" fill="#cba6ff" opacity="0.46"/>
      <ellipse id="Ellipse_247" data-name="Ellipse 247" cx="3.465" cy="3.465" rx="3.465" ry="3.465" transform="translate(4.205 16.673)" fill="#cba6ff" opacity="0.46"/>
    </g>
    <g id="Group_1000" data-name="Group 1000" transform="translate(1785.811 205.81)">
      <ellipse id="Ellipse_248" data-name="Ellipse 248" cx="15.454" cy="15.454" rx="15.454" ry="15.454" transform="translate(0 0)" fill="#cba6ff" stroke="#000" stroke-miterlimit="10" stroke-width="3"/>
      <ellipse id="Ellipse_249" data-name="Ellipse 249" cx="12.442" cy="12.442" rx="12.442" ry="12.442" transform="translate(4.841 5.275)" fill="#9b47fc"/>
      <ellipse id="Ellipse_250" data-name="Ellipse 250" cx="5.395" cy="5.395" rx="5.395" ry="5.395" transform="translate(6.957 1.523)" fill="#cba6ff" opacity="0.46"/>
      <ellipse id="Ellipse_251" data-name="Ellipse 251" cx="3.465" cy="3.465" rx="3.465" ry="3.465" transform="translate(4.205 16.673)" fill="#cba6ff" opacity="0.46"/>
    </g>
    <g id="Group_1001" data-name="Group 1001" transform="translate(1788.469 236.633)">
      <ellipse id="Ellipse_252" data-name="Ellipse 252" cx="15.454" cy="15.454" rx="15.454" ry="15.454" transform="translate(0 0)" fill="#cba6ff" stroke="#000" stroke-miterlimit="10" stroke-width="3"/>
      <ellipse id="Ellipse_253" data-name="Ellipse 253" cx="13.486" cy="13.486" rx="13.486" ry="13.486" transform="translate(2.754 3.187)" fill="#9b47fc"/>
      <ellipse id="Ellipse_254" data-name="Ellipse 254" cx="5.395" cy="5.395" rx="5.395" ry="5.395" transform="translate(6.958 1.522)" fill="#cba6ff" opacity="0.46"/>
      <ellipse id="Ellipse_255" data-name="Ellipse 255" cx="3.465" cy="3.465" rx="3.465" ry="3.465" transform="translate(4.205 16.673)" fill="#cba6ff" opacity="0.46"/>
    </g>
    <g id="Group_1002" data-name="Group 1002" transform="translate(1809.901 252.437)">
      <ellipse id="Ellipse_256" data-name="Ellipse 256" cx="15.454" cy="15.454" rx="15.454" ry="15.454" transform="translate(0 0)" fill="#cba6ff" stroke="#000" stroke-miterlimit="10" stroke-width="3"/>
      <ellipse id="Ellipse_257" data-name="Ellipse 257" cx="13.486" cy="13.486" rx="13.486" ry="13.486" transform="translate(2.754 3.187)" fill="#9b47fc"/>
      <ellipse id="Ellipse_258" data-name="Ellipse 258" cx="5.395" cy="5.395" rx="5.395" ry="5.395" transform="translate(6.958 1.522)" fill="#cba6ff" opacity="0.46"/>
      <ellipse id="Ellipse_259" data-name="Ellipse 259" cx="3.465" cy="3.465" rx="3.465" ry="3.465" transform="translate(4.205 16.673)" fill="#cba6ff" opacity="0.46"/>
    </g>
    <g id="Group_1003" data-name="Group 1003" transform="translate(1745.079 232.485)">
      <ellipse id="Ellipse_260" data-name="Ellipse 260" cx="15.454" cy="15.454" rx="15.454" ry="15.454" transform="translate(0 0)" fill="#cba6ff" stroke="#000" stroke-miterlimit="10" stroke-width="3"/>
      <ellipse id="Ellipse_261" data-name="Ellipse 261" cx="13.486" cy="13.486" rx="13.486" ry="13.486" transform="translate(2.753 3.187)" fill="#9b47fc"/>
      <ellipse id="Ellipse_262" data-name="Ellipse 262" cx="5.395" cy="5.395" rx="5.395" ry="5.395" transform="translate(6.957 1.523)" fill="#cba6ff" opacity="0.46"/>
      <ellipse id="Ellipse_263" data-name="Ellipse 263" cx="3.465" cy="3.465" rx="3.465" ry="3.465" transform="translate(4.204 16.673)" fill="#cba6ff" opacity="0.46"/>
    </g>
    <g id="Group_1004" data-name="Group 1004" transform="translate(1786.902 259.105)">
      <ellipse id="Ellipse_264" data-name="Ellipse 264" cx="11.029" cy="11.029" rx="11.029" ry="11.029" transform="translate(0 0)" fill="#cba6ff" stroke="#000" stroke-miterlimit="10" stroke-width="3"/>
      <ellipse id="Ellipse_265" data-name="Ellipse 265" cx="9.624" cy="9.624" rx="9.624" ry="9.624" transform="translate(1.965 2.275)" fill="#9b47fc"/>
      <ellipse id="Ellipse_266" data-name="Ellipse 266" cx="3.85" cy="3.85" rx="3.85" ry="3.85" transform="translate(4.965 1.087)" fill="#cba6ff" opacity="0.46"/>
      <ellipse id="Ellipse_267" data-name="Ellipse 267" cx="2.473" cy="2.473" rx="2.473" ry="2.473" transform="translate(3.001 11.898)" fill="#cba6ff" opacity="0.46"/>
    </g>
    <g id="Group_1005" data-name="Group 1005" transform="translate(1818.438 276.582)">
      <ellipse id="Ellipse_268" data-name="Ellipse 268" cx="11.029" cy="11.029" rx="11.029" ry="11.029" transform="translate(0 0)" fill="#cba6ff" stroke="#000" stroke-miterlimit="10" stroke-width="3"/>
      <ellipse id="Ellipse_269" data-name="Ellipse 269" cx="9.624" cy="9.624" rx="9.624" ry="9.624" transform="translate(1.965 2.275)" fill="#9b47fc"/>
      <ellipse id="Ellipse_270" data-name="Ellipse 270" cx="3.85" cy="3.85" rx="3.85" ry="3.85" transform="translate(4.965 1.087)" fill="#cba6ff" opacity="0.46"/>
      <ellipse id="Ellipse_271" data-name="Ellipse 271" cx="2.473" cy="2.473" rx="2.473" ry="2.473" transform="translate(3.001 11.899)" fill="#cba6ff" opacity="0.46"/>
    </g>
    <g id="Group_1006" data-name="Group 1006" transform="translate(1822.157 230.365)">
      <ellipse id="Ellipse_272" data-name="Ellipse 272" cx="12.105" cy="12.105" rx="12.105" ry="12.105" transform="translate(0 0)" fill="#cba6ff" stroke="#000" stroke-miterlimit="10" stroke-width="3"/>
      <ellipse id="Ellipse_273" data-name="Ellipse 273" cx="10.563" cy="10.563" rx="10.563" ry="10.563" transform="translate(2.156 2.496)" fill="#9b47fc"/>
      <ellipse id="Ellipse_274" data-name="Ellipse 274" cx="4.226" cy="4.226" rx="4.226" ry="4.226" transform="translate(5.449 1.192)" fill="#cba6ff" opacity="0.46"/>
      <ellipse id="Ellipse_275" data-name="Ellipse 275" cx="2.714" cy="2.714" rx="2.714" ry="2.714" transform="translate(3.293 13.06)" fill="#cba6ff" opacity="0.46"/>
    </g>
    <path id="Path_3042" data-name="Path 3042" d="M3.553,18.715a1.479,1.479,0,0,1-1.3-.722C.27,14.681-2.059,6.768,3.284.52A1.486,1.486,0,1,1,5.535,2.459C.266,8.621,4.608,16.146,4.8,16.464a1.49,1.49,0,0,1-1.243,2.251Z" transform="matrix(0.766, 0.643, -0.643, 0.766, 1753.239, 207.968)" fill="#fff"/>
    <path id="Path_3043" data-name="Path 3043" d="M3.553,18.715a1.479,1.479,0,0,1-1.3-.722C.27,14.681-2.059,6.768,3.284.52A1.486,1.486,0,1,1,5.535,2.459C.266,8.621,4.608,16.146,4.8,16.464a1.49,1.49,0,0,1-1.243,2.251Z" transform="matrix(0.766, 0.643, -0.643, 0.766, 1793.417, 182.52)" fill="#fff"/>
    <path id="Path_3044" data-name="Path 3044" d="M4.06,17.778a1.792,1.792,0,0,1-1.49-.686C.309,13.946-2.353,6.429,3.752.494A1.936,1.936,0,0,1,6.142.341a1.259,1.259,0,0,1,.183,1.995c-6.021,5.854-1.059,13-.845,13.3a1.293,1.293,0,0,1-.59,1.938A1.95,1.95,0,0,1,4.06,17.778Z" transform="translate(1796.834 208.955) rotate(30)" fill="#fff"/>
  </g>
</svg>
