<svg xmlns="http://www.w3.org/2000/svg" width="196" height="196" viewBox="0 0 196 196">
  <g id="Group_1963" data-name="Group 1963" transform="translate(-2328 -166)">
    <g id="Group_1929" data-name="Group 1929" transform="translate(2031 97)">
      <rect id="Rectangle_1254" data-name="Rectangle 1254" width="196" height="196" rx="5" transform="translate(297 69)" fill="#fff"/>
    </g>
    <g id="Group_1898" data-name="Group 1898" transform="translate(2300.439 -181.928)">
      <g id="Group_1445" data-name="Group 1445" transform="translate(-18.514 69.59)">
        <path id="Path_3793" data-name="Path 3793" d="M134.04,429.735S103.5,434.6,90.507,408.9s-15.918-49.214-3.9-73.011c7.923-14.4,48.648-27.826,67.143-.014,15.8,26.5,17.767,51.668,14.074,62.7S158.533,425.049,134.04,429.735Z" transform="translate(0.64 0.55)" fill="#a0580e"/>
        <g id="Path_3794" data-name="Path 3794" fill="none" stroke-miterlimit="10">
          <path d="M132.865,428.515s-32.119,4.721-46-21.619C78.594,391.212,73.9,375.071,74.2,360.229a45.122,45.122,0,0,1,30.24-41.9c16.267-5.54,35.7-3.91,48.417,14.523,16.852,27.182,19.121,52.891,15.322,64.128S158.615,423.93,132.865,428.515Z" stroke="none"/>
          <path d="M 127.0801696777344 428.8441772460938 C 130.6273956298828 428.8441772460938 132.8649139404297 428.515380859375 132.8649139404297 428.515380859375 C 158.6152496337891 423.9299011230469 164.3810729980469 408.2204895019531 168.1793060302734 396.9833679199219 C 171.9786376953125 385.7461853027344 169.7096557617188 360.0377807617188 152.8573303222656 332.8556213378906 C 144.1845550537109 320.2882080078125 132.3962860107422 315.5317993164062 120.6154327392578 315.5317993164062 C 115.1162948608398 315.5317993164062 109.6167755126953 316.5691223144531 104.4401092529297 318.332275390625 C 86.56260681152344 324.4220886230469 74.58121490478516 341.3457946777344 74.20057678222656 360.2292175292969 C 73.90151977539062 375.0708923339844 78.59349822998047 391.2118530273438 86.86166381835938 406.8963012695312 C 97.08264923095703 426.2867431640625 117.1835479736328 428.8441772460938 127.0801696777344 428.8441772460938 M 127.0801620483398 433.8441772460938 C 121.6738815307617 433.8441772460938 113.4912185668945 433.1380310058594 105.2106323242188 429.7739868164062 C 100.5971374511719 427.8997192382812 96.42849731445312 425.3882751464844 92.82046508789062 422.3094177246094 C 88.61574554443359 418.721435546875 85.12274169921875 414.3201293945312 82.43852233886719 409.2278137207031 C 78.07540893554688 400.9510803222656 74.73121643066406 392.6577453613281 72.49897003173828 384.5782470703125 C 70.15502166748047 376.0945739746094 69.04563140869141 367.8684692382812 69.20160675048828 360.1284790039062 C 69.30563354492188 354.9667358398438 70.19065856933594 349.8705444335938 71.83205413818359 344.9813842773438 C 73.44327545166016 340.1821899414062 75.75299835205078 335.6691284179688 78.69710540771484 331.5675354003906 C 81.65674591064453 327.4442749023438 85.19805145263672 323.8199768066406 89.22268676757812 320.7952880859375 C 93.35916137695312 317.6865844726562 97.93660736083984 315.2655029296875 102.827880859375 313.5993347167969 C 108.8040771484375 311.5638732910156 114.7886047363281 310.5318298339844 120.6154403686523 310.5318298339844 C 127.6457748413086 310.5318298339844 134.2158813476562 312.0389709472656 140.1432800292969 315.0114440917969 C 146.7133636474609 318.3062133789062 152.3755493164062 323.3543701171875 156.9725189208984 330.0157165527344 L 157.0422210693359 330.11669921875 L 157.1068878173828 330.2209777832031 C 165.0296325683594 343.0000915527344 170.5839996337891 356.7340393066406 173.1694946289062 369.9380493164062 C 174.2893524169922 375.6571044921875 174.8236389160156 381.0985107421875 174.7575225830078 386.1111755371094 C 174.6934967041016 390.963134765625 174.0738830566406 395.1598510742188 172.9158782958984 398.5848388671875 C 171.1560516357422 403.7914123535156 168.4963226318359 411.6602172851562 162.5271301269531 418.524658203125 C 159.3615264892578 422.1650695800781 155.5165252685547 425.227783203125 151.0989379882812 427.6277465820312 C 146.1580810546875 430.3119506835938 140.3181915283203 432.2667846679688 133.7415008544922 433.4379272460938 L 133.5918579101562 433.4622192382812 C 133.3258361816406 433.5013427734375 130.8829956054688 433.8441772460938 127.0801620483398 433.8441772460938 Z" stroke="none" fill="#000"/>
        </g>
        <path id="Path_3795" data-name="Path 3795" d="M132.378,417.68s-25.995,4.134-37.055-17.727-13.555-41.863-3.334-62.1c6.741-12.248,41.4-23.661,57.149,0,13.454,22.543,15.128,43.951,11.987,53.338S153.224,413.7,132.378,417.68Z" transform="translate(1.506 1.132)" fill="#b06d12"/>
        <path id="Path_3796" data-name="Path 3796" d="M131.563,385.5s-17.345,2.164-25.062-11.392S96.83,348.257,103.385,336c4.339-7.411,27.383-13.913,38.262.812,9.328,14.009,10.755,27.153,8.785,32.862S145.463,383.356,131.563,385.5Z" transform="translate(3.351 1.652)" fill="#d39a26"/>
        <g id="Group_1444" data-name="Group 1444" transform="translate(117.943 341.434)">
          <g id="Path_3797" data-name="Path 3797" transform="translate(-112.007 -337.591)" fill="#c1821b" stroke-miterlimit="10">
            <path d="M 164.1727142333984 434.7999877929688 C 158.5731658935547 434.7999877929688 152.8071594238281 433.5973510742188 147.0348663330078 431.2254333496094 C 142.4502410888672 429.3415222167969 137.8508911132812 426.7192687988281 133.3645935058594 423.4314575195312 C 125.7444915771484 417.8470458984375 121.1337509155273 412.3331604003906 120.9412078857422 412.1011657714844 L 120.9085693359375 412.0618286132812 L 120.8786926269531 412.0203857421875 C 116.7609252929688 406.3088989257812 116.2728500366211 397.9239501953125 119.50439453125 388.4101257324219 C 122.6688385009766 379.0938415527344 129.1481781005859 369.46923828125 137.7488403320312 361.3092651367188 C 143.724853515625 355.6394653320312 150.4518432617188 350.9542846679688 157.2025451660156 347.7602233886719 C 163.814697265625 344.6317138671875 170.3332214355469 342.9780883789062 176.053466796875 342.9780883789062 C 178.7312774658203 342.9780883789062 181.2256164550781 343.3395385742188 183.4672393798828 344.0523986816406 C 185.3375549316406 344.6471862792969 187.0360260009766 345.4876708984375 188.5333557128906 346.5579223632812 L 188.7176208496094 346.3748168945312 L 189.7552947998047 347.5243835449219 L 189.7689514160156 347.5384826660156 C 191.0624847412109 348.8747863769531 191.8712768554688 349.7507629394531 192.1755828857422 350.1449584960938 C 198.6717529296875 357.7100830078125 203.4248962402344 365.3921813964844 206.3036804199219 372.9789733886719 C 209.4878997802734 381.3706359863281 210.3176879882812 389.5173034667969 208.7700347900391 397.1926879882812 C 207.1557312011719 405.1954040527344 202.3388061523438 413.4978332519531 195.2065734863281 420.5706787109375 C 188.41943359375 427.3013000488281 180.2503967285156 432.1351928710938 172.7940216064453 433.8328857421875 C 169.9751586914062 434.474609375 167.0745391845703 434.7999877929688 164.1727142333984 434.7999877929688 Z" stroke="none"/>
            <path d="M 164.1727294921875 433.2999877929688 C 166.8719482421875 433.2999877929688 169.6436920166016 433.0116882324219 172.4610290527344 432.3703002929688 C 187.1429901123047 429.0274658203125 204.0043792724609 413.2319946289062 207.2996520996094 396.8962097167969 C 210.4215698242188 381.4133911132812 203.2125701904297 365.2882690429688 191.0080108642578 351.0877380371094 C 190.6398620605469 350.5859375 188.6688385009766 348.5593872070312 188.6586303710938 348.548095703125 L 188.6540985107422 348.5526123046875 C 178.2710723876953 339.7282104492188 156.4446716308594 345.6391296386719 138.78125 362.3974304199219 C 121.2934036254883 378.9892272949219 114.2135467529297 400.2107238769531 122.0954284667969 411.1431579589844 C 122.0954284667969 411.1431579589844 140.4852142333984 433.2999877929688 164.1727294921875 433.2999877929688 M 164.1727294921875 436.2999877929688 C 158.3766632080078 436.2999877929688 152.4188385009766 435.0594482421875 146.4647674560547 432.6128540039062 C 141.7679290771484 430.682861328125 137.0620727539062 428.0008544921875 132.4779205322266 424.641357421875 C 124.710205078125 418.94873046875 119.9843444824219 413.2969665527344 119.7869644165039 413.0591430664062 L 119.7217025756836 412.9805297851562 L 119.6619262695312 412.8976135253906 C 115.2524871826172 406.7815551757812 114.6921234130859 397.9137573242188 118.0840835571289 387.9276733398438 C 121.3253631591797 378.3851928710938 127.9424438476562 368.5454711914062 136.7164001464844 360.2210998535156 C 142.8062896728516 354.4432678222656 149.6684417724609 349.6654968261719 156.5610198974609 346.4043273925781 C 163.3724212646484 343.1815490722656 170.1128082275391 341.4780883789062 176.0534820556641 341.4780883789062 C 178.8857421875 341.4780883789062 181.5330505371094 341.8632507324219 183.9218292236328 342.6229248046875 C 185.512939453125 343.1289367675781 186.9911651611328 343.8011474609375 188.3409576416016 344.631103515625 L 188.7704925537109 344.2034912109375 L 190.8491973876953 346.497802734375 C 192.6301116943359 348.3374938964844 193.1497802734375 348.9529113769531 193.3450012207031 349.204345703125 C 199.9385986328125 356.889892578125 204.7701568603516 364.7093505859375 207.7061309814453 372.4468078613281 C 210.9921875 381.1068725585938 211.8448486328125 389.5323791503906 210.2404632568359 397.4891967773438 C 208.5679473876953 405.7803955078125 203.6039276123047 414.3557739257812 196.2627868652344 421.6357727050781 C 192.8408813476562 425.0291748046875 189.1095733642578 427.9410705566406 185.1724700927734 430.2905883789062 C 181.1051330566406 432.7178039550781 177.0524597167969 434.4016723632812 173.1270294189453 435.2954406738281 C 170.1990661621094 435.9620056152344 167.1864318847656 436.2999877929688 164.1727294921875 436.2999877929688 Z" stroke="none" fill="#000"/>
          </g>
          <ellipse id="Ellipse_690" data-name="Ellipse 690" cx="39.908" cy="22.545" rx="39.908" ry="22.545" transform="matrix(0.725, -0.688, 0.688, 0.725, 0, 54.935)" fill="#b1c40a"/>
          <ellipse id="Ellipse_691" data-name="Ellipse 691" cx="26.976" cy="15.239" rx="26.976" ry="15.239" transform="matrix(0.725, -0.688, 0.688, 0.725, 13.831, 48.088)" fill="#cdd464"/>
          <ellipse id="Ellipse_692" data-name="Ellipse 692" cx="14.365" cy="8.115" rx="14.365" ry="8.115" transform="matrix(0.725, -0.688, 0.688, 0.725, 26.566, 45.825)" fill="#ebea8d"/>
          <ellipse id="Ellipse_693" data-name="Ellipse 693" cx="1.436" cy="0.749" rx="1.436" ry="0.749" transform="translate(47.463 28.979) rotate(-76.646)" fill="#5d6313"/>
          <ellipse id="Ellipse_694" data-name="Ellipse 694" cx="0.749" cy="1.436" rx="0.749" ry="1.436" transform="translate(34.583 30.792) rotate(-34.879)" fill="#5d6313"/>
          <ellipse id="Ellipse_695" data-name="Ellipse 695" cx="0.749" cy="1.436" rx="0.749" ry="1.436" transform="translate(48.448 49.294) rotate(-34.879)" fill="#5d6313"/>
          <ellipse id="Ellipse_696" data-name="Ellipse 696" cx="1.436" cy="0.749" rx="1.436" ry="0.749" transform="translate(22.419 51.111) rotate(-20.928)" fill="#5d6313"/>
          <ellipse id="Ellipse_697" data-name="Ellipse 697" cx="1.436" cy="0.749" rx="1.436" ry="0.749" transform="translate(33.54 58.057) rotate(-71.411)" fill="#5d6313"/>
          <ellipse id="Ellipse_698" data-name="Ellipse 698" cx="1.436" cy="0.749" rx="1.436" ry="0.749" transform="translate(44.982 25.058) rotate(-82.904)" fill="#5d6313"/>
          <ellipse id="Ellipse_699" data-name="Ellipse 699" cx="0.749" cy="1.436" rx="0.749" ry="1.436" transform="translate(39.054 56.838) rotate(-5.361)" fill="#5d6313"/>
          <ellipse id="Ellipse_700" data-name="Ellipse 700" cx="1.436" cy="0.749" rx="1.436" ry="0.749" transform="translate(50.843 25.269) rotate(-71.411)" fill="#5d6313"/>
          <ellipse id="Ellipse_701" data-name="Ellipse 701" cx="1.436" cy="0.749" rx="1.436" ry="0.749" transform="matrix(0.99, -0.142, 0.142, 0.99, 27.017, 47.611)" fill="#5d6313"/>
          <ellipse id="Ellipse_702" data-name="Ellipse 702" cx="0.749" cy="1.436" rx="0.749" ry="1.436" transform="matrix(0.977, -0.212, 0.212, 0.977, 39.072, 28.153)" fill="#5d6313"/>
          <ellipse id="Ellipse_703" data-name="Ellipse 703" cx="0.749" cy="1.436" rx="0.749" ry="1.436" transform="matrix(0.977, -0.212, 0.212, 0.977, 45.864, 53.542)" fill="#5d6313"/>
          <ellipse id="Ellipse_704" data-name="Ellipse 704" cx="0.749" cy="1.436" rx="0.749" ry="1.436" transform="matrix(0.725, -0.688, 0.688, 0.725, 32.092, 36.001)" fill="#5d6313"/>
          <ellipse id="Ellipse_705" data-name="Ellipse 705" cx="0.749" cy="1.436" rx="0.749" ry="1.436" transform="translate(29.348 39.923) rotate(-62.919)" fill="#5d6313"/>
          <ellipse id="Ellipse_706" data-name="Ellipse 706" cx="0.749" cy="1.436" rx="0.749" ry="1.436" transform="translate(25.165 40.391) rotate(-62.919)" fill="#5d6313"/>
          <ellipse id="Ellipse_707" data-name="Ellipse 707" cx="0.749" cy="1.436" rx="0.749" ry="1.436" transform="translate(52.468 47.437) rotate(-62.919)" fill="#5d6313"/>
          <ellipse id="Ellipse_708" data-name="Ellipse 708" cx="0.749" cy="1.436" rx="0.749" ry="1.436" transform="translate(31.147 32.202) rotate(-45)" fill="#5d6313"/>
          <ellipse id="Ellipse_709" data-name="Ellipse 709" cx="0.749" cy="1.436" rx="0.749" ry="1.436" transform="translate(27.337 44.625) rotate(-80.243)" fill="#5d6313"/>
          <ellipse id="Ellipse_710" data-name="Ellipse 710" cx="1.436" cy="0.749" rx="1.436" ry="0.749" transform="matrix(0.99, -0.142, 0.142, 0.99, 55.487, 36.511)" fill="#5d6313"/>
          <ellipse id="Ellipse_711" data-name="Ellipse 711" cx="1.436" cy="0.749" rx="1.436" ry="0.749" transform="translate(23.555 44.149) rotate(-5.361)" fill="#5d6313"/>
          <ellipse id="Ellipse_712" data-name="Ellipse 712" cx="1.436" cy="0.749" rx="1.436" ry="0.749" transform="translate(56.18 43.518) rotate(-5.361)" fill="#5d6313"/>
          <ellipse id="Ellipse_713" data-name="Ellipse 713" cx="1.436" cy="0.749" rx="1.436" ry="0.749" transform="translate(54.748 39.983) rotate(-5.361)" fill="#5d6313"/>
          <ellipse id="Ellipse_714" data-name="Ellipse 714" cx="0.749" cy="1.436" rx="0.749" ry="1.436" transform="translate(52.474 44.335) rotate(-57.809)" fill="#5d6313"/>
          <ellipse id="Ellipse_715" data-name="Ellipse 715" cx="1.436" cy="0.749" rx="1.436" ry="0.749" transform="translate(58.383 22.481) rotate(-39.493)" fill="#5d6313"/>
          <ellipse id="Ellipse_716" data-name="Ellipse 716" cx="1.436" cy="0.749" rx="1.436" ry="0.749" transform="translate(59.9 33.681) rotate(-5.361)" fill="#5d6313"/>
          <ellipse id="Ellipse_717" data-name="Ellipse 717" cx="1.436" cy="0.749" rx="1.436" ry="0.749" transform="translate(29.041 52.887) rotate(-39.493)" fill="#5d6313"/>
          <ellipse id="Ellipse_718" data-name="Ellipse 718" cx="1.436" cy="0.749" rx="1.436" ry="0.749" transform="matrix(0.977, -0.212, 0.212, 0.977, 54.685, 32.923)" fill="#5d6313"/>
          <ellipse id="Ellipse_719" data-name="Ellipse 719" cx="1.436" cy="0.749" rx="1.436" ry="0.749" transform="translate(57.474 28.188) rotate(-30)" fill="#5d6313"/>
          <ellipse id="Ellipse_720" data-name="Ellipse 720" cx="1.436" cy="0.749" rx="1.436" ry="0.749" transform="translate(53.084 30.684) rotate(-39.493)" fill="#5d6313"/>
          <ellipse id="Ellipse_721" data-name="Ellipse 721" cx="1.436" cy="0.749" rx="1.436" ry="0.749" transform="translate(50.379 29.753) rotate(-53.932)" fill="#5d6313"/>
          <ellipse id="Ellipse_722" data-name="Ellipse 722" cx="0.749" cy="1.436" rx="0.749" ry="1.436" transform="translate(43.176 28.119)" fill="#5d6313"/>
          <ellipse id="Ellipse_723" data-name="Ellipse 723" cx="0.749" cy="1.436" rx="0.749" ry="1.436" transform="translate(40.693 52.552)" fill="#5d6313"/>
          <ellipse id="Ellipse_724" data-name="Ellipse 724" cx="1.436" cy="0.749" rx="1.436" ry="0.749" transform="translate(28.481 60.517) rotate(-60)" fill="#5d6313"/>
          <ellipse id="Ellipse_725" data-name="Ellipse 725" cx="1.436" cy="0.749" rx="1.436" ry="0.749" transform="matrix(0.858, -0.514, 0.514, 0.858, 25.637, 56.847)" fill="#5d6313"/>
        </g>
      </g>
    </g>
  </g>
</svg>
