<svg xmlns="http://www.w3.org/2000/svg" width="196" height="196" viewBox="0 0 196 196">
  <g id="Group_1964" data-name="Group 1964" transform="translate(-2549 -166)">
    <g id="Group_1936" data-name="Group 1936">
      <g id="Group_1930" data-name="Group 1930" transform="translate(2252 97)">
        <rect id="Rectangle_1254" data-name="Rectangle 1254" width="196" height="196" rx="5" transform="translate(297 69)" fill="#fff"/>
      </g>
    </g>
    <g id="Group_1878" data-name="Group 1878" transform="translate(2332.627 -195.568)">
      <g id="Group_1510" data-name="Group 1510" transform="translate(241.428 392.128)">
        <ellipse id="Ellipse_450" data-name="Ellipse 450" cx="50.157" cy="50.157" rx="50.157" ry="50.157" transform="translate(6.713 18.47)" fill="#569e2b"/>
        <g id="Ellipse_451" data-name="Ellipse 451" transform="translate(0 12.721)" fill="none" stroke="#000" stroke-miterlimit="10" stroke-width="5">
          <ellipse cx="52.403" cy="52.403" rx="52.403" ry="52.403" stroke="none"/>
          <ellipse cx="52.403" cy="52.403" rx="54.903" ry="54.903" fill="none"/>
        </g>
        <g id="Path_1786" data-name="Path 1786" transform="translate(-244.194 -306.665)" fill="#5cbc2a" stroke-miterlimit="10">
          <path d="M 341.565673828125 435.6146240234375 C 320.131591796875 435.6146240234375 305.8287048339844 421.278564453125 299.2106323242188 412.7329711914062 C 296.5284118652344 409.2793273925781 297.1559143066406 404.284423828125 300.6107177734375 401.6001281738281 C 300.9770812988281 401.3147277832031 301.3769226074219 401.0574645996094 301.797607421875 400.8366394042969 L 389.4478149414062 354.9524536132812 C 390.3311157226562 354.4896240234375 391.3229675292969 354.2448120117188 392.3156433105469 354.2448120117188 C 394.6278076171875 354.2448120117188 396.7305603027344 355.5164794921875 397.8032531738281 357.5635375976562 C 398.168212890625 358.2614440917969 398.3944091796875 359.0105895996094 398.4761657714844 359.7913513183594 C 398.9909362792969 364.6717834472656 399.1616821289062 369.6053161621094 398.9836120605469 374.4538269042969 C 398.7386779785156 381.1230773925781 397.8296508789062 387.4397888183594 396.28173828125 393.2284851074219 C 394.3540649414062 400.4376525878906 391.4206848144531 406.8624877929688 387.5631408691406 412.3245544433594 C 383.0121154785156 418.7685241699219 377.1091003417969 423.9619140625 370.0181274414062 427.7604370117188 C 364.9771118164062 430.4605102539062 359.9358825683594 432.4903564453125 355.034423828125 433.7936401367188 C 350.4901428222656 435.001953125 345.9585876464844 435.6146240234375 341.565673828125 435.6146240234375 Z" stroke="none"/>
          <path d="M 341.565673828125 434.1146240234375 C 349.7561645507812 434.1146240234375 359.0159606933594 431.9517822265625 369.309814453125 426.4382019042969 C 398.8985900878906 410.5879821777344 398.55712890625 374.8594665527344 396.9843139648438 359.9475708007812 C 396.9225769042969 359.3579406738281 396.7494201660156 358.7852478027344 396.4746398925781 358.259765625 C 395.2723083496094 355.9653930664062 392.4379272460938 355.0791625976562 390.1434936523438 356.2813720703125 L 302.4948120117188 402.1647338867188 C 302.1558532714844 402.3426818847656 301.83251953125 402.5497741699219 301.5310363769531 402.7846069335938 C 298.7245178222656 404.9652099609375 298.2159423828125 409.0067443847656 300.3965759277344 411.8145446777344 C 306.9212036132812 420.2394409179688 320.8165588378906 434.1146240234375 341.565673828125 434.1146240234375 M 341.565673828125 437.1146240234375 C 319.4916381835938 437.1146240234375 304.8110046386719 422.4141845703125 298.0246887207031 413.6514282226562 C 294.8365173339844 409.5462951660156 295.5826110839844 403.6072998046875 299.6903991699219 400.4156494140625 C 300.1257629394531 400.0765380859375 300.60107421875 399.7706298828125 301.1004028320312 399.5084838867188 L 388.7521362304688 353.62353515625 C 389.8487854003906 353.0488891601562 391.0814208984375 352.7448120117188 392.315673828125 352.7448120117188 C 395.1875610351562 352.7448120117188 397.7993774414062 354.324462890625 399.1318969726562 356.8673095703125 C 399.5855407714844 357.7348327636719 399.866455078125 358.665283203125 399.9679870605469 359.6351623535156 C 400.4900512695312 364.5847473144531 400.6632690429688 369.5897521972656 400.4826049804688 374.5088500976562 C 400.2335205078125 381.290283203125 399.3077087402344 387.7188415527344 397.7308349609375 393.615966796875 C 395.7572021484375 400.9969482421875 392.7485046386719 407.5825500488281 388.7883605957031 413.1898498535156 C 384.1016540527344 419.8259582519531 378.0247192382812 425.1730651855469 370.7264099121094 429.0826721191406 C 365.5831604003906 431.8374938964844 360.433349609375 433.9101867675781 355.4198913574219 435.2432861328125 C 350.7498779296875 436.4850158691406 346.0886535644531 437.1146240234375 341.565673828125 437.1146240234375 Z" stroke="none" fill="#000"/>
        </g>
        <path id="Path_1786-2" data-name="Path 1786" d="M306.469,401.6l80.162-42.174a4.464,4.464,0,0,1,5.9,1.595,3.961,3.961,0,0,1,.507,1.469c1.769,13.04,2.834,44.36-24.22,58.914-33.255,17.887-55.422-1.194-64.091-11.3a5.445,5.445,0,0,1,.86-7.941A5.952,5.952,0,0,1,306.469,401.6Z" transform="translate(-243.277 -305.999)" fill="#fffee3"/>
        <path id="Path_1787" data-name="Path 1787" d="M314.109,398.973l63.873-33.461a8.78,8.78,0,0,1,12.837,6.893c1.111,12.137-1.208,30.416-21.641,41.334-24.811,13.257-44.066,7.365-55.42.627a8.808,8.808,0,0,1,.352-15.394Z" transform="translate(-242.011 -304.821)" fill="#e0e56a"/>
        <g id="Group_1042" data-name="Group 1042" transform="translate(90.934 78.161)">
          <line id="Line_360" data-name="Line 360" x1="17.94" y2="25.544" transform="translate(0 0)" fill="none" stroke="#f4f0c1" stroke-linecap="round" stroke-linejoin="round" stroke-width="3"/>
          <line id="Line_361" data-name="Line 361" x2="6.311" y2="29.34" transform="translate(18.211 0.808)" fill="none" stroke="#f4f0c1" stroke-linecap="round" stroke-linejoin="round" stroke-width="3"/>
          <line id="Line_362" data-name="Line 362" x1="25.82" y1="19.654" transform="translate(17.94 0)" fill="none" stroke="#f4f0c1" stroke-linecap="round" stroke-linejoin="round" stroke-width="3"/>
          <line id="Line_363" data-name="Line 363" x1="34.232" y1="5.604" transform="translate(17.94 0)" fill="none" stroke="#f4f0c1" stroke-linecap="round" stroke-linejoin="round" stroke-width="3"/>
        </g>
        <ellipse id="Ellipse_106" data-name="Ellipse 106" cx="1.146" cy="3.319" rx="1.146" ry="3.319" transform="translate(114.245 81.766) rotate(-63.621)" fill="#ff9d00"/>
        <ellipse id="Ellipse_106-2" data-name="Ellipse 106" cx="4.068" cy="1.405" rx="4.068" ry="1.405" transform="matrix(0.138, -0.99, 0.99, 0.138, 105.262, 90.084)" fill="#ff9d00"/>
        <path id="Path_2836" data-name="Path 2836" d="M297.275,335.2s.236-18.938,17.838-20" transform="translate(-244.566 -315.209)" fill="none" stroke="#000" stroke-linecap="round" stroke-linejoin="round" stroke-width="5"/>
        <ellipse id="Ellipse_457" data-name="Ellipse 457" cx="2.461" cy="2.461" rx="2.461" ry="2.461" transform="translate(16.934 79.809)" fill="#3f771c"/>
        <ellipse id="Ellipse_458" data-name="Ellipse 458" cx="2.461" cy="2.461" rx="2.461" ry="2.461" transform="translate(33.46 82.27)" fill="#3f771c"/>
        <ellipse id="Ellipse_459" data-name="Ellipse 459" cx="2.461" cy="2.461" rx="2.461" ry="2.461" transform="translate(34.507 69.07)" fill="#3f771c"/>
        <ellipse id="Ellipse_460" data-name="Ellipse 460" cx="2.461" cy="2.461" rx="2.461" ry="2.461" transform="translate(17.891 65.409)" fill="#3f771c"/>
        <ellipse id="Ellipse_461" data-name="Ellipse 461" cx="2.461" cy="2.461" rx="2.461" ry="2.461" transform="translate(25.883 93.659)" fill="#3f771c"/>
        <ellipse id="Ellipse_462" data-name="Ellipse 462" cx="2.412" cy="2.412" rx="2.412" ry="2.412" transform="translate(38.647 104.317)" fill="#3f771c"/>
        <ellipse id="Ellipse_463" data-name="Ellipse 463" cx="2.461" cy="2.461" rx="2.461" ry="2.461" transform="translate(47.787 88.168)" fill="#3f771c"/>
        <path id="Path_2837" data-name="Path 2837" d="M267.156,367.48a3.066,3.066,0,0,1-1.073-2.887c1.346-7.8,8.316-23.195,25.051-25.6a3.089,3.089,0,0,1,3.488,2.591,3.03,3.03,0,0,1-2.567,3.462c-16.505,2.372-19.806,19.9-19.938,20.641a3.039,3.039,0,0,1-3.544,2.453A3.09,3.09,0,0,1,267.156,367.48Z" transform="translate(-251.15 -310.202)" fill="#fff"/>
      </g>
    </g>
  </g>
</svg>
