<svg xmlns="http://www.w3.org/2000/svg" width="196" height="196" viewBox="0 0 196 196">
  <g id="Group_1965" data-name="Group 1965" transform="translate(-2765 -166)">
    <g id="Group_1937" data-name="Group 1937">
      <g id="Group_1931" data-name="Group 1931" transform="translate(2468 97)">
        <rect id="Rectangle_1254" data-name="Rectangle 1254" width="196" height="196" rx="5" transform="translate(297 69)" fill="#fff"/>
      </g>
    </g>
    <g id="Group_1879" data-name="Group 1879" transform="translate(2374.138 -177.95)">
      <g id="Group_1214" data-name="Group 1214" transform="translate(-13.178 -7.435)">
        <path id="Path_2832" data-name="Path 2832" d="M459.583,342.041s17.649-24.3,46.507-16.1,45.26,38.159,51.98,46.869,30.947,30.324,24.706,41.58-17.268,20.4-42.765,23.026-64.676,3.129-86.838-42.252C443.559,373.622,452.883,350.411,459.583,342.041Z" transform="translate(-4.789 76.299)" fill="#efa937"/>
        <g id="Path_2833" data-name="Path 2833" transform="translate(-5.395 75.592)" fill="none" stroke-miterlimit="10">
          <path d="M455.743,337.773s17.858-24.784,47.3-16.251,46.3,39.281,53.187,48.228S587.9,400.942,581.6,412.43s-17.489,20.792-43.451,23.354-65.872,2.88-88.675-43.676C439.575,370.016,448.959,346.307,455.743,337.773Z" stroke="none"/>
          <path d="M 490.8399658203125 319.7344970703125 C 468.7435302734375 319.7344970703125 455.7427978515625 337.7734985351562 455.7427978515625 337.7734985351562 C 448.959228515625 346.3069458007812 439.5745849609375 370.0162048339844 449.476318359375 392.1085510253906 C 467.8432006835938 429.6083068847656 497.3076782226562 436.6965637207031 521.6436767578125 436.6965637207031 C 527.520751953125 436.6965637207031 533.10107421875 436.2828979492188 538.1510009765625 435.7843322753906 C 564.11328125 433.222412109375 575.3011474609375 423.9197998046875 581.6023559570312 412.4301452636719 C 587.9035034179688 400.9415588378906 563.1163330078125 378.6988525390625 556.2275390625 369.7501831054688 C 549.3388061523438 360.8026733398438 532.4812622070312 330.055419921875 503.041015625 321.5220031738281 C 498.7158813476562 320.2685241699219 494.6452026367188 319.7344970703125 490.8399658203125 319.7344970703125 M 490.8399658203125 314.7344970703125 C 495.3143920898438 314.7344970703125 499.8877563476562 315.4023742675781 504.4328002929688 316.7196350097656 C 510.7387084960938 318.5473937988281 516.9353637695312 321.4524536132812 522.850830078125 325.3540954589844 C 527.8328857421875 328.64013671875 532.749755859375 332.7246398925781 537.46484375 337.4940795898438 C 545.9387817382812 346.0657043457031 552.304931640625 355.3522338867188 556.5175170898438 361.4973449707031 C 557.9720458984375 363.6190795898438 559.2281494140625 365.4514770507812 560.1893310546875 366.6999206542969 C 561.541259765625 368.4560241699219 563.7652587890625 370.9026489257812 566.340576171875 373.7355651855469 C 571.2791748046875 379.1683654785156 577.425537109375 385.9296569824219 581.7953491210938 392.6415405273438 C 584.364013671875 396.5868835449219 586.0380859375 400.0685424804688 586.9130859375 403.2855224609375 C 588.1026000976562 407.6588439941406 587.790771484375 411.5444946289062 585.9862670898438 414.8345947265625 C 582.0078125 422.0888671875 576.718017578125 427.6210021972656 569.814697265625 431.7470092773438 C 565.9266967773438 434.0707702636719 561.4195556640625 435.9952087402344 556.41845703125 437.466796875 C 551.1962890625 439.0034790039062 545.2154541015625 440.1115112304688 538.6420288085938 440.7601928710938 C 534.5702514648438 441.1621398925781 528.3779296875 441.6965637207031 521.6436767578125 441.6965637207031 C 514.4609375 441.6965637207031 507.94873046875 441.1129150390625 501.7350463867188 439.9122619628906 C 494.3162841796875 438.4788208007812 487.358642578125 436.1268920898438 481.0553588867188 432.9219055175781 C 473.842041015625 429.254150390625 467.2556762695312 424.3569030761719 461.4793701171875 418.3661804199219 C 458.3682250976562 415.1394958496094 455.427001953125 411.5277709960938 452.7374877929688 407.6312866210938 C 449.9366455078125 403.5735168457031 447.3286743164062 399.0908813476562 444.9859619140625 394.307861328125 L 444.948486328125 394.2312927246094 L 444.9136352539062 394.153564453125 C 442.355712890625 388.4464721679688 440.8162841796875 382.2948608398438 440.3380126953125 375.8696594238281 C 439.925537109375 370.3283996582031 440.2997436523438 364.6099853515625 441.4501953125 358.8733215332031 C 442.4351806640625 353.9616394042969 443.946533203125 349.2003173828125 445.9423217773438 344.7215270996094 C 447.6868286132812 340.8066711425781 449.7008056640625 337.3562622070312 451.770263671875 334.7359619140625 C 452.36376953125 333.9376831054688 455.920654296875 329.3180236816406 462.0050048828125 324.7541809082031 C 465.857421875 321.8644714355469 469.9650268554688 319.55712890625 474.2136840820312 317.8962707519531 C 479.5805053710938 315.7982788085938 485.1744384765625 314.7344970703125 490.8399658203125 314.7344970703125 Z" stroke="none" fill="#000"/>
        </g>
        <path id="Path_2834" data-name="Path 2834" d="M464.459,343.6s13.35-18.527,35.356-12.148,34.609,29.363,39.758,36.051,23.679,23.316,18.969,31.905-13.074,15.542-32.481,17.458-49.243,2.152-66.287-32.649C452.372,367.7,459.387,349.979,464.459,343.6Z" transform="translate(-3.613 77.217)" fill="#f2cf37"/>
        <path id="Path_2835" data-name="Path 2835" d="M442.693,310.017s13.886,3.476,20,17.119" transform="translate(-5.784 74.07)" fill="none" stroke="#000" stroke-linecap="round" stroke-linejoin="round" stroke-width="5"/>
        <circle id="Ellipse_452" data-name="Ellipse 452" cx="2.771" cy="2.771" r="2.771" transform="translate(489.174 478.998)" fill="#f57b00"/>
        <circle id="Ellipse_453" data-name="Ellipse 453" cx="2.771" cy="2.771" r="2.771" transform="translate(513.497 481.769)" fill="#f57b00"/>
        <circle id="Ellipse_454" data-name="Ellipse 454" cx="2.771" cy="2.771" r="2.771" transform="translate(543.454 487.953)" fill="#f57b00"/>
        <circle id="Ellipse_455" data-name="Ellipse 455" cx="2.771" cy="2.771" r="2.771" transform="translate(527.514 495.374)" fill="#f57b00"/>
        <circle id="Ellipse_456" data-name="Ellipse 456" cx="2.771" cy="2.771" r="2.771" transform="translate(502.641 494.765)" fill="#f57b00"/>
        <path id="Path_2838" data-name="Path 2838" d="M469.635,342.5a3.3,3.3,0,0,1,1.493-2.952c7.135-4.631,24.356-10.364,38.461,1.076a3.319,3.319,0,0,1,.5,4.64,3.255,3.255,0,0,1-4.6.5c-13.912-11.284-30.137-1.1-30.821-.662a3.263,3.263,0,0,1-4.519-1A3.321,3.321,0,0,1,469.635,342.5Z" transform="translate(-1.566 77.816)" fill="#fff"/>
      </g>
    </g>
  </g>
</svg>
