<svg xmlns="http://www.w3.org/2000/svg" width="196" height="196" viewBox="0 0 196 196">
  <g id="Group_1966" data-name="Group 1966" transform="translate(-2986 -166)">
    <g id="Group_1948" data-name="Group 1948">
      <g id="Group_1932" data-name="Group 1932" transform="translate(2689 97)">
        <rect id="Rectangle_1254" data-name="Rectangle 1254" width="196" height="196" rx="5" transform="translate(297 69)" fill="#fff"/>
      </g>
    </g>
    <g id="Group_1885" data-name="Group 1885" transform="translate(2405.138 -172.248)">
      <g id="Group_1135" data-name="Group 1135" transform="translate(-6.554 67.553)">
        <path id="Path_3198" data-name="Path 3198" d="M665.616,316.17c-24.972,11.675-31.4-12.68-31.4-12.68S655.754,290.428,665.616,316.17Z" transform="translate(1.977 0.449)" fill="#5cbc2a"/>
        <path id="Path_3199" data-name="Path 3199" d="M669.994,317.067c-29.662,13.867-37.293-15.061-37.293-15.061S658.281,286.49,669.994,317.067Z" transform="translate(1.654 0)" fill="none" stroke="#000" stroke-miterlimit="10" stroke-width="3"/>
        <g id="Ellipse_564" data-name="Ellipse 564" transform="translate(624.937 330.539)" fill="none" stroke="#000" stroke-miterlimit="10" stroke-width="5">
          <circle cx="49.049" cy="49.049" r="49.049" stroke="none"/>
          <circle cx="49.049" cy="49.049" r="51.549" fill="none"/>
        </g>
        <circle id="Ellipse_565" data-name="Ellipse 565" cx="46.513" cy="46.513" r="46.513" transform="translate(631.017 334.132)" fill="#ff9d00"/>
        <circle id="Ellipse_566" data-name="Ellipse 566" cx="2.906" cy="2.906" r="2.906" transform="translate(655.097 388.091)" fill="#f57b00"/>
        <circle id="Ellipse_567" data-name="Ellipse 567" cx="2.906" cy="2.906" r="2.906" transform="translate(664.945 399.191)" fill="#f57b00"/>
        <circle id="Ellipse_568" data-name="Ellipse 568" cx="2.906" cy="2.906" r="2.906" transform="translate(658.003 410.231)" fill="#f57b00"/>
        <circle id="Ellipse_569" data-name="Ellipse 569" cx="2.906" cy="2.906" r="2.906" transform="translate(645.083 400.926)" fill="#f57b00"/>
        <circle id="Ellipse_570" data-name="Ellipse 570" cx="2.906" cy="2.906" r="2.906" transform="translate(638.442 385.184)" fill="#f57b00"/>
        <g id="Group_1134" data-name="Group 1134" transform="translate(674.958 360.157)">
          <path id="Path_3200" data-name="Path 3200" d="M732.179,363.785c-9.787-7.455-29.32-1.5-44.879,14.055-15.716,15.715-21.633,35.489-13.83,45.174l0,0,.029.03a13.784,13.784,0,0,0,.941,1.057,13.511,13.511,0,0,0,1.289,1.118c12.665,11.478,31.839,11.758,43.232,8.713,14.5-3.876,24.624-15.579,28.027-28.9C753.367,380.062,732.179,363.785,732.179,363.785Z" transform="translate(-664.841 -354.997)" fill="#f57b00" stroke="#000" stroke-linecap="round" stroke-linejoin="round" stroke-width="3"/>
          <ellipse id="Ellipse_571" data-name="Ellipse 571" cx="37.157" cy="20.499" rx="37.157" ry="20.499" transform="translate(0 52.548) rotate(-45)" fill="#ff9d00"/>
          <ellipse id="Ellipse_572" data-name="Ellipse 572" cx="31.703" cy="17.49" rx="31.703" ry="17.49" transform="translate(5.204 50.427) rotate(-45)" fill="#ffca85"/>
          <line id="Line_372" data-name="Line 372" y1="48.761" x2="47.946" transform="translate(14.997 15.9)" fill="none" stroke="#ff9d00" stroke-miterlimit="10" stroke-width="3"/>
          <line id="Line_373" data-name="Line 373" x2="43.227" y2="5.529" transform="translate(18.618 36.804)" fill="none" stroke="#ff9d00" stroke-miterlimit="10" stroke-width="3"/>
          <line id="Line_374" data-name="Line 374" x1="3.85" y2="48.38" transform="translate(38.379 16.579)" fill="none" stroke="#ff9d00" stroke-miterlimit="10" stroke-width="3"/>
        </g>
        <path id="Path_3201" data-name="Path 3201" d="M665.372,332.876s.237-18.973,17.871-20.033" transform="translate(8.614 3.147)" fill="none" stroke="#000" stroke-linecap="round" stroke-linejoin="round" stroke-width="5"/>
        <path id="Path_3202" data-name="Path 3202" d="M646.672,304.412s14.778,5.3,24.021,16.527" transform="translate(4.63 1.351)" fill="none" stroke="#000" stroke-linecap="round" stroke-linejoin="round" stroke-width="3"/>
        <path id="Path_3203" data-name="Path 3203" d="M636.461,363.751a3.078,3.078,0,0,1-1.075-2.892c1.35-7.817,8.332-23.238,25.1-25.647a3.1,3.1,0,0,1,3.5,2.6,3.034,3.034,0,0,1-2.572,3.468c-16.536,2.376-19.843,19.934-19.975,20.681a3.044,3.044,0,0,1-3.551,2.456A3.089,3.089,0,0,1,636.461,363.751Z" transform="translate(2.216 7.905)" fill="#fff"/>
      </g>
    </g>
  </g>
</svg>
