<svg xmlns="http://www.w3.org/2000/svg" width="196" height="196" viewBox="0 0 196 196">
  <g id="Group_1967" data-name="Group 1967" transform="translate(-3202 -166)">
    <g id="Group_1949" data-name="Group 1949">
      <g id="Group_1933" data-name="Group 1933" transform="translate(2905 97)">
        <rect id="Rectangle_1254" data-name="Rectangle 1254" width="196" height="196" rx="5" transform="translate(297 69)" fill="#fff"/>
      </g>
    </g>
    <g id="Group_1899" data-name="Group 1899" transform="translate(2432.904 -186.74)">
      <g id="Group_1514" data-name="Group 1514" transform="translate(799.4 382.74)">
        <g id="Group_1447" data-name="Group 1447">
          <path id="Path_3798" data-name="Path 3798" d="M890.255,320.255c-1.359,28.643-27.019,27.453-27.019,27.453S861.636,322.07,890.255,320.255Z" transform="translate(-803.715 -310.347)" fill="#5cbc2a"/>
          <path id="Path_3799" data-name="Path 3799" d="M893.182,317.121c-1.613,34.022-32.093,32.609-32.093,32.609S859.19,319.276,893.182,317.121Z" transform="translate(-804.253 -311.131)" fill="none" stroke="#000" stroke-miterlimit="10" stroke-width="3"/>
          <path id="Path_3800" data-name="Path 3800" d="M832.516,319.347c29.3-.431,30.7,25.669,30.7,25.669S837.277,348.257,832.516,319.347Z" transform="translate(-811.397 -310.576)" fill="#5cbc2a"/>
          <path id="Path_3801" data-name="Path 3801" d="M828.543,317.114c35.024-.323,36.87,30.831,36.87,30.831S834.425,351.643,828.543,317.114Z" transform="translate(-812.391 -311.133)" fill="none" stroke="#000" stroke-miterlimit="10" stroke-width="3"/>
          <path id="Path_3802" data-name="Path 3802" d="M862.94,351.009s.753-28.09-13.207-38.679" transform="translate(-807.089 -312.33)" fill="none" stroke="#000" stroke-linecap="round" stroke-miterlimit="10" stroke-width="5"/>
          <g id="Path_3803" data-name="Path 3803" transform="translate(-815.623 -306.578)" fill="#fff" stroke-miterlimit="10">
            <path d="M 878.3532104492188 433.3533630371094 L 877.5621337890625 433.1873474121094 C 877.4291381835938 433.1594543457031 874.2479858398438 432.4861755371094 869.3211669921875 430.9537353515625 C 864.7913208007812 429.5447998046875 857.8610229492188 427.1078186035156 850.5700073242188 423.4994201660156 C 842.3219604492188 419.4173889160156 835.297607421875 414.6963195800781 829.692138671875 409.4673461914062 C 822.5795288085938 402.8324584960938 817.73779296875 395.357177734375 815.3013916015625 387.2491760253906 C 812.8966064453125 379.2469482421875 812.4839477539062 371.7180480957031 814.0748901367188 364.8716430664062 C 815.3825073242188 359.24462890625 818.0390625 354.0689697265625 821.970703125 349.4884338378906 C 825.0723876953125 345.8748474121094 830.6058959960938 340.7630004882812 839.353515625 336.9311828613281 C 839.423095703125 336.9007263183594 839.4840087890625 336.8740234375 839.535888671875 336.8510437011719 C 840.773681640625 336.3030395507812 844.5692138671875 335.4337463378906 849.4852905273438 335.4337463378906 C 855.1551513671875 335.4337463378906 863.3531494140625 336.5761108398438 871.084228515625 341.821044921875 C 871.2200317382812 341.7269592285156 871.354736328125 341.6355895996094 871.4891967773438 341.5463256835938 C 880.2156372070312 335.7554626464844 888.7117919921875 332.8194580078125 896.7423095703125 332.8194580078125 C 900.922119140625 332.8194580078125 904.9999389648438 333.6180114746094 908.8624267578125 335.1929321289062 C 912.0719604492188 336.5016174316406 915.1585693359375 338.3561401367188 918.0364379882812 340.7050476074219 C 923.10302734375 344.8402709960938 926.297607421875 349.4686279296875 927.7508544921875 351.8594665527344 C 928.9334716796875 353.8043518066406 930.5889892578125 358.1223754882812 931.3622436523438 363.8900146484375 C 931.7972412109375 367.1350402832031 931.901611328125 370.4636840820312 931.6724243164062 373.7835083007812 C 931.4011840820312 377.7131042480469 930.6593017578125 381.6392211914062 929.4672241210938 385.4527893066406 C 926.7432861328125 394.1674194335938 921.6787109375 402.3492736816406 914.4141235351562 409.7710876464844 C 910.2535400390625 414.021728515625 905.3118896484375 418.0712890625 899.7265625 421.8072204589844 C 893.6902465820312 425.8447875976562 886.7477416992188 429.6189270019531 879.0917358398438 433.0248413085938 L 878.3532104492188 433.3533630371094 Z" stroke="none"/>
            <path d="M 896.7423095703125 335.3194274902344 C 889.953857421875 335.3189697265625 881.9987182617188 337.5725402832031 872.8721313476562 343.6289672851562 C 872.2545776367188 344.0390625 871.6732177734375 344.4716186523438 871.108154296875 344.9141235351562 C 858.0986328125 335.0525817871094 842.54736328125 338.2518615722656 840.5481567382812 339.136962890625 C 837.64013671875 340.4246826171875 807.5790405273438 352.8654174804688 817.6956176757812 386.5297241210938 C 827.8110961914062 420.1926879882812 878.0755615234375 430.7406616210938 878.0755615234375 430.7406616210938 C 942.7598266601562 401.9647827148438 929.2589111328125 359.1514892578125 925.6145629882812 353.1580200195312 C 923.0260620117188 348.8995971679688 913.4034423828125 335.320556640625 896.7423095703125 335.3194274902344 M 896.7401733398438 330.3194580078125 L 896.7401733398438 335.3194580078125 L 896.7407836914062 330.3194580078125 C 901.24755859375 330.3197326660156 905.6428833007812 331.1807556152344 909.806396484375 332.8784790039062 C 913.2459716796875 334.281005859375 916.5468139648438 336.2627563476562 919.6171875 338.7685852050781 C 924.9734497070312 343.14013671875 928.3507080078125 348.0332336425781 929.8871459960938 350.5609130859375 C 931.2578735351562 352.8151245117188 933.016357421875 357.4136962890625 933.8400268554688 363.5578002929688 C 934.2974243164062 366.9696044921875 934.4072875976562 370.4679565429688 934.16650390625 373.9556274414062 C 933.8818359375 378.0797729492188 933.1036376953125 382.1988830566406 931.8533935546875 386.1985778808594 C 929.010498046875 395.2937316894531 923.7442016601562 403.8130493164062 916.2007446289062 411.519775390625 C 911.9198608398438 415.8933410644531 906.8447875976562 420.0536499023438 901.1165161132812 423.8852233886719 C 894.9620971679688 428.0018005371094 887.8937377929688 431.8453063964844 880.1078491210938 435.3090209960938 L 878.6307983398438 435.9660949707031 L 877.0486450195312 435.6340637207031 C 876.5101928710938 435.5210571289062 863.6972045898438 432.7856140136719 849.4610595703125 425.7400512695312 C 840.9950561523438 421.5501403808594 833.7700805664062 416.6902770996094 827.98681640625 411.29541015625 C 820.546142578125 404.3545532226562 815.47265625 396.5062866210938 812.9071655273438 387.9686279296875 C 810.3753051757812 379.5436096191406 809.9489135742188 371.5822448730469 811.6397705078125 364.3058471679688 C 813.0394897460938 358.2825317382812 815.8770141601562 352.7494201660156 820.0736694335938 347.8601989746094 C 823.3447875976562 344.0491943359375 829.1709594726562 338.6622619628906 838.3504028320312 334.6412658691406 C 838.41650390625 334.6123046875 838.4744262695312 334.5869445800781 838.523681640625 334.5651550292969 C 840.298583984375 333.7793273925781 844.4856567382812 332.9337463378906 849.4852905273438 332.9337463378906 C 855.1697387695312 332.9337463378906 863.2490234375 334.0176696777344 871.06982421875 338.8348693847656 C 879.8796997070312 333.1831970214844 888.5105590820312 330.3194580078125 896.7401733398438 330.3194580078125 Z" stroke="none" fill="#000"/>
          </g>
          <path id="Path_3804" data-name="Path 3804" d="M868.849,429.91s-34.1-63.189-3.812-83.29,47.174,3.4,50.674,9.155S931,402.262,868.849,429.91Z" transform="translate(-806.397 -305.748)" fill="#ee756a"/>
          <path id="Path_3805" data-name="Path 3805" d="M877.2,429.408s-46.39-9.729-56.109-42.072,19.163-44.3,21.957-45.534,33.143-7.18,43.443,27.651S877.2,429.408,877.2,429.408Z" transform="translate(-814.752 -305.245)" fill="#fb957c"/>
          <g id="Group_1446" data-name="Group 1446" transform="translate(65.529 61.962)">
            <path id="Path_3806" data-name="Path 3806" d="M874.628,381.067a5.688,5.688,0,0,0-6.514,5.945c.723,13.952,6.391,44.133,41.909,44.133,46.194,0,42.292-38.415,42.292-38.415Z" transform="translate(-868.021 -357.11)" fill="#fb957c"/>
            <path id="Path_3807" data-name="Path 3807" d="M877.779,416.95s15.187-49.376,45.619-44.895,26.957,24.325,25.714,28.884S932.21,432.939,877.779,416.95Z" transform="translate(-865.601 -359.421)" fill="#fce5c6"/>
            <path id="Path_3808" data-name="Path 3808" d="M880.216,419.421s-21.369-23.851-7.495-43.185,37.455-13.706,39.784-13.2,23.141,9.592,8.108,30.346S880.216,419.421,880.216,419.421Z" transform="translate(-868.038 -361.892)" fill="#fce5c6"/>
            <path id="Path_3809" data-name="Path 3809" d="M891.965,403.952s-7.087-19.146,7.61-28.913c13.113-8.764,23.748,5.83,23.748,5.83S927.051,407.758,891.965,403.952Z" transform="translate(-862.479 -359.303)" fill="#f9ce9b"/>
            <path id="Path_3810" data-name="Path 3810" d="M920.465,374.463" transform="translate(-854.921 -358.746)" fill="none" stroke="#000" stroke-miterlimit="10" stroke-width="5"/>
            <path id="Path_3811" data-name="Path 3811" d="M895.547,396.666s-5.346-13.851,5.568-20.855c9.738-6.282,17.71,4.294,17.71,4.294S921.7,399.538,895.547,396.666Z" transform="translate(-861.483 -358.907)" fill="#926353"/>
          </g>
          <g id="Path_3812" data-name="Path 3812" transform="translate(-802.5 -299.929)" fill="none" stroke-linecap="round" stroke-linejoin="round">
            <path d="M952.362,397.52c.048-7.716-3.756-19.646-26.5-22.994-.235-.035-.468-.056-.7-.085-2.772-7.529-11.193-11.1-12.627-11.406-2.329-.505-25.912-6.132-39.784,13.2a25.244,25.244,0,0,0-4.3,19.267c1.554,14.96,8.988,40.423,41.617,40.423C956.034,435.927,952.4,397.9,952.362,397.52Z" stroke="none"/>
            <path d="M 910.0690307617188 435.9266052246094 C 956.0339965820312 435.9266052246094 952.3997192382812 397.8991394042969 952.3621215820312 397.5203857421875 C 952.4097290039062 389.8041076660156 948.6065063476562 377.8746643066406 925.8628540039062 374.5265808105469 C 925.6278076171875 374.4916076660156 925.3953247070312 374.4703369140625 925.1602783203125 374.4415893554688 C 922.3885498046875 366.912841796875 913.9672241210938 363.3460083007812 912.5331420898438 363.0360107421875 C 910.2041015625 362.5308837890625 886.6213989257812 356.9036865234375 872.7492065429688 376.2368774414062 C 868.2498168945312 382.5079345703125 867.4684448242188 389.250244140625 868.4522705078125 395.5037841796875 C 870.0062866210938 410.4637451171875 877.4400024414062 435.9266052246094 910.0690307617188 435.9266052246094 M 910.0690307617188 438.9266052246094 C 901.9631958007812 438.9266052246094 894.7708129882812 437.4051208496094 888.6917114257812 434.4044189453125 C 883.3550415039062 431.7702026367188 878.816162109375 427.9724426269531 875.201171875 423.1166687011719 C 872.2279663085938 419.1229858398438 869.85986328125 414.3864440917969 868.16259765625 409.0386047363281 C 866.8671875 404.9569396972656 865.9635620117188 400.5341491699219 865.4763793945312 395.8910827636719 C 864.905517578125 392.2086181640625 864.9471435546875 388.646484375 865.6001586914062 385.302001953125 C 866.3561401367188 381.4300842285156 867.9413452148438 377.7917175292969 870.3117065429688 374.4880065917969 C 874.4841918945312 368.6730346679688 879.863037109375 364.4100036621094 886.299072265625 361.8171997070312 C 891.1177368164062 359.8759460449219 896.4647216796875 358.8916625976562 902.1915283203125 358.8916625976562 C 905.8247680664062 358.8916625976562 909.4697265625 359.2890014648438 913.0252075195312 360.0726318359375 L 913.1690063476562 360.1041870117188 C 914.3333740234375 360.3558654785156 917.1380615234375 361.4916076660156 920.0840454101562 363.587158203125 C 923.2894287109375 365.8672485351562 925.735595703125 368.6468811035156 927.2440795898438 371.7039489746094 C 937.5652465820312 373.3642578125 945.1943969726562 376.9672241210938 949.9251098632812 382.4192810058594 C 951.9279174804688 384.7274475097656 953.4009399414062 387.3613891601562 954.3033447265625 390.2479553222656 C 955.0078125 392.5013122558594 955.364013671875 394.9046325683594 955.362548828125 397.3934631347656 C 955.5147705078125 399.2541198730469 956.3809204101562 414.2975463867188 945.91845703125 425.8501281738281 C 942.2769165039062 429.87109375 937.6558837890625 433.0134887695312 932.1837768554688 435.18994140625 C 925.9497680664062 437.6694030761719 918.5093383789062 438.9266052246094 910.0690307617188 438.9266052246094 Z" stroke="none" fill="#000"/>
          </g>
          <path id="Path_3813" data-name="Path 3813" d="M829.974,386.078a3.166,3.166,0,0,1-2.469-2c-2.9-7.645-4.788-24.989,8.826-35.915a3.19,3.19,0,0,1,4.462.471,3.129,3.129,0,0,1-.464,4.426c-13.429,10.777-7.159,28.09-6.885,28.822a3.136,3.136,0,0,1-1.862,4.041A3.187,3.187,0,0,1,829.974,386.078Z" transform="translate(-813.169 -303.54)" fill="#fff"/>
        </g>
      </g>
    </g>
  </g>
</svg>
