<svg xmlns="http://www.w3.org/2000/svg" width="144.707" height="130.496" viewBox="0 0 144.707 130.496">
  <g id="Group_1515" data-name="Group 1515" transform="translate(-794.402 -379.237)">
    <g id="Group_1514" data-name="Group 1514">
      <g id="Group_1447" data-name="Group 1447" transform="translate(-16.224 70.41)">
        <path id="Path_3798" data-name="Path 3798" d="M887.868,320.255c-1.239,26.115-24.635,25.03-24.635,25.03S861.776,321.91,887.868,320.255Z" transform="translate(6.657 1.108)" fill="#5cbc2a"/>
        <path id="Path_3799" data-name="Path 3799" d="M890.347,317.121c-1.47,31.019-29.26,29.731-29.26,29.731S859.356,319.086,890.347,317.121Z" transform="translate(6.356 0.67)" fill="none" stroke="#000" stroke-miterlimit="10" stroke-width="3"/>
        <path id="Path_3800" data-name="Path 3800" d="M832.516,319.347c26.71-.393,27.987,23.4,27.987,23.4S836.856,345.7,832.516,319.347Z" transform="translate(2.363 0.981)" fill="#5cbc2a"/>
        <path id="Path_3801" data-name="Path 3801" d="M828.543,317.114c31.933-.294,33.615,28.11,33.615,28.11S833.906,348.595,828.543,317.114Z" transform="translate(1.807 0.669)" fill="none" stroke="#000" stroke-miterlimit="10" stroke-width="3"/>
        <path id="Path_3802" data-name="Path 3802" d="M861.774,347.595s.686-25.61-12.042-35.265" transform="translate(4.771 0)" fill="none" stroke="#000" stroke-linecap="round" stroke-miterlimit="10" stroke-width="5"/>
        <g id="Path_3803" data-name="Path 3803" transform="translate(0 3.215)" fill="#fff" stroke-miterlimit="10">
          <path d="M 872.8409423828125 424.93115234375 L 872.0498657226562 424.7651672363281 C 871.9281616210938 424.7396240234375 869.0179443359375 424.1236572265625 864.5160522460938 422.7234497070312 C 860.37841796875 421.4364624023438 854.0480346679688 419.21044921875 847.3875732421875 415.9141235351562 C 839.8482666015625 412.182861328125 833.42626953125 407.8662414550781 828.2998657226562 403.0841674804688 C 821.7860717773438 397.0079040527344 817.3511962890625 390.1594848632812 815.1184692382812 382.7291870117188 C 812.9146728515625 375.3958740234375 812.5372924804688 368.4932861328125 813.9966430664062 362.2131958007812 C 815.197021484375 357.0478210449219 817.6350708007812 352.2974243164062 821.2431640625 348.0939331054688 C 824.0860595703125 344.7818908691406 829.1570434570312 340.0969848632812 837.1705322265625 336.5867919921875 C 837.233642578125 336.5591430664062 837.2889404296875 336.534912109375 837.3359985351562 336.5140991210938 C 838.48095703125 336.0071716308594 841.9802856445312 335.2029724121094 846.4965209960938 335.2029724121094 C 851.667236328125 335.2029724121094 859.1299438476562 336.2387390136719 866.1879272460938 340.9801330566406 C 866.2709350585938 340.9234008789062 866.3536376953125 340.8677368164062 866.4362182617188 340.8128662109375 C 874.4292602539062 335.5086975097656 882.2166137695312 332.8194274902344 889.5824584960938 332.8194274902344 C 893.422119140625 332.8194274902344 897.1680297851562 333.5530090332031 900.7161865234375 334.999755859375 C 903.6627197265625 336.2012329101562 906.4957885742188 337.9033203125 909.1366577148438 340.0587158203125 C 913.7816162109375 343.8498229980469 916.7103271484375 348.0930480957031 918.0426635742188 350.2849731445312 C 919.1319580078125 352.0763854980469 920.6559448242188 356.0465698242188 921.3654174804688 361.3389587402344 C 921.7639770507812 364.3122863769531 921.8596801757812 367.3620910644531 921.6497192382812 370.4037170410156 C 921.4012451171875 374.0036315917969 920.7215576171875 377.6002502441406 919.629638671875 381.0936279296875 C 917.1356201171875 389.0726623535156 912.500244140625 396.5621643066406 905.8522338867188 403.3540649414062 C 902.0482177734375 407.2403869628906 897.531005859375 410.9422607421875 892.426025390625 414.3569030761719 C 886.9120483398438 418.0451049804688 880.5711669921875 421.4922485351562 873.5794677734375 424.6026306152344 L 872.8409423828125 424.93115234375 Z" stroke="none"/>
          <path d="M 889.5824584960938 335.3194274902344 C 883.3931884765625 335.3190002441406 876.1401977539062 337.3736877441406 867.8191528320312 342.8955383300781 C 867.256103515625 343.2694091796875 866.72607421875 343.663818359375 866.2108764648438 344.0672607421875 C 854.3494873046875 335.0760803222656 840.1707763671875 337.9930725097656 838.3482055664062 338.8000183105469 C 835.6968383789062 339.9740600585938 808.2890625 351.3167724609375 817.5126953125 382.0097351074219 C 826.7353515625 412.7015075683594 872.5632934570312 422.3184509277344 872.5632934570312 422.3184509277344 C 931.538330078125 396.0824279785156 919.2290649414062 357.0480041503906 915.9063720703125 351.5835266113281 C 913.5463256835938 347.7009582519531 904.7730712890625 335.3204345703125 889.5824584960938 335.3194274902344 M 889.58056640625 330.3194274902344 L 889.58056640625 335.3194274902344 L 889.5811157226562 330.3194274902344 C 893.74755859375 330.3197021484375 897.8109741210938 331.1156921386719 901.66015625 332.6852416992188 C 904.8367309570312 333.9805603027344 907.884033203125 335.809814453125 910.7173461914062 338.1222534179688 C 915.6519165039062 342.1495666503906 918.763427734375 346.6576538085938 920.178955078125 348.9863891601562 C 921.4518432617188 351.079833984375 923.083251953125 355.33740234375 923.84326171875 361.0068054199219 C 924.2642211914062 364.1469116210938 924.3652954101562 367.3663940429688 924.143798828125 370.5758666992188 C 923.8818359375 374.370361328125 923.1658935546875 378.1600036621094 922.0158081054688 381.8395080566406 C 919.40283203125 390.1990966796875 914.565673828125 398.0259704589844 907.6387939453125 405.1028137207031 C 903.7145385742188 409.1119995117188 899.0638427734375 412.9246826171875 893.81591796875 416.4349365234375 C 888.183837890625 420.2021179199219 881.7172241210938 423.7186279296875 874.5955810546875 426.8867797851562 L 873.1185302734375 427.5438842773438 L 871.536376953125 427.2118835449219 C 871.043212890625 427.1083679199219 859.3079833984375 424.60302734375 846.2786865234375 418.1547241210938 C 838.521484375 414.3156127929688 831.8987426757812 409.8601989746094 826.5945434570312 404.9122619628906 C 819.7527465820312 398.5299987792969 815.0860595703125 391.3085632324219 812.7242431640625 383.4486389160156 C 810.3934326171875 375.6925659179688 810.002197265625 368.3575439453125 811.5615234375 361.6473999023438 C 812.8539428710938 356.0857849121094 815.4730224609375 350.9779357910156 819.3460693359375 346.4657592773438 C 822.3583984375 342.9562683105469 827.7220458984375 337.9962768554688 836.1674194335938 334.296875 C 836.22705078125 334.2707214355469 836.279296875 334.2478637695312 836.32373046875 334.2281799316406 C 837.98291015625 333.4935607910156 841.8739013671875 332.7029724121094 846.4965209960938 332.7029724121094 C 851.6815185546875 332.7029724121094 859.0279541015625 333.6815795898438 866.1707153320312 338.0042724609375 C 874.1947021484375 332.9035339355469 882.0641479492188 330.3194274902344 889.58056640625 330.3194274902344 Z" stroke="none" fill="#000"/>
        </g>
        <path id="Path_3804" data-name="Path 3804" d="M867.406,421.854s-31.092-57.612-3.475-75.938,43.01,3.1,46.2,8.347S924.068,396.646,867.406,421.854Z" transform="translate(5.157 3.679)" fill="#ee756a"/>
        <path id="Path_3805" data-name="Path 3805" d="M872.076,421.574s-42.3-8.87-51.157-38.358,17.472-40.387,20.019-41.515,30.218-6.546,39.609,25.21S872.076,421.574,872.076,421.574Z" transform="translate(0.487 3.96)" fill="#fb957c"/>
        <g id="Group_1446" data-name="Group 1446" transform="translate(875.368 368.823)">
          <path id="Path_3806" data-name="Path 3806" d="M874.052,381.061a5.186,5.186,0,0,0-5.939,5.42c.659,12.721,5.827,40.238,38.21,40.238,42.117,0,38.559-35.024,38.559-35.024Z" transform="translate(-868.028 -359.219)" fill="#fb957c"/>
          <path id="Path_3807" data-name="Path 3807" d="M877.779,412.962s13.847-45.017,41.592-40.932,24.578,22.178,23.445,26.334S927.406,427.54,877.779,412.962Z" transform="translate(-866.676 -360.51)" fill="#fce5c6"/>
          <path id="Path_3808" data-name="Path 3808" d="M879.141,414.344s-19.482-21.746-6.833-39.373,34.149-12.5,36.273-12.036,21.1,8.745,7.392,27.668S879.141,414.344,879.141,414.344Z" transform="translate(-868.038 -361.892)" fill="#fce5c6"/>
          <path id="Path_3809" data-name="Path 3809" d="M891.814,401.153s-6.462-17.456,6.938-26.361c11.956-7.99,21.651,5.315,21.651,5.315S923.8,404.623,891.814,401.153Z" transform="translate(-864.93 -360.445)" fill="#f9ce9b"/>
          <path id="Path_3810" data-name="Path 3810" d="M920.465,374.463" transform="translate(-860.706 -360.133)" fill="none" stroke="#000" stroke-miterlimit="10" stroke-width="5"/>
          <path id="Path_3811" data-name="Path 3811" d="M895.431,394.65s-4.874-12.628,5.077-19.014c8.878-5.728,16.147,3.915,16.147,3.915S919.273,397.268,895.431,394.65Z" transform="translate(-864.374 -360.224)" fill="#926353"/>
        </g>
        <g id="Path_3812" data-name="Path 3812" transform="translate(7.336 6.932)" fill="none" stroke-linecap="round" stroke-linejoin="round">
          <path d="M944.923,394.376c.043-7.035-3.424-17.912-24.16-20.964-.214-.032-.426-.051-.641-.077-2.527-6.864-10.205-10.116-11.513-10.4-2.123-.461-23.625-5.591-36.272,12.036a23.015,23.015,0,0,0-3.918,17.566c1.417,13.64,8.194,36.855,37.943,36.855C948.271,429.392,944.957,394.721,944.923,394.376Z" stroke="none"/>
          <path d="M 906.362548828125 429.3920593261719 C 948.2705688476562 429.3920593261719 944.95703125 394.7210083007812 944.9227905273438 394.3756713867188 C 944.9661254882812 387.3404541015625 941.4986572265625 376.4639587402344 920.7623901367188 373.411376953125 C 920.548095703125 373.3794860839844 920.3361206054688 373.360107421875 920.121826171875 373.3338928222656 C 917.5947265625 366.4696655273438 909.9166870117188 363.2176513671875 908.6091918945312 362.9349975585938 C 906.4857177734375 362.4744873046875 884.9845581054688 357.343994140625 872.3367309570312 374.9707336425781 C 868.2344360351562 380.6882629394531 867.5220336914062 386.8354797363281 868.4190673828125 392.5370788574219 C 869.8358764648438 406.1766052246094 876.6134643554688 429.3920593261719 906.362548828125 429.3920593261719 M 906.362548828125 432.3920593261719 C 898.93115234375 432.3920593261719 892.3341674804688 430.9956665039062 886.7548217773438 428.2416381835938 C 881.851318359375 425.8212280273438 877.6810302734375 422.3319702148438 874.35986328125 417.8708801269531 C 871.6314697265625 414.2060241699219 869.4589233398438 409.8612670898438 867.9025268554688 404.9573364257812 C 866.7167358398438 401.2209777832031 865.889404296875 397.1728515625 865.4432373046875 392.9244079589844 C 864.9190063476562 389.5387878417969 864.9578247070312 386.2625732421875 865.5587768554688 383.1849975585938 C 866.25537109375 379.6171875 867.7156982421875 376.2651062011719 869.8992309570312 373.2218322753906 C 873.733154296875 367.878662109375 878.6763916015625 363.961181640625 884.5916748046875 361.5781860351562 C 889.0166625976562 359.7955322265625 893.9249877929688 358.8916625976562 899.1803588867188 358.8916625976562 C 902.511962890625 358.8916625976562 905.8543701171875 359.2559814453125 909.1146850585938 359.9745483398438 L 909.2449951171875 360.0031433105469 C 910.3279418945312 360.2372741699219 912.9287109375 361.2880554199219 915.6470947265625 363.2217407226562 C 918.5626831054688 365.2957153320312 920.798828125 367.8198547363281 922.1980590820312 370.5981750488281 C 931.6028442382812 372.1317443847656 938.5665283203125 375.4386596679688 942.90087890625 380.4339294433594 C 944.7509155273438 382.5660705566406 946.1116333007812 384.9992980957031 946.9453735351562 387.6661071777344 C 947.5947265625 389.7432250976562 947.9235229492188 391.9574279785156 947.9232177734375 394.2499084472656 C 948.0660400390625 396.0213317871094 948.829833984375 409.799560546875 939.2428588867188 420.3840942382812 C 935.895263671875 424.0800170898438 931.6490478515625 426.9676818847656 926.6221313476562 428.9669189453125 C 920.9073486328125 431.2396545410156 914.091064453125 432.3920593261719 906.362548828125 432.3920593261719 Z" stroke="none" fill="#000"/>
        </g>
        <path id="Path_3813" data-name="Path 3813" d="M829.573,382.67a2.886,2.886,0,0,1-2.251-1.826c-2.645-6.97-4.366-22.783,8.047-32.745a2.908,2.908,0,0,1,4.068.43,2.852,2.852,0,0,1-.423,4.035c-12.243,9.826-6.527,25.61-6.277,26.278a2.859,2.859,0,0,1-1.7,3.684A2.905,2.905,0,0,1,829.573,382.67Z" transform="translate(1.372 4.913)" fill="#fff"/>
      </g>
    </g>
  </g>
</svg>
