<svg xmlns="http://www.w3.org/2000/svg" width="196" height="196" viewBox="0 0 196 196">
  <g id="Group_1969" data-name="Group 1969" transform="translate(-3639 -166)">
    <g id="Group_1951" data-name="Group 1951">
      <g id="Group_1939" data-name="Group 1939" transform="translate(3342 97)">
        <rect id="Rectangle_1254" data-name="Rectangle 1254" width="196" height="196" rx="5" transform="translate(297 69)" fill="#fff"/>
      </g>
    </g>
    <g id="Group_1867" data-name="Group 1867" transform="translate(2495.927 -178.742)">
      <g id="Group_1517" data-name="Group 1517" transform="translate(1201.456 370.742)">
        <path id="Path_2571" data-name="Path 2571" d="M1209.857,322.568s27.729-10.35,44.074,10.932c-5.368,15.581-5.328,10.9-5.328,10.9S1244.565,332.673,1209.857,322.568Z" transform="translate(-1209.857 -289.302)" fill="#3c9900"/>
        <path id="Path_2572" data-name="Path 2572" d="M1286.835,322.568s-27.729-10.35-44.074,10.932c5.368,15.581,5.328,10.9,5.328,10.9S1252.127,332.673,1286.835,322.568Z" transform="translate(-1207.601 -289.302)" fill="#3c9900"/>
        <path id="Path_2573" data-name="Path 2573" d="M1215.049,303.815s29.593-.579,37.964,24.916c-10.227,12.923-8.638,8.52-8.638,8.52S1244.45,324.849,1215.049,303.815Z" transform="translate(-1209.501 -290.415)" fill="#3c9900"/>
        <path id="Path_2574" data-name="Path 2574" d="M1228.985,293.069s27.346,11.325,24.8,38.038c-14.548,7.744-11.328,4.345-11.328,4.345S1247.5,324.12,1228.985,293.069Z" transform="translate(-1208.545 -291.152)" fill="#3c9900"/>
        <path id="Path_2575" data-name="Path 2575" d="M1281.195,301.809s-29.593-.579-37.965,24.916c10.227,12.923,8.638,8.52,8.638,8.52S1251.794,322.843,1281.195,301.809Z" transform="translate(-1207.568 -290.553)" fill="#3c9900"/>
        <path id="Path_2576" data-name="Path 2576" d="M1267.077,293.974s-27.792,10.184-26.354,36.979c14.214,8.339,11.139,4.811,11.139,4.811S1247.3,324.232,1267.077,293.974Z" transform="translate(-1207.744 -291.09)" fill="#3c9900"/>
        <g id="Path_2577" data-name="Path 2577" transform="translate(-1209.857 -291.275)" fill="none" stroke-linecap="round" stroke-linejoin="round">
          <path d="M1259.645,322.549c4.106-5.542,11.276-12.947,23.838-21.934a48.477,48.477,0,0,0-22.726,6.1,150.125,150.125,0,0,1,8.432-14.472s-11.881,4.358-19.706,14.865c-7.375-10.938-19.187-15.832-19.187-15.832a138.987,138.987,0,0,1,9.453,18.584c-11.237-7.346-24.344-7.1-24.344-7.1,10.438,7.467,17.147,13.839,21.477,18.962-13.648-4.08-27.025.9-27.025.9,34.708,10.107,38.746,21.832,38.746,21.832s-.01,1.408.871.094c.882,1.314.871-.094.871-.094s4.038-11.725,38.747-21.832C1289.092,322.624,1274.086,317.038,1259.645,322.549Z" stroke="none"/>
          <path d="M 1250.074096679688 345.1107482910156 C 1250.350341796875 345.1108093261719 1250.345336914062 344.4559631347656 1250.345336914062 344.4559631347656 C 1250.345336914062 344.4559631347656 1254.383544921875 332.73046875 1289.091918945312 322.6238708496094 C 1289.091918945312 322.6238708496094 1274.085815429688 317.0384826660156 1259.645141601562 322.5490417480469 C 1263.750732421875 317.0073852539062 1270.920776367188 309.6021728515625 1283.483154296875 300.6154174804688 C 1283.483032226562 300.6156005859375 1271.596801757812 300.3918151855469 1260.757568359375 306.7138061523438 C 1262.9033203125 302.458740234375 1265.651733398438 297.6554870605469 1269.189697265625 292.2420654296875 C 1269.189697265625 292.2420654296875 1257.308227539062 296.5997314453125 1249.484130859375 307.1070556640625 C 1242.108764648438 296.1690979003906 1230.296752929688 291.2749938964844 1230.296752929688 291.2749938964844 C 1234.609497070312 298.50927734375 1237.631469726562 304.6600036621094 1239.749389648438 309.8586120605469 C 1228.511474609375 302.5117492675781 1215.404663085938 302.7589721679688 1215.405029296875 302.7590026855469 C 1225.842895507812 310.2262268066406 1232.552490234375 316.59814453125 1236.88232421875 321.7209167480469 C 1223.234741210938 317.64111328125 1209.857055664062 322.6238708496094 1209.857055664062 322.6238708496094 C 1244.5654296875 332.73046875 1248.603515625 344.4559631347656 1248.603515625 344.4559631347656 C 1248.603393554688 344.4559631347656 1248.59375 345.8643493652344 1249.474487304688 344.5500183105469 C 1249.7548828125 344.9681396484375 1249.945068359375 345.1107177734375 1250.074096679688 345.1107482910156 M 1250.074096679688 348.1107482910156 C 1249.86865234375 348.1126098632812 1249.669677734375 348.092529296875 1249.474853515625 348.0562438964844 C 1249.280029296875 348.092529296875 1249.080078125 348.1107482910156 1248.875366210938 348.1107482910156 C 1248.0263671875 348.1107482910156 1247.227783203125 347.7774353027344 1246.626586914062 347.1722106933594 C 1246.04150390625 346.5831909179688 1245.782958984375 345.8711242675781 1245.674926757812 345.27099609375 C 1245.275634765625 344.5372924804688 1243.787719726562 342.2090148925781 1239.6357421875 339.1100769042969 C 1236.649169921875 336.8809204101562 1232.902587890625 334.7059936523438 1228.500122070312 332.6456604003906 C 1222.988403320312 330.0662536621094 1216.433837890625 327.6635437011719 1209.018310546875 325.5042419433594 C 1207.776611328125 325.1426696777344 1206.906372070312 324.0260620117188 1206.859130859375 322.7336730957031 C 1206.811767578125 321.4412536621094 1207.598022460938 320.2640075683594 1208.809936523438 319.8125610351562 C 1209.105590820312 319.7024230957031 1216.156860351562 317.1154174804688 1225.37890625 317.1154174804688 C 1226.414794921875 317.1154174804688 1227.439331054688 317.1482849121094 1228.450927734375 317.2138061523438 C 1224.335327148438 313.3169250488281 1219.387451171875 309.2966918945312 1213.659545898438 305.1989135742188 C 1212.608642578125 304.4471740722656 1212.160766601562 303.1069641113281 1212.54248046875 301.8725891113281 C 1212.924194335938 300.6382141113281 1214.057006835938 299.7868347167969 1215.348754882812 299.759521484375 C 1215.348754882812 299.759521484375 1215.419921875 299.7580261230469 1215.557250976562 299.7580261230469 C 1216.540405273438 299.7580261230469 1220.116455078125 299.8321533203125 1224.85595703125 300.785888671875 C 1227.892211914062 301.3968811035156 1230.770263671875 302.2345275878906 1233.47216796875 303.2918395996094 C 1231.799438476562 299.9330749511719 1229.876831054688 296.4293518066406 1227.719970703125 292.8111877441406 C 1227.057861328125 291.7005615234375 1227.181762695312 290.2907104492188 1228.027587890625 289.3126831054688 C 1228.873413085938 288.3346557617188 1230.250732421875 288.0086059570312 1231.445068359375 288.5034790039062 C 1231.576782226562 288.5580444335938 1234.718139648438 289.8715209960938 1238.792114257812 292.5953674316406 C 1241.174926757812 294.1885375976562 1243.404541015625 295.9474792480469 1245.419067382812 297.8233337402344 C 1246.935180664062 299.235107421875 1248.332275390625 300.7167053222656 1249.59716796875 302.2528686523438 C 1250.916137695312 300.7943115234375 1252.360961914062 299.3946838378906 1253.91845703125 298.0679016113281 C 1255.998046875 296.2964172363281 1258.283569335938 294.6490478515625 1260.711303710938 293.1715698242188 C 1264.862915039062 290.6451110839844 1268.024169921875 289.47412109375 1268.15673828125 289.425537109375 C 1269.370727539062 288.9803466796875 1270.733154296875 289.3629455566406 1271.537963867188 290.3750610351562 C 1272.342651367188 291.3871459960938 1272.408325195312 292.8009643554688 1271.700927734375 293.88330078125 C 1270.2724609375 296.0690002441406 1268.932373046875 298.22021484375 1267.687622070312 300.3251953125 C 1269.941650390625 299.5704956054688 1272.30224609375 298.9612121582031 1274.759033203125 298.5011596679688 C 1279.15283203125 297.6783752441406 1282.431396484375 297.6144409179688 1283.33154296875 297.6144409179688 C 1283.468505859375 297.6144409179688 1283.539672851562 297.615966796875 1283.539672851562 297.615966796875 C 1284.831420898438 297.6433410644531 1285.963989257812 298.4947509765625 1286.345703125 299.7291259765625 C 1286.727416992188 300.9634704589844 1286.279418945312 302.3036193847656 1285.228637695312 303.0553588867188 C 1279.5341796875 307.1290283203125 1274.5634765625 311.1657104492188 1270.454711914062 315.0533142089844 C 1269.605712890625 315.8566589355469 1268.791748046875 316.6550903320312 1268.013793945312 317.4476623535156 C 1269.822998046875 317.2289733886719 1271.68017578125 317.119140625 1273.580078125 317.119140625 C 1282.796020507812 317.119140625 1289.842895507812 319.7023010253906 1290.138305664062 319.8122863769531 C 1291.350463867188 320.263427734375 1292.137084960938 321.440673828125 1292.089965820312 322.7332458496094 C 1292.042724609375 324.0258178710938 1291.172485351562 325.1426391601562 1289.9306640625 325.5042419433594 C 1282.17041015625 327.763916015625 1275.361083984375 330.2872619628906 1269.691650390625 333.0042419433594 C 1265.235107421875 335.1399841308594 1261.488037109375 337.3895263671875 1258.554443359375 339.6904296875 C 1256.060180664062 341.646728515625 1254.667724609375 343.2436218261719 1253.938842773438 344.2387390136719 C 1253.60986328125 344.6877136230469 1253.391357421875 345.0519409179688 1253.276977539062 345.2554626464844 C 1253.170776367188 345.8586730957031 1252.913208007812 346.5773010253906 1252.323852539062 347.1711730957031 C 1251.72265625 347.7770690917969 1250.923583984375 348.1107482910156 1250.074096679688 348.1107482910156 Z" stroke="none" fill="#000"/>
        </g>
        <g id="Group_1012" data-name="Group 1012" transform="translate(3.809 50.829)">
          <g id="Rectangle_1104" data-name="Rectangle 1104" fill="#fff" stroke="#000" stroke-miterlimit="10" stroke-width="4">
            <rect width="71.617" height="91.171" rx="30.54" stroke="none"/>
            <rect x="-2" y="-2" width="75.617" height="95.171" rx="32.54" fill="none"/>
          </g>
          <rect id="Rectangle_1105" data-name="Rectangle 1105" width="67.41" height="85.815" rx="30.163" transform="translate(4.743 4.587)" fill="#ffd72e"/>
          <line id="Line_344" data-name="Line 344" x2="30.118" y2="30.118" transform="translate(10.189 56.929)" fill="none" stroke="#ff9f06" stroke-linecap="round" stroke-linejoin="round" stroke-width="3"/>
          <line id="Line_345" data-name="Line 345" x2="44.444" y2="44.444" transform="translate(10.179 38.451)" fill="none" stroke="#ff9f06" stroke-linecap="round" stroke-linejoin="round" stroke-width="3"/>
          <line id="Line_346" data-name="Line 346" x2="49.359" y2="49.359" transform="translate(14.959 24.764)" fill="none" stroke="#ff9f06" stroke-linecap="round" stroke-linejoin="round" stroke-width="3"/>
          <line id="Line_347" data-name="Line 347" x2="45.649" y2="45.649" transform="translate(24.268 15.606)" fill="none" stroke="#ff9f06" stroke-linecap="round" stroke-linejoin="round" stroke-width="3"/>
          <line id="Line_348" data-name="Line 348" x2="32.576" y2="32.576" transform="translate(37.342 10.212)" fill="none" stroke="#ff9f06" stroke-linecap="round" stroke-linejoin="round" stroke-width="3"/>
          <line id="Line_349" data-name="Line 349" x1="29.44" y2="29.44" transform="translate(40.59 57.324)" fill="none" stroke="#ff9f06" stroke-linecap="round" stroke-linejoin="round" stroke-width="3"/>
          <line id="Line_350" data-name="Line 350" x1="44.283" y2="44.283" transform="translate(26.097 38.506)" fill="none" stroke="#ff9f06" stroke-linecap="round" stroke-linejoin="round" stroke-width="3"/>
          <line id="Line_351" data-name="Line 351" x1="49.219" y2="49.219" transform="translate(16.298 24.902)" fill="none" stroke="#ff9f06" stroke-linecap="round" stroke-linejoin="round" stroke-width="3"/>
          <line id="Line_352" data-name="Line 352" x1="45.741" y2="45.741" transform="translate(10.813 15.397)" fill="none" stroke="#ff9f06" stroke-linecap="round" stroke-linejoin="round" stroke-width="3"/>
          <line id="Line_353" data-name="Line 353" x1="32.64" y2="32.64" transform="translate(10.151 10.694)" fill="none" stroke="#ff9f06" stroke-linecap="round" stroke-linejoin="round" stroke-width="3"/>
        </g>
      </g>
    </g>
  </g>
</svg>
