<svg xmlns="http://www.w3.org/2000/svg" width="196" height="196" viewBox="0 0 196 196">
  <g id="Group_1970" data-name="Group 1970" transform="translate(-3860 -166)">
    <g id="Group_1952" data-name="Group 1952">
      <g id="Group_1940" data-name="Group 1940" transform="translate(3563 97)">
        <rect id="Rectangle_1254" data-name="Rectangle 1254" width="196" height="196" rx="5" transform="translate(297 69)" fill="#fff"/>
      </g>
    </g>
    <g id="Group_1901" data-name="Group 1901" transform="translate(2515.393 678.398) rotate(-34)">
      <g id="Group_1454" data-name="Group 1454" transform="translate(1352.547 412.739)">
        <g id="Group_1451" data-name="Group 1451" transform="translate(76.313 28.393)">
          <g id="Group_1450" data-name="Group 1450" transform="translate(0 0)">
            <ellipse id="Ellipse_734" data-name="Ellipse 734" cx="23.485" cy="21.537" rx="23.485" ry="21.537" transform="translate(0 34.537) rotate(-46.619)" fill="#ad1040" stroke="#000" stroke-miterlimit="10" stroke-width="1"/>
            <ellipse id="Ellipse_735" data-name="Ellipse 735" cx="7.714" cy="10.36" rx="7.714" ry="10.36" transform="translate(39.931 50.645) rotate(-56.093)" fill="#ea4772" stroke="#b51c3d" stroke-miterlimit="10" stroke-width="1"/>
            <ellipse id="Ellipse_736" data-name="Ellipse 736" cx="7.714" cy="10.36" rx="7.714" ry="10.36" transform="translate(34.173 59.019) rotate(-56.093)" fill="#ea4772" stroke="#b51c3d" stroke-miterlimit="10" stroke-width="1"/>
            <ellipse id="Ellipse_737" data-name="Ellipse 737" cx="7.714" cy="10.36" rx="7.714" ry="10.36" transform="translate(23.689 53.745) rotate(-22.223)" fill="#ea4772" stroke="#b51c3d" stroke-miterlimit="10" stroke-width="1"/>
            <ellipse id="Ellipse_738" data-name="Ellipse 738" cx="7.714" cy="9.237" rx="7.714" ry="9.237" transform="matrix(0.397, -0.918, 0.918, 0.397, 0.472, 28.646)" fill="#ea4772" stroke="#b51c3d" stroke-miterlimit="10" stroke-width="1"/>
            <ellipse id="Ellipse_739" data-name="Ellipse 739" cx="7.714" cy="9.381" rx="7.714" ry="9.381" transform="translate(4.644 18.869) rotate(-52.214)" fill="#ea4772" stroke="#b51c3d" stroke-miterlimit="10" stroke-width="1"/>
            <ellipse id="Ellipse_740" data-name="Ellipse 740" cx="7.714" cy="8.651" rx="7.714" ry="8.651" transform="translate(13.837 7.382) rotate(-24.929)" fill="#ea4772" stroke="#b51c3d" stroke-miterlimit="10" stroke-width="1"/>
            <ellipse id="Ellipse_741" data-name="Ellipse 741" cx="7.714" cy="10.36" rx="7.714" ry="10.36" transform="matrix(0.397, -0.918, 0.918, 0.397, 45.913, 44.59)" fill="#ea4772" stroke="#b51c3d" stroke-miterlimit="10" stroke-width="1"/>
            <ellipse id="Ellipse_742" data-name="Ellipse 742" cx="7.714" cy="9.019" rx="7.714" ry="9.019" transform="matrix(0.09, -0.996, 0.996, 0.09, 0.078, 44.482)" fill="#ea4772" stroke="#b51c3d" stroke-miterlimit="10" stroke-width="1"/>
            <ellipse id="Ellipse_743" data-name="Ellipse 743" cx="9.169" cy="7.714" rx="9.169" ry="7.714" transform="translate(0.996 48.435) rotate(-40.532)" fill="#ea4772" stroke="#b51c3d" stroke-miterlimit="10" stroke-width="1"/>
            <circle id="Ellipse_744" data-name="Ellipse 744" cx="7.714" cy="7.714" r="7.714" transform="translate(10.955 47.074)" fill="#ea4772" stroke="#b51c3d" stroke-miterlimit="10" stroke-width="1"/>
            <ellipse id="Ellipse_745" data-name="Ellipse 745" cx="7.714" cy="8.894" rx="7.714" ry="8.894" transform="translate(33.979 58.036) rotate(-27.474)" fill="#ea4772" stroke="#b51c3d" stroke-miterlimit="10" stroke-width="1"/>
            <ellipse id="Ellipse_746" data-name="Ellipse 746" cx="8.129" cy="8.556" rx="8.129" ry="8.556" transform="translate(42.791 57.412) rotate(-40.532)" fill="#ea4772" stroke="#b51c3d" stroke-miterlimit="10" stroke-width="1"/>
            <ellipse id="Ellipse_747" data-name="Ellipse 747" cx="7.714" cy="9.578" rx="7.714" ry="9.578" transform="translate(46.942 50.475) rotate(-52.214)" fill="#ea4772" stroke="#b51c3d" stroke-miterlimit="10" stroke-width="1"/>
            <ellipse id="Ellipse_748" data-name="Ellipse 748" cx="9.024" cy="10.36" rx="9.024" ry="10.36" transform="translate(49.104 37.964) rotate(-59.928)" fill="#ea4772" stroke="#b51c3d" stroke-miterlimit="10" stroke-width="1"/>
            <ellipse id="Ellipse_749" data-name="Ellipse 749" cx="7.714" cy="9.311" rx="7.714" ry="9.311" transform="translate(48.871 46.144) rotate(-59.928)" fill="#ea4772" stroke="#b51c3d" stroke-miterlimit="10" stroke-width="1"/>
            <ellipse id="Ellipse_750" data-name="Ellipse 750" cx="10.06" cy="7.714" rx="10.06" ry="7.714" transform="translate(46.037 16.082) rotate(-4.922)" fill="#ea4772" stroke="#b51c3d" stroke-miterlimit="10" stroke-width="1"/>
            <ellipse id="Ellipse_751" data-name="Ellipse 751" cx="9.216" cy="7.714" rx="9.216" ry="7.714" transform="matrix(0.255, -0.967, 0.967, 0.255, 24.014, 17.825)" fill="#ea4772" stroke="#b51c3d" stroke-miterlimit="10" stroke-width="1"/>
            <ellipse id="Ellipse_752" data-name="Ellipse 752" cx="8.929" cy="7.714" rx="8.929" ry="7.714" transform="translate(31.509 18.43) rotate(-64.888)" fill="#ea4772" stroke="#b51c3d" stroke-miterlimit="10" stroke-width="1"/>
            <ellipse id="Ellipse_753" data-name="Ellipse 753" cx="8.386" cy="9.645" rx="8.386" ry="9.645" transform="matrix(0.981, -0.193, 0.193, 0.981, 18.11, 49.637)" fill="#ea4772" stroke="#b51c3d" stroke-miterlimit="10" stroke-width="1"/>
            <ellipse id="Ellipse_754" data-name="Ellipse 754" cx="7.714" cy="9.824" rx="7.714" ry="9.824" transform="translate(33.634 46.064) rotate(-40.532)" fill="#ea4772" stroke="#b51c3d" stroke-miterlimit="10" stroke-width="1"/>
            <ellipse id="Ellipse_755" data-name="Ellipse 755" cx="7.714" cy="9.624" rx="7.714" ry="9.624" transform="translate(40.384 38.684) rotate(-56.093)" fill="#ea4772" stroke="#b51c3d" stroke-miterlimit="10" stroke-width="1"/>
            <ellipse id="Ellipse_756" data-name="Ellipse 756" cx="7.714" cy="10.36" rx="7.714" ry="10.36" transform="matrix(0.09, -0.996, 0.996, 0.09, 44.834, 36.427)" fill="#ea4772" stroke="#b51c3d" stroke-miterlimit="10" stroke-width="1"/>
            <ellipse id="Ellipse_757" data-name="Ellipse 757" cx="9.556" cy="7.714" rx="9.556" ry="7.714" transform="translate(38.123 20.298) rotate(-43.29)" fill="#ea4772" stroke="#b51c3d" stroke-miterlimit="10" stroke-width="1"/>
            <ellipse id="Ellipse_758" data-name="Ellipse 758" cx="8.576" cy="9.615" rx="8.576" ry="9.615" transform="matrix(0.981, -0.193, 0.193, 0.981, 27.268, 47.871)" fill="#ea4772" stroke="#b51c3d" stroke-miterlimit="10" stroke-width="1"/>
          </g>
        </g>
        <g id="Path_3820" data-name="Path 3820" transform="translate(-1352.665 -327.58)" fill="none" stroke-miterlimit="10">
          <path d="M1496.161,383.17a11.954,11.954,0,0,0-1.858-.87,6.55,6.55,0,0,0,1.489-4.625c-.3-3.533-3.674-6.235-7.988-6.768a6.4,6.4,0,0,0-1.432-2.466,7.39,7.39,0,0,0-7.243-1.813,7.344,7.344,0,0,0-4.01-5.461,7.123,7.123,0,0,0-5.608-.12,7,7,0,0,0-4.3-3.45,7.661,7.661,0,0,0-7.833,3,7.271,7.271,0,0,0-11.691,5.306,7.474,7.474,0,0,0-7.272,2.5,6.849,6.849,0,0,0-1.335,4.906,7.087,7.087,0,0,0-4.5,3.886c-1.3,3-.167,6.516,2.535,8.912a7.635,7.635,0,0,0-5.294,6.323c-.3,3.336,1.933,6.394,5.311,7.769-2.166,3.159-2.31,7.114-.073,9.731a7.053,7.053,0,0,0,5.182,2.385,7.7,7.7,0,0,0,9.849,5.437c1.8,3.4,5.263,5.438,8.781,4.862,2.483,2.9,5.936,4.214,8.844,3.025a5.875,5.875,0,0,0,1.75-1.124,7.736,7.736,0,0,0,8.614,1.374,7.024,7.024,0,0,0,3.245-3.634c.031-.01.062-.018.093-.029a7.887,7.887,0,0,0,10.453-8.065,6.683,6.683,0,0,0,3.987-2.415,7.04,7.04,0,0,0,1.112-6.077,6.467,6.467,0,0,0,.933-1.239,7.035,7.035,0,0,0,.464-5.8,7.989,7.989,0,0,0,2.241-2.462C1503.1,391.858,1501.113,386.038,1496.161,383.17Z" stroke="none"/>
          <path d="M 1463.547729492188 357.3812866210938 C 1461.23974609375 357.3812866210938 1458.989379882812 358.5918884277344 1457.380615234375 360.5943908691406 C 1455.138305664062 359.0386047363281 1452.328979492188 358.6256408691406 1449.880615234375 359.7639465332031 C 1447.47119140625 360.8834228515625 1445.981811523438 363.2375793457031 1445.689575195312 365.900634765625 C 1442.838989257812 365.4377136230469 1440.065185546875 366.2805480957031 1438.417846679688 368.4053649902344 C 1437.333862304688 369.8039245605469 1436.916259765625 371.536865234375 1437.082397460938 373.3118286132812 C 1435.060546875 373.9507751464844 1433.40380859375 375.2872619628906 1432.578979492188 377.1973876953125 C 1431.283447265625 380.1937561035156 1432.411743164062 383.7138671875 1435.113647460938 386.1090087890625 C 1432.204711914062 387.1598205566406 1430.083251953125 389.5205993652344 1429.819702148438 392.4317321777344 C 1429.518432617188 395.7680358886719 1431.7529296875 398.8253173828125 1435.13037109375 400.2005615234375 C 1432.964233398438 403.3597106933594 1432.820434570312 407.3150329589844 1435.05712890625 409.9316101074219 C 1436.35498046875 411.44970703125 1438.22412109375 412.2370300292969 1440.239379882812 412.3167724609375 C 1440.78857421875 414.4782104492188 1442.265747070312 416.3860778808594 1444.442626953125 417.4058837890625 C 1446.285400390625 418.2706909179688 1448.2939453125 418.3350219726562 1450.0888671875 417.7536010742188 C 1451.893676757812 421.1564636230469 1455.352661132812 423.1914672851562 1458.869750976562 422.6157836914062 C 1461.352294921875 425.511474609375 1464.80615234375 426.8300170898438 1467.713745117188 425.6409606933594 C 1468.370483398438 425.3729553222656 1468.95068359375 424.9865417480469 1469.463500976562 424.5169982910156 C 1471.957275390625 426.6719055175781 1475.314697265625 427.3273620605469 1478.0771484375 425.8912353515625 C 1479.590942382812 425.1038818359375 1480.68701171875 423.8050537109375 1481.321655273438 422.2570190429688 C 1481.3525390625 422.2470397949219 1481.383666992188 422.2392883300781 1481.41455078125 422.2282409667969 C 1484.043212890625 423.0730895996094 1486.963256835938 422.625732421875 1489.136840820312 420.7677001953125 C 1491.09912109375 419.0901184082031 1492.018188476562 416.6329956054688 1491.867553710938 414.1637268066406 C 1493.458740234375 413.8303833007812 1494.866333007812 413.025390625 1495.85498046875 411.7486877441406 C 1497.17041015625 410.0533752441406 1497.4970703125 407.8520812988281 1496.966674804688 405.6717834472656 C 1497.322021484375 405.3019104003906 1497.635620117188 404.888916015625 1497.900146484375 404.4327087402344 C 1498.917724609375 402.6742858886719 1499.01416015625 400.6014404296875 1498.364135742188 398.6326599121094 C 1499.2587890625 397.9837951660156 1500.029541015625 397.164306640625 1500.60546875 396.1710510253906 C 1503.102416992188 391.8581237792969 1501.112548828125 386.0381164550781 1496.16064453125 383.1701965332031 C 1495.554931640625 382.8202819824219 1494.932495117188 382.53125 1494.302612304688 382.2998657226562 C 1495.368896484375 380.9400939941406 1495.935791015625 379.3411254882812 1495.7919921875 377.6746215820312 C 1495.4873046875 374.1412048339844 1492.117797851562 371.4393920898438 1487.8037109375 370.9067687988281 C 1487.512451171875 369.9954833984375 1487.044189453125 369.1539001464844 1486.3720703125 368.4407958984375 C 1484.591552734375 366.5506286621094 1481.861083984375 365.9760131835938 1479.129150390625 366.6281127929688 C 1478.688354492188 364.234130859375 1477.287841796875 362.1833801269531 1475.11962890625 361.1668701171875 C 1473.33447265625 360.3297729492188 1471.3447265625 360.350830078125 1469.512084960938 361.0473022460938 C 1468.558715820312 359.3553466796875 1467.076049804688 358.0863647460938 1465.213500976562 357.596923828125 C 1464.660522460938 357.4512634277344 1464.102294921875 357.3812866210938 1463.547729492188 357.3812866210938 M 1463.547729492188 354.3812866210938 C 1464.367553710938 354.3812866210938 1465.18505859375 354.4871215820312 1465.9775390625 354.6958618164062 C 1467.813110351562 355.1781921386719 1469.451049804688 356.1987609863281 1470.744384765625 357.6411743164062 C 1471.2421875 357.5681457519531 1471.7421875 357.5314025878906 1472.242065429688 357.5314025878906 C 1473.695922851562 357.5314025878906 1475.092651367188 357.8406982421875 1476.393432617188 358.4507141113281 C 1478.541381835938 359.457763671875 1480.21875 361.1869812011719 1481.225341796875 363.3698120117188 C 1481.239990234375 363.3697814941406 1481.254516601562 363.3697509765625 1481.269165039062 363.3697509765625 C 1484.137084960938 363.3698120117188 1486.724853515625 364.440185546875 1488.5556640625 366.3836669921875 C 1489.084594726562 366.9448547363281 1489.537841796875 367.5675659179688 1489.912109375 368.2460327148438 C 1491.927734375 368.73583984375 1493.73974609375 369.6249694824219 1495.222534179688 370.8612365722656 C 1497.302124023438 372.5951538085938 1498.56591796875 374.92333984375 1498.780883789062 377.4169006347656 C 1498.88623046875 378.6377258300781 1498.744384765625 379.8455810546875 1498.366088867188 381.0066833496094 C 1501.0361328125 382.7541198730469 1503.0263671875 385.2665710449219 1504.015014648438 388.1582336425781 C 1504.554565429688 389.736083984375 1504.76904296875 391.3453979492188 1504.65283203125 392.9414367675781 C 1504.529663085938 394.6314392089844 1504.04150390625 396.2237243652344 1503.201782226562 397.6741333007812 C 1502.775512695312 398.4092407226562 1502.266967773438 399.0872802734375 1501.681030273438 399.7030944824219 C 1501.9814453125 401.9056091308594 1501.57958984375 404.0640869140625 1500.496704101562 405.9353332519531 C 1500.38720703125 406.124267578125 1500.271118164062 406.3092956542969 1500.14892578125 406.4900512695312 C 1500.25390625 407.4787292480469 1500.223999023438 408.4546508789062 1500.058715820312 409.4056701660156 C 1499.788452148438 410.9609680175781 1499.171630859375 412.3680114746094 1498.22509765625 413.5877685546875 C 1497.307006835938 414.7733764648438 1496.13330078125 415.7049865722656 1494.765747070312 416.344482421875 C 1494.386596679688 418.9566040039062 1493.105834960938 421.3214111328125 1491.086303710938 423.0479736328125 C 1489.132080078125 424.718505859375 1486.619384765625 425.6384887695312 1484.011108398438 425.6384887695312 C 1483.636352539062 425.6384887695312 1483.26220703125 425.6199340820312 1482.8896484375 425.5829772949219 C 1481.989624023438 426.8327941894531 1480.830810546875 427.8405151367188 1479.46142578125 428.5527648925781 C 1478.052124023438 429.2853698730469 1476.522216796875 429.6567077636719 1474.913696289062 429.6567077636719 C 1473.02294921875 429.6567077636719 1471.135131835938 429.1330871582031 1469.428833007812 428.1550903320312 C 1469.237915039062 428.2503967285156 1469.0439453125 428.3383178710938 1468.84716796875 428.4185791015625 C 1467.779418945312 428.8553161621094 1466.6416015625 429.0771789550781 1465.467651367188 429.0771789550781 C 1462.735473632812 429.0771789550781 1459.965454101562 427.866943359375 1457.68212890625 425.7127685546875 C 1457.680908203125 425.7127685546875 1457.679565429688 425.7127685546875 1457.678344726562 425.7127685546875 C 1454.217163085938 425.7127685546875 1450.927124023438 423.9845581054688 1448.68212890625 421.0876159667969 C 1448.3544921875 421.117919921875 1448.025146484375 421.1331176757812 1447.695190429688 421.1331176757812 C 1446.121215820312 421.1331176757812 1444.59814453125 420.7928161621094 1443.168090820312 420.1216735839844 C 1440.8974609375 419.0579528808594 1439.104125976562 417.2592163085938 1438.047241210938 415.0386352539062 C 1435.962036132812 414.5553894042969 1434.135498046875 413.4702758789062 1432.77685546875 411.8810729980469 C 1431.2099609375 410.048095703125 1430.403076171875 407.7454833984375 1430.443115234375 405.2219848632812 C 1430.463623046875 403.9218444824219 1430.709594726562 402.6261901855469 1431.16650390625 401.3782348632812 C 1428.188232421875 399.1344604492188 1426.51123046875 395.7120056152344 1426.831909179688 392.1618957519531 C 1427.076782226562 389.4563293457031 1428.437255859375 387.0209045410156 1430.573974609375 385.2699584960938 C 1430.10107421875 384.4617614746094 1429.7294921875 383.6087951660156 1429.469604492188 382.7265625 C 1428.793579101562 380.4322509765625 1428.916625976562 378.1085815429688 1429.825317382812 376.0068054199219 C 1430.686401367188 374.0128173828125 1432.177978515625 372.4014892578125 1434.122314453125 371.32861328125 C 1434.333374023438 369.5719604492188 1434.989624023438 367.9313049316406 1436.046630859375 366.5675354003906 C 1437.757690429688 364.3608703613281 1440.390380859375 363.0165100097656 1443.360229492188 362.8064270019531 C 1444.316284179688 360.2456665039062 1446.167846679688 358.1809997558594 1448.616455078125 357.0432739257812 C 1449.940185546875 356.4278869628906 1451.357299804688 356.11572265625 1452.828125 356.11572265625 C 1454.191528320312 356.11572265625 1455.542358398438 356.3836364746094 1456.824829101562 356.9014587402344 C 1458.7861328125 355.2792358398438 1461.140625 354.3812866210938 1463.547729492188 354.3812866210938 Z" stroke="none" fill="#000"/>
        </g>
        <g id="Group_1453" data-name="Group 1453">
          <g id="Path_3821" data-name="Path 3821" transform="translate(-1359.878 -330.452)" fill="#fff" stroke-miterlimit="10">
            <path d="M 1393.896850585938 415.3655700683594 C 1392.193359375 415.3655700683594 1390.574951171875 414.9732360839844 1389.086547851562 414.1994323730469 C 1387.351928710938 413.2968444824219 1385.934326171875 411.9406127929688 1384.921752929688 410.2288208007812 C 1384.193359375 410.3612365722656 1383.45654296875 410.427978515625 1382.718017578125 410.427978515625 C 1379.913696289062 410.427978515625 1377.21435546875 409.4406433105469 1375.117431640625 407.6478271484375 C 1372.715209960938 405.5930786132812 1371.287231445312 402.6932983398438 1371.070678710938 399.5189514160156 C 1369.262084960938 398.8565979003906 1367.7294921875 397.7517395019531 1366.58056640625 396.270263671875 C 1365.588745117188 394.9908142089844 1364.941772460938 393.512451171875 1364.657470703125 391.8759460449219 C 1364.447143554688 390.6649475097656 1364.443115234375 389.4118957519531 1364.644409179688 388.138427734375 C 1364.37841796875 387.7933349609375 1364.135498046875 387.431396484375 1363.917846679688 387.0555725097656 C 1362.983520507812 385.4408264160156 1362.519409179688 383.5710144042969 1362.575317382812 381.6476745605469 C 1362.61474609375 380.295654296875 1362.911010742188 378.9120483398438 1363.441040039062 377.5812377929688 C 1363.001586914062 377.0516357421875 1362.611206054688 376.493896484375 1362.274291992188 375.9134216308594 C 1360.508544921875 372.8634338378906 1360.103515625 369.2789611816406 1361.1328125 365.8183288574219 C 1362.100830078125 362.5636901855469 1364.232177734375 359.7877807617188 1367.161499023438 357.9495239257812 C 1366.414428710938 356.37158203125 1366.100708007812 354.6917419433594 1366.2470703125 352.9974975585938 C 1366.750244140625 347.1408996582031 1372.652221679688 342.7237548828125 1379.975463867188 342.7237548828125 C 1380.106811523438 342.7237548828125 1380.238647460938 342.7252197265625 1380.370727539062 342.7281188964844 C 1380.652465820312 342.3140563964844 1380.960693359375 341.928955078125 1381.293212890625 341.5762329101562 C 1383.0732421875 339.6866760253906 1385.54833984375 338.5797729492188 1388.321166992188 338.4189453125 C 1388.722900390625 337.4032287597656 1389.254150390625 336.4677734375 1389.909057617188 335.6251525878906 C 1390.932739257812 334.3077392578125 1392.20556640625 333.2861938476562 1393.692016601562 332.5889282226562 C 1395.071044921875 331.9430541992188 1396.550903320312 331.6157836914062 1398.091796875 331.6157836914062 C 1398.876586914062 331.6157836914062 1399.664306640625 331.7013854980469 1400.445922851562 331.8710327148438 C 1401.79150390625 330.4374084472656 1403.45068359375 329.4364318847656 1405.309692382812 328.9474792480469 C 1406.1435546875 328.7279052734375 1407.004516601562 328.6164855957031 1407.867919921875 328.6164855957031 C 1411.043090820312 328.6164855957031 1414.155151367188 330.1142272949219 1416.4853515625 332.6988220214844 C 1418.218139648438 331.7677917480469 1420.125 331.2676086425781 1422.0068359375 331.2676086425781 C 1423.563598632812 331.2676086425781 1425.063232421875 331.5974426269531 1426.4638671875 332.2479858398438 C 1427.916137695312 332.9233703613281 1429.171264648438 333.8999938964844 1430.195068359375 335.151123046875 C 1430.809448242188 335.9018859863281 1431.322875976562 336.7294311523438 1431.730224609375 337.6239624023438 C 1432.060180664062 337.5994262695312 1432.388916015625 337.5870666503906 1432.71533203125 337.5870666503906 C 1434.42724609375 337.5870666503906 1436.03662109375 337.9165344238281 1437.49853515625 338.5663452148438 C 1439.051879882812 339.2567443847656 1440.355346679688 340.27197265625 1441.373046875 341.5837707519531 C 1442.573852539062 343.1339721679688 1443.280151367188 344.98193359375 1443.447998046875 346.9879760742188 C 1445.411865234375 348.1329040527344 1446.89013671875 349.773193359375 1447.760864257812 351.7883605957031 C 1448.910034179688 354.4477844238281 1448.84716796875 357.4677734375 1447.624877929688 360.2861938476562 C 1448.33642578125 360.9653625488281 1448.947509765625 361.719970703125 1449.45068359375 362.5422058105469 C 1450.292602539062 363.9178466796875 1450.792114257812 365.4176940917969 1450.935302734375 367.0000915527344 C 1451.083618164062 368.6399841308594 1450.824340820312 370.2970886230469 1450.182373046875 371.8570251464844 C 1451.361083984375 373.7448425292969 1451.911743164062 375.8479919433594 1451.782470703125 378.0064697265625 C 1451.616821289062 380.7809143066406 1450.315307617188 383.3872680664062 1448.117431640625 385.3450012207031 C 1446.628662109375 386.6710815429688 1444.7861328125 387.6466674804688 1442.774169921875 388.194580078125 C 1443.146118164062 389.5508117675781 1443.29248046875 390.9320983886719 1443.200927734375 392.2794799804688 C 1443.044799804688 394.5769653320312 1442.202880859375 396.6797485351562 1440.76611328125 398.3605651855469 C 1439.142456054688 400.2586059570312 1436.88671875 401.4725952148438 1434.305908203125 401.8634033203125 C 1433.328857421875 405.0540771484375 1431.331420898438 407.6735229492188 1428.681396484375 409.1822814941406 C 1427.137329101562 410.0606079101562 1425.493041992188 410.5057983398438 1423.793701171875 410.5057983398438 C 1423.793334960938 410.5057983398438 1423.793212890625 410.5057983398438 1423.792724609375 410.5057983398438 C 1421.953857421875 410.5056457519531 1420.135620117188 409.9651489257812 1418.53466796875 408.9427795410156 C 1417.896606445312 408.5353393554688 1417.297607421875 408.0535583496094 1416.746948242188 407.5075378417969 C 1415.700073242188 409.1962280273438 1414.409301757812 410.6668395996094 1412.929809570312 411.8442077636719 C 1410.619262695312 413.6828308105469 1408.053955078125 414.6546630859375 1405.510986328125 414.6546630859375 C 1404.286743164062 414.6546630859375 1403.101806640625 414.4241943359375 1401.989135742188 413.9696655273438 C 1401.509155273438 413.7734680175781 1401.0439453125 413.5324096679688 1400.596435546875 413.2484436035156 C 1398.55126953125 414.6224365234375 1396.221801757812 415.3655700683594 1393.896850585938 415.3655700683594 Z" stroke="none"/>
            <path d="M 1393.896850585938 413.3655700683594 C 1396.251831054688 413.3655700683594 1398.640014648438 412.4260864257812 1400.596313476562 410.7362365722656 C 1401.22607421875 411.3121032714844 1401.938354492188 411.7882385253906 1402.745483398438 412.1181945800781 C 1407.592163085938 414.0981140136719 1413.677001953125 410.4273071289062 1416.336547851562 403.9175109863281 C 1416.362060546875 403.8565979003906 1416.379760742188 403.7945861816406 1416.404052734375 403.7337341308594 C 1418.772705078125 408.1108093261719 1423.56494140625 409.7918395996094 1427.69189453125 407.4442443847656 C 1430.3251953125 405.9449462890625 1432.0947265625 403.1368408203125 1432.714599609375 399.9976196289062 C 1435.251586914062 399.9367065429688 1437.615600585938 398.9667053222656 1439.245849609375 397.06103515625 C 1441.638671875 394.2617797851562 1441.807983398438 390.2167663574219 1440.058471679688 386.6545715332031 C 1445.310424804688 386.1961669921875 1449.507080078125 382.5608520507812 1449.786010742188 377.8869018554688 C 1449.91455078125 375.740966796875 1449.186889648438 373.7178955078125 1447.874877929688 372.0469970703125 C 1448.694213867188 370.5687255859375 1449.099609375 368.9066772460938 1448.943481445312 367.1803894042969 C 1448.707641601562 364.5748596191406 1447.260375976562 362.328125 1445.111083984375 360.8000793457031 C 1446.669189453125 358.2322082519531 1447.0732421875 355.2391662597656 1445.924926757812 352.5816345214844 C 1445.064697265625 350.5906677246094 1443.464477539062 349.1102294921875 1441.482543945312 348.2254943847656 C 1441.542236328125 346.2611083984375 1440.999633789062 344.3676452636719 1439.792724609375 342.8096313476562 C 1437.682250976562 340.0890197753906 1434.0712890625 339.0857849121094 1430.414916992188 339.8199157714844 C 1429.685180664062 337.3052368164062 1428.02880859375 335.1814270019531 1425.621337890625 334.0618896484375 C 1422.474243164062 332.6002197265625 1418.846923828125 333.2270202636719 1416.034301757812 335.3585510253906 C 1413.60791015625 331.7864685058594 1409.620239257812 329.880615234375 1405.818359375 330.8817138671875 C 1403.902587890625 331.3855590820312 1402.3115234375 332.5570983886719 1401.156494140625 334.1449890136719 C 1398.9814453125 333.3908386230469 1396.645263671875 333.4141235351562 1394.541381835938 334.3996276855469 C 1392.088623046875 335.5501403808594 1390.442138671875 337.7813720703125 1389.772216796875 340.4244995117188 C 1387.078125 340.2371520996094 1384.527099609375 341.0601806640625 1382.74853515625 342.9480590820312 C 1382.222534179688 343.506103515625 1381.805297851562 344.1317443847656 1381.470703125 344.7972412109375 C 1381.4365234375 344.7939758300781 1381.404296875 344.7872924804688 1381.369995117188 344.7839660644531 C 1374.569213867188 344.1983642578125 1368.68798828125 347.9530639648438 1368.239624023438 353.1696166992188 C 1368.06689453125 355.16943359375 1368.7236328125 357.0917053222656 1369.975952148438 358.7382507324219 C 1369.515258789062 358.9342651367188 1369.060180664062 359.1501770019531 1368.614990234375 359.408203125 C 1362.995239257812 362.6614379882812 1360.931396484375 369.60205078125 1364.004028320312 374.9093933105469 C 1364.507934570312 375.7774963378906 1365.124755859375 376.537109375 1365.816772460938 377.2048034667969 C 1364.280883789062 380.0926818847656 1364.096069335938 383.3703002929688 1365.648559570312 386.0533142089844 C 1365.973022460938 386.6136169433594 1366.359375 387.1218566894531 1366.795654296875 387.5758666992188 C 1366.1435546875 390.2555541992188 1366.545532226562 392.960693359375 1368.161010742188 395.0446472167969 C 1369.377807617188 396.6137084960938 1371.1064453125 397.6025390625 1373.061889648438 398.01220703125 C 1372.8759765625 401.0462646484375 1374.006591796875 404.0658569335938 1376.417114257812 406.127685546875 C 1379.089111328125 408.412109375 1382.677978515625 408.9624328613281 1385.908813476562 407.9237670898438 C 1385.946655273438 407.9358825683594 1385.984130859375 407.9458923339844 1386.021728515625 407.9580688476562 C 1386.802368164062 409.8615417480469 1388.149169921875 411.4571533203125 1390.009155273438 412.4249267578125 C 1391.2373046875 413.0634460449219 1392.56201171875 413.3655700683594 1393.896850585938 413.3655700683594 M 1393.896850585938 417.3655700683594 C 1391.869018554688 417.3655700683594 1389.940185546875 416.8973693847656 1388.1640625 415.9739379882812 C 1386.490356445312 415.1030883789062 1385.06640625 413.8827819824219 1383.947631835938 412.3749389648438 C 1383.538818359375 412.4102478027344 1383.128784179688 412.427978515625 1382.718017578125 412.427978515625 C 1379.4375 412.427978515625 1376.276611328125 411.2702331542969 1373.817749023438 409.1679992675781 C 1372.1689453125 407.7576293945312 1370.8681640625 405.9462890625 1370.055541992188 403.9292297363281 C 1369.6669921875 402.9644470214844 1369.387451171875 401.9472045898438 1369.221801757812 400.9065856933594 C 1367.559692382812 400.1027221679688 1366.128784179688 398.9513854980469 1365.000122070312 397.4959106445312 C 1363.805908203125 395.9553527832031 1363.027709960938 394.1798706054688 1362.68701171875 392.21826171875 C 1362.485229492188 391.0569763183594 1362.443725585938 389.8671264648438 1362.561767578125 388.6621704101562 C 1362.430786132812 388.4644165039062 1362.305786132812 388.2628479003906 1362.18701171875 388.0578308105469 C 1361.066162109375 386.1207275390625 1360.509399414062 383.8844299316406 1360.576171875 381.5894775390625 C 1360.611572265625 380.3748168945312 1360.822265625 379.1419067382812 1361.1962890625 377.9353942871094 C 1360.96337890625 377.6039123535156 1360.745971679688 377.2643432617188 1360.544555664062 376.9174499511719 C 1359.507080078125 375.1253662109375 1358.873657226562 373.1762084960938 1358.659423828125 371.1201477050781 C 1358.454711914062 369.1536865234375 1358.641845703125 367.1780700683594 1359.2158203125 365.2481689453125 C 1360.165893554688 362.0539245605469 1362.091674804688 359.26513671875 1364.72998046875 357.2130432128906 C 1364.288330078125 355.7915649414062 1364.125732421875 354.3155212402344 1364.25439453125 352.8254089355469 C 1364.55712890625 349.3034973144531 1366.461669921875 346.1224365234375 1369.617309570312 343.869873046875 C 1372.309814453125 341.9479370117188 1375.753051757812 340.843994140625 1379.370727539062 340.7330322265625 C 1379.521484375 340.5510559082031 1379.67724609375 340.374755859375 1379.837768554688 340.2044372558594 C 1381.701293945312 338.2262878417969 1384.183715820312 336.9642944335938 1386.970092773438 336.5492248535156 C 1387.35498046875 335.7868041992188 1387.808959960938 335.0681457519531 1388.329711914062 334.39794921875 C 1389.549194335938 332.8287658691406 1391.067504882812 331.6109313964844 1392.842651367188 330.7782287597656 C 1394.490234375 330.0065612792969 1396.255615234375 329.6157836914062 1398.091796875 329.6157836914062 C 1398.654541015625 329.6157836914062 1399.218017578125 329.6528930664062 1399.779663085938 329.7266540527344 C 1401.225830078125 328.4295043945312 1402.9267578125 327.5061950683594 1404.801025390625 327.0132446289062 C 1405.800537109375 326.7500610351562 1406.832763671875 326.616455078125 1407.867919921875 326.616455078125 C 1411.143798828125 326.616455078125 1414.3466796875 327.9483032226562 1416.909790039062 330.2911376953125 C 1418.548828125 329.62158203125 1420.284790039062 329.2676086425781 1422.0068359375 329.2676086425781 C 1423.856811523438 329.2676086425781 1425.639770507812 329.6600646972656 1427.306274414062 330.43408203125 C 1429.03466796875 331.2378540039062 1430.52685546875 332.3984680175781 1431.742919921875 333.8844909667969 C 1432.181762695312 334.4208679199219 1432.57666015625 334.9897155761719 1432.926147460938 335.5885314941406 C 1434.841674804688 335.6149291992188 1436.65234375 336.0015563964844 1438.310791015625 336.7387390136719 C 1440.169189453125 337.5647277832031 1441.731079101562 338.7823791503906 1442.953247070312 340.35791015625 C 1444.190063476562 341.9544982910156 1444.989013671875 343.8075256347656 1445.317016601562 345.8110961914062 C 1445.883422851562 346.2040405273438 1446.413208007812 346.6382751464844 1446.9033203125 347.1116638183594 C 1448.059936523438 348.2288513183594 1448.966186523438 349.5354309082031 1449.596801757812 350.9951171875 C 1450.797607421875 353.7740173339844 1450.897827148438 356.8661499023438 1449.937744140625 359.8222961425781 C 1450.388916015625 360.3494262695312 1450.7958984375 360.9087829589844 1451.156616210938 361.4981994628906 C 1452.160278320312 363.1382446289062 1452.755981445312 364.9286804199219 1452.927124023438 366.8197937011719 C 1453.074951171875 368.4535827636719 1452.88623046875 370.0978393554688 1452.378051757812 371.6739196777344 C 1452.688842773438 372.2698974609375 1452.951049804688 372.8850402832031 1453.162841796875 373.5161743164062 C 1453.665161132812 375.0130615234375 1453.872436523438 376.5640563964844 1453.77880859375 378.1260681152344 C 1453.58154296875 381.4319152832031 1452.043334960938 384.5263366699219 1449.447631835938 386.8384399414062 C 1448.183227539062 387.9647216796875 1446.701782226562 388.8711547851562 1445.087646484375 389.5222778320312 C 1445.223999023438 390.4889526367188 1445.261352539062 391.4585571289062 1445.1962890625 392.4150695800781 C 1445.010864257812 395.1447448730469 1444.004638671875 397.6500244140625 1442.286376953125 399.6600952148438 C 1440.605224609375 401.625244140625 1438.369873046875 402.9753112792969 1435.817626953125 403.6020202636719 C 1434.58740234375 406.7576599121094 1432.436279296875 409.3458557128906 1429.671020507812 410.9203186035156 C 1427.847045898438 411.9578247070312 1425.815185546875 412.5058288574219 1423.793701171875 412.5058288574219 C 1421.571533203125 412.5055847167969 1419.381225585938 411.8564147949219 1417.458251953125 410.6283874511719 C 1417.350952148438 410.5598754882812 1417.24462890625 410.4896240234375 1417.139282226562 410.4176330566406 C 1414.079833984375 414.2821350097656 1409.823852539062 416.6546630859375 1405.510986328125 416.6546630859375 C 1404.026123046875 416.6546630859375 1402.586669921875 416.3742370605469 1401.232788085938 415.8211364746094 C 1401.03564453125 415.7405395507812 1400.840698242188 415.6539306640625 1400.648193359375 415.5613708496094 C 1398.542236328125 416.737060546875 1396.221801757812 417.3655700683594 1393.896850585938 417.3655700683594 Z" stroke="none" fill="#000"/>
          </g>
          <g id="Group_1452" data-name="Group 1452" transform="translate(0 0)">
            <ellipse id="Ellipse_759" data-name="Ellipse 759" cx="25.572" cy="27.885" rx="25.572" ry="27.885" transform="translate(13.241 35.128) rotate(-43.381)" fill="#ad1040" stroke="#000" stroke-miterlimit="10" stroke-width="1"/>
            <ellipse id="Ellipse_760" data-name="Ellipse 760" cx="12.301" cy="9.16" rx="12.301" ry="9.16" transform="translate(10.666 58.18) rotate(-33.907)" fill="#ea4772" stroke="#b51c3d" stroke-miterlimit="10" stroke-width="1"/>
            <ellipse id="Ellipse_761" data-name="Ellipse 761" cx="12.301" cy="9.16" rx="12.301" ry="9.16" transform="translate(17.503 68.123) rotate(-33.907)" fill="#ea4772" stroke="#b51c3d" stroke-miterlimit="10" stroke-width="1"/>
            <ellipse id="Ellipse_762" data-name="Ellipse 762" cx="12.301" cy="9.16" rx="12.301" ry="9.16" transform="translate(34.326 79.187) rotate(-67.777)" fill="#ea4772" stroke="#b51c3d" stroke-miterlimit="10" stroke-width="1"/>
            <ellipse id="Ellipse_763" data-name="Ellipse 763" cx="10.968" cy="9.16" rx="10.968" ry="9.16" transform="matrix(0.918, -0.397, 0.397, 0.918, 60.755, 25.42)" fill="#ea4772" stroke="#b51c3d" stroke-miterlimit="10" stroke-width="1"/>
            <ellipse id="Ellipse_764" data-name="Ellipse 764" cx="11.138" cy="9.16" rx="11.138" ry="9.16" transform="translate(55.381 22.099) rotate(-37.786)" fill="#ea4772" stroke="#b51c3d" stroke-miterlimit="10" stroke-width="1"/>
            <ellipse id="Ellipse_765" data-name="Ellipse 765" cx="10.272" cy="9.16" rx="10.272" ry="9.16" transform="translate(47.942 22.006) rotate(-65.071)" fill="#ea4772" stroke="#b51c3d" stroke-miterlimit="10" stroke-width="1"/>
            <ellipse id="Ellipse_766" data-name="Ellipse 766" cx="12.301" cy="9.16" rx="12.301" ry="9.16" transform="matrix(0.918, -0.397, 0.397, 0.918, 4.352, 45.409)" fill="#ea4772" stroke="#b51c3d" stroke-miterlimit="10" stroke-width="1"/>
            <ellipse id="Ellipse_767" data-name="Ellipse 767" cx="10.709" cy="9.16" rx="10.709" ry="9.16" transform="matrix(0.996, -0.09, 0.09, 0.996, 65.285, 32.04)" fill="#ea4772" stroke="#b51c3d" stroke-miterlimit="10" stroke-width="1"/>
            <ellipse id="Ellipse_768" data-name="Ellipse 768" cx="9.16" cy="10.709" rx="9.16" ry="10.709" transform="translate(66.329 57.444) rotate(-86.578)" fill="#ea4772" stroke="#b51c3d" stroke-miterlimit="10" stroke-width="1"/>
            <ellipse id="Ellipse_769" data-name="Ellipse 769" cx="9.16" cy="10.887" rx="9.16" ry="10.887" transform="translate(55.569 60.915) rotate(-49.468)" fill="#ea4772" stroke="#b51c3d" stroke-miterlimit="10" stroke-width="1"/>
            <ellipse id="Ellipse_770" data-name="Ellipse 770" cx="10.392" cy="8.681" rx="10.392" ry="8.681" transform="translate(54.028 78.63) rotate(-86.578)" fill="#ea4772" stroke="#b51c3d" stroke-miterlimit="10" stroke-width="1"/>
            <ellipse id="Ellipse_771" data-name="Ellipse 771" cx="10.56" cy="9.16" rx="10.56" ry="9.16" transform="translate(22.374 78.722) rotate(-62.526)" fill="#ea4772" stroke="#b51c3d" stroke-miterlimit="10" stroke-width="1"/>
            <ellipse id="Ellipse_772" data-name="Ellipse 772" cx="10.159" cy="9.652" rx="10.159" ry="9.652" transform="translate(10.032 70.591) rotate(-49.468)" fill="#ea4772" stroke="#b51c3d" stroke-miterlimit="10" stroke-width="1"/>
            <ellipse id="Ellipse_773" data-name="Ellipse 773" cx="11.373" cy="9.16" rx="11.373" ry="9.16" transform="translate(3.78 58.916) rotate(-37.786)" fill="#ea4772" stroke="#b51c3d" stroke-miterlimit="10" stroke-width="1"/>
            <ellipse id="Ellipse_774" data-name="Ellipse 774" cx="11.359" cy="10.729" rx="11.359" ry="10.729" transform="translate(0 37.417) rotate(-30.072)" fill="#ea4772" stroke="#b51c3d" stroke-miterlimit="10" stroke-width="1"/>
            <ellipse id="Ellipse_775" data-name="Ellipse 775" cx="11.056" cy="9.16" rx="11.056" ry="9.16" transform="translate(2.375 49.541) rotate(-30.072)" fill="#ea4772" stroke="#b51c3d" stroke-miterlimit="10" stroke-width="1"/>
            <ellipse id="Ellipse_776" data-name="Ellipse 776" cx="9.16" cy="11.945" rx="9.16" ry="11.945" transform="translate(8.681 34.823) rotate(-85.078)" fill="#ea4772" stroke="#b51c3d" stroke-miterlimit="10" stroke-width="1"/>
            <ellipse id="Ellipse_777" data-name="Ellipse 777" cx="9.16" cy="10.943" rx="9.16" ry="10.943" transform="matrix(0.967, -0.255, 0.255, 0.967, 36.917, 6.495)" fill="#ea4772" stroke="#b51c3d" stroke-miterlimit="10" stroke-width="1"/>
            <ellipse id="Ellipse_778" data-name="Ellipse 778" cx="9.16" cy="10.602" rx="9.16" ry="10.602" transform="translate(26.585 11.45) rotate(-25.112)" fill="#ea4772" stroke="#b51c3d" stroke-miterlimit="10" stroke-width="1"/>
            <ellipse id="Ellipse_779" data-name="Ellipse 779" cx="11.452" cy="9.958" rx="11.452" ry="9.958" transform="matrix(0.193, -0.981, 0.981, 0.193, 43.261, 71.778)" fill="#ea4772" stroke="#b51c3d" stroke-miterlimit="10" stroke-width="1"/>
            <ellipse id="Ellipse_780" data-name="Ellipse 780" cx="11.428" cy="9.16" rx="11.428" ry="9.16" transform="translate(14.318 43.55) rotate(-33.907)" fill="#ea4772" stroke="#b51c3d" stroke-miterlimit="10" stroke-width="1"/>
            <ellipse id="Ellipse_781" data-name="Ellipse 781" cx="12.301" cy="9.16" rx="12.301" ry="9.16" transform="matrix(0.996, -0.09, 0.09, 0.996, 14.381, 26.747)" fill="#ea4772" stroke="#b51c3d" stroke-miterlimit="10" stroke-width="1"/>
            <ellipse id="Ellipse_782" data-name="Ellipse 782" cx="9.16" cy="11.347" rx="9.16" ry="11.347" transform="translate(17.204 22.489) rotate(-46.71)" fill="#ea4772" stroke="#b51c3d" stroke-miterlimit="10" stroke-width="1"/>
            <ellipse id="Ellipse_783" data-name="Ellipse 783" cx="10.474" cy="9.228" rx="10.474" ry="9.228" transform="matrix(0.193, -0.981, 0.981, 0.193, 35.051, 71.063)" fill="#ea4772" stroke="#b51c3d" stroke-miterlimit="10" stroke-width="1"/>
            <ellipse id="Ellipse_784" data-name="Ellipse 784" cx="10.136" cy="9.16" rx="10.136" ry="9.16" transform="translate(21.768 57.624) rotate(-49.468)" fill="#ea4772" stroke="#b51c3d" stroke-miterlimit="10" stroke-width="1"/>
          </g>
        </g>
      </g>
    </g>
  </g>
</svg>
