<svg xmlns="http://www.w3.org/2000/svg" width="196" height="196" viewBox="0 0 196 196">
  <g id="Group_1971" data-name="Group 1971" transform="translate(-4076 -166)">
    <g id="Group_1953" data-name="Group 1953">
      <g id="Group_1941" data-name="Group 1941" transform="translate(3779 97)">
        <rect id="Rectangle_1254" data-name="Rectangle 1254" width="196" height="196" rx="5" transform="translate(297 69)" fill="#fff"/>
      </g>
    </g>
    <g id="Group_1902" data-name="Group 1902" transform="translate(2562.68 -180.319)">
      <g id="Group_1458" data-name="Group 1458" transform="translate(-6.575 80.199)">
        <g id="Group_1455" data-name="Group 1455" transform="translate(1633.176 295.121)">
          <path id="Path_3822" data-name="Path 3822" d="M1651.608,324.1s21.175,5.324,31.56-5.868c-.19,7.278-5.93,18.556-20.749,12.287C1655.588,327.306,1653.531,325.58,1651.608,324.1Z" transform="translate(-1630.129 -294.457)" fill="#618e2f"/>
          <path id="Path_3823" data-name="Path 3823" d="M1655.01,332.616s-3.57-23.13,9.412-33.1c-7.786-.524-20.4,4.477-15.185,20.918C1651.983,328.047,1653.619,330.415,1655.01,332.616Z" transform="translate(-1630.232 -294.996)" fill="#618e2f"/>
          <path id="Path_3824" data-name="Path 3824" d="M1659,331.065s-17.025-19.038-11.625-35.944c-7.145,4.188-15.2,16.323-.754,28.253C1653.6,328.7,1656.454,329.884,1659,331.065Z" transform="translate(-1630.503 -295.121)" fill="#618e2f"/>
          <path id="Path_3825" data-name="Path 3825" d="M1646.287,322.581s25.048,17.251,36.915,18.741C1678.1,332.874,1670.474,329.012,1646.287,322.581Z" transform="translate(-1630.282 -294.332)" fill="#618e2f"/>
          <path id="Path_3826" data-name="Path 3826" d="M1655.687,335.579s-15.382-26.512-24.958-32.082C1632.173,314.059,1637.334,320.677,1655.687,335.579Z" transform="translate(-1630.729 -294.88)" fill="#618e2f"/>
          <g id="Path_3827" data-name="Path 3827" transform="translate(-1630.729 -295.121)" fill="none" stroke-linecap="round" stroke-linejoin="round">
            <path d="M1683.65,342.111a24.9,24.9,0,0,0-9.92-9.389c6.974-1.5,9.9-8.666,10.039-13.827-8.051,8.676-22.581,7.426-28.708,6.427.039-7.651,1.59-19.33,9.857-25.677-6.406-.43-16.067,2.885-16.393,13.227-1.942-5.563-2.832-11.787-.928-17.749-4.725,2.769-9.844,9.016-8.593,16.38-2.9-3.445-5.785-6.314-8.274-7.763,1.444,10.562,6.6,17.18,24.958,32.083,0,0-2.86-4.928-6.877-10.977,1.412,1.034,2.636,1.88,3.7,2.576a42.04,42.04,0,0,0,2.993,5.321s-.219-1.422-.352-3.707c.888.5,1.654.893,2.352,1.228C1665.765,335.251,1676.861,341.258,1683.65,342.111Z" stroke="none"/>
            <path d="M 1683.649536132812 342.1107788085938 C 1681.318359375 338.2509155273438 1678.454345703125 335.348876953125 1673.729248046875 332.721435546875 C 1680.703125 331.219482421875 1683.633056640625 324.0553588867188 1683.767822265625 318.8941650390625 C 1675.717041015625 327.5704956054688 1661.18701171875 326.3207092285156 1655.059814453125 325.3206787109375 C 1655.098876953125 317.6699829101562 1656.650268554688 305.9906921386719 1664.917236328125 299.6433410644531 C 1658.513549804688 299.2133483886719 1648.850341796875 302.5278930664062 1648.524169921875 312.8698425292969 C 1646.581909179688 307.3064270019531 1645.692138671875 301.0825500488281 1647.596313476562 295.1210021972656 C 1642.871215820312 297.890380859375 1637.752319335938 304.1369018554688 1639.003173828125 311.5006103515625 C 1636.101196289062 308.0553588867188 1633.218627929688 305.1861877441406 1630.72900390625 303.7377319335938 C 1632.173461914062 314.2998046875 1637.333618164062 320.9176940917969 1655.687255859375 335.821044921875 C 1655.687255859375 335.821044921875 1652.827392578125 330.8934020996094 1648.810180664062 324.8443908691406 C 1650.22265625 325.8782958984375 1651.44580078125 326.7239074707031 1652.513671875 327.4203796386719 C 1653.728637695312 330.0045471191406 1654.663696289062 331.4077758789062 1655.506225585938 332.7409973144531 C 1655.506225585938 332.7409973144531 1655.287109375 331.3193054199219 1655.154418945312 329.0344543457031 C 1656.042236328125 329.5364990234375 1656.80859375 329.9273986816406 1657.506225585938 330.2627868652344 C 1665.764892578125 335.2511291503906 1676.86083984375 341.2579345703125 1683.649536132812 342.1107788085938 M 1683.650146484375 345.11083984375 C 1683.52587890625 345.11083984375 1683.40087890625 345.1031188964844 1683.275634765625 345.0873718261719 C 1679.8505859375 344.6571044921875 1675.453247070312 343.1378479003906 1669.832153320312 340.4427185058594 C 1666.33837890625 338.7676086425781 1662.432739257812 336.6610107421875 1658.195434570312 334.1668090820312 C 1658.242797851562 334.2478637695312 1658.27197265625 334.2980041503906 1658.281982421875 334.315185546875 C 1659.0087890625 335.5675659179688 1658.7373046875 337.1604309082031 1657.636596679688 338.1013793945312 C 1656.535888671875 339.0423278808594 1654.920288085938 339.062744140625 1653.796142578125 338.1499328613281 C 1643.825317382812 330.053466796875 1638.234741210938 324.7933044433594 1634.499633789062 319.993896484375 C 1630.60888671875 314.9943542480469 1628.59228515625 310.2542724609375 1627.756713867188 304.1442260742188 C 1627.601318359375 303.0080261230469 1628.107177734375 301.8826599121094 1629.060180664062 301.2447509765625 C 1630.013061523438 300.6067810058594 1631.246337890625 300.5679931640625 1632.237670898438 301.1446533203125 C 1633.56103515625 301.9145812988281 1634.980834960938 303.0092163085938 1636.519775390625 304.4495849609375 C 1636.967895507812 302.9419860839844 1637.62744140625 301.4616394042969 1638.4931640625 300.0330810546875 C 1640.344116210938 296.9788208007812 1643.038330078125 294.315185546875 1646.079345703125 292.5328063964844 C 1647.151611328125 291.904296875 1648.500366210938 292.0021057128906 1649.470825195312 292.7787170410156 C 1650.441162109375 293.5553283691406 1650.832275390625 294.849853515625 1650.4541015625 296.0338134765625 C 1649.81640625 298.0300598144531 1649.513061523438 300.1654968261719 1649.543334960938 302.4274597167969 C 1650.318603515625 301.5785827636719 1651.198852539062 300.8078002929688 1652.178588867188 300.1209411621094 C 1655.364379882812 297.8877258300781 1659.6044921875 296.6069030761719 1663.811767578125 296.6069030761719 C 1664.251831054688 296.6069030761719 1664.69140625 296.6214294433594 1665.1181640625 296.6500854492188 C 1666.363525390625 296.7336730957031 1667.427001953125 297.5796508789062 1667.78857421875 298.7743225097656 C 1668.150146484375 299.968994140625 1667.734252929688 301.2627258300781 1666.744262695312 302.0228576660156 C 1663.572265625 304.4583129882812 1661.2265625 308.1076354980469 1659.772216796875 312.8695068359375 C 1658.87353515625 315.8121337890625 1658.324829101562 319.1143798828125 1658.134643554688 322.7145080566406 C 1659.715087890625 322.890625 1661.591674804688 323.0274353027344 1663.608032226562 323.0273742675781 C 1667.224365234375 323.0272521972656 1670.49658203125 322.5936889648438 1673.333862304688 321.73876953125 C 1676.74365234375 320.7113037109375 1679.51416015625 319.0676879882812 1681.568725585938 316.8535766601562 C 1682.417724609375 315.9386901855469 1683.744506835938 315.6449279785156 1684.900268554688 316.1161193847656 C 1686.056030273438 316.5872497558594 1686.799438476562 317.7247619628906 1686.766845703125 318.9724731445312 C 1686.678588867188 322.3486633300781 1685.62109375 325.9149169921875 1683.865478515625 328.7567749023438 C 1682.756713867188 330.5513610839844 1681.4013671875 332.0395812988281 1679.841552734375 333.1907043457031 C 1680.484008789062 333.7055358886719 1681.090942382812 334.2381591796875 1681.666381835938 334.7913513183594 C 1683.379028320312 336.43798828125 1684.86767578125 338.3248901367188 1686.217529296875 340.5598449707031 C 1686.811889648438 341.5440063476562 1686.79150390625 342.7812805175781 1686.165161132812 343.745361328125 C 1685.607543945312 344.603515625 1684.656860351562 345.11083984375 1683.650146484375 345.11083984375 Z" stroke="none" fill="#000"/>
          </g>
        </g>
        <ellipse id="Ellipse_785" data-name="Ellipse 785" cx="2.922" cy="1.166" rx="2.922" ry="1.166" transform="translate(1603.704 382.57) rotate(-53.814)" fill="#ffc73b"/>
        <ellipse id="Ellipse_786" data-name="Ellipse 786" cx="2.922" cy="1.166" rx="2.922" ry="1.166" transform="translate(1617.244 392.475) rotate(-53.814)" fill="#ffc73b"/>
        <ellipse id="Ellipse_787" data-name="Ellipse 787" cx="2.922" cy="1.166" rx="2.922" ry="1.166" transform="translate(1606.141 367.809) rotate(-53.814)" fill="#ffc73b"/>
        <g id="Group_1456" data-name="Group 1456" transform="translate(1594.315 316.637)">
          <g id="Path_3828" data-name="Path 3828" transform="translate(-1592.953 -316.036)" fill="#fff" stroke-linejoin="round">
            <path d="M 1613.523681640625 414.2679138183594 C 1613.522705078125 414.2679138183594 1613.52197265625 414.2679138183594 1613.521118164062 414.2679138183594 C 1608.45703125 414.2672119140625 1604.11669921875 412.4124450683594 1600.620727539062 408.755126953125 C 1598.20263671875 406.2254638671875 1596.185791015625 402.7995910644531 1594.626342773438 398.5726318359375 C 1593.308471679688 395.0002746582031 1592.287353515625 390.7783508300781 1591.591552734375 386.024169921875 C 1590.277099609375 377.0445556640625 1590.33837890625 367.664306640625 1590.621215820312 361.3764953613281 L 1590.62255859375 361.3471069335938 L 1590.62451171875 361.3177490234375 C 1591.186767578125 353.1200866699219 1592.130615234375 346.4438781738281 1593.509765625 340.9076232910156 C 1594.92041015625 335.2455749511719 1596.802734375 330.7109069824219 1599.264404296875 327.0445251464844 C 1601.694702148438 323.4248962402344 1604.701782226562 320.6287536621094 1608.457397460938 318.4963989257812 C 1611.8017578125 316.5976257324219 1615.856201171875 315.1799621582031 1620.8525390625 314.1624145507812 C 1622.894287109375 313.7467041015625 1624.9853515625 313.5359191894531 1627.06787109375 313.5359191894531 C 1630.490966796875 313.5359191894531 1633.981811523438 314.1025695800781 1637.443115234375 315.2201232910156 C 1640.257202148438 316.1286926269531 1643.07861328125 317.4093627929688 1645.828979492188 319.0265502929688 C 1650.649291992188 321.8609619140625 1653.910278320312 324.93017578125 1654.98193359375 325.938720703125 C 1655.022216796875 325.9766235351562 1655.064819335938 326.0167541503906 1655.102661132812 326.05224609375 C 1662.183471679688 330.3437805175781 1667.84765625 335.1324768066406 1671.942749023438 340.2894287109375 C 1675.537963867188 344.8167419433594 1677.97412109375 349.6819763183594 1679.18359375 354.7500610351562 C 1680.403198242188 359.8606872558594 1680.382934570312 365.1040954589844 1679.123291015625 370.3345947265625 C 1677.9638671875 375.1488952636719 1676.106201171875 378.4320983886719 1675.361328125 379.6201782226562 C 1673.139282226562 383.1652526855469 1664.860473632812 390.2084655761719 1655.676391601562 396.3672180175781 C 1650.0810546875 400.1193542480469 1644.380859375 403.4278564453125 1638.734008789062 406.2008666992188 C 1632.087524414062 409.4647521972656 1625.66796875 411.9014587402344 1619.653442382812 413.4433288574219 C 1617.519287109375 413.9904479980469 1615.456787109375 414.2679138183594 1613.523681640625 414.2679138183594 Z" stroke="none"/>
            <path d="M 1627.06787109375 316.0359191894531 C 1625.2177734375 316.0357971191406 1623.309448242188 316.2134704589844 1621.351440429688 316.6121215820312 C 1603.43994140625 320.260009765625 1595.309936523438 329.5412902832031 1593.11865234375 361.4888305664062 C 1592.329223632812 379.0400695800781 1593.643798828125 411.7678833007812 1613.521362304688 411.7678833007812 C 1615.22021484375 411.7678833007812 1617.05224609375 411.5293273925781 1619.032592773438 411.0216369628906 C 1644.185424804688 404.573486328125 1669.813354492188 383.7641296386719 1673.2431640625 378.2922668457031 C 1676.672973632812 372.8214111328125 1687.344116210938 348.3970947265625 1653.616821289062 328.0753479003906 C 1653.226440429688 327.8407592773438 1642.142333984375 316.036865234375 1627.06787109375 316.0359191894531 M 1627.06591796875 311.0359191894531 L 1627.06591796875 316.0359191894531 L 1627.06640625 311.0359191894531 C 1637.18359375 311.0365600585938 1647.676513671875 315.6580810546875 1656.62451171875 324.0516967773438 C 1663.853637695312 328.4617004394531 1669.6640625 333.3997802734375 1673.900634765625 338.7347717285156 C 1677.724731445312 343.5504150390625 1680.3203125 348.7434997558594 1681.615356445312 354.1697387695312 C 1682.92724609375 359.6672058105469 1682.906616210938 365.3027954101562 1681.5537109375 370.9199523925781 C 1680.30810546875 376.0923767089844 1678.28955078125 379.6560363769531 1677.4794921875 380.9481201171875 C 1675.9951171875 383.3161926269531 1672.660522460938 386.4150695800781 1670.12451171875 388.5976257324219 C 1666.369140625 391.82958984375 1661.854614257812 395.2342529296875 1657.068725585938 398.4435729980469 C 1651.380859375 402.2577819824219 1645.582885742188 405.6227416992188 1639.8359375 408.4448852539062 C 1633.036010742188 411.7841491699219 1626.454467773438 414.2806396484375 1620.274291992188 415.8650207519531 C 1617.937377929688 416.464111328125 1615.665405273438 416.7678833007812 1613.521362304688 416.7678833007812 C 1610.576538085938 416.7678833007812 1607.80029296875 416.1995544433594 1605.27001953125 415.0786743164062 C 1602.894897460938 414.0265502929688 1600.722900390625 412.4808349609375 1598.814331054688 410.4844970703125 C 1596.157958984375 407.7059936523438 1593.9599609375 403.989990234375 1592.281127929688 399.4397277832031 C 1590.903198242188 395.7047729492188 1589.838989257812 391.3133544921875 1589.117919921875 386.387451171875 C 1587.77490234375 377.2122192382812 1587.8359375 367.6609802246094 1588.123657226562 361.26416015625 C 1588.12548828125 361.2249755859375 1588.127685546875 361.1858215332031 1588.13037109375 361.1466979980469 C 1588.702758789062 352.8012390136719 1589.6689453125 345.9832763671875 1591.083984375 340.3032531738281 C 1592.565795898438 334.3550109863281 1594.562744140625 329.5621948242188 1597.188842773438 325.6509704589844 C 1599.840209960938 321.7019653320312 1603.12255859375 318.6505737304688 1607.22314453125 316.3223876953125 C 1610.800048828125 314.29150390625 1615.095092773438 312.7836608886719 1620.353637695312 311.7127075195312 C 1622.559326171875 311.2636108398438 1624.817504882812 311.0359191894531 1627.06591796875 311.0359191894531 Z" stroke="none" fill="#000"/>
          </g>
          <path id="Path_3829" data-name="Path 3829" d="M1655.016,332.324c-.409-.247-13.424-14.132-30.175-10.722s-24.354,12.092-26.4,41.97c-.8,17.817.712,52.355,24.235,46.324s47.491-25.492,50.7-30.608S1686.558,351.329,1655.016,332.324Z" transform="translate(-1592.8 -315.891)" fill="#cc1922"/>
          <ellipse id="Ellipse_788" data-name="Ellipse 788" cx="2.922" cy="1.166" rx="2.922" ry="1.166" transform="translate(16.159 23.134) rotate(-53.814)" fill="#ffc73b"/>
          <ellipse id="Ellipse_789" data-name="Ellipse 789" cx="2.922" cy="1.166" rx="2.922" ry="1.166" transform="translate(14.194 38.412) rotate(-53.814)" fill="#ffc73b"/>
          <ellipse id="Ellipse_790" data-name="Ellipse 790" cx="2.922" cy="1.166" rx="2.922" ry="1.166" transform="translate(27.985 44.89) rotate(-53.814)" fill="#ffc73b"/>
          <ellipse id="Ellipse_791" data-name="Ellipse 791" cx="2.922" cy="1.166" rx="2.922" ry="1.166" transform="translate(41.525 54.795) rotate(-53.814)" fill="#ffc73b"/>
          <ellipse id="Ellipse_792" data-name="Ellipse 792" cx="2.922" cy="1.166" rx="2.922" ry="1.166" transform="translate(53.391 63.476) rotate(-53.814)" fill="#ffc73b"/>
          <ellipse id="Ellipse_793" data-name="Ellipse 793" cx="2.922" cy="1.166" rx="2.922" ry="1.166" transform="translate(33.317 18.507) rotate(-53.814)" fill="#ffc73b"/>
          <ellipse id="Ellipse_794" data-name="Ellipse 794" cx="2.922" cy="1.166" rx="2.922" ry="1.166" transform="translate(47.108 24.985) rotate(-53.814)" fill="#ffc73b"/>
          <ellipse id="Ellipse_795" data-name="Ellipse 795" cx="2.922" cy="1.166" rx="2.922" ry="1.166" transform="translate(60.648 34.89) rotate(-53.814)" fill="#ffc73b"/>
          <ellipse id="Ellipse_796" data-name="Ellipse 796" cx="2.922" cy="1.166" rx="2.922" ry="1.166" transform="translate(67.594 42.433) rotate(-53.814)" fill="#ffc73b"/>
          <ellipse id="Ellipse_797" data-name="Ellipse 797" cx="2.922" cy="1.166" rx="2.922" ry="1.166" transform="translate(32.905 32.155) rotate(-53.814)" fill="#ffc73b"/>
          <ellipse id="Ellipse_798" data-name="Ellipse 798" cx="2.922" cy="1.166" rx="2.922" ry="1.166" transform="translate(39.766 39.636) rotate(-53.814)" fill="#ffc73b"/>
          <ellipse id="Ellipse_799" data-name="Ellipse 799" cx="2.922" cy="1.166" rx="2.922" ry="1.166" transform="translate(53.391 49.603) rotate(-53.814)" fill="#ffc73b"/>
          <ellipse id="Ellipse_800" data-name="Ellipse 800" cx="2.922" cy="1.166" rx="2.922" ry="1.166" transform="translate(23.608 59.79) rotate(-53.814)" fill="#ffc73b"/>
          <ellipse id="Ellipse_801" data-name="Ellipse 801" cx="2.922" cy="1.166" rx="2.922" ry="1.166" transform="translate(37.233 69.757) rotate(-53.814)" fill="#ffc73b"/>
          <ellipse id="Ellipse_802" data-name="Ellipse 802" cx="2.922" cy="1.166" rx="2.922" ry="1.166" transform="translate(64.798 57.199) rotate(-53.814)" fill="#ffc73b"/>
        </g>
        <path id="Path_3830" data-name="Path 3830" d="M1601.14,400.444a3.156,3.156,0,0,0,.942,3.77c1.981,1.5,8.337,6.355,8.561,5.977s-3.379-8.182-5.666-9.841A2.767,2.767,0,0,0,1601.14,400.444Z" transform="translate(1.589 3.004)" fill="#fd787b"/>
        <path id="Path_3831" data-name="Path 3831" d="M1581.026,387.544s-16.327-11.159-16.85-30.1" transform="translate(0.535 1.791)" fill="none" stroke="#000" stroke-linecap="round" stroke-linejoin="round" stroke-width="3"/>
        <g id="Group_1457" data-name="Group 1457" transform="translate(1545.575 353.38)">
          <path id="Path_3832" data-name="Path 3832" d="M1568.009,382.358s19.158-20.115,22.207-30.606C1581.863,355.14,1577.284,361.465,1568.009,382.358Z" transform="translate(-1544.93 -351.752)" fill="#618e2f"/>
          <path id="Path_3833" data-name="Path 3833" d="M1577.723,373.146s-18.972,6.148-29.123-3.416c.619,6.621,6.541,16.548,19.662,9.928C1574.291,376.313,1576.06,374.616,1577.723,373.146Z" transform="translate(-1545.488 -351.235)" fill="#618e2f"/>
          <path id="Path_3834" data-name="Path 3834" d="M1574.783,372.072s-14.706,16.456-29.208,17.652c4,3.5,14.7,5.376,23.655-7.407C1573.184,376.264,1573.974,374.064,1574.783,372.072Z" transform="translate(-1545.575 -351.168)" fill="#618e2f"/>
          <path id="Path_3835" data-name="Path 3835" d="M1569.369,378.492c-5.823,7.891-10.539,14.168-8.789,24.737,2.29,13.825,9.912,19.965,34.405,21.645,14.605.657,43.755-.819,37.975-19.867-5.684-18.728-21.336-38.337-25.092-41.561C1603.106,359.359,1587.293,354.2,1569.369,378.492Z" transform="translate(-1545.154 -351.516)" fill="#d8323a"/>
          <path id="Path_3836" data-name="Path 3836" d="M1571.219,379.7c-5.557,7.525-5.931,8.826-5.756,15.8,2.186,13.185,23.637,15.649,47.015,17.252,13.94.627,22.866,2.681,15.1-14.491-7.692-17.009-17.233-28.254-20.82-31.33C1602.216,363.04,1588.327,356.538,1571.219,379.7Z" transform="translate(-1545.004 -351.428)" fill="#f25362"/>
          <path id="Path_3837" data-name="Path 3837" d="M1572.4,379.607c-5.151,6.975-5.5,8.18-5.334,14.648,2.026,12.218,21.906,14.5,43.571,15.988,12.92.581,21.191,2.484,14-13.429-7.128-15.763-15.971-26.186-19.294-29.035C1601.124,364.165,1588.252,358.138,1572.4,379.607Z" transform="translate(-1544.958 -351.396)" fill="#ff6c81"/>
          <path id="Path_3838" data-name="Path 3838" d="M1572.867,379.787c-4.216,5.437-4.5,6.376-4.366,11.418,1.658,9.524,17.93,11.3,35.662,12.462,10.573.453,17.344,1.937,11.454-10.467-5.833-12.288-13.071-20.412-15.791-22.633C1596.379,367.749,1585.843,363.052,1572.867,379.787Z" transform="translate(-1544.917 -351.293)" fill="#ff9fa4"/>
          <path id="Path_3839" data-name="Path 3839" d="M1574.874,379.1a7.588,7.588,0,0,0,5.386,9.372c7.386,2.465,31.112,10.5,31.613,9.316s-16.045-19.286-24.528-21.942S1574.874,379.1,1574.874,379.1Z" transform="translate(-1544.74 -351.079)" fill="#e2474f"/>
          <path id="Path_3840" data-name="Path 3840" d="M1576.917,380.965s-.411,5.1,4.593,6.442,21.086,5.726,21.257,4.84-12.607-12.962-18.331-14.373S1576.917,380.965,1576.917,380.965Z" transform="translate(-1544.674 -351.009)" fill="#ffcacd"/>
          <path id="Path_3841" data-name="Path 3841" d="M1599.152,395.5a3.157,3.157,0,0,0-.46,3.86c1.319,2.1,5.534,8.9,5.877,8.629s-.25-8.848-1.8-11.212A2.766,2.766,0,0,0,1599.152,395.5Z" transform="translate(-1544.063 -350.502)" fill="#ff9fa4"/>
          <path id="Path_3842" data-name="Path 3842" d="M1590.2,392.72a3.156,3.156,0,0,0-2.156,3.233c.224,2.474.907,10.443,1.336,10.355s3.781-8,3.47-10.813A2.766,2.766,0,0,0,1590.2,392.72Z" transform="translate(-1544.355 -350.575)" fill="#ff9fa4"/>
          <path id="Path_3843" data-name="Path 3843" d="M1579.136,389.946a3.476,3.476,0,0,0-2.226,3.16c.063,2.305.226,9.734.637,9.626s4.044-7.73,3.919-10.344A2.236,2.236,0,0,0,1579.136,389.946Z" transform="translate(-1544.675 -350.654)" fill="#ff9fa4"/>
          <path id="Path_3844" data-name="Path 3844" d="M1611.558,399.448a3.158,3.158,0,0,0,2.037,3.312c2.341.83,9.867,3.539,9.966,3.112s-5.693-6.779-8.374-7.67A2.765,2.765,0,0,0,1611.558,399.448Z" transform="translate(-1543.679 -350.423)" fill="#ff9fa4"/>
          <path id="Path_3845" data-name="Path 3845" d="M1607.953,392.145a3.157,3.157,0,0,0,3.144,2.286c2.481-.123,10.471-.484,10.4-.917s-7.844-4.1-10.663-3.9A2.765,2.765,0,0,0,1607.953,392.145Z" transform="translate(-1543.782 -350.664)" fill="#ff9fa4"/>
          <path id="Path_3846" data-name="Path 3846" d="M1602.623,384.826a2.919,2.919,0,0,0,3.26,1.4c2.166-.6,9.148-2.478,8.994-2.847s-7.795-2.079-10.243-1.354A2.457,2.457,0,0,0,1602.623,384.826Z" transform="translate(-1543.936 -350.887)" fill="#ff9fa4"/>
          <path id="Path_3847" data-name="Path 3847" d="M1596.787,376.412a2.918,2.918,0,0,0,3.259,1.4c2.165-.595,9.149-2.477,9-2.845s-7.8-2.08-10.244-1.354A2.455,2.455,0,0,0,1596.787,376.412Z" transform="translate(-1544.104 -351.129)" fill="#ff9fa4"/>
          <ellipse id="Ellipse_803" data-name="Ellipse 803" cx="1.215" cy="3.023" rx="1.215" ry="3.023" transform="translate(35.064 68.557) rotate(-78.658)" fill="#ffc73b"/>
          <ellipse id="Ellipse_804" data-name="Ellipse 804" cx="1.215" cy="3.023" rx="1.215" ry="3.023" transform="translate(24.31 58.291) rotate(-64.346)" fill="#ffc73b"/>
          <ellipse id="Ellipse_805" data-name="Ellipse 805" cx="1.215" cy="3.023" rx="1.215" ry="3.023" transform="matrix(0.044, -0.999, 0.999, 0.044, 53.808, 71.191)" fill="#ffc73b"/>
          <ellipse id="Ellipse_806" data-name="Ellipse 806" cx="1.215" cy="3.023" rx="1.215" ry="3.023" transform="matrix(0.044, -0.999, 0.999, 0.044, 67.023, 67.158)" fill="#ffc73b"/>
          <ellipse id="Ellipse_807" data-name="Ellipse 807" cx="1.215" cy="3.023" rx="1.215" ry="3.023" transform="matrix(0.098, -0.995, 0.995, 0.098, 46.802, 64.9)" fill="#ffc73b"/>
          <g id="Path_3848" data-name="Path 3848" transform="translate(-1545.575 -351.752)" fill="none" stroke-linecap="round" stroke-linejoin="round">
            <path d="M1633.381,405.243c-5.684-18.728-21.336-38.337-25.092-41.561-3.54-3.039-13.19-6.657-25.271,1.658,3.6-4.854,6.753-9.837,7.843-13.589-7.276,2.951-11.69,8.135-18.838,23.232-6.418,1.057-16.739,1.479-23.336-4.737.562,6,5.479,14.719,16.168,11.368-5.394,4.075-12.358,8.123-19.28,8.694,3.066,2.683,10.07,4.4,17.2-.691A22.741,22.741,0,0,0,1561,403.466c2.29,13.825,9.912,19.965,34.4,21.645C1610.011,425.768,1639.162,424.292,1633.381,405.243Z" stroke="none"/>
            <path d="M 1600.695190429688 425.2293701171875 C 1616.009521484375 425.2297058105469 1638.525146484375 422.1942443847656 1633.381103515625 405.243408203125 C 1627.697265625 386.5152282714844 1612.045043945312 366.9064025878906 1608.289184570312 363.6823120117188 C 1604.7490234375 360.6434326171875 1595.099731445312 357.0251159667969 1583.018188476562 365.3406372070312 C 1586.61669921875 360.487060546875 1589.770751953125 355.5038146972656 1590.861206054688 351.7520446777344 C 1583.5849609375 354.7034912109375 1579.170776367188 359.8872985839844 1572.023071289062 374.9840393066406 C 1565.604125976562 376.0406188964844 1555.284057617188 376.4632873535156 1548.68701171875 370.2467346191406 C 1549.248901367188 376.2483825683594 1554.166137695312 384.9661560058594 1564.854736328125 381.6142883300781 C 1559.461059570312 385.6891174316406 1552.496459960938 389.7372131347656 1545.575073242188 390.3081665039062 C 1548.640502929688 392.9910583496094 1555.645385742188 394.7113342285156 1562.778686523438 389.6168518066406 C 1560.940307617188 393.6258544921875 1560.089599609375 397.9619750976562 1561.0009765625 403.4657592773438 C 1563.291015625 417.2909851074219 1570.912963867188 423.4305114746094 1595.405151367188 425.1104431152344 C 1597.013427734375 425.1828308105469 1598.80029296875 425.2293395996094 1600.695190429688 425.2293701171875 M 1600.697631835938 428.2293701171875 L 1600.697631835938 425.2293701171875 L 1600.69677734375 428.2293701171875 C 1598.892944335938 428.2293395996094 1597.067749023438 428.1883239746094 1595.270263671875 428.107421875 C 1595.246826171875 428.1063537597656 1595.223266601562 428.1050109863281 1595.199829101562 428.1034240722656 C 1588.834228515625 427.6667785644531 1583.635009765625 426.9387512207031 1579.304931640625 425.8777160644531 C 1574.786254882812 424.7704772949219 1571.161376953125 423.287841796875 1568.222778320312 421.3451232910156 C 1565.242309570312 419.3746643066406 1562.970703125 416.94091796875 1561.278198242188 413.9047546386719 C 1559.756958007812 411.1759338378906 1558.6982421875 407.9216918945312 1558.041259765625 403.9559936523438 C 1557.534545898438 400.8956909179688 1557.493530273438 398.0324401855469 1557.933471679688 395.2479553222656 C 1556.383544921875 395.673828125 1554.81103515625 395.8915405273438 1553.244018554688 395.8915405273438 C 1551.338989257812 395.8915405273438 1549.498901367188 395.5777893066406 1547.774658203125 394.958984375 C 1546.177001953125 394.3855590820312 1544.733154296875 393.5579833984375 1543.599365234375 392.5657043457031 C 1542.692749023438 391.7722778320312 1542.348754882812 390.5135192871094 1542.725830078125 389.3692626953125 C 1543.102783203125 388.2250366210938 1544.127807617188 387.4173583984375 1545.328491210938 387.3183288574219 C 1548.127563476562 387.0874328613281 1551.205810546875 386.1649169921875 1554.4775390625 384.5764465332031 C 1554.654052734375 384.49072265625 1554.831298828125 384.4029846191406 1555.009033203125 384.3134155273438 C 1554.66650390625 384.1697387695312 1554.329711914062 384.0112915039062 1553.999145507812 383.8382873535156 C 1552.294067382812 382.9459228515625 1550.781860351562 381.6807250976562 1549.50439453125 380.0778503417969 C 1547.40869140625 377.4483642578125 1546.022094726562 373.9669799804688 1545.700073242188 370.5263061523438 C 1545.583740234375 369.2835388183594 1546.249145507812 368.0985717773438 1547.370727539062 367.5509338378906 C 1548.492431640625 367.003173828125 1549.8359375 367.2073364257812 1550.744384765625 368.0633544921875 C 1553.944213867188 371.0784912109375 1558.653686523438 372.6072692871094 1564.741943359375 372.6072082519531 C 1566.427490234375 372.6072082519531 1568.19189453125 372.4873046875 1570.004638671875 372.2501831054688 C 1573.459716796875 365.0910034179688 1576.281372070312 360.3241882324219 1579.072143554688 356.9136962890625 C 1582.13623046875 353.1693115234375 1585.42431640625 350.7200317382812 1589.733520507812 348.9720458984375 C 1590.799072265625 348.5398864746094 1592.017456054688 348.7546081542969 1592.87109375 349.5248413085938 C 1593.724609375 350.2951049804688 1594.062866210938 351.4853515625 1593.741943359375 352.58935546875 C 1593.27197265625 354.2064819335938 1592.483154296875 356.0314636230469 1591.362548828125 358.08740234375 C 1593.507080078125 357.5132751464844 1595.651123046875 357.2228698730469 1597.754150390625 357.2228698730469 C 1600.357788085938 357.2228698730469 1602.858642578125 357.6601257324219 1605.187255859375 358.5224914550781 C 1607.139770507812 359.2455749511719 1608.888061523438 360.24267578125 1610.243286132812 361.406005859375 C 1612.494140625 363.3381958007812 1617.593017578125 369.4552001953125 1622.609008789062 376.9857482910156 C 1627.076782226562 383.6933288574219 1633.070434570312 393.8894958496094 1636.251831054688 404.3721923828125 C 1637.064208984375 407.0491638183594 1637.3134765625 409.5858764648438 1636.992919921875 411.911865234375 C 1636.679565429688 414.1853942871094 1635.8251953125 416.2760925292969 1634.453369140625 418.1258850097656 C 1632.891967773438 420.2315063476562 1630.644409179688 422.0347900390625 1627.773193359375 423.4856262207031 C 1625.371215820312 424.6993103027344 1622.473266601562 425.6958618164062 1619.15966796875 426.4475708007812 C 1613.947998046875 427.6298828125 1607.736450195312 428.2293701171875 1600.697631835938 428.2293701171875 Z" stroke="none" fill="#000"/>
          </g>
        </g>
      </g>
    </g>
  </g>
</svg>
