<svg xmlns="http://www.w3.org/2000/svg" width="196" height="196" viewBox="0 0 196 196">
  <g id="Group_1972" data-name="Group 1972" transform="translate(-4297 -166)">
    <g id="Group_1954" data-name="Group 1954">
      <g id="Group_1942" data-name="Group 1942" transform="translate(4000 97)">
        <rect id="Rectangle_1254" data-name="Rectangle 1254" width="196" height="196" rx="5" transform="translate(297 69)" fill="#fff"/>
      </g>
    </g>
    <g id="Group_1868" data-name="Group 1868" transform="translate(2604.138 -171.392)">
      <g id="Group_1521" data-name="Group 1521">
        <g id="Group_1020" data-name="Group 1020" transform="translate(1727.525 364.727)">
          <path id="Path_2589" data-name="Path 2589" d="M1789.912,309.458s.02-8.526,5.342-13.849,11.69-1.633,13.85-.232,7.729,4.2,9.611,1.749,1.124-4.2-.8-4.666-8.241,5.144-.533,8.586c1.42.49,5.305.328,6.073-.918" transform="translate(-1733.144 -292.433)" fill="none" stroke="#000" stroke-linecap="round" stroke-miterlimit="10" stroke-width="3"/>
          <g id="Group_1018" data-name="Group 1018" transform="translate(4.702 25.245)">
            <ellipse id="Ellipse_411" data-name="Ellipse 411" cx="53.058" cy="53.058" rx="53.058" ry="53.058" transform="translate(0 0.001)" fill="#569e2b"/>
            <path id="Path_2590" data-name="Path 2590" d="M1791.114,423.644c-9.7,0-23.4-18.659-23.4-54.355s23.4-51.759,23.4-51.759-36.9,16.063-36.9,51.759S1781.41,423.644,1791.114,423.644Z" transform="translate(-1738.057 -317.529)" fill="#397214"/>
            <path id="Path_2591" data-name="Path 2591" d="M1791.783,423.644c10.1,0,38.4-18.659,38.4-54.355s-38.4-51.76-38.4-51.76h-.175s22.246,16.1,24.08,51.76c1,19.374-13.982,54.355-24.08,54.355" transform="translate(-1737.836 -317.529)" fill="#397214"/>
            <path id="Path_2592" data-name="Path 2592" d="M1790.935,317.53" transform="translate(-1737.839 -317.529)" fill="#397214"/>
            <path id="Path_2593" data-name="Path 2593" d="M1791.062,317.53s-9.025,18.062-9.025,50.791,9,55.323,9,55.323,7.094-29.422,7.094-54.355S1791.062,317.53,1791.062,317.53Z" transform="translate(-1737.892 -317.529)" fill="#397214"/>
          </g>
          <g id="Ellipse_412" data-name="Ellipse 412" transform="translate(0 21.734)" fill="none" stroke="#000" stroke-miterlimit="10" stroke-width="5">
            <circle cx="54.956" cy="54.956" r="54.956" stroke="none"/>
            <circle cx="54.956" cy="54.956" r="57.456" fill="none"/>
          </g>
          <g id="Group_1019" data-name="Group 1019" transform="translate(51.351 72.175)">
            <g id="Path_1786" data-name="Path 1786" transform="translate(-1784.527 -356.908)" fill="#5cbc2a" stroke-miterlimit="10">
              <path d="M 1822.050170898438 427.5633239746094 C 1803.059692382812 427.5633239746094 1790.39453125 414.8695373535156 1784.53515625 407.3029479980469 C 1783.360107421875 405.7907409667969 1782.843872070312 403.9090881347656 1783.0830078125 402.006591796875 C 1783.322021484375 400.1043395996094 1784.287719726562 398.4090270996094 1785.802001953125 397.2329711914062 C 1786.137939453125 396.9718627929688 1786.5 396.739013671875 1786.8779296875 396.5413208007812 L 1864.22119140625 356.0518798828125 C 1865.026000976562 355.6304626464844 1865.929443359375 355.40771484375 1866.833618164062 355.40771484375 C 1868.9404296875 355.40771484375 1870.85595703125 356.5662841796875 1871.83251953125 358.4313354492188 C 1872.16357421875 359.0616760253906 1872.370239257812 359.7444152832031 1872.445922851562 360.4589538574219 C 1872.901000976562 364.7754516601562 1873.051879882812 369.1371154785156 1872.894409179688 373.4234313964844 C 1872.677734375 379.3216857910156 1871.87353515625 384.9087829589844 1870.504272460938 390.029541015625 C 1868.797729492188 396.4113159179688 1866.200317382812 402.0997009277344 1862.7841796875 406.9366760253906 C 1858.752075195312 412.6457214355469 1853.5224609375 417.2467346191406 1847.240600585938 420.6118774414062 C 1838.628662109375 425.2245483398438 1830.1533203125 427.5633239746094 1822.050170898438 427.5633239746094 Z" stroke="none"/>
              <path d="M 1822.050170898438 426.0633239746094 C 1829.277709960938 426.0633239746094 1837.448852539062 424.1548156738281 1846.532348632812 419.2896423339844 C 1872.643310546875 405.3022155761719 1872.341552734375 373.7744140625 1870.954223632812 360.6168823242188 C 1870.899047851562 360.0957946777344 1870.747192382812 359.5908508300781 1870.503662109375 359.1271362304688 C 1869.443359375 357.1021118164062 1866.941650390625 356.3207397460938 1864.916870117188 357.3807983398438 L 1787.5732421875 397.8704223632812 C 1787.273315429688 398.02734375 1786.988647460938 398.2104187011719 1786.722045898438 398.4176635742188 C 1784.245483398438 400.3410034179688 1783.796752929688 403.9079895019531 1785.72119140625 406.3845520019531 C 1791.478759765625 413.8197326660156 1803.740600585938 426.0633239746094 1822.050170898438 426.0633239746094 M 1822.050170898438 429.0633239746094 C 1802.419677734375 429.0633239746094 1789.376708984375 416.0051574707031 1783.349243164062 408.2213439941406 C 1781.928955078125 406.391357421875 1781.305786132812 404.1180114746094 1781.594604492188 401.8195495605469 C 1781.883666992188 399.5197143554688 1783.051147460938 397.4700927734375 1784.881958007812 396.0482788085938 C 1785.287719726562 395.7328491210938 1785.7255859375 395.4512939453125 1786.182495117188 395.2122802734375 L 1863.525512695312 354.7229614257812 C 1864.544067382812 354.1896362304688 1865.688110351562 353.9076843261719 1866.83349609375 353.9076843261719 C 1869.500366210938 353.9076843261719 1871.925048828125 355.3744506835938 1873.161376953125 357.7355346679688 C 1873.580078125 358.5328979492188 1873.841796875 359.3971252441406 1873.9375 360.3009338378906 C 1874.400146484375 364.6884460449219 1874.553466796875 369.1215515136719 1874.393432617188 373.4784851074219 C 1874.172607421875 379.4889221191406 1873.351684570312 385.1878662109375 1871.953369140625 390.4170532226562 C 1870.200805664062 396.9706115722656 1867.528076171875 402.8197631835938 1864.009399414062 407.8020324707031 C 1859.841674804688 413.7031860351562 1854.438110351562 418.4578857421875 1847.948974609375 421.9341125488281 C 1839.11669921875 426.6647338867188 1830.403076171875 429.0633239746094 1822.050170898438 429.0633239746094 Z" stroke="none" fill="#000"/>
            </g>
            <path id="Path_1786-2" data-name="Path 1786" d="M1791.86,397.939l70.738-37.215a3.94,3.94,0,0,1,5.209,1.407,3.494,3.494,0,0,1,.448,1.3c1.56,11.507,2.5,39.145-21.373,51.987-29.346,15.784-48.906-1.053-56.556-9.968a4.806,4.806,0,0,1,.759-7.008A5.258,5.258,0,0,1,1791.86,397.939Z" transform="translate(-1784.499 -356.888)" fill="#fffee3"/>
            <path id="Path_1786-3" data-name="Path 1786" d="M1794.889,397.147l65.72-34.575a3.659,3.659,0,0,1,4.839,1.307,3.246,3.246,0,0,1,.416,1.2c1.45,10.691,2.325,36.367-19.856,48.3-27.265,14.664-45.437-.979-52.545-9.261a4.465,4.465,0,0,1,.705-6.511A4.846,4.846,0,0,1,1794.889,397.147Z" transform="translate(-1784.48 -356.877)" fill="#ff2929"/>
            <ellipse id="Ellipse_106" data-name="Ellipse 106" cx="0.772" cy="1.801" rx="0.772" ry="1.801" transform="translate(43.405 31.142) rotate(-28.958)"/>
            <ellipse id="Ellipse_106-2" data-name="Ellipse 106" cx="0.772" cy="1.801" rx="0.772" ry="1.801" transform="translate(52.907 25.916) rotate(-28.958)"/>
            <ellipse id="Ellipse_106-3" data-name="Ellipse 106" cx="0.772" cy="1.801" rx="0.772" ry="1.801" transform="matrix(0.174, -0.985, 0.985, 0.174, 60.138, 23.186)"/>
            <ellipse id="Ellipse_106-4" data-name="Ellipse 106" cx="0.772" cy="1.801" rx="0.772" ry="1.801" transform="translate(31.962 35.143) rotate(7)"/>
            <ellipse id="Ellipse_106-5" data-name="Ellipse 106" cx="0.772" cy="1.801" rx="0.772" ry="1.801" transform="translate(41.067 37.23)"/>
            <ellipse id="Ellipse_106-6" data-name="Ellipse 106" cx="0.772" cy="1.801" rx="0.772" ry="1.801" transform="translate(52.556 34.321) rotate(-28.958)"/>
            <ellipse id="Ellipse_106-7" data-name="Ellipse 106" cx="0.772" cy="1.801" rx="0.772" ry="1.801" transform="translate(60.535 28.906) rotate(-58)"/>
          </g>
          <path id="Path_2594" data-name="Path 2594" d="M1780.422,296.331s11.315,1.455,10.495,14.9" transform="translate(-1733.2 -292.41)" fill="none" stroke="#000" stroke-linecap="round" stroke-linejoin="round" stroke-width="5"/>
        </g>
        <path id="Path_2614" data-name="Path 2614" d="M1754.213,351.211a54.082,54.082,0,0,1,11.39-17.728,29.657,29.657,0,0,1,10.657-6.967" transform="translate(-13.736 75.14)" fill="none" stroke="#fff" stroke-linecap="round" stroke-linejoin="round" stroke-width="4"/>
      </g>
    </g>
  </g>
</svg>
