<svg xmlns="http://www.w3.org/2000/svg" width="132.687" height="149" viewBox="0 0 132.687 149">
  <g id="Group_1524" data-name="Group 1524" transform="translate(-238.626 -562)">
    <path id="Path_2621" data-name="Path 2621" d="M299.342,552.052s7.71-10.351,21.1-7.613" transform="translate(11.719 72.464)" fill="none" stroke="#fff" stroke-linecap="round" stroke-miterlimit="10" stroke-width="5"/>
    <g id="Group_1144" data-name="Group 1144" transform="translate(-25.759 70.949)">
      <g id="Group_1143" data-name="Group 1143" transform="translate(264.385 491.051)">
        <path id="Path_3276" data-name="Path 3276" d="M360.141,495.191a3.9,3.9,0,0,0-3.883,4.332c.842,7.694-2.784,17.125-7.392,25.621,1.568-6.67,1.984-13.437-.113-19.043a3.909,3.909,0,0,0-7.322,2.74c3.16,8.441-1.947,22.327-6.822,32.217a37.259,37.259,0,0,0-16.174-3.664c-20.054,0-32.3,18.058-32.3,37.384,0,8.956,2.635,16.271,7.454,21.546-4.857,12.052-15.757,20.066-23.927,24.621a2.2,2.2,0,0,0,1.544,4.07c14.167-2.753,27.836-12.088,37.555-20.248a43.462,43.462,0,0,0,9.677,1.037c20.054,0,36.31-14.092,36.31-33.418a33.917,33.917,0,0,0-5.91-19.126c9.119-6.887,23.793-19.9,24.947-33.09a3.908,3.908,0,0,0-7.786-.682c-.853,9.741-13.245,21.075-22.192,27.794,7.7-10.249,22.05-31.882,20.222-48.608a3.916,3.916,0,0,0-3.887-3.483m0-4.141a8.057,8.057,0,0,1,8,7.174,39.933,39.933,0,0,1-1.271,14.134,7.977,7.977,0,0,1,2.99-.58c.246,0,.495.012.74.034a8.057,8.057,0,0,1,7.3,8.718c-.586,6.694-4.109,13.842-10.472,21.246a100.875,100.875,0,0,1-13.15,12.487,37.959,37.959,0,0,1,4.6,18.123,36.008,36.008,0,0,1-12,27.028,42.188,42.188,0,0,1-28.452,10.531,49.057,49.057,0,0,1-8.558-.728A123.015,123.015,0,0,1,293.72,620.5a71.2,71.2,0,0,1-21.726,8.576,6.668,6.668,0,0,1-1.266.123,6.294,6.294,0,0,1-4.058-1.48,6.5,6.5,0,0,1-2.075-3.307,6.23,6.23,0,0,1,3.05-7.088c7.128-3.974,16.331-10.643,21.113-20.343a31.668,31.668,0,0,1-4.613-8.688,40.919,40.919,0,0,1-2.152-13.52,48.534,48.534,0,0,1,2.437-15.3,42.21,42.21,0,0,1,7.107-13.236,34.843,34.843,0,0,1,11.532-9.427,33.885,33.885,0,0,1,15.367-3.565,41.816,41.816,0,0,1,9.369,1.06,41.265,41.265,0,0,1,4.747,1.4,79.815,79.815,0,0,0,4.473-12.342c1.45-5.6,1.633-10.126.529-13.076a8.063,8.063,0,0,1,4.718-10.36l.009,0a8.054,8.054,0,0,1,9.879,3.685,18.851,18.851,0,0,0-.017-3.641,8.06,8.06,0,0,1,7.127-8.876h.006A8.092,8.092,0,0,1,360.141,491.051Z" transform="translate(-264.385 -491.051)"/>
        <g id="Group_1142" data-name="Group 1142" transform="translate(4.143 4.508)">
          <path id="Path_3277" data-name="Path 3277" d="M326.087,554.607a3.624,3.624,0,0,1-3.056-5.565c4.8-7.559,16.276-29.755,11.867-41.536a3.623,3.623,0,0,1,6.787-2.54c6.574,17.567-11.754,46.729-12.537,47.962A3.619,3.619,0,0,1,326.087,554.607Z" transform="translate(-261.727 -494.238)" fill="#1c7c1c"/>
          <path id="Path_3278" data-name="Path 3278" d="M332.1,556.041a3.624,3.624,0,0,1-1.927-6.694c7.584-4.755,27.507-19.841,28.6-32.373a3.623,3.623,0,1,1,7.219.632c-1.635,18.687-30.738,37.108-31.976,37.883A3.606,3.606,0,0,1,332.1,556.041Z" transform="translate(-261.02 -492.936)" fill="#1c7c1c"/>
          <path id="Path_3279" data-name="Path 3279" d="M329.057,553.854a3.624,3.624,0,0,1-2.754-5.976c.252-.3,25.165-29.736,23.088-48.74a3.623,3.623,0,0,1,7.2-.787c2.416,22.112-23.67,52.932-24.782,54.234A3.615,3.615,0,0,1,329.057,553.854Z" transform="translate(-261.377 -495.121)" fill="#1c7c1c"/>
          <path id="Path_3280" data-name="Path 3280" d="M352.842,568.544c0,19.1-15.941,33.035-35.6,33.035s-31.674-11.566-31.674-30.671,12.011-36.954,31.674-36.954S352.842,549.44,352.842,568.544Z" transform="translate(-266.364 -490.835)" fill="#c41b5c"/>
          <path id="Path_3281" data-name="Path 3281" d="M271.063,617.422a2.2,2.2,0,0,1-1.544-4.069c11.651-6.5,28.871-20.013,26.169-42.267-3.595-29.606,20.718,3.579,26.027,11.117a2.195,2.195,0,0,1-.183,2.764C316.265,590.63,294.325,612.9,271.063,617.422Z" transform="translate(-268.387 -487.883)" fill="#c41b5c"/>
        </g>
      </g>
      <path id="Path_3282" data-name="Path 3282" d="M299.428,555.68a2.588,2.588,0,0,1-2.074-4.134,26.965,26.965,0,0,1,6.886-6.053,25.893,25.893,0,0,1,19.292-3.447,2.588,2.588,0,1,1-1.037,5.071c-13.2-2.7-20.913,7.418-20.99,7.52A2.584,2.584,0,0,1,299.428,555.68Z" transform="translate(3.7 5.817)" fill="#fff"/>
      <path id="Path_3283" data-name="Path 3283" d="M383.986,607.768c3.775-9.269-5.048-23.346-20.571-32.258-15.68-9-32.465-9.45-38.413-1.264l0,0-.017.029a9.969,9.969,0,0,0-1.235,2.214c-6.322,12.383-2.469,27.5,2.342,35.8a32.425,32.425,0,0,0,28.645,15.871C375.7,627.864,383.986,607.768,383.986,607.768Z" transform="translate(6.273 8.784)" fill="#c41b5c"/>
      <path id="Path_3283_-_Outline" data-name="Path 3283 - Outline" d="M354.367,628.266q.236,0,.471,0c20.972-.294,29.253-20.39,29.253-20.39,3.775-9.269-5.048-23.346-20.571-32.258-15.68-9-32.465-9.45-38.413-1.264l0,0-.017.029a9.972,9.972,0,0,0-1.235,2.214c-6.322,12.383-2.469,27.5,2.342,35.8a32.4,32.4,0,0,0,28.174,15.874m0,3.106v0a36.65,36.65,0,0,1-17.442-4.406,34.853,34.853,0,0,1-7.484-5.455,34.257,34.257,0,0,1-5.937-7.561,47.76,47.76,0,0,1-5.742-17.551,41.2,41.2,0,0,1,.033-10.579,33.341,33.341,0,0,1,3.237-10.538,13.809,13.809,0,0,1,.731-1.488c.208-.362.448-.733.731-1.132a3.1,3.1,0,0,1,.22-.3,16.07,16.07,0,0,1,7.171-5.275,26.7,26.7,0,0,1,9.757-1.671c7.964,0,16.993,2.666,25.423,7.506,7.909,4.541,14.514,10.587,18.6,17.025,4.352,6.86,5.525,13.642,3.3,19.1l0,.012a40.815,40.815,0,0,1-7.356,11.013,36.291,36.291,0,0,1-9.924,7.643,32.943,32.943,0,0,1-14.8,3.656C354.711,631.371,354.539,631.372,354.37,631.372Z" transform="translate(6.168 8.679)"/>
      <ellipse id="Ellipse_587" data-name="Ellipse 587" cx="18.113" cy="32.064" rx="18.113" ry="32.064" transform="translate(323.421 600.855) rotate(-60.137)" fill="#d85993"/>
      <ellipse id="Ellipse_588" data-name="Ellipse 588" cx="13.324" cy="23.585" rx="13.324" ry="23.585" transform="translate(333.807 599.794) rotate(-60.137)" fill="#c41b5c"/>
      <ellipse id="Ellipse_589" data-name="Ellipse 589" cx="11.236" cy="19.89" rx="11.236" ry="19.89" transform="translate(338.556 599.342) rotate(-60.137)" fill="#d85993"/>
      <ellipse id="Ellipse_590" data-name="Ellipse 590" cx="8.544" cy="15.124" rx="8.544" ry="15.124" transform="translate(344.304 598.903) rotate(-60.137)" fill="#c41b5c"/>
      <path id="Path_3284" data-name="Path 3284" d="M298.883,576.014a1.033,1.033,0,0,1-.335-.056c-5.319-1.82-8.623-6.726-8.761-6.934a1.035,1.035,0,0,1,1.725-1.145c.057.085,3.088,4.54,7.707,6.12a1.035,1.035,0,0,1-.335,2.015Z" transform="translate(2.724 8.749)" fill="#d85993"/>
      <path id="Path_3285" data-name="Path 3285" d="M305.548,591.567a1.035,1.035,0,0,1-.335-.056c-5.319-1.819-8.623-6.726-8.761-6.934a1.035,1.035,0,0,1,1.724-1.146h0c.03.045,3.067,4.534,7.707,6.121a1.035,1.035,0,0,1-.335,2.015Z" transform="translate(3.51 10.581)" fill="#d85993"/>
      <path id="Path_3286" data-name="Path 3286" d="M318.608,576.7a1.033,1.033,0,0,1-.335-.056c-5.318-1.82-8.624-6.727-8.762-6.935a1.035,1.035,0,0,1,1.724-1.146h0c.03.045,3.068,4.534,7.708,6.122a1.035,1.035,0,0,1-.335,2.015Z" transform="translate(5.048 8.829)" fill="#d85993"/>
    </g>
  </g>
</svg>
