<svg xmlns="http://www.w3.org/2000/svg" width="129.739" height="124.166" viewBox="0 0 129.739 124.166">
  <g id="Group_1527" data-name="Group 1527" transform="translate(-622.001 -583.226)">
    <g id="Group_1526" data-name="Group 1526">
      <path id="Path_3219" data-name="Path 3219" d="M654.795,570.61a9.1,9.1,0,0,1,7.016-5.333,20.583,20.583,0,0,1,10.664.655c1.4.562,9.636-.094,13.752,4.678s.472,6.547.609,6.923-15.986,3.086-22.283.935A20.352,20.352,0,0,1,654.795,570.61Z" transform="translate(-8.363 79.03)" fill="#90be16"/>
      <path id="Path_3220" data-name="Path 3220" d="M645.3,578.328s.562-5.738,3.742-6.985,4.553-2.12,4.927-2.245,4.49-1.809,6.922,0,2.432,2.494,4.74,2.557,7.671.811,7.921,4.115,3.492,13.285,1.123,14.407-11.85,5.115-13.72,3.555S647.737,583.442,645.3,578.328Z" transform="translate(-9.725 79.513)" fill="#5faa2e"/>
      <path id="Path_3221" data-name="Path 3221" d="M663.581,591.388s-1.31-3.367,2.058-6.549c.935-5.052,1.5-7.578,2.9-8.793,0-2.058-.094-7.765,4.3-8.607,4.116,0,8.139,1.871,9.542,4.584,2.245.374,6.174,2.058,6.829,5.146,2.994,3.086,2.806,6.267,2.338,7.858s-1.117,17.962-5.938,18.429-12.771,4.49-14.456,2.338S663.581,591.388,663.581,591.388Z" transform="translate(-7.139 79.395)" fill="#5ea036"/>
      <path id="Path_3222" data-name="Path 3222" d="M672.875,571.854s10.852,8.513,7.11,26.007" transform="translate(-5.769 80.028)" fill="none" stroke="#e4ffa9" stroke-linecap="round" stroke-linejoin="round" stroke-width="2"/>
      <path id="Path_3223" data-name="Path 3223" d="M656.874,573.569a16.724,16.724,0,0,0,3.275,16.562" transform="translate(-8.197 80.274)" fill="none" stroke="#e4ffa9" stroke-linecap="round" stroke-linejoin="round" stroke-width="2"/>
      <path id="Path_3224" data-name="Path 3224" d="M662.035,622.315s-11.881-.935-17.774-12.068c-3.555-3.461-4.771-4.209-5.52-10.478-1.683-4.4-2.432-8.232-1.215-10.478a12.638,12.638,0,0,0,1.683-5.706c-.093-1.029-1.216-7.39.655-9.168s4.771-.468,5.8,1.217c1.684.094,5.146-.094,6.175,2.152,2.62,1.777,4.4-.375,7.952,5.987,1.591.935,7.952,1.5,9.448,4.958s5.706,6.354,5.052,9.211c2.62.892,8.793,7.815,6.549,15.112S675.133,625.4,662.035,622.315Z" transform="translate(-10.926 80.274)" fill="#90be16"/>
      <path id="Path_3225" data-name="Path 3225" d="M671.389,621.41s-5.75-2.414-4.929-8.044,3.019-5.881,4.274-7.419,2.293-10.005,6.645-11,3.281-2,4.872-3.9,5.943-3.781,6.863-4.961,2.554-1.69,3.171-6.358,3.908-1.441,3.908-1.441,1.886,3.464,3,4.081,5.657,6.821-.529,18.133C695.023,609.328,689.559,622.14,671.389,621.41Z" transform="translate(-6.701 80.795)" fill="#afd634"/>
      <path id="Path_3226" data-name="Path 3226" d="M643.147,588.194s-1.356,22.874,24.733,28.466" transform="translate(-10.035 82.372)" fill="none" stroke="#fff" stroke-linecap="round" stroke-linejoin="round" stroke-width="2"/>
      <path id="Path_3227" data-name="Path 3227" d="M673.021,616s21.095-7.3,16.944-29.532" transform="translate(-5.748 82.125)" fill="none" stroke="#fff" stroke-linecap="round" stroke-linejoin="round" stroke-width="2"/>
      <path id="Path_3228" data-name="Path 3228" d="M647.535,603.363a32.74,32.74,0,0,0,2.71-10.243" transform="translate(-9.404 83.079)" fill="none" stroke="#fff" stroke-linecap="round" stroke-linejoin="round" stroke-width="2"/>
      <path id="Path_3229" data-name="Path 3229" d="M655.408,610.24s7.285-5.539,7.988-10.6" transform="translate(-8.275 84.015)" fill="none" stroke="#fff" stroke-linecap="round" stroke-linejoin="round" stroke-width="2"/>
      <path id="Path_3230" data-name="Path 3230" d="M679.493,585.37s3.807-4.073,4.174-7.793" transform="translate(-4.819 80.849)" fill="none" stroke="#e4ffa9" stroke-linecap="round" stroke-linejoin="round" stroke-width="2"/>
      <path id="Path_3231" data-name="Path 3231" d="M655.961,578.3s2.675-1.2,2.933-2.3" transform="translate(-8.195 80.623)" fill="none" stroke="#e4ffa9" stroke-linecap="round" stroke-linejoin="round" stroke-width="2"/>
      <path id="Path_3232" data-name="Path 3232" d="M675.942,574.993a12.374,12.374,0,0,0,.64-3.139" transform="translate(-5.329 80.028)" fill="none" stroke="#e4ffa9" stroke-linecap="round" stroke-linejoin="round" stroke-width="2"/>
      <path id="Path_3233" data-name="Path 3233" d="M673.738,579.017a12.19,12.19,0,0,0,5.039,2.127" transform="translate(-5.645 81.056)" fill="none" stroke="#e4ffa9" stroke-linecap="round" stroke-linejoin="round" stroke-width="2"/>
      <path id="Path_3234" data-name="Path 3234" d="M646.007,605.506a9.154,9.154,0,0,0,4.035.11" transform="translate(-9.623 84.856)" fill="none" stroke="#fff" stroke-linecap="round" stroke-linejoin="round" stroke-width="2"/>
      <path id="Path_3235" data-name="Path 3235" d="M679.188,600.314a24.556,24.556,0,0,0,.455,9" transform="translate(-4.896 84.111)" fill="none" stroke="#fff" stroke-linecap="round" stroke-linejoin="round" stroke-width="2"/>
      <path id="Path_3236" data-name="Path 3236" d="M685.881,591.694a24.556,24.556,0,0,0,.455,9" transform="translate(-3.936 82.874)" fill="none" stroke="#fff" stroke-linecap="round" stroke-linejoin="round" stroke-width="2"/>
      <g id="Path_3237" data-name="Path 3237" transform="translate(-10.926 79.015)" fill="none" stroke-linecap="round" stroke-linejoin="round">
        <path d="M703.42,584.025c-1.115-.616-3-4.081-3-4.081s-3.293-3.226-3.908,1.442a10.662,10.662,0,0,1-1.213,4.079c.014-.071.029-.132.041-.178.468-1.589.655-4.771-2.338-7.858a5.53,5.53,0,0,0-2.265-3.207,7.1,7.1,0,0,0-1.944-3.715c-4.117-4.771-12.35-4.117-13.753-4.677a20.58,20.58,0,0,0-10.664-.655,9.3,9.3,0,0,0-5.947,3.509,13.249,13.249,0,0,0-3.252.794c-.374.125-1.746,1-4.927,2.246-1.985.778-2.95,3.306-3.4,5.1-.444-.017-.853-.025-1.189-.043-1.029-1.684-3.929-2.994-5.8-1.217s-.748,8.139-.655,9.167a12.645,12.645,0,0,1-1.683,5.707c-1.217,2.246-.468,6.081,1.215,10.477.749,6.267,1.965,7.016,5.52,10.478,5.893,11.132,17.774,12.068,17.774,12.068,6.337,1.493,10.414,1.077,13.193-.572.24.125.387.186.387.186,18.17.731,23.633-12.081,27.275-20.912C709.076,590.847,704.536,584.643,703.42,584.025Z" stroke="none"/>
        <path d="M 668.67626953125 564.796875 C 667.39013671875 564.796875 665.9495849609375 564.90283203125 664.3748779296875 565.17431640625 C 661.2874755859375 565.7060546875 659.4453735351562 567.3583374023438 658.4276733398438 568.6834716796875 C 656.8004760742188 568.8368530273438 655.3871459960938 569.4063110351562 655.1756591796875 569.4771728515625 C 654.8017578125 569.601806640625 653.4295654296875 570.4754028320312 650.24853515625 571.7230224609375 C 648.2633666992188 572.5005493164062 647.2982788085938 575.02880859375 646.8534545898438 576.8182373046875 C 646.4098510742188 576.8010864257812 646.00048828125 576.7931518554688 645.664306640625 576.7747802734375 C 644.6351928710938 575.0904541015625 641.7354736328125 573.7811279296875 639.8646240234375 575.5581665039062 C 637.993896484375 577.3350830078125 639.1167602539062 583.6973266601562 639.20947265625 584.7252197265625 C 639.3031616210938 585.75439453125 638.74169921875 588.1865844726562 637.5262451171875 590.432373046875 C 636.3095703125 592.6781005859375 637.0585327148438 596.5133666992188 638.74169921875 600.9098510742188 C 639.49072265625 607.17724609375 640.7062377929688 607.9262084960938 644.26123046875 611.3875122070312 C 650.1546630859375 622.5192260742188 662.0353393554688 623.4557495117188 662.0353393554688 623.4557495117188 C 668.3723754882812 624.9491577148438 672.4488525390625 624.5327758789062 675.2286376953125 622.8839721679688 C 675.4688110351562 623.0086059570312 675.6151733398438 623.0702514648438 675.6151733398438 623.0702514648438 C 693.7846069335938 623.8014526367188 699.2483520507812 610.9894409179688 702.8902587890625 602.1585083007812 C 709.0764770507812 590.847412109375 704.53564453125 584.6430053710938 703.4197387695312 584.0254516601562 C 702.3047485351562 583.4091796875 700.419189453125 579.9443969726562 700.419189453125 579.9443969726562 C 700.419189453125 579.9444580078125 697.1259765625 576.7189331054688 696.5108642578125 581.3863525390625 C 696.2478637695312 583.3805541992188 695.7985229492188 584.6121215820312 695.297607421875 585.4651489257812 C 695.3114013671875 585.394287109375 695.3262939453125 585.3336181640625 695.3388671875 585.2868041992188 C 695.8064575195312 583.6973266601562 695.9940185546875 580.5162963867188 693.0004272460938 577.4287719726562 C 692.7190551757812 576.1024780273438 691.831787109375 575.0367431640625 690.7352905273438 574.221435546875 C 690.6300659179688 573.255126953125 690.1098022460938 572.0350952148438 688.7913818359375 570.50634765625 C 684.6748657226562 565.7357177734375 676.4418334960938 566.3898315429688 675.038818359375 565.8294677734375 C 674.04296875 565.4309692382812 671.82177734375 564.796875 668.67626953125 564.796875 M 668.67626953125 560.796875 C 672.4661865234375 560.796875 675.0987548828125 561.5814819335938 676.262451171875 562.0145263671875 C 676.5189208984375 562.0494384765625 677.0133666992188 562.0933837890625 677.4229125976562 562.1297607421875 C 679.0399169921875 562.2733764648438 681.4835205078125 562.4904174804688 683.999755859375 563.203125 C 687.313232421875 564.1416625976562 689.9442749023438 565.7196044921875 691.8197631835938 567.8931274414062 C 693.0335693359375 569.3005981445312 693.8611450195312 570.6679077148438 694.3213500976562 572.0335693359375 C 695.276611328125 572.9695434570312 696.0004272460938 574.024169921875 696.4685668945312 575.1616821289062 C 697.031982421875 574.9619750976562 697.6339111328125 574.8585205078125 698.2595825195312 574.8585205078125 C 700.7496337890625 574.8585815429688 702.6843872070312 576.5640258789062 703.2180786132812 577.0867309570312 C 703.5018920898438 577.3646850585938 703.7427368164062 577.6834106445312 703.9326171875 578.0323486328125 C 704.498046875 579.068115234375 705.2927856445312 580.287109375 705.6798095703125 580.7217407226562 C 706.7996826171875 581.4609375 707.6301879882812 582.6387329101562 708.1454467773438 583.534912109375 C 708.9594116210938 584.9507446289062 709.54541015625 586.6438598632812 709.8400268554688 588.431396484375 C 710.2011108398438 590.6221313476562 710.142333984375 592.9694213867188 709.6653442382812 595.4080810546875 C 709.1321411132812 598.1339721679688 708.0697631835938 600.9834594726562 706.5068969726562 603.8804931640625 C 704.7525634765625 608.1331176757812 702.3465576171875 613.876708984375 697.958251953125 618.5791015625 C 695.4845581054688 621.2297973632812 692.6050415039062 623.2883911132812 689.3997192382812 624.6975708007812 C 685.7733764648438 626.2918090820312 681.6297607421875 627.1001586914062 677.083984375 627.1001586914062 C 676.6615600585938 627.1001586914062 676.2301635742188 627.0932006835938 675.7974243164062 627.0794067382812 C 673.8082275390625 627.9508666992188 671.5458984375 628.376953125 668.9320678710938 628.376953125 C 666.6770629882812 628.376953125 664.2025146484375 628.0601806640625 661.3748779296875 627.4089965820312 C 660.3468017578125 627.29150390625 657.3460693359375 626.83544921875 653.7518310546875 625.25927734375 C 651.242431640625 624.1587524414062 648.947998046875 622.7310180664062 646.9323120117188 621.0155639648438 C 644.5611572265625 618.9976806640625 642.5814819335938 616.5848388671875 641.0407104492188 613.8364868164062 C 640.9461059570312 613.7451171875 640.8533325195312 613.6555786132812 640.7622680664062 613.5678100585938 C 639.1030883789062 611.9674072265625 637.79248046875 610.7033081054688 636.761474609375 608.8080444335938 C 635.8052368164062 607.0501708984375 635.2365112304688 605.0181274414062 634.8309936523438 601.8759765625 C 632.595947265625 595.8646850585938 632.33642578125 591.6145629882812 634.0092163085938 588.5269165039062 C 634.8575439453125 586.95947265625 635.1834106445312 585.4463500976562 635.2168579101562 585.0089721679688 C 635.205322265625 584.913818359375 635.18603515625 584.7659301757812 635.169677734375 584.6405029296875 C 634.5592651367188 579.9539794921875 634.371826171875 575.2586669921875 637.10986328125 572.657958984375 C 638.4325561523438 571.4014282226562 640.1703491210938 570.7092895507812 642.0029296875 570.7092895507812 C 642.979736328125 570.7092895507812 643.9647216796875 570.9071655273438 644.8945922851562 571.267333984375 C 645.9253540039062 569.7134399414062 647.2362060546875 568.6069946289062 648.789794921875 567.99853515625 C 650.8422241210938 567.1935424804688 652.0245361328125 566.5827026367188 652.73095703125 566.2177734375 C 653.1658325195312 565.9931030273438 653.4840698242188 565.8286743164062 653.8703002929688 565.6961059570312 L 653.9118041992188 565.6810302734375 C 654.2874145507812 565.5438232421875 655.1986083984375 565.2108764648438 656.3832397460938 564.9593505859375 C 657.93505859375 563.4027709960938 660.2861938476562 561.8196411132812 663.6959838867188 561.2323608398438 C 665.3719482421875 560.9434204101562 667.0477905273438 560.796875 668.67626953125 560.796875 Z" stroke="none" fill="#000"/>
      </g>
      <path id="Path_3238" data-name="Path 3238" d="M709.833,538.051a7.719,7.719,0,0,1,5.954-4.525,17.467,17.467,0,0,1,9.051.556c1.19.476,8.177-.08,11.67,3.969s.4,5.557.518,5.875-13.566,2.62-18.911.794A17.272,17.272,0,0,1,709.833,538.051Z" transform="translate(-3.434 74.53)" fill="#90be16"/>
      <path id="Path_3239" data-name="Path 3239" d="M701.779,544.6s.477-4.869,3.175-5.928,3.864-1.8,4.182-1.9,3.81-1.536,5.875,0,2.064,2.117,4.021,2.169,6.511.688,6.722,3.493,2.964,11.273.953,12.226-10.056,4.341-11.644,3.016S703.843,548.941,701.779,544.6Z" transform="translate(-4.589 74.939)" fill="#5faa2e"/>
      <path id="Path_3240" data-name="Path 3240" d="M717.289,555.684a5.267,5.267,0,0,1,1.746-5.557c.795-4.287,1.27-6.431,2.462-7.462,0-1.747-.08-6.59,3.651-7.3,3.493,0,6.908,1.588,8.1,3.89,1.905.318,5.24,1.747,5.8,4.367a6.759,6.759,0,0,1,1.985,6.669c-.4,1.349-.949,15.242-5.039,15.639s-10.839,3.811-12.267,1.985S717.289,555.684,717.289,555.684Z" transform="translate(-2.395 74.839)" fill="#5ea036"/>
      <path id="Path_3241" data-name="Path 3241" d="M725.177,539.107s9.208,7.224,6.033,22.07" transform="translate(-1.232 75.376)" fill="none" stroke="#e4ffa9" stroke-linecap="round" stroke-linejoin="round" stroke-width="2"/>
      <path id="Path_3242" data-name="Path 3242" d="M711.6,540.562a14.193,14.193,0,0,0,2.779,14.056" transform="translate(-3.293 75.585)" fill="none" stroke="#e4ffa9" stroke-linecap="round" stroke-linejoin="round" stroke-width="2"/>
      <path id="Path_3243" data-name="Path 3243" d="M715.977,581.93s-10.082-.794-15.083-10.241c-3.016-2.938-4.049-3.573-4.684-8.892-1.429-3.732-2.065-6.987-1.033-8.892a10.732,10.732,0,0,0,1.429-4.844c-.08-.872-1.033-6.271.556-7.78s4.049-.4,4.922,1.033c1.429.079,4.367-.079,5.24,1.826,2.223,1.508,3.731-.318,6.748,5.08,1.349.795,6.749,1.27,8.018,4.208s4.844,5.393,4.288,7.817c2.223.757,7.462,6.632,5.557,12.824S727.092,584.55,715.977,581.93Z" transform="translate(-5.609 75.585)" fill="#90be16"/>
      <path id="Path_3244" data-name="Path 3244" d="M723.915,581.163s-4.88-2.048-4.183-6.827,2.561-4.991,3.627-6.3,1.946-8.491,5.64-9.339,2.783-1.7,4.134-3.309,5.044-3.209,5.825-4.21,2.168-1.434,2.691-5.395,3.317-1.224,3.317-1.224,1.6,2.94,2.547,3.464,4.8,5.789-.449,15.389C743.972,570.909,739.335,581.782,723.915,581.163Z" transform="translate(-2.023 76.027)" fill="#afd634"/>
      <path id="Path_3245" data-name="Path 3245" d="M699.948,552.974s-1.15,19.412,20.989,24.157" transform="translate(-4.854 77.366)" fill="none" stroke="#fff" stroke-linecap="round" stroke-linejoin="round" stroke-width="2"/>
      <path id="Path_3246" data-name="Path 3246" d="M725.3,576.574s17.9-6.2,14.379-25.062" transform="translate(-1.215 77.156)" fill="none" stroke="#fff" stroke-linecap="round" stroke-linejoin="round" stroke-width="2"/>
      <path id="Path_3247" data-name="Path 3247" d="M703.672,565.847a27.774,27.774,0,0,0,2.3-8.693" transform="translate(-4.317 77.966)" fill="none" stroke="#fff" stroke-linecap="round" stroke-linejoin="round" stroke-width="2"/>
      <path id="Path_3248" data-name="Path 3248" d="M710.353,571.683s6.183-4.7,6.78-8.991" transform="translate(-3.359 78.76)" fill="none" stroke="#fff" stroke-linecap="round" stroke-linejoin="round" stroke-width="2"/>
      <path id="Path_3249" data-name="Path 3249" d="M730.793,550.577s3.23-3.457,3.541-6.613" transform="translate(-0.426 76.073)" fill="none" stroke="#e4ffa9" stroke-linecap="round" stroke-linejoin="round" stroke-width="2"/>
      <path id="Path_3250" data-name="Path 3250" d="M710.822,544.573s2.271-1.019,2.489-1.948" transform="translate(-3.291 75.881)" fill="none" stroke="#e4ffa9" stroke-linecap="round" stroke-linejoin="round" stroke-width="2"/>
      <path id="Path_3251" data-name="Path 3251" d="M727.779,541.771a10.508,10.508,0,0,0,.544-2.664" transform="translate(-0.858 75.376)" fill="none" stroke="#e4ffa9" stroke-linecap="round" stroke-linejoin="round" stroke-width="2"/>
      <path id="Path_3252" data-name="Path 3252" d="M725.909,545.186a10.355,10.355,0,0,0,4.276,1.806" transform="translate(-1.127 76.249)" fill="none" stroke="#e4ffa9" stroke-linecap="round" stroke-linejoin="round" stroke-width="2"/>
      <path id="Path_3253" data-name="Path 3253" d="M702.375,567.665a7.779,7.779,0,0,0,3.425.094" transform="translate(-4.504 79.474)" fill="none" stroke="#fff" stroke-linecap="round" stroke-linejoin="round" stroke-width="2"/>
      <path id="Path_3254" data-name="Path 3254" d="M730.534,563.259a20.857,20.857,0,0,0,.387,7.638" transform="translate(-0.491 78.841)" fill="none" stroke="#fff" stroke-linecap="round" stroke-linejoin="round" stroke-width="2"/>
      <path id="Path_3255" data-name="Path 3255" d="M736.214,555.944a20.825,20.825,0,0,0,.387,7.637" transform="translate(0.324 77.792)" fill="none" stroke="#fff" stroke-linecap="round" stroke-linejoin="round" stroke-width="2"/>
      <g id="Path_3256" data-name="Path 3256" transform="translate(-5.609 74.517)" fill="none" stroke-linecap="round" stroke-linejoin="round">
        <path d="M751.1,549.436c-.947-.524-2.546-3.464-2.546-3.464s-2.795-2.737-3.317,1.224a9.061,9.061,0,0,1-1.029,3.461c.013-.059.024-.112.035-.151a6.759,6.759,0,0,0-1.985-6.669,4.7,4.7,0,0,0-1.922-2.723,6.019,6.019,0,0,0-1.65-3.151c-3.493-4.049-10.48-3.493-11.67-3.97a17.483,17.483,0,0,0-9.051-.556,7.889,7.889,0,0,0-5.047,2.979,11.18,11.18,0,0,0-2.759.674c-.318.105-1.482.846-4.182,1.905-1.684.661-2.5,2.806-2.88,4.325-.377-.015-.724-.022-1.01-.038-.872-1.428-3.334-2.54-4.922-1.031s-.636,6.906-.556,7.78a10.727,10.727,0,0,1-1.429,4.843c-1.033,1.9-.4,5.16,1.033,8.892.635,5.32,1.667,5.954,4.684,8.892,5,9.447,15.083,10.241,15.083,10.241,5.378,1.268,8.838.915,11.2-.484.2.105.328.158.328.158,15.42.62,20.056-10.252,23.147-17.747C755.9,555.226,752.045,549.96,751.1,549.436Z" stroke="none"/>
        <path d="M 721.6121215820312 533.1179809570312 C 720.520751953125 533.1179809570312 719.2987060546875 533.2078247070312 717.9625854492188 533.4381103515625 C 715.3428344726562 533.8897705078125 713.7786254882812 535.2916259765625 712.9151611328125 536.416748046875 C 711.53515625 536.5460815429688 710.3355712890625 537.0297241210938 710.1561889648438 537.09033203125 C 709.8381958007812 537.1954956054688 708.6741333007812 537.9364624023438 705.9744262695312 538.995361328125 C 704.2901000976562 539.6563110351562 703.471435546875 541.8013916015625 703.0940551757812 543.3198852539062 C 702.7166137695312 543.3051147460938 702.3701782226562 543.2982788085938 702.0843505859375 543.2822265625 C 701.2119140625 541.8540649414062 698.75 540.7426147460938 697.1627807617188 542.2508544921875 C 695.5746459960938 543.7590942382812 696.5271606445312 549.1573486328125 696.607177734375 550.0309448242188 C 696.68603515625 550.9035034179688 696.2103881835938 552.9685668945312 695.1778564453125 554.87353515625 C 694.145263671875 556.7785034179688 694.7810668945312 560.033935546875 696.2103881835938 563.76513671875 C 696.844970703125 569.0846557617188 697.8775634765625 569.71923828125 700.89404296875 572.6566772460938 C 705.8954467773438 582.1040649414062 715.9774780273438 582.8976440429688 715.9774780273438 582.8976440429688 C 721.3551635742188 584.1655883789062 724.8153076171875 583.8123168945312 727.1731567382812 582.4139404296875 C 727.3778076171875 582.5191040039062 727.5014038085938 582.57177734375 727.5014038085938 582.57177734375 C 742.9212646484375 583.1906127929688 747.5577392578125 572.3193969726562 750.6485595703125 564.8251953125 C 755.8982543945312 555.2257690429688 752.0447387695312 549.9600219726562 751.097900390625 549.4363403320312 C 750.1510620117188 548.9126586914062 748.5514526367188 545.9727783203125 748.5514526367188 545.9727783203125 C 748.551513671875 545.9728393554688 745.7568359375 543.2352294921875 745.2341918945312 547.1963500976562 C 745.01123046875 548.8886108398438 744.6292724609375 549.9337158203125 744.2051391601562 550.6575317382812 C 744.2176513671875 550.59814453125 744.2291259765625 550.5455322265625 744.2405395507812 550.5066528320312 C 744.6373291015625 549.1573486328125 744.7963256835938 546.4576416015625 742.2554321289062 543.837890625 C 742.0164794921875 542.7127685546875 741.26416015625 541.8082885742188 740.3333129882812 541.1153564453125 C 740.2440795898438 540.2955322265625 739.8027954101562 539.2606201171875 738.683349609375 537.9639892578125 C 735.1900634765625 533.9149780273438 728.203369140625 534.470703125 727.01318359375 533.9937744140625 C 726.1674194335938 533.6561889648438 724.2818603515625 533.1179809570312 721.6121215820312 533.1179809570312 M 721.6121215820312 529.1179809570312 C 724.8512573242188 529.1179809570312 727.1393432617188 529.7794799804688 728.1971435546875 530.1649169921875 C 728.4166259765625 530.1917724609375 728.7987670898438 530.2257690429688 729.0934448242188 530.2520141601562 C 730.4880981445312 530.3761596679688 732.595703125 530.563720703125 734.7850341796875 531.1842651367188 C 737.7116088867188 532.0137329101562 740.0421752929688 533.4156494140625 741.7119750976562 535.3510131835938 C 742.7543334960938 536.5584106445312 743.4801025390625 537.7413330078125 743.9035034179688 538.92919921875 C 744.5858154296875 539.6180419921875 745.1334838867188 540.3771362304688 745.5350952148438 541.1893920898438 C 745.918701171875 541.0983276367188 746.3153686523438 541.0512084960938 746.7185668945312 541.0512084960938 C 749.0612182617188 541.0513305664062 750.8560180664062 542.6309814453125 751.350341796875 543.1151123046875 C 751.6342163085938 543.3931884765625 751.8751220703125 543.7119750976562 752.0650024414062 544.06103515625 C 752.4970092773438 544.8519287109375 753.1056518554688 545.7962036132812 753.4232177734375 546.1768798828125 C 755.2056884765625 547.3980712890625 756.6433715820312 550.041259765625 757.1436767578125 553.076904296875 C 757.4618530273438 555.0074462890625 757.4109497070312 557.07177734375 756.9922485351562 559.2123413085938 C 756.52978515625 561.5770263671875 755.6127319335938 564.0433349609375 754.2655639648438 566.5462646484375 C 752.759765625 570.1956787109375 750.693603515625 575.1146240234375 746.9058227539062 579.1735229492188 C 744.7501220703125 581.4835205078125 742.2394409179688 583.2779541015625 739.4434204101562 584.507080078125 C 736.2885131835938 585.8939208984375 732.6897583007812 586.5971069335938 728.7471313476562 586.5971069335938 C 728.4238891601562 586.5971069335938 728.0947265625 586.5924072265625 727.7642822265625 586.5830688476562 C 726.03125 587.311767578125 724.043212890625 587.6800537109375 721.83203125 587.6800537109375 C 719.8780517578125 587.6800537109375 717.74072265625 587.4077758789062 715.3056030273438 586.8482055664062 C 713.248046875 586.6001586914062 703.211181640625 584.90673828125 697.6763305664062 575.1085815429688 C 697.6171875 575.0514526367188 697.5588989257812 574.9952392578125 697.50146484375 574.9398193359375 C 696.114013671875 573.6015014648438 694.9157104492188 572.4456787109375 693.9966430664062 570.7555541992188 C 693.154296875 569.2067260742188 692.6532592773438 567.4376831054688 692.2999267578125 564.7310180664062 C 690.3594970703125 559.4873046875 690.1580810546875 555.7404174804688 691.6612548828125 552.9673461914062 C 692.2973022460938 551.7939453125 692.5628662109375 550.6676635742188 692.609375 550.2780151367188 C 692.600341796875 550.2073364257812 692.589111328125 550.1212158203125 692.5792236328125 550.0454711914062 C 692.0382690429688 545.9065551757812 691.8854370117188 541.7462768554688 694.4082641601562 539.3504028320312 C 695.6430053710938 538.1770629882812 697.2660522460938 537.5303955078125 698.9774780273438 537.5303955078125 C 699.7232055664062 537.5303955078125 700.4739990234375 537.6553955078125 701.19677734375 537.8867797851562 C 702.2650146484375 536.4404296875 703.4852905273438 535.6751708984375 704.5132446289062 535.2717895507812 C 706.2239990234375 534.6007690429688 707.2105712890625 534.0917358398438 707.800048828125 533.7875366210938 C 708.1757202148438 533.5936889648438 708.4763793945312 533.4385375976562 708.8424682617188 533.3121337890625 L 708.86865234375 533.3025512695312 C 709.1814575195312 533.1879272460938 709.914794921875 532.9191284179688 710.879150390625 532.7019653320312 C 712.2660522460938 531.3516235351562 714.33056640625 530.0052490234375 717.282958984375 529.4962768554688 C 718.7395629882812 529.2452392578125 720.1959838867188 529.1179809570312 721.6121215820312 529.1179809570312 Z" stroke="none" fill="#000"/>
      </g>
      <path id="Path_3257" data-name="Path 3257" d="M654.8,513.047a6.793,6.793,0,0,1,6.4-1.539,15.369,15.369,0,0,1,7.094,3.648c.791.8,6.614,2.828,8,7.325s-1.643,4.618-1.661,4.915-11.853-2.688-15.512-6.048A15.2,15.2,0,0,1,654.8,513.047Z" transform="translate(-3.615 76.197)" fill="#90be16"/>
      <path id="Path_3258" data-name="Path 3258" d="M644.98,515.394s2.105-3.753,4.654-3.651,3.748-.083,4.042-.055,3.612.111,4.732,2.077.914,2.435,2.473,3.17,5,2.857,4.178,5.19-1.6,10.129-3.556,10.184-9.635-.06-10.446-1.688S645.108,519.619,644.98,515.394Z" transform="translate(-3.674 76.199)" fill="#5faa2e"/>
      <path id="Path_3259" data-name="Path 3259" d="M655.295,530.471a4.634,4.634,0,0,1,3.373-3.859c2.156-3.172,3.3-4.731,4.621-5.14.618-1.407,2.266-5.336,5.524-4.592,2.813,1.235,5,3.722,5.147,6,1.422.93,3.6,3.26,3.123,5.567a5.948,5.948,0,0,1-.759,6.073c-.8.947-6.155,11.942-9.59,10.815s-10.078-.765-10.583-2.74S655.295,530.471,655.295,530.471Z" transform="translate(-3.612 76.229)" fill="#5ea036"/>
      <path id="Path_3260" data-name="Path 3260" d="M668.2,520.729s4.863,9.076-2.945,19.91" transform="translate(-3.555 76.252)" fill="none" stroke="#e4ffa9" stroke-linecap="round" stroke-linejoin="round" stroke-width="2"/>
      <path id="Path_3261" data-name="Path 3261" d="M655.093,516.563a12.485,12.485,0,0,0-2.733,12.3" transform="translate(-3.634 76.228)" fill="none" stroke="#e4ffa9" stroke-linecap="round" stroke-linejoin="round" stroke-width="2"/>
      <path id="Path_3262" data-name="Path 3262" d="M642.239,550.645a17.633,17.633,0,0,1-8.527-13.583c-1.391-3.433-2-4.309-.629-8.818.169-3.51.809-6.357,2.314-7.527a9.446,9.446,0,0,0,2.864-3.395c.244-.731,1.387-5.417,3.2-6.07s3.4,1.112,3.6,2.572c1.123.569,3.545,1.481,3.574,3.324,1.257,2,3.118,1.063,3.639,6.479.806,1.117,4.985,3.41,4.97,6.224s1.994,6.056.688,7.813c1.523,1.4,3.665,7.981-.059,12.295S650.265,556.686,642.239,550.645Z" transform="translate(-3.748 76.196)" fill="#90be16"/>
      <path id="Path_3263" data-name="Path 3263" d="M651.533,554.341s-3.206-3.375-.955-6.978,3.828-3.113,5.148-3.788,4.57-6.151,7.845-5.526,2.844-.386,4.5-1.2,5.2-.8,6.18-1.332,2.254-.388,4.076-3.393,3.1.187,3.1.187.248,2.934.826,3.691,1.82,6.36-5.8,12.235C671.314,553.176,663.734,560.294,651.533,554.341Z" transform="translate(-3.645 76.312)" fill="#afd634"/>
      <path id="Path_3264" data-name="Path 3264" d="M639.517,523.283s-7.791,15.228,8.363,26.88" transform="translate(-3.717 76.267)" fill="none" stroke="#fff" stroke-linecap="round" stroke-linejoin="round" stroke-width="2"/>
      <path id="Path_3265" data-name="Path 3265" d="M654.5,552.294s16.611,1.34,20.445-15.1" transform="translate(-3.617 76.349)" fill="none" stroke="#fff" stroke-linecap="round" stroke-linejoin="round" stroke-width="2"/>
      <path id="Path_3266" data-name="Path 3266" d="M638.179,535.605a24.454,24.454,0,0,0,4.927-6.188" transform="translate(-3.713 76.303)" fill="none" stroke="#fff" stroke-linecap="round" stroke-linejoin="round" stroke-width="2"/>
      <path id="Path_3267" data-name="Path 3267" d="M641.965,543.592s6.643-1.6,8.641-4.844" transform="translate(-3.691 76.358)" fill="none" stroke="#fff" stroke-linecap="round" stroke-linejoin="round" stroke-width="2"/>
      <path id="Path_3268" data-name="Path 3268" d="M669.046,532.754s3.824-1.643,5.191-4.074" transform="translate(-3.531 76.299)" fill="none" stroke="#e4ffa9" stroke-linecap="round" stroke-linejoin="round" stroke-width="2"/>
      <path id="Path_3269" data-name="Path 3269" d="M652.939,519.743s2.189-.017,2.694-.688" transform="translate(-3.626 76.243)" fill="none" stroke="#e4ffa9" stroke-linecap="round" stroke-linejoin="round" stroke-width="2"/>
      <path id="Path_3270" data-name="Path 3270" d="M669.627,523.92a9.264,9.264,0,0,0,1.381-1.953" transform="translate(-3.528 76.26)" fill="none" stroke="#e4ffa9" stroke-linecap="round" stroke-linejoin="round" stroke-width="2"/>
      <path id="Path_3271" data-name="Path 3271" d="M666.408,526.589a9.107,9.107,0,0,0,2.806,2.967" transform="translate(-3.547 76.287)" fill="none" stroke="#e4ffa9" stroke-linecap="round" stroke-linejoin="round" stroke-width="2"/>
      <path id="Path_3272" data-name="Path 3272" d="M635.822,537.711A6.834,6.834,0,0,0,638.548,539" transform="translate(-3.727 76.352)" fill="none" stroke="#fff" stroke-linecap="round" stroke-linejoin="round" stroke-width="2"/>
      <path id="Path_3273" data-name="Path 3273" d="M663.369,544.988a18.337,18.337,0,0,0-2.39,6.289" transform="translate(-3.579 76.395)" fill="none" stroke="#fff" stroke-linecap="round" stroke-linejoin="round" stroke-width="2"/>
      <path id="Path_3274" data-name="Path 3274" d="M671.51,540.573a18.347,18.347,0,0,0-2.39,6.289" transform="translate(-3.531 76.369)" fill="none" stroke="#fff" stroke-linecap="round" stroke-linejoin="round" stroke-width="2"/>
      <g id="Path_3275" data-name="Path 3275" transform="translate(-3.747 76.195)" fill="none" stroke-linecap="round" stroke-linejoin="round">
        <path d="M682.4,536.034c-.576-.756-.826-3.691-.826-3.691s-1.282-3.194-3.1-.188a7.971,7.971,0,0,1-2.053,2.424,1.286,1.286,0,0,1,.082-.109,5.946,5.946,0,0,0,.759-6.073,4.128,4.128,0,0,0-.585-2.873,5.3,5.3,0,0,0-.214-3.122c-1.381-4.5-7.205-6.52-8-7.325a15.364,15.364,0,0,0-7.094-3.648,6.936,6.936,0,0,0-5.118.614,9.956,9.956,0,0,0-2.461-.434c-.293-.027-1.493.158-4.042.056-1.59-.063-3.009,1.374-3.849,2.464-.3-.146-.575-.273-.8-.387-.2-1.459-1.787-3.226-3.6-2.572s-2.955,5.338-3.2,6.07a9.433,9.433,0,0,1-2.864,3.395c-1.5,1.17-2.145,4.016-2.313,7.527-1.369,4.508-.762,5.385.629,8.818a17.633,17.633,0,0,0,8.527,13.583c3.884,2.922,6.795,3.861,9.19,3.569.127.158.208.243.208.243,12.2,5.953,19.78-1.165,24.92-6.108C684.215,542.394,682.973,536.79,682.4,536.034Z" stroke="none"/>
        <path d="M 660.5967407226562 556.6403198242188 C 667.7925415039062 556.6405639648438 672.8417358398438 551.8760375976562 676.5921630859375 548.269287109375 C 684.2147216796875 542.39404296875 682.9725341796875 536.7904052734375 682.3951416015625 536.033935546875 C 681.81884765625 535.2774658203125 681.5693359375 532.3433837890625 681.5693359375 532.3433837890625 C 681.5693359375 532.3434448242188 680.2870483398438 529.149658203125 678.4652099609375 532.1553344726562 C 677.6866455078125 533.4398193359375 677.0096435546875 534.14697265625 676.4122314453125 534.5794067382812 C 676.4423828125 534.53515625 676.4705810546875 534.4979248046875 676.4937744140625 534.4708251953125 C 677.290283203125 533.5233154296875 678.3736572265625 531.4058837890625 677.253173828125 528.3974609375 C 677.4593505859375 527.4065551757812 677.1727294921875 526.411865234375 676.667724609375 525.5245361328125 C 676.885986328125 524.8325805664062 676.89599609375 523.8427734375 676.4534912109375 522.40234375 C 675.0723876953125 517.9051513671875 669.2484130859375 515.88232421875 668.4578857421875 515.07763671875 C 667.667236328125 514.2730102539062 665.3546142578125 512.4180908203125 661.3643798828125 511.4293518066406 C 659.0950927734375 510.8659057617188 657.3397827148438 511.4423828125 656.2464599609375 512.04296875 C 655.0887451171875 511.6596374511719 653.9510498046875 511.6254272460938 653.78515625 511.6093139648438 C 653.5568237304688 511.5880737304688 652.7743530273438 511.6964111328125 651.2284545898438 511.6964111328125 C 650.7949829101562 511.6964111328125 650.3017578125 511.6878967285156 649.7435302734375 511.6656494140625 C 648.1510620117188 511.6029357910156 646.7349853515625 513.039794921875 645.89404296875 514.1300048828125 C 645.5953369140625 513.9842529296875 645.3187255859375 513.8565063476562 645.094482421875 513.7427978515625 C 644.8963012695312 512.2832641601562 643.3070678710938 510.5169677734375 641.4954833984375 511.1708374023438 C 639.682861328125 511.8246154785156 638.5401611328125 516.5089721679688 638.295654296875 517.2412719726562 C 638.0513916015625 517.9725341796875 636.936767578125 519.4662475585938 635.4320068359375 520.6360473632812 C 633.92724609375 521.805908203125 633.2874755859375 524.6524658203125 633.1185302734375 528.1629638671875 C 631.74951171875 532.6712646484375 632.3560791015625 533.5484619140625 633.7471923828125 536.9814453125 C 634.4342041015625 546.3591918945312 642.27392578125 550.564697265625 642.27392578125 550.564697265625 C 646.1576538085938 553.4867553710938 649.068603515625 554.4259643554688 651.463623046875 554.133544921875 C 651.59033203125 554.29150390625 651.671875 554.376953125 651.671875 554.376953125 C 654.9699096679688 555.9861450195312 657.930908203125 556.6401977539062 660.5967407226562 556.6403198242188 M 660.5972900390625 560.6403198242188 L 660.5972900390625 556.6403198242188 L 660.5972290039062 560.6403198242188 C 657.2784423828125 560.6401977539062 653.8355712890625 559.8132934570312 650.3557739257812 558.181396484375 C 647.2101440429688 558.1077270507812 643.8414916992188 556.7092895507812 640.0731201171875 553.9135131835938 C 639.3084106445312 553.4614868164062 637.340087890625 552.1887817382812 635.3245239257812 549.998046875 C 632.1845703125 546.5851440429688 630.2886352539062 542.4277954101562 629.8170776367188 537.937744140625 C 629.798828125 537.8933715820312 629.78076171875 537.8494262695312 629.762939453125 537.805908203125 C 629.103271484375 536.1997680664062 628.5335693359375 534.8126831054688 628.3844604492188 533.052490234375 C 628.2492065429688 531.4556884765625 628.4718017578125 529.8141479492188 629.150146484375 527.4752807617188 C 629.4569702148438 522.4490966796875 630.6780395507812 519.265380859375 632.9769287109375 517.4781494140625 C 633.7928466796875 516.8438110351562 634.357177734375 516.1231079101562 634.5444946289062 515.8292236328125 C 634.5574951171875 515.7850341796875 634.5712890625 515.7377319335938 634.5838623046875 515.694580078125 C 635.6477661132812 512.0475463867188 637.0570678710938 508.5194702148438 640.1383666992188 507.4081115722656 C 640.8319091796875 507.1578063964844 641.552001953125 507.0307312011719 642.27783203125 507.0307312011719 C 643.7467041015625 507.0307312011719 645.1632690429688 507.5468444824219 646.3506469726562 508.5006103515625 C 647.410888671875 507.9472961425781 648.5159301757812 507.6636352539062 649.6417236328125 507.6636352539062 C 649.7285766601562 507.6636352539062 649.8165283203125 507.6653747558594 649.9030151367188 507.6688232421875 C 650.3618774414062 507.6871337890625 650.807861328125 507.6964111328125 651.2284545898438 507.6964111328125 C 652.0661010742188 507.6963806152344 652.6451416015625 507.6598815917969 653.0283203125 507.6357116699219 C 653.286376953125 507.6194152832031 653.4901733398438 507.6065673828125 653.7107543945312 507.6065673828125 C 653.8515014648438 507.6065673828125 653.984375 507.6119384765625 654.1156005859375 507.6229553222656 L 654.141357421875 507.6246643066406 C 654.426025390625 507.643310546875 655.072021484375 507.6855773925781 655.88232421875 507.834716796875 C 657.0514526367188 507.4166259765625 658.2906494140625 507.1995849609375 659.5374755859375 507.1995849609375 C 660.4600830078125 507.1995849609375 661.3989868164062 507.3165283203125 662.328125 507.5471801757812 C 667.1737060546875 508.7478637695312 670.0117797851562 511.0388793945312 671.0556030273438 512.0242309570312 C 671.2192993164062 512.1195068359375 671.48193359375 512.2637939453125 671.6871337890625 512.37646484375 C 672.782470703125 512.978271484375 674.4378051757812 513.8876342773438 676.0170288085938 515.190673828125 C 678.1554565429688 516.9550170898438 679.5888061523438 518.986328125 680.2772216796875 521.22802734375 C 680.694091796875 522.5850830078125 680.8692626953125 523.817626953125 680.8037719726562 524.9531860351562 C 681.0595703125 525.6424560546875 681.2212524414062 526.3387451171875 681.286865234375 527.0313110351562 C 682.2415161132812 527.281982421875 683.3983154296875 527.8843994140625 684.3936767578125 529.2592163085938 C 684.8953857421875 529.9520874023438 685.1814575195312 530.6044311523438 685.2811889648438 530.8527221679688 C 685.4290771484375 531.220947265625 685.5213012695312 531.6090698242188 685.554931640625 532.0044555664062 C 685.6163940429688 532.7117309570312 685.7589111328125 533.6234741210938 685.868896484375 534.0416259765625 C 686.9043579101562 535.769287109375 687.1365966796875 538.5137939453125 686.4439697265625 541.2228393554688 C 686.00341796875 542.9461059570312 685.2086181640625 544.6429443359375 684.0817260742188 546.2662963867188 C 682.8494873046875 548.0413818359375 681.212158203125 549.7334594726562 679.2127075195312 551.2986450195312 C 677.4088745117188 553.0326538085938 674.97265625 555.3478393554688 672.0045776367188 557.2005004882812 C 670.3128051757812 558.2564697265625 668.5764770507812 559.078125 666.8438110351562 559.6427001953125 C 664.8121948242188 560.3046264648438 662.7105712890625 560.6403198242188 660.5972900390625 560.6403198242188 Z" stroke="none" fill="#000"/>
      </g>
    </g>
  </g>
</svg>
