<svg xmlns="http://www.w3.org/2000/svg" width="146.264" height="116.795" viewBox="0 0 146.264 116.795">
  <g id="Group_1531" data-name="Group 1531" transform="translate(-1165.323 -593.363)">
    <g id="Group_1228" data-name="Group 1228" transform="translate(288.725 -555.349)">
      <path id="Path_3683" data-name="Path 3683" d="M993.848,1229.4s18.012,5,20.247-15.091a17.041,17.041,0,0,0-3.366-11.4c-.9-1.286,1.534-3.555-.719-7.335a34.364,34.364,0,0,1-3.569-8.4c-.421-1.426-5.249-9.719-10.87-12.3s-6.738-10.209-12.951-11.991-16.907-3.688-18.233-2.574,5.878,8.153-3.708,24-2.074,31.827,2.315,33.735,10.631,9.213,18.18,10.445S978.531,1235.118,993.848,1229.4Z" transform="translate(3.737 0.315)" fill="#9dd77f"/>
      <path id="Path_3684" data-name="Path 3684" d="M900.843,1243.664s-16.386-7.185-18.339-19.754-.856-20.2,4.474-34.65,21.634-27.3,21.634-27.3,3.918-2.351,3.605-.784,2.822.684,3.605,2.929,6.271,4.6,2.664,9.613-19.621,65.837-15.533,67.563S900.843,1243.664,900.843,1243.664Z" transform="translate(0 0.348)" fill="#9dd77f"/>
      <path id="Path_3685" data-name="Path 3685" d="M938.974,1210.1a8.334,8.334,0,0,0-2.519-13.793c-.128-.054-.258-.092-.387-.139a8.329,8.329,0,0,0-2.032-13.964,11,11,0,0,0-20,3.31,38.41,38.41,0,0,1-10.745,14.593,6.08,6.08,0,0,0-.169,4.2,16.828,16.828,0,0,0,14.1,18.749,12.815,12.815,0,1,0,21.752-12.958Z" transform="translate(1.011 1.099)" fill="#fff"/>
      <path id="Path_3686" data-name="Path 3686" d="M959.724,1201.774a10.8,10.8,0,0,0,3.9,17.738c.168.062.338.106.508.16a10.788,10.788,0,0,0,3.277,17.982,7.914,7.914,0,0,0,15.777,1.184,19.406,19.406,0,0,0,18.729-21.21,7.9,7.9,0,0,0,4.483-10.019,10.792,10.792,0,0,0-9.363-16.42,10.788,10.788,0,0,0-9.757-7.195,10.794,10.794,0,0,0-19.914-1.885,10.805,10.805,0,0,0-7.642,19.666Z" transform="translate(3.681 1.134)" fill="#fff"/>
      <path id="Path_3687" data-name="Path 3687" d="M941.474,1173.6a8.378,8.378,0,0,0,3.028,13.765c.13.049.263.083.394.125a8.372,8.372,0,0,0,2.544,13.954,11.064,11.064,0,0,0,19.97-4.045,38.6,38.6,0,0,1,10.268-15.045,6.113,6.113,0,0,0,.019-4.226,8.372,8.372,0,0,0-4.238-12.222,8.358,8.358,0,0,1-8.009-5.586,8.358,8.358,0,0,1-7.69-5.961,12.718,12.718,0,0,0-16.286,19.242Z" transform="translate(2.819 0.006)" fill="#f4f0dc"/>
      <path id="Path_3688" data-name="Path 3688" d="M942.684,1195.046a8.994,8.994,0,0,0-1.955-15c-.135-.064-.273-.114-.409-.17a8.988,8.988,0,0,0-1.42-15.162,11.876,11.876,0,0,0-21.736,2.465,41.43,41.43,0,0,1-12.385,15.134,6.572,6.572,0,0,0-.414,4.519,18.158,18.158,0,0,0,14.161,20.983,8.993,8.993,0,0,0,16.392,3.006,9,9,0,0,0,7.766-15.77Z" transform="translate(1.055 0.177)" fill="#fff"/>
      <path id="Path_3689" data-name="Path 3689" d="M937.893,1241.88a11.5,11.5,0,0,1-5.363-13.494,8.038,8.038,0,0,1-5.18-9.443,8.063,8.063,0,0,1-3.762-8.59,13.007,13.007,0,0,0-20.8-.9,14.769,14.769,0,0,0-2.043,22.748,8.06,8.06,0,0,0,7.551,10.921c.068,0,.134-.008.2-.009a8.065,8.065,0,0,0,10.839,9.282,89.644,89.644,0,0,1,15.521,5.045,8.075,8.075,0,0,0,3.031-15.56Z" transform="translate(0.762 2.438)" fill="#f4f0dc"/>
      <path id="Path_3690" data-name="Path 3690" d="M949.154,1230.879a8.336,8.336,0,0,0-7.6-11.785c-.139,0-.273.014-.411.02a8.328,8.328,0,0,0-7.213-12.129,11.008,11.008,0,0,0-17.217,10.7,38.376,38.376,0,0,1-4.355,17.591,6.087,6.087,0,0,0,1.449,3.947,8.331,8.331,0,0,0,11.2,9.361,45.97,45.97,0,0,1,15.641,5.886,12.653,12.653,0,0,0,8.51-23.592Z" transform="translate(1.544 2.462)" fill="#fff"/>
      <path id="Path_3691" data-name="Path 3691" d="M975.236,1211.781a11.693,11.693,0,0,0,1.135-5.013A12.428,12.428,0,0,0,963.7,1194.6c-.21,0-.415.021-.623.03a11.71,11.71,0,0,0,1.395-5.53,12.406,12.406,0,0,0-12.346-12.152,9.253,9.253,0,0,0-8.833-6.177,9.1,9.1,0,0,0-9.283,8.913,8.583,8.583,0,0,0,.3,2.208,9.062,9.062,0,0,0-8.511,8.875,8.643,8.643,0,0,0,.186,1.779,8.864,8.864,0,0,0-4.827,7.82,8.434,8.434,0,0,1-.6,5.942,8.628,8.628,0,0,0,1.84,5.31,8.637,8.637,0,0,0-.83,12.328,11.747,11.747,0,0,0-.234,2.3,12.427,12.427,0,0,0,12.672,12.168,13.068,13.068,0,0,0,4.56-.825,12.855,12.855,0,0,0,9.722,4.368,13.1,13.1,0,0,0,3.94-.608,12.817,12.817,0,0,0,10.085,4.823,12.5,12.5,0,0,0,12.564-10.649,12.066,12.066,0,0,0,.357-23.746Z" transform="translate(1.896 0.857)" fill="#f4f0dc"/>
      <path id="Path_3692" data-name="Path 3692" d="M972.806,1198.618a12.716,12.716,0,0,0,.067-1.3,12.506,12.506,0,1,1-.067,1.3Z" transform="translate(2.942 1.558)" fill="#fff"/>
      <path id="Path_3693" data-name="Path 3693" d="M988.682,1211.668a13.891,13.891,0,0,0-26.454-7.58,11.465,11.465,0,0,0,7.933,20.788,11.48,11.48,0,1,0,18.52-13.208Z" transform="translate(3.803 2.046)" fill="#f4f0dc"/>
      <g id="Path_3694" data-name="Path 3694" transform="translate(0.762 0.006)" fill="none" stroke-miterlimit="10">
        <path d="M1003.859,1192.986a10.742,10.742,0,0,0-3.9-.669,10.788,10.788,0,0,0-9.758-7.2,10.751,10.751,0,0,0-10.066-7.682c.116-.24.224-.486.319-.742a17.709,17.709,0,0,0-15.537-16.891,13.977,13.977,0,0,0-25,5.485c-.233-.146-.471-.285-.72-.411a11.876,11.876,0,0,0-21.736,2.465,41.455,41.455,0,0,1-12.385,15.135,6.569,6.569,0,0,0-.414,4.518,8.977,8.977,0,0,0,.858,11.661,6.087,6.087,0,0,0-2.145,6.744,8.279,8.279,0,0,0-1.1,6.69,14.922,14.922,0,0,0-1.521,22.542,8.059,8.059,0,0,0,7.551,10.92c.068,0,.134-.007.2-.009a8.065,8.065,0,0,0,10.839,9.282,89.655,89.655,0,0,1,15.521,5.045,8.059,8.059,0,0,0,6.251-2.964c.105,0,.208.018.314.018a412.632,412.632,0,0,1,14.346-12.422,12.99,12.99,0,0,0,16.163-.621,7.888,7.888,0,0,0,14.172-3.919,19.405,19.405,0,0,0,18.729-21.21,7.895,7.895,0,0,0,4.483-10.019,10.79,10.79,0,0,0-5.461-15.75Z" stroke="none"/>
        <path d="M 956.89697265625 1153.833862304688 C 953.8287353515625 1153.833862304688 950.9263305664062 1155.533081054688 949.4620971679688 1158.342651367188 C 945.609619140625 1157.746948242188 941.739990234375 1159.913940429688 940.3274536132812 1163.71142578125 C 940.133056640625 1164.233154296875 939.999755859375 1164.762573242188 939.91357421875 1165.291870117188 C 939.6805419921875 1165.145874023438 939.4420776367188 1165.00732421875 939.193115234375 1164.88134765625 C 939.5587158203125 1162.118286132812 938.1356201171875 1159.318359375 935.4827880859375 1158.05810546875 C 932.1906127929688 1156.496704101562 928.2552490234375 1157.898559570312 926.693603515625 1161.189819335938 C 926.4509887695312 1161.700317382812 926.2882080078125 1162.227416992188 926.1842651367188 1162.7578125 C 923.0051879882812 1161.55810546875 919.38623046875 1162.97509765625 917.9022827148438 1166.099487304688 C 917.7090454101562 1166.507080078125 917.56201171875 1166.923950195312 917.45703125 1167.346069335938 C 915.1296997070312 1167.481567382812 912.9462890625 1168.848999023438 911.8761596679688 1171.103759765625 C 911.6387939453125 1171.604858398438 911.47705078125 1172.120361328125 911.3731079101562 1172.64013671875 C 910.6484375 1173.236694335938 910.0372314453125 1173.991821289062 909.6077270507812 1174.896118164062 C 908.9755859375 1176.227905273438 908.8358154296875 1177.664428710938 909.1036376953125 1179.007568359375 C 907.3938598632812 1179.531860351562 905.8994140625 1180.7373046875 905.0718383789062 1182.480590820312 C 904.3755493164062 1183.947998046875 904.2716064453125 1185.542114257812 904.6580810546875 1186.998657226562 C 904.3251342773438 1187.452392578125 904.0269165039062 1187.94091796875 903.7769165039062 1188.468017578125 C 902.1060791015625 1191.98828125 902.92626953125 1196.040161132812 905.5161743164062 1198.659301757812 C 904.6696166992188 1199.292602539062 903.974365234375 1200.152587890625 903.5406494140625 1201.201782226562 C 902.965087890625 1202.59326171875 902.9441528320312 1204.074096679688 903.37158203125 1205.403686523438 C 903.0848388671875 1205.83837890625 902.8317260742188 1206.304809570312 902.6259155273438 1206.8046875 C 901.9044799804688 1208.550048828125 901.8277587890625 1210.3974609375 902.2698364257812 1212.093505859375 C 899.2442626953125 1213.26025390625 897.0860595703125 1216.171508789062 897.0860595703125 1219.607788085938 C 897.0860595703125 1220.971923828125 897.4263305664062 1222.25439453125 898.0228271484375 1223.380126953125 C 897.2352294921875 1224.6279296875 896.7720336914062 1226.10009765625 896.7720336914062 1227.684936523438 C 896.7720336914062 1230.646606445312 898.3714599609375 1233.228881835938 900.7492065429688 1234.63525390625 C 900.4152221679688 1235.520629882812 900.2241821289062 1236.476318359375 900.2241821289062 1237.479125976562 C 900.2241821289062 1241.939453125 903.8400268554688 1245.555297851562 908.30029296875 1245.555297851562 C 908.3684692382812 1245.555297851562 908.4346313476562 1245.547973632812 908.5018310546875 1245.546020507812 C 908.3736572265625 1246.117065429688 908.30029296875 1246.709594726562 908.30029296875 1247.319702148438 C 908.30029296875 1251.779907226562 911.9161376953125 1255.395874023438 916.3773193359375 1255.395874023438 C 917.4244995117188 1255.395874023438 918.422119140625 1255.18994140625 919.3411254882812 1254.82763671875 C 920.7861328125 1257.015258789062 923.2646484375 1258.462280273438 926.0834350585938 1258.462280273438 C 927.2702026367188 1258.462280273438 928.392822265625 1258.199829101562 929.4073486328125 1257.739868164062 C 930.8451538085938 1259.059936523438 932.7564697265625 1259.872924804688 934.8621215820312 1259.872924804688 C 937.3826293945312 1259.872924804688 939.6321411132812 1258.717529296875 941.1129150390625 1256.9091796875 C 941.218017578125 1256.912231445312 941.3209838867188 1256.927124023438 941.427001953125 1256.927124023438 C 945.6824340820312 1256.927124023438 949.18701171875 1253.739624023438 949.7005615234375 1249.622802734375 C 952.4826049804688 1249.050415039062 954.753173828125 1247.092895507812 955.77294921875 1244.50537109375 C 957.9036865234375 1246.076293945312 960.5545043945312 1247.02685546875 963.449951171875 1247.02685546875 C 966.7182006835938 1247.02685546875 969.6913452148438 1245.835815429688 971.9356079101562 1243.884399414062 C 972.8135375976562 1245.053344726562 974.0066528320312 1246.005859375 975.47802734375 1246.554077148438 C 979.5784301757812 1248.0791015625 984.1370239257812 1245.992309570312 985.661865234375 1241.893310546875 C 985.8992309570312 1241.2578125 986.037841796875 1240.610961914062 986.1071166992188 1239.964965820312 C 990.0340576171875 1241.067626953125 994.2136840820312 1238.996826171875 995.6620483398438 1235.106811523438 C 995.849853515625 1234.599731445312 995.9833374023438 1234.0849609375 996.064208984375 1233.569213867188 C 998.8325805664062 1233.163818359375 1001.301574707031 1231.301879882812 1002.346618652344 1228.49462890625 C 1002.57861328125 1227.870971679688 1002.717224121094 1227.236572265625 1002.787658691406 1226.604248046875 C 1003.591064453125 1225.815551757812 1004.244262695312 1224.849487304688 1004.663391113281 1223.723510742188 C 1005.279724121094 1222.064331054688 1005.296569824219 1220.332275390625 1004.836608886719 1218.755126953125 C 1006.827697753906 1217.950439453125 1008.489196777344 1216.352172851562 1009.296875 1214.182495117188 C 1009.976440429688 1212.35498046875 1009.934326171875 1210.436279296875 1009.320068359375 1208.73583984375 C 1009.670776367188 1208.158447265625 1009.976440429688 1207.543823242188 1010.220947265625 1206.887573242188 C 1012.302490234375 1201.291015625 1009.454345703125 1195.067626953125 1003.858825683594 1192.986083984375 C 1002.572326660156 1192.507080078125 1001.2529296875 1192.30224609375 999.9573364257812 1192.317016601562 C 998.926025390625 1189.403686523438 996.6617431640625 1186.949340820312 993.5383911132812 1185.787963867188 C 992.4378662109375 1185.378173828125 991.3131103515625 1185.166137695312 990.1997680664062 1185.120971679688 C 989.255615234375 1181.99755859375 986.9252319335938 1179.331298828125 983.6296997070312 1178.10546875 C 982.4766235351562 1177.677124023438 981.297119140625 1177.468139648438 980.1336059570312 1177.438720703125 C 980.2500610351562 1177.19921875 980.3572387695312 1176.952514648438 980.4528198242188 1176.697143554688 C 982.0679931640625 1172.354614257812 979.8573608398438 1167.524658203125 975.5157470703125 1165.909423828125 C 974.5170288085938 1165.537963867188 973.4929809570312 1165.376831054688 972.488037109375 1165.390625 C 971.6878051757812 1163.129638671875 969.9297485351562 1161.225341796875 967.5068969726562 1160.323364257812 C 966.6519775390625 1160.00634765625 965.7792358398438 1159.841186523438 964.916015625 1159.806640625 C 964.1829833984375 1157.381713867188 962.37451171875 1155.313842773438 959.8172607421875 1154.362426757812 C 958.854248046875 1154.00390625 957.8671264648438 1153.833862304688 956.89697265625 1153.833862304688 M 956.89697265625 1151.833862304688 C 958.1317138671875 1151.833862304688 959.3489990234375 1152.054077148438 960.5150146484375 1152.488037109375 C 962.0624389648438 1153.063842773438 963.4110107421875 1153.968994140625 964.52294921875 1155.17822265625 C 965.2725219726562 1155.993408203125 965.8920288085938 1156.935668945312 966.3507690429688 1157.95068359375 C 966.9819946289062 1158.058959960938 967.60107421875 1158.225219726562 968.2022705078125 1158.448120117188 C 970.662353515625 1159.364013671875 972.6565551757812 1161.155151367188 973.831787109375 1163.461791992188 C 974.6484375 1163.557739257812 975.4456176757812 1163.749389648438 976.213134765625 1164.034912109375 C 981.044189453125 1165.832275390625 983.7489013671875 1170.865966796875 982.78662109375 1175.768432617188 C 983.3096313476562 1175.889770507812 983.8236083984375 1176.0439453125 984.326171875 1176.230590820312 C 986.2352294921875 1176.940795898438 987.89794921875 1178.056762695312 989.2688598632812 1179.548095703125 C 990.2623901367188 1180.628784179688 991.0706176757812 1181.890380859375 991.646484375 1183.25 C 992.533203125 1183.38037109375 993.4000244140625 1183.602294921875 994.2362670898438 1183.913696289062 C 997.3643798828125 1185.076782226562 999.8836059570312 1187.392822265625 1001.312133789062 1190.371948242188 C 1002.426025390625 1190.4755859375 1003.51318359375 1190.723266601562 1004.556701660156 1191.11181640625 C 1007.763122558594 1192.304565429688 1010.3134765625 1194.675048828125 1011.737365722656 1197.786376953125 C 1013.161254882812 1200.897583007812 1013.288391113281 1204.37744140625 1012.095520019531 1207.584838867188 C 1011.921691894531 1208.05126953125 1011.71630859375 1208.514038085938 1011.481689453125 1208.968383789062 C 1011.980102539062 1210.917724609375 1011.876281738281 1212.984130859375 1011.171447753906 1214.879516601562 C 1010.401489257812 1216.947998046875 1008.953796386719 1218.693481445312 1007.092224121094 1219.845825195312 C 1007.2724609375 1221.387817382812 1007.086730957031 1222.943359375 1006.538208007812 1224.419921875 C 1006.111633300781 1225.56591796875 1005.486145019531 1226.60595703125 1004.674621582031 1227.520629882812 C 1004.570434570312 1228.10107421875 1004.418640136719 1228.660888671875 1004.221130371094 1229.19189453125 C 1003.121826171875 1232.14501953125 1000.698425292969 1234.371826171875 997.724609375 1235.247680664062 C 997.6676635742188 1235.433837890625 997.6052856445312 1235.618530273438 997.5375366210938 1235.801391601562 C 996.8165283203125 1237.737915039062 995.5380249023438 1239.372314453125 993.8389892578125 1240.530883789062 C 992.180419921875 1241.661987304688 990.2453002929688 1242.259887695312 988.2429809570312 1242.259887695312 C 988.0478515625 1242.259887695312 987.8528442382812 1242.254028320312 987.6582641601562 1242.242431640625 C 987.6195068359375 1242.360717773438 987.5785522460938 1242.477661132812 987.5354614257812 1242.593139648438 C 986.8167724609375 1244.525024414062 985.5380249023438 1246.16064453125 983.83837890625 1247.320922851562 C 982.1782836914062 1248.4541015625 980.2418823242188 1249.053100585938 978.238525390625 1249.053100585938 C 977.0584716796875 1249.053100585938 975.8951416015625 1248.843017578125 974.7808837890625 1248.428588867188 C 973.647216796875 1248.006225585938 972.6054077148438 1247.375244140625 971.6995849609375 1246.56884765625 C 969.2796630859375 1248.164306640625 966.4130859375 1249.02685546875 963.449951171875 1249.02685546875 C 961.0040893554688 1249.02685546875 958.6448364257812 1248.444091796875 956.5185546875 1247.32666015625 C 956.001708984375 1248.074340820312 955.3870239257812 1248.755004882812 954.691162109375 1249.345092773438 C 953.725341796875 1250.164184570312 952.6143798828125 1250.798583984375 951.4262084960938 1251.21533203125 C 950.2982788085938 1255.514770507812 946.4925537109375 1258.664794921875 941.9962768554688 1258.911499023438 C 940.11181640625 1260.804443359375 937.562255859375 1261.872924804688 934.8621215820312 1261.872924804688 C 932.7655639648438 1261.872924804688 930.7410888671875 1261.220092773438 929.0443725585938 1260.01416015625 C 928.085693359375 1260.311889648438 927.0941772460938 1260.462280273438 926.0834350585938 1260.462280273438 C 923.206787109375 1260.462280273438 920.5083618164062 1259.243774414062 918.6113891601562 1257.142700195312 C 917.878173828125 1257.31103515625 917.1309814453125 1257.395874023438 916.3773193359375 1257.395874023438 C 910.8330688476562 1257.395874023438 906.3201904296875 1252.895263671875 906.3003540039062 1247.35595703125 C 901.6992797851562 1246.425659179688 898.2241821289062 1242.350463867188 898.2241821289062 1237.479125976562 C 898.2241821289062 1236.795776367188 898.2947998046875 1236.116088867188 898.43505859375 1235.446044921875 C 897.5214233398438 1234.69091796875 896.742431640625 1233.778442382812 896.1426391601562 1232.753173828125 C 895.2459716796875 1231.220458984375 894.7720336914062 1229.467895507812 894.7720336914062 1227.684936523438 C 894.7720336914062 1226.160278320312 895.1199340820312 1224.661743164062 895.7855224609375 1223.29345703125 C 895.3258666992188 1222.123291015625 895.0860595703125 1220.868041992188 895.0860595703125 1219.607788085938 C 895.0860595703125 1217.532348632812 895.7161254882812 1215.540649414062 896.9081420898438 1213.848022460938 C 897.7421264648438 1212.663696289062 898.808349609375 1211.682861328125 900.0419311523438 1210.9560546875 C 899.880126953125 1209.2861328125 900.127685546875 1207.612915039062 900.777587890625 1206.040649414062 C 900.9092407226562 1205.720825195312 901.0603637695312 1205.4033203125 901.2294311523438 1205.091064453125 C 900.925048828125 1203.534423828125 901.0822143554688 1201.912719726562 901.6925048828125 1200.437377929688 C 901.9782104492188 1199.746215820312 902.3580322265625 1199.100708007812 902.8184814453125 1198.518188476562 C 901.9498291015625 1197.243896484375 901.3575439453125 1195.798217773438 901.0802612304688 1194.255249023438 C 900.6735229492188 1191.99169921875 900.981201171875 1189.693969726562 901.9700927734375 1187.610473632812 C 902.1359252929688 1187.260864257812 902.3237915039062 1186.915649414062 902.5319213867188 1186.577880859375 C 902.2807006835938 1184.896362304688 902.5320434570312 1183.167846679688 903.264892578125 1181.623168945312 C 904.0547485351562 1179.959350585938 905.3646850585938 1178.60107421875 906.97314453125 1177.738891601562 C 906.9668579101562 1176.464721679688 907.2455444335938 1175.208618164062 907.8009033203125 1174.03857421875 C 908.2428588867188 1173.108032226562 908.8385620117188 1172.278686523438 909.5762939453125 1171.565063476562 C 909.705810546875 1171.106811523438 909.87060546875 1170.665771484375 910.0686645507812 1170.24755859375 C 911.2146606445312 1167.8330078125 913.4010009765625 1166.114868164062 915.9598999023438 1165.542602539062 C 916.0030517578125 1165.441772460938 916.0481567382812 1165.341674804688 916.0950927734375 1165.24267578125 C 916.8067626953125 1163.744262695312 917.9246215820312 1162.49365234375 919.3283081054688 1161.624755859375 C 920.6924438476562 1160.780151367188 922.2605590820312 1160.333740234375 923.8631591796875 1160.333740234375 C 924.197265625 1160.333740234375 924.5294799804688 1160.353149414062 924.85888671875 1160.3916015625 C 924.8682861328125 1160.371459960938 924.8777465820312 1160.351318359375 924.88720703125 1160.331298828125 C 925.597412109375 1158.834594726562 926.715576171875 1157.582885742188 928.1202392578125 1156.712646484375 C 929.4857177734375 1155.866821289062 931.0550537109375 1155.419799804688 932.65869140625 1155.419799804688 C 933.9383544921875 1155.419799804688 935.1768798828125 1155.699462890625 936.3399047851562 1156.251098632812 C 938.0137329101562 1157.046264648438 939.3580322265625 1158.32666015625 940.2293090820312 1159.955200195312 C 940.8330078125 1159.235961914062 941.5360717773438 1158.5986328125 942.3260498046875 1158.059326171875 C 944.1228637695312 1156.832641601562 946.2297973632812 1156.203125 948.4011840820312 1156.2470703125 C 949.2308349609375 1155.067260742188 950.3009643554688 1154.069213867188 951.54833984375 1153.320190429688 C 953.1673583984375 1152.347900390625 955.0169067382812 1151.833862304688 956.89697265625 1151.833862304688 Z" stroke="none" fill="#000"/>
      </g>
      <g id="Path_3695" data-name="Path 3695" transform="translate(2.194 1.988)" fill="#9dd77f" stroke-miterlimit="10">
        <path d="M 945.810791015625 1259.651977539062 C 942.01416015625 1259.651977539062 938.2481689453125 1258.609619140625 934.6173095703125 1256.553955078125 L 934.4812622070312 1256.476928710938 L 934.375244140625 1256.362060546875 C 930.2816162109375 1251.927856445312 930.2976684570312 1247.735229492188 930.3037109375 1246.156982421875 C 930.3038330078125 1246.12255859375 930.303955078125 1246.089599609375 930.3040161132812 1246.057983398438 C 930.2120971679688 1245.91650390625 929.8529663085938 1245.638427734375 929.5868530273438 1245.432373046875 C 928.5137329101562 1244.601684570312 926.8919677734375 1243.346069335938 926.6591796875 1240.582397460938 C 926.3668212890625 1237.112060546875 925.3635864257812 1234.571655273438 924.8814697265625 1233.350830078125 L 924.822021484375 1233.200073242188 C 924.484130859375 1232.3408203125 924.2028198242188 1229.746459960938 924.3375854492188 1227.053100585938 C 924.4649047851562 1224.509155273438 925.0013427734375 1220.922241210938 926.8340454101562 1218.280639648438 C 928.1400146484375 1216.399291992188 928.1669921875 1214.195068359375 928.195556640625 1211.861328125 C 928.2127685546875 1210.453857421875 928.2305908203125 1208.99853515625 928.539794921875 1207.578735351562 C 928.902587890625 1205.912719726562 929.62255859375 1204.535888671875 930.7408447265625 1203.36962890625 C 932.8410034179688 1201.177734375 935.7998046875 1198.472290039062 938.4622802734375 1196.309204101562 C 939.8950805664062 1195.14501953125 941.1442260742188 1194.215576171875 942.1749267578125 1193.546630859375 C 943.8726806640625 1192.444702148438 944.6016845703125 1192.303344726562 945.047119140625 1192.303344726562 C 945.0914306640625 1192.303344726562 945.1356811523438 1192.305053710938 945.1786499023438 1192.308349609375 C 945.7295532226562 1192.350830078125 946.175537109375 1192.664794921875 946.5040283203125 1193.24169921875 C 946.6954345703125 1193.577880859375 946.84423828125 1193.984985351562 947.0326538085938 1194.500244140625 C 947.52294921875 1195.84130859375 948.2639770507812 1197.868041992188 950.3951416015625 1200.154541015625 C 953.0172119140625 1202.967895507812 957.064453125 1205.417236328125 962.42431640625 1207.434692382812 C 965.228271484375 1208.490112304688 967.9069213867188 1210.029296875 970.3858032226562 1212.009521484375 C 972.6005249023438 1213.778686523438 974.6689453125 1215.908813476562 976.5336303710938 1218.340454101562 C 979.6809692382812 1222.444946289062 982.215576171875 1227.37744140625 983.6705322265625 1232.229370117188 C 984.2959594726562 1234.31494140625 984.6797485351562 1236.273559570312 984.7804565429688 1237.8935546875 C 984.8908081054688 1239.668334960938 984.6592407226562 1240.963989257812 984.09228515625 1241.744750976562 C 983.5859985351562 1242.442260742188 983.1082153320312 1243.163940429688 982.6023559570312 1243.927856445312 C 980.6151123046875 1246.92919921875 978.36279296875 1250.330932617188 973.3735961914062 1253.685302734375 C 970.9803466796875 1255.29443359375 967.0162963867188 1255.807739257812 962.4263305664062 1256.401977539062 C 959.8682861328125 1256.733276367188 957.2249145507812 1257.075439453125 954.4965209960938 1257.634399414062 C 953.7516479492188 1258.04248046875 950.5150146484375 1259.651977539062 945.810791015625 1259.651977539062 Z" stroke="none"/>
        <path d="M 945.810791015625 1258.651977539062 C 950.8668823242188 1258.651977539062 954.140869140625 1256.686645507812 954.140869140625 1256.686645507812 C 961.9124145507812 1255.073486328125 969.3668823242188 1255.174194335938 972.815673828125 1252.85546875 C 978.879638671875 1248.778442382812 980.7457885742188 1244.653198242188 983.2831420898438 1241.157104492188 C 985.8214721679688 1237.661987304688 979.2009887695312 1214.817749023438 962.072021484375 1208.37060546875 C 944.943115234375 1201.92333984375 946.84716796875 1193.439819335938 945.1016845703125 1193.305419921875 C 945.083984375 1193.304077148438 945.0659790039062 1193.303344726562 945.0470581054688 1193.303344726562 C 943.200439453125 1193.303344726562 935.5439453125 1199.802368164062 931.462646484375 1204.061645507812 C 927.3385009765625 1208.363159179688 930.828369140625 1214.2802734375 927.6556396484375 1218.850708007812 C 924.4839477539062 1223.422241210938 925.2769165039062 1231.624389648438 925.7526245117188 1232.834106445312 C 926.2284545898438 1234.0439453125 927.3385009765625 1236.733642578125 927.6556396484375 1240.498413085938 C 927.9727172851562 1244.262573242188 931.3040771484375 1244.665893554688 931.3040771484375 1246.01123046875 C 931.3040771484375 1247.35546875 931.1455078125 1251.389404296875 935.1099853515625 1255.683715820312 C 939.104736328125 1257.945434570312 942.7779541015625 1258.651977539062 945.810791015625 1258.651977539062 M 945.810791015625 1260.651977539062 C 941.8394165039062 1260.651977539062 937.9075927734375 1259.56591796875 934.1246337890625 1257.424072265625 L 933.8525390625 1257.270141601562 L 933.6404418945312 1257.040405273438 C 931.7872924804688 1255.032958984375 930.51025390625 1252.820556640625 929.8449096679688 1250.464477539062 C 929.3609008789062 1248.75048828125 929.3071899414062 1247.354858398438 929.3034057617188 1246.481689453125 C 929.1998901367188 1246.3974609375 929.0772705078125 1246.302490234375 928.9747314453125 1246.22314453125 C 927.8368530273438 1245.34228515625 925.932373046875 1243.867919921875 925.6627197265625 1240.666259765625 C 925.3826904296875 1237.342651367188 924.4159545898438 1234.894653320312 923.9513549804688 1233.718139648438 L 923.8914184570312 1233.566162109375 C 923.4458618164062 1232.43310546875 923.2083129882812 1229.611694335938 923.3388671875 1227.003173828125 C 923.47265625 1224.3291015625 924.0451049804688 1220.546264648438 926.0123901367188 1217.710693359375 C 927.1438598632812 1216.080810546875 927.1678466796875 1214.119750976562 927.1956176757812 1211.84912109375 C 927.2318115234375 1208.892700195312 927.2728271484375 1205.541748046875 930.0189819335938 1202.677490234375 C 932.1455688476562 1200.458129882812 935.139404296875 1197.720458984375 937.8317260742188 1195.533081054688 C 939.2919921875 1194.3466796875 940.570068359375 1193.396118164062 941.6304931640625 1192.707763671875 C 943.2676391601562 1191.645141601562 944.326904296875 1191.239135742188 945.2550659179688 1191.311279296875 C 945.7631225585938 1191.350463867188 946.7136840820312 1191.588989257812 947.373046875 1192.746948242188 C 947.6058349609375 1193.155883789062 947.7754516601562 1193.619750976562 947.9718017578125 1194.156860351562 C 948.9033813476562 1196.704833984375 950.8418579101562 1202.006591796875 962.7765502929688 1206.498779296875 C 965.6788330078125 1207.591186523438 968.448974609375 1209.182373046875 971.0099487304688 1211.228149414062 C 973.2879028320312 1213.0478515625 975.4132690429688 1215.236083984375 977.3271484375 1217.73193359375 C 980.5465087890625 1221.930297851562 983.1394653320312 1226.976928710938 984.62841796875 1231.942138671875 C 985.4817504882812 1234.787963867188 986.6519775390625 1239.921875 984.9014282226562 1242.332397460938 C 984.407958984375 1243.01220703125 983.9359130859375 1243.725219726562 983.4361572265625 1244.47998046875 C 981.3972778320312 1247.559326171875 979.0863647460938 1251.049438476562 973.9315795898438 1254.515258789062 C 971.3425903320312 1256.255859375 967.2702026367188 1256.783203125 962.5547485351562 1257.393676757812 C 960.05859375 1257.716918945312 957.4804077148438 1258.05078125 954.8365478515625 1258.585693359375 C 953.8031616210938 1259.126342773438 950.4737548828125 1260.651977539062 945.810791015625 1260.651977539062 Z" stroke="none" fill="#000"/>
      </g>
      <g id="Path_3696" data-name="Path 3696" transform="translate(0 0)" fill="none" stroke-miterlimit="10">
        <path d="M1014.466,1203.1c-.9-1.286,1.534-3.555-.719-7.335a34.347,34.347,0,0,1-3.569-8.405c-.422-1.426-5.249-9.718-10.87-12.3s-6.738-10.208-12.951-11.991c-5.791-1.661-15.469-3.427-17.829-2.757-.088-.036-.17-.08-.259-.114a8.357,8.357,0,0,1-7.69-5.961,14.876,14.876,0,0,0-19.9,10.93c-.233-.146-.471-.285-.721-.411a20.56,20.56,0,0,0-21.291,1.217,6.673,6.673,0,0,0-.445,1.247c-.028,0-.056.008-.084.01-.936-1.094-2-2.012-2.311-2.91-.783-2.245-3.919-1.36-3.605-2.928s-3.605.784-3.605.784-16.3,12.854-21.633,27.3-6.428,22.08-4.475,34.65,18.339,19.754,18.339,19.754a12.655,12.655,0,0,0,2.742-.6,8.035,8.035,0,0,0,5.477,2.154c.068,0,.134-.008.2-.01A8.064,8.064,0,0,0,920.1,1254.7a89.767,89.767,0,0,1,15.521,5.046,8.034,8.034,0,0,0,3.987-1.058c9.532,4.165,16.725-.146,16.725-.146,7.77-1.613,15.226-1.512,18.675-3.832a30.145,30.145,0,0,0,9.041-9.612,7.872,7.872,0,0,0,2.372-3.33,7.96,7.96,0,0,0,.445-1.928,540.919,540.919,0,0,1,15.3-9.7c5.5.038,14.155-2.107,15.66-15.638A17.044,17.044,0,0,0,1014.466,1203.1Z" stroke="none"/>
        <path d="M 957.6583862304688 1153.711791992188 C 954.5899658203125 1153.711791992188 951.6880493164062 1155.4111328125 950.2238159179688 1158.220703125 C 946.3713989257812 1157.624755859375 942.5016479492188 1159.791748046875 941.0880737304688 1163.58837890625 C 940.8948364257812 1164.110229492188 940.7613525390625 1164.639404296875 940.67529296875 1165.169799804688 C 940.4422607421875 1165.02392578125 940.2037963867188 1164.88525390625 939.9547729492188 1164.75927734375 C 940.3203125 1161.99609375 938.8973388671875 1159.195190429688 936.2444458007812 1157.93603515625 C 932.9520263671875 1156.373413085938 929.0169067382812 1157.775390625 927.455322265625 1161.067749023438 C 927.212646484375 1161.578369140625 927.0498657226562 1162.104370117188 926.9459838867188 1162.6357421875 C 923.76708984375 1161.435302734375 920.1469116210938 1162.85205078125 918.6639404296875 1165.9765625 C 918.4707641601562 1166.3837890625 918.3236694335938 1166.802001953125 918.2186889648438 1167.22314453125 C 918.1903076171875 1167.22509765625 918.1629638671875 1167.231323242188 918.1345825195312 1167.2333984375 C 917.198974609375 1166.139282226562 916.1360473632812 1165.221435546875 915.8231201171875 1164.323486328125 C 915.0396728515625 1162.078125 911.90380859375 1162.963500976562 912.2177124023438 1161.395385742188 C 912.5308227539062 1159.827392578125 908.6124267578125 1162.179077148438 908.6124267578125 1162.179077148438 C 908.6124267578125 1162.179077148438 892.307861328125 1175.033569335938 886.9790649414062 1189.480224609375 C 881.6482543945312 1203.925903320312 880.5507202148438 1211.559814453125 882.504150390625 1224.129760742188 C 884.45654296875 1236.698608398438 900.8428955078125 1243.88330078125 900.8428955078125 1243.88330078125 C 900.8428955078125 1243.88330078125 902.5526733398438 1243.70166015625 903.5850219726562 1243.279296875 C 905.0249633789062 1244.612060546875 906.9446411132812 1245.433227539062 909.0618896484375 1245.433227539062 C 909.1301879882812 1245.433227539062 909.1963500976562 1245.425048828125 909.2634887695312 1245.422729492188 C 909.1353759765625 1245.9951171875 909.0618896484375 1246.586547851562 909.0618896484375 1247.19775390625 C 909.0618896484375 1251.657836914062 912.677734375 1255.273803710938 917.1390991210938 1255.273803710938 C 918.1861572265625 1255.273803710938 919.1837768554688 1255.067993164062 920.102783203125 1254.70458984375 C 921.5477905273438 1256.89306640625 924.0252685546875 1258.33935546875 926.8450927734375 1258.33935546875 C 928.0308227539062 1258.33935546875 929.154541015625 1258.077880859375 930.1690673828125 1257.617797851562 C 931.6067504882812 1258.937866210938 933.5181884765625 1259.750732421875 935.6239013671875 1259.750732421875 C 937.07421875 1259.750732421875 938.43310546875 1259.3623046875 939.6104125976562 1258.692260742188 C 949.1422119140625 1262.857666015625 956.3351440429688 1258.546264648438 956.3350830078125 1258.546264648438 C 964.1055297851562 1256.93310546875 971.5609741210938 1257.033813476562 975.0098876953125 1254.713989257812 C 979.9059448242188 1251.422485351562 982.065185546875 1248.099853515625 984.0510864257812 1245.1015625 C 985.0866088867188 1244.245483398438 985.9215087890625 1243.119506835938 986.4234619140625 1241.771240234375 C 986.6598510742188 1241.134643554688 986.799560546875 1240.48779296875 986.868896484375 1239.842895507812 C 990.7955932617188 1240.945678710938 994.975341796875 1238.87451171875 996.4225463867188 1234.983764648438 C 996.611572265625 1234.476440429688 996.7449951171875 1233.961791992188 996.8259887695312 1233.447143554688 C 998.9609375 1233.13427734375 1000.91015625 1231.948486328125 1002.172546386719 1230.138061523438 C 1002.219177246094 1230.138427734375 1002.266235351562 1230.138549804688 1002.313293457031 1230.138549804688 C 1007.814819335938 1230.138549804688 1016.340026855469 1227.916748046875 1017.832275390625 1214.500366210938 C 1018.182983398438 1208.15185546875 1015.36328125 1204.3837890625 1014.466247558594 1203.098266601562 C 1013.569396972656 1201.812744140625 1016.000610351562 1199.54345703125 1013.746887207031 1195.763671875 C 1011.4931640625 1191.985107421875 1010.599426269531 1188.784912109375 1010.17822265625 1187.358642578125 C 1009.756164550781 1185.932495117188 1004.929321289062 1177.64111328125 999.3086547851562 1175.062744140625 C 993.686767578125 1172.485595703125 992.5703735351562 1164.85498046875 986.3573608398438 1163.071533203125 C 980.5665893554688 1161.410034179688 970.8888549804688 1159.645263671875 968.5279541015625 1160.314819335938 C 968.4397583007812 1160.278930664062 968.3578491210938 1160.234985351562 968.2685546875 1160.201293945312 C 967.4136352539062 1159.883178710938 966.5409545898438 1159.718383789062 965.6776733398438 1159.684692382812 C 964.944580078125 1157.259521484375 963.1361083984375 1155.190795898438 960.5789184570312 1154.240234375 C 959.6156616210938 1153.881713867188 958.6286010742188 1153.711791992188 957.6583862304688 1153.711791992188 M 957.6583862304688 1148.711791992188 C 959.25146484375 1148.711791992188 960.82080078125 1148.995239257812 962.3229370117188 1149.55419921875 C 964.2890625 1150.285034179688 966.0775756835938 1151.485717773438 967.4932250976562 1153.025512695312 C 968.1034545898438 1153.689331054688 968.6468505859375 1154.418334960938 969.1130981445312 1155.194946289062 C 969.4033813476562 1155.177612304688 969.7097778320312 1155.169067382812 970.0352783203125 1155.169067382812 C 974.3040771484375 1155.169311523438 982.546875 1156.776489257812 987.736328125 1158.265380859375 C 992.7283325195312 1159.698364257812 995.361083984375 1163.390747070312 997.4765014648438 1166.357666015625 C 998.820556640625 1168.242797851562 999.9813842773438 1169.870849609375 1001.392211914062 1170.517578125 C 1004.562133789062 1171.9716796875 1007.682922363281 1174.694580078125 1010.669067382812 1178.611206054688 C 1012.349548339844 1180.815307617188 1014.4130859375 1184.048828125 1014.97265625 1185.939819335938 L 1015.027465820312 1186.125732421875 C 1015.437438964844 1187.520629882812 1016.20068359375 1190.116821289062 1018.041076660156 1193.202392578125 C 1020.156677246094 1196.750610351562 1019.833374023438 1199.7880859375 1019.474182128906 1201.580444335938 C 1020.929077148438 1203.881713867188 1023.1796875 1208.34912109375 1022.824645996094 1214.776123046875 L 1022.817016601562 1214.914916992188 L 1022.801635742188 1215.053100585938 C 1022.382202148438 1218.82421875 1021.433715820312 1222.14404296875 1019.982727050781 1224.920043945312 C 1018.613586425781 1227.539306640625 1016.788391113281 1229.70751953125 1014.557739257812 1231.364379882812 C 1011.759582519531 1233.44287109375 1008.316650390625 1234.696411132812 1004.501770019531 1235.041137695312 C 1003.41796875 1236.053344726562 1002.16650390625 1236.873657226562 1000.809326171875 1237.463623046875 C 999.83740234375 1239.660522460938 998.287109375 1241.525146484375 996.2911987304688 1242.88671875 C 994.5240478515625 1244.092163085938 992.5150756835938 1244.832397460938 990.413818359375 1245.061401367188 C 989.7523193359375 1246.305541992188 988.8892822265625 1247.4365234375 987.8599243164062 1248.405395507812 C 985.81787109375 1251.481079101562 983.20849609375 1255.22705078125 977.7994995117188 1258.863525390625 C 974.6239013671875 1260.99951171875 970.2254028320312 1261.569091796875 965.1323852539062 1262.228637695312 C 962.813720703125 1262.528930664062 960.4229125976562 1262.838500976562 958.0139770507812 1263.308471679688 C 956.4076538085938 1264.088012695312 952.8236083984375 1265.50634765625 948.0123291015625 1265.50634765625 C 945.2191772460938 1265.50634765625 942.4345703125 1265.03173828125 939.7070922851562 1264.093017578125 C 938.392333984375 1264.526489257812 937.012451171875 1264.750732421875 935.6239013671875 1264.750732421875 C 933.3875122070312 1264.750732421875 931.2150268554688 1264.179443359375 929.29052734375 1263.10888671875 C 928.4888305664062 1263.26220703125 927.6722412109375 1263.33935546875 926.8450927734375 1263.33935546875 C 923.689453125 1263.33935546875 920.699951171875 1262.210693359375 918.3643188476562 1260.216064453125 C 917.9580688476562 1260.254516601562 917.5494995117188 1260.273803710938 917.1390991210938 1260.273803710938 C 915.3758544921875 1260.273803710938 913.6627807617188 1259.927368164062 912.04736328125 1259.244262695312 C 910.489501953125 1258.585327148438 909.0914916992188 1257.643310546875 907.89208984375 1256.443969726562 C 906.6927490234375 1255.244750976562 905.75048828125 1253.846801757812 905.0916137695312 1252.2890625 C 904.7127685546875 1251.3935546875 904.4375 1250.468017578125 904.2673950195312 1249.520629882812 C 903.6766967773438 1249.286865234375 903.1028442382812 1249.009521484375 902.5502319335938 1248.690551757812 C 902.017333984375 1248.781127929688 901.5897827148438 1248.83203125 901.37109375 1248.855346679688 L 900.0509643554688 1248.99560546875 L 898.8351440429688 1248.462524414062 C 898.6446533203125 1248.379028320312 894.1162109375 1246.374877929688 889.3409423828125 1242.67041015625 C 886.4609375 1240.436279296875 884.0508422851562 1238.023071289062 882.177490234375 1235.49755859375 C 879.6868896484375 1232.14013671875 878.1344604492188 1228.573608398438 877.5634155273438 1224.897216796875 C 876.4679565429688 1217.84814453125 876.3152465820312 1212.452270507812 877.0528564453125 1206.855102539062 C 877.7596435546875 1201.492065429688 879.3253784179688 1195.778198242188 882.2882690429688 1187.749145507812 C 888.0386962890625 1172.159423828125 904.805908203125 1158.813110351562 905.516845703125 1158.252563476562 L 905.7666625976562 1158.0556640625 L 906.0394897460938 1157.891967773438 C 906.1141967773438 1157.847045898438 906.7933959960938 1157.442016601562 907.628662109375 1157.031127929688 C 909.2803344726562 1156.21875 910.5626220703125 1155.856323242188 911.786376953125 1155.856323242188 C 913.4590454101562 1155.856323242188 915.0047607421875 1156.571411132812 916.0272216796875 1157.818115234375 C 916.15087890625 1157.968872070312 916.265380859375 1158.125732421875 916.3706665039062 1158.287719726562 C 916.708984375 1158.433715820312 917.0685424804688 1158.61279296875 917.435546875 1158.837158203125 C 917.6478271484375 1158.966918945312 917.8519897460938 1159.105712890625 918.0474853515625 1159.2529296875 C 918.1988525390625 1159.14892578125 918.3528442382812 1159.048461914062 918.5095825195312 1158.951293945312 C 920.14892578125 1157.936279296875 922.0070190429688 1157.347900390625 923.9221801757812 1157.232299804688 C 924.8167724609375 1155.95556640625 925.9624633789062 1154.86962890625 927.3010864257812 1154.040161132812 C 929.1414184570312 1152.899780273438 931.2572021484375 1152.296997070312 933.4195556640625 1152.296997070312 C 935.148193359375 1152.296997070312 936.8199462890625 1152.674560546875 938.3884887695312 1153.419067382812 C 939.5037231445312 1153.948364257812 940.5109252929688 1154.63818359375 941.386474609375 1155.4658203125 C 941.3898315429688 1155.463500976562 941.3930053710938 1155.46142578125 941.3963623046875 1155.459106445312 C 943.2806396484375 1154.172973632812 945.4292602539062 1153.397094726562 947.6741333007812 1153.183471679688 C 948.5654296875 1152.185791015625 949.6058349609375 1151.322631835938 950.7650756835938 1150.626342773438 C 952.8504638671875 1149.373779296875 955.234130859375 1148.711791992188 957.6583862304688 1148.711791992188 Z" stroke="none" fill="#000"/>
      </g>
      <path id="Path_3697" data-name="Path 3697" d="M887.37,1218.622s3.765-10.653,8.257-12.221" transform="translate(0.29 2.646)" fill="none" stroke="#bfefa0" stroke-linecap="round" stroke-linejoin="round" stroke-width="3"/>
      <path id="Path_3698" data-name="Path 3698" d="M940.752,1206.645s-5.157,36.937,20.017,47.231" transform="translate(2.948 2.658)" fill="none" stroke="#bfefa0" stroke-linecap="round" stroke-linejoin="round" stroke-width="3"/>
      <path id="Path_3699" data-name="Path 3699" d="M948.647,1244.113A28.532,28.532,0,0,0,962.5,1225.6" transform="translate(3.366 3.609)" fill="none" stroke="#bfefa0" stroke-linecap="round" stroke-linejoin="round" stroke-width="3"/>
      <path id="Path_3700" data-name="Path 3700" d="M933.326,1227.373s2.152,3.822,9.919,4.535" transform="translate(2.597 3.699)" fill="none" stroke="#bfefa0" stroke-linecap="round" stroke-linejoin="round" stroke-width="3"/>
      <path id="Path_3701" data-name="Path 3701" d="M940.573,1220.436s6.239-2.456,7.362-7.637" transform="translate(2.961 2.967)" fill="none" stroke="#bfefa0" stroke-linecap="round" stroke-linejoin="round" stroke-width="3"/>
      <path id="Path_3702" data-name="Path 3702" d="M894.362,1232.239s-16.434-13.361-3.817-32.6" transform="translate(0.21 2.306)" fill="none" stroke="#bfefa0" stroke-linecap="round" stroke-linejoin="round" stroke-width="3"/>
    </g>
  </g>
</svg>
