<svg xmlns="http://www.w3.org/2000/svg" width="147.223" height="134.63" viewBox="0 0 147.223 134.63">
  <g id="Group_1536" data-name="Group 1536" transform="translate(-236.777 -776.369)">
    <path id="Path_2731" data-name="Path 2731" d="M279.555,808.208s-38.339-1.119-16.1-39.376c21.937-30.976,43.435-29.809,45.567-58.468,2.265.523,8.2,2.435,8.2,2.435s-8.419,11.506,0,22.508a203.486,203.486,0,0,0,36.495,37.367c7.875,8.251,10.111,32.574-13.048,33.976-8.788,3.363-14.118,5.524-25.541,2.328-9.411,6.283-24.4,9.3-35.575-.77" transform="translate(-1.827 76.405)" fill="none"/>
    <g id="Group_1051" data-name="Group 1051" transform="translate(-178.812 -773.897)">
      <path id="Path_2389" data-name="Path 2389" d="M465.938,1676.167c-7.612-.319-13.118-.612-17.616-4.668-6.126-5.523-7.732-16.324-3.272-25.894,3.079-6.61,6.515-13.069,10.086-19.43a68.572,68.572,0,0,0,8.479-25.636c.15-1.243.6-2.724-.8-3.313-1.679-.709-2.256.974-2.45,2.043-2.547,14.073-11.388,25.159-17.883,37.3-4.435,8.294-7.091,16.681-6.05,25.993.5,4.506-1.344,5.129-5.158,4.562-10.554-1.567-17.371-13.155-14.206-25.118,1.951-7.375,5.994-13.861,10.579-19.88,7.2-9.456,15.766-17.6,24.891-25.219,12.638-10.552,22.385-23.119,25.414-39.823.514-2.834,1.913-3.148,4.18-2.719,2.71.511,3.26,2.165,2.125,4.411-5.113,10.115-1.285,18.591,4.971,26.479,8.45,10.652,17.088,21.148,26.438,31.047,3.972,4.2,7.572,8.763,11.326,13.173,1.7,2,1.417,3.223-1.077,4.584-5.922,3.229-6.215,3.242-9.125-2.982-5.208-11.144-13.785-19.774-21.676-28.909-2.138-2.477-4.405-4.847-6.681-7.2-.833-.862-1.8-2.166-3.157-1.35-1.674,1.009-1.047,2.7-.36,4a36.736,36.736,0,0,0,3.6,5.722c5.009,6.309,10.111,12.545,15.229,18.765a63.517,63.517,0,0,1,7.939,12.805c1.6,3.3.493,4.6-2.728,5.14a20.766,20.766,0,0,1-5.217.387c-6.9-.548-9.046.907-11.956,7.6-3.121,7.181-2.745,10.362,2.215,14.652,1.44,1.246,3.065,2.64,2.276,4.248-1.095,2.229-3.651.588-5.539.881-1.981.309-3.5-.464-3.463-2.84a14.564,14.564,0,0,1,.154-3.014c3.353-14.688.576-29-2.528-43.316-2.507-11.552-6.7-22.7-8.3-34.468-.234-1.729-.578-3.956-2.828-3.644-2.043.283-2.226,2.484-2.252,4.284-.062,4.6,1.273,8.932,2.456,13.317,3.145,11.662,6.9,23.167,8.886,35.13a78.023,78.023,0,0,1-.253,27.807C480.431,1672.413,475.416,1676.46,465.938,1676.167Z" transform="translate(0.359 2.022)" fill="#d7d7d7"/>
      <path id="Path_2390" data-name="Path 2390" d="M415.694,1649.187c-.606-5.65,1.5-10.96,4.152-16.213,7.921-15.7,20.48-27.208,33.828-38.076,12.249-9.974,21.088-22.111,23.668-38.15.9-5.58,4.243-7.507,9.746-5.976,7.924,2.2,10.4,5.461,7.431,13.036-3.3,8.414-1.556,13.988,4.589,20.608,11.444,12.326,21.4,26.013,33.733,37.6,2.872,2.7,4.493,7.581,7.709,8.827,3.52,1.364,7.071-2.953,10.79-4.4,5.9-2.3,9.039-1,10.734,5.2,2.326,8.514-1.322,15.488-4.385,23.654-4.458,11.877-15.161,19.074-35.186,21.653a3.992,3.992,0,0,1-1.494.17,76.409,76.409,0,0,0-27.68-.6c-2.37.361-4.387-.1-6.6,1.733-11.514,9.524-28.885,8.655-39.854-1.669-1.53-1.44-2.433-3.333-5.532-2.816-14.192,2.367-24.959-6.713-25.647-21.187C415.651,1651.581,415.694,1650.573,415.694,1649.187Zm55.14,29c9.479.293,14.493-3.753,16.678-15.089a78.022,78.022,0,0,0,.253-27.807c-1.986-11.963-5.74-23.468-8.886-35.13-1.183-4.384-2.518-8.72-2.456-13.317.026-1.8.209-4,2.252-4.284,2.25-.312,2.594,1.916,2.828,3.644,1.6,11.773,5.79,22.916,8.3,34.468,3.1,14.315,5.881,28.628,2.528,43.316a14.566,14.566,0,0,0-.154,3.014c-.033,2.376,1.482,3.149,3.463,2.84,1.889-.293,4.444,1.347,5.539-.882.789-1.608-.836-3-2.276-4.248-4.96-4.29-5.337-7.47-2.215-14.652,2.909-6.694,5.055-8.149,11.956-7.6a20.759,20.759,0,0,0,5.217-.387c3.221-.543,4.33-1.844,2.728-5.14a63.512,63.512,0,0,0-7.939-12.805c-5.119-6.22-10.221-12.456-15.229-18.765a36.746,36.746,0,0,1-3.6-5.722c-.687-1.3-1.314-2.99.36-4,1.353-.815,2.324.489,3.158,1.351,2.276,2.355,4.543,4.724,6.681,7.2,7.891,9.135,16.468,17.766,21.676,28.909,2.91,6.224,3.2,6.211,9.125,2.982,2.494-1.361,2.776-2.586,1.077-4.584-3.755-4.41-7.354-8.969-11.326-13.173-9.35-9.9-17.988-20.4-26.438-31.047-6.256-7.888-10.083-16.364-4.971-26.479,1.136-2.246.585-3.9-2.125-4.411-2.267-.43-3.666-.115-4.18,2.719-3.029,16.7-12.777,29.27-25.414,39.823-9.125,7.622-17.687,15.763-24.891,25.219-4.585,6.019-8.629,12.5-10.579,19.879-3.165,11.963,3.652,23.551,14.206,25.118,3.814.567,5.662-.056,5.158-4.562-1.04-9.312,1.615-17.7,6.05-25.993,6.5-12.146,15.337-23.232,17.883-37.3.194-1.069.771-2.752,2.45-2.043,1.394.59.948,2.07.8,3.313a68.569,68.569,0,0,1-8.479,25.636c-3.572,6.362-7.008,12.82-10.086,19.43-4.46,9.569-2.854,20.371,3.272,25.894C457.715,1677.576,463.221,1677.87,470.833,1678.189Zm86.3-39.759c-.186-2.63.877-6.081-1.993-7.5-2.536-1.257-4.476,1.607-6.5,2.9a95.674,95.674,0,0,1-23.075,11.03c-8.279,2.548-14.7,5.067-17.153,14.5-1.382,5.32-2.155,6.749,2.522,9.492,3.387,1.987,7.218,4.2,11.133,3.505,9.476-1.3,22.868-6.873,28.732-15.122C555.334,1648.158,555.334,1646.645,557.129,1638.429Zm-50.558,12.591c.026-1.656-.2-2.967-1.533-3.433-1.976-.69-2.636,1.121-3.147,2.315-1.04,2.427-2.625,4.887-1.314,7.717a1.237,1.237,0,0,0,1.86.558A10.455,10.455,0,0,0,506.572,1651.02Z" transform="translate(0)"/>
      <path id="Path_2391" data-name="Path 2391" d="M526.048,1611.214c.537,8.853-4.661,14.567-10.657,19.9-7.117,6.327-15.169,10.694-24.629,12.374a15.449,15.449,0,0,1-10.911-1.854c-4.677-2.743-3.9-4.172-2.522-9.492,2.453-9.432,8.874-11.951,17.153-14.5a95.677,95.677,0,0,0,23.075-11.03c2.022-1.293,3.962-4.157,6.5-2.9C526.925,1605.134,525.862,1608.585,526.048,1611.214Z" transform="translate(31.081 27.215)" fill="#fff"/>
      <path id="Path_2392" data-name="Path 2392" d="M477.953,1618.107a10.456,10.456,0,0,1-4.134,7.157,1.237,1.237,0,0,1-1.86-.558c-1.311-2.829.274-5.29,1.314-7.717.511-1.195,1.17-3,3.147-2.315C477.756,1615.141,477.978,1616.452,477.953,1618.107Z" transform="translate(28.619 32.913)" fill="#fff"/>
    </g>
  </g>
</svg>
