<svg xmlns="http://www.w3.org/2000/svg" width="145.696" height="98.843" viewBox="0 0 145.696 98.843">
  <g id="Group_1216" data-name="Group 1216" transform="translate(-1355 -800.604)">
    <path id="Path_2769" data-name="Path 2769" d="M1361.985,723.674s11.67,1.127,16.92,16.405" transform="translate(-0.505 83.415)" fill="none" stroke="#87b838" stroke-linecap="round" stroke-linejoin="round" stroke-width="3"/>
    <path id="Path_2770" data-name="Path 2770" d="M1378.625,740.255s21.362-4.766,42.888,10.845c20.667,14.987,39.669,39.972,74.163,51.25a1.019,1.019,0,0,1-.214,1.988c-19.946,1.671-65.917-5.978-81.179-19.88C1397.687,769.34,1382.569,754.223,1378.625,740.255Z" transform="translate(-0.689 83.239)" fill="#56880f"/>
    <ellipse id="Ellipse_425" data-name="Ellipse 425" cx="10.969" cy="10.969" rx="10.969" ry="10.969" transform="translate(1380.74 819.237)" fill="#c5d771"/>
    <ellipse id="Ellipse_426" data-name="Ellipse 426" cx="11.503" cy="11.503" rx="11.503" ry="11.503" transform="translate(1397.08 834.339)" fill="#c5d771"/>
    <ellipse id="Ellipse_427" data-name="Ellipse 427" cx="12.627" cy="12.627" rx="12.627" ry="12.627" transform="translate(1413.018 848.851)" fill="#c5d771"/>
    <ellipse id="Ellipse_428" data-name="Ellipse 428" cx="11.379" cy="11.379" rx="11.379" ry="11.379" transform="translate(1436.477 858.971)" fill="#c5d771"/>
    <ellipse id="Ellipse_429" data-name="Ellipse 429" cx="10.352" cy="10.352" rx="10.352" ry="10.352" transform="translate(1457.182 870.326)" fill="#c5d771"/>
    <path id="Path_2771" data-name="Path 2771" d="M1378.625,740.263s20.869,32.536,61.95,48.475c34.43,10.542,46.751,13.5,54.567,14.5a1.327,1.327,0,0,1,.35,2.537c-11.964,5.061-31.656,10.023-59.189-2.085-31.386-13.8-43.546-27.114-47.49-33.686S1378.461,752.258,1378.625,740.263Z" transform="translate(-0.689 83.231)" fill="#87b838"/>
    <g id="Path_2772" data-name="Path 2772" transform="translate(-0.488 83.431)" fill="none" stroke-miterlimit="10">
      <path d="M1495.475,802.157a111.965,111.965,0,0,1-17.413-7.391,10.3,10.3,0,0,0-12.516-7.561q-3.521-2.4-6.817-4.923a11.4,11.4,0,0,0-8.117-6.516c-10.541-8.862-19.744-17.929-29.3-24.858a60.366,60.366,0,0,0-19.52-9.442,10.95,10.95,0,0,0-17.728-2.033c-1.538.07-2.792.2-3.733.32a1.581,1.581,0,0,0-.039-.173c-5.5-15.995-17.666-17.349-18.18-17.4a1.483,1.483,0,0,0-.292,2.952c.439.047,10.815,1.3,15.665,15.411a1.479,1.479,0,0,0,.966.933c.328,11.454,6.373,22.014,10.16,28.327,3.944,6.572,16.1,19.883,47.49,33.686,27.533,12.108,47.225,7.146,59.189,2.085a1.319,1.319,0,0,0,.672-1.806A1.022,1.022,0,0,0,1495.475,802.157Z" stroke="none"/>
      <path d="M 1469.112548828125 811.0164184570312 C 1480.107788085938 811.016845703125 1488.825927734375 808.3109741210938 1495.290649414062 805.5761108398438 C 1496.07080078125 805.2457885742188 1496.259643554688 804.3983154296875 1495.962158203125 803.7703857421875 C 1496.358520507812 803.2659912109375 1496.235961914062 802.4056396484375 1495.475463867188 802.157470703125 C 1489.189819335938 800.1024780273438 1483.423461914062 797.587646484375 1478.0625 794.7662963867188 C 1476.949096679688 790.2489013671875 1472.882568359375 786.89453125 1468.022094726562 786.89453125 C 1467.167602539062 786.89453125 1466.340942382812 787.0092163085938 1465.546875 787.205078125 C 1463.19921875 785.60498046875 1460.930541992188 783.95947265625 1458.730224609375 782.2822875976562 C 1457.251831054688 778.977294921875 1454.250366210938 776.5030517578125 1450.613159179688 775.7662963867188 C 1440.072265625 766.9046630859375 1430.869262695312 757.8373413085938 1421.3125 750.907958984375 C 1414.572875976562 746.0197143554688 1407.849365234375 743.130126953125 1401.792236328125 741.4657592773438 C 1399.922241210938 738.0925903320312 1396.327392578125 735.80615234375 1392.196655273438 735.80615234375 C 1388.966918945312 735.80615234375 1386.0712890625 737.2105712890625 1384.064697265625 739.4324951171875 C 1382.527099609375 739.5028686523438 1381.272216796875 739.6303100585938 1380.331665039062 739.7529907226562 C 1380.319702148438 739.6947021484375 1380.310791015625 739.6372680664062 1380.292236328125 739.5799560546875 C 1374.794677734375 723.585205078125 1362.626098632812 722.2313842773438 1362.11181640625 722.1810302734375 C 1361.30615234375 722.096435546875 1360.578857421875 722.6951293945312 1360.495849609375 723.509033203125 C 1360.413940429688 724.3209838867188 1361.008178710938 725.0479125976562 1361.820190429688 725.1328735351562 C 1362.25927734375 725.1793823242188 1372.634887695312 726.4293212890625 1377.485595703125 740.5441284179688 C 1377.645751953125 741.0099487304688 1378.0146484375 741.3421630859375 1378.451538085938 741.4776000976562 C 1378.779052734375 752.9312744140625 1384.824340820312 763.491943359375 1388.611938476562 769.8050537109375 C 1392.5556640625 776.3773803710938 1404.715576171875 789.6881713867188 1436.101684570312 803.4915161132812 C 1448.757202148438 809.05712890625 1459.759155273438 811.0159912109375 1469.112548828125 811.0164184570312 M 1469.115600585938 816.016357421875 L 1469.115600585938 811.016357421875 L 1469.114501953125 816.016357421875 C 1463.787109375 816.0161743164062 1458.296264648438 815.4147338867188 1452.792236328125 814.228759765625 C 1446.683227539062 812.912353515625 1440.390380859375 810.8397827148438 1434.0888671875 808.0684814453125 C 1419.860473632812 801.8109741210938 1408.045288085938 795.0132446289062 1398.971557617188 787.8640747070312 C 1390.577758789062 781.2507934570312 1386.37353515625 775.792236328125 1384.324584960938 772.377685546875 C 1382.052490234375 768.590576171875 1379.667724609375 764.40869140625 1377.618896484375 759.4923706054688 C 1376.42236328125 756.62109375 1375.471557617188 753.7826538085938 1374.792724609375 751.0558471679688 C 1374.178344726562 748.5875854492188 1373.770141601562 746.1461791992188 1373.573852539062 743.7713623046875 C 1373.2314453125 743.2826538085938 1372.954956054688 742.74462890625 1372.75732421875 742.1699829101562 C 1371.862060546875 739.5648193359375 1370.689331054688 737.3106689453125 1369.271606445312 735.46923828125 C 1368.178100585938 734.0490112304688 1366.931396484375 732.8638305664062 1365.566162109375 731.9465942382812 C 1363.292846679688 730.4193725585938 1361.392333984375 730.1205444335938 1361.264282226562 730.1019287109375 C 1357.73876953125 729.7135620117188 1355.164794921875 726.5386352539062 1355.521118164062 723.0071411132812 L 1355.521728515625 723.0008544921875 C 1355.68505859375 721.4024658203125 1356.430908203125 719.9281005859375 1357.621826171875 718.849365234375 C 1358.815185546875 717.7684326171875 1360.356079101562 717.1731567382812 1361.960571289062 717.1731567382812 C 1362.177124023438 717.1731567382812 1362.396118164062 717.1842651367188 1362.61181640625 717.2061157226562 C 1363.395385742188 717.2842407226562 1367.363037109375 717.806396484375 1371.961547851562 720.6478271484375 C 1374.631713867188 722.2977905273438 1377.031005859375 724.4271850585938 1379.092651367188 726.9769287109375 C 1380.674926757812 728.9337768554688 1382.057861328125 731.1408081054688 1383.22705078125 733.571044921875 C 1383.973999023438 733.06201171875 1384.765014648438 732.6165161132812 1385.596801757812 732.237060546875 C 1387.678100585938 731.28759765625 1389.898681640625 730.80615234375 1392.196655273438 730.80615234375 C 1397.250854492188 730.80615234375 1401.965209960938 733.2025146484375 1404.95751953125 737.1800537109375 C 1411.803833007812 739.2841186523438 1418.285278320312 742.53564453125 1424.248168945312 746.8604736328125 C 1430.54052734375 751.4229736328125 1436.552490234375 756.7655029296875 1442.917358398438 762.4216918945312 C 1446.157104492188 765.3007202148438 1449.49853515625 768.27001953125 1452.955200195312 771.2000122070312 C 1457.080078125 772.4115600585938 1460.58349609375 775.2218017578125 1462.672607421875 778.995361328125 C 1464.030883789062 780.0157470703125 1465.391479492188 781.0042724609375 1466.740356445312 781.9509887695312 C 1467.169677734375 781.9134521484375 1467.597534179688 781.89453125 1468.022094726562 781.89453125 C 1469.783447265625 781.89453125 1471.512451171875 782.1919555664062 1473.161010742188 782.778564453125 C 1474.753540039062 783.34521484375 1476.23388671875 784.1680297851562 1477.560913085938 785.2240600585938 C 1479.563720703125 786.81787109375 1481.140380859375 788.903076171875 1482.138793945312 791.2425537109375 C 1487.032958984375 793.7127075195312 1491.92236328125 795.7353515625 1497.029174804688 797.405029296875 C 1498.899291992188 798.0153198242188 1500.355834960938 799.4954223632812 1500.922729492188 801.363525390625 C 1501.20361328125 802.2886352539062 1501.2548828125 803.2529907226562 1501.091430664062 804.17822265625 C 1501.115966796875 805.0081176757812 1500.97998046875 805.8421630859375 1500.681274414062 806.6263427734375 C 1500.067138671875 808.2387084960938 1498.844970703125 809.5009155273438 1497.240112304688 810.180419921875 C 1487.956787109375 814.1076049804688 1478.757690429688 816.016357421875 1469.115600585938 816.016357421875 Z" stroke="none" fill="#000"/>
    </g>
    <ellipse id="Ellipse_430" data-name="Ellipse 430" cx="9.641" cy="9.641" rx="9.641" ry="9.641" transform="translate(1453.675 833.623)" fill="#c5d771" stroke="#000" stroke-miterlimit="10" stroke-width="3"/>
    <ellipse id="Ellipse_431" data-name="Ellipse 431" cx="6.571" cy="6.571" rx="6.571" ry="6.571" transform="translate(1472.468 850.774)" fill="#c5d771" stroke="#000" stroke-miterlimit="10" stroke-width="3"/>
    <path id="Path_3185" data-name="Path 3185" d="M1.941,9.382a.827.827,0,0,1-.712-.362C.148,7.36-1.125,3.393,1.793.261A.859.859,0,0,1,2.936.18a.706.706,0,0,1,.087,1.053c-2.878,3.089-.506,6.861-.4,7.021a.715.715,0,0,1-.282,1.023A.862.862,0,0,1,1.941,9.382Z" transform="matrix(0.574, 0.819, -0.819, 0.574, 1391.578, 820.616)" fill="#fff"/>
    <path id="Path_3186" data-name="Path 3186" d="M2.944,11.078a1.393,1.393,0,0,1-1.081-.427C.224,8.69-1.706,4.006,2.721.308a1.586,1.586,0,0,1,1.734-.1.723.723,0,0,1,.132,1.243c-4.366,3.647-.768,8.1-.613,8.29.346.418.155.959-.428,1.208A1.609,1.609,0,0,1,2.944,11.078Z" transform="matrix(0.574, 0.819, -0.819, 0.574, 1406.954, 834.675)" fill="#fff"/>
    <path id="Path_3187" data-name="Path 3187" d="M2.906,11.268a1.353,1.353,0,0,1-1.067-.435C.221,8.839-1.684,4.075,2.686.313A1.527,1.527,0,0,1,4.4.216.747.747,0,0,1,4.528,1.48c-4.31,3.71-.758,8.241-.6,8.432A.781.781,0,0,1,3.5,11.141,1.547,1.547,0,0,1,2.906,11.268Z" transform="translate(1424.685 849.267) rotate(49)" fill="#fff"/>
    <path id="Path_3188" data-name="Path 3188" d="M2.657,10.646a1.218,1.218,0,0,1-.975-.411C.2,8.351-1.539,3.85,2.455.3A1.359,1.359,0,0,1,4.019.2.717.717,0,0,1,4.138,1.4C.2,4.9,3.445,9.185,3.586,9.365A.747.747,0,0,1,3.2,10.526,1.375,1.375,0,0,1,2.657,10.646Z" transform="translate(1445.832 858.76) rotate(49)" fill="#fff"/>
    <path id="Path_3189" data-name="Path 3189" d="M1.941,9.382a.827.827,0,0,1-.712-.362C.148,7.36-1.125,3.393,1.793.261A.859.859,0,0,1,2.936.18a.706.706,0,0,1,.087,1.053c-2.878,3.089-.506,6.861-.4,7.021a.715.715,0,0,1-.282,1.023A.862.862,0,0,1,1.941,9.382Z" transform="translate(1467.153 869.813) rotate(49)" fill="#fff"/>
    <path id="Path_3190" data-name="Path 3190" d="M1.941,9.382a.827.827,0,0,1-.712-.362C.148,7.36-1.125,3.393,1.793.261A.859.859,0,0,1,2.936.18a.706.706,0,0,1,.087,1.053c-2.878,3.089-.506,6.861-.4,7.021a.715.715,0,0,1-.282,1.023A.862.862,0,0,1,1.941,9.382Z" transform="translate(1462.871 834.68) rotate(49)" fill="#fff"/>
  </g>
</svg>
