<svg xmlns="http://www.w3.org/2000/svg" width="114.339" height="141.674" viewBox="0 0 114.339 141.674">
  <g id="Group_1540" data-name="Group 1540" transform="translate(-991.762 -762.142)">
    <g id="Group_1054" data-name="Group 1054" transform="translate(-2.14 75.594)">
      <path id="Path_2757" data-name="Path 2757" d="M1055.7,823.967l6.663-2.423a4.815,4.815,0,0,0,2.824-6.317l-6.74-16.824-17.252-4.7,9.071,27.621A4.206,4.206,0,0,0,1055.7,823.967Z" fill="#fbfbfb"/>
      <path id="Path_2758" data-name="Path 2758" d="M1049.041,766.258l-1.054-47.172a1.708,1.708,0,0,0-1.921-1.656l-8.023,1.014a2.642,2.642,0,0,0-2.29,2.288l-4.282,33.573Z" fill="#62a537"/>
      <path id="Path_2759" data-name="Path 2759" d="M1005.58,714.855l2.441-1.277a2.255,2.255,0,0,1,2.729.495l22.624,25.309-1.9,14.923-13.463-6.705-13.39-29.974A2.141,2.141,0,0,1,1005.58,714.855Z" fill="#4d9e1d"/>
      <path id="Path_2760" data-name="Path 2760" d="M1022.954,727.927l2.825-12.357a2.132,2.132,0,0,1,2.3-1.644l3.3.351a1.687,1.687,0,0,1,1.506,1.58l1.141,19.55-.656,3.975Z" fill="#157b23"/>
      <path id="Path_2761" data-name="Path 2761" d="M1058.444,798.4l-17.252-4.7L1033.551,775a29.607,29.607,0,0,0-11.238-13.606l-23.595-15.386a1.8,1.8,0,0,1-.42-2.636l1.871-2.328a2.651,2.651,0,0,1,3.247-.712l41.032,20.435a8.935,8.935,0,0,1,4.593,5.49Z" fill="#82cc58"/>
    </g>
    <g id="Path_2894" data-name="Path 2894" transform="translate(-1.895 75.136)" fill="none" stroke-linecap="round" stroke-linejoin="round">
      <path d="M1064.94,815.686l-6.74-16.824-9.4-32.146-1.054-47.172a1.706,1.706,0,0,0-1.92-1.655L1037.8,718.9a2.643,2.643,0,0,0-2.289,2.288l-1.77,13.875-1.095-18.75a1.688,1.688,0,0,0-1.506-1.58l-3.3-.351a2.13,2.13,0,0,0-2.3,1.644l-2.789,12.2-12.24-13.694a2.257,2.257,0,0,0-2.729-.495l-2.441,1.277a2.143,2.143,0,0,0-.963,2.772l13.39,29.973-14.592-7.267a2.651,2.651,0,0,0-3.246.712l-1.872,2.328a1.8,1.8,0,0,0,.42,2.637l23.595,15.385a29.611,29.611,0,0,1,11.238,13.606l7.641,18.705,9.072,27.621a4.207,4.207,0,0,0,5.434,2.641l6.663-2.424A4.816,4.816,0,0,0,1064.94,815.686Z" stroke="none"/>
      <path d="M 1054.015747070312 824.6803588867188 C 1054.492797851562 824.6803588867188 1054.977905273438 824.5986328125 1055.453002929688 824.426025390625 L 1062.115966796875 822.0020141601562 C 1064.671997070312 821.072021484375 1065.951049804688 818.2109985351562 1064.93994140625 815.6859741210938 L 1058.199951171875 798.8619995117188 L 1048.796020507812 766.7160034179688 L 1047.741943359375 719.5440063476562 C 1047.719848632812 718.5321044921875 1046.825439453125 717.7622680664062 1045.822021484375 717.8889770507812 L 1037.797973632812 718.9019775390625 C 1036.60302734375 719.0540161132812 1035.661010742188 719.9940185546875 1035.509033203125 721.1900024414062 L 1033.739013671875 735.0650024414062 L 1032.64404296875 716.3150024414062 C 1032.595947265625 715.4910278320312 1031.958984375 714.822998046875 1031.137939453125 714.7349853515625 L 1027.837036132812 714.3839721679688 C 1026.76416015625 714.270263671875 1025.775024414062 714.9760131835938 1025.535034179688 716.0280151367188 L 1022.745971679688 728.2249755859375 L 1010.505981445312 714.531005859375 C 1009.817016601562 713.760986328125 1008.691955566406 713.5560302734375 1007.776977539062 714.0360107421875 L 1005.335998535156 715.31298828125 C 1004.3330078125 715.8380126953125 1003.911987304688 717.052001953125 1004.372985839844 718.0850219726562 L 1017.763000488281 748.0579833984375 L 1003.171020507812 740.791015625 C 1002.055969238281 740.2360229492188 1000.705017089844 740.5330200195312 999.9249877929688 741.5029907226562 L 998.052978515625 743.8309936523438 C 997.385986328125 744.6610107421875 997.5809936523438 745.885986328125 998.4730224609375 746.468017578125 L 1022.067993164062 761.85302734375 C 1027.109985351562 765.1409912109375 1031.030029296875 769.8870239257812 1033.306030273438 775.458984375 L 1040.947021484375 794.1640014648438 L 1050.01904296875 821.7849731445312 C 1050.602294921875 823.5616455078125 1052.251586914062 824.6802368164062 1054.015747070312 824.6803588867188 M 1054.015991210938 828.6803588867188 C 1054.015869140625 828.6803588867188 1054.015747070312 828.6803588867188 1054.015625 828.6803588867188 C 1050.4609375 828.6801147460938 1047.327514648438 826.4104614257812 1046.218627929688 823.0326538085938 L 1037.190795898438 795.5462036132812 L 1029.60302734375 776.9716186523438 C 1028.623413085938 774.5731811523438 1027.2900390625 772.3442993164062 1025.640258789062 770.3468017578125 C 1023.990356445312 768.3493041992188 1022.053344726562 766.6188354492188 1019.883056640625 765.2035522460938 L 996.2882690429688 749.8186645507812 C 994.91796875 748.924560546875 993.9851684570312 747.4860229492188 993.7280883789062 745.8712768554688 C 993.4710693359375 744.2566528320312 993.9109497070312 742.5997314453125 994.9349975585938 741.3253784179688 L 996.8078002929688 738.9963989257812 C 998.0768432617188 737.4183349609375 999.96630859375 736.5133666992188 1001.991821289062 736.5133666992188 C 1003.013549804688 736.5133666992188 1004.037658691406 736.7542724609375 1004.953369140625 737.2100830078125 L 1009.560913085938 739.5046997070312 L 1000.720886230469 719.716552734375 C 999.4014892578125 716.7600708007812 1000.614135742188 713.269775390625 1003.48095703125 711.7691650390625 L 1005.922790527344 710.49169921875 C 1006.811157226562 710.0256958007812 1007.815063476562 709.7783203125 1008.822143554688 709.7783203125 C 1010.600830078125 709.7783203125 1012.301086425781 710.5385131835938 1013.486938476562 711.8638305664062 L 1020.571533203125 719.7899780273438 L 1021.635681152344 715.1363525390625 C 1021.944274902344 713.78369140625 1022.713989257812 712.562255859375 1023.802490234375 711.6991577148438 C 1024.881958007812 710.84326171875 1026.234130859375 710.3719482421875 1027.610229492188 710.3719482421875 C 1027.825805664062 710.3719482421875 1028.044067382812 710.3834838867188 1028.258911132812 710.4063110351562 L 1031.560913085938 710.7573852539062 C 1032.901245117188 710.9010620117188 1034.1484375 711.5159301757812 1035.076049804688 712.489013671875 C 1035.771362304688 713.2183227539062 1036.2568359375 714.1170043945312 1036.48974609375 715.0865478515625 C 1036.751586914062 715.0199584960938 1037.019653320312 714.96875 1037.293090820312 714.9339599609375 L 1045.321044921875 713.9204711914062 C 1045.557983398438 713.8905029296875 1045.7998046875 713.875244140625 1046.038940429688 713.875244140625 C 1047.528564453125 713.875244140625 1048.938842773438 714.447509765625 1050.010009765625 715.4866333007812 C 1051.093505859375 716.53759765625 1051.708251953125 717.9476928710938 1051.740966796875 719.4571533203125 L 1052.783203125 766.0992431640625 L 1061.98486328125 797.5536499023438 L 1068.653076171875 814.1984252929688 C 1069.548583984375 816.4346923828125 1069.500122070312 818.8766479492188 1068.51708984375 821.0751342773438 C 1067.534057617188 823.2734985351562 1065.746459960938 824.9376220703125 1063.483642578125 825.7609252929688 L 1056.820556640625 828.1849975585938 C 1055.915405273438 828.5138549804688 1054.972290039062 828.6803588867188 1054.015991210938 828.6803588867188 Z" stroke="none" fill="#000"/>
    </g>
    <g id="Group_1055" data-name="Group 1055" transform="translate(-2.14 75.594)">
      <path id="Path_2763" data-name="Path 2763" d="M1089.735,702.118l5.877-10.494a2.1,2.1,0,0,1,1.821-1.073l.765,0a1.428,1.428,0,0,1,1.406,1.711l-4.952,24.53-7.353,4.045Z" fill="#569e2b"/>
      <path id="Path_2764" data-name="Path 2764" d="M1057.976,797.819l4.255,1.955a3.158,3.158,0,0,0,4.209-1.6l13.034-29.643-10.006-13.772-13.353,38.706A3.526,3.526,0,0,0,1057.976,797.819Z" fill="#fbfbfb"/>
      <path id="Path_2765" data-name="Path 2765" d="M1075.752,736.761l-6.284,18,10.006,13.772,8.564-22.123a13.888,13.888,0,0,0,.132-9.67l-10.534-29.593a1.242,1.242,0,0,0-1.552-.766l-3.317,1.069a2.155,2.155,0,0,0-1.465,2.4Z" fill="#9dd77f"/>
      <path id="Path_2766" data-name="Path 2766" d="M1084.115,725.347l10.959-18.611a2.135,2.135,0,0,1,2.168-1.028l5.565.863a1.688,1.688,0,0,1,1.293,2.333l-16.138,37.7Z" fill="#82cc58"/>
      <path id="Path_2767" data-name="Path 2767" d="M1081.47,717.918l3.172-23.2a1.622,1.622,0,0,1,1.744-1.4l1.85.158a1.338,1.338,0,0,1,1.224,1.284l.756,20.217-6.1,10.361Z" fill="#62a537"/>
    </g>
    <g id="Path_2895" data-name="Path 2895" transform="translate(-2.14 75.815)" fill="none" stroke-linecap="round" stroke-linejoin="round">
      <path d="M1102.807,706.35l-5.565-.863a2.184,2.184,0,0,0-.353,0l2.715-13.448a1.428,1.428,0,0,0-1.406-1.711l-.765,0a2.1,2.1,0,0,0-1.821,1.073l-5.877,10.494h0l-.275-7.349a1.338,1.338,0,0,0-1.224-1.284l-1.85-.158a1.621,1.621,0,0,0-1.744,1.4l-3.171,23.194-3.835-10.771a1.242,1.242,0,0,0-1.552-.766l-3.317,1.069a2.155,2.155,0,0,0-1.465,2.4l4.45,26.909-6.284,18-13.353,38.706a3.526,3.526,0,0,0,1.861,4.353l4.255,1.954a3.157,3.157,0,0,0,4.209-1.6l13.034-29.643,8.488-21.927h0l16.138-37.7A1.688,1.688,0,0,0,1102.807,706.35Z" stroke="none"/>
      <path d="M 1098.20458984375 690.3270263671875 C 1098.202392578125 690.3270263671875 1098.2001953125 690.3270263671875 1098.197998046875 690.3270263671875 L 1097.432983398438 690.3300170898438 C 1096.677001953125 690.3330078125 1095.982055664062 690.7429809570312 1095.612060546875 691.4030151367188 L 1089.734985351562 701.89697265625 L 1089.4599609375 694.5479736328125 C 1089.43505859375 693.8720092773438 1088.910034179688 693.322021484375 1088.235961914062 693.2639770507812 L 1086.385986328125 693.1060180664062 C 1085.526489257812 693.0327758789062 1084.759033203125 693.6460571289062 1084.641967773438 694.5020141601562 L 1081.470947265625 717.6959838867188 L 1077.635986328125 706.9249877929688 C 1077.411010742188 706.2919311523438 1076.723266601562 705.9529418945312 1076.083984375 706.1589965820312 L 1072.766967773438 707.22802734375 C 1071.7509765625 707.5549926757812 1071.128051757812 708.5770263671875 1071.302001953125 709.6309814453125 L 1075.751953125 736.5399780273438 L 1069.468017578125 754.5390014648438 L 1056.114990234375 793.2449951171875 C 1055.524047851562 794.9580078125 1056.328979492188 796.8410034179688 1057.975952148438 797.5980224609375 L 1062.23095703125 799.552001953125 C 1063.834228515625 800.2891235351562 1065.730102539062 799.5689697265625 1066.43994140625 797.9539794921875 L 1079.473999023438 768.3109741210938 L 1087.962036132812 746.3839721679688 L 1104.099975585938 708.6829833984375 C 1104.534057617188 707.6690063476562 1103.89599609375 706.5189819335938 1102.807006835938 706.3499755859375 L 1097.241943359375 705.4869995117188 C 1097.123168945312 705.4690551757812 1097.007080078125 705.4849853515625 1096.889038085938 705.4860229492188 L 1099.60400390625 692.0380249023438 C 1099.783569335938 691.1531372070312 1099.106323242188 690.3270263671875 1098.20458984375 690.3270263671875 M 1098.20458984375 686.3270263671875 C 1099.840209960938 686.3270263671875 1101.372192382812 687.0534057617188 1102.407470703125 688.3199462890625 C 1103.4423828125 689.5860595703125 1103.849365234375 691.2312622070312 1103.524047851562 692.833740234375 L 1101.648803710938 702.12255859375 L 1103.419921875 702.397216796875 C 1105.169555664062 702.6687622070312 1106.664916992188 703.7122802734375 1107.523071289062 705.2603759765625 C 1108.38134765625 706.8084716796875 1108.473876953125 708.6296997070312 1107.777221679688 710.2572021484375 L 1091.666870117188 747.8936157226562 L 1083.204223632812 769.7550048828125 C 1083.1826171875 769.8108520507812 1083.159790039062 769.8662109375 1083.135620117188 769.9210205078125 L 1070.1015625 799.5640258789062 C 1068.959350585938 802.1622924804688 1066.38671875 803.8414306640625 1063.547607421875 803.8414306640625 C 1062.5107421875 803.8414306640625 1061.505493164062 803.6209716796875 1060.56005859375 803.186279296875 L 1056.306640625 801.2330322265625 C 1054.605224609375 800.4509887695312 1053.263793945312 799.072998046875 1052.528198242188 797.3523559570312 C 1051.792602539062 795.6314086914062 1051.723388671875 793.70947265625 1052.333618164062 791.9405517578125 L 1065.686767578125 753.2344970703125 C 1065.688354492188 753.2298583984375 1065.68994140625 753.2251586914062 1065.691528320312 753.2205200195312 L 1071.639038085938 736.1853637695312 L 1067.355590820312 710.2835693359375 C 1067.115356445312 708.82763671875 1067.405639648438 707.3333740234375 1068.1728515625 706.0748291015625 C 1068.940795898438 704.8150024414062 1070.13720703125 703.872314453125 1071.541625976562 703.4203491210938 L 1074.85693359375 702.351806640625 C 1075.379150390625 702.1837768554688 1075.919921875 702.0987548828125 1076.4658203125 702.0987548828125 C 1077.552001953125 702.0987548828125 1078.583129882812 702.4362182617188 1079.439331054688 703.0265502929688 L 1080.678833007812 693.960205078125 C 1080.86376953125 692.6080322265625 1081.532958984375 691.3709106445312 1082.563110351562 690.4766845703125 C 1083.585815429688 689.5889892578125 1084.894165039062 689.10009765625 1086.247192382812 689.10009765625 C 1086.405395507812 689.10009765625 1086.565673828125 689.1068725585938 1086.723754882812 689.1203002929688 L 1088.576293945312 689.2785034179688 C 1089.700073242188 689.375244140625 1090.721069335938 689.8174438476562 1091.535400390625 690.4959716796875 L 1092.1220703125 689.448486328125 C 1093.19580078125 687.5331420898438 1095.224365234375 686.3387451171875 1097.417114257812 686.330078125 L 1098.20458984375 686.3270263671875 Z" stroke="none" fill="#000"/>
    </g>
  </g>
</svg>
