<svg xmlns="http://www.w3.org/2000/svg" width="145.289" height="137.815" viewBox="0 0 145.289 137.815">
  <g id="Group_1539" data-name="Group 1539" transform="translate(-793.962 -770.739)">
    <g id="Group_1227" data-name="Group 1227" transform="translate(-11.855 77.512)">
      <path id="Path_3675" data-name="Path 3675" d="M924.064,798.9s7.43-3.253,7.388-3.9l-.351-5.344c-.042-.631-27.447-52.692-45.087-73.5a6.424,6.424,0,0,0-.251-2.488,7.147,7.147,0,0,0-5.627-5.012c0-.075.012-.147.008-.222a11.783,11.783,0,0,0-20.821-6.232A7.089,7.089,0,0,0,848,701.743a8.436,8.436,0,1,0,4.788,13.69,7.113,7.113,0,0,0,6.571,3.476c.045,0,.084-.017.128-.021a107.253,107.253,0,0,1,14.973,12.04,7.074,7.074,0,0,0,1.893-.418,7.119,7.119,0,0,0,6,11.609,6.72,6.72,0,0,0,.675-.113l18.486,28.129Zm-44.536-70.617a7.3,7.3,0,0,0,.534-.794q.007.317.016.631C879.893,728.178,879.707,728.225,879.528,728.287Z" transform="translate(1.805 0.008)" fill="#66aa17"/>
      <path id="Path_3676" data-name="Path 3676" d="M888.725,792.822l-29.988-15.286c.012-.228.048-.451.038-.684a7.127,7.127,0,0,0-4.856-6.434,10.634,10.634,0,0,0-12.056-6.632,8.853,8.853,0,0,1-8.689-7.11c0-.044.01-.085.008-.129A7.114,7.114,0,0,0,829,750.4a8.448,8.448,0,1,0-14.133-3.256,7.09,7.09,0,0,0,1.7,11.2,7.091,7.091,0,0,0,1.073,12.419,6.845,6.845,0,0,0,7.407,7.591c.076,0,.145-.027.221-.032a7.1,7.1,0,0,0,7.154,5.143,7.061,7.061,0,0,0,.946-.124c22.618,15.249,77.373,36.771,78.005,36.743l5.35-.238c.648-.029,3.067-7.771,3.067-7.771Z" transform="translate(0.135 2.526)" fill="#66aa17"/>
      <path id="Path_3677" data-name="Path 3677" d="M840.319,755.5s35.008,54.432,83.067,67.707c7.767-6.927,14.723-12.279,14.723-12.279s-7.721-37.251-77.017-59.322S840.319,755.5,840.319,755.5Z" transform="translate(0.865 2.964)" fill="#efefbf"/>
      <path id="Path_3678" data-name="Path 3678" d="M925.254,770.276c-.913-4.443-2.982-6.573-6.355-8.09-.028-.012-.06,0-.09,0a7.947,7.947,0,0,0-7.862-6.82A49.783,49.783,0,0,0,896.5,741.575c-.031,0-.06,0-.09.005a7.948,7.948,0,0,0-7.863-6.821,7.951,7.951,0,0,0-7.952-7.952,8.035,8.035,0,0,0-1.539.151,7.923,7.923,0,0,0-10.632-6.3,7.936,7.936,0,0,0-11.337-6.376,7.938,7.938,0,0,0-11.7-3.094,7.949,7.949,0,0,0-13.851-1.4,7.941,7.941,0,0,0-10.972,3.437,7.946,7.946,0,0,0-6.166,14.383,7.94,7.94,0,0,0,.435,10.565,7.947,7.947,0,0,0,6.526,12.49,7.952,7.952,0,0,0,7.952,7.952,7.949,7.949,0,0,0,11.124,7.29,7.943,7.943,0,0,0,10.988,6.189,7.953,7.953,0,0,0,15.226,2.3,7.948,7.948,0,0,0,13.958,3.341,7.935,7.935,0,0,0,10.89,7.088,7.926,7.926,0,0,0,10.377,2.955,7.939,7.939,0,0,0,15.147-4.293,7.95,7.95,0,0,0,6.518-6.9C925.545,775.137,925.789,772.875,925.254,770.276Z" transform="translate(0 0.542)" fill="#afd634"/>
      <path id="Path_3679" data-name="Path 3679" d="M849.131,729.752s-5.518-.081-2.11,2.515,66.375,45.6,79.52,68.81c3.408,7.79,5.193,13.632,7.627,12.821s10.062-10.873,9.575-13.47S931.247,762.453,849.131,729.752Z" transform="translate(2.338 2.101)" fill="#f7fae5"/>
      <g id="Path_3680" data-name="Path 3680" transform="translate(0 0.528)" fill="none" stroke-miterlimit="10">
        <path d="M925.291,773.838a8.259,8.259,0,0,0-.037-3.774c-.913-4.443-2.982-6.573-6.355-8.089-.028-.013-.06,0-.09,0a7.946,7.946,0,0,0-7.862-6.82A49.746,49.746,0,0,0,896.5,741.364c-.031,0-.06,0-.09.005a7.948,7.948,0,0,0-7.863-6.821,7.942,7.942,0,0,0-9.491-7.8,7.926,7.926,0,0,0-10.632-6.3,7.938,7.938,0,0,0-11.337-6.376,7.936,7.936,0,0,0-11.7-3.093,7.949,7.949,0,0,0-13.851-1.4,7.94,7.94,0,0,0-10.972,3.438,7.946,7.946,0,0,0-6.166,14.382,7.938,7.938,0,0,0,.435,10.564,7.947,7.947,0,0,0,6.526,12.49,7.952,7.952,0,0,0,7.952,7.953,7.948,7.948,0,0,0,11.124,7.289,7.943,7.943,0,0,0,10.988,6.19,7.953,7.953,0,0,0,15.226,2.3,7.948,7.948,0,0,0,13.958,3.341,7.935,7.935,0,0,0,10.89,7.088,7.924,7.924,0,0,0,10.377,2.953,7.946,7.946,0,0,0,14.675-.282c5.428,5.493,9.8,10.685,12.323,15.143,3.408,7.79,5.193,13.633,7.628,12.821s10.062-10.873,9.575-13.469C945.816,800.353,942.092,789.1,925.291,773.838Z" stroke="none"/>
        <path d="M 936.0587768554688 815.31982421875 C 936.2061157226562 815.31982421875 936.3553466796875 815.2951049804688 936.5071411132812 815.2444458007812 C 938.9412231445312 814.4328002929688 946.5687255859375 804.3711547851562 946.0823364257812 801.7750244140625 C 945.815673828125 800.3531494140625 942.0919799804688 789.09912109375 925.2914428710938 773.8377075195312 C 925.5911865234375 772.720947265625 925.537841796875 771.443115234375 925.2540893554688 770.06396484375 C 924.341064453125 765.6214599609375 922.2718505859375 763.4913330078125 918.8991088867188 761.974609375 C 918.8714599609375 761.961669921875 918.8394165039062 761.9788208007812 918.8095092773438 761.9788818359375 C 918.2590942382812 758.1240234375 914.95361328125 755.1588134765625 910.9473876953125 755.1588134765625 C 910.9473876953125 751.173828125 908.0130004882812 747.8822021484375 904.1891479492188 747.30517578125 C 903.2974853515625 743.8887329101562 900.199951171875 741.364013671875 896.5040283203125 741.364013671875 C 896.4730834960938 741.364013671875 896.4442749023438 741.3682861328125 896.4144287109375 741.369384765625 C 895.8629760742188 737.5145263671875 892.55859375 734.5482177734375 888.5512084960938 734.5482177734375 C 888.5512084960938 730.1568603515625 884.9918823242188 726.5953979492188 880.5994873046875 726.5953979492188 C 880.0725708007812 726.5953979492188 879.5584106445312 726.6497802734375 879.060302734375 726.7479248046875 C 878.5036010742188 722.9005737304688 875.2012329101562 719.9428100585938 871.2002563476562 719.9428100585938 C 870.2232666015625 719.9428100585938 869.2931518554688 720.1273193359375 868.4281005859375 720.4483642578125 C 868.0313110351562 716.4292602539062 864.6405029296875 713.2891235351562 860.516845703125 713.2891235351562 C 859.2881469726562 713.2891235351562 858.1297607421875 713.5750122070312 857.0908203125 714.0720825195312 C 855.8076782226562 711.4033203125 853.0877685546875 709.555908203125 849.9273071289062 709.555908203125 C 848.2420654296875 709.555908203125 846.6815795898438 710.0839233398438 845.3951416015625 710.9788208007812 C 844.1813354492188 708.1383056640625 841.3643188476562 706.1480102539062 838.0812377929688 706.1480102539062 C 835.369873046875 706.1480102539062 832.9795532226562 707.5068969726562 831.5438842773438 709.5772094726562 C 830.402587890625 708.9447631835938 829.0916748046875 708.58203125 827.6944580078125 708.58203125 C 824.5680541992188 708.58203125 821.8716430664062 710.3909912109375 820.5714111328125 713.0150146484375 C 819.9911499023438 712.880615234375 819.3895874023438 712.8016357421875 818.7687377929688 712.8016357421875 C 814.3775024414062 712.8016357421875 810.8170776367188 716.362060546875 810.8170776367188 720.75341796875 C 810.8170776367188 723.5330810546875 812.2453002929688 725.9756469726562 814.4052124023438 727.3974609375 C 813.2788696289062 728.7702026367188 812.6015014648438 730.52490234375 812.6015014648438 732.4384765625 C 812.6015014648438 734.5855712890625 813.4569702148438 736.5311279296875 814.8403930664062 737.9614868164062 C 813.9432983398438 739.2489013671875 813.4132080078125 740.8114624023438 813.4132080078125 742.4999389648438 C 813.4132080078125 746.8912963867188 816.9736328125 750.4517822265625 821.3660278320312 750.4517822265625 C 821.3660278320312 754.8441772460938 824.9254150390625 758.404541015625 829.3178100585938 758.404541015625 C 829.3178100585938 762.7958984375 832.8782348632812 766.3563232421875 837.26953125 766.3563232421875 C 838.3970336914062 766.3563232421875 839.468994140625 766.1173706054688 840.4417724609375 765.6939697265625 C 840.9889526367188 769.5519409179688 844.2954711914062 772.5236206054688 848.3049926757812 772.5236206054688 C 849.414306640625 772.5236206054688 850.4713134765625 772.2942504882812 851.4302368164062 771.8836059570312 C 851.8419189453125 775.889892578125 855.2252807617188 779.0140991210938 859.3403930664062 779.0140991210938 C 862.6256103515625 779.0140991210938 865.4436645507812 777.0216064453125 866.6564331054688 774.1800537109375 C 867.4190673828125 777.7757568359375 870.609375 780.475341796875 874.4321899414062 780.475341796875 C 876.9302368164062 780.475341796875 879.1563110351562 779.3212890625 880.6144409179688 777.520751953125 C 880.76904296875 781.7766723632812 884.2579956054688 785.1813354492188 888.5512084960938 785.1813354492188 C 889.5964965820312 785.1813354492188 890.5906372070312 784.9744262695312 891.5046997070312 784.6085815429688 C 892.9010009765625 786.8954467773438 895.4129028320312 788.4271240234375 898.2885131835938 788.4271240234375 C 899.5834350585938 788.4271240234375 900.801513671875 788.1113891601562 901.8820190429688 787.5620727539062 C 903.1118774414062 790.363037109375 905.9064331054688 792.3214111328125 909.161865234375 792.3214111328125 C 912.52490234375 792.3214111328125 915.3941650390625 790.2308349609375 916.5567626953125 787.2804565429688 C 921.98486328125 792.773681640625 926.3538208007812 797.9649658203125 928.879638671875 802.4235229492188 C 932.0748901367188 809.7272338867188 933.8441162109375 815.3196411132812 936.0587768554688 815.31982421875 M 936.0589599609375 816.31982421875 L 936.0589599609375 815.31982421875 L 936.0586547851562 816.31982421875 C 933.6290893554688 816.3196411132812 932.1680908203125 812.8214721679688 929.7476196289062 807.0259399414062 C 929.19482421875 805.7022705078125 928.623291015625 804.3338623046875 927.9843139648438 802.8718872070312 C 925.8031005859375 799.0367431640625 922.0528564453125 794.3695678710938 916.8270263671875 788.9855346679688 C 916.1773681640625 790.0658569335938 915.30517578125 790.9989624023438 914.2550659179688 791.7285766601562 C 912.7553100585938 792.7706298828125 910.9940795898438 793.3214111328125 909.161865234375 793.3214111328125 C 905.94873046875 793.3214111328125 903.0083618164062 791.5985717773438 901.4198608398438 788.85791015625 C 900.4181518554688 789.2360229492188 899.3687133789062 789.4271240234375 898.2885131835938 789.4271240234375 C 896.7271728515625 789.4271240234375 895.18994140625 789.0173950195312 893.843017578125 788.2421264648438 C 892.7757568359375 787.6278686523438 891.842041015625 786.79443359375 891.107421875 785.8057250976562 C 890.2758178710938 786.0552368164062 889.419189453125 786.1813354492188 888.5512084960938 786.1813354492188 C 886.218017578125 786.1813354492188 884.010498046875 785.2877807617188 882.3351440429688 783.6653442382812 C 881.1657104492188 782.5328369140625 880.341552734375 781.1295166015625 879.923583984375 779.5924682617188 C 878.3681030273438 780.80517578125 876.4485473632812 781.475341796875 874.4321899414062 781.475341796875 C 872.3689575195312 781.475341796875 870.3554077148438 780.7557983398438 868.7625732421875 779.4492797851562 C 867.784912109375 778.6473388671875 866.9912109375 777.6475219726562 866.4303588867188 776.5299682617188 C 864.760986328125 778.6966552734375 862.1614990234375 780.0140991210938 859.3403930664062 780.0140991210938 C 857.1102905273438 780.0140991210938 854.9737548828125 779.1892700195312 853.3242797851562 777.6915283203125 C 851.9972534179688 776.486572265625 851.0718383789062 774.92724609375 850.648681640625 773.2125244140625 C 849.8883666992188 773.4192504882812 849.10400390625 773.5236206054688 848.3049926757812 773.5236206054688 C 846.1358642578125 773.5236206054688 844.0442504882812 772.7365112304688 842.4154052734375 771.3071899414062 C 841.1102905273438 770.1619262695312 840.1716918945312 768.6689453125 839.7027587890625 767.0186767578125 C 838.9127807617188 767.2430419921875 838.0983276367188 767.3563232421875 837.26953125 767.3563232421875 C 832.6543579101562 767.3563232421875 828.84375 763.8455810546875 828.3678588867188 759.3544921875 C 824.1890258789062 758.91162109375 820.85888671875 755.5810546875 820.4160766601562 751.4017333984375 C 815.9244384765625 750.9258422851562 812.4132080078125 747.1151733398438 812.4132080078125 742.4999389648438 C 812.4132080078125 740.9312744140625 812.8193359375 739.412109375 813.5941772460938 738.0616455078125 C 812.3038940429688 736.4710083007812 811.6015014648438 734.5023803710938 811.6015014648438 732.4384765625 C 811.6015014648438 730.7245483398438 812.098876953125 729.0439453125 813.0174560546875 727.6093139648438 C 810.9967651367188 725.9166259765625 809.8170776367188 723.422119140625 809.8170776367188 720.75341796875 C 809.8170776367188 715.8173828125 813.832763671875 711.8016357421875 818.7687377929688 711.8016357421875 C 819.1871948242188 711.8016357421875 819.6143798828125 711.8339233398438 820.0454711914062 711.8978881835938 C 820.7616577148438 710.71728515625 821.7413330078125 709.7145385742188 822.9116821289062 708.9705810546875 C 824.3406982421875 708.0621948242188 825.9945678710938 707.58203125 827.6944580078125 707.58203125 C 828.917236328125 707.58203125 830.130859375 707.835205078125 831.2499389648438 708.3195190429688 C 832.9437866210938 706.3195190429688 835.4389038085938 705.1480102539062 838.0812377929688 705.1480102539062 C 841.2869262695312 705.1480102539062 844.2069702148438 706.849853515625 845.8004760742188 709.5662231445312 C 847.071044921875 708.9025268554688 848.4780883789062 708.555908203125 849.9273071289062 708.555908203125 C 851.64599609375 708.555908203125 853.3151245117188 709.0457153320312 854.75439453125 709.972412109375 C 855.8844604492188 710.7000122070312 856.8328247070312 711.6683349609375 857.5354614257812 712.8048095703125 C 858.4951171875 712.4622192382812 859.4942016601562 712.2891235351562 860.516845703125 712.2891235351562 C 862.7521362304688 712.2891235351562 864.8924560546875 713.1177978515625 866.5436401367188 714.6224365234375 C 867.8848876953125 715.8447265625 868.8133544921875 717.4282836914062 869.2257080078125 719.167724609375 C 869.8771362304688 719.0181884765625 870.5376586914062 718.9428100585938 871.2002563476562 718.9428100585938 C 873.3646850585938 718.9428100585938 875.4529418945312 719.7266235351562 877.0802612304688 721.14990234375 C 878.4379272460938 722.33740234375 879.4007568359375 723.9013671875 879.8521728515625 725.6276245117188 C 880.1024169921875 725.606201171875 880.3519287109375 725.5953979492188 880.5994873046875 725.5953979492188 C 885.2149658203125 725.5953979492188 889.0257568359375 729.106689453125 889.501220703125 733.5987548828125 C 891.3238525390625 733.793212890625 893.0490112304688 734.5439453125 894.4378662109375 735.7611694335938 C 895.8342895507812 736.9849853515625 896.8119506835938 738.6072387695312 897.2443237304688 740.39453125 C 900.7846069335938 740.6873779296875 903.8285522460938 743.0630493164062 904.971923828125 746.4356079101562 C 906.8212280273438 746.8536987304688 908.501953125 747.8549194335938 909.7567749023438 749.2977905273438 C 910.9605712890625 750.6820068359375 911.7035522460938 752.3983764648438 911.8968505859375 754.2092895507812 C 913.7193603515625 754.4036254882812 915.4445190429688 755.1541748046875 916.8334350585938 756.3711547851562 C 918.2913208007812 757.6486206054688 919.2926025390625 759.3602294921875 919.693359375 761.240478515625 C 921.4528198242188 762.080078125 922.75537109375 763.054443359375 923.7706298828125 764.2860717773438 C 924.9510498046875 765.7180786132812 925.7567138671875 767.5421752929688 926.2335815429688 769.8626708984375 C 926.5164794921875 771.2374267578125 926.5685424804688 772.4299926757812 926.3900756835938 773.4863891601562 C 930.1117553710938 776.8970947265625 933.4622192382812 780.3636474609375 936.3550415039062 783.7970581054688 C 938.8214721679688 786.7244873046875 940.9679565429688 789.64111328125 942.73486328125 792.4658813476562 C 945.693603515625 797.1959838867188 946.8612060546875 800.5029296875 947.065185546875 801.5906982421875 C 947.2769165039062 802.7208862304688 946.5709838867188 804.2608642578125 946.0215454101562 805.3209228515625 C 945.340087890625 806.6356811523438 944.3634033203125 808.173828125 943.1972045898438 809.7691040039062 C 942.5032348632812 810.7183227539062 938.9346313476562 815.4891357421875 936.823486328125 816.193115234375 C 936.5714111328125 816.2771606445312 936.3141479492188 816.31982421875 936.0589599609375 816.31982421875 Z" stroke="none" fill="#000"/>
      </g>
      <g id="Path_3681" data-name="Path 3681" transform="translate(0)" fill="none" stroke-linecap="round" stroke-linejoin="round">
        <path d="M925.291,774.465a8.274,8.274,0,0,0-.037-3.774c-.913-4.443-2.982-6.573-6.355-8.089-.028-.013-.06,0-.09,0a7.956,7.956,0,0,0-3.88-5.745c-8.672-14.834-18.938-31.18-27.111-40.82a6.423,6.423,0,0,0-.251-2.488,7.146,7.146,0,0,0-5.628-5.011c0-.076.013-.147.008-.223a7.141,7.141,0,0,0-7.593-6.657,6.955,6.955,0,0,0-.766.128,7.091,7.091,0,0,0-12.462.3,7.089,7.089,0,0,0-11.319-.462,8.4,8.4,0,0,0-9.621,5.448,7.874,7.874,0,0,0-8.644,3.132,7.939,7.939,0,0,0-10.971,3.438,7.946,7.946,0,0,0-6.167,14.382,7.938,7.938,0,0,0,.435,10.564,7.917,7.917,0,0,0-.234,8.714c0,.016,0,.031,0,.048a8.427,8.427,0,0,0,.4,2.189,7.09,7.09,0,0,0,1.7,11.2,46.523,46.523,0,0,1,1.029,13.194,7.141,7.141,0,0,0,7.45,6.817c.076,0,.145-.027.221-.032a7.112,7.112,0,0,0,7.154,5.143,7.246,7.246,0,0,0,.946-.125c8.941,6.028,22.9,13.035,36.559,19.3,34.712,20.131,47.053,20.9,51.025,20.057,1.047.332,2.1.652,3.159.944,4.791-4.272,9.267-7.941,12-10.129a1.365,1.365,0,0,0,.257-.043c2.434-.812,10.062-10.873,9.575-13.469C945.816,800.98,942.092,789.726,925.291,774.465Z" stroke="none"/>
        <path d="M 924.25146484375 826.0428466796875 C 929.0427856445312 821.7709350585938 933.5184326171875 818.1017456054688 936.2500610351562 815.9141235351562 C 936.33544921875 815.9024047851562 936.420654296875 815.9002075195312 936.5071411132812 815.8714599609375 C 938.9412231445312 815.0596923828125 946.5687255859375 804.9981689453125 946.0823364257812 802.4019775390625 C 945.815673828125 800.9801635742188 942.0919799804688 789.72607421875 925.2914428710938 774.4647216796875 C 925.5911865234375 773.347900390625 925.5368041992188 772.070068359375 925.2540893554688 770.69091796875 C 924.341064453125 766.2484130859375 922.2718505859375 764.1182861328125 918.8991088867188 762.6016235351562 C 918.8714599609375 762.588623046875 918.8394165039062 762.6058349609375 918.8095092773438 762.6058349609375 C 918.4586181640625 760.1494140625 916.9866333007812 758.0576782226562 914.9290771484375 756.8609619140625 C 906.25732421875 742.0272827148438 895.990966796875 725.6810913085938 887.8184204101562 716.040771484375 C 887.8397827148438 715.7261962890625 887.8600463867188 715.4115600585938 887.8386840820312 715.0872192382812 C 887.8035278320312 714.5560913085938 887.7118530273438 714.0430297851562 887.5678100585938 713.5523681640625 C 886.8062133789062 710.9498291015625 884.6078491210938 709.00634765625 881.9402465820312 708.541259765625 C 881.9380493164062 708.465576171875 881.9530029296875 708.3941040039062 881.94873046875 708.3184204101562 C 881.6895141601562 704.3836059570312 878.2907104492188 701.4034423828125 874.3553466796875 701.6615600585938 C 874.0908813476562 701.6786499023438 873.844482421875 701.7447509765625 873.589599609375 701.78955078125 C 872.2691040039062 699.5250854492188 869.7684326171875 698.0598754882812 866.9742431640625 698.2429809570312 C 864.3919067382812 698.41259765625 862.2427368164062 699.9474487304688 861.1280517578125 702.0860595703125 C 859.7434692382812 700.1117553710938 857.4110717773438 698.8716430664062 854.82958984375 699.040771484375 C 852.7890625 699.1752319335938 851.0173950195312 700.1640014648438 849.8088989257812 701.6242065429688 C 849.0943603515625 701.4802856445312 848.35205078125 701.4183959960938 847.5892333984375 701.4684448242188 C 844.1195068359375 701.6966552734375 841.2801513671875 703.9910278320312 840.1879272460938 707.0726318359375 C 839.5147705078125 706.8880004882812 838.8119506835938 706.7750244140625 838.0812377929688 706.7750244140625 C 835.369873046875 706.7750244140625 832.9795532226562 708.1338500976562 831.5438842773438 710.2042236328125 C 830.4036254882812 709.5716552734375 829.0916748046875 709.2090454101562 827.6944580078125 709.2090454101562 C 824.5680541992188 709.2090454101562 821.8716430664062 711.01806640625 820.572509765625 713.6420288085938 C 819.9921875 713.5065307617188 819.3895874023438 713.4286499023438 818.7687377929688 713.4286499023438 C 814.3775024414062 713.4286499023438 810.8170776367188 716.9891357421875 810.8170776367188 721.3804321289062 C 810.8170776367188 724.1600341796875 812.2453002929688 726.6026611328125 814.4052124023438 728.0244750976562 C 813.2788696289062 729.3961181640625 812.6015014648438 731.1517944335938 812.6015014648438 733.0653686523438 C 812.6015014648438 735.2125244140625 813.4569702148438 737.156982421875 814.8403930664062 738.5884399414062 C 813.9432983398438 739.8757934570312 813.4132080078125 741.4385375976562 813.4132080078125 743.1270141601562 C 813.4132080078125 744.6607666015625 813.8547973632812 746.0879516601562 814.6067504882812 747.3028564453125 C 814.6077880859375 747.3187866210938 814.6067504882812 747.333740234375 814.6067504882812 747.350830078125 C 814.6409301757812 748.1134643554688 814.7838745117188 748.8441162109375 815.0056762695312 749.53955078125 C 813.6873779296875 750.9016723632812 812.8990478515625 752.7703857421875 812.9898071289062 754.8130493164062 C 813.1049194335938 757.3985595703125 814.5928955078125 759.579833984375 816.7080688476562 760.7391967773438 C 814.703857421875 762.0820922851562 813.4153442382812 764.3871459960938 813.5294799804688 766.97265625 C 813.6542358398438 769.7704467773438 815.3854370117188 772.0935668945312 817.7811279296875 773.1591186523438 C 817.7650756835938 773.4171752929688 817.7256469726562 773.6690063476562 817.7373046875 773.9334716796875 C 817.912353515625 777.8736572265625 821.2490844726562 780.9251708984375 825.187744140625 780.7503051757812 C 825.2635498046875 780.7471313476562 825.3328857421875 780.7236938476562 825.4085693359375 780.7183227539062 C 826.163818359375 783.3177490234375 828.3364868164062 785.2899169921875 831.00732421875 785.7603759765625 C 831.509765625 785.8499145507812 832.0302734375 785.885009765625 832.5625 785.8616943359375 C 832.8867797851562 785.8466796875 833.1982421875 785.7923583984375 833.5086059570312 785.7368774414062 C 842.44921875 791.7644653320312 856.411376953125 798.772216796875 870.0675659179688 805.0418701171875 C 904.780029296875 825.1724853515625 917.1209716796875 825.9417724609375 921.0921020507812 825.0988159179688 C 922.1395874023438 825.4306640625 923.1912841796875 825.7506103515625 924.25146484375 826.0428466796875 M 924.2511596679688 831.0429077148438 C 923.8076782226562 831.0429077148438 923.361083984375 830.98388671875 922.9227905273438 830.863037109375 C 922.2257690429688 830.6709594726562 921.5016479492188 830.4595947265625 920.6984252929688 830.2135009765625 C 920.09326171875 830.2774047851562 919.455078125 830.3096313476562 918.7890014648438 830.3096313476562 C 914.4766845703125 830.3096313476562 908.7095947265625 828.96337890625 901.6478881835938 826.3082275390625 C 892.4943237304688 822.8666381835938 881.095458984375 817.2073974609375 867.7653198242188 809.4866333007812 C 852.1491088867188 802.31005859375 840.1997680664062 796.0532836914062 832.2053833007812 790.8687133789062 C 831.51171875 790.8665771484375 830.8170776367188 790.8046264648438 830.139892578125 790.6845703125 L 830.139892578125 790.6845703125 C 827.9058837890625 790.291015625 825.8309326171875 789.2760620117188 824.1395263671875 787.7494506835938 C 823.382080078125 787.0657958984375 822.7177734375 786.2941284179688 822.1588745117188 785.4540405273438 C 820.0462036132812 784.97265625 818.0924682617188 783.9290161132812 816.4900512695312 782.4003295898438 C 814.6690673828125 780.6631469726562 813.453125 778.4428100585938 812.9676513671875 776.0148315429688 C 812.1124267578125 775.3153686523438 811.35302734375 774.5009155273438 810.7134399414062 773.5911865234375 C 809.390625 771.709716796875 808.6371459960938 769.498046875 808.534423828125 767.1953735351562 C 808.4405517578125 765.0682983398438 808.9107666015625 762.9517211914062 809.89404296875 761.0721435546875 C 809.8994140625 761.0618896484375 809.9048461914062 761.0515747070312 809.9102172851562 761.0413818359375 C 809.9039916992188 761.0317993164062 809.8978271484375 761.022216796875 809.8916625976562 761.0126342773438 C 808.7453002929688 759.2274780273438 808.08935546875 757.1605834960938 807.9947509765625 755.0354614257812 C 807.919189453125 753.3352661132812 808.1952514648438 751.6727905273438 808.8152465820312 750.09375 C 809.0330200195312 749.5390625 809.2893676757812 749.0043334960938 809.5830078125 748.4917602539062 C 808.8143310546875 746.809814453125 808.4132080078125 744.9823608398438 808.4132080078125 743.1270141601562 C 808.4132080078125 741.7286376953125 808.6360473632812 740.3574829101562 809.06884765625 739.05419921875 C 808.1101684570312 737.2236328125 807.6015014648438 735.1790771484375 807.6015014648438 733.0653686523438 C 807.6015014648438 731.6647338867188 807.8307495117188 730.2799072265625 808.2696533203125 728.9659423828125 C 806.6949462890625 726.7910766601562 805.8170776367188 724.1508178710938 805.8170776367188 721.3804321289062 C 805.8170776367188 717.9210815429688 807.164306640625 714.6686401367188 809.6106567382812 712.2222900390625 C 811.9046630859375 709.92822265625 814.9072265625 708.6006469726562 818.1248779296875 708.4442749023438 C 818.89892578125 707.5932006835938 819.7860107421875 706.844970703125 820.7657470703125 706.2220458984375 C 822.8372192382812 704.9051513671875 825.2330932617188 704.2090454101562 827.6944580078125 704.2090454101562 C 828.5368041992188 704.2090454101562 829.3758544921875 704.2919311523438 830.1985473632812 704.454345703125 C 832.2608642578125 702.8714599609375 834.7726440429688 701.9284057617188 837.415283203125 701.7921752929688 C 839.7288208007812 698.7249755859375 843.2931518554688 696.7401733398438 847.2611083984375 696.479248046875 C 847.5169067382812 696.46240234375 847.7762451171875 696.453125 848.0335083007812 696.4515380859375 C 848.551513671875 696.0621948242188 849.10107421875 695.7144165039062 849.6798706054688 695.4100341796875 C 851.1810913085938 694.6204833984375 852.8031005859375 694.1634521484375 854.5008544921875 694.0515747070312 C 854.7665405273438 694.0341186523438 855.0348510742188 694.0253295898438 855.29931640625 694.0253295898438 C 857.1890869140625 694.0253295898438 859.0267333984375 694.472900390625 860.6791381835938 695.29833984375 C 860.6895141601562 695.2913208007812 860.6997680664062 695.2843627929688 860.710205078125 695.27734375 C 862.4710693359375 694.0929565429688 864.5238037109375 693.3931884765625 866.646484375 693.2537231445312 C 866.911865234375 693.236328125 867.18017578125 693.2275390625 867.4445190429688 693.2275390625 C 869.5966796875 693.2275390625 871.7145385742188 693.8067016601562 873.5692138671875 694.9024658203125 C 874.4166870117188 695.4031982421875 875.1994018554688 696.0056762695312 875.9002685546875 696.692626953125 C 878.5860595703125 696.9285888671875 881.1127319335938 698.0504150390625 883.1065063476562 699.9107055664062 C 884.5654907226562 701.2720947265625 885.6491088867188 702.94580078125 886.29052734375 704.7909545898438 C 887.1871337890625 705.2542114257812 888.0272216796875 705.8298950195312 888.7901000976562 706.5078125 C 890.4928588867188 708.0209350585938 891.7295532226562 709.9713134765625 892.3665771484375 712.1481323242188 C 892.5599975585938 712.8070678710938 892.6974487304688 713.4898071289062 892.776123046875 714.182373046875 C 896.421875 718.6437377929688 900.652099609375 724.5491943359375 905.3714599609375 731.7671508789062 C 909.463134765625 738.0252685546875 913.9329223632812 745.281005859375 918.6654052734375 753.3468627929688 C 919.8170166015625 754.2056884765625 920.8297119140625 755.25732421875 921.63818359375 756.4409790039062 C 922.208984375 757.2767944335938 922.6802368164062 758.1819458007812 923.0411376953125 759.1288452148438 C 924.564697265625 760.0447998046875 925.8240966796875 761.1155395507812 926.8571166992188 762.3687133789062 C 928.4625854492188 764.3163452148438 929.540283203125 766.7092895507812 930.1517333984375 769.684326171875 C 930.3517456054688 770.6602783203125 930.464111328125 771.583251953125 930.4886474609375 772.4623413085938 C 933.783203125 775.5697631835938 936.7786254882812 778.7188110351562 939.4140014648438 781.8467407226562 C 942.0013427734375 784.9176635742188 944.2596435546875 787.9877319335938 946.1260986328125 790.9716186523438 C 949.182861328125 795.8583984375 950.6602783203125 799.6867065429688 950.9966430664062 801.480224609375 C 951.3356323242188 803.2896728515625 950.896484375 805.23486328125 949.5728759765625 807.78857421875 C 948.59521484375 809.6746826171875 947.3221435546875 811.5313720703125 946.4263305664062 812.7567138671875 C 945.217041015625 814.4108276367188 943.898193359375 816.0046997070312 942.7125244140625 817.2447509765625 C 941.1727905273438 818.855224609375 939.8954467773438 819.850830078125 938.6546630859375 820.3961181640625 C 935.8500366210938 822.656982421875 931.8494873046875 825.96728515625 927.5789184570312 829.7748413085938 C 926.6514892578125 830.6017456054688 925.4631958007812 831.0429077148438 924.2511596679688 831.0429077148438 Z" stroke="none" fill="#000"/>
      </g>
      <path id="Path_3682" data-name="Path 3682" d="M929.687,810.312C919.8,813.326,871,794.519,849.444,785.86a1.039,1.039,0,0,0-.928,1.85c63.364,40.283,71.8,30.959,71.8,30.959Z" transform="translate(2.479 5.834)" fill="#f7fae5"/>
    </g>
  </g>
</svg>
