<svg xmlns="http://www.w3.org/2000/svg" width="144.572" height="89.502" viewBox="0 0 144.572 89.502">
  <g id="Group_1532" data-name="Group 1532" transform="translate(-1352.547 -592.832)">
    <g id="Group_1052" data-name="Group 1052" transform="translate(-244.704 -2222.249)">
      <path id="Path_2467" data-name="Path 2467" d="M1642.377,2856.2c1-5.371,6.145-7.9,8.53-12.341.6-1.119,1.742-.276,2.316.363a58.566,58.566,0,0,1,4.428,5.385c5.126,7.279,5.136,11.876-1.006,18a75.875,75.875,0,0,1-36.041,20.3c-8.286,2.021-15.369-1.326-19.2-8-1.916-3.341-3.348-7.2-1.6-10.674,6.578-13.1,14.887-24.687,29.545-29.917a18.7,18.7,0,0,1,7.529-1.24c2.224.153,5.474-1.62,6.352,1.973.65,2.665-2.431,5.954-5.607,6.453-3.777.593-7.224,1.8-9.937,4.6-.987,1.016-1.9,2.327-.962,3.7,1.015,1.49,2.491.583,3.8.213,2.115-.6,4.463-3.932,5.915-2.007,1.377,1.828-1.883,4.231-3,6.431-1.384,2.729-3,4.282-6.588,2.748a10.567,10.567,0,0,0-8.828.464c-.574.29-1.311.958-1.338,1.484-.049.976.731,1.556,1.739,1.827,2.4.65,6.575-.768,6.984,1.208.648,3.138-3.811,3.175-5.805,4.9-.926.8-1.6,1.774-1,3.03.727,1.529,2.045,1.686,3.528,1.271,3.261-.915,5.563-3.241,8.092-5.3,5.141-4.191,7.389-10.712,12.341-15.024-1.2,4.309-.344,8.708-.538,13.06-.033.732-.059,2.041,1.312,1.8a2.074,2.074,0,0,0,1.425-1.238C1645.544,2864.912,1646.6,2860.07,1642.377,2856.2Z" transform="translate(0.701 9.024)" fill="#3da007"/>
      <path id="Path_2468" data-name="Path 2468" d="M1714.642,2874.521c0,3.02.181,6.053-.035,9.059-.572,8.01-4.349,11.582-12.209,12.545a34.983,34.983,0,0,1-26.219-6.94c-5.76-4.307-12.157-7.817-17.217-13-9.354-9.579-9.36-20.915-.407-29.527,2.322-2.234,4.006-2.963,5.877.333a25.788,25.788,0,0,0,3.3,4.483c2.38,2.639,2.67,4.994.144,7.868a12.848,12.848,0,0,0-3.216,10.35c.176,1.377.373,3.213,1.9,3.324.891.066,1.023-1.852,1.282-2.952.689-2.936,1.257-5.887,2.74-8.593,1.289-2.354,2.551-3.212,4.542-.7,3.9,4.909,10.424,8.19,9.745,15.935a2.053,2.053,0,0,0,1.115,1.6c.745.257,1.079-.547,1.043-1.22-.2-3.734,1.311-3.312,3.45-1.455,2.454,2.13,4.8,4.414,7.415,6.321,1.418,1.032,3.572,2.3,5.053.543,1.8-2.143-.735-3.246-1.968-4.329-3.838-3.374-7.806-6.6-11.756-9.849-2-1.646-2.013-2.913.566-3.816,2.627-.921,5.271-1.789,7.892-2.727.609-.218,1.382-.672,1.078-1.387a2.212,2.212,0,0,0-1.571-1.077c-3.037-.286-6.436-.432-8.866,1.11-5.1,3.232-7.6.164-10.3-3.194-.728-.905-1.422-1.839-2.15-2.744-1.41-1.757-1.177-2.679,1.213-3.136,2.959-.565,5.854-1.472,8.776-2.228.906-.235,2.013-.55,2.023-1.547.017-1.514-1.394-1.636-2.513-1.75a20.549,20.549,0,0,0-9.623,1.075c-3.79,1.468-6.234.165-7.877-3.283-1.8-3.781,1.528-5.132,3.58-6.447,14.1-9.041,26.75-5.616,36.777,9.4C1714.146,2855.421,1714.939,2860.646,1714.642,2874.521Z" transform="translate(21.739 6.811)" fill="#3da007"/>
      <path id="Path_2469" data-name="Path 2469" d="M1661.119,2815.081c3.144,4.49,2.668,8.828-.063,13.419a86.512,86.512,0,0,0-5.032,10.717c-1.4,3.317-.935,6.191,2.105,8.662a23.582,23.582,0,0,1,6.295,7.41c1.963,3.838,2.821,7.892,1.575,12.149a53.651,53.651,0,0,1-15.948,25.746,24.548,24.548,0,0,1-12.372,5.96c-7.7,1.355-15.3.8-22.936-.148-11.458-1.426-22.934-16.32-14.69-29.782a80.216,80.216,0,0,1,20.446-22.651c6.332-4.736,13.9-6.278,21.7-6.711,1.768-.1,4,.5,4.609-2.011,2.059-8.5,6.787-15.623,11.516-22.76Zm-16.457,47.184c-4.953,4.312-7.2,10.833-12.342,15.024-2.528,2.061-4.831,4.386-8.092,5.3-1.483.415-2.8.259-3.528-1.271-.6-1.257.074-2.231,1-3.031,1.995-1.725,6.454-1.761,5.805-4.9-.408-1.977-4.579-.558-6.984-1.208-1.008-.271-1.788-.851-1.739-1.827.026-.526.763-1.2,1.338-1.485a10.566,10.566,0,0,1,8.828-.464c3.59,1.533,5.2-.019,6.588-2.748,1.115-2.2,4.375-4.6,3-6.431-1.451-1.925-3.8,1.412-5.914,2.007-1.31.37-2.786,1.278-3.8-.212-.938-1.377-.025-2.688.962-3.7,2.713-2.791,6.161-4,9.938-4.6,3.176-.5,6.257-3.789,5.607-6.453-.878-3.594-4.128-1.822-6.352-1.974a18.712,18.712,0,0,0-7.529,1.239c-14.658,5.23-22.967,16.814-29.545,29.917-1.743,3.472-.312,7.333,1.6,10.674,3.83,6.677,10.913,10.025,19.2,8a75.881,75.881,0,0,0,36.041-20.3c6.142-6.127,6.132-10.725,1.006-18a58.7,58.7,0,0,0-4.428-5.385c-.574-.639-1.715-1.481-2.316-.363-2.385,4.444-7.526,6.971-8.53,12.342Zm5.878,25.205c.032-.492-.5-.809-1.214-.377q-5.007,3.039-9.925,6.228c-.637.411-.684,1.005.236,1.3C1641.75,2895.29,1649.993,2890.194,1650.54,2887.471Z"/>
      <path id="Path_2470" data-name="Path 2470" d="M1720.831,2877.766c0,3.406.181,5.748-.032,8.053-.884,9.617-6.377,15.327-15.959,16.287-8.929.895-17.485.3-25.3-5.256-6.629-4.715-13.608-8.975-19.671-14.413-9.507-8.526-12.235-18.5-8.274-28.819a31.187,31.187,0,0,1,4.229-7.177c1.59-2.17,5.805-2.515,5.136-5.962a22.9,22.9,0,0,0-5.218-11.255c-.609-.672-1.561-1.026-2.2-1.677a3.343,3.343,0,0,1-.057-4.979,5.171,5.171,0,0,1,5.608-1.879c1.282.4,1.556,1.538,1.03,2.833-2.643,6.513,3.939,9.687,5.515,14.708.554,1.761,2.3-.144,3.183-.981a25.613,25.613,0,0,1,11.493-6.317c9.145-2.284,17.352-.965,24.638,5.683,8.073,7.366,13.152,16.179,14.711,26.945C1720.391,2868.615,1721.053,2873.707,1720.831,2877.766Zm-3.973-1.367c.3-13.875-.5-19.1-6.408-27.957-10.027-15.021-22.68-18.446-36.777-9.4-2.052,1.315-5.38,2.666-3.58,6.447,1.642,3.448,4.087,4.751,7.877,3.283a20.546,20.546,0,0,1,9.623-1.075c1.12.115,2.53.236,2.513,1.75-.01,1-1.117,1.313-2.023,1.548-2.921.756-5.816,1.664-8.776,2.228-2.391.457-2.624,1.379-1.214,3.137.728.905,1.422,1.839,2.15,2.744,2.7,3.357,5.2,6.426,10.3,3.194,2.431-1.542,5.829-1.4,8.866-1.11a2.21,2.21,0,0,1,1.571,1.078c.3.714-.468,1.168-1.078,1.386-2.621.938-5.266,1.806-7.892,2.727-2.579.9-2.57,2.169-.566,3.816,3.95,3.245,7.918,6.475,11.756,9.85,1.233,1.083,3.771,2.186,1.968,4.329-1.482,1.762-3.636.49-5.053-.542-2.618-1.906-4.961-4.191-7.416-6.321-2.139-1.856-3.65-2.279-3.45,1.455.036.674-.3,1.477-1.043,1.22a2.054,2.054,0,0,1-1.115-1.6c.679-7.745-5.849-11.026-9.744-15.935-1.99-2.509-3.253-1.651-4.542.7-1.483,2.706-2.05,5.657-2.74,8.593-.259,1.1-.391,3.018-1.282,2.952-1.531-.112-1.728-1.947-1.9-3.324a12.849,12.849,0,0,1,3.216-10.35c2.526-2.874,2.237-5.229-.144-7.869a25.766,25.766,0,0,1-3.3-4.483c-1.87-3.3-3.555-2.566-5.876-.333-8.953,8.612-8.948,19.947.407,29.527,5.06,5.182,11.457,8.692,17.217,13a34.981,34.981,0,0,0,26.219,6.94c7.86-.963,11.637-4.535,12.209-12.545C1717.038,2882.453,1716.858,2879.419,1716.858,2876.4Z" transform="translate(20.921 2.137)"/>
      <path id="Path_2471" data-name="Path 2471" d="M1638.677,2867.033c-.547,2.723-8.79,7.818-10.9,7.147-.92-.292-.874-.886-.236-1.3q4.919-3.183,9.925-6.228C1638.174,2866.225,1638.708,2866.542,1638.677,2867.033Z" transform="translate(11.863 20.437)" fill="#fff"/>
      <path id="Path_2472" data-name="Path 2472" d="M1631.168,2849c4.226,3.872,3.168,8.715,2.385,13.461a2.073,2.073,0,0,1-1.424,1.238c-1.372.242-1.346-1.067-1.313-1.8.194-4.353-.661-8.751.538-13.06Z" transform="translate(13.307 13.429)"/>
    </g>
  </g>
</svg>
