<svg xmlns="http://www.w3.org/2000/svg" width="147.207" height="144.967" viewBox="0 0 147.207 144.967">
  <g id="Group_1543" data-name="Group 1543" transform="translate(-1722.303 -764.99)">
    <g id="Group_1471" data-name="Group 1471">
      <g id="Group_1470" data-name="Group 1470" transform="translate(-282.544 -488.779)">
        <ellipse id="Ellipse_104" data-name="Ellipse 104" cx="57.583" cy="47.808" rx="57.583" ry="47.808" transform="translate(2014.185 1290.415)" fill="#ff4d4d"/>
        <path id="Path_1781_-_Outline" data-name="Path 1781 - Outline" d="M2064.158,1293.764a3.485,3.485,0,0,1-3.109-4.53c.222-.7,5.568-17.286,17.806-29.6a3.484,3.484,0,1,1,5.078,4.772c-.044.047-.09.092-.136.136-11.058,11.124-16.054,26.627-16.1,26.787A3.485,3.485,0,0,1,2064.158,1293.764Z" transform="translate(4.115 0)" fill="#009245"/>
        <path id="Path_1782" data-name="Path 1782" d="M2053.858,1295.69a40.8,40.8,0,0,1-18.284-3.776,5.108,5.108,0,0,1,4.716-9.061,32.364,32.364,0,0,0,24.143.66,5.109,5.109,0,0,1,3.421,9.626A43.8,43.8,0,0,1,2053.858,1295.69Z" transform="translate(1.859 1.917)" fill="#009245"/>
        <path id="Path_1783" data-name="Path 1783" d="M2080.478,1296.431a40.815,40.815,0,0,1-18.285-3.777,5.109,5.109,0,0,1,4.716-9.062,32.356,32.356,0,0,0,24.142.662,5.108,5.108,0,0,1,3.421,9.625A43.768,43.768,0,0,1,2080.478,1296.431Z" transform="translate(4.005 1.976)" fill="#009245"/>
        <path id="Path_1784" data-name="Path 1784" d="M2047.118,1306.184c-.715.012-1.154-.013-1.251-.019a5.108,5.108,0,0,1,.622-10.2,24.333,24.333,0,0,0,18.8-9.2,5.108,5.108,0,0,1,7.9,6.48A34.909,34.909,0,0,1,2047.118,1306.184Z" transform="translate(2.522 2.13)" fill="#009245"/>
        <path id="Path_1785" data-name="Path 1785" d="M2083.455,1306.549a5.206,5.206,0,0,1-.89-.064,27.162,27.162,0,0,1-17.611-10.543,5.108,5.108,0,0,1,8.466-5.718,16.823,16.823,0,0,0,10.744,6.171,5.109,5.109,0,0,1-.709,10.153Z" transform="translate(4.375 2.378)" fill="#009245"/>
        <path id="Path_1788" data-name="Path 1788" d="M2026.014,1344.917a5.109,5.109,0,0,1-4.993-4.061c-.181-.861-4.22-21.252,13.66-34.705a5.108,5.108,0,0,1,6.142,8.163c-12.748,9.593-9.835,24.3-9.8,24.446a5.109,5.109,0,0,1-5,6.157Z" transform="translate(0.859 3.759)" fill="#fff"/>
        <g id="Path_3904" data-name="Path 3904" transform="translate(0 0.017)" fill="none" stroke-linecap="round" stroke-linejoin="round">
          <path d="M2098.484,1295.824a5.107,5.107,0,0,0-3.454-9.61,32.35,32.35,0,0,1-21.415.375c2.317-5.439,6.932-14.6,14.168-21.884.046-.043.091-.089.134-.135a3.453,3.453,0,0,0-5.033-4.73c-8.756,8.809-13.952,19.823-16.247,25.53-.063.019-.127.023-.19.043a32.364,32.364,0,0,1-24.143-.66,5.108,5.108,0,0,0-4.716,9.061c.9.418,1.82.79,2.744,1.14-18.166,8.242-30.485,24.207-30.485,42.553,0,26.79,26.258,48.507,58.649,48.507s58.646-21.717,58.646-48.507C2127.142,1319.783,2115.643,1304.286,2098.484,1295.824Z" stroke="none"/>
          <path d="M 2085.401611328125 1258.752197265625 C 2084.481689453125 1258.752197265625 2083.564208984375 1259.1171875 2082.885009765625 1259.840209960938 C 2074.12890625 1268.6494140625 2068.933349609375 1279.662963867188 2066.6376953125 1285.369873046875 C 2066.57421875 1285.389282226562 2066.510498046875 1285.392578125 2066.447998046875 1285.412963867188 C 2058.61669921875 1288.316650390625 2049.966064453125 1288.079956054688 2042.3046875 1284.752807617188 C 2039.841552734375 1283.525024414062 2036.849365234375 1284.4697265625 2035.53662109375 1286.887939453125 C 2034.191162109375 1289.366943359375 2035.10986328125 1292.468383789062 2037.5888671875 1293.813842773438 C 2038.489990234375 1294.23193359375 2039.40869140625 1294.603637695312 2040.33251953125 1294.953857421875 C 2022.166259765625 1303.195678710938 2009.84716796875 1319.160766601562 2009.84716796875 1337.50732421875 C 2009.84716796875 1364.296997070312 2036.10498046875 1386.01416015625 2068.495849609375 1386.01416015625 C 2100.885009765625 1386.01416015625 2127.141845703125 1364.296997070312 2127.141845703125 1337.50732421875 C 2127.141845703125 1319.783203125 2115.64306640625 1304.286010742188 2098.48388671875 1295.823608398438 C 2101.0458984375 1294.845703125 2102.382568359375 1292.020874023438 2101.50439453125 1289.418823242188 C 2100.60205078125 1286.746459960938 2097.70361328125 1285.3115234375 2095.030029296875 1286.213745117188 C 2088.115234375 1288.778076171875 2080.563232421875 1288.888427734375 2073.615478515625 1286.588745117188 C 2075.932373046875 1281.150024414062 2080.5478515625 1271.984130859375 2087.78369140625 1264.705200195312 C 2087.829833984375 1264.661865234375 2087.87451171875 1264.616455078125 2087.917724609375 1264.570068359375 C 2089.22412109375 1263.180297851562 2089.15576171875 1260.995361328125 2087.76611328125 1259.688842773438 C 2087.099609375 1259.062622070312 2086.24951171875 1258.752197265625 2085.401611328125 1258.752197265625 M 2085.401611328125 1253.752197265625 C 2087.560546875 1253.752197265625 2089.6162109375 1254.56640625 2091.18994140625 1256.044921875 C 2094.5849609375 1259.237060546875 2094.7529296875 1264.5927734375 2091.56640625 1267.98876953125 C 2091.474609375 1268.086791992188 2091.38134765625 1268.181762695312 2091.287841796875 1268.272338867188 C 2086.6689453125 1272.931274414062 2083.185791015625 1278.514892578125 2080.810791015625 1283.067260742188 C 2081.799072265625 1283.175415039062 2082.7939453125 1283.229736328125 2083.79296875 1283.229736328125 C 2087.046875 1283.229736328125 2090.24267578125 1282.656494140625 2093.29150390625 1281.525756835938 C 2093.337890625 1281.508544921875 2093.38427734375 1281.492065429688 2093.43115234375 1281.476318359375 C 2094.4775390625 1281.123046875 2095.5654296875 1280.943969726562 2096.6650390625 1280.943969726562 C 2101.00439453125 1280.943969726562 2104.85302734375 1283.706909179688 2106.24169921875 1287.819213867188 C 2106.96923828125 1289.974853515625 2106.95068359375 1292.272094726562 2106.20556640625 1294.391235351562 C 2113.11474609375 1298.666015625 2118.96826171875 1304.094482421875 2123.33935546875 1310.318725585938 C 2126.16064453125 1314.336303710938 2128.3427734375 1318.649780273438 2129.824951171875 1323.139404296875 C 2131.3623046875 1327.796264648438 2132.141845703125 1332.630249023438 2132.141845703125 1337.50732421875 C 2132.141845703125 1341.202758789062 2131.69189453125 1344.895874023438 2130.80419921875 1348.484008789062 C 2129.94140625 1351.970703125 2128.65625 1355.39599609375 2126.98486328125 1358.664916992188 C 2125.35400390625 1361.853759765625 2123.33984375 1364.924194335938 2120.99853515625 1367.791015625 C 2118.6953125 1370.610595703125 2116.05517578125 1373.258056640625 2113.1513671875 1375.659790039062 C 2107.3076171875 1380.493286132812 2100.51904296875 1384.282470703125 2092.974609375 1386.921752929688 C 2085.21240234375 1389.637329101562 2076.9765625 1391.01416015625 2068.495849609375 1391.01416015625 C 2060.0146484375 1391.01416015625 2051.778564453125 1389.637329101562 2044.01611328125 1386.921752929688 C 2036.47119140625 1384.282470703125 2029.682373046875 1380.493408203125 2023.83837890625 1375.659790039062 C 2020.934326171875 1373.258178710938 2018.294189453125 1370.610717773438 2015.990966796875 1367.791015625 C 2013.6494140625 1364.924194335938 2011.63525390625 1361.853759765625 2010.00439453125 1358.664916992188 C 2008.332763671875 1355.396118164062 2007.047607421875 1351.970703125 2006.18505859375 1348.484008789062 C 2005.29736328125 1344.895874023438 2004.84716796875 1341.202758789062 2004.84716796875 1337.50732421875 C 2004.84716796875 1332.460693359375 2005.680908203125 1327.464965820312 2007.324951171875 1322.658935546875 C 2008.90869140625 1318.02978515625 2011.23583984375 1313.598876953125 2014.241943359375 1309.489379882812 C 2018.63427734375 1303.484497070312 2024.39697265625 1298.274291992188 2031.152099609375 1294.159057617188 C 2029.572998046875 1291.249755859375 2029.44873046875 1287.622802734375 2031.14208984375 1284.5029296875 C 2032.9130859375 1281.2412109375 2036.318603515625 1279.215454101562 2040.030029296875 1279.215454101562 C 2041.52978515625 1279.215454101562 2043.0341796875 1279.55810546875 2044.391357421875 1280.207641601562 C 2047.82421875 1281.683349609375 2051.45947265625 1282.431518554688 2055.19775390625 1282.431518554688 C 2057.8212890625 1282.431518554688 2060.407958984375 1282.058959960938 2062.9111328125 1281.322387695312 C 2065.7001953125 1274.891235351562 2070.981201171875 1264.738891601562 2079.29931640625 1256.355224609375 C 2080.88623046875 1254.699951171875 2083.10546875 1253.752197265625 2085.401611328125 1253.752197265625 Z" stroke="none" fill="#000"/>
        </g>
        <g id="Group_1469" data-name="Group 1469" transform="translate(2064.919 1328.802)">
          <g id="Group_1468" data-name="Group 1468" transform="translate(0 0.059)">
            <path id="Path_3905" data-name="Path 3905" d="M2139.184,1332.771a2.854,2.854,0,0,1,.311,1.026c.956,9.07,1.164,30.8-16.832,40.439-22.122,11.849-36.379-1.746-41.913-8.894a3.913,3.913,0,0,1,1.277-5.869l17.426-9.123a16.612,16.612,0,0,1-3.6-4.334l-32.092,16.8a5.622,5.622,0,0,0-.823.53,5.5,5.5,0,0,0-.968,7.712c7.771,10.037,27.793,29.128,58.859,12.49,23.818-12.759,24.928-40.592,23.853-54.416-1.639.732-3.881,1.787-6,2.965A2.808,2.808,0,0,1,2139.184,1332.771Z" transform="translate(-2060.811 -1323.17)" fill="#e53333"/>
            <path id="Path_3906" data-name="Path 3906" d="M2078.444,1360.578a4.027,4.027,0,0,0-.71,5.652c5.7,7.355,20.943,22.362,43.132,9.153,26.615-15.844,17.878-45.037,17.677-45.24-.666.37-2.519,2.624-3.138,3.01.149,4.018-1.61,12.972-8.593,17.486-3.513,2.273-8.894,4.331-19.1,2.775-4.194-.64-6.747-1.858-8.855-3.676l-19.812,10.453A4.077,4.077,0,0,0,2078.444,1360.578Z" transform="translate(-2059.515 -1323.089)" fill="#c62c2c"/>
            <path id="Path_3907" data-name="Path 3907" d="M2088.112,1356.682a2.92,2.92,0,0,0-.515,4.1c4.131,5.335,14.772,15.482,31.283,6.638,13.432-7.195,13.276-23.413,12.563-30.182a2.109,2.109,0,0,0-.232-.766,2.074,2.074,0,0,0-.379-.5c-.483.268-.959.544-1.408.823.109,2.914-.259,9.662-5.322,12.936a23.6,23.6,0,0,1-15.792,2.906,13.174,13.174,0,0,1-6.753-3.041l-13.006,6.809A3,3,0,0,0,2088.112,1356.682Z" transform="translate(-2058.701 -1322.619)" fill="#b21f1f"/>
            <path id="Path_3908" data-name="Path 3908" d="M2142.064,1329.578c-.065-.843-.137-1.64-.214-2.373a4.008,4.008,0,0,0-5.844-3.132l-42.769,22.389a16.612,16.612,0,0,0,3.6,4.334,17.65,17.65,0,0,0,9.048,4.074,31.615,31.615,0,0,0,21.158-3.892c6.785-4.387,7.276-13.429,7.131-17.332.6-.376,1.238-.744,1.885-1.1C2138.184,1331.365,2140.426,1330.31,2142.064,1329.578Z" transform="translate(-2058.197 -1323.615)" fill="#ff8f8f"/>
          </g>
          <ellipse id="Ellipse_105" data-name="Ellipse 105" cx="3.475" cy="1.2" rx="3.475" ry="1.2" transform="translate(42.77 39.44) rotate(-71.942)" fill="#ff9d00"/>
          <ellipse id="Ellipse_105-2" data-name="Ellipse 105" cx="1.2" cy="3.475" rx="1.2" ry="3.475" transform="translate(53.126 34.529) rotate(-13.793)" fill="#ff9d00"/>
          <ellipse id="Ellipse_105-3" data-name="Ellipse 105" cx="1.2" cy="3.475" rx="1.2" ry="3.475" transform="translate(58.857 34.695) rotate(-55.678)" fill="#ff9d00"/>
          <g id="Path_3909" data-name="Path 3909" transform="translate(-2060.811 -1323.56)" fill="none" stroke-linecap="round" stroke-linejoin="round">
            <path d="M2144.679,1329.523c-.066-.843-.138-1.64-.215-2.373a4.008,4.008,0,0,0-5.844-3.132l-42.77,22.389-32.091,16.8a5.621,5.621,0,0,0-.823.529,5.5,5.5,0,0,0-.968,7.712c7.771,10.037,27.793,29.128,58.859,12.49C2144.644,1371.18,2145.755,1343.346,2144.679,1329.523Z" stroke="none"/>
            <path d="M 2140.47509765625 1323.56005859375 C 2139.8486328125 1323.56005859375 2139.21337890625 1323.707397460938 2138.6201171875 1324.018188476562 L 2063.75927734375 1363.206909179688 C 2063.4697265625 1363.359252929688 2063.194091796875 1363.536376953125 2062.935791015625 1363.736328125 C 2060.5390625 1365.598266601562 2060.1044921875 1369.05078125 2061.9677734375 1371.44873046875 C 2067.539306640625 1378.644287109375 2079.409912109375 1390.494750976562 2097.12939453125 1390.494750976562 C 2104.126220703125 1390.494750976562 2112.032470703125 1388.6484375 2120.82666015625 1383.9384765625 C 2144.644287109375 1371.179565429688 2145.75537109375 1343.34619140625 2144.67919921875 1329.52294921875 C 2144.61328125 1328.679931640625 2144.540771484375 1327.882568359375 2144.464111328125 1327.149780273438 C 2144.41015625 1326.646362304688 2144.261962890625 1326.156860351562 2144.027587890625 1325.708251953125 C 2143.311767578125 1324.341674804688 2141.91748046875 1323.560180664062 2140.47509765625 1323.56005859375 M 2140.474853515625 1320.56005859375 C 2140.474853515625 1320.56005859375 2140.47509765625 1320.56005859375 2140.475341796875 1320.56005859375 C 2143.091796875 1320.560302734375 2145.471435546875 1321.999389648438 2146.68505859375 1324.316040039062 C 2147.0966796875 1325.104248046875 2147.3525390625 1325.949096679688 2147.447021484375 1326.830078125 C 2147.447265625 1326.832641601562 2147.447509765625 1326.835083007812 2147.44775390625 1326.837646484375 C 2147.528076171875 1327.604858398438 2147.602783203125 1328.429565429688 2147.670166015625 1329.2890625 C 2148.229248046875 1336.470825195312 2148.212646484375 1347.28076171875 2144.958740234375 1358.001098632812 C 2143.154541015625 1363.945678710938 2140.53076171875 1369.257080078125 2137.159912109375 1373.787963867188 C 2133.217041015625 1379.088012695312 2128.1982421875 1383.392822265625 2122.2431640625 1386.582885742188 C 2113.679931640625 1391.169311523438 2105.23046875 1393.494750976562 2097.12939453125 1393.494750976562 C 2078.08837890625 1393.494750976562 2065.441650390625 1380.834838867188 2059.596923828125 1373.287109375 C 2058.20556640625 1371.494995117188 2057.594970703125 1369.2685546875 2057.877685546875 1367.017578125 C 2058.160400390625 1364.76611328125 2059.30322265625 1362.759399414062 2061.09521484375 1361.3671875 C 2061.0966796875 1361.3662109375 2061.09814453125 1361.365112304688 2061.099365234375 1361.364013671875 C 2061.494384765625 1361.058227539062 2061.91943359375 1360.785034179688 2062.362548828125 1360.551879882812 C 2062.3642578125 1360.551025390625 2062.3662109375 1360.550048828125 2062.367919921875 1360.549072265625 L 2137.228759765625 1321.3603515625 C 2138.2275390625 1320.837036132812 2139.350341796875 1320.56005859375 2140.474853515625 1320.56005859375 Z" stroke="none" fill="#000"/>
          </g>
        </g>
      </g>
    </g>
  </g>
</svg>
