<svg xmlns="http://www.w3.org/2000/svg" width="146.702" height="136.697" viewBox="0 0 146.702 136.697">
  <g id="Group_1499" data-name="Group 1499" transform="translate(-51.612 -173.402)">
    <g id="Group_1437" data-name="Group 1437" transform="translate(-3012 -2420.776)">
      <g id="Path_3739" data-name="Path 3739" transform="translate(3007.525 2500.04)" fill="none" stroke-miterlimit="10">
        <path d="M110.709,221.829c5.805,0,5.678,4.006,12.895,4.006,7.745,0,36.728-15.469,36.728-51.056,0-28.8-21.628-36.849-30.654-36.849a38.678,38.678,0,0,0-12.175,2.5,20.394,20.394,0,0,1-13.587,0,38.678,38.678,0,0,0-12.175-2.5c-9.026,0-30.654,8.052-30.654,36.849,0,35.587,28.983,51.056,36.728,51.056C105.031,225.835,104.9,221.829,110.709,221.829Z" stroke="none"/>
        <path d="M 123.60400390625 225.8350067138672 C 131.3489990234375 225.8350067138672 160.3320007324219 210.3660125732422 160.3320007324219 174.7790069580078 C 160.3320007324219 145.9820098876953 138.7040100097656 137.9299774169922 129.6780090332031 137.9299774169922 C 125.6240005493164 137.9299774169922 121.1100006103516 139.1519775390625 117.5030059814453 140.4280090332031 C 113.1100006103516 141.9810180664062 108.3090057373047 141.9810180664062 103.9160003662109 140.4280090332031 C 100.3090057373047 139.1519775390625 95.79500579833984 137.9299774169922 91.74100494384766 137.9299774169922 C 82.71500396728516 137.9299774169922 61.08700180053711 145.9820098876953 61.08700180053711 174.7790069580078 C 61.08700180053711 210.3660125732422 90.06999969482422 225.8350067138672 97.81500244140625 225.8350067138672 C 105.031005859375 225.8350067138672 104.9050064086914 221.8290100097656 110.7089996337891 221.8290100097656 C 116.5139999389648 221.8290100097656 116.3870010375977 225.8350067138672 123.60400390625 225.8350067138672 M 123.60400390625 230.8350067138672 C 121.3072280883789 230.8350067138672 119.3016510009766 230.5110015869141 117.4726791381836 229.8445129394531 C 115.8439254760742 229.2509765625 114.6545257568359 228.5001068115234 113.6988296508789 227.8967590332031 C 112.4336547851562 227.0980529785156 112.007453918457 226.8290100097656 110.7089996337891 226.8290100097656 C 109.4110565185547 226.8290100097656 108.9848556518555 227.0980529785156 107.7197265625 227.896728515625 C 106.7640533447266 228.5000610351562 105.5746536254883 229.2509307861328 103.9460067749023 229.8444519042969 C 102.1170501708984 230.5110015869141 100.1116027832031 230.8350067138672 97.81500244140625 230.8350067138672 C 93.81027984619141 230.8350067138672 88.99267578125 228.6108856201172 86.47740173339844 227.2851104736328 C 83.15360260009766 225.5331573486328 78.115478515625 222.3554382324219 72.98940277099609 217.1658325195312 C 67.98305511474609 212.0974884033203 64.0029296875 206.2488250732422 61.15955352783203 199.7823638916016 C 57.79365158081055 192.1275634765625 56.08700180053711 183.7152099609375 56.08700180053711 174.7790069580078 C 56.08700180053711 167.3582000732422 57.42040252685547 160.6415252685547 60.05017852783203 154.8155364990234 C 62.35107803344727 149.7181091308594 65.62185668945312 145.3264312744141 69.77162933349609 141.7624816894531 C 73.16767883300781 138.8458862304688 77.19812774658203 136.4873352050781 81.42727661132812 134.9418334960938 C 84.97737884521484 133.6444549560547 88.64017486572266 132.9299774169922 91.74100494384766 132.9299774169922 C 95.70378112792969 132.9299774169922 100.3610763549805 133.8667602539062 105.5835494995117 135.7142791748047 C 107.2321319580078 136.2970581054688 108.9570770263672 136.5927581787109 110.7095031738281 136.5927581787109 C 112.4619293212891 136.5927581787109 114.1868743896484 136.2970581054688 115.8364791870117 135.7139129638672 C 121.0579299926758 133.8667602539062 125.7152252197266 132.9299774169922 129.6780090332031 132.9299774169922 C 132.7788238525391 132.9299774169922 136.4416351318359 133.6444549560547 139.9917297363281 134.9418334960938 C 144.2208709716797 136.4873352050781 148.2513275146484 138.8458862304688 151.6473846435547 141.7624816894531 C 155.7971496582031 145.3264312744141 159.0679321289062 149.7181091308594 161.3688354492188 154.8155364990234 C 163.9985961914062 160.6415252685547 165.3320007324219 167.3582000732422 165.3320007324219 174.7790069580078 C 165.3320007324219 183.7152099609375 163.6253509521484 192.1275634765625 160.2594604492188 199.7823638916016 C 157.4160766601562 206.2488250732422 153.4359588623047 212.0974884033203 148.4295959472656 217.1658325195312 C 143.3035278320312 222.3554382324219 138.2653961181641 225.5331573486328 134.9416046142578 227.2851104736328 C 132.4263305664062 228.6108856201172 127.6087265014648 230.8350067138672 123.60400390625 230.8350067138672 Z" stroke="none" fill="#000"/>
      </g>
      <path id="Path_3740" data-name="Path 3740" d="M111.041,221.557c5.766,0,5.64,3.783,12.808,3.783,7.693,0,36.483-14.607,36.483-48.208,0-27.19-21.483-34.792-30.45-34.792a40.177,40.177,0,0,0-12.093,2.358,21.257,21.257,0,0,1-13.5,0A40.184,40.184,0,0,0,92.2,142.34c-8.966,0-30.45,7.6-30.45,34.792,0,33.6,28.79,48.208,36.483,48.208C105.4,225.34,105.275,221.557,111.041,221.557Z" transform="translate(3007.525 2500.04)" fill="#e20736"/>
      <path id="Path_3741" data-name="Path 3741" d="M154.4,103.25c-10.176,24.73-30.751,11.55-30.751,11.55S130.454,91.334,154.4,103.25Z" transform="translate(3007.525 2500.04)" fill="#5cbc2a"/>
      <path id="Path_3742" data-name="Path 3742" d="M155.562,101.034c-12.959,31.493-39.16,14.708-39.16,14.708S125.074,85.859,155.562,101.034Z" transform="translate(3007.525 2500.04)" fill="none" stroke="#000" stroke-linecap="round" stroke-linejoin="round" stroke-width="5"/>
      <path id="Path_3743" data-name="Path 3743" d="M121.888,200.178s3.555,25.708,24.393,27.85c17.871,1.837,59.714-8.218,54.548-52.067-.709-4.791-7.968-1.41-12.532.062s-65,21.963-65,21.963S121.72,198.088,121.888,200.178Z" transform="translate(3007.525 2500.04)" fill="#e20736" stroke="#000" stroke-linecap="round" stroke-miterlimit="10" stroke-width="3"/>
      <path id="Path_3744" data-name="Path 3744" d="M124.956,197.88l70.1-23.542c2.317-.778,4.773.554,5.031,2.743,1.016,8.632.338,28.554-24.469,39.606-25.295,11.268-43.8-7.011-51.133-14.878C122.872,200.079,122.544,198.69,124.956,197.88Z" transform="translate(3007.525 2500.04)" fill="#fff"/>
      <ellipse id="Ellipse_679" data-name="Ellipse 679" cx="5.009" cy="2.194" rx="5.009" ry="2.194" transform="matrix(0.11, -0.994, 0.994, 0.11, 3165.556, 2698.711)" fill="#6d3609"/>
      <ellipse id="Ellipse_680" data-name="Ellipse 680" cx="2.194" cy="5.009" rx="2.194" ry="5.009" transform="matrix(0.822, -0.57, 0.57, 0.822, 3171.386, 2688.832)" fill="#6d3609"/>
      <path id="Path_3745" data-name="Path 3745" d="M98.277,105.472a39.536,39.536,0,0,1,13.759,33.218" transform="translate(3007.525 2500.04)" fill="#fff" stroke="#000" stroke-linecap="round" stroke-miterlimit="10" stroke-width="5"/>
      <path id="Path_3746" data-name="Path 3746" d="M110.01,122.715s7.346-12.629,20.5-11.552" transform="translate(3007.525 2500.04)" fill="none" stroke="#000" stroke-linecap="round" stroke-miterlimit="10" stroke-width="3"/>
      <path id="Path_3747" data-name="Path 3747" d="M75.253,196.847a3.489,3.489,0,0,1-3.039-1.765c-4.492-7.887-9.573-26.606,3.349-41a3.5,3.5,0,1,1,5.209,4.676c-12.746,14.2-2.9,32.113-2.471,32.869a3.5,3.5,0,0,1-3.048,5.222Z" transform="translate(3007.525 2500.04)" fill="#fff"/>
    </g>
  </g>
</svg>
