<svg xmlns="http://www.w3.org/2000/svg" width="133.649" height="120.755" viewBox="0 0 133.649 120.755">
  <g id="Group_1213" data-name="Group 1213" transform="translate(-802.569 -183.531)">
    <path id="Path_2492" data-name="Path 2492" d="M912.85,220.893c-32.816,3.124-30.275-26.888-30.275-26.888S912.077,187.937,912.85,220.893Z" transform="translate(0.849 78.133)" fill="#5cbc2a"/>
    <path id="Path_2493" data-name="Path 2493" d="M911.755,225.8a39.309,39.309,0,0,1-14.938-2.654,27.2,27.2,0,0,1-9.807-6.765,29.1,29.1,0,0,1-5.344-8.433,37.177,37.177,0,0,1-2.354-8.218,38.529,38.529,0,0,1-.526-8.85l.158-1.861,1.83-.376a36.728,36.728,0,0,1,6.771-.573c5.411,0,13.254,1.041,19.888,6a27.743,27.743,0,0,1,8.577,10.771,45.815,45.815,0,0,1,3.729,18.131l.055,2.327-2.317.221C915.509,225.7,913.585,225.8,911.755,225.8Zm-28.028-32.533a37.111,37.111,0,0,0,.54,5.777,32.032,32.032,0,0,0,2.048,7.06,24.063,24.063,0,0,0,4.4,6.921c4.756,5.159,11.834,7.774,21.038,7.774.934,0,1.9-.027,2.882-.081-.664-10.47-4.09-18.082-10.2-22.645-5.535-4.135-12.243-5-16.9-5A36.7,36.7,0,0,0,883.727,193.264Z" transform="translate(0.849 78.133)"/>
    <path id="Path_2498" data-name="Path 2498" d="M835.847,168.024c-32.817,3.125-30.276-26.888-30.276-26.888S835.073,135.068,835.847,168.024Z" transform="translate(0.849 78.133)" fill="#5cbc2a"/>
    <path id="Path_2499" data-name="Path 2499" d="M834.751,172.928a39.309,39.309,0,0,1-14.938-2.654,27.2,27.2,0,0,1-9.806-6.765,29.1,29.1,0,0,1-5.344-8.433,37.177,37.177,0,0,1-2.354-8.218,38.532,38.532,0,0,1-.526-8.85l.158-1.861,1.83-.376a36.717,36.717,0,0,1,6.77-.573c5.411,0,13.253,1.041,19.888,6a27.744,27.744,0,0,1,8.577,10.771,45.814,45.814,0,0,1,3.729,18.131l.055,2.327-2.317.221C838.505,172.833,836.581,172.928,834.751,172.928ZM806.724,140.4a37.115,37.115,0,0,0,.54,5.777,32.032,32.032,0,0,0,2.047,7.06,24.062,24.062,0,0,0,4.4,6.921c4.756,5.159,11.834,7.774,21.037,7.774.934,0,1.9-.027,2.882-.081-.664-10.47-4.09-18.081-10.2-22.645-5.535-4.135-12.243-5-16.9-5A36.7,36.7,0,0,0,806.724,140.4Z" transform="translate(0.849 78.133)"/>
    <circle id="Ellipse_196" data-name="Ellipse 196" cx="22.718" cy="22.718" r="22.718" transform="translate(829.378 205.768)" fill="#fff"/>
    <path id="Ellipse_196_-_Outline" data-name="Ellipse 196 - Outline" d="M22.718,0A22.718,22.718,0,1,0,45.437,22.718,22.718,22.718,0,0,0,22.718,0m0-5a27.711,27.711,0,0,1,19.6,47.318A27.718,27.718,0,1,1,11.928-2.82,27.55,27.55,0,0,1,22.718-5Z" transform="translate(829.378 205.768)" fill="#070707"/>
    <circle id="Ellipse_197" data-name="Ellipse 197" cx="21.407" cy="21.407" r="21.407" transform="translate(830.49 205.746)" fill="#4f57c1"/>
    <circle id="Ellipse_198" data-name="Ellipse 198" cx="6.449" cy="6.449" r="6.449" transform="translate(844.089 211.148)" fill="#132060"/>
    <circle id="Ellipse_199" data-name="Ellipse 199" cx="17.099" cy="17.099" r="17.099" transform="translate(878.651 188.531)" fill="#fff"/>
    <path id="Ellipse_199_-_Outline" data-name="Ellipse 199 - Outline" d="M17.1,0A17.1,17.1,0,1,0,34.2,17.1,17.1,17.1,0,0,0,17.1,0m0-5A22.084,22.084,0,0,1,39.2,17.1,22.084,22.084,0,0,1,17.1,39.2,22.084,22.084,0,0,1-5,17.1,22.084,22.084,0,0,1,17.1-5Z" transform="translate(878.651 188.531)" fill="#070707"/>
    <path id="Path_3040" data-name="Path 3040" d="M16.112,0A16.112,16.112,0,1,1,0,16.112,16.112,16.112,0,0,1,16.112,0Z" transform="translate(879.488 188.515)" fill="#4f57c1"/>
    <circle id="Ellipse_201" data-name="Ellipse 201" cx="4.854" cy="4.854" r="4.854" transform="translate(894.576 192.581)" fill="#132060"/>
    <circle id="Ellipse_202" data-name="Ellipse 202" cx="22.718" cy="22.718" r="22.718" transform="translate(885.781 214.141)" fill="#fff"/>
    <path id="Ellipse_202_-_Outline" data-name="Ellipse 202 - Outline" d="M22.718,0A22.718,22.718,0,1,0,45.437,22.718,22.718,22.718,0,0,0,22.718,0m0-5a27.711,27.711,0,0,1,19.6,47.318A27.718,27.718,0,1,1,11.928-2.82,27.55,27.55,0,0,1,22.718-5Z" transform="translate(885.781 214.141)" fill="#070707"/>
    <circle id="Ellipse_203" data-name="Ellipse 203" cx="21.407" cy="21.407" r="21.407" transform="translate(886.893 214.12)" fill="#4f57c1"/>
    <circle id="Ellipse_204" data-name="Ellipse 204" cx="9.897" cy="9.897" r="9.897" transform="translate(904.416 232.593)" fill="#132060"/>
    <circle id="Ellipse_205" data-name="Ellipse 205" cx="30.56" cy="30.56" r="30.56" transform="translate(823.077 238.165)" fill="#fff"/>
    <path id="Ellipse_205_-_Outline" data-name="Ellipse 205 - Outline" d="M30.56,0a30.56,30.56,0,1,0,30.56,30.56A30.56,30.56,0,0,0,30.56,0m0-5A35.551,35.551,0,0,1,55.705,55.705,35.56,35.56,0,1,1,16.717-2.2,35.342,35.342,0,0,1,30.56-5Z" transform="translate(823.077 238.165)" fill="#070707"/>
    <circle id="Ellipse_206" data-name="Ellipse 206" cx="28.797" cy="28.797" r="28.797" transform="translate(823.786 241.403)" fill="#4f57c1"/>
    <path id="Path_2500" data-name="Path 2500" d="M872.976,191.442a2.5,2.5,0,0,1-2.416-1.863,26.174,26.174,0,0,0-9.149-13.953A2.5,2.5,0,1,1,864.5,171.7,31.174,31.174,0,0,1,875.4,188.3a2.5,2.5,0,0,1-2.419,3.138Z" transform="translate(0.849 78.133)" fill="#fff"/>
    <path id="Path_2501" data-name="Path 2501" d="M857.336,173.326a2.488,2.488,0,0,1-1.451-.466c-1.464-1.045-4.052-2.093-8.071-1.15a2.5,2.5,0,1,1-1.143-4.868,16.992,16.992,0,0,1,6.339-.341,13.077,13.077,0,0,1,5.781,2.29,2.5,2.5,0,0,1-1.455,4.535Z" transform="translate(0.849 78.133)" fill="#fff"/>
    <circle id="Ellipse_207" data-name="Ellipse 207" cx="10.786" cy="10.786" r="10.786" transform="translate(833.302 264.586)" fill="#132060"/>
  </g>
</svg>
