<svg xmlns="http://www.w3.org/2000/svg" width="146.083" height="148.472" viewBox="0 0 146.083 148.472">
  <g id="Group_1504" data-name="Group 1504" transform="translate(-980.917 -162.364)">
    <ellipse id="Ellipse_276" data-name="Ellipse 276" cx="2.48" cy="2.48" rx="2.48" ry="2.48" transform="translate(1017.335 239.961)" fill="#fff"/>
    <ellipse id="Ellipse_277" data-name="Ellipse 277" cx="2.48" cy="2.48" rx="2.48" ry="2.48" transform="translate(1016.144 256.908)" fill="#fff"/>
    <ellipse id="Ellipse_278" data-name="Ellipse 278" cx="2.48" cy="2.48" rx="2.48" ry="2.48" transform="translate(1032.109 255.746)" fill="#fff"/>
    <ellipse id="Ellipse_279" data-name="Ellipse 279" cx="2.48" cy="2.48" rx="2.48" ry="2.48" transform="translate(1026.629 270.997)" fill="#fff"/>
    <g id="Ellipse_441" data-name="Ellipse 441" transform="translate(985.917 184.392)" fill="none" stroke="#000" stroke-miterlimit="10" stroke-width="5">
      <ellipse cx="52.011" cy="55.299" rx="52.011" ry="55.299" stroke="none"/>
      <ellipse cx="52.011" cy="55.299" rx="54.511" ry="57.799" fill="none"/>
    </g>
    <ellipse id="Ellipse_442" data-name="Ellipse 442" cx="49.38" cy="55.166" rx="49.38" ry="55.166" transform="translate(991.18 184.66)" fill="#89d65c"/>
    <g id="Group_1041" data-name="Group 1041" transform="translate(1039.555 224.697)">
      <path id="Path_2821" data-name="Path 2821" d="M1127.254,202.027c4.85-11.908-6.483-29.989-26.426-41.44-20.142-11.566-41.706-12.139-49.347-1.624l0,0-.022.038a12.8,12.8,0,0,0-1.587,2.844c-8.122,15.908-3.172,35.328,3.009,45.991,7.868,13.574,22.435,20.59,36.8,20.388C1116.616,227.843,1127.254,202.027,1127.254,202.027Z" transform="translate(-1044.977 -144.587)" fill="#b6f98f" stroke="#000" stroke-miterlimit="10" stroke-width="5"/>
      <ellipse id="Ellipse_443" data-name="Ellipse 443" cx="21.506" cy="38.069" rx="21.506" ry="38.069" transform="translate(0 37.301) rotate(-60.137)" fill="#f7c172"/>
      <ellipse id="Ellipse_444" data-name="Ellipse 444" cx="14.537" cy="25.733" rx="14.537" ry="25.733" transform="translate(13.976 34.26) rotate(-60.137)" fill="#ff9d00"/>
      <line id="Line_357" data-name="Line 357" x2="46.018" y2="33.873" transform="translate(21.261 17.418)" fill="none" stroke="#f7c172" stroke-miterlimit="10" stroke-width="5"/>
      <line id="Line_358" data-name="Line 358" x2="49.775" y2="4.677" transform="translate(19.032 32.466)" fill="none" stroke="#f7c172" stroke-miterlimit="10" stroke-width="5"/>
      <line id="Line_359" data-name="Line 359" y1="38.949" x2="0.333" transform="translate(44.602 16.814)" fill="none" stroke="#f7c172" stroke-miterlimit="10" stroke-width="5"/>
    </g>
    <path id="Path_2826" data-name="Path 2826" d="M1043.373,101.6s1.311-11.558-5.719-15.729" transform="translate(-5.444 79.922)" fill="none" stroke="#000" stroke-linecap="round" stroke-linejoin="round" stroke-width="5"/>
    <ellipse id="Ellipse_445" data-name="Ellipse 445" cx="2.48" cy="2.48" rx="2.48" ry="2.48" transform="translate(1005.866 244.038)" fill="#fff"/>
    <ellipse id="Ellipse_446" data-name="Ellipse 446" cx="2.48" cy="2.48" rx="2.48" ry="2.48" transform="translate(1004.675 260.985)" fill="#fff"/>
    <ellipse id="Ellipse_447" data-name="Ellipse 447" cx="2.48" cy="2.48" rx="2.48" ry="2.48" transform="translate(1020.642 259.823)" fill="#fff"/>
    <ellipse id="Ellipse_448" data-name="Ellipse 448" cx="2.48" cy="2.48" rx="2.48" ry="2.48" transform="translate(1015.16 275.074)" fill="#fff"/>
    <ellipse id="Ellipse_449" data-name="Ellipse 449" cx="2.48" cy="2.48" rx="2.48" ry="2.48" transform="translate(1030.055 275.074)" fill="#fff"/>
    <path id="Path_2827" data-name="Path 2827" d="M1005.29,147.86a2.521,2.521,0,0,1-.883-2.562c1.424-7.5,8.1-22.862,23.189-27.356a2.293,2.293,0,0,1,3.059,1.963,3.471,3.471,0,0,1-2.4,3.589c-14.878,4.433-18.323,21.307-18.463,22.023a3.386,3.386,0,0,1-3.248,2.774A2.261,2.261,0,0,1,1005.29,147.86Z" transform="translate(-5.539 80.014)" fill="#fff"/>
  </g>
</svg>
