<svg xmlns="http://www.w3.org/2000/svg" width="123.821" height="146.544" viewBox="0 0 123.821 146.544">
  <g id="Group_1505" data-name="Group 1505" transform="translate(-1174.989 -164.48)">
    <path id="Path_2817" data-name="Path 2817" d="M1296.4,117.932c-31.157,12.092-36.948-17.891-36.948-17.891S1286.567,85.991,1296.4,117.932Z" transform="translate(-7.605 79.377)" fill="#5cbc2a"/>
    <path id="Path_2818" data-name="Path 2818" d="M1303.341,120.391c-37.008,14.362-43.887-21.251-43.887-21.251S1291.659,82.452,1303.341,120.391Z" transform="translate(-7.605 79.357)" fill="none" stroke="#000" stroke-miterlimit="10" stroke-width="5"/>
    <path id="Path_2819" data-name="Path 2819" d="M1258.03,100.887c-21.145,21.976-40.148,2.179-40.148,2.179S1234.632,81.329,1258.03,100.887Z" transform="translate(-8.181 79.319)" fill="#5cbc2a"/>
    <path id="Path_2820" data-name="Path 2820" d="M1258.766,99.423c-25.435,30.478-48.69,2.642-48.69,2.642S1230.182,71.876,1258.766,99.423Z" transform="translate(-8.288 79.251)" fill="none" stroke="#000" stroke-miterlimit="10" stroke-width="5"/>
    <g id="Path_2822" data-name="Path 2822" transform="translate(-7.98 80.182)" fill="#fff" stroke-linejoin="round">
      <path d="M 1262.542236328125 209.7912445068359 C 1257.4462890625 209.7912445068359 1252.638793945312 208.6811370849609 1248.253051757812 206.4917602539062 C 1244.1591796875 204.4480590820312 1240.583129882812 201.547607421875 1237.624267578125 197.8709564208984 C 1234.411376953125 193.8787536621094 1232.064697265625 189.078369140625 1230.838012695312 183.9888153076172 C 1229.594970703125 178.8322601318359 1229.52099609375 173.4438629150391 1230.623779296875 168.4061737060547 C 1231.220947265625 165.6775512695312 1232.05810546875 163.2879180908203 1233.111938476562 161.3037719726562 C 1234.125122070312 159.3961181640625 1235.3671875 157.8066711425781 1236.803344726562 156.5796356201172 C 1239.284057617188 154.4603576660156 1242.3564453125 153.3857879638672 1245.935180664062 153.3857879638672 C 1249.517578125 153.3857879638672 1252.921630859375 154.4689483642578 1255.174194335938 155.1856842041016 C 1255.494506835938 155.28759765625 1255.796997070312 155.3838348388672 1256.06884765625 155.4671020507812 L 1256.33056640625 155.5472564697266 L 1256.542602539062 155.66748046875 C 1256.678344726562 155.7391967773438 1259.361206054688 157.1310577392578 1262.80908203125 157.1310577392578 C 1264.859497070312 157.1310577392578 1266.786499023438 156.6396484375 1268.536499023438 155.6705017089844 C 1270.600708007812 154.5272521972656 1274.825927734375 152.6093292236328 1279.930541992188 152.6093292236328 C 1281.79833984375 152.6093292236328 1283.602172851562 152.8734741210938 1285.291748046875 153.3944702148438 C 1287.16796875 153.9729766845703 1288.917846679688 154.8727569580078 1290.492553710938 156.0688018798828 C 1293.967651367188 158.7081604003906 1296.604736328125 162.78271484375 1298.33056640625 168.1792907714844 C 1299.003295898438 170.2831726074219 1299.3740234375 172.4980773925781 1299.4326171875 174.7625427246094 C 1299.488525390625 176.9258117675781 1299.260009765625 179.1492767333984 1298.753540039062 181.3711395263672 C 1297.791625976562 185.5906219482422 1295.798828125 189.8539886474609 1292.990478515625 193.7003479003906 C 1289.56591796875 198.3907623291016 1285.046997070312 202.3620758056641 1279.922241210938 205.1849670410156 C 1277.2587890625 206.6520690917969 1274.464477539062 207.7887115478516 1271.616943359375 208.5633544921875 C 1268.621826171875 209.3781127929688 1265.568603515625 209.7912445068359 1262.542236328125 209.7912445068359 Z" stroke="none"/>
      <path d="M 1279.930541992188 155.1093139648438 C 1276.149291992188 155.1096801757812 1272.4892578125 156.3391723632812 1269.747680664062 157.8575134277344 C 1262.542114257812 161.8479919433594 1255.336791992188 157.8574981689453 1255.336791992188 157.8575134277344 C 1250.07275390625 156.2454833984375 1236.995483398438 150.9857635498047 1233.06591796875 168.9407958984375 C 1229.135131835938 186.8968811035156 1241.5810546875 207.2912445068359 1262.542236328125 207.2912445068359 C 1283.50341796875 207.2912445068359 1301.40771484375 186.0107879638672 1295.949340820312 168.9407958984375 C 1292.567749023438 158.3664398193359 1286.087036132812 155.1087188720703 1279.930541992188 155.1093139648438 M 1279.930053710938 150.1093139648438 C 1279.93017578125 150.1093139648438 1279.932006835938 150.1093139648438 1279.932250976562 150.1093139648438 C 1282.050048828125 150.1093139648438 1284.1015625 150.4108734130859 1286.030029296875 151.005615234375 C 1288.186767578125 151.6707611083984 1290.197265625 152.70458984375 1292.005859375 154.0783996582031 C 1295.897338867188 157.0345764160156 1298.826538085938 161.5225982666016 1300.711791992188 167.4177856445312 C 1301.456665039062 169.7473449707031 1301.867065429688 172.1966857910156 1301.931762695312 174.6979370117188 C 1301.993041992188 177.0695953369141 1301.743896484375 179.5017242431641 1301.191040039062 181.9268188476562 C 1300.154174804688 186.4749450683594 1298.0166015625 191.0559387207031 1295.009643554688 195.1745452880859 C 1291.37109375 200.1580352783203 1286.571044921875 204.3767852783203 1281.12841796875 207.3747406005859 C 1278.291381835938 208.9374847412109 1275.31201171875 210.1490173339844 1272.273193359375 210.9756927490234 C 1269.064208984375 211.8486328125 1265.790283203125 212.2912445068359 1262.542236328125 212.2912445068359 C 1257.055297851562 212.2912445068359 1251.8720703125 211.0925750732422 1247.136352539062 208.7285461425781 C 1242.71826171875 206.5229949951172 1238.862670898438 203.3973236083984 1235.676513671875 199.4383544921875 C 1232.23388671875 195.1604766845703 1229.720336914062 190.0206756591797 1228.407592773438 184.5746307373047 C 1227.076538085938 179.0524597167969 1226.998291015625 173.276611328125 1228.181518554688 167.8715667724609 C 1228.827392578125 164.9206390380859 1229.743408203125 162.3162841796875 1230.904052734375 160.1310729980469 C 1232.065063476562 157.9450378417969 1233.503540039062 156.1106414794922 1235.179443359375 154.6788635253906 C 1238.12548828125 152.1619567871094 1241.744262695312 150.8857879638672 1245.935180664062 150.8857879638672 C 1249.905639648438 150.8857879638672 1253.532348632812 152.0397796630859 1255.932250976562 152.8033905029297 C 1256.245849609375 152.9031677246094 1256.542114257812 152.9974060058594 1256.800903320312 153.0766906738281 C 1257.157836914062 153.1859893798828 1257.41650390625 153.2867584228516 1257.736328125 153.4703063964844 C 1257.970703125 153.5883483886719 1260.119262695312 154.6310577392578 1262.80908203125 154.6310577392578 C 1264.430908203125 154.6310577392578 1265.950317382812 154.2449645996094 1267.325317382812 153.4834899902344 C 1269.60009765625 152.2236022949219 1274.262817382812 150.1098785400391 1279.930053710938 150.1093139648438 Z" stroke="none" fill="#000"/>
    </g>
    <path id="Path_2823" data-name="Path 2823" d="M1257.626,160.76s6.666,3.691,13.331,0,19.189-5.537,24.239,10.254-11.513,35.476-30.9,35.476-30.9-18.865-27.268-35.476S1252.757,159.268,1257.626,160.76Z" transform="translate(-7.925 80.225)" fill="#e20736"/>
    <path id="Path_2824" data-name="Path 2824" d="M1258.666,100.583c-47.08,24.749-41.166,77.341-41.166,77.341" transform="translate(-8.189 79.427)" fill="none" stroke="#000" stroke-miterlimit="10" stroke-width="3"/>
    <path id="Path_2825" data-name="Path 2825" d="M1262.046,158.247s-18.979-13.621-3.865-57.664" transform="translate(-7.704 79.427)" fill="none" stroke="#000" stroke-miterlimit="10" stroke-width="3"/>
    <path id="Path_2828" data-name="Path 2828" d="M1246.844,185.766a2.689,2.689,0,0,1-2.132-.876c-3.232-4.019-7.037-13.626,1.691-21.209a3.028,3.028,0,0,1,3.419-.2,1.513,1.513,0,0,1,.26,2.549c-8.608,7.48-1.513,16.615-1.207,17a1.58,1.58,0,0,1-.844,2.477A3.064,3.064,0,0,1,1246.844,185.766Z" transform="translate(-7.86 80.292)" fill="#fff"/>
    <g id="Path_2829" data-name="Path 2829" transform="translate(-8.586 80.435)" fill="#fff" stroke-linejoin="round">
      <path d="M 1218.769287109375 228.0882568359375 C 1213.67333984375 228.0882568359375 1208.86572265625 226.9781341552734 1204.479858398438 224.7886962890625 C 1200.385986328125 222.7449798583984 1196.809936523438 219.844482421875 1193.85107421875 216.1677856445312 C 1190.638305664062 212.1756591796875 1188.291748046875 207.3754272460938 1187.06494140625 202.2860565185547 C 1185.822021484375 197.1296691894531 1185.747924804688 191.7415618896484 1186.850708007812 186.7041625976562 C 1187.447875976562 183.9754333496094 1188.285034179688 181.5856781005859 1189.338989257812 179.6014099121094 C 1190.352172851562 177.6936340332031 1191.59423828125 176.1041259765625 1193.030517578125 174.8769989013672 C 1195.51123046875 172.7575225830078 1198.583740234375 171.682861328125 1202.162475585938 171.682861328125 C 1205.744873046875 171.682861328125 1209.148803710938 172.7659606933594 1211.401245117188 173.4826812744141 C 1211.721557617188 173.5845794677734 1212.024047851562 173.6808319091797 1212.2958984375 173.7640991210938 L 1212.5576171875 173.8442535400391 L 1212.769653320312 173.9644775390625 C 1212.905395507812 174.0361938476562 1215.588256835938 175.4280548095703 1219.0361328125 175.4280548095703 C 1221.086547851562 175.4280548095703 1223.013427734375 174.9366455078125 1224.763427734375 173.9675140380859 C 1226.827758789062 172.8242645263672 1231.052978515625 170.9063720703125 1236.1572265625 170.9063720703125 C 1238.025146484375 170.9063720703125 1239.828979492188 171.1705627441406 1241.518676757812 171.6915893554688 C 1243.394897460938 172.2701568603516 1245.144653320312 173.1699981689453 1246.719482421875 174.3661499023438 C 1250.194580078125 177.0056915283203 1252.831665039062 181.0804748535156 1254.557495117188 186.4773406982422 C 1255.230224609375 188.5809631347656 1255.600952148438 190.7957153320312 1255.659545898438 193.0600433349609 C 1255.715576171875 195.2231903076172 1255.487060546875 197.4465026855469 1254.980590820312 199.6682434082031 C 1254.018798828125 203.8874816894531 1252.026123046875 208.1506805419922 1249.217895507812 211.9969024658203 C 1245.79345703125 216.6874084472656 1241.2744140625 220.6588287353516 1236.149658203125 223.4818115234375 C 1233.486206054688 224.9489593505859 1230.691772460938 226.0856475830078 1227.844116210938 226.8603057861328 C 1224.848999023438 227.6751251220703 1221.795776367188 228.0882568359375 1218.769287109375 228.0882568359375 Z" stroke="none"/>
      <path d="M 1236.1572265625 173.4063568115234 C 1232.3759765625 173.4066772460938 1228.716186523438 174.6361694335938 1225.974609375 176.1545104980469 C 1218.768920898438 180.1449737548828 1211.563842773438 176.1544952392578 1211.563842773438 176.1545104980469 C 1206.300048828125 174.5425415039062 1193.222778320312 169.2825317382812 1189.292846679688 187.2388000488281 C 1185.362182617188 205.1938781738281 1197.80810546875 225.5882568359375 1218.769287109375 225.5882568359375 C 1239.730346679688 225.5882568359375 1257.634765625 204.3077850341797 1252.17626953125 187.2388000488281 C 1248.794555664062 176.663818359375 1242.313720703125 173.4058532714844 1236.1572265625 173.4063568115234 M 1236.156860351562 168.4063568115234 C 1236.156982421875 168.4063568115234 1236.158569335938 168.4063568115234 1236.15869140625 168.4063568115234 C 1238.276489257812 168.4063568115234 1240.328125 168.7079467773438 1242.256713867188 169.3027648925781 C 1244.413452148438 169.9679412841797 1246.423950195312 171.0018615722656 1248.232543945312 172.3757476806641 C 1252.124267578125 175.3321380615234 1255.053466796875 179.8204193115234 1256.938720703125 185.7158813476562 C 1257.68359375 188.0450897216797 1258.093994140625 190.4942932128906 1258.15869140625 192.9954071044922 C 1258.220092773438 195.3669128417969 1257.970825195312 197.7989501953125 1257.418090820312 200.2239074707031 C 1256.38134765625 204.7718048095703 1254.243896484375 209.3525848388672 1251.237060546875 213.4710693359375 C 1247.598510742188 218.4546356201172 1242.798461914062 222.6735076904297 1237.355834960938 225.6715698242188 C 1234.518676757812 227.2343597412109 1231.539306640625 228.4459228515625 1228.500366210938 229.2726440429688 C 1225.291381835938 230.1456146240234 1222.017333984375 230.5882568359375 1218.769287109375 230.5882568359375 C 1213.282348632812 230.5882568359375 1208.098999023438 229.3895568847656 1203.36328125 227.0254669189453 C 1198.945068359375 224.8198852539062 1195.089477539062 221.6941833496094 1191.9033203125 217.7351684570312 C 1188.460815429688 213.4573669433594 1185.947265625 208.3177337646484 1184.634521484375 202.8718872070312 C 1183.303466796875 197.3498840332031 1183.225341796875 191.5743103027344 1184.408569335938 186.1695404052734 C 1185.054321289062 183.2185516357422 1185.970336914062 180.6140594482422 1187.130981445312 178.4287261962891 C 1188.292114257812 176.2425994873047 1189.730590820312 174.4081115722656 1191.406616210938 172.9762420654297 C 1194.352783203125 170.4591369628906 1197.971557617188 169.182861328125 1202.162475585938 169.182861328125 C 1206.133056640625 169.182861328125 1209.759521484375 170.3367919921875 1212.159301757812 171.1003570556641 C 1212.472900390625 171.2001495361328 1212.76904296875 171.2944030761719 1213.027954101562 171.3736877441406 C 1213.384887695312 171.4829864501953 1213.6435546875 171.5837554931641 1213.96337890625 171.7673034667969 C 1214.19775390625 171.8853454589844 1216.346313476562 172.9280548095703 1219.0361328125 172.9280548095703 C 1220.657836914062 172.9280548095703 1222.17724609375 172.5419769287109 1223.55224609375 171.780517578125 C 1225.827270507812 170.5205688476562 1230.489868164062 168.4068298339844 1236.156860351562 168.4063568115234 Z" stroke="none" fill="#000"/>
    </g>
    <path id="Path_2830" data-name="Path 2830" d="M1213.853,179.057s6.666,3.691,13.331,0,19.189-5.537,24.239,10.254-11.513,35.476-30.9,35.476-30.9-18.866-27.268-35.476S1208.984,177.565,1213.853,179.057Z" transform="translate(-8.531 80.478)" fill="#e20736"/>
    <path id="Path_2831" data-name="Path 2831" d="M1203.466,207.187a2.267,2.267,0,0,1-1.954-.992c-2.963-4.552-6.451-15.429,1.55-24.017a2.355,2.355,0,0,1,3.133-.221,1.937,1.937,0,0,1,.239,2.886c-7.891,8.47-1.388,18.814-1.107,19.25a1.962,1.962,0,0,1-.773,2.8A2.364,2.364,0,0,1,1203.466,207.187Z" transform="translate(-9.468 77.911)" fill="#fff"/>
  </g>
</svg>
