<svg xmlns="http://www.w3.org/2000/svg" width="149.841" height="124.579" viewBox="0 0 149.841 124.579">
  <g id="Group_1506" data-name="Group 1506" transform="translate(-1351.102 -185.572)">
    <g id="Group_1442" data-name="Group 1442" transform="translate(-7.458 77.584)">
      <g id="Group_1440" data-name="Group 1440" transform="translate(1363.56 112.987)">
        <ellipse id="Ellipse_681" data-name="Ellipse 681" cx="52.302" cy="55.106" rx="52.302" ry="55.106" transform="translate(5.141 3.457)" fill="#613e28"/>
        <g id="Ellipse_682" data-name="Ellipse 682" fill="none" stroke="#000" stroke-linecap="round" stroke-linejoin="round" stroke-width="5">
          <ellipse cx="54.195" cy="57.101" rx="54.195" ry="57.101" stroke="none"/>
          <ellipse cx="54.195" cy="57.101" rx="56.695" ry="59.601" fill="none"/>
        </g>
        <ellipse id="Ellipse_683" data-name="Ellipse 683" cx="37.79" cy="39.816" rx="37.79" ry="39.816" transform="translate(25.881 6.591)" fill="#895e46"/>
        <ellipse id="Ellipse_684" data-name="Ellipse 684" cx="2.391" cy="4.904" rx="2.391" ry="4.904" transform="translate(49.687 18.623) rotate(-83.928)" fill="#2b190e"/>
        <ellipse id="Ellipse_685" data-name="Ellipse 685" cx="2.391" cy="4.904" rx="2.391" ry="4.904" transform="translate(70.104 22.846) rotate(-83.928)" fill="#2b190e"/>
        <ellipse id="Ellipse_686" data-name="Ellipse 686" cx="2.391" cy="4.904" rx="2.391" ry="4.904" transform="translate(63.178 12.383) rotate(-79.703)" fill="#2b190e"/>
        <path id="Path_3763" data-name="Path 3763" d="M1382.43,159.256s.363,5.851,4.178,8.394" transform="translate(-1363.169 -112.028)" fill="none" stroke="#2b190e" stroke-linecap="round" stroke-linejoin="round" stroke-width="3"/>
        <path id="Path_3764" data-name="Path 3764" d="M1425.634,210.9s4.515-3.739,4.324-8.32" transform="translate(-1362.273 -111.129)" fill="none" stroke="#2b190e" stroke-linecap="round" stroke-linejoin="round" stroke-width="3"/>
        <path id="Path_3765" data-name="Path 3765" d="M1424.662,181.277s4.515-3.739,4.324-8.319" transform="translate(-1362.293 -111.744)" fill="none" stroke="#2b190e" stroke-linecap="round" stroke-linejoin="round" stroke-width="3"/>
        <path id="Path_3766" data-name="Path 3766" d="M1400.4,173.71s.362,5.851,4.177,8.394" transform="translate(-1362.796 -111.728)" fill="none" stroke="#2b190e" stroke-linecap="round" stroke-linejoin="round" stroke-width="3"/>
        <path id="Path_3767" data-name="Path 3767" d="M1396.31,198.471s.363,5.851,4.178,8.394" transform="translate(-1362.881 -111.215)" fill="none" stroke="#2b190e" stroke-linecap="round" stroke-linejoin="round" stroke-width="3"/>
        <path id="Path_3768" data-name="Path 3768" d="M1376.291,177.822s.363,5.851,4.178,8.394" transform="translate(-1363.296 -111.643)" fill="none" stroke="#2b190e" stroke-linecap="round" stroke-linejoin="round" stroke-width="3"/>
      </g>
      <g id="Group_1441" data-name="Group 1441" transform="translate(1417.305 145.834)">
        <path id="Path_3769" data-name="Path 3769" d="M1499,203.348c4.694-11.525-6.275-29.028-25.579-40.111-19.5-11.194-40.368-11.75-47.765-1.572l-.005,0-.021.037a12.344,12.344,0,0,0-1.535,2.753c-7.862,15.4-3.07,34.2,2.912,44.516,7.615,13.139,21.716,19.93,35.619,19.735C1488.7,228.337,1499,203.348,1499,203.348Z" transform="translate(-1416.135 -144.975)" fill="#604639"/>
        <g id="Path_3770" data-name="Path 3770" transform="translate(-1416.135 -144.975)" fill="none" stroke-linecap="round" stroke-linejoin="round">
          <path d="M1499,203.348c4.694-11.525-6.275-29.028-25.579-40.111-19.5-11.194-40.368-11.75-47.765-1.572l-.005,0-.021.037a12.344,12.344,0,0,0-1.535,2.753c-7.862,15.4-3.07,34.2,2.912,44.516,7.615,13.139,21.716,19.93,35.619,19.735C1488.7,228.337,1499,203.348,1499,203.348Z" stroke="none"/>
          <path d="M 1462.044921875 228.7073669433594 C 1462.2392578125 228.7073669433594 1462.432983398438 228.7060089111328 1462.627319335938 228.7032775878906 C 1488.7041015625 228.3368377685547 1499.001342773438 203.34814453125 1499.001342773438 203.34814453125 C 1503.695678710938 191.8229827880859 1492.725952148438 174.3203735351562 1473.422729492188 163.2371978759766 C 1453.925537109375 152.0427856445312 1433.054321289062 151.4874114990234 1425.658203125 161.6652679443359 L 1425.653076171875 161.6622009277344 L 1425.631713867188 161.6989440917969 C 1425.35302734375 162.0847778320312 1425.088623046875 162.4808349609375 1424.848754882812 162.8972930908203 C 1424.559936523438 163.4005126953125 1424.317993164062 163.922119140625 1424.096435546875 164.4518737792969 C 1416.23486328125 179.8507385253906 1421.026123046875 198.6486511230469 1427.008666992188 208.9683227539062 C 1434.516967773438 221.9236297607422 1448.33251953125 228.7071685791016 1462.044921875 228.7073669433594 M 1462.044921875 231.7073669433594 C 1462.044799804688 231.7073669433594 1462.044799804688 231.7073669433594 1462.044799804688 231.7073669433594 C 1454.602416992188 231.7072601318359 1447.245239257812 229.8486633300781 1440.768920898438 226.3325042724609 C 1437.42626953125 224.5177307128906 1434.357177734375 222.2809448242188 1431.64697265625 219.6842651367188 C 1428.8193359375 216.9751739501953 1426.385498046875 213.8759155273438 1424.4130859375 210.4726104736328 C 1422.755859375 207.6139221191406 1421.258178710938 204.2639770507812 1420.082153320312 200.7852172851562 C 1418.773315429688 196.9133758544922 1417.865234375 192.9405517578125 1417.382934570312 188.9771423339844 C 1416.840698242188 184.5204772949219 1416.853759765625 180.1690063476562 1417.421630859375 176.0436553955078 C 1418.055908203125 171.4358367919922 1419.385375976562 167.1112213134766 1421.373413085938 163.1882171630859 C 1421.6630859375 162.5046691894531 1421.94189453125 161.9352264404297 1422.246826171875 161.4039001464844 C 1422.501953125 160.9611053466797 1422.790161132812 160.5156707763672 1423.128051757812 160.042236328125 C 1423.197265625 159.9344329833984 1423.272827148438 159.8317718505859 1423.354370117188 159.7345428466797 C 1425.411010742188 156.9757843017578 1428.290405273438 154.8567657470703 1431.915893554688 153.4346771240234 C 1435.32958984375 152.0957183837891 1439.305419921875 151.4167938232422 1443.733276367188 151.4167938232422 C 1448.505859375 151.4167938232422 1453.60791015625 152.1997680664062 1458.897583007812 153.7439727783203 C 1464.318725585938 155.3265686035156 1469.708374023438 157.6452331542969 1474.91650390625 160.6355285644531 C 1484.632934570312 166.2143402099609 1492.739990234375 173.6312255859375 1497.744384765625 181.5198974609375 C 1503.001708984375 189.8072967529297 1504.434814453125 197.9612884521484 1501.779663085938 204.4797973632812 C 1501.778198242188 204.4835815429688 1501.776611328125 204.4873504638672 1501.775024414062 204.4911346435547 C 1501.661499023438 204.7666320800781 1498.924194335938 211.3143463134766 1492.793212890625 217.9278564453125 C 1489.169311523438 221.8368530273438 1485.097045898438 224.9739685058594 1480.689331054688 227.2520446777344 C 1475.1494140625 230.1152954101562 1469.086669921875 231.6128082275391 1462.66943359375 231.7029876708984 C 1462.46240234375 231.7059020996094 1462.252319335938 231.7073669433594 1462.044921875 231.7073669433594 Z" stroke="none" fill="#000"/>
        </g>
        <ellipse id="Ellipse_687" data-name="Ellipse 687" cx="22.404" cy="39.658" rx="22.404" ry="39.658" transform="translate(0 38.858) rotate(-60.137)" fill="#fbfaf8"/>
        <ellipse id="Ellipse_688" data-name="Ellipse 688" cx="16.113" cy="28.522" rx="16.113" ry="28.522" transform="translate(13.299 36.514) rotate(-60.137)" fill="#efc9af"/>
        <ellipse id="Ellipse_689" data-name="Ellipse 689" cx="13.706" cy="24.262" rx="13.706" ry="24.262" transform="translate(15.075 36.092) rotate(-60.137)" fill="#ffdec5"/>
      </g>
    </g>
  </g>
</svg>
