<svg xmlns="http://www.w3.org/2000/svg" width="147.463" height="126.514" viewBox="0 0 147.463 126.514">
  <g id="Group_1507" data-name="Group 1507" transform="translate(-1535.761 -184.001)">
    <path id="Path_3041" data-name="Path 3041" d="M1204.29,224.615a2.5,2.5,0,0,1-2.256-1.664c-3.422-7.636-7.451-25.882,1.79-40.288a2.149,2.149,0,0,1,3.618-.371,4.281,4.281,0,0,1,.276,4.842c-9.113,14.208-1.6,31.559-1.278,32.292a4.147,4.147,0,0,1-.893,4.7A2.113,2.113,0,0,1,1204.29,224.615Z" transform="translate(343.992 418.621) rotate(-17)" fill="#fff"/>
    <g id="Group_1443" data-name="Group 1443" transform="translate(-6.397 88.363)">
      <path id="Path_3771" data-name="Path 3771" d="M1564.722,143.073s-33.841,39.351,6.662,67.3c0,0,19.81,13.856,55.5,1.323s22.168-62.278,6.118-73.813c-16.427-11.8-36.9-18.408-42.337-28.31-6.91-12.59-8.023,4.961-8.533,5.892S1580.334,125.644,1564.722,143.073Z" transform="translate(0.109 0.111)" fill="#833e81"/>
      <g id="Path_3772" data-name="Path 3772" transform="translate(0)" fill="none" stroke-linecap="round" stroke-linejoin="round">
        <path d="M1560.909,139.612s-34.444,39.824,5.7,69.93c0,0,19.626,14.916,56.056,2.984s25.695-66.178,8.28-76.213-37.215-16.678-42.368-30.579-7.865,4.949-8.407,5.9S1577.183,122.029,1560.909,139.612Z" stroke="none"/>
        <path d="M 1584.955688476562 100.6378173828125 C 1582.124145507812 100.6372680664062 1580.563354492188 110.9354400634766 1580.166137695312 111.6307830810547 C 1579.622802734375 112.5802001953125 1577.1826171875 122.0289306640625 1560.90869140625 139.6120758056641 C 1560.90869140625 139.6120758056641 1526.464233398438 179.4361267089844 1566.605102539062 209.541748046875 C 1566.605102539062 209.541748046875 1576.62158203125 217.1522521972656 1595.616943359375 217.1522521972656 C 1603.217041015625 217.1522521972656 1612.250732421875 215.9352874755859 1622.661010742188 212.5252380371094 C 1659.091430664062 200.5912780761719 1648.35595703125 146.3470001220703 1630.94091796875 136.3117828369141 C 1613.52587890625 126.2765808105469 1593.726196289062 119.6339416503906 1588.5732421875 105.7324981689453 C 1587.194458007812 102.0127716064453 1585.990112304688 100.6380157470703 1584.955688476562 100.6378173828125 M 1584.953735351562 95.6378173828125 C 1584.955078125 95.63784790039062 1584.955078125 95.6378173828125 1584.955444335938 95.6378173828125 C 1586.477294921875 95.63851928710938 1588.696044921875 96.18832397460938 1590.644287109375 98.80235290527344 C 1591.571411132812 100.0462036132812 1592.427490234375 101.74462890625 1593.261474609375 103.9946594238281 C 1594.68994140625 107.8483276367188 1597.724243164062 111.3404083251953 1602.810302734375 114.9844512939453 C 1607.78271484375 118.5470886230469 1614.013671875 121.7443542480469 1620.6103515625 125.1293487548828 C 1624.826416015625 127.2927703857422 1629.18603515625 129.5298156738281 1633.437255859375 131.9795837402344 C 1636.5087890625 133.7494812011719 1639.37255859375 136.5033721923828 1641.949096679688 140.1647644042969 C 1644.301635742188 143.5078735351562 1646.32373046875 147.4685668945312 1647.958984375 151.936767578125 C 1651.347045898438 161.1945343017578 1652.671142578125 171.5300750732422 1651.687255859375 181.0394744873047 C 1651.278442382812 184.9911041259766 1650.4716796875 188.7693481445312 1649.289306640625 192.269287109375 C 1648.008178710938 196.0617980957031 1646.276123046875 199.5550994873047 1644.140991210938 202.6521911621094 C 1641.835815429688 205.9960021972656 1639.037963867188 208.9113311767578 1635.824951171875 211.3171844482422 C 1632.426513671875 213.8618774414062 1628.521240234375 215.8669738769531 1624.217529296875 217.2767944335938 C 1614.341186523438 220.5119323730469 1604.718627929688 222.1522674560547 1595.616943359375 222.1522674560547 C 1590.95947265625 222.1522674560547 1586.411987304688 221.7202758789062 1582.100830078125 220.8682556152344 C 1578.618286132812 220.1800231933594 1575.277465820312 219.2167663574219 1572.171020507812 218.0052795410156 C 1566.894287109375 215.9473571777344 1564.000244140625 213.8393859863281 1563.599975585938 213.5378723144531 C 1556.97412109375 208.5676574707031 1551.80615234375 202.9916534423828 1548.238891601562 196.9642333984375 C 1545.030151367188 191.5423278808594 1543.069091796875 185.6862640380859 1542.410278320312 179.5586700439453 C 1541.828979492188 174.1523895263672 1542.257202148438 168.4947509765625 1543.68310546875 162.7428741455078 C 1544.801879882812 158.2292633056641 1546.535522460938 153.6468658447266 1548.835693359375 149.1229705810547 C 1552.733154296875 141.4575653076172 1556.949340820312 136.5465240478516 1557.126953125 136.3412017822266 C 1557.163696289062 136.2987823486328 1557.201049804688 136.2569732666016 1557.239135742188 136.2157897949219 C 1563.115966796875 129.8661804199219 1567.789794921875 123.9092407226562 1571.130859375 118.5104827880859 C 1573.713256835938 114.3374938964844 1574.728881835938 111.748291015625 1575.216918945312 110.5039825439453 C 1575.323364257812 110.2326812744141 1575.414916992188 109.9993438720703 1575.510986328125 109.7794799804688 C 1575.571411132812 109.5362548828125 1575.661987304688 109.1443634033203 1575.738403320312 108.8133239746094 C 1576.124267578125 107.1433258056641 1576.707397460938 104.61962890625 1577.54296875 102.3779602050781 C 1578.10400390625 100.8729705810547 1578.710327148438 99.67922973632812 1579.396362304688 98.72854614257812 C 1581.33642578125 96.04049682617188 1583.710327148438 95.63815307617188 1584.953735351562 95.6378173828125 L 1584.953735351562 95.6378173828125 Z" stroke="none" fill="#000"/>
      </g>
      <path id="Path_3773" data-name="Path 3773" d="M1584.756,115.344a64.308,64.308,0,0,1,.1,14.912,90.125,90.125,0,0,1-2.728,14.738,97.1,97.1,0,0,1-5.007,14.166c-.491,1.154-1.035,2.285-1.562,3.423-.524,1.094-1,2.157-1.415,3.275a35.677,35.677,0,0,0-1.789,6.884,39.745,39.745,0,0,0,.318,14.218,37.78,37.78,0,0,0,5.3,13.215,29.368,29.368,0,0,0,24.263,13.716,28.05,28.05,0,0,1-14.705-2.49,30.132,30.132,0,0,1-6.409-4.168,33.316,33.316,0,0,1-5.171-5.671,39.97,39.97,0,0,1-6.61-29.307,38.681,38.681,0,0,1,2.018-7.451c.459-1.2,1-2.4,1.569-3.524.543-1.094,1.1-2.181,1.612-3.292,1.05-2.207,2.01-4.458,2.9-6.737s1.737-4.575,2.473-6.91a107.8,107.8,0,0,0,3.527-14.278A80.531,80.531,0,0,0,1584.756,115.344Z" transform="translate(0.547 0.371)" fill="#542e54"/>
      <path id="Path_3774" data-name="Path 3774" d="M1608.706,212.51a108.062,108.062,0,0,0,13.7-9.8,69.666,69.666,0,0,0,11.481-12.03c3.2-4.45,5.672-9.48,6.279-14.78a24.016,24.016,0,0,0-3.543-15.239,48.445,48.445,0,0,0-10.885-12.129,146.194,146.194,0,0,0-13.593-9.74c-4.681-3.1-9.573-6-13.964-9.725a28.063,28.063,0,0,1-5.715-6.448,19.21,19.21,0,0,1-1.842-3.887,21.351,21.351,0,0,1-.915-4.155,20.225,20.225,0,0,0,3.534,7.514,28.377,28.377,0,0,0,5.955,5.7,83.1,83.1,0,0,0,7.013,4.543l7.29,4.279a122.007,122.007,0,0,1,14.125,9.609,48.645,48.645,0,0,1,11.615,12.891,26.258,26.258,0,0,1,3.727,17.139,33.146,33.146,0,0,1-7.242,15.809,64.651,64.651,0,0,1-12.436,11.761A85.752,85.752,0,0,1,1608.706,212.51Z" transform="translate(1.075 0.352)" fill="#542e54"/>
      <path id="Path_3775" data-name="Path 3775" d="M1586.865,115.344A185.21,185.21,0,0,0,1595.008,140a85.049,85.049,0,0,0,5.784,11.43c1.05,1.829,2.325,3.569,3.529,5.417s2.409,3.7,3.457,5.671a50.438,50.438,0,0,1,4.879,12.468,43.344,43.344,0,0,1,1.081,13.339,54.558,54.558,0,0,1-8.493,24.778c3.508-7.961,5.983-16.382,6.14-24.884a47.4,47.4,0,0,0-6.29-24.232c-1.034-1.854-2.129-3.684-3.3-5.487-1.15-1.809-2.434-3.6-3.532-5.554a75.63,75.63,0,0,1-5.545-12.047,106.893,106.893,0,0,1-3.7-12.626A103.893,103.893,0,0,1,1586.865,115.344Z" transform="translate(1.003 0.371)" fill="#542e54"/>
      <path id="Path_3776" data-name="Path 3776" d="M1613.278,159.343s-21.916,36.386,12.767,55.66c0,0,16.982,9.583,43.769-4.568s18.255-55.44-2.7-62.465c-15.014-5.034-30.813-8.814-36.465-19.379s-5.5,4.968-5.806,5.8S1623.779,143.145,1613.278,159.343Z" transform="translate(1.498 0.613)" fill="#b173ce" stroke="#000" stroke-miterlimit="10" stroke-width="3"/>
      <path id="Path_3777" data-name="Path 3777" d="M1626.3,164.588s-10.295,31.344,17,42.963c0,0,13.386,5.805,30.309-8.352s6.455-41.189-8.65-46.79c-10.938-4.056-25.259-6.381-30.77-14.189s-3.179,4.549-3.278,5.246S1631.41,150.555,1626.3,164.588Z" transform="translate(1.951 0.884)" fill="#e6e6e6"/>
      <path id="Path_3778" data-name="Path 3778" d="M1636.042,143.675s.636,17-4.45,31.306,6.833,33.531,22.565,29.876,26.857-11.76,25.426-23.2-7.787-19.07-18.593-22.089S1636.042,143.675,1636.042,143.675Z" transform="translate(2.103 1.087)" fill="#ea7b5e"/>
      <path id="Path_3779" data-name="Path 3779" d="M1641.166,154.493s.458,12.269-3.211,22.589,4.932,24.2,16.283,21.558,19.379-8.486,18.347-16.741-5.619-13.761-13.416-15.94S1641.166,154.493,1641.166,154.493Z" transform="translate(2.272 1.36)" fill="#eac692"/>
      <path id="Path_3780" data-name="Path 3780" d="M1639.755,179.414a2.369,2.369,0,0,0,2.645,1.136c1.757-.484,7.424-2.012,7.3-2.31s-6.326-1.688-8.312-1.1A1.994,1.994,0,0,0,1639.755,179.414Z" transform="translate(2.338 1.929)" fill="#e8a460"/>
      <path id="Path_3781" data-name="Path 3781" d="M1640.691,171.537a2.366,2.366,0,0,0,1.6,2.39c1.738.55,7.324,2.346,7.383,2.028s-4.393-4.855-6.381-5.439A1.992,1.992,0,0,0,1640.691,171.537Z" transform="translate(2.362 1.762)" fill="#e8a460"/>
      <path id="Path_3782" data-name="Path 3782" d="M1642.839,162.929a2.368,2.368,0,0,0,.512,2.833c1.372,1.2,5.772,5.083,5.953,4.815s-2.082-6.207-3.669-7.54A1.993,1.993,0,0,0,1642.839,162.929Z" transform="translate(2.41 1.56)" fill="#e8a460"/>
      <path id="Path_3783" data-name="Path 3783" d="M1651.308,163.9a2.368,2.368,0,0,0-1.324,2.556c.356,1.788,1.472,7.549,1.779,7.446s2.139-6.187,1.694-8.211A1.993,1.993,0,0,0,1651.308,163.9Z" transform="translate(2.596 1.597)" fill="#e8a460"/>
      <path id="Path_3784" data-name="Path 3784" d="M1663.049,169.183a2.419,2.419,0,0,0-2.441,1.639c-.56,1.776-2.391,7.485-2.066,7.544s4.956-4.492,5.552-6.524A2.035,2.035,0,0,0,1663.049,169.183Z" transform="translate(2.812 1.731)" fill="#e8a460"/>
      <path id="Path_3785" data-name="Path 3785" d="M1657.276,165.616a2.368,2.368,0,0,0-1.935,2.132c-.114,1.819-.51,7.674-.188,7.654s3.652-5.434,3.74-7.5A1.992,1.992,0,0,0,1657.276,165.616Z" transform="translate(2.724 1.641)" fill="#e8a460"/>
      <path id="Path_3786" data-name="Path 3786" d="M1669.181,175.931a2.418,2.418,0,0,0-2.928-.274c-1.556,1.021-6.585,4.286-6.371,4.537s6.681-.346,8.427-1.542A2.036,2.036,0,0,0,1669.181,175.931Z" transform="translate(2.847 1.885)" fill="#e8a460"/>
      <path id="Path_3787" data-name="Path 3787" d="M1640.951,186.68a2.368,2.368,0,0,1,1.345-2.545c1.671-.728,7.041-3.1,7.131-2.786s-3.863,5.285-5.779,6.075A1.993,1.993,0,0,1,1640.951,186.68Z" transform="translate(2.368 2.038)" fill="#e8a460"/>
      <path id="Path_3788" data-name="Path 3788" d="M1646.105,194.226a2.42,2.42,0,0,1-.322-2.923c1-1.574,4.178-6.655,4.433-6.445s-.237,6.685-1.4,8.45A2.036,2.036,0,0,1,1646.105,194.226Z" transform="translate(2.482 2.127)" fill="#e8a460"/>
      <path id="Path_3789" data-name="Path 3789" d="M1655.182,195.918a2.419,2.419,0,0,1-1.807-2.32c.021-1.862.064-7.857.391-7.811s3.307,5.814,3.24,7.93A2.036,2.036,0,0,1,1655.182,195.918Z" transform="translate(2.683 2.151)" fill="#e8a460"/>
      <path id="Path_3790" data-name="Path 3790" d="M1663.851,192.383a2.419,2.419,0,0,1-2.831-.8c-1.086-1.513-4.6-6.368-4.314-6.525s6.109,2.724,7.309,4.469A2.037,2.037,0,0,1,1663.851,192.383Z" transform="translate(2.766 2.132)" fill="#e8a460"/>
      <path id="Path_3791" data-name="Path 3791" d="M1669.043,185.1a2.419,2.419,0,0,1-2.839.767c-1.707-.742-7.218-3.105-7.049-3.389s6.642-.794,8.566.088A2.036,2.036,0,0,1,1669.043,185.1Z" transform="translate(2.829 2.057)" fill="#e8a460"/>
      <path id="Path_3792" data-name="Path 3792" d="M1565.484,197.475s-13.942-13.643-6.547-33.564" transform="translate(0.243 1.598)" fill="none" stroke="#fff" stroke-linecap="round" stroke-linejoin="round" stroke-width="3"/>
    </g>
  </g>
</svg>
