<svg xmlns="http://www.w3.org/2000/svg" width="145.903" height="120.251" viewBox="0 0 145.903 120.251">
  <g id="Group_1511" data-name="Group 1511" transform="translate(-236.428 -389.482)">
    <g id="Group_1510" data-name="Group 1510">
      <ellipse id="Ellipse_450" data-name="Ellipse 450" cx="45.103" cy="45.103" rx="45.103" ry="45.103" transform="translate(247.464 408.736)" fill="#569e2b"/>
      <g id="Ellipse_451" data-name="Ellipse 451" transform="translate(241.428 403.567)" fill="none" stroke="#000" stroke-miterlimit="10" stroke-width="5">
        <ellipse cx="47.122" cy="47.123" rx="47.122" ry="47.123" stroke="none"/>
        <ellipse cx="47.122" cy="47.123" rx="49.622" ry="49.623" fill="none"/>
      </g>
      <g id="Path_1786" data-name="Path 1786" transform="translate(-8.294 80.516)" fill="#5cbc2a" stroke-miterlimit="10">
        <path d="M 337.2804870605469 427.7169799804688 C 317.9419555664062 427.7169799804688 305.0423278808594 414.7889099121094 299.0742492675781 407.0826416015625 C 296.611328125 403.9113464355469 297.1875610351562 399.3246765136719 300.3600158691406 396.8597717285156 C 300.6962280273438 396.5978088378906 301.0634155273438 396.3615417480469 301.4497985839844 396.15869140625 L 380.2672729492188 354.8984069824219 C 381.0830383300781 354.470947265625 381.9992065429688 354.2448425292969 382.9161987304688 354.2448425292969 C 385.0517578125 354.2448425292969 386.993896484375 355.4193725585938 387.9846801757812 357.3100891113281 C 388.3218078613281 357.9547729492188 388.5307312011719 358.646728515625 388.6062316894531 359.3678894042969 C 389.0698547363281 363.7634582519531 389.2236633300781 368.20703125 389.0632629394531 372.5740051269531 C 388.8425903320312 378.5824890136719 388.0234680175781 384.2738952636719 386.6286315917969 389.4902038574219 C 384.8905639648438 395.9901733398438 382.2452087402344 401.7837524414062 378.7660827636719 406.7099914550781 C 374.6600036621094 412.5239562988281 369.3343505859375 417.20947265625 362.9370422363281 420.6363830566406 C 354.1652526855469 425.3347473144531 345.5331420898438 427.7169799804688 337.2804870605469 427.7169799804688 Z" stroke="none"/>
        <path d="M 337.2804870605469 426.2169799804688 C 344.6455688476562 426.2169799804688 352.9722595214844 424.2720947265625 362.228759765625 419.3141479492188 C 388.8357238769531 405.0612487792969 388.5286865234375 372.9332275390625 387.1143798828125 359.5240783691406 C 387.0588684082031 358.9938659667969 386.9031677246094 358.4788818359375 386.6560668945312 358.00634765625 C 385.5748596191406 355.9431762695312 383.0260925292969 355.1461791992188 380.9629516601562 356.2273254394531 L 302.1470031738281 397.48681640625 C 301.8421630859375 397.6468505859375 301.5514221191406 397.8330383300781 301.2803344726562 398.0442504882812 C 298.7566223144531 400.0050964355469 298.29931640625 403.6393432617188 300.2601928710938 406.1641845703125 C 306.1272888183594 413.7400512695312 318.6223449707031 426.2169799804688 337.2804870605469 426.2169799804688 M 337.2804870605469 429.2169799804688 C 317.3018798828125 429.2169799804688 304.0245666503906 415.9245300292969 297.8883056640625 408.0010681152344 C 294.9194030761719 404.1783142089844 295.6142578125 398.6475219726562 299.4397277832031 395.6752624511719 C 299.8445129394531 395.35986328125 300.2872924804688 395.0748291015625 300.7525939941406 394.83056640625 L 379.5715942382812 353.5694885253906 C 380.6007080078125 353.0301818847656 381.7576599121094 352.7448425292969 382.9161987304688 352.7448425292969 C 385.6114807128906 352.7448425292969 388.0627136230469 354.2273559570312 389.3132934570312 356.6138610839844 C 389.7391357421875 357.4281616210938 390.0027770996094 358.3014221191406 390.0980834960938 359.2117309570312 C 390.5689697265625 363.6764221191406 390.7252197265625 368.1914367675781 390.562255859375 372.6290588378906 C 390.3374633789062 378.7496948242188 389.5015258789062 384.552978515625 388.0777282714844 389.8776550292969 C 386.293701171875 396.5494384765625 383.5730590820312 402.5037841796875 379.9913330078125 407.5753173828125 C 375.7495727539062 413.5813903808594 370.2499694824219 418.4206237792969 363.6453552246094 421.9586181640625 C 354.6533203125 426.7749328613281 345.7829284667969 429.2169799804688 337.2804870605469 429.2169799804688 Z" stroke="none" fill="#000"/>
      </g>
      <path id="Path_1786-2" data-name="Path 1786" d="M306.159,397.3l72.084-37.924a4.014,4.014,0,0,1,5.307,1.434,3.562,3.562,0,0,1,.456,1.321c1.591,11.726,2.549,39.89-21.779,52.977-29.9,16.084-49.837-1.074-57.632-10.158a4.9,4.9,0,0,1,.773-7.141A5.352,5.352,0,0,1,306.159,397.3Z" transform="translate(-7.907 80.797)" fill="#fffee3"/>
      <path id="Path_1787" data-name="Path 1787" d="M313.634,395.5,371.07,365.41a7.9,7.9,0,0,1,11.543,6.2c1,10.914-1.087,27.351-19.46,37.169-22.311,11.921-39.625,6.623-49.836.564a7.921,7.921,0,0,1,.317-13.842Z" transform="translate(-7.374 81.293)" fill="#e0e56a"/>
      <g id="Group_1042" data-name="Group 1042" transform="translate(323.198 462.412)">
        <line id="Line_360" data-name="Line 360" x1="16.132" y2="22.97" transform="translate(0 0)" fill="none" stroke="#f4f0c1" stroke-linecap="round" stroke-linejoin="round" stroke-width="3"/>
        <line id="Line_361" data-name="Line 361" x2="5.675" y2="26.383" transform="translate(16.376 0.726)" fill="none" stroke="#f4f0c1" stroke-linecap="round" stroke-linejoin="round" stroke-width="3"/>
        <line id="Line_362" data-name="Line 362" x1="23.218" y1="17.673" transform="translate(16.132 0)" fill="none" stroke="#f4f0c1" stroke-linecap="round" stroke-linejoin="round" stroke-width="3"/>
        <line id="Line_363" data-name="Line 363" x1="30.782" y1="5.039" transform="translate(16.132 0)" fill="none" stroke="#f4f0c1" stroke-linecap="round" stroke-linejoin="round" stroke-width="3"/>
      </g>
      <ellipse id="Ellipse_106" data-name="Ellipse 106" cx="1.03" cy="2.985" rx="1.03" ry="2.985" transform="translate(344.16 465.653) rotate(-63.621)" fill="#ff9d00"/>
      <ellipse id="Ellipse_106-2" data-name="Ellipse 106" cx="3.658" cy="1.263" rx="3.658" ry="1.263" transform="matrix(0.138, -0.99, 0.99, 0.138, 336.082, 473.134)" fill="#ff9d00"/>
      <path id="Path_2836" data-name="Path 2836" d="M297.275,333.19s.212-17.029,16.041-17.981" transform="translate(-8.45 76.918)" fill="none" stroke="#000" stroke-linecap="round" stroke-linejoin="round" stroke-width="5"/>
      <ellipse id="Ellipse_457" data-name="Ellipse 457" cx="2.213" cy="2.213" rx="2.213" ry="2.213" transform="translate(256.655 463.894)" fill="#3f771c"/>
      <ellipse id="Ellipse_458" data-name="Ellipse 458" cx="2.213" cy="2.213" rx="2.213" ry="2.213" transform="translate(271.516 466.107)" fill="#3f771c"/>
      <ellipse id="Ellipse_459" data-name="Ellipse 459" cx="2.213" cy="2.213" rx="2.213" ry="2.213" transform="translate(272.457 454.237)" fill="#3f771c"/>
      <ellipse id="Ellipse_460" data-name="Ellipse 460" cx="2.213" cy="2.213" rx="2.213" ry="2.213" transform="translate(257.516 450.945)" fill="#3f771c"/>
      <ellipse id="Ellipse_461" data-name="Ellipse 461" cx="2.213" cy="2.213" rx="2.213" ry="2.213" transform="translate(264.702 476.348)" fill="#3f771c"/>
      <ellipse id="Ellipse_462" data-name="Ellipse 462" cx="2.169" cy="2.169" rx="2.169" ry="2.169" transform="translate(276.18 485.932)" fill="#3f771c"/>
      <ellipse id="Ellipse_463" data-name="Ellipse 463" cx="2.213" cy="2.213" rx="2.213" ry="2.213" transform="translate(284.399 471.41)" fill="#3f771c"/>
      <path id="Path_2837" data-name="Path 2837" d="M267.043,364.606a2.758,2.758,0,0,1-.965-2.6c1.211-7.017,7.478-20.857,22.526-23.02a2.778,2.778,0,0,1,3.137,2.33,2.725,2.725,0,0,1-2.308,3.113c-14.842,2.133-17.81,17.892-17.928,18.561a2.732,2.732,0,0,1-3.187,2.206A2.779,2.779,0,0,1,267.043,364.606Z" transform="translate(-11.223 79.027)" fill="#fff"/>
    </g>
  </g>
</svg>
