<svg xmlns="http://www.w3.org/2000/svg" width="133.396" height="147.388" viewBox="0 0 133.396 147.388">
  <g id="Group_1516" data-name="Group 1516" transform="translate(-985.547 -362.355)">
    <g id="Group_1449" data-name="Group 1449" transform="translate(1.018 79.131)">
      <path id="Path_3814" data-name="Path 3814" d="M1063.9,357.462c-7.506-9.47-9.62-32.4-9.952-34.531-1.939-12.45-12.187-15.932-19.757-15.918-8.575.016-14.359,6.093-16.857,11.386-1.548,3.281-2.914,11.856-4.026,16.918-2,9.121-6.976,18.245-9.172,21.982-.628,1.069-10.033,10.959-10.618,29.883-.579,18.7,19.474,34.224,38.7,33.923,22.171-.347,37.507-18.639,37.925-39.948C1070.246,376.131,1070.18,365.384,1063.9,357.462Z" fill="#f9db5d"/>
      <g id="Path_3815" data-name="Path 3815" fill="none" stroke-linecap="round" stroke-linejoin="round">
        <path d="M1059.962,355.606c-7.514-9.524-9.637-32.578-9.97-34.72-1.943-12.518-12.2-16.023-19.774-16.011-8.582.013-14.368,6.121-16.865,11.442-1.549,3.3-2.913,11.92-4.024,17.008-2,9.17-6.974,18.341-9.171,22.1-.628,1.074-10.036,11.014-10.616,30.04-.573,18.8,19.5,34.416,38.742,34.12,22.185-.342,37.526-18.728,37.937-40.153C1066.318,374.377,1066.248,363.573,1059.962,355.606Z" stroke="none"/>
        <path d="M 1030.256713867188 304.8749694824219 C 1030.243774414062 304.8749694824219 1030.23095703125 304.8749694824219 1030.218017578125 304.875 C 1021.635986328125 304.8880004882812 1015.849975585938 310.9960021972656 1013.35302734375 316.3169860839844 C 1011.803955078125 319.6159973144531 1010.43994140625 328.2369995117188 1009.328979492188 333.3250122070312 C 1007.328002929688 342.4949951171875 1002.35498046875 351.6659851074219 1000.157958984375 355.4230041503906 C 999.530029296875 356.4970092773438 990.1220703125 366.43701171875 989.5419921875 385.4630126953125 C 988.974365234375 404.0834655761719 1008.667236328125 419.5871276855469 1027.744995117188 419.5871276855469 C 1027.9248046875 419.5871276855469 1028.104370117188 419.5857543945312 1028.284057617188 419.5830078125 C 1050.468994140625 419.2409973144531 1065.81005859375 400.8550109863281 1066.220947265625 379.4299926757812 C 1066.317993164062 374.3770141601562 1066.248046875 363.572998046875 1059.962036132812 355.6059875488281 C 1052.447998046875 346.0820007324219 1050.324951171875 323.0280151367188 1049.991943359375 320.885986328125 C 1048.05224609375 308.389404296875 1037.826904296875 304.875 1030.256713867188 304.8749694824219 M 1030.256713867188 299.8749694824219 L 1030.256713867188 299.8749694824219 C 1032.725341796875 299.8749694824219 1035.161987304688 300.1777954101562 1037.499145507812 300.7750549316406 C 1040.23876953125 301.4751281738281 1042.7509765625 302.5619506835938 1044.9658203125 304.0053100585938 C 1047.550415039062 305.6897888183594 1049.699462890625 307.8402099609375 1051.35302734375 310.3968811035156 C 1053.160888671875 313.1922302246094 1054.365356445312 316.4632568359375 1054.932861328125 320.1190795898438 C 1054.9775390625 320.4068908691406 1055.025634765625 320.8022766113281 1055.105224609375 321.4572448730469 C 1055.4189453125 324.0373840332031 1056.1533203125 330.0795593261719 1057.620849609375 336.4734191894531 C 1059.785888671875 345.9062805175781 1062.2236328125 350.4001770019531 1063.887451171875 352.5090026855469 C 1067.115234375 356.5999755859375 1069.3076171875 361.7149963378906 1070.403686523438 367.7117919921875 C 1071.240478515625 372.2900390625 1071.279541015625 376.4303894042969 1071.219970703125 379.5259704589844 C 1071.107177734375 385.4144287109375 1069.990234375 391.127197265625 1067.900146484375 396.5054931640625 C 1065.821166992188 401.8557434082031 1062.865600585938 406.6577453613281 1059.115478515625 410.778076171875 C 1055.2568359375 415.0178527832031 1050.71240234375 418.3619689941406 1045.6083984375 420.717529296875 C 1040.255126953125 423.1881713867188 1034.452270507812 424.4884948730469 1028.361083984375 424.5823974609375 C 1028.156494140625 424.5855407714844 1027.949340820312 424.5871276855469 1027.744995117188 424.5871276855469 C 1021.840087890625 424.5871276855469 1015.680786132812 423.2608337402344 1009.932983398438 420.7515563964844 C 1004.315795898438 418.29931640625 999.1676025390625 414.7565307617188 995.0447998046875 410.5062561035156 C 991.67724609375 407.0343933105469 989.0592041015625 403.1883544921875 987.2635498046875 399.0750122070312 C 985.316650390625 394.6155090332031 984.40185546875 389.9844970703125 984.5443115234375 385.3106384277344 C 984.784423828125 377.4356384277344 986.4427490234375 370.0429077148438 989.47314453125 363.3377380371094 C 991.9268798828125 357.9085388183594 994.5867919921875 354.4770812988281 995.72265625 353.0117492675781 C 995.795654296875 352.9176025390625 995.880859375 352.8077697753906 995.9405517578125 352.7295532226562 C 997.9635009765625 349.2505493164062 1002.611450195312 340.6568298339844 1004.443969726562 332.259033203125 C 1004.724975585938 330.9720153808594 1005.028930664062 329.4182739257812 1005.350830078125 327.7733459472656 C 1006.564453125 321.5713500976562 1007.524169921875 316.9668273925781 1008.8271484375 314.1918334960938 C 1010.557495117188 310.5045471191406 1013.26171875 307.1165771484375 1016.441284179688 304.6530456542969 C 1018.341186523438 303.1809692382812 1020.4091796875 302.0283813476562 1022.587890625 301.2272338867188 C 1025.01708984375 300.3339538574219 1027.581787109375 299.8789672851562 1030.21044921875 299.875 L 1030.256713867188 299.8749694824219 Z" stroke="none" fill="#000"/>
      </g>
      <g id="Group_1448" data-name="Group 1448">
        <path id="Path_3816" data-name="Path 3816" d="M1062.059,364.4c9.986-1.513,16.77-8.3,20.919-13.494a69.012,69.012,0,0,1,5.2-6.436c6.359-6.034,16.088-4.516,22.8,2.562,15.742,18.329-7.61,32.909-7.522,47.939a55.762,55.762,0,0,1-.249,7.2,47.722,47.722,0,0,1-1.49,7.358c-1.309,4.542-3.5,9.573-7.117,12.67-13.074,11.19-34.861,7.9-46.474-3.713-13.543-13.543-13.749-34.76-1.265-46.6A28.709,28.709,0,0,1,1062.059,364.4Z" fill="#f7db66" stroke="#000" stroke-miterlimit="10" stroke-width="3"/>
        <path id="Path_3817" data-name="Path 3817" d="M1064.9,365.049c9.056-1.759,15.092-8.433,19.038-13.26a80.318,80.318,0,0,1,4.925-6.346c5.971-5.665,15.662-3.075,21.425,3,5.531,5.83,4.207,16.006.3,20.545.013.011-9.6,14.125-11.847,19.924a46.113,46.113,0,0,0-2.305,8.738c-1.246,7.09-11.947,17.589-18.4,20.6-12.784,5.955-29.288-.759-32.42-5.143-9.156-12.818-8.631-29.642,3.09-40.762C1052.734,368.515,1059.8,366.108,1064.9,365.049Z" fill="#fff5e9"/>
        <ellipse id="Ellipse_726" data-name="Ellipse 726" cx="12.718" cy="8.873" rx="12.718" ry="8.873" transform="translate(1057.501 386.671) rotate(-48.357)" fill="#ffdcb3"/>
        <ellipse id="Ellipse_727" data-name="Ellipse 727" cx="4.672" cy="2.101" rx="4.672" ry="2.101" transform="translate(1065.904 381.841) rotate(-41.185)" fill="#6d3609"/>
        <ellipse id="Ellipse_728" data-name="Ellipse 728" cx="4.672" cy="2.101" rx="4.672" ry="2.101" transform="translate(1070.824 386.189) rotate(-41.185)" fill="#6d3609"/>
      </g>
      <path id="Path_3818" data-name="Path 3818" d="M1031.728,301.778s1.26-11.116-5.5-15.128" fill="none" stroke="#000" stroke-linecap="round" stroke-linejoin="round" stroke-width="5"/>
      <circle id="Ellipse_729" data-name="Ellipse 729" cx="2.385" cy="2.385" r="2.385" transform="translate(1016.485 383.63)" fill="#c93"/>
      <circle id="Ellipse_730" data-name="Ellipse 730" cx="2.385" cy="2.385" r="2.385" transform="translate(1003.01 394.175)" fill="#c93"/>
      <circle id="Ellipse_731" data-name="Ellipse 731" cx="2.385" cy="2.385" r="2.385" transform="translate(1001.104 378.86)" fill="#c93"/>
      <circle id="Ellipse_732" data-name="Ellipse 732" cx="2.385" cy="2.385" r="2.385" transform="translate(1022.314 394.175)" fill="#c93"/>
      <circle id="Ellipse_733" data-name="Ellipse 733" cx="2.385" cy="2.385" r="2.385" transform="translate(1015.026 405.353)" fill="#c93"/>
      <path id="Path_3819" data-name="Path 3819" d="M1031.821,311.276s-15.217,4.7-11.372,21.736" fill="none" stroke="#fff" stroke-linecap="round" stroke-linejoin="round" stroke-width="5"/>
    </g>
  </g>
</svg>
