<svg xmlns="http://www.w3.org/2000/svg" width="80.15" height="139.887" viewBox="0 0 80.15 139.887">
  <g id="Group_1518" data-name="Group 1518" transform="translate(-1198.456 -365.742)">
    <g id="Group_1517" data-name="Group 1517">
      <path id="Path_2571" data-name="Path 2571" d="M1209.857,322.406s25.95-9.686,41.246,10.23c-5.023,14.581-4.986,10.2-4.986,10.2S1242.338,331.863,1209.857,322.406Z" transform="translate(-8.401 77.467)" fill="#3c9900"/>
      <path id="Path_2572" data-name="Path 2572" d="M1284.007,322.406s-25.95-9.686-41.246,10.23c5.023,14.581,4.986,10.2,4.986,10.2S1251.526,331.863,1284.007,322.406Z" transform="translate(-8.401 77.467)" fill="#3c9900"/>
      <path id="Path_2573" data-name="Path 2573" d="M1215.049,303.815s27.694-.542,35.528,23.317c-9.571,12.094-8.084,7.973-8.084,7.973S1242.563,323.5,1215.049,303.815Z" transform="translate(-8.401 77.467)" fill="#3c9900"/>
      <path id="Path_2574" data-name="Path 2574" d="M1228.985,293.069s25.591,10.6,23.211,35.6c-13.614,7.247-10.6,4.066-10.6,4.066S1246.309,322.127,1228.985,293.069Z" transform="translate(-8.401 77.467)" fill="#3c9900"/>
      <path id="Path_2575" data-name="Path 2575" d="M1278.758,301.809s-27.694-.542-35.528,23.317c9.571,12.094,8.084,7.973,8.084,7.973S1251.244,321.493,1278.758,301.809Z" transform="translate(-8.401 77.467)" fill="#3c9900"/>
      <path id="Path_2576" data-name="Path 2576" d="M1265.382,293.974s-26.008,9.53-24.663,34.606c13.3,7.8,10.424,4.5,10.424,4.5S1246.871,322.29,1265.382,293.974Z" transform="translate(-8.401 77.467)" fill="#3c9900"/>
      <g id="Path_2577" data-name="Path 2577" transform="translate(-8.401 77.467)" fill="none" stroke-linecap="round" stroke-linejoin="round">
        <path d="M1256.45,320.542c3.842-5.186,10.552-12.116,22.308-20.526a45.366,45.366,0,0,0-21.267,5.707,140.492,140.492,0,0,1,7.891-13.543s-11.119,4.078-18.441,13.911c-6.9-10.236-17.956-14.816-17.956-14.816a130.071,130.071,0,0,1,8.846,17.391c-10.516-6.875-22.782-6.644-22.782-6.644,9.768,6.988,16.047,12.951,20.1,17.745-12.772-3.818-25.291.845-25.291.845,32.481,9.458,36.26,20.431,36.26,20.431s-.009,1.318.815.088c.825,1.23.815-.088.815-.088s3.779-10.973,36.26-20.431C1284.007,320.612,1269.964,315.385,1256.45,320.542Z" stroke="none"/>
        <path d="M 1247.493041992188 341.65576171875 C 1247.751586914062 341.6558227539062 1247.746948242188 341.0429992675781 1247.746948242188 341.0429992675781 C 1247.746948242188 341.0429992675781 1251.526000976562 330.0700073242188 1284.006958007812 320.6119995117188 C 1284.006958007812 320.6119995117188 1269.964111328125 315.3849182128906 1256.449951171875 320.5419921875 C 1260.2919921875 315.3559875488281 1267.001953125 308.4259948730469 1278.758056640625 300.0159912109375 C 1278.758178710938 300.0160217285156 1267.634155273438 299.8069458007812 1257.490966796875 305.7229919433594 C 1259.4990234375 301.7409973144531 1262.071044921875 297.2460021972656 1265.381958007812 292.1799926757812 C 1265.381958007812 292.1799926757812 1254.262939453125 296.2579956054688 1246.941040039062 306.0910034179688 C 1240.038940429688 295.8550109863281 1228.984985351562 291.2749938964844 1228.984985351562 291.2749938964844 C 1233.02099609375 298.0450134277344 1235.848999023438 303.8009948730469 1237.8310546875 308.6659851074219 C 1227.314575195312 301.790771484375 1215.04833984375 302.0220947265625 1215.048950195312 302.0220031738281 C 1224.817016601562 309.010009765625 1231.095947265625 314.9729919433594 1235.14794921875 319.7669982910156 C 1222.376098632812 315.9490356445312 1209.857055664062 320.6119995117188 1209.857055664062 320.6119995117188 C 1242.338012695312 330.0700073242188 1246.116943359375 341.0429992675781 1246.116943359375 341.0429992675781 C 1246.116943359375 341.0429992675781 1246.108276367188 342.3604736328125 1246.932006835938 341.1310119628906 C 1247.194458007812 341.5222778320312 1247.372436523438 341.6557312011719 1247.493041992188 341.65576171875 M 1247.4931640625 344.65576171875 C 1247.492797851562 344.65576171875 1247.492431640625 344.65576171875 1247.4921875 344.65576171875 C 1247.301147460938 344.6557006835938 1247.114501953125 344.6398315429688 1246.932373046875 344.6082763671875 C 1246.749877929688 344.639892578125 1246.562744140625 344.65576171875 1246.371337890625 344.65576171875 C 1245.525146484375 344.65576171875 1244.729248046875 344.3236694335938 1244.130249023438 343.7206115722656 C 1243.559448242188 343.1459350585938 1243.302490234375 342.4561767578125 1243.192626953125 341.8709411621094 C 1242.810302734375 341.1784973144531 1241.412353515625 339.0230407714844 1237.558227539062 336.1562194824219 C 1234.770751953125 334.0827941894531 1231.2763671875 332.0592041015625 1227.172119140625 330.1416931152344 C 1222.033813476562 327.7409362792969 1215.925903320312 325.5037841796875 1209.018310546875 323.4923706054688 C 1207.776611328125 323.1307983398438 1206.906372070312 322.0141906738281 1206.859008789062 320.7218017578125 C 1206.811767578125 319.4293823242188 1207.598022460938 318.2521057128906 1208.809936523438 317.8006896972656 C 1209.087890625 317.6971435546875 1215.718383789062 315.2645263671875 1224.3828125 315.2645263671875 C 1225.17578125 315.2645263671875 1225.961791992188 315.2850341796875 1226.73974609375 315.3258972167969 C 1222.972412109375 311.7986755371094 1218.4794921875 308.164794921875 1213.303466796875 304.4619445800781 C 1212.252685546875 303.710205078125 1211.804931640625 302.3700866699219 1212.1865234375 301.1357421875 C 1212.568237304688 299.9014282226562 1213.700927734375 299.0499877929688 1214.99267578125 299.0225219726562 C 1214.99267578125 299.0225219726562 1215.060424804688 299.0210876464844 1215.19140625 299.0210876464844 C 1216.115966796875 299.0210876464844 1219.478515625 299.0907287597656 1223.931274414062 299.9867553710938 C 1226.610595703125 300.5259094238281 1229.158569335938 301.2529296875 1231.562133789062 302.1625061035156 C 1230.051513671875 299.1590881347656 1228.329467773438 296.0340576171875 1226.408203125 292.8111877441406 C 1225.74609375 291.7005920410156 1225.869995117188 290.2906799316406 1226.7158203125 289.3126831054688 C 1227.561645507812 288.3346557617188 1228.938842773438 288.0085144042969 1230.13330078125 288.5034790039062 C 1230.25732421875 288.5548400878906 1233.214111328125 289.7911071777344 1237.042114257812 292.3505554199219 C 1239.280639648438 293.8471984863281 1241.375366210938 295.4996948242188 1243.26806640625 297.2621765136719 C 1244.636596679688 298.5365600585938 1245.902099609375 299.8717041015625 1247.053588867188 301.2546691894531 C 1248.2529296875 299.9428100585938 1249.560791015625 298.6824035644531 1250.965942382812 297.4853820800781 C 1252.919799804688 295.8209838867188 1255.06689453125 294.2733154296875 1257.34765625 292.8853759765625 C 1261.248657226562 290.5113830566406 1264.224243164062 289.4092102050781 1264.348999023438 289.3634338378906 C 1265.562744140625 288.9183654785156 1266.925415039062 289.3008422851562 1267.730224609375 290.31298828125 C 1268.534912109375 291.3250732421875 1268.6005859375 292.7388916015625 1267.893188476562 293.8212280273438 C 1266.657592773438 295.7118530273438 1265.492919921875 297.5746154785156 1264.403930664062 299.401123046875 C 1266.373291015625 298.7658996582031 1268.427856445312 298.2471313476562 1270.558471679688 297.8481750488281 C 1274.6865234375 297.0751647949219 1277.769653320312 297.0150756835938 1278.6162109375 297.0150756835938 C 1278.746704101562 297.0150756835938 1278.814575195312 297.0165405273438 1278.814575195312 297.0165405273438 C 1280.106201171875 297.0440368652344 1281.238891601562 297.8955078125 1281.620483398438 299.1298217773438 C 1282.002075195312 300.3641662597656 1281.554321289062 301.7042541503906 1280.503540039062 302.4559326171875 C 1275.181640625 306.2630920410156 1270.536743164062 310.0350952148438 1266.698120117188 313.6671447753906 C 1266.043823242188 314.2862548828125 1265.41162109375 314.9024353027344 1264.802490234375 315.5147705078125 C 1266.330932617188 315.3504943847656 1267.894897460938 315.2680053710938 1269.490600585938 315.2680053710938 C 1278.1494140625 315.2680053710938 1284.775512695312 317.697021484375 1285.053344726562 317.8004150390625 C 1286.265502929688 318.2515563964844 1287.052124023438 319.4288330078125 1287.005004882812 320.7214050292969 C 1286.957763671875 322.0139465332031 1286.087524414062 323.1307678222656 1284.845703125 323.4923706054688 C 1277.938110351562 325.5037841796875 1271.830200195312 327.7409362792969 1266.691772460938 330.1416931152344 C 1262.587646484375 332.0592346191406 1259.09326171875 334.0828247070312 1256.305786132812 336.15625 C 1252.452758789062 339.022216796875 1251.054443359375 341.1772155761719 1250.671630859375 341.8703308105469 C 1250.56201171875 342.4555358886719 1250.305297851562 343.14501953125 1249.734985351562 343.7197265625 C 1249.135986328125 344.3233337402344 1248.339721679688 344.65576171875 1247.4931640625 344.65576171875 Z" stroke="none" fill="#000"/>
      </g>
      <g id="Group_1012" data-name="Group 1012" transform="translate(-8.401 77.467)">
        <g id="Rectangle_1104" data-name="Rectangle 1104" transform="translate(1213.422 338.842)" fill="#fff" stroke="#000" stroke-miterlimit="10" stroke-width="4">
          <rect width="67.021" height="85.32" rx="30.54" stroke="none"/>
          <rect x="-2" y="-2" width="71.021" height="89.32" rx="32.54" fill="none"/>
        </g>
        <rect id="Rectangle_1105" data-name="Rectangle 1105" width="63.084" height="80.307" rx="30.163" transform="translate(1217.86 343.135)" fill="#ffd72e"/>
        <line id="Line_344" data-name="Line 344" x2="28.185" y2="28.185" transform="translate(1222.957 392.118)" fill="none" stroke="#ff9f06" stroke-linecap="round" stroke-linejoin="round" stroke-width="3"/>
        <line id="Line_345" data-name="Line 345" x2="41.592" y2="41.592" transform="translate(1222.947 374.826)" fill="none" stroke="#ff9f06" stroke-linecap="round" stroke-linejoin="round" stroke-width="3"/>
        <line id="Line_346" data-name="Line 346" x2="46.192" y2="46.192" transform="translate(1227.42 362.017)" fill="none" stroke="#ff9f06" stroke-linecap="round" stroke-linejoin="round" stroke-width="3"/>
        <line id="Line_347" data-name="Line 347" x2="42.72" y2="42.72" transform="translate(1236.132 353.446)" fill="none" stroke="#ff9f06" stroke-linecap="round" stroke-linejoin="round" stroke-width="3"/>
        <line id="Line_348" data-name="Line 348" x2="30.485" y2="30.485" transform="translate(1248.367 348.399)" fill="none" stroke="#ff9f06" stroke-linecap="round" stroke-linejoin="round" stroke-width="3"/>
        <line id="Line_349" data-name="Line 349" x1="27.551" y2="27.551" transform="translate(1251.406 392.488)" fill="none" stroke="#ff9f06" stroke-linecap="round" stroke-linejoin="round" stroke-width="3"/>
        <line id="Line_350" data-name="Line 350" x1="41.441" y2="41.441" transform="translate(1237.844 374.877)" fill="none" stroke="#ff9f06" stroke-linecap="round" stroke-linejoin="round" stroke-width="3"/>
        <line id="Line_351" data-name="Line 351" x1="46.06" y2="46.06" transform="translate(1228.673 362.147)" fill="none" stroke="#ff9f06" stroke-linecap="round" stroke-linejoin="round" stroke-width="3"/>
        <line id="Line_352" data-name="Line 352" x1="42.806" y2="42.806" transform="translate(1223.541 353.251)" fill="none" stroke="#ff9f06" stroke-linecap="round" stroke-linejoin="round" stroke-width="3"/>
        <line id="Line_353" data-name="Line 353" x1="30.545" y2="30.545" transform="translate(1222.921 348.85)" fill="none" stroke="#ff9f06" stroke-linecap="round" stroke-linejoin="round" stroke-width="3"/>
      </g>
    </g>
  </g>
</svg>
