<svg xmlns="http://www.w3.org/2000/svg" width="146.693" height="101.484" viewBox="0 0 146.693 101.484">
  <g id="Group_1519" data-name="Group 1519" transform="translate(-1351.109 -408.895)">
    <g id="Group_1454" data-name="Group 1454" transform="translate(-7.593 82.271)">
      <g id="Group_1451" data-name="Group 1451" transform="translate(1432.537 357.404)">
        <g id="Group_1450" data-name="Group 1450" transform="translate(0 0)">
          <ellipse id="Ellipse_734" data-name="Ellipse 734" cx="22.28" cy="20.431" rx="22.28" ry="20.431" transform="translate(0 32.765) rotate(-46.619)" fill="#ad1040" stroke="#000" stroke-miterlimit="10" stroke-width="1"/>
          <ellipse id="Ellipse_735" data-name="Ellipse 735" cx="7.319" cy="9.829" rx="7.319" ry="9.829" transform="translate(37.882 48.046) rotate(-56.093)" fill="#ea4772" stroke="#b51c3d" stroke-miterlimit="10" stroke-width="1"/>
          <ellipse id="Ellipse_736" data-name="Ellipse 736" cx="7.319" cy="9.829" rx="7.319" ry="9.829" transform="translate(32.42 55.991) rotate(-56.093)" fill="#ea4772" stroke="#b51c3d" stroke-miterlimit="10" stroke-width="1"/>
          <ellipse id="Ellipse_737" data-name="Ellipse 737" cx="7.319" cy="9.829" rx="7.319" ry="9.829" transform="translate(22.473 50.987) rotate(-22.223)" fill="#ea4772" stroke="#b51c3d" stroke-miterlimit="10" stroke-width="1"/>
          <ellipse id="Ellipse_738" data-name="Ellipse 738" cx="7.319" cy="8.763" rx="7.319" ry="8.763" transform="matrix(0.397, -0.918, 0.918, 0.397, 0.448, 27.176)" fill="#ea4772" stroke="#b51c3d" stroke-miterlimit="10" stroke-width="1"/>
          <ellipse id="Ellipse_739" data-name="Ellipse 739" cx="7.319" cy="8.899" rx="7.319" ry="8.899" transform="translate(4.406 17.901) rotate(-52.214)" fill="#ea4772" stroke="#b51c3d" stroke-miterlimit="10" stroke-width="1"/>
          <ellipse id="Ellipse_740" data-name="Ellipse 740" cx="7.319" cy="8.207" rx="7.319" ry="8.207" transform="translate(13.127 7.003) rotate(-24.929)" fill="#ea4772" stroke="#b51c3d" stroke-miterlimit="10" stroke-width="1"/>
          <ellipse id="Ellipse_741" data-name="Ellipse 741" cx="7.319" cy="9.829" rx="7.319" ry="9.829" transform="matrix(0.397, -0.918, 0.918, 0.397, 43.557, 42.302)" fill="#ea4772" stroke="#b51c3d" stroke-miterlimit="10" stroke-width="1"/>
          <ellipse id="Ellipse_742" data-name="Ellipse 742" cx="7.319" cy="8.556" rx="7.319" ry="8.556" transform="matrix(0.09, -0.996, 0.996, 0.09, 0.074, 42.2)" fill="#ea4772" stroke="#b51c3d" stroke-miterlimit="10" stroke-width="1"/>
          <ellipse id="Ellipse_743" data-name="Ellipse 743" cx="8.698" cy="7.319" rx="8.698" ry="7.319" transform="translate(0.945 45.95) rotate(-40.532)" fill="#ea4772" stroke="#b51c3d" stroke-miterlimit="10" stroke-width="1"/>
          <circle id="Ellipse_744" data-name="Ellipse 744" cx="7.319" cy="7.319" r="7.319" transform="translate(10.393 44.658)" fill="#ea4772" stroke="#b51c3d" stroke-miterlimit="10" stroke-width="1"/>
          <ellipse id="Ellipse_745" data-name="Ellipse 745" cx="7.319" cy="8.437" rx="7.319" ry="8.437" transform="translate(32.236 55.058) rotate(-27.474)" fill="#ea4772" stroke="#b51c3d" stroke-miterlimit="10" stroke-width="1"/>
          <ellipse id="Ellipse_746" data-name="Ellipse 746" cx="7.712" cy="8.117" rx="7.712" ry="8.117" transform="translate(40.596 54.466) rotate(-40.532)" fill="#ea4772" stroke="#b51c3d" stroke-miterlimit="10" stroke-width="1"/>
          <ellipse id="Ellipse_747" data-name="Ellipse 747" cx="7.319" cy="9.087" rx="7.319" ry="9.087" transform="translate(44.533 47.885) rotate(-52.214)" fill="#ea4772" stroke="#b51c3d" stroke-miterlimit="10" stroke-width="1"/>
          <ellipse id="Ellipse_748" data-name="Ellipse 748" cx="8.561" cy="9.829" rx="8.561" ry="9.829" transform="translate(46.585 36.016) rotate(-59.928)" fill="#ea4772" stroke="#b51c3d" stroke-miterlimit="10" stroke-width="1"/>
          <ellipse id="Ellipse_749" data-name="Ellipse 749" cx="7.319" cy="8.834" rx="7.319" ry="8.834" transform="translate(46.363 43.776) rotate(-59.928)" fill="#ea4772" stroke="#b51c3d" stroke-miterlimit="10" stroke-width="1"/>
          <ellipse id="Ellipse_750" data-name="Ellipse 750" cx="9.544" cy="7.319" rx="9.544" ry="7.319" transform="translate(43.675 15.257) rotate(-4.922)" fill="#ea4772" stroke="#b51c3d" stroke-miterlimit="10" stroke-width="1"/>
          <ellipse id="Ellipse_751" data-name="Ellipse 751" cx="8.743" cy="7.319" rx="8.743" ry="7.319" transform="matrix(0.255, -0.967, 0.967, 0.255, 22.782, 16.911)" fill="#ea4772" stroke="#b51c3d" stroke-miterlimit="10" stroke-width="1"/>
          <ellipse id="Ellipse_752" data-name="Ellipse 752" cx="8.471" cy="7.319" rx="8.471" ry="7.319" transform="translate(29.892 17.484) rotate(-64.888)" fill="#ea4772" stroke="#b51c3d" stroke-miterlimit="10" stroke-width="1"/>
          <ellipse id="Ellipse_753" data-name="Ellipse 753" cx="7.956" cy="9.15" rx="7.956" ry="9.15" transform="matrix(0.981, -0.193, 0.193, 0.981, 17.181, 47.09)" fill="#ea4772" stroke="#b51c3d" stroke-miterlimit="10" stroke-width="1"/>
          <ellipse id="Ellipse_754" data-name="Ellipse 754" cx="7.319" cy="9.32" rx="7.319" ry="9.32" transform="translate(31.908 43.701) rotate(-40.532)" fill="#ea4772" stroke="#b51c3d" stroke-miterlimit="10" stroke-width="1"/>
          <ellipse id="Ellipse_755" data-name="Ellipse 755" cx="7.319" cy="9.131" rx="7.319" ry="9.131" transform="translate(38.312 36.699) rotate(-56.093)" fill="#ea4772" stroke="#b51c3d" stroke-miterlimit="10" stroke-width="1"/>
          <ellipse id="Ellipse_756" data-name="Ellipse 756" cx="7.319" cy="9.829" rx="7.319" ry="9.829" transform="matrix(0.09, -0.996, 0.996, 0.09, 42.534, 34.558)" fill="#ea4772" stroke="#b51c3d" stroke-miterlimit="10" stroke-width="1"/>
          <ellipse id="Ellipse_757" data-name="Ellipse 757" cx="9.066" cy="7.319" rx="9.066" ry="7.319" transform="translate(36.166 19.256) rotate(-43.29)" fill="#ea4772" stroke="#b51c3d" stroke-miterlimit="10" stroke-width="1"/>
          <ellipse id="Ellipse_758" data-name="Ellipse 758" cx="8.136" cy="9.121" rx="8.136" ry="9.121" transform="matrix(0.981, -0.193, 0.193, 0.981, 25.869, 45.415)" fill="#ea4772" stroke="#b51c3d" stroke-miterlimit="10" stroke-width="1"/>
        </g>
      </g>
      <g id="Path_3820" data-name="Path 3820" transform="translate(3.517 1.359)" fill="none" stroke-miterlimit="10">
        <path d="M1492.755,381.847a11.337,11.337,0,0,0-1.763-.826,6.214,6.214,0,0,0,1.413-4.388c-.289-3.352-3.486-5.915-7.578-6.421a6.071,6.071,0,0,0-1.358-2.339,7.011,7.011,0,0,0-6.871-1.72,6.967,6.967,0,0,0-3.8-5.181,6.757,6.757,0,0,0-5.32-.113,6.644,6.644,0,0,0-4.078-3.273,7.268,7.268,0,0,0-7.431,2.844,6.9,6.9,0,0,0-11.091,5.034,7.091,7.091,0,0,0-6.9,2.376,6.5,6.5,0,0,0-1.267,4.655,6.723,6.723,0,0,0-4.272,3.686c-1.229,2.843-.159,6.182,2.4,8.454a7.243,7.243,0,0,0-5.022,6c-.286,3.165,1.834,6.066,5.038,7.37-2.055,3-2.191,6.749-.069,9.232a6.691,6.691,0,0,0,4.916,2.263,7.306,7.306,0,0,0,9.344,5.158c1.712,3.228,4.993,5.159,8.33,4.613,2.355,2.747,5.632,4,8.39,2.87a5.572,5.572,0,0,0,1.66-1.066,7.339,7.339,0,0,0,8.172,1.3,6.664,6.664,0,0,0,3.078-3.448c.029-.009.059-.017.088-.027a7.482,7.482,0,0,0,9.917-7.651,6.34,6.34,0,0,0,3.783-2.291,6.679,6.679,0,0,0,1.055-5.765,6.139,6.139,0,0,0,.885-1.176,6.674,6.674,0,0,0,.44-5.5,7.579,7.579,0,0,0,2.126-2.335C1499.341,390.089,1497.453,384.568,1492.755,381.847Z" stroke="none"/>
        <path d="M 1461.815673828125 357.3812866210938 C 1459.626220703125 357.3812866210938 1457.4912109375 358.5297546386719 1455.964965820312 360.4295043945312 C 1453.837524414062 358.9535827636719 1451.172485351562 358.5617980957031 1448.849853515625 359.6416625976562 C 1446.564086914062 360.7037048339844 1445.151123046875 362.9370727539062 1444.873901367188 365.4634704589844 C 1442.169799804688 365.0245056152344 1439.538330078125 365.8237609863281 1437.975219726562 367.8396911621094 C 1436.946899414062 369.1664733886719 1436.550659179688 370.8104858398438 1436.708374023438 372.494384765625 C 1434.790161132812 373.1005554199219 1433.218505859375 374.3684692382812 1432.43603515625 376.1805725097656 C 1431.206909179688 379.023193359375 1432.27734375 382.3626708984375 1434.840576171875 384.6349182128906 C 1432.080932617188 385.6318054199219 1430.068359375 387.8714599609375 1429.818237304688 390.6332092285156 C 1429.532470703125 393.79833984375 1431.65234375 396.69873046875 1434.8564453125 398.00341796875 C 1432.801513671875 401.0004577636719 1432.6650390625 404.7528381347656 1434.786987304688 407.2351379394531 C 1436.018188476562 408.6753540039062 1437.79150390625 409.4222717285156 1439.703369140625 409.4979248046875 C 1440.224365234375 411.5484619140625 1441.625732421875 413.3584289550781 1443.69091796875 414.3258972167969 C 1445.439086914062 415.1463317871094 1447.344482421875 415.2073364257812 1449.04736328125 414.6557922363281 C 1450.759643554688 417.8838500976562 1454.0390625 419.81494140625 1457.377685546875 419.2684936523438 C 1459.73291015625 422.0155334472656 1463.009155273438 423.2667236328125 1465.767944335938 422.138427734375 C 1466.390991210938 421.8841857910156 1466.94140625 421.517578125 1467.427856445312 421.0721435546875 C 1469.793579101562 423.116455078125 1472.978393554688 423.73828125 1475.599609375 422.3758544921875 C 1477.03564453125 421.62890625 1478.075561523438 420.396728515625 1478.677612304688 418.9281311035156 C 1478.706909179688 418.9186706542969 1478.736450195312 418.9113159179688 1478.765747070312 418.9008178710938 C 1481.259643554688 419.7024230957031 1484.029663085938 419.2779235839844 1486.091796875 417.5152282714844 C 1487.953369140625 415.9237365722656 1488.825317382812 413.5926818847656 1488.682373046875 411.2501220703125 C 1490.19189453125 410.9338684082031 1491.527221679688 410.1701965332031 1492.465209960938 408.958984375 C 1493.713134765625 407.3506774902344 1494.023071289062 405.2623291015625 1493.519897460938 403.1939086914062 C 1493.85693359375 402.843017578125 1494.154418945312 402.4512023925781 1494.405395507812 402.0184020996094 C 1495.370727539062 400.3502197265625 1495.462280273438 398.3837280273438 1494.845581054688 396.5159606933594 C 1495.6943359375 395.900390625 1496.425537109375 395.1229553222656 1496.971923828125 394.1806640625 C 1499.340698242188 390.0890502929688 1497.453002929688 384.5676574707031 1492.755126953125 381.8468933105469 C 1492.180541992188 381.5149536132812 1491.590087890625 381.2407531738281 1490.992431640625 381.021240234375 C 1492.004028320312 379.7312316894531 1492.541870117188 378.2143249511719 1492.405395507812 376.6333312988281 C 1492.116333007812 373.2812194824219 1488.919799804688 370.718017578125 1484.827026367188 370.2127380371094 C 1484.55078125 369.3482055664062 1484.1064453125 368.5498046875 1483.468872070312 367.873291015625 C 1481.779541015625 366.0801086425781 1479.189208984375 365.534912109375 1476.597534179688 366.1536254882812 C 1476.179443359375 363.8824768066406 1474.850708007812 361.9369506835938 1472.793823242188 360.9725952148438 C 1471.100341796875 360.1784362792969 1469.212768554688 360.1984252929688 1467.473999023438 360.8591613769531 C 1466.569580078125 359.2540283203125 1465.162963867188 358.0501708984375 1463.39599609375 357.5858459472656 C 1462.871337890625 357.4476623535156 1462.341796875 357.3812866210938 1461.815673828125 357.3812866210938 M 1461.815673828125 354.3812866210938 C 1462.606689453125 354.3812866210938 1463.3955078125 354.4833984375 1464.16015625 354.684814453125 C 1465.904907226562 355.143310546875 1467.464233398438 356.1054382324219 1468.702392578125 357.4638366699219 C 1469.155151367188 357.4012145996094 1469.609497070312 357.3697204589844 1470.063842773438 357.3697204589844 C 1471.4658203125 357.3697204589844 1472.812866210938 357.6680603027344 1474.067504882812 358.2564086914062 C 1476.109741210938 359.2138977050781 1477.710205078125 360.8471374511719 1478.684326171875 362.9086608886719 C 1481.425415039062 362.9226989746094 1483.898193359375 363.9539794921875 1485.652465820312 365.816162109375 C 1486.147827148438 366.3417663574219 1486.574462890625 366.9231262207031 1486.929077148438 367.5550231933594 C 1488.838012695312 368.0285034179688 1490.555053710938 368.8767395019531 1491.963745117188 370.0513000488281 C 1493.968383789062 371.7227478027344 1495.186767578125 373.9687805175781 1495.394287109375 376.3756103515625 C 1495.49267578125 377.5156860351562 1495.368041992188 378.6437377929688 1495.029541015625 379.7302856445312 C 1497.542114257812 381.4038391113281 1499.415283203125 383.7888488769531 1500.352172851562 386.5292053222656 C 1500.870727539062 388.0458068847656 1501.076904296875 389.5930480957031 1500.965087890625 391.1279602050781 C 1500.846557617188 392.754638671875 1500.376586914062 394.2874450683594 1499.568237304688 395.6837463378906 C 1499.170043945312 396.3704223632812 1498.697509765625 397.0052795410156 1498.154663085938 397.5838623046875 C 1498.425537109375 399.681640625 1498.034790039062 401.7362365722656 1497.001953125 403.52099609375 C 1496.905639648438 403.6871032714844 1496.80419921875 403.8500671386719 1496.69775390625 404.0096130371094 C 1496.791870117188 404.9427490234375 1496.761108398438 405.8639831542969 1496.60498046875 406.7625732421875 C 1496.34423828125 408.2631225585938 1495.748779296875 409.620849609375 1494.835327148438 410.798095703125 C 1493.965942382812 411.9208068847656 1492.859497070312 412.8073425292969 1491.572143554688 413.4230346679688 C 1491.192504882812 415.9054565429688 1489.965087890625 418.1507873535156 1488.041259765625 419.7955322265625 C 1486.159301757812 421.4041748046875 1483.740112304688 422.2900085449219 1481.22900390625 422.2900085449219 C 1480.898071289062 422.2900085449219 1480.5673828125 422.2749633789062 1480.238037109375 422.2449951171875 C 1479.3779296875 423.4168701171875 1478.278564453125 424.3639526367188 1476.984008789062 425.0373229980469 C 1475.624755859375 425.7439575195312 1474.1494140625 426.10205078125 1472.598388671875 426.10205078125 C 1470.804077148438 426.10205078125 1469.013061523438 425.6126708984375 1467.389892578125 424.6977233886719 C 1467.229248046875 424.7759704589844 1467.06640625 424.8487548828125 1466.9013671875 424.9160766601562 C 1465.869873046875 425.3379211425781 1464.770874023438 425.5522766113281 1463.637084960938 425.5522766113281 C 1461.023559570312 425.5522766113281 1458.376220703125 424.4045715332031 1456.18994140625 422.3603210449219 C 1452.905883789062 422.341552734375 1449.787963867188 420.709228515625 1447.642944335938 417.9794311523438 C 1447.355224609375 418.003662109375 1447.066162109375 418.0158386230469 1446.776611328125 418.0158386230469 C 1445.260620117188 418.0158386230469 1443.793579101562 417.6880798339844 1442.416381835938 417.0416870117188 C 1440.25244140625 416.0279846191406 1438.53857421875 414.3210144042969 1437.516723632812 412.2131652832031 C 1435.536499023438 411.7392883300781 1433.8017578125 410.6994018554688 1432.506713867188 409.1845092773438 C 1430.995483398438 407.4167785644531 1430.217163085938 405.1968383789062 1430.255737304688 402.7647399902344 C 1430.275024414062 401.5510864257812 1430.498168945312 400.341796875 1430.912841796875 399.1747436523438 C 1428.101928710938 397.0137329101562 1426.524658203125 393.7493896484375 1426.830444335938 390.3634643554688 C 1427.062744140625 387.7972412109375 1428.3349609375 385.4835815429688 1430.33544921875 383.8032836914062 C 1429.91162109375 383.0595092773438 1429.576538085938 382.2774353027344 1429.338500976562 381.4695434570312 C 1428.686889648438 379.2579650878906 1428.805786132812 377.017333984375 1429.682373046875 374.9899291992188 C 1430.5029296875 373.0897521972656 1431.916137695312 371.5503234863281 1433.756958007812 370.516357421875 C 1433.970336914062 368.8518371582031 1434.599609375 367.2977600097656 1435.60400390625 366.0018920898438 C 1437.235473632812 363.8977966308594 1439.733642578125 362.6066589355469 1442.554809570312 362.3818664550781 C 1443.4853515625 359.9575805664062 1445.254638671875 358.0040893554688 1447.585815429688 356.9209899902344 C 1448.861938476562 356.3276977539062 1450.228271484375 356.0266723632812 1451.646118164062 356.0266723632812 C 1452.929321289062 356.0266723632812 1454.200927734375 356.2730102539062 1455.410400390625 356.7493896484375 C 1457.2841796875 355.2243347167969 1459.524780273438 354.3812866210938 1461.815673828125 354.3812866210938 Z" stroke="none" fill="#000"/>
      </g>
      <g id="Group_1453" data-name="Group 1453" transform="translate(1360.14 330.468)">
        <g id="Path_3821" data-name="Path 3821" transform="translate(-1360.016 -330.46)" fill="#fff" stroke-miterlimit="10">
          <path d="M 1392.289916992188 411.1195678710938 C 1390.6572265625 411.1195678710938 1389.10595703125 410.7434692382812 1387.679077148438 410.0016784667969 C 1386.036743164062 409.147216796875 1384.691284179688 407.8689880371094 1383.723388671875 406.2572631835938 C 1383.049194335938 406.3756713867188 1382.36767578125 406.4353332519531 1381.684692382812 406.4353332519531 C 1378.999755859375 406.4353332519531 1376.415283203125 405.4898986816406 1374.407348632812 403.773193359375 C 1372.123779296875 401.8199462890625 1370.759765625 399.0697021484375 1370.537109375 396.0567321777344 C 1368.830688476562 395.4193725585938 1367.3828125 394.3681945800781 1366.294067382812 392.9643859863281 C 1365.3427734375 391.7371215820312 1364.722290039062 390.3193664550781 1364.44970703125 388.7501525878906 C 1364.250610351562 387.6039733886719 1364.244384765625 386.4186401367188 1364.43017578125 385.2143859863281 C 1364.185546875 384.8940124511719 1363.961669921875 384.5587463378906 1363.76025390625 384.2110900878906 C 1362.8642578125 382.6625366210938 1362.419189453125 380.869873046875 1362.472900390625 379.0261535644531 C 1362.510009765625 377.7507019042969 1362.785766601562 376.4462280273438 1363.279052734375 375.1899719238281 C 1362.874267578125 374.6971130371094 1362.513793945312 374.1791381835938 1362.201171875 373.640625 C 1360.51171875 370.722412109375 1360.1240234375 367.293212890625 1361.108642578125 363.9827880859375 C 1362.025756835938 360.899658203125 1364.034423828125 358.2659606933594 1366.794921875 356.5086364746094 C 1366.106323242188 355.0193176269531 1365.818725585938 353.4366149902344 1365.95654296875 351.8403015136719 C 1366.438598632812 346.2306823730469 1372.081665039062 341.9998779296875 1379.082763671875 341.9998779296875 C 1379.189697265625 341.9998779296875 1379.296997070312 342.0008850097656 1379.404418945312 342.0028991699219 C 1379.666137695312 341.623046875 1379.951416015625 341.2689819335938 1380.25830078125 340.9434509277344 C 1381.951171875 339.1464233398438 1384.298706054688 338.0876770019531 1386.929077148438 337.9200744628906 C 1387.310791015625 336.9708862304688 1387.8115234375 336.0954284667969 1388.425659179688 335.3051147460938 C 1389.406860351562 334.0424194335938 1390.626953125 333.063232421875 1392.052001953125 332.394775390625 C 1393.373901367188 331.7756042480469 1394.792602539062 331.4618530273438 1396.26953125 331.4618530273438 C 1397.00244140625 331.4618530273438 1397.73779296875 331.5397338867188 1398.467895507812 331.6941833496094 C 1399.750366210938 330.3425903320312 1401.326538085938 329.3978881835938 1403.090942382812 328.933837890625 C 1403.890502929688 328.7232971191406 1404.716064453125 328.616455078125 1405.544067382812 328.616455078125 C 1408.561157226562 328.616455078125 1411.517578125 330.0269165039062 1413.741577148438 332.4638061523438 C 1415.381469726562 331.5967407226562 1417.180908203125 331.1315612792969 1418.957397460938 331.1315612792969 C 1420.449340820312 331.1315612792969 1421.886596679688 331.4476928710938 1423.22900390625 332.0711669921875 C 1424.620971679688 332.7184753417969 1425.82373046875 333.6544494628906 1426.804931640625 334.8534240722656 C 1427.378540039062 335.5543823242188 1427.860229492188 336.3251037597656 1428.245483398438 337.1569519042969 C 1428.537109375 337.1368408203125 1428.827758789062 337.1267395019531 1429.116577148438 337.1267395019531 C 1430.755126953125 337.1267395019531 1432.295776367188 337.4422912597656 1433.695922851562 338.0646057128906 C 1435.185180664062 338.7265625 1436.435180664062 339.7001037597656 1437.411010742188 340.9581604003906 C 1438.552001953125 342.4309997558594 1439.227294921875 344.1838684082031 1439.396118164062 346.086181640625 C 1441.25537109375 347.1820678710938 1442.656005859375 348.7445983886719 1443.484252929688 350.6611938476562 C 1444.577026367188 353.190185546875 1444.527099609375 356.0580444335938 1443.383422851562 358.739013671875 C 1444.04296875 359.3765563964844 1444.61083984375 360.0826721191406 1445.080688476562 360.8504333496094 C 1445.8876953125 362.1690673828125 1446.366455078125 363.6068725585938 1446.503784179688 365.1239013671875 C 1446.644409179688 366.6792602539062 1446.40283203125 368.2503662109375 1445.802124023438 369.7311706542969 C 1446.912719726562 371.5287170410156 1447.4306640625 373.5284118652344 1447.307739257812 375.5809631347656 C 1447.14892578125 378.2402954101562 1445.901977539062 380.7379455566406 1443.796508789062 382.6134033203125 C 1442.396728515625 383.8602905273438 1440.670532226562 384.7831115722656 1438.784912109375 385.3118591308594 C 1439.120971679688 386.5777587890625 1439.251831054688 387.8654174804688 1439.166381835938 389.1224060058594 C 1439.016845703125 391.3241577148438 1438.209594726562 393.3396911621094 1436.832153320312 394.951171875 C 1435.288818359375 396.7553405761719 1433.15087890625 397.9147033691406 1430.70458984375 398.2992553710938 C 1429.76318359375 401.3233337402344 1427.860107421875 403.8055114746094 1425.340454101562 405.2401123046875 C 1423.85986328125 406.082275390625 1422.28271484375 406.5091857910156 1420.652709960938 406.5091857910156 C 1420.65234375 406.5091857910156 1420.652221679688 406.5091857910156 1420.651733398438 406.5091857910156 C 1418.887573242188 406.5090026855469 1417.1435546875 405.9906616210938 1415.608276367188 405.0101928710938 C 1415.031860351562 404.64208984375 1414.488525390625 404.2105712890625 1413.986206054688 403.7240600585938 C 1411.393432617188 407.8377685546875 1407.367431640625 410.4451293945312 1403.30810546875 410.4451293945312 C 1402.13330078125 410.4451293945312 1400.99609375 410.2239379882812 1399.928100585938 409.7876892089844 C 1399.487426757812 409.6075134277344 1399.059692382812 409.3880004882812 1398.647338867188 409.1307373046875 C 1396.70361328125 410.4218444824219 1394.494995117188 411.1195678710938 1392.289916992188 411.1195678710938 Z" stroke="none"/>
          <path d="M 1392.289794921875 409.1195678710938 C 1394.523803710938 409.1195678710938 1396.789794921875 408.2281188964844 1398.6455078125 406.6251525878906 C 1399.243041992188 407.1714477539062 1399.918701171875 407.6231689453125 1400.684448242188 407.9361877441406 C 1405.28173828125 409.8142700195312 1411.054931640625 406.3322143554688 1413.578125 400.1562805175781 C 1413.602294921875 400.0985107421875 1413.619140625 400.0396728515625 1413.642211914062 399.98193359375 C 1415.889526367188 404.1344909667969 1420.43603515625 405.7291259765625 1424.350830078125 403.5020751953125 C 1426.848999023438 402.0797119140625 1428.527709960938 399.4156799316406 1429.115844726562 396.4375305175781 C 1431.522583007812 396.3797607421875 1433.765380859375 395.4595336914062 1435.311889648438 393.6516418457031 C 1437.581909179688 390.9960021972656 1437.742553710938 387.1585693359375 1436.082885742188 383.7791442871094 C 1441.065307617188 383.3442687988281 1445.046630859375 379.8954772949219 1445.311279296875 375.4613647460938 C 1445.433227539062 373.425537109375 1444.742919921875 371.5062561035156 1443.498168945312 369.9211120605469 C 1444.275512695312 368.5186767578125 1444.660034179688 366.9419250488281 1444.511962890625 365.30419921875 C 1444.288208007812 362.8323669433594 1442.915161132812 360.700927734375 1440.876220703125 359.2512817382812 C 1442.354370117188 356.815185546875 1442.737670898438 353.9757080078125 1441.648315429688 351.4545288085938 C 1440.832153320312 349.5657348632812 1439.314086914062 348.1612548828125 1437.433837890625 347.3219299316406 C 1437.490478515625 345.4583435058594 1436.975708007812 343.6620178222656 1435.830688476562 342.1839599609375 C 1433.82861328125 339.6028747558594 1430.402099609375 338.6511535644531 1426.93408203125 339.34765625 C 1426.241821289062 336.9620056152344 1424.67041015625 334.9471740722656 1422.386474609375 333.8850708007812 C 1419.40087890625 332.4985046386719 1415.959716796875 333.0929260253906 1413.291381835938 335.1152038574219 C 1410.989624023438 331.7264099121094 1407.205810546875 329.9182739257812 1403.599609375 330.8680725097656 C 1401.7822265625 331.3460693359375 1400.272705078125 332.4574890136719 1399.177001953125 333.9638977050781 C 1397.113647460938 333.24853515625 1394.897216796875 333.2705078125 1392.9013671875 334.2054748535156 C 1390.574462890625 335.2969665527344 1389.012451171875 337.4136962890625 1388.376831054688 339.9212036132812 C 1385.820922851562 339.7435302734375 1383.401000976562 340.5242004394531 1381.713623046875 342.3152770996094 C 1381.214599609375 342.8446960449219 1380.818725585938 343.438232421875 1380.501342773438 344.069580078125 C 1380.468872070312 344.0664672851562 1380.438354492188 344.0601501464844 1380.40576171875 344.0569763183594 C 1373.951171875 343.5010375976562 1368.374267578125 347.0635375976562 1367.949096679688 352.0123596191406 C 1367.785278320312 353.9095458984375 1368.408325195312 355.7331848144531 1369.596313476562 357.2952575683594 C 1369.159301757812 357.481201171875 1368.7275390625 357.68603515625 1368.305297851562 357.9308166503906 C 1362.973876953125 361.0171203613281 1361.015869140625 367.6016235351562 1363.930908203125 372.6366271972656 C 1364.408935546875 373.4601745605469 1364.994140625 374.1808166503906 1365.650634765625 374.8142700195312 C 1364.193481445312 377.553955078125 1364.018188476562 380.6633911132812 1365.490966796875 383.208740234375 C 1365.798828125 383.7402954101562 1366.165405273438 384.2224426269531 1366.579223632812 384.6531677246094 C 1365.960571289062 387.1953430175781 1366.341918945312 389.7616882324219 1367.87451171875 391.7387084960938 C 1369.028930664062 393.2272644042969 1370.668823242188 394.1653442382812 1372.52392578125 394.5539855957031 C 1372.347534179688 397.432373046875 1373.420166015625 400.2970275878906 1375.70703125 402.2530517578125 C 1378.242065429688 404.4203186035156 1381.646850585938 404.942138671875 1384.711669921875 403.9569702148438 C 1384.74755859375 403.9684753417969 1384.783203125 403.9779663085938 1384.81884765625 403.9895324707031 C 1385.559448242188 405.7953186035156 1386.837036132812 407.3090515136719 1388.601684570312 408.2271728515625 C 1389.76708984375 408.8330383300781 1391.023315429688 409.1195678710938 1392.289794921875 409.1195678710938 M 1392.289794921875 413.1195678710938 C 1390.332763671875 413.1195678710938 1388.471069335938 412.6675720214844 1386.756591796875 411.7761840820312 C 1385.174438476562 410.9530334472656 1383.823852539062 409.8069458007812 1382.754760742188 408.3936157226562 C 1382.39892578125 408.42138671875 1382.0419921875 408.4353332519531 1381.6845703125 408.4353332519531 C 1378.523559570312 408.4353332519531 1375.4775390625 407.3194885253906 1373.107666015625 405.2933349609375 C 1371.518432617188 403.9339904785156 1370.2646484375 402.1881713867188 1369.481567382812 400.2441101074219 C 1369.120239257812 399.3472595214844 1368.856811523438 398.4034423828125 1368.695434570312 397.4377746582031 C 1367.131225585938 396.6639709472656 1365.782470703125 395.5682373046875 1364.713623046875 394.1900329589844 C 1363.559814453125 392.7016296386719 1362.808227539062 390.9867858886719 1362.479125976562 389.0924682617188 C 1362.288696289062 387.9957580566406 1362.246215820312 386.8728332519531 1362.351318359375 385.7361145019531 C 1362.239379882812 385.5647277832031 1362.132080078125 385.390380859375 1362.029541015625 385.2134399414062 C 1360.947021484375 383.3424072265625 1360.409301757812 381.1832580566406 1360.473754882812 378.9679565429688 C 1360.506958007812 377.8294372558594 1360.699829101562 376.6744384765625 1361.041748046875 375.5428161621094 C 1360.838989257812 375.2497253417969 1360.648681640625 374.9500732421875 1360.471435546875 374.6445922851562 C 1359.472534179688 372.9192199707031 1358.862548828125 371.0426025390625 1358.656372070312 369.0630798339844 C 1358.459350585938 367.1705627441406 1358.639404296875 365.2694702148438 1359.191650390625 363.41259765625 C 1360.091918945312 360.3860473632812 1361.90283203125 357.7380981445312 1364.382202148438 355.7737121582031 C 1363.986694335938 354.4419860839844 1363.843627929688 353.0616455078125 1363.9638671875 351.6682739257812 C 1364.25634765625 348.2661437988281 1366.093505859375 345.1951904296875 1369.136840820312 343.0227355957031 C 1371.701049804688 341.1923828125 1374.971923828125 340.1341552734375 1378.410522460938 340.0118103027344 C 1378.537719726562 339.8609313964844 1378.668579101562 339.7141418457031 1378.802856445312 339.5716552734375 C 1380.579345703125 337.6858215332031 1382.937133789062 336.4739990234375 1385.58349609375 336.0577697753906 C 1385.944091796875 335.3577575683594 1386.36572265625 334.6965026855469 1386.846435546875 334.0779113769531 C 1388.023315429688 332.5634460449219 1389.489013671875 331.387939453125 1391.20263671875 330.5841064453125 C 1392.793090820312 329.839111328125 1394.497192382812 329.4618530273438 1396.26953125 329.4618530273438 C 1396.78125 329.4618530273438 1397.293212890625 329.4936218261719 1397.803955078125 329.5568542480469 C 1399.184692382812 328.3374328613281 1400.80224609375 327.4677734375 1402.582153320312 326.9996337890625 C 1403.54736328125 326.7454528808594 1404.544189453125 326.616455078125 1405.5439453125 326.616455078125 C 1408.662963867188 326.616455078125 1411.711547851562 327.8664245605469 1414.16455078125 330.0694580078125 C 1415.708618164062 329.4555969238281 1417.339233398438 329.1315307617188 1418.957397460938 329.1315307617188 C 1420.742553710938 329.1315307617188 1422.463134765625 329.5102844238281 1424.071411132812 330.2572631835938 C 1425.739501953125 331.0329895019531 1427.179321289062 332.1529235839844 1428.352783203125 333.5867919921875 C 1428.751586914062 334.0741577148438 1429.112670898438 334.58935546875 1429.434936523438 335.1301879882812 C 1431.237548828125 335.1692810058594 1432.942626953125 335.5411376953125 1434.50830078125 336.2370300292969 C 1436.302612304688 337.0345458984375 1437.810913085938 338.2105407714844 1438.991333007812 339.7323303222656 C 1440.168334960938 341.251708984375 1440.934814453125 343.0111694335938 1441.259887695312 344.9126281738281 C 1441.779541015625 345.2784729003906 1442.266723632812 345.6807250976562 1442.719116210938 346.1176147460938 C 1443.835815429688 347.1963500976562 1444.7109375 348.4581298828125 1445.320190429688 349.8678894042969 C 1446.46484375 352.5170593261719 1446.57421875 355.4594421386719 1445.685424804688 358.2778930664062 C 1446.090942382812 358.7604064941406 1446.458618164062 359.2705078125 1446.78662109375 359.8064270019531 C 1447.75537109375 361.3894653320312 1448.330444335938 363.1178588867188 1448.495727539062 364.9435729980469 C 1448.6357421875 366.4931640625 1448.462646484375 368.0520629882812 1447.99169921875 369.5484313964844 C 1448.274291992188 370.0994873046875 1448.514038085938 370.6675109863281 1448.709350585938 371.2495727539062 C 1449.1943359375 372.6947326660156 1449.394409179688 374.1922302246094 1449.304077148438 375.7005310058594 C 1449.113647460938 378.8912963867188 1447.630126953125 381.8770141601562 1445.126831054688 384.1068420410156 C 1443.948486328125 385.1564636230469 1442.574340820312 386.0077209472656 1441.07861328125 386.6294250488281 C 1441.1923828125 387.5081787109375 1441.220947265625 388.388427734375 1441.161865234375 389.2579956054688 C 1440.982788085938 391.8919372558594 1440.011352539062 394.3099670410156 1438.352416992188 396.2506713867188 C 1436.751708984375 398.1219482421875 1434.631713867188 399.4153747558594 1432.211791992188 400.0306701660156 C 1431.021362304688 403.0230407714844 1428.965454101562 405.4776000976562 1426.329956054688 406.9781494140625 C 1424.568725585938 407.9800109863281 1422.60595703125 408.5091857910156 1420.652709960938 408.5091857910156 C 1418.505249023438 408.5089416503906 1416.38916015625 407.8818969726562 1414.531860351562 406.69580078125 C 1414.4814453125 406.6636657714844 1414.431396484375 406.6311950683594 1414.381591796875 406.5982666015625 C 1411.44921875 410.2251586914062 1407.406616210938 412.4451293945312 1403.30810546875 412.4451293945312 C 1401.872680664062 412.4451293945312 1400.481079101562 412.1739501953125 1399.171752929688 411.6391296386719 C 1399.013671875 411.5745239257812 1398.857055664062 411.505859375 1398.701904296875 411.4332580566406 C 1396.6982421875 412.5326232910156 1394.49658203125 413.1195678710938 1392.289794921875 413.1195678710938 Z" stroke="none" fill="#000"/>
        </g>
        <g id="Group_1452" data-name="Group 1452" transform="translate(0 0)">
          <ellipse id="Ellipse_759" data-name="Ellipse 759" cx="24.26" cy="26.454" rx="24.26" ry="26.454" transform="translate(12.561 33.325) rotate(-43.381)" fill="#ad1040" stroke="#000" stroke-miterlimit="10" stroke-width="1"/>
          <ellipse id="Ellipse_760" data-name="Ellipse 760" cx="11.67" cy="8.69" rx="11.67" ry="8.69" transform="translate(10.119 55.194) rotate(-33.907)" fill="#ea4772" stroke="#b51c3d" stroke-miterlimit="10" stroke-width="1"/>
          <ellipse id="Ellipse_761" data-name="Ellipse 761" cx="11.67" cy="8.69" rx="11.67" ry="8.69" transform="translate(16.605 64.628) rotate(-33.907)" fill="#ea4772" stroke="#b51c3d" stroke-miterlimit="10" stroke-width="1"/>
          <ellipse id="Ellipse_762" data-name="Ellipse 762" cx="11.67" cy="8.69" rx="11.67" ry="8.69" transform="translate(32.565 75.123) rotate(-67.777)" fill="#ea4772" stroke="#b51c3d" stroke-miterlimit="10" stroke-width="1"/>
          <ellipse id="Ellipse_763" data-name="Ellipse 763" cx="10.405" cy="8.69" rx="10.405" ry="8.69" transform="matrix(0.918, -0.397, 0.397, 0.918, 57.637, 24.116)" fill="#ea4772" stroke="#b51c3d" stroke-miterlimit="10" stroke-width="1"/>
          <ellipse id="Ellipse_764" data-name="Ellipse 764" cx="10.567" cy="8.69" rx="10.567" ry="8.69" transform="translate(52.54 20.965) rotate(-37.786)" fill="#ea4772" stroke="#b51c3d" stroke-miterlimit="10" stroke-width="1"/>
          <ellipse id="Ellipse_765" data-name="Ellipse 765" cx="9.745" cy="8.69" rx="9.745" ry="8.69" transform="translate(45.482 20.877) rotate(-65.071)" fill="#ea4772" stroke="#b51c3d" stroke-miterlimit="10" stroke-width="1"/>
          <ellipse id="Ellipse_766" data-name="Ellipse 766" cx="11.67" cy="8.69" rx="11.67" ry="8.69" transform="matrix(0.918, -0.397, 0.397, 0.918, 4.129, 43.079)" fill="#ea4772" stroke="#b51c3d" stroke-miterlimit="10" stroke-width="1"/>
          <ellipse id="Ellipse_767" data-name="Ellipse 767" cx="10.159" cy="8.69" rx="10.159" ry="8.69" transform="matrix(0.996, -0.09, 0.09, 0.996, 61.935, 30.396)" fill="#ea4772" stroke="#b51c3d" stroke-miterlimit="10" stroke-width="1"/>
          <ellipse id="Ellipse_768" data-name="Ellipse 768" cx="8.69" cy="10.159" rx="8.69" ry="10.159" transform="translate(62.925 54.497) rotate(-86.578)" fill="#ea4772" stroke="#b51c3d" stroke-miterlimit="10" stroke-width="1"/>
          <ellipse id="Ellipse_769" data-name="Ellipse 769" cx="8.69" cy="10.328" rx="8.69" ry="10.328" transform="translate(52.718 57.789) rotate(-49.468)" fill="#ea4772" stroke="#b51c3d" stroke-miterlimit="10" stroke-width="1"/>
          <ellipse id="Ellipse_770" data-name="Ellipse 770" cx="9.859" cy="8.236" rx="9.859" ry="8.236" transform="translate(51.255 74.595) rotate(-86.578)" fill="#ea4772" stroke="#b51c3d" stroke-miterlimit="10" stroke-width="1"/>
          <ellipse id="Ellipse_771" data-name="Ellipse 771" cx="10.018" cy="8.69" rx="10.018" ry="8.69" transform="translate(21.226 74.682) rotate(-62.526)" fill="#ea4772" stroke="#b51c3d" stroke-miterlimit="10" stroke-width="1"/>
          <ellipse id="Ellipse_772" data-name="Ellipse 772" cx="9.637" cy="9.157" rx="9.637" ry="9.157" transform="translate(9.518 66.969) rotate(-49.468)" fill="#ea4772" stroke="#b51c3d" stroke-miterlimit="10" stroke-width="1"/>
          <ellipse id="Ellipse_773" data-name="Ellipse 773" cx="10.789" cy="8.69" rx="10.789" ry="8.69" transform="translate(3.586 55.893) rotate(-37.786)" fill="#ea4772" stroke="#b51c3d" stroke-miterlimit="10" stroke-width="1"/>
          <ellipse id="Ellipse_774" data-name="Ellipse 774" cx="10.776" cy="10.179" rx="10.776" ry="10.179" transform="translate(0 35.497) rotate(-30.072)" fill="#ea4772" stroke="#b51c3d" stroke-miterlimit="10" stroke-width="1"/>
          <ellipse id="Ellipse_775" data-name="Ellipse 775" cx="10.489" cy="8.69" rx="10.489" ry="8.69" transform="translate(2.253 46.999) rotate(-30.072)" fill="#ea4772" stroke="#b51c3d" stroke-miterlimit="10" stroke-width="1"/>
          <ellipse id="Ellipse_776" data-name="Ellipse 776" cx="8.69" cy="11.332" rx="8.69" ry="11.332" transform="translate(8.236 33.037) rotate(-85.078)" fill="#ea4772" stroke="#b51c3d" stroke-miterlimit="10" stroke-width="1"/>
          <ellipse id="Ellipse_777" data-name="Ellipse 777" cx="8.69" cy="10.381" rx="8.69" ry="10.381" transform="matrix(0.967, -0.255, 0.255, 0.967, 35.023, 6.162)" fill="#ea4772" stroke="#b51c3d" stroke-miterlimit="10" stroke-width="1"/>
          <ellipse id="Ellipse_778" data-name="Ellipse 778" cx="8.69" cy="10.058" rx="8.69" ry="10.058" transform="translate(25.221 10.863) rotate(-25.112)" fill="#ea4772" stroke="#b51c3d" stroke-miterlimit="10" stroke-width="1"/>
          <ellipse id="Ellipse_779" data-name="Ellipse 779" cx="10.864" cy="9.447" rx="10.864" ry="9.447" transform="matrix(0.193, -0.981, 0.981, 0.193, 41.042, 68.095)" fill="#ea4772" stroke="#b51c3d" stroke-miterlimit="10" stroke-width="1"/>
          <ellipse id="Ellipse_780" data-name="Ellipse 780" cx="10.841" cy="8.69" rx="10.841" ry="8.69" transform="translate(13.583 41.316) rotate(-33.907)" fill="#ea4772" stroke="#b51c3d" stroke-miterlimit="10" stroke-width="1"/>
          <ellipse id="Ellipse_781" data-name="Ellipse 781" cx="11.67" cy="8.69" rx="11.67" ry="8.69" transform="matrix(0.996, -0.09, 0.09, 0.996, 13.643, 25.374)" fill="#ea4772" stroke="#b51c3d" stroke-miterlimit="10" stroke-width="1"/>
          <ellipse id="Ellipse_782" data-name="Ellipse 782" cx="8.69" cy="10.765" rx="8.69" ry="10.765" transform="translate(16.322 21.335) rotate(-46.71)" fill="#ea4772" stroke="#b51c3d" stroke-miterlimit="10" stroke-width="1"/>
          <ellipse id="Ellipse_783" data-name="Ellipse 783" cx="9.937" cy="8.754" rx="9.937" ry="8.754" transform="matrix(0.193, -0.981, 0.981, 0.193, 33.253, 67.417)" fill="#ea4772" stroke="#b51c3d" stroke-miterlimit="10" stroke-width="1"/>
          <ellipse id="Ellipse_784" data-name="Ellipse 784" cx="9.615" cy="8.69" rx="9.615" ry="8.69" transform="translate(20.651 54.667) rotate(-49.468)" fill="#ea4772" stroke="#b51c3d" stroke-miterlimit="10" stroke-width="1"/>
        </g>
      </g>
    </g>
  </g>
</svg>
