<svg xmlns="http://www.w3.org/2000/svg" width="145.638" height="135.309" viewBox="0 0 145.638 135.309">
  <g id="Group_1215" data-name="Group 1215" transform="translate(-1536 -371.333)">
    <g id="Group_1125" data-name="Group 1125" transform="translate(-6.575 80.528)">
      <path id="Path_3130" data-name="Path 3130" d="M1682.445,343.03a24.2,24.2,0,0,0-9.643-9.127c6.779-1.459,9.627-8.424,9.758-13.441-7.321,7.89-20.151,7.336-26.653,6.436a1.486,1.486,0,0,0,.712-.693c.043-.09,4.44-9.047,14.517-11.116a1.5,1.5,0,0,0-.6-2.94,24.687,24.687,0,0,0-15.762,11.239c.472-7.188,2.553-16.331,9.466-21.639-6.228-.418-15.619,2.8-15.936,12.858-1.889-5.409-2.753-11.458-.9-17.253-4.593,2.692-9.569,8.764-8.353,15.922-2.822-3.349-5.623-6.138-8.043-7.546,1.4,10.267,6.42,16.7,24.261,31.186,0,0-2.78-4.789-6.686-10.67,1.374,1.006,2.562,1.828,3.6,2.505a40.844,40.844,0,0,0,2.908,5.171s-.212-1.381-.341-3.6c.863.489,1.609.869,2.286,1.2C1665.06,336.362,1675.846,342.2,1682.445,343.03Z" fill="#618e2f"/>
      <path id="Path_3130_-_Outline" data-name="Path 3130 - Outline" d="M1682.445,343.03a24.2,24.2,0,0,0-9.643-9.127c6.779-1.459,9.627-8.424,9.758-13.441-7.321,7.89-20.151,7.336-26.653,6.436a1.486,1.486,0,0,0,.712-.693c.043-.09,4.44-9.047,14.517-11.116a1.5,1.5,0,0,0-.6-2.94,24.687,24.687,0,0,0-15.762,11.239c.472-7.188,2.553-16.331,9.466-21.639-6.229-.419-15.619,2.8-15.936,12.858-1.889-5.409-2.753-11.458-.9-17.253-4.593,2.692-9.569,8.764-8.353,15.922-2.822-3.349-5.623-6.138-8.043-7.546,1.4,10.267,6.42,16.7,24.261,31.186,0,0-2.78-4.789-6.686-10.67,1.374,1.006,2.562,1.828,3.6,2.505a40.844,40.844,0,0,0,2.908,5.171s-.212-1.381-.341-3.6c.863.489,1.609.869,2.286,1.2,8.028,4.848,18.814,10.688,25.413,11.516m-16.376,6.523-6.337-5.145.5,3.277-3.723-5.892-3.14-2.549c-9.7-7.874-15.136-12.991-18.771-17.662a30.281,30.281,0,0,1-6.571-15.447l-.833-6.091,5.314,3.092a23.518,23.518,0,0,1,4.079,3.132,18.525,18.525,0,0,1,1.888-4.184,21.582,21.582,0,0,1,7.4-7.32l6.758-3.961-2.384,7.462a19.3,19.3,0,0,0-.883,5.977,15.668,15.668,0,0,1,2.432-2.1,20.188,20.188,0,0,1,11.357-3.431c.43,0,.859.014,1.276.042l7.931.532-6.3,4.841a19.36,19.36,0,0,0-6.167,8.789q-.169.451-.326.916a26.168,26.168,0,0,1,10.357-4.623l.008,0a4.5,4.5,0,0,1,5.3,3.5v.007a4.508,4.508,0,0,1-3.5,5.311,17.71,17.71,0,0,0-9.316,5.286c-.345.36-.661.715-.948,1.058q.749.025,1.488.025a32.837,32.837,0,0,0,9.429-1.249,17.549,17.549,0,0,0,7.967-4.726l5.406-5.826-.208,7.945a19.685,19.685,0,0,1-2.833,9.553,15.4,15.4,0,0,1-3.845,4.269q.893.721,1.694,1.493a27.127,27.127,0,0,1,4.438,5.624l3.2,5.3-6.141-.771c-3.338-.419-7.621-1.9-13.094-4.522-3.188-1.529-6.731-3.428-10.563-5.662l.114.739Z"/>
      <g id="Group_1124" data-name="Group 1124">
        <ellipse id="Ellipse_541" data-name="Ellipse 541" cx="2.84" cy="1.133" rx="2.84" ry="1.133" transform="translate(1602.08 380.127) rotate(-53.814)" fill="#ffc73b"/>
        <ellipse id="Ellipse_542" data-name="Ellipse 542" cx="2.84" cy="1.133" rx="2.84" ry="1.133" transform="translate(1615.242 389.755) rotate(-53.814)" fill="#ffc73b"/>
        <ellipse id="Ellipse_543" data-name="Ellipse 543" cx="2.84" cy="1.133" rx="2.84" ry="1.133" transform="translate(1604.449 365.778) rotate(-53.814)" fill="#ffc73b"/>
        <g id="Group_1123" data-name="Group 1123">
          <path id="Path_3131" data-name="Path 3131" d="M1651.922,327.739c-.426-.256-13.953-14.688-31.364-11.143s-25.314,12.568-27.444,43.623c-.833,18.519.741,54.417,25.19,48.149s49.362-26.5,52.7-31.815S1684.707,347.493,1651.922,327.739Z" fill="#fff"/>
          <path id="Path_3131_-_Outline" data-name="Path 3131 - Outline" d="M1626.115,316.036a27.774,27.774,0,0,0-5.557.56c-17.411,3.546-25.314,12.568-27.444,43.623-.767,17.061.51,48.874,19.833,48.874a21.576,21.576,0,0,0,5.357-.725c24.45-6.268,49.362-26.5,52.7-31.815s13.707-29.06-19.078-48.814c-.379-.228-11.154-11.7-25.807-11.7m0-3v0a33.4,33.4,0,0,1,10.262,1.665,41.6,41.6,0,0,1,8.265,3.751,50.067,50.067,0,0,1,9,6.795l.073.069a61.649,61.649,0,0,1,16.469,13.941,36.649,36.649,0,0,1,7.146,14.279,32.763,32.763,0,0,1-.059,15.415,31.762,31.762,0,0,1-3.728,9.2c-1.319,2.1-4.419,4.976-6.787,7.014a132.383,132.383,0,0,1-12.514,9.436,143.169,143.169,0,0,1-16.535,9.6,98.031,98.031,0,0,1-18.657,7.081,24.69,24.69,0,0,1-6.1.819A17.3,17.3,0,0,1,1600,406.56a28.988,28.988,0,0,1-5.95-10.095,61.727,61.727,0,0,1-2.979-12.313,132.235,132.235,0,0,1-.949-24.068c0-.023,0-.047,0-.07a116.314,116.314,0,0,1,2.82-19.939,42.708,42.708,0,0,1,5.674-13.656,26.556,26.556,0,0,1,9.128-8.487,41.162,41.162,0,0,1,12.216-4.276A30.908,30.908,0,0,1,1626.113,313.036Z"/>
          <path id="Path_3132" data-name="Path 3132" d="M1653.431,332.009c-.4-.24-13.049-13.737-29.332-10.422s-23.674,11.754-25.666,40.8c-.78,17.319.692,50.892,23.558,45.03s46.164-24.78,49.282-29.753S1684.092,350.483,1653.431,332.009Z" fill="#cc1922"/>
          <ellipse id="Ellipse_544" data-name="Ellipse 544" cx="2.84" cy="1.133" rx="2.84" ry="1.133" transform="translate(1608.661 338.523) rotate(-53.814)" fill="#ffc73b"/>
          <ellipse id="Ellipse_545" data-name="Ellipse 545" cx="2.84" cy="1.133" rx="2.84" ry="1.133" transform="translate(1606.751 353.375) rotate(-53.814)" fill="#ffc73b"/>
          <ellipse id="Ellipse_546" data-name="Ellipse 546" cx="2.84" cy="1.133" rx="2.84" ry="1.133" transform="translate(1620.156 359.672) rotate(-53.814)" fill="#ffc73b"/>
          <ellipse id="Ellipse_547" data-name="Ellipse 547" cx="2.84" cy="1.133" rx="2.84" ry="1.133" transform="translate(1633.318 369.3) rotate(-53.814)" fill="#ffc73b"/>
          <ellipse id="Ellipse_548" data-name="Ellipse 548" cx="2.84" cy="1.133" rx="2.84" ry="1.133" transform="translate(1644.853 377.738) rotate(-53.814)" fill="#ffc73b"/>
          <ellipse id="Ellipse_549" data-name="Ellipse 549" cx="2.84" cy="1.133" rx="2.84" ry="1.133" transform="translate(1625.339 334.026) rotate(-53.814)" fill="#ffc73b"/>
          <ellipse id="Ellipse_550" data-name="Ellipse 550" cx="2.84" cy="1.133" rx="2.84" ry="1.133" transform="translate(1638.745 340.323) rotate(-53.814)" fill="#ffc73b"/>
          <ellipse id="Ellipse_551" data-name="Ellipse 551" cx="2.84" cy="1.133" rx="2.84" ry="1.133" transform="translate(1651.907 349.951) rotate(-53.814)" fill="#ffc73b"/>
          <ellipse id="Ellipse_552" data-name="Ellipse 552" cx="2.84" cy="1.133" rx="2.84" ry="1.133" transform="translate(1658.659 357.283) rotate(-53.814)" fill="#ffc73b"/>
          <ellipse id="Ellipse_553" data-name="Ellipse 553" cx="2.84" cy="1.133" rx="2.84" ry="1.133" transform="translate(1624.939 347.293) rotate(-53.814)" fill="#ffc73b"/>
          <ellipse id="Ellipse_554" data-name="Ellipse 554" cx="2.84" cy="1.133" rx="2.84" ry="1.133" transform="translate(1631.609 354.565) rotate(-53.814)" fill="#ffc73b"/>
          <ellipse id="Ellipse_555" data-name="Ellipse 555" cx="2.84" cy="1.133" rx="2.84" ry="1.133" transform="translate(1644.853 364.253) rotate(-53.814)" fill="#ffc73b"/>
          <ellipse id="Ellipse_556" data-name="Ellipse 556" cx="2.84" cy="1.133" rx="2.84" ry="1.133" transform="translate(1615.902 374.156) rotate(-53.814)" fill="#ffc73b"/>
          <ellipse id="Ellipse_557" data-name="Ellipse 557" cx="2.84" cy="1.133" rx="2.84" ry="1.133" transform="translate(1629.146 383.844) rotate(-53.814)" fill="#ffc73b"/>
          <ellipse id="Ellipse_558" data-name="Ellipse 558" cx="2.84" cy="1.133" rx="2.84" ry="1.133" transform="translate(1655.941 371.637) rotate(-53.814)" fill="#ffc73b"/>
        </g>
        <path id="Path_3133" data-name="Path 3133" d="M1601.132,400.421a3.068,3.068,0,0,0,.916,3.665c1.926,1.457,8.1,6.177,8.322,5.81s-3.285-7.953-5.508-9.566A2.689,2.689,0,0,0,1601.132,400.421Z" fill="#fd787b"/>
        <path id="Path_3134" data-name="Path 3134" d="M1568.009,381.5s18.623-19.553,21.587-29.751C1581.476,355.045,1577.025,361.194,1568.009,381.5Z" fill="#618e2f"/>
        <path id="Path_3135" data-name="Path 3135" d="M1576.909,373.051s-18.442,5.976-28.309-3.321c.6,6.436,6.358,16.086,19.113,9.651C1573.573,376.129,1575.293,374.479,1576.909,373.051Z" fill="#618e2f"/>
        <path id="Path_3136" data-name="Path 3136" d="M1573.967,372.072s-14.3,16-28.392,17.159c3.889,3.4,14.294,5.226,22.994-7.2C1572.413,376.147,1573.181,374.008,1573.967,372.072Z" fill="#618e2f"/>
        <path id="Path_3137" data-name="Path 3137" d="M1581.862,383.409a1.5,1.5,0,0,1-.59-.122,43.11,43.11,0,0,1-9.715-6.265,41.68,41.68,0,0,1-7.547-8.238,34.8,34.8,0,0,1-5.332-12.093,1.5,1.5,0,0,1,2.927-.66,31.81,31.81,0,0,0,4.877,11.054,38.685,38.685,0,0,0,7.006,7.642,40.611,40.611,0,0,0,8.966,5.8,1.5,1.5,0,0,1-.592,2.879Z" fill="#618e2f"/>
        <path id="Path_3138" data-name="Path 3138" d="M1569.113,377.975c-5.66,7.671-10.245,13.772-8.543,24.046,2.226,13.439,9.635,19.407,33.444,21.04,14.2.639,42.533-.8,36.914-19.312-5.525-18.2-20.74-37.266-24.391-40.4C1601.908,359.376,1586.536,354.363,1569.113,377.975Z" fill="#d8323a"/>
        <path id="Path_3139" data-name="Path 3139" d="M1571.057,379.237c-5.4,7.315-5.765,8.579-5.595,15.363,2.125,12.817,22.977,15.212,45.7,16.77,13.551.609,22.227,2.606,14.68-14.086-7.477-16.534-16.752-27.465-20.238-30.455C1601.188,363.04,1587.687,356.719,1571.057,379.237Z" fill="#f25362"/>
        <path id="Path_3140" data-name="Path 3140" d="M1572.247,379.175c-5.007,6.78-5.343,7.951-5.185,14.239,1.969,11.877,21.294,14.1,42.354,15.541,12.559.565,20.6,2.415,13.6-13.054-6.929-15.323-15.525-25.454-18.755-28.224C1600.171,364.165,1587.659,358.306,1572.247,379.175Z" fill="#ff6c81"/>
        <path id="Path_3141" data-name="Path 3141" d="M1572.744,379.45c-4.1,5.285-4.373,6.2-4.244,11.1,1.612,9.258,17.429,10.989,34.666,12.114,10.278.44,16.859,1.883,11.134-10.175-5.67-11.945-12.706-19.842-15.35-22C1595.6,367.749,1585.358,363.183,1572.744,379.45Z" fill="#ff9fa4"/>
        <path id="Path_3142" data-name="Path 3142" d="M1574.867,378.986a7.376,7.376,0,0,0,5.235,9.11c7.18,2.4,30.243,10.209,30.73,9.056s-15.6-18.747-23.843-21.329S1574.867,378.986,1574.867,378.986Z" fill="#e2474f"/>
        <path id="Path_3143" data-name="Path 3143" d="M1576.917,380.871s-.4,4.96,4.465,6.262,20.5,5.566,20.663,4.705-12.255-12.6-17.819-13.971S1576.917,380.871,1576.917,380.871Z" fill="#ffcacd"/>
        <path id="Path_3144" data-name="Path 3144" d="M1599.125,395.489a3.068,3.068,0,0,0-.447,3.752c1.282,2.046,5.379,8.653,5.713,8.388s-.243-8.6-1.748-10.9A2.688,2.688,0,0,0,1599.125,395.489Z" fill="#ff9fa4"/>
        <path id="Path_3145" data-name="Path 3145" d="M1590.139,392.72a3.068,3.068,0,0,0-2.1,3.143c.218,2.4.882,10.151,1.3,10.066s3.675-7.781,3.373-10.511A2.688,2.688,0,0,0,1590.139,392.72Z" fill="#ff9fa4"/>
        <path id="Path_3146" data-name="Path 3146" d="M1579.074,389.946a3.379,3.379,0,0,0-2.164,3.072c.061,2.241.22,9.462.619,9.357s3.931-7.514,3.81-10.055A2.174,2.174,0,0,0,1579.074,389.946Z" fill="#ff9fa4"/>
        <path id="Path_3147" data-name="Path 3147" d="M1599.157,423.114c14.886,0,36.771-2.951,31.771-19.428-5.525-18.205-20.74-37.265-24.391-40.4-3.441-2.953-12.821-6.471-24.564,1.612,3.5-4.718,6.563-9.562,7.623-13.209-6.889,2.794-11.139,7.649-17.775,21.458a33.822,33.822,0,0,1-10.217-17.179,1.5,1.5,0,0,0-2.926.66,36.443,36.443,0,0,0,10.249,17.972c-6.2.705-14.671.4-20.326-4.933.545,5.834,5.326,14.308,15.715,11.05-5.243,3.962-12.013,7.9-18.741,8.451,2.981,2.608,9.789,4.28,16.723-.672a22.108,22.108,0,0,0-1.728,13.462c2.226,13.439,9.635,19.407,33.444,21.04,1.564.07,3.3.116,5.143.116m0,3h0c-1.753,0-3.529-.04-5.278-.119l-.07,0a92.174,92.174,0,0,1-15.466-2.166,34.029,34.029,0,0,1-10.8-4.417,20.5,20.5,0,0,1-6.778-7.262,29.619,29.619,0,0,1-3.156-9.7,26.344,26.344,0,0,1-.125-8.364,17.246,17.246,0,0,1-4.456.595,15.773,15.773,0,0,1-5.345-.911,12.821,12.821,0,0,1-4.086-2.342,3,3,0,0,1,1.729-5.248,25.4,25.4,0,0,0,8.864-2.657l.355-.174q-.417-.182-.822-.394a13.81,13.81,0,0,1-4.4-3.677,18.019,18.019,0,0,1-3.715-9.33,3,3,0,0,1,5.044-2.462c2.794,2.633,6.782,4.093,11.872,4.352q-1.215-1.62-2.243-3.32a37.7,37.7,0,0,1-4.535-11.227,4.5,4.5,0,0,1,3.391-5.378h0a4.5,4.5,0,0,1,5.388,3.395,29.342,29.342,0,0,0,6.5,12.684c5.839-11.38,10.361-16.21,17.439-19.081a3,3,0,0,1,4.008,3.617,27.11,27.11,0,0,1-2.227,5.191,24.044,24.044,0,0,1,6.046-.794,20.818,20.818,0,0,1,7.255,1.269,16.371,16.371,0,0,1,4.94,2.817c2.193,1.883,7.156,7.837,12.036,15.162,4.346,6.525,10.177,16.444,13.272,26.643a17.26,17.26,0,0,1,.723,7.365,13.1,13.1,0,0,1-2.484,6.079,18.141,18.141,0,0,1-6.523,5.235,36.748,36.748,0,0,1-8.392,2.886A82.359,82.359,0,0,1,1599.158,426.114Z"/>
        <path id="Path_3148" data-name="Path 3148" d="M1611.558,399.407a3.07,3.07,0,0,0,1.98,3.219c2.276.807,9.591,3.44,9.688,3.025s-5.534-6.59-8.14-7.456A2.688,2.688,0,0,0,1611.558,399.407Z" fill="#ff9fa4"/>
        <path id="Path_3149" data-name="Path 3149" d="M1607.953,392.074a3.069,3.069,0,0,0,3.056,2.222c2.412-.12,10.179-.47,10.11-.891s-7.625-3.987-10.365-3.8A2.688,2.688,0,0,0,1607.953,392.074Z" fill="#ff9fa4"/>
        <path id="Path_3150" data-name="Path 3150" d="M1602.622,384.743a2.837,2.837,0,0,0,3.169,1.361c2.1-.579,8.892-2.409,8.743-2.767s-7.577-2.021-9.957-1.316A2.388,2.388,0,0,0,1602.622,384.743Z" fill="#ff9fa4"/>
        <path id="Path_3151" data-name="Path 3151" d="M1596.786,376.329a2.836,2.836,0,0,0,3.168,1.361c2.1-.578,8.893-2.408,8.744-2.766s-7.578-2.022-9.958-1.316A2.387,2.387,0,0,0,1596.786,376.329Z" fill="#ff9fa4"/>
      </g>
      <ellipse id="Ellipse_559" data-name="Ellipse 559" cx="1.181" cy="2.939" rx="1.181" ry="2.939" transform="translate(1579.659 418.394) rotate(-78.658)" fill="#ffc73b"/>
      <ellipse id="Ellipse_560" data-name="Ellipse 560" cx="1.181" cy="2.939" rx="1.181" ry="2.939" transform="translate(1569.205 408.414) rotate(-64.346)" fill="#ffc73b"/>
      <ellipse id="Ellipse_561" data-name="Ellipse 561" cx="1.181" cy="2.939" rx="1.181" ry="2.939" transform="matrix(0.044, -0.999, 0.999, 0.044, 1597.879, 420.954)" fill="#ffc73b"/>
      <ellipse id="Ellipse_562" data-name="Ellipse 562" cx="1.181" cy="2.939" rx="1.181" ry="2.939" transform="matrix(0.044, -0.999, 0.999, 0.044, 1610.725, 417.034)" fill="#ffc73b"/>
      <ellipse id="Ellipse_563" data-name="Ellipse 563" cx="1.181" cy="2.939" rx="1.181" ry="2.939" transform="matrix(0.098, -0.995, 0.995, 0.098, 1591.069, 414.839)" fill="#ffc73b"/>
    </g>
  </g>
</svg>
