<svg xmlns="http://www.w3.org/2000/svg" width="700.001" height="420.298" viewBox="0 0 700.001 420.298">
  <g id="Group_1781" data-name="Group 1781" transform="translate(3176.885 -2625.154)">
    <ellipse id="Ellipse_816" data-name="Ellipse 816" cx="194.949" cy="194.949" rx="194.949" ry="194.949" transform="translate(-3021.833 2625.154)" fill="#ffedcf"/>
    <ellipse id="Ellipse_817" data-name="Ellipse 817" cx="165.383" cy="165.383" rx="165.383" ry="165.383" transform="translate(-2991.927 2655.06)" fill="#ffdca4"/>
    <ellipse id="Ellipse_818" data-name="Ellipse 818" cx="119.297" cy="119.297" rx="119.297" ry="119.297" transform="translate(-2945.917 2701.07)" fill="#ffcc71"/>
    <g id="Group_1780" data-name="Group 1780" transform="translate(-3176.884 2760.081)">
      <g id="Group_1763" data-name="Group 1763" transform="translate(226.388 35.21)">
        <path id="Path_3982" data-name="Path 3982" d="M-2860.3,2794.487s35.5,9.85,39.906-29.741a33.6,33.6,0,0,0-6.633-22.473c-1.768-2.534,3.023-7.006-1.418-14.456a67.673,67.673,0,0,1-7.035-16.565c-.831-2.812-10.346-19.154-21.424-24.235s-13.281-20.12-25.526-23.635-33.323-7.269-35.934-5.071,11.583,16.066-7.31,47.309-4.088,62.73,4.561,66.49,20.955,18.159,35.834,20.59S-2890.493,2805.75-2860.3,2794.487Z" transform="translate(3088.901 -2644.934)" fill="#9dd77f"/>
        <path id="Path_3983" data-name="Path 3983" d="M-2993.277,2822.149s-32.3-14.161-36.146-38.936-1.687-39.819,8.819-68.292,42.638-53.808,42.638-53.808,7.725-4.634,7.107-1.546,5.562,1.346,7.106,5.772,12.359,9.06,5.252,18.947-38.673,129.761-30.614,133.165S-2993.277,2822.149-2993.277,2822.149Z" transform="translate(3031.201 -2644.424)" fill="#9dd77f"/>
        <path id="Path_3984" data-name="Path 3984" d="M-2931.742,2745.877a16.333,16.333,0,0,0,3.951-5.7,16.448,16.448,0,0,0-8.918-21.486c-.253-.106-.509-.181-.763-.272a16.349,16.349,0,0,0,4.529-6.218,16.439,16.439,0,0,0-8.534-21.306,12.051,12.051,0,0,0-7.406-12.1,12.051,12.051,0,0,0-15.74,6.533,12.057,12.057,0,0,0-.782,2.908,12.044,12.044,0,0,0-14.793,6.868,12.025,12.025,0,0,0-.7,2.315,12.047,12.047,0,0,0-9.831,7.375,12.047,12.047,0,0,0-.774,2.85,12,12,0,0,0-3.009,4.279,11.98,11.98,0,0,0-.536,7.548,12,12,0,0,0-7.03,6.71,12,12,0,0,0-.332,8.28,16.6,16.6,0,0,0-1.471,2.762,16.448,16.448,0,0,0,8.918,21.486,16.364,16.364,0,0,0,5.9,1.232,16.414,16.414,0,0,0,9.406,10.279,16.421,16.421,0,0,0,5.041,1.194,16.408,16.408,0,0,0,9.609,11.027,16.446,16.446,0,0,0,20.572-7.075,16.451,16.451,0,0,0,18.277-9.877A16.443,16.443,0,0,0-2931.742,2745.877Z" transform="translate(3046.814 -2632.824)" fill="#fff"/>
        <path id="Path_3985" data-name="Path 3985" d="M-2926.806,2729a21.2,21.2,0,0,0-4.849,7.561,21.307,21.307,0,0,0,12.54,27.4c.331.123.667.209,1,.315a21.2,21.2,0,0,0-5.575,8.259,21.293,21.293,0,0,0,12.034,27.183,15.611,15.611,0,0,0,10.147,15.318,15.607,15.607,0,0,0,20.071-9.186,15.6,15.6,0,0,0,.878-3.8,15.6,15.6,0,0,0,18.83-9.577,15.63,15.63,0,0,0,.793-3.03,15.6,15.6,0,0,0,12.383-10,15.672,15.672,0,0,0,.87-3.726,15.519,15.519,0,0,0,3.7-5.679,15.513,15.513,0,0,0,.343-9.793,15.553,15.553,0,0,0,8.789-9.013,15.533,15.533,0,0,0,.046-10.733,21.355,21.355,0,0,0,1.777-3.644,21.308,21.308,0,0,0-12.54-27.4,21.235,21.235,0,0,0-7.689-1.32,21.265,21.265,0,0,0-12.653-12.868,21.262,21.262,0,0,0-6.581-1.313,21.255,21.255,0,0,0-12.948-13.828,21.3,21.3,0,0,0-26.3,10.111,21.314,21.314,0,0,0-23.2,13.633A21.3,21.3,0,0,0-2926.806,2729Z" transform="translate(3088.037 -2632.284)" fill="#fff"/>
        <path id="Path_3986" data-name="Path 3986" d="M-2951.162,2688.666a16.455,16.455,0,0,0-3.763,5.868,16.536,16.536,0,0,0,9.731,21.262c.258.1.518.163.777.245a16.44,16.44,0,0,0-4.327,6.409,16.524,16.524,0,0,0,9.339,21.095,12.114,12.114,0,0,0,7.874,11.887,12.112,12.112,0,0,0,15.575-7.129,12.064,12.064,0,0,0,.682-2.948,12.105,12.105,0,0,0,14.613-7.433,12.018,12.018,0,0,0,.615-2.35,12.1,12.1,0,0,0,9.608-7.762,12.043,12.043,0,0,0,.675-2.89,12.043,12.043,0,0,0,2.87-4.406,12.046,12.046,0,0,0,.266-7.6,12.061,12.061,0,0,0,6.821-6.993,12.05,12.05,0,0,0,.037-8.329,16.72,16.72,0,0,0,1.378-2.828,16.536,16.536,0,0,0-9.73-21.263,16.443,16.443,0,0,0-5.968-1.023,16.5,16.5,0,0,0-9.818-9.986,16.466,16.466,0,0,0-5.106-1.019,16.488,16.488,0,0,0-10.049-10.731,16.527,16.527,0,0,0-20.408,7.845,16.541,16.541,0,0,0-18.005,10.581A16.527,16.527,0,0,0-2951.162,2688.666Z" transform="translate(3074.724 -2649.699)" fill="#f4f0dc"/>
        <path id="Path_3987" data-name="Path 3987" d="M-2925.019,2728.618a17.646,17.646,0,0,0,4.572-5.925,17.754,17.754,0,0,0-8.426-23.65c-.265-.126-.539-.222-.807-.334a17.67,17.67,0,0,0,5.224-6.451,17.74,17.74,0,0,0-8.022-23.432,13.006,13.006,0,0,0-7.313-13.449,13.006,13.006,0,0,0-17.324,6.173,13.029,13.029,0,0,0-1,3.09,13,13,0,0,0-16.323,6.585,12.893,12.893,0,0,0-.878,2.457,13,13,0,0,0-11,7.406,12.921,12.921,0,0,0-.991,3.03,12.912,12.912,0,0,0-3.479,4.445,12.92,12.92,0,0,0-.993,8.1,12.951,12.951,0,0,0-7.948,6.844,12.944,12.944,0,0,0-.816,8.906,18.025,18.025,0,0,0-1.738,2.9,17.752,17.752,0,0,0,8.426,23.648,17.662,17.662,0,0,0,6.287,1.651,17.71,17.71,0,0,0,9.571,11.6,17.71,17.71,0,0,0,5.367,1.565,17.7,17.7,0,0,0,9.747,12.415,17.744,17.744,0,0,0,22.56-6.49,17.758,17.758,0,0,0,20.244-9.636A17.742,17.742,0,0,0-2925.019,2728.618Z" transform="translate(3047.489 -2647.053)" fill="#fff"/>
        <path id="Path_3988" data-name="Path 3988" d="M-2930.513,2790.475a15.876,15.876,0,0,0,.993-5.489,15.919,15.919,0,0,0-12.576-15.561,15.843,15.843,0,0,0,1.014-5.548,15.91,15.91,0,0,0-10.635-15,15.9,15.9,0,0,0,.427-3.612,15.9,15.9,0,0,0-7.757-13.648,15.941,15.941,0,0,0,.342-3.281,15.919,15.919,0,0,0-15.919-15.918,15.879,15.879,0,0,0-12.225,5.729,15.907,15.907,0,0,0-12.846,8.418,15.924,15.924,0,0,0-11.246,15.219,15.848,15.848,0,0,0,1.846,7.435,15.83,15.83,0,0,0-2.465,8.483,15.9,15.9,0,0,0,7.839,13.7,15.868,15.868,0,0,0-1.035,5.606,15.918,15.918,0,0,0,15.918,15.919c.135,0,.264-.018.4-.021a15.947,15.947,0,0,0-.4,3.5,15.918,15.918,0,0,0,15.919,15.918,15.838,15.838,0,0,0,5.842-1.121,15.9,15.9,0,0,0,13.287,7.164,15.821,15.821,0,0,0,6.552-1.423,15.839,15.839,0,0,0,10.75,4.2,15.918,15.918,0,0,0,15.919-15.917A15.913,15.913,0,0,0-2930.513,2790.475Z" transform="translate(3042.962 -2612.144)" fill="#f4f0dc"/>
        <path id="Path_3989" data-name="Path 3989" d="M-2918.86,2768.471a16.363,16.363,0,0,0,1.474-6.777,16.451,16.451,0,0,0-16.45-16.45c-.274,0-.541.028-.809.042a16.375,16.375,0,0,0,1.81-7.478,16.44,16.44,0,0,0-16.026-16.429,12.053,12.053,0,0,0-11.467-8.353,12.051,12.051,0,0,0-12.05,12.051,12.013,12.013,0,0,0,.388,2.986,12.044,12.044,0,0,0-11.048,12,12.017,12.017,0,0,0,.242,2.406,12.044,12.044,0,0,0-6.267,10.571,12.04,12.04,0,0,0,.374,2.929,11.993,11.993,0,0,0-1.146,5.1,11.981,11.981,0,0,0,2.389,7.178,12.007,12.007,0,0,0-3.933,8.888,12,12,0,0,0,2.855,7.78,16.475,16.475,0,0,0-.3,3.114,16.451,16.451,0,0,0,16.45,16.45,16.4,16.4,0,0,0,5.919-1.116,16.412,16.412,0,0,0,12.619,5.9,16.459,16.459,0,0,0,5.116-.82,16.407,16.407,0,0,0,13.093,6.518,16.441,16.441,0,0,0,16.307-14.4,16.456,16.456,0,0,0,13.118-16.112A16.444,16.444,0,0,0-2918.86,2768.471Z" transform="translate(3055.046 -2611.778)" fill="#fff"/>
        <path id="Path_3990" data-name="Path 3990" d="M-2872.194,2752.456a23.04,23.04,0,0,0,2.237-9.879c0-13.245-11.182-23.982-24.976-23.982-.416,0-.818.04-1.228.059a23.088,23.088,0,0,0,2.748-10.9c0-13.036-10.84-23.62-24.333-23.951a18.238,18.238,0,0,0-17.409-12.176c-10.106,0-18.3,7.866-18.3,17.569a16.929,16.929,0,0,0,.589,4.352c-9.39.745-16.773,8.285-16.773,17.494a16.952,16.952,0,0,0,.366,3.508,17.468,17.468,0,0,0-9.514,15.411,16.824,16.824,0,0,0,.568,4.27,16.875,16.875,0,0,0-1.741,7.443,17.015,17.015,0,0,0,3.626,10.466,17.2,17.2,0,0,0-5.972,12.957,17.08,17.08,0,0,0,4.336,11.342,23.152,23.152,0,0,0-.46,4.54c0,13.245,11.182,23.982,24.976,23.982a25.76,25.76,0,0,0,8.987-1.625,25.341,25.341,0,0,0,19.161,8.607,25.829,25.829,0,0,0,7.766-1.2,25.27,25.27,0,0,0,19.879,9.5c12.736,0,23.224-9.159,24.76-20.989,11.369-2.245,19.919-11.908,19.919-23.487C-2852.979,2764.434-2861.182,2754.958-2872.194,2752.456Z" transform="translate(3060.481 -2636.569)" fill="#f4f0dc"/>
        <path id="Path_3991" data-name="Path 3991" d="M-2891.062,2717.068a25.272,25.272,0,0,0,.133-2.569,24.8,24.8,0,0,0-24.794-24.8,24.813,24.813,0,0,0-7.417,1.13,24.793,24.793,0,0,0-7.415-1.13,24.8,24.8,0,0,0-24.794,24.8,24.84,24.84,0,0,0,.465,4.75,24.831,24.831,0,0,0-.465,4.75,24.8,24.8,0,0,0,24.794,24.8,24.744,24.744,0,0,0,6.616-.919,24.706,24.706,0,0,0,9.374,1.846,24.794,24.794,0,0,0,24.8-24.795A24.729,24.729,0,0,0-2891.062,2717.068Z" transform="translate(3076.62 -2625.744)" fill="#fff"/>
        <path id="Path_3992" data-name="Path 3992" d="M-2871.377,2736.22a22.507,22.507,0,0,0,3.043-11.3,22.636,22.636,0,0,0-22.637-22.637,22.51,22.51,0,0,0-11.151,2.951,22.636,22.636,0,0,0-21.394,16.048,22.589,22.589,0,0,0-9.617,18.5,22.636,22.636,0,0,0,22.635,22.636,22.808,22.808,0,0,0,2.618-.163,22.622,22.622,0,0,0,20.02,12.087,22.637,22.637,0,0,0,22.636-22.637A22.533,22.533,0,0,0-2871.377,2736.22Z" transform="translate(3089.924 -2618.213)" fill="#f4f0dc"/>
      </g>
      <g id="Group_1767" data-name="Group 1767" transform="translate(490.075 35.21)">
        <g id="Group_1764" data-name="Group 1764" transform="translate(16.318 33.984)">
          <path id="Path_3998" data-name="Path 3998" d="M-2867.175,2818.287s5.3-10.979,3.259-26.865-1.407-32.334,4.733-24.8,15.52,18.615,17.244,5.47-1.692-20.141,6.313-37.422,12.385-24.774,15.417-17.492,11.118,19.268,12.94,5.453-1.255-22.194,3.4-25,8.852-1.641,14.354-1.858,13.594-3.2,16.431-7.159,35.461-6.654,35.579.232-5.3,16.55-4.612,24.444.016,14.563-12.4,16.021-4.606,13.577-3.042,17.241,4.977,11.138-11.239,12.653-28.212-4.448-40.862,2.1c-3.278,3.827-1.106,8.245,4.581,12.1s19.111,20.339.045,16.464-24.9-6.372-33.216.662,5.557,9.993,8.313,11.474.667,7.1-8.5,6.819S-2854.632,2808.746-2867.175,2818.287Z" transform="translate(2887.944 -2684.612)" fill="#90be16"/>
          <path id="Path_3999" data-name="Path 3999" d="M-2754.417,2695.747s-75.384,70.935-125.281,141.806" transform="translate(2879.697 -2677.278)" fill="none" stroke="#f7fae5" stroke-linecap="round" stroke-linejoin="round" stroke-width="3"/>
        </g>
        <g id="Group_1765" data-name="Group 1765">
          <path id="Path_4000" data-name="Path 4000" d="M-2848.447,2664.123s-10.085,9.118-9.6,15.13,2.3,12.313-2.647,12.327-12.521,3.757-2.317,10.784,17.192,13.364,4.417,9.008-14.374,2.823-9.106,12.82,12.05,25.69-3.475,16.177,2.425,19.056,4.08,23.442,13.019,31.272-14.5,25.092c3.535,13.117,7.645,27.7,5.55,33.7s5.949-3.624,9.887-8.822,15.059-12.885,23.216-13.349c2.163-2.557.815-2.848-4.5-4.39s-9.972-5.165-1.122-13.538,23.933-14.807,23.933-14.807,9.7-5.774-2.253-7.334-16.771-2.594-10.274-8.452,18.965-10.433,21.541-17.736-.037-11.09-9.365-9.87-11.966-3.375-6.531-8.051,21.158-23.462,3.465-23.634c-3.865.175-6-2.1-5.5-4.406s2.619-10.319-5.4-14.256S-2848.447,2664.123-2848.447,2664.123Z" transform="translate(2894.759 -2664.123)" fill="#64a338"/>
          <path id="Path_4001" data-name="Path 4001" d="M-2840.68,2675.7s12.115,105.108-48.855,163.694" transform="translate(2889.535 -2656.499)" fill="none" stroke="#f7fae5" stroke-linecap="round" stroke-linejoin="round" stroke-width="3"/>
        </g>
        <g id="Group_1766" data-name="Group 1766" transform="translate(1.22 72.641)">
          <path id="Path_4002" data-name="Path 4002" d="M-2856.743,2806.669s11.747-2.684,26.6,2.793,39.192,11.933,33.292,4.354-3.712-12.649,9.33-11.406,8.8-4.327,27.212-8.222,17.677-5.9,11.334-10.433-16.106-14.963-2.4-13.669,21.1,6.109,24.83,2.249,3.534-8.166,4.959-13.416,6.084-12.388,10.524-14.248,14.241-32.688,7.633-34.322-17.113,1.451-24.564-.954-14.024-3.231-18.17,8.406-14.1,1.44-17.28-.876-9.629-7.254-14.67,8.033-1.944,28.155-11.048,38.894c-4.409,2.313-8.186-.753-10.649-7.084s-15.371-22.9-15.848-3.679.641,25.4-7.971,31.849-8.4-7.558-9.216-10.541-6.7-2.21-8.446,6.685S-2844.784,2796.694-2856.743,2806.669Z" transform="translate(2909.913 -2707.918)" fill="#64a338"/>
          <path id="Path_4003" data-name="Path 4003" d="M-2888.8,2784.571s85.04,38.464,165.205-54.581" transform="translate(2888.799 -2693.381)" fill="none" stroke="#f7fae5" stroke-linecap="round" stroke-linejoin="round" stroke-width="3"/>
        </g>
      </g>
      <g id="Group_1768" data-name="Group 1768" transform="translate(490.074 172.104)">
        <path id="Path_4004" data-name="Path 4004" d="M-2855.2,2759.62s22.043-24.871,47.034-8.449c11.174,7.586,26.079,12.4,32.435,17.427s25.231,19.826,21.325,43.83-35.409,35.945-60.942,29.565-34.7-12.8-42.514-24.984c-5.049-7.876-7.813-16.2-7.9-27.618C-2865.863,2774.972-2860.342,2766.3-2855.2,2759.62Z" transform="translate(2865.759 -2745.563)" fill="#d4a450"/>
        <circle id="Ellipse_819" data-name="Ellipse 819" cx="2.293" cy="2.293" r="2.293" transform="translate(47.732 77.783)" fill="#92602d"/>
        <circle id="Ellipse_820" data-name="Ellipse 820" cx="2.293" cy="2.293" r="2.293" transform="translate(26.758 72.059)" fill="#92602d"/>
        <circle id="Ellipse_821" data-name="Ellipse 821" cx="2.293" cy="2.293" r="2.293" transform="translate(43.58 61.984)" fill="#92602d"/>
        <circle id="Ellipse_822" data-name="Ellipse 822" cx="2.293" cy="2.293" r="2.293" transform="translate(27.099 55.183)" fill="#92602d"/>
        <circle id="Ellipse_823" data-name="Ellipse 823" cx="2.293" cy="2.293" r="2.293" transform="translate(11.866 59.924)" fill="#92602d"/>
        <path id="Path_4005" data-name="Path 4005" d="M-2804.431,2764.9s-35.443,21.725-22.2,51.846c5.831,11.861,17.452,16.825,23.438,16.817s17.1.766,17.726.707,17.142,3.179,28.617-14.3,17.155-37.85-6.472-55.976C-2771.829,2757.774-2791.567,2754.026-2804.431,2764.9Z" transform="translate(2889.578 -2737.374)" fill="#bd7e2f"/>
        <path id="Path_4006" data-name="Path 4006" d="M-2815.2,2771.632s-13.351,17.21-3.394,36.152,18.744,21.485,22.449,22.7,22.667,4.341,33.167-13.669,9.338-28.585,8.489-30.993-7.151-19.241-25.281-25.225S-2812.9,2767.984-2815.2,2771.632Z" transform="translate(2894.394 -2736.664)" fill="#f4e192"/>
        <path id="Path_4007" data-name="Path 4007" d="M-2812.7,2773.378s-11.01,14.191-2.8,29.812,15.457,17.718,18.512,18.718,18.691,3.579,27.353-11.272,7.7-23.573,7-25.558-5.9-15.868-20.849-20.8S-2810.8,2770.371-2812.7,2773.378Z" transform="translate(2896.86 -2734.063)" fill="#f2c56b"/>
        <line id="Line_470" data-name="Line 470" x1="7.454" y1="16.49" transform="translate(99.614 37.453)" fill="none" stroke="#f4e192" stroke-linecap="round" stroke-linejoin="round" stroke-width="2"/>
        <line id="Line_471" data-name="Line 471" x1="4.621" y1="6.211" transform="translate(110.798 60.638)" fill="none" stroke="#f4e192" stroke-linecap="round" stroke-linejoin="round" stroke-width="2"/>
        <line id="Line_472" data-name="Line 472" x1="8.82" y1="2.019" transform="translate(92.338 54.832)" fill="none" stroke="#f4e192" stroke-linecap="round" stroke-linejoin="round" stroke-width="2"/>
        <line id="Line_473" data-name="Line 473" x1="13.782" y2="3.897" transform="translate(111.29 51.394)" fill="none" stroke="#f4e192" stroke-linecap="round" stroke-linejoin="round" stroke-width="2"/>
      </g>
      <g id="Group_1769" data-name="Group 1769" transform="translate(99.046 24.039) rotate(-16)">
        <path id="Path_4008" data-name="Path 4008" d="M6.742,52.106l11.088-.272a7.533,7.533,0,0,0,7.338-7.957l-1.6-28.31L.325,0,0,45.48A6.582,6.582,0,0,0,6.742,52.106Z" transform="translate(39.477 135.402)" fill="#fbfbfb"/>
        <path id="Path_4009" data-name="Path 4009" d="M20.091,76.465,42.053,5.993a2.672,2.672,0,0,0-2.022-3.414l-12.4-2.5a4.137,4.137,0,0,0-4.537,2.25L0,49.979Z" transform="translate(45.037 22.15)" fill="#82cc58"/>
        <path id="Path_4010" data-name="Path 4010" d="M2.825.72,7.082.044a3.53,3.53,0,0,1,3.8,2.095L31.807,50.951,21.543,72.13,4.923,55.474.015,4.35A3.353,3.353,0,0,1,2.825.72Z" transform="translate(23.494)" fill="#62a537"/>
        <path id="Path_4011" data-name="Path 4011" d="M0,18.507,10.351,1.594A3.334,3.334,0,0,1,14.586.3L19.3,2.471a2.639,2.639,0,0,1,1.447,3.092L12.694,35.124,9.738,40.69Z" transform="translate(45.563 10.261)" fill="#569e2b"/>
        <path id="Path_4012" data-name="Path 4012" d="M63.042,114.767,39.8,99.2l-2-31.548a46.344,46.344,0,0,0-9.879-25.78L.607,7.292A2.818,2.818,0,0,1,1.3,3.171L5.235.654a4.146,4.146,0,0,1,5.17.563L61.056,51.98a13.975,13.975,0,0,1,4.072,10.431Z" transform="translate(0 36.204)" fill="#9dd77f"/>
      </g>
      <g id="Group_1770" data-name="Group 1770" transform="matrix(1, -0.017, 0.017, 1, 171.315, 21.15)">
        <path id="Path_4013" data-name="Path 4013" d="M4.6,17.142,14,1.537A3.183,3.183,0,0,1,16.812,0l1.158.033a2.165,2.165,0,0,1,2.047,2.659l-8.686,36.9L0,45.359Z" transform="translate(51.083)" fill="#569e2b"/>
        <path id="Path_4014" data-name="Path 4014" d="M2.957,64.634,9.3,67.8a4.783,4.783,0,0,0,6.449-2.217L36.925,21.337,22.443,0,.351,57.954A5.339,5.339,0,0,0,2.957,64.634Z" transform="translate(0 95.857)" fill="#f7fae5"/>
        <path id="Path_4015" data-name="Path 4015" d="M10.387,46.055,0,73,14.482,94.336l14.037-33.08a21.025,21.025,0,0,0,.67-14.633L14.674,1.308A1.88,1.88,0,0,0,12.362.074L7.288,1.532A3.265,3.265,0,0,0,4.953,5.1Z" transform="translate(22.443 22.858)" fill="#9dd77f"/>
        <path id="Path_4016" data-name="Path 4016" d="M0,29.153,17.494,1.505A3.239,3.239,0,0,1,20.827.055l8.384,1.576a2.557,2.557,0,0,1,1.844,3.594L4.794,61.523Z" transform="translate(46.043 22.885)" fill="#82cc58"/>
        <path id="Path_4017" data-name="Path 4017" d="M0,37.009,5.926,2.044A2.455,2.455,0,0,1,8.633.017l2.795.328a2.029,2.029,0,0,1,1.792,2l.164,30.645L3.644,48.385Z" transform="translate(42.4 3.653)" fill="#62a537"/>
      </g>
      <g id="Group_1772" data-name="Group 1772" transform="translate(382.212 139.708)">
        <path id="Path_4018" data-name="Path 4018" d="M-2914.489,2757.3s-37.148,45.157,6.142,79.295c0,0,21.168,16.915,60.457,3.382s43.07-64.548,8.93-86.42c-18.49-11.846-40.135-18.912-45.693-34.674s-8.482,5.611-9.068,6.688S-2896.939,2737.363-2914.489,2757.3Z" transform="translate(2929.319 -2713.107)" fill="#f49227"/>
        <g id="Group_1771" data-name="Group 1771" transform="translate(65.652 47.731)">
          <path id="Path_4019" data-name="Path 4019" d="M-2887.83,2742.914s-1.893,5.665,1.02,13.277a22.594,22.594,0,0,1,1.358,9.831,162.227,162.227,0,0,1-3.543,22.583c-4.784,21.391,14.714,37.855,24.934,44.412,11.314,7.257,37.691,14.029,56.424-17.049Z" transform="translate(2889.738 -2741.205)" fill="#ffbf73"/>
          <path id="Path_4020" data-name="Path 4020" d="M-2886.166,2742.307c-.458.235-.926.451-1.4.667-1.045.479-2.715,2.772,3.4,13.727,7.854,14.083,4.452,21.145,3.907,28.129-.317,4.064-.967,39.742,46.687,41.677,8.336.338,30.914-.29,28.925-29.031a13.527,13.527,0,0,0-.386-2.463c-4.248-16.349-29.144-29.2-45.583-29.076-14.636.105-26.716-15.751-29.659-19.956a12.572,12.572,0,0,1-.9-1.47C-2881.736,2743.425-2883.4,2740.882-2886.166,2742.307Z" transform="translate(2890.495 -2741.884)" fill="#efe9b9"/>
          <path id="Path_4021" data-name="Path 4021" d="M-2803.89,2797.475a13.549,13.549,0,0,0-.386-2.463c-4.248-16.349-29.144-29.2-45.583-29.076-14.635.105-26.714-15.751-29.658-19.954a12.79,12.79,0,0,1-.9-1.471c-.561-1.086-2.226-3.628-4.99-2.2-.458.235-.926.451-1.4.667a1.575,1.575,0,0,0-.781.843l-.246-.224s-1.892,5.665,1.02,13.277a22.613,22.613,0,0,1,1.36,9.831,162.511,162.511,0,0,1-3.544,22.583c-4.782,21.391,14.714,37.855,24.934,44.412,11.314,7.256,37.693,14.028,56.424-17.049l-.106-.1C-2804.935,2812.248-2803.29,2806.149-2803.89,2797.475Z" transform="translate(2889.738 -2741.884)" fill="none"/>
          <path id="Path_4022" data-name="Path 4022" d="M-2882.931,2748.1s7.034,13.849,8.132,35.278c1.261,24.607,29.162,44.335,59.546,31.815,6.772-20.842-5.249-39.544-33.645-45.635C-2870.073,2765.014-2882.931,2748.1-2882.931,2748.1Z" transform="translate(2894.221 -2737.789)" fill="#f4f0dc"/>
          <path id="Path_4023" data-name="Path 4023" d="M-2874.468,2760.476s4.032,9.525,9.419,24.523c5.747,16.006,18.542,22.267,43.075,20.444.548-13.759-13.843-29.89-29.885-33.911S-2874.468,2760.476-2874.468,2760.476Z" transform="translate(2899.795 -2729.638)" fill="#fafcf5"/>
          <path id="Path_4024" data-name="Path 4024" d="M-2864.988,2769.494s2.7,6.149,6.3,15.829c3.844,10.33,12.455,14.352,28.988,13.128.394-8.892-9.272-19.287-20.073-21.854S-2864.988,2769.494-2864.988,2769.494Z" transform="translate(2906.039 -2723.699)" fill="#e4fcca"/>
        </g>
        <path id="Path_4025" data-name="Path 4025" d="M-2895.82,2717.341a120.065,120.065,0,0,1-7.928,35.79,87.186,87.186,0,0,1-3.787,8.517l-.992,1.992-.909,1.951q-.881,1.974-1.619,4.02a79.057,79.057,0,0,0-4.122,16.892,61.99,61.99,0,0,0,.012,17.187,40.084,40.084,0,0,0,5.74,15.8,36.363,36.363,0,0,0,12.457,11.587,63.017,63.017,0,0,0,16.7,6.376,49.641,49.641,0,0,1-18.088-3.574,40.205,40.205,0,0,1-8.26-4.709,35.692,35.692,0,0,1-6.86-6.8,41.009,41.009,0,0,1-7.643-17.662,61.045,61.045,0,0,1-.373-19.024,74.525,74.525,0,0,1,4.814-18.253c.6-1.461,1.25-2.907,1.958-4.331.354-.711.721-1.42,1.113-2.116l1.151-2.015c1.461-2.547,2.873-5.146,4.165-7.817A216.361,216.361,0,0,0-2895.82,2717.341Z" transform="translate(2934.104 -2710.318)" fill="#ffbf73"/>
        <path id="Path_4026" data-name="Path 4026" d="M-2899.989,2720.351a158.324,158.324,0,0,1,.17,31.914,73.753,73.753,0,0,1-3.083,16.09l-.667,1.962c-.187.539-.39,1.065-.532,1.642a27.907,27.907,0,0,0-.767,3.5,47.792,47.792,0,0,0-.624,7.373,61.336,61.336,0,0,0,6.6,29,41.1,41.1,0,0,0,4.085,6.268,33.7,33.7,0,0,0,5.206,5.435,40.934,40.934,0,0,0,13.479,7.542,33.891,33.891,0,0,1-15.318-5.016,38.255,38.255,0,0,1-11.718-11.684,51.3,51.3,0,0,1-6.676-15.193,66.451,66.451,0,0,1-1.574-8.15,63.211,63.211,0,0,1-.444-8.3,51.842,51.842,0,0,1,.806-8.375,33.869,33.869,0,0,1,1.048-4.2c.2-.7.481-1.4.752-2.1l.68-1.758a94.182,94.182,0,0,0,3.852-14.749C-2902.813,2741.328-2901.49,2730.866-2899.989,2720.351Z" transform="translate(2940.82 -2708.335)" fill="#ffbf73"/>
      </g>
      <g id="Group_1773" data-name="Group 1773" transform="translate(0 69.269)">
        <path id="Path_4027" data-name="Path 4027" d="M-2969.1,2795.662s10.324-9.681,9.877-10.722l-3.692-8.584c-.436-1.015-75.853-70.664-116.993-94.6a12.38,12.38,0,0,0-.523-1.58,12.475,12.475,0,0,0-1.34-2.367,12.47,12.47,0,0,0-12.176-4.962c-.049-.123-.065-.25-.118-.371a12.459,12.459,0,0,0-16.368-6.523,12.434,12.434,0,0,0-1.184.657,12.415,12.415,0,0,0-12.946-1.976,12.412,12.412,0,0,0-7.376,9.729,12.409,12.409,0,0,0-12.135-1.337,12.4,12.4,0,0,0-6.751,7.175,14.651,14.651,0,0,0-3.742,1.037,14.725,14.725,0,0,0-7.709,19.345,14.724,14.724,0,0,0,19.344,7.709,14.665,14.665,0,0,0,7.961-8.366,12.412,12.412,0,0,0,12.835,1.887c.071-.031.128-.078.2-.11a12.445,12.445,0,0,0,15.276,4.552,12.459,12.459,0,0,0,16.368,6.523,12.359,12.359,0,0,0,2.87-1.792,12.385,12.385,0,0,0,.263,9.075,12.461,12.461,0,0,0,16.369,6.523c.374-.162.7-.388,1.046-.58l46.8,35.487Zm-114.408-90.183a12.78,12.78,0,0,0,.418-1.617c.127.345.26.687.393,1.03C-3082.972,2705.086-3083.251,2705.271-3083.509,2705.479Z" transform="translate(3204.242 -2663.625)" fill="#66aa17"/>
        <path id="Path_4028" data-name="Path 4028" d="M-3026.524,2785.551l-58.232-7.662c-.113-.381-.182-.77-.335-1.146a12.441,12.441,0,0,0-11.737-7.752,18.562,18.562,0,0,0-20.327-5.468,18.609,18.609,0,0,0-3.368,1.588,12.382,12.382,0,0,0-4.372.873,12.444,12.444,0,0,0-14.064-7.5c-.026-.072-.035-.147-.062-.218a12.411,12.411,0,0,0-10.455-7.679,14.68,14.68,0,0,0,.219-11.548,14.726,14.726,0,0,0-19.179-8.116,14.724,14.724,0,0,0-8.116,19.177,14.653,14.653,0,0,0,1.932,3.368,12.4,12.4,0,0,0-.243,9.849,12.411,12.411,0,0,0,9.57,7.579,12.414,12.414,0,0,0-1.593,12.1,12.416,12.416,0,0,0,10.6,7.7,12.468,12.468,0,0,0,.38,1.3,12.459,12.459,0,0,0,16.227,6.869c.123-.05.224-.128.343-.181a12.472,12.472,0,0,0,12.148,5.031,12.507,12.507,0,0,0,2.617-.741,12.664,12.664,0,0,0,1.483-.757c46.087,11.9,148.687,15.379,149.711,14.965l8.661-3.51c1.05-.425.513-14.568.513-14.568Z" transform="translate(3198.723 -2637.804)" fill="#66aa17"/>
        <path id="Path_4029" data-name="Path 4029" d="M-3131.226,2751.523s89.3,69.118,176.084,62.937c8.736-15.919,17.057-28.776,17.057-28.776s-34.412-56.767-161.248-52.675S-3131.226,2751.523-3131.226,2751.523Z" transform="translate(3203.512 -2636.65)" fill="#efefbf"/>
        <path id="Path_4030" data-name="Path 4030" d="M-2975.051,2741.469c-4.09-6.775-8.736-9.072-15.167-9.6-.053,0-.095.042-.145.058a13.869,13.869,0,0,0-16.907-6.634,13.866,13.866,0,0,0-15.691-8.976,13.868,13.868,0,0,0-16.1-5.292c-.049.016-.094.041-.144.06a13.867,13.867,0,0,0-16.906-6.636,13.877,13.877,0,0,0-17.713-8.444,13.917,13.917,0,0,0-2.444,1.148,13.866,13.866,0,0,0-16.894-6.612,13.817,13.817,0,0,0-4.264,2.449,13.876,13.876,0,0,0-17.185-7.165,13.787,13.787,0,0,0-5.178,3.288,13.86,13.86,0,0,0-14.414-3.254,13.8,13.8,0,0,0-6.625,4.981,13.882,13.882,0,0,0-14.846-3.682,13.861,13.861,0,0,0-8.753,9.452,13.826,13.826,0,0,0-6.911.606,13.863,13.863,0,0,0-9.131,11.442,13.953,13.953,0,0,0-3.09.7,13.875,13.875,0,0,0-8.443,17.713,13.859,13.859,0,0,0,9.773,8.836,13.811,13.811,0,0,0-.026,9.34,13.815,13.815,0,0,0,6.9,7.78,13.808,13.808,0,0,0,.3,8.3,13.875,13.875,0,0,0,17.714,8.442,13.875,13.875,0,0,0,17.715,8.444,13.876,13.876,0,0,0,17.712,8.445,13.827,13.827,0,0,0,4.831-2.938,13.866,13.866,0,0,0,16.913,6.648,13.828,13.828,0,0,0,4.768-2.873,13.88,13.88,0,0,0,17.166,7.118,13.881,13.881,0,0,0,9.216-12.216,13.877,13.877,0,0,0,16.458,5.821,13.843,13.843,0,0,0,8.444-8.464,13.865,13.865,0,0,0,17.52,7.973,13.831,13.831,0,0,0,4.523-2.663,13.854,13.854,0,0,0,13.384,2.327,13.816,13.816,0,0,0,5.406-3.517,13.873,13.873,0,0,0,14.747,3.585,13.877,13.877,0,0,0,8.443-17.714,13.942,13.942,0,0,0-.781-1.761,13.869,13.869,0,0,0,6.7-15.147C-2971.737,2749.292-2972.657,2745.433-2975.051,2741.469Z" transform="translate(3192.806 -2655.28)" fill="#afd634"/>
        <path id="Path_4031" data-name="Path 4031" d="M-3138.464,2710.469s-9.122,3.083-2,5.367,135.746,36.312,170.892,66.819c10.146,10.825,16.488,19.393,20.018,16.639s10.211-23.747,7.9-27.734S-2984.349,2716.387-3138.464,2710.469Z" transform="translate(3212.156 -2645.357)" fill="#f7fae5"/>
        <path id="Path_4032" data-name="Path 4032" d="M-2967.407,2776.369c-14.51,10.722-105.723,8.233-146.226,6.558a1.813,1.813,0,0,0-.45,3.582c127.694,29.32,136.132,9.069,136.132,9.069Z" transform="translate(3222.951 -2619.659)" fill="#f7fae5"/>
      </g>
      <g id="Group_1774" data-name="Group 1774" transform="translate(180.854 149.61)">
        <g id="Group_766" data-name="Group 766">
          <path id="Path_1798" data-name="Path 1798" d="M-2991.166,2765.11l42.864-24.036a5.618,5.618,0,0,1,7.653,2.141c.038.067.075.137.111.207l4.36,8.574a8.093,8.093,0,0,1-3.548,10.882,8.085,8.085,0,0,1-1.305.528l-44.138,13.473Z" transform="translate(3092.38 -2733.631)" fill="#227200"/>
          <path id="Path_1799" data-name="Path 1799" d="M-2994.958,2758.284l31.99-21.175a4.9,4.9,0,0,1,6.785,1.394,4.641,4.641,0,0,1,.252.428l3.866,7.441a5.16,5.16,0,0,1-2.2,6.959c-.1.052-.2.1-.3.145l-34.06,15Z" transform="translate(3089.883 -2736.3)" fill="#39b54a"/>
          <path id="Path_1800" data-name="Path 1800" d="M-2945.2,2764.416c14.157,32.881-11.985,40.756-56.824,51.113s-49.409-5.377-49.409-5.377-8.292-14.128,30.046-39.583S-2959.358,2731.535-2945.2,2764.416Z" transform="translate(3052.188 -2730.562)" fill="#ff7139"/>
          <path id="Path_1801" data-name="Path 1801" d="M-3013.217,2762.966a4.043,4.043,0,0,1-2.676-5.051,4.042,4.042,0,0,1,1.515-2.1c.555-.4,13.778-9.708,25.513-6.106a4.042,4.042,0,0,1,2.679,5.049,4.043,4.043,0,0,1-5.052,2.677c-7.832-2.4-18.334,4.883-18.44,4.955A4.041,4.041,0,0,1-3013.217,2762.966Z" transform="translate(3075.977 -2728.012)" fill="#fff"/>
        </g>
        <path id="Line_296" data-name="Line 296" d="M-3030.146,2791.477a2,2,0,0,1-1.207-1.017l-5.952-11.7a2.02,2.02,0,0,1,.886-2.718,2.019,2.019,0,0,1,2.717.886l5.949,11.7a2.02,2.02,0,0,1-.887,2.717A2.02,2.02,0,0,1-3030.146,2791.477Z" transform="translate(3061.847 -2710.269)" fill="#e2511e"/>
        <path id="Line_297" data-name="Line 297" d="M-3020.456,2777.1a2.013,2.013,0,0,1-1.209-1.017l-5.952-11.705a2.02,2.02,0,0,1,.886-2.717,2.022,2.022,0,0,1,2.718.885l5.948,11.705a2.02,2.02,0,0,1-.887,2.717A2.018,2.018,0,0,1-3020.456,2777.1Z" transform="translate(3068.228 -2719.741)" fill="#e2511e"/>
        <path id="Line_298" data-name="Line 298" d="M-2999.288,2781.9a2.011,2.011,0,0,1-1.207-1.016l-5.952-11.7a2.022,2.022,0,0,1,.886-2.718,2.02,2.02,0,0,1,2.717.887l5.95,11.705a2.018,2.018,0,0,1-.888,2.715A2.021,2.021,0,0,1-2999.288,2781.9Z" transform="translate(3082.171 -2716.578)" fill="#e2511e"/>
      </g>
      <g id="Group_1775" data-name="Group 1775" transform="translate(241.8 157.384)">
        <g id="Group_766-2" data-name="Group 766">
          <path id="Path_1798-2" data-name="Path 1798" d="M-2958.43,2759.066l31.641-35.312a5.424,5.424,0,0,1,7.657-.43c.056.05.112.1.165.155l6.653,6.469a7.81,7.81,0,0,1,.156,11.042,7.737,7.737,0,0,1-1.029.888l-36.1,26.067Z" transform="translate(3037.791 -2721.217)" fill="#e4ff83"/>
          <path id="Path_1799-2" data-name="Path 1799" d="M-2965.123,2752.527l22.606-29.309a4.724,4.724,0,0,1,6.629-.843,4.417,4.417,0,0,1,.363.312l5.851,5.59a4.977,4.977,0,0,1,.161,7.039c-.072.078-.149.152-.227.224l-26.419,24.325Z" transform="translate(3035.781 -2721.385)" fill="#39b54a"/>
          <path id="Path_1800-2" data-name="Path 1800" d="M-2934.082,2753.459c23.18,25.608,1.767,40.949-35.944,64.388s-46.79,10.5-46.79,10.5-11.975-10.314,15.091-45.511S-2957.262,2727.853-2934.082,2753.459Z" transform="translate(3019.455 -2715.241)" fill="#ff931e"/>
          <path id="Path_1801-2" data-name="Path 1801" d="M-2983.668,2766.7a3.9,3.9,0,0,1-4.017-3.777,3.9,3.9,0,0,1,.727-2.391c.383-.537,9.553-13.161,21.392-13.53a3.9,3.9,0,0,1,4.02,3.775,3.9,3.9,0,0,1-3.775,4.019c-7.9.247-15.22,10.174-15.293,10.273A3.893,3.893,0,0,1-2983.668,2766.7Z" transform="translate(3029 -2713.688)" fill="#fff"/>
        </g>
        <path id="Line_296-2" data-name="Line 296" d="M-2992.747,2805.015a1.945,1.945,0,0,1-1.421-.553l-9.084-8.83a1.95,1.95,0,0,1-.038-2.757,1.951,1.951,0,0,1,2.758-.039l9.081,8.833a1.949,1.949,0,0,1,.037,2.757A1.95,1.95,0,0,1-2992.747,2805.015Z" transform="translate(3024.147 -2700.082)" fill="#e2511e"/>
        <path id="Line_297-2" data-name="Line 297" d="M-2987.183,2784.417a1.949,1.949,0,0,1-1.422-.552l-9.083-8.83a1.952,1.952,0,0,1-.039-2.759,1.953,1.953,0,0,1,2.759-.037l9.081,8.833a1.949,1.949,0,0,1,.038,2.756A1.952,1.952,0,0,1-2987.183,2784.417Z" transform="translate(3025.818 -2706.271)" fill="#e2511e"/>
        <path id="Line_298-2" data-name="Line 298" d="M-2960.621,2781.588a1.944,1.944,0,0,1-1.421-.552l-9.083-8.831a1.951,1.951,0,0,1-.038-2.757,1.95,1.95,0,0,1,2.759-.038l9.081,8.831a1.949,1.949,0,0,1,.036,2.757A1.948,1.948,0,0,1-2960.621,2781.588Z" transform="translate(3033.8 -2707.121)" fill="#e2511e"/>
      </g>
      <g id="Group_1777" data-name="Group 1777" transform="translate(133.136 162.663)">
        <g id="Group_1782" data-name="Group 1782" transform="translate(0 0)">
          <g id="Group_1776" data-name="Group 1776">
            <path id="Path_4033" data-name="Path 4033" d="M-3058.772,2773.14s16.175-21.925,10.833-34.223" transform="translate(3121.329 -2732.516)" fill="none" stroke="#1c7c1c" stroke-linecap="round" stroke-miterlimit="10" stroke-width="7"/>
            <path id="Path_4034" data-name="Path 4034" d="M-3055.179,2771.48s25.561-13.783,26.891-26.863" transform="translate(3123.695 -2728.762)" fill="none" stroke="#1c7c1c" stroke-linecap="round" stroke-miterlimit="10" stroke-width="7"/>
            <path id="Path_4035" data-name="Path 4035" d="M-3057,2774.432s23.269-23.46,21.251-39.375" transform="translate(3122.499 -2735.058)" fill="none" stroke="#1c7c1c" stroke-linecap="round" stroke-miterlimit="10" stroke-width="7"/>
            <path id="Path_4036" data-name="Path 4036" d="M-3013.067,2789.029c0,21.8-18.19,37.7-40.631,37.7s-36.147-13.2-36.147-35,13.707-42.172,36.147-42.172S-3013.067,2767.227-3013.067,2789.029Z" transform="translate(3100.863 -2725.51)" fill="#c41b5c"/>
            <path id="Path_4037" data-name="Path 4037" d="M-3093.434,2828.93a2.513,2.513,0,0,1-1.761-4.644c13.3-7.412,32.947-22.84,29.864-48.237-4.1-33.786,23.644,4.086,29.7,12.688a2.5,2.5,0,0,1-.209,3.154C-3041.849,2798.355-3066.888,2823.772-3093.434,2828.93Z" transform="translate(3096.488 -2717.138)" fill="#c41b5c"/>
          </g>
          <path id="Path_4038" data-name="Path 4038" d="M-3079.249,2767.564s9.836-13.205,26.915-9.712" transform="translate(3107.843 -2720.432)" fill="none" stroke="#fff" stroke-linecap="round" stroke-miterlimit="10" stroke-width="5"/>
          <path id="Path_4040" data-name="Path 4040" d="M-3085.962,2776.06s3.637,5.479,9.4,7.448" transform="translate(3103.422 -2708.052)" fill="none" stroke="#d85993" stroke-linecap="round" stroke-linejoin="round" stroke-width="2"/>
          <path id="Path_4041" data-name="Path 4041" d="M-3080.836,2788.021s3.639,5.479,9.4,7.45" transform="translate(3106.797 -2700.173)" fill="none" stroke="#d85993" stroke-linecap="round" stroke-linejoin="round" stroke-width="2"/>
          <path id="Path_4042" data-name="Path 4042" d="M-3070.791,2776.586s3.638,5.478,9.4,7.447" transform="translate(3113.413 -2707.706)" fill="none" stroke="#d85993" stroke-linecap="round" stroke-linejoin="round" stroke-width="2"/>
        </g>
        <g id="Group_1783" data-name="Group 1783" transform="translate(51.194 39.972)">
          <path id="Path_4039" data-name="Path 4039" d="M-2990.5,2820.967c4.31-10.577-5.76-26.641-23.477-36.813-17.893-10.273-37.049-10.783-43.837-1.441l0,0-.02.033a12.482,12.482,0,0,0-.719,1.1,12.828,12.828,0,0,0-.692,1.426c-7.214,14.132-2.816,31.385,2.674,40.856a37.006,37.006,0,0,0,32.69,18.112C-2999.954,2843.9-2990.5,2820.967-2990.5,2820.967Z" transform="translate(3066.78 -2767.202)" fill="#700e3a"/>
          <ellipse id="Ellipse_824" data-name="Ellipse 824" cx="20.671" cy="36.592" rx="20.671" ry="36.592" transform="translate(0 35.853) rotate(-60.137)" fill="#d85993"/>
          <ellipse id="Ellipse_825" data-name="Ellipse 825" cx="15.205" cy="26.916" rx="15.205" ry="26.916" transform="translate(11.853 34.642) rotate(-60.137)" fill="#c41b5c"/>
          <ellipse id="Ellipse_826" data-name="Ellipse 826" cx="12.823" cy="22.699" rx="12.823" ry="22.699" transform="translate(17.273 34.126) rotate(-60.137)" fill="#d85993"/>
          <ellipse id="Ellipse_827" data-name="Ellipse 827" cx="9.751" cy="17.26" rx="9.751" ry="17.26" transform="translate(23.832 33.625) rotate(-60.137)" fill="#c41b5c"/>
        </g>
      </g>
      <g id="Group_1779" data-name="Group 1779" transform="translate(311.799 193.858)">
        <circle id="Ellipse_828" data-name="Ellipse 828" cx="41.092" cy="41.092" r="41.092" fill="#569e2b"/>
        <path id="Path_1786" data-name="Path 1786" d="M-2938.78,2816.174l71.806-37.59a3.844,3.844,0,0,1,5.189,1.621,3.882,3.882,0,0,1,.418,1.383c1.288,12.216,1.567,41.487-22.674,54.473-29.8,15.959-49-2.354-56.458-11.982a5.269,5.269,0,0,1,.931-7.4A5.184,5.184,0,0,1-2938.78,2816.174Z" transform="translate(2981.045 -2753.067)" fill="#5cbc2a"/>
        <path id="Path_1786-2" data-name="Path 1786" d="M-2936.488,2815.012l65.674-34.551a3.657,3.657,0,0,1,4.835,1.307,3.256,3.256,0,0,1,.417,1.2c1.448,10.684,2.322,36.343-19.842,48.265-27.245,14.654-45.406-.977-52.507-9.254a4.461,4.461,0,0,1,.7-6.507A5.018,5.018,0,0,1-2936.488,2815.012Z" transform="translate(2982.758 -2751.823)" fill="#fffee3"/>
        <path id="Path_1787" data-name="Path 1787" d="M-2931.557,2811.625l52.327-27.414a7.194,7.194,0,0,1,9.72,3,7.205,7.205,0,0,1,.8,2.646c.911,9.942-.991,24.918-17.729,33.864-20.329,10.859-36.1,6.033-45.4.513a7.215,7.215,0,0,1-2.579-9.872A7.216,7.216,0,0,1-2931.557,2811.625Z" transform="translate(2985.125 -2749.621)" fill="#e0e56a"/>
        <g id="Group_1778" data-name="Group 1778" transform="translate(69 48.903)">
          <line id="Line_474" data-name="Line 474" x1="14.697" y2="20.927" fill="none" stroke="#f4f0c1" stroke-linecap="round" stroke-linejoin="round" stroke-width="3"/>
          <line id="Line_475" data-name="Line 475" x2="5.17" y2="24.037" transform="translate(14.919 0.661)" fill="none" stroke="#f4f0c1" stroke-linecap="round" stroke-linejoin="round" stroke-width="3"/>
          <line id="Line_476" data-name="Line 476" x1="21.153" y1="16.102" transform="translate(14.697)" fill="none" stroke="#f4f0c1" stroke-linecap="round" stroke-linejoin="round" stroke-width="3"/>
          <line id="Line_477" data-name="Line 477" x1="28.045" y1="4.591" transform="translate(14.697)" fill="none" stroke="#f4f0c1" stroke-linecap="round" stroke-linejoin="round" stroke-width="3"/>
        </g>
        <ellipse id="Ellipse_106" data-name="Ellipse 106" cx="0.939" cy="2.719" rx="0.939" ry="2.719" transform="translate(88.097 51.856) rotate(-63.621)" fill="#ff9d00"/>
        <ellipse id="Ellipse_106-2" data-name="Ellipse 106" cx="3.333" cy="1.151" rx="3.333" ry="1.151" transform="matrix(0.138, -0.99, 0.99, 0.138, 80.738, 58.671)" fill="#ff9d00"/>
        <circle id="Ellipse_829" data-name="Ellipse 829" cx="2.016" cy="2.016" r="2.016" transform="translate(8.375 50.253)" fill="#3f771c"/>
        <circle id="Ellipse_830" data-name="Ellipse 830" cx="2.016" cy="2.016" r="2.016" transform="translate(21.913 52.269)" fill="#3f771c"/>
        <circle id="Ellipse_831" data-name="Ellipse 831" cx="2.016" cy="2.016" r="2.016" transform="translate(22.771 41.455)" fill="#3f771c"/>
        <circle id="Ellipse_832" data-name="Ellipse 832" cx="2.016" cy="2.016" r="2.016" transform="translate(9.158 38.456)" fill="#3f771c"/>
        <circle id="Ellipse_833" data-name="Ellipse 833" cx="2.016" cy="2.016" r="2.016" transform="translate(15.706 61.6)" fill="#3f771c"/>
        <circle id="Ellipse_834" data-name="Ellipse 834" cx="2.016" cy="2.016" r="2.016" transform="translate(26.803 69.948)" fill="#3f771c"/>
        <circle id="Ellipse_835" data-name="Ellipse 835" cx="2.016" cy="2.016" r="2.016" transform="translate(33.651 57.101)" fill="#3f771c"/>
        <path id="Path_4043" data-name="Path 4043" d="M-2960.432,2791.471a2.517,2.517,0,0,1-.879-2.364c1.1-6.393,6.814-19,20.524-20.974a2.53,2.53,0,0,1,2.857,2.123,2.481,2.481,0,0,1-2.1,2.836c-13.521,1.942-16.224,16.3-16.334,16.91a2.487,2.487,0,0,1-2.9,2.01A2.52,2.52,0,0,1-2960.432,2791.471Z" transform="translate(2968.045 -2759.678)" fill="#fff"/>
      </g>
    </g>
  </g>
</svg>
