<svg xmlns="http://www.w3.org/2000/svg" width="196" height="196" viewBox="0 0 196 196">
  <g id="Group_1663" data-name="Group 1663" transform="translate(3172 1667)">
    <rect id="Rectangle_1255" data-name="Rectangle 1255" width="196" height="196" rx="5" transform="translate(-3172 -1667)" fill="#fff"/>
    <g id="Group_1515" data-name="Group 1515" transform="translate(-6246.901 -6328.99)">
      <path id="Path_3919" data-name="Path 3919" d="M3235.36,4765.237c0-.871-.027-1.734-.067-2.595-.005-.114-.011-.229-.017-.344a55.131,55.131,0,0,0-26.217-44.075c.025.038.047.077.071.115a55.159,55.159,0,1,0,26.229,46.963c0-.011,0-.021,0-.032S3235.36,4765.248,3235.36,4765.237Z" transform="translate(-3.931 -2.876)" fill="#ffd77a"/>
      <g id="Group_1477" data-name="Group 1477" transform="translate(3137.507 4746.911)">
        <g id="Group_1475" data-name="Group 1475">
          <path id="Path_3920" data-name="Path 3920" d="M3153.238,4790.977a2.338,2.338,0,0,1-1.439-4.182l7.955-6.2-8.223-4.836a2.338,2.338,0,0,1,2.371-4.031l11.189,6.582a2.338,2.338,0,0,1,.251,3.86l-10.67,8.313A2.329,2.329,0,0,1,3153.238,4790.977Z" transform="translate(-3150.379 -4771.406)" fill="#2c2c2c"/>
        </g>
        <g id="Group_1476" data-name="Group 1476" transform="translate(49.359 0)">
          <path id="Path_3921" data-name="Path 3921" d="M3239.658,4790.978a2.324,2.324,0,0,1-1.436-.495l-10.669-8.313a2.338,2.338,0,0,1,.251-3.859l11.189-6.582a2.338,2.338,0,0,1,2.37,4.032l-8.223,4.835,7.956,6.2a2.339,2.339,0,0,1-1.438,4.183Z" transform="translate(-3226.652 -4771.406)" fill="#2c2c2c"/>
        </g>
      </g>
      <g id="Group_1480" data-name="Group 1480" transform="translate(3127.317 4733.299)">
        <g id="Group_1478" data-name="Group 1478" transform="translate(0 0)">
          <path id="Path_3922" data-name="Path 3922" d="M3134.855,4759.289c.683-.122,1.346-.23,1.995-.338,1.424-.236,2.77-.458,4.079-.758a35.162,35.162,0,0,0,5.425-1.636,31.026,31.026,0,0,0,5.018-2.527,46.592,46.592,0,0,0,4.905-3.6.27.27,0,0,1,.436.25,11.8,11.8,0,0,1-3.09,6.017,15.427,15.427,0,0,1-5.689,3.856,16.277,16.277,0,0,1-6.485,1.12l-.255-.011a13.634,13.634,0,0,1-6.431-1.881.271.271,0,0,1-.124-.28A.268.268,0,0,1,3134.855,4759.289Z" transform="translate(-3134.633 -4750.372)" fill="#3f3e40"/>
        </g>
        <g id="Group_1479" data-name="Group 1479" transform="translate(60.95 0)">
          <path id="Path_3923" data-name="Path 3923" d="M3250.677,4759.289c-.683-.122-1.346-.23-1.994-.338-1.425-.236-2.77-.458-4.08-.758a35.15,35.15,0,0,1-5.425-1.636,31.011,31.011,0,0,1-5.018-2.527,46.664,46.664,0,0,1-4.905-3.6.269.269,0,0,0-.3-.023.265.265,0,0,0-.131.273,11.792,11.792,0,0,0,3.091,6.017,15.426,15.426,0,0,0,5.688,3.856,16.28,16.28,0,0,0,6.486,1.12l.255-.011a13.633,13.633,0,0,0,6.431-1.881.271.271,0,0,0,.124-.28A.267.267,0,0,0,3250.677,4759.289Z" transform="translate(-3228.817 -4750.372)" fill="#3f3e40"/>
        </g>
      </g>
      <path id="Path_3924" data-name="Path 3924" d="M3179.593,4826.5a16.532,16.532,0,0,1,15.72-10.764,14.549,14.549,0,0,1,14.635,10.764" transform="translate(-23.181 -40.139)" fill="none" stroke="#654735" stroke-linecap="round" stroke-linejoin="round" stroke-width="5"/>
      <g id="Path_3925" data-name="Path 3925" transform="translate(0 0)" fill="none" stroke-linecap="round" stroke-linejoin="round">
        <path d="M3229.277,4759.609c0-.909-.028-1.813-.07-2.713-.006-.12-.011-.24-.018-.36a57.661,57.661,0,0,0-27.418-46.1c.025.04.048.081.074.121a57.688,57.688,0,1,0,27.432,49.117v-.068Z" stroke="none"/>
        <path d="M 3171.589111328125 4701.98974609375 C 3139.72900390625 4701.98974609375 3113.900634765625 4727.8173828125 3113.900634765625 4759.677734375 C 3113.900634765625 4791.53759765625 3139.72900390625 4817.36572265625 3171.589111328125 4817.36572265625 C 3203.449951171875 4817.36572265625 3229.27734375 4791.53759765625 3229.27734375 4759.677734375 L 3229.27685546875 4759.64404296875 L 3229.27734375 4759.609375 C 3229.27734375 4758.7001953125 3229.249267578125 4757.79638671875 3229.20751953125 4756.896484375 C 3229.201171875 4756.7763671875 3229.196044921875 4756.65625 3229.189453125 4756.53662109375 C 3228.164306640625 4737.0283203125 3217.454345703125 4720.08837890625 3201.771484375 4710.4404296875 C 3201.796630859375 4710.48046875 3201.819580078125 4710.52099609375 3201.84521484375 4710.56103515625 C 3193.0478515625 4705.1298828125 3182.687255859375 4701.98974609375 3171.589111328125 4701.98974609375 M 3171.589111328125 4696.98974609375 C 3177.4931640625 4696.98974609375 3183.33935546875 4697.81201171875 3188.965087890625 4699.4345703125 C 3194.102783203125 4700.916015625 3199.035888671875 4703.056640625 3203.642333984375 4705.80322265625 C 3203.898681640625 4705.90673828125 3204.1494140625 4706.03271484375 3204.391357421875 4706.181640625 C 3208.63134765625 4708.7900390625 3212.562744140625 4711.90771484375 3216.076416015625 4715.44775390625 C 3219.59033203125 4718.98779296875 3222.6787109375 4722.943359375 3225.25537109375 4727.203125 C 3227.87109375 4731.52783203125 3229.956298828125 4736.16162109375 3231.452880859375 4740.9765625 C 3232.99072265625 4745.923828125 3233.9091796875 4751.07080078125 3234.1826171875 4756.2744140625 C 3234.1865234375 4756.34765625 3234.190185546875 4756.4208984375 3234.193603515625 4756.494140625 C 3234.19580078125 4756.54052734375 3234.197998046875 4756.58642578125 3234.200439453125 4756.6328125 C 3234.201171875 4756.6435546875 3234.20166015625 4756.654296875 3234.2021484375 4756.66455078125 C 3234.252685546875 4757.75537109375 3234.27734375 4758.71875 3234.27734375 4759.609375 C 3234.27734375 4759.62060546875 3234.27734375 4759.6318359375 3234.27734375 4759.6435546875 C 3234.27734375 4759.65478515625 3234.27734375 4759.66650390625 3234.27734375 4759.677734375 C 3234.27734375 4768.13818359375 3232.619140625 4776.3486328125 3229.34912109375 4784.080078125 C 3227.777587890625 4787.7958984375 3225.83251953125 4791.37890625 3223.568359375 4794.73046875 C 3221.326416015625 4798.048828125 3218.752197265625 4801.1689453125 3215.91650390625 4804.0048828125 C 3213.0810546875 4806.84033203125 3209.960693359375 4809.41455078125 3206.642333984375 4811.65673828125 C 3203.291015625 4813.9208984375 3199.70751953125 4815.86572265625 3195.991943359375 4817.4375 C 3188.26025390625 4820.70751953125 3180.0498046875 4822.36572265625 3171.589111328125 4822.36572265625 C 3163.12841796875 4822.36572265625 3154.918212890625 4820.70751953125 3147.1865234375 4817.4375 C 3143.470947265625 4815.86572265625 3139.8876953125 4813.9208984375 3136.5361328125 4811.65673828125 C 3133.2177734375 4809.41455078125 3130.097412109375 4806.84033203125 3127.26171875 4804.0048828125 C 3124.42626953125 4801.16943359375 3121.851806640625 4798.048828125 3119.60986328125 4794.73046875 C 3117.345703125 4791.37890625 3115.400634765625 4787.7958984375 3113.8291015625 4784.080078125 C 3110.558837890625 4776.3486328125 3108.900634765625 4768.13818359375 3108.900634765625 4759.677734375 C 3108.900634765625 4751.21728515625 3110.558837890625 4743.0068359375 3113.8291015625 4735.27490234375 C 3115.400634765625 4731.5595703125 3117.345703125 4727.97607421875 3119.60986328125 4724.62451171875 C 3121.851806640625 4721.30615234375 3124.42626953125 4718.18603515625 3127.26171875 4715.3505859375 C 3130.097412109375 4712.51513671875 3133.2177734375 4709.9404296875 3136.5361328125 4707.69873046875 C 3139.8876953125 4705.4345703125 3143.470947265625 4703.48974609375 3147.1865234375 4701.91796875 C 3154.918212890625 4698.64794921875 3163.12841796875 4696.98974609375 3171.589111328125 4696.98974609375 Z" stroke="none" fill="#000"/>
      </g>
      <path id="Path_3926" data-name="Path 3926" d="M3130.2,4741.374s14.071-5.536,20.99-20.067" transform="translate(-5.752 -6.816)" fill="none" stroke="#3f3e40" stroke-linecap="round" stroke-linejoin="round" stroke-width="2"/>
      <path id="Path_3927" data-name="Path 3927" d="M3126.891,4741.99s24.259-7.907,36.189-28.664" transform="translate(-4.584 -4)" fill="none" stroke="#3f3e40" stroke-linecap="round" stroke-linejoin="round" stroke-width="2"/>
      <path id="Path_3928" data-name="Path 3928" d="M3267.192,4758.06A70.69,70.69,0,0,1,3234,4723.217" transform="translate(-42.379 -7.49)" fill="none" stroke="#3f3e40" stroke-linecap="round" stroke-linejoin="round" stroke-width="2"/>
      <path id="Path_3929" data-name="Path 3929" d="M3257.832,4738.294s-19.692-.431-34.7-15.077" transform="translate(-38.546 -7.49)" fill="none" stroke="#3f3e40" stroke-linecap="round" stroke-linejoin="round" stroke-width="2"/>
    </g>
  </g>
</svg>
