<svg xmlns="http://www.w3.org/2000/svg" width="196" height="196" viewBox="0 0 196 196">
  <g id="Group_1662" data-name="Group 1662" transform="translate(2906 1667)">
    <g id="Group_1518" data-name="Group 1518" transform="translate(-3901 -2557)">
      <rect id="Rectangle_1255" data-name="Rectangle 1255" width="196" height="196" rx="5" transform="translate(995 890)" fill="#fff"/>
      <g id="Group_1514" data-name="Group 1514" transform="translate(337.191 778.502)">
        <g id="Group_1473" data-name="Group 1473" transform="translate(798.979 139.252)">
          <path id="Path_3915" data-name="Path 3915" d="M3515.816,4717.288l-7,9.6h5.7a1.653,1.653,0,0,1,1.642,1.643,1.674,1.674,0,0,1-1.642,1.642h-8.953a1.157,1.157,0,0,1-.309-.031h-.093a.441.441,0,0,0-.187-.062c-.062-.031-.093-.031-.124-.062-.03,0-.093-.062-.124-.062-.032-.062-.062-.062-.062-.094-.03,0-.03,0-.03-.03-.031,0-.062-.031-.092-.062s-.125-.094-.125-.094a.885.885,0,0,0-.125-.154.419.419,0,0,0-.092-.125c-.062-.03-.062-.061-.062-.124a.14.14,0,0,1-.094-.154c-.031,0-.031-.063-.062-.155,0-.032-.031-.094-.031-.125v-.217a.111.111,0,0,1-.031-.092v-.031c0-.063.031-.155.031-.218v-.123c.031-.031.031-.093.062-.156a1.4,1.4,0,0,1,.031-.155c.03,0,.094-.093.094-.093a.26.26,0,0,1,.093-.154h.03l6.969-9.634h-5.668a1.652,1.652,0,0,1-1.642-1.641,1.673,1.673,0,0,1,1.642-1.642h8.953c.062,0,.124.03.186.03h.155c.062.033.124.033.154.062a1.287,1.287,0,0,1,.155.031c.031.031.063.093.093.093.063,0,.124.063.187.092a.031.031,0,0,1,.031.032.066.066,0,0,1,.062.062.682.682,0,0,1,.155.154c.032,0,.063.063.093.094a.483.483,0,0,0,.094.124c.031.031.031.062.092.062,0,.093.063.124.063.186a.233.233,0,0,1,.031.155c.031.063.031.124.062.155v.186c0,.031.031.093.031.124v.03a.413.413,0,0,0-.031.155,5.626,5.626,0,0,1-.062.341.169.169,0,0,1-.093.155v.093c-.062.063-.092.124-.154.155Z" transform="translate(-3502.921 -4706.916)"/>
        </g>
        <g id="Group_1474" data-name="Group 1474" transform="translate(813.733 137.51)">
          <path id="Path_3916" data-name="Path 3916" d="M3544.634,4690.836l-8.3,11.379h6.754a1.958,1.958,0,0,1,1.946,1.945,1.983,1.983,0,0,1-1.946,1.946h-10.608a1.361,1.361,0,0,1-.367-.037h-.11a.528.528,0,0,0-.22-.072c-.073-.038-.111-.038-.147-.075-.037,0-.11-.073-.146-.073-.038-.073-.074-.073-.074-.111-.036,0-.036,0-.036-.036-.037,0-.073-.036-.11-.073a1.57,1.57,0,0,0-.147-.11.939.939,0,0,0-.147-.183.512.512,0,0,0-.11-.147c-.073-.037-.073-.073-.073-.147a.168.168,0,0,1-.11-.183c-.037,0-.037-.074-.073-.185,0-.036-.037-.109-.037-.146v-.257a.135.135,0,0,1-.036-.11v-.036c0-.074.036-.184.036-.258v-.146c.037-.037.037-.111.073-.184a1.6,1.6,0,0,1,.037-.184c.036,0,.11-.109.11-.109a.312.312,0,0,1,.11-.184h.037l8.259-11.416h-6.717a1.957,1.957,0,0,1-1.945-1.945,1.981,1.981,0,0,1,1.945-1.944h10.608c.073,0,.147.037.22.037h.183c.073.036.146.036.183.071a1.529,1.529,0,0,1,.184.038c.036.036.074.11.11.11.073,0,.147.074.22.109a.037.037,0,0,1,.037.038.078.078,0,0,1,.073.073.862.862,0,0,1,.184.184c.036,0,.073.074.11.11a.519.519,0,0,0,.111.146c.036.036.036.073.11.073,0,.111.074.147.074.22a.273.273,0,0,1,.037.184c.036.073.036.146.073.185v.219c0,.036.037.109.037.146v.037a.492.492,0,0,0-.037.184.4.4,0,0,1-.037.221.408.408,0,0,1-.036.184.2.2,0,0,1-.111.184v.109c-.073.074-.11.147-.183.184Z" transform="translate(-3530.54 -4687.754)"/>
        </g>
        <g id="Group_1482" data-name="Group 1482" transform="translate(698.508 152.947)">
          <path id="Path_3910" data-name="Path 3910" d="M3463.414,4774.509c0-.864-.028-1.722-.067-2.577-.006-.114-.011-.229-.017-.342a54.769,54.769,0,0,0-26.045-43.787c.023.036.046.075.07.113a54.8,54.8,0,1,0,26.059,46.657c0-.01,0-.021,0-.031S3463.414,4774.52,3463.414,4774.509Z" transform="translate(-3348.788 -4715.257)" fill="#ffd77a"/>
          <g id="Group_1472" data-name="Group 1472" transform="translate(15.555 49.277)">
            <path id="Path_3911" data-name="Path 3911" d="M3485.545,4801.945h0c-.718-.209-1.417-.4-2.13-.6-1.483-.415-2.884-.808-4.236-1.277a37.643,37.643,0,0,1-5.582-2.373,33.073,33.073,0,0,1-5.041-3.27,50.079,50.079,0,0,1-4.807-4.406.531.531,0,0,0-.908.4,12.941,12.941,0,0,0,2.652,6.936,16.877,16.877,0,0,0,5.72,4.867,17.84,17.84,0,0,0,6.908,1.984l.28.019c.333.018.661.025.985.025a14.491,14.491,0,0,0,6.238-1.31.53.53,0,0,0-.078-.988Zm-.068.231Z" transform="translate(-3406.28 -4789.856)" fill="#2c2c2c"/>
            <path id="Path_3912" data-name="Path 3912" d="M3397.634,4789.9a.533.533,0,0,0-.591.113,49.943,49.943,0,0,1-4.808,4.407,33.171,33.171,0,0,1-5.04,3.269,37.624,37.624,0,0,1-5.583,2.374c-1.35.468-2.751.862-4.266,1.286-.682.19-1.38.386-2.1.6h0a.53.53,0,0,0-.077.988,14.484,14.484,0,0,0,6.238,1.31c.324,0,.652-.008.984-.025l.28-.019a17.823,17.823,0,0,0,6.906-1.984,16.88,16.88,0,0,0,5.722-4.868,12.946,12.946,0,0,0,2.651-6.935A.532.532,0,0,0,3397.634,4789.9Z" transform="translate(-3374.866 -4789.856)" fill="#2c2c2c"/>
          </g>
          <path id="Path_3913" data-name="Path 3913" d="M3487.089,4813.982h0c-.718-.209-1.417-.4-2.13-.6-1.483-.415-2.884-.807-4.236-1.276a37.837,37.837,0,0,1-5.581-2.373,33.255,33.255,0,0,1-5.041-3.271,49.694,49.694,0,0,1-4.807-4.407.531.531,0,0,0-.907.4,12.941,12.941,0,0,0,2.652,6.936,16.87,16.87,0,0,0,5.72,4.866,17.814,17.814,0,0,0,6.908,1.985l.28.019c.332.017.66.026.985.026a14.491,14.491,0,0,0,6.237-1.31.531.531,0,0,0-.077-.99Zm-.068.232Z" transform="translate(-3395.283 -4746.584)" fill="#804ba3"/>
          <path id="Path_3914" data-name="Path 3914" d="M3397.634,4801.938a.533.533,0,0,0-.591.112,49.7,49.7,0,0,1-4.808,4.408,33.216,33.216,0,0,1-5.04,3.27,37.779,37.779,0,0,1-5.583,2.374c-1.35.469-2.751.861-4.266,1.285-.682.191-1.38.386-2.1.6h0a.531.531,0,0,0-.077.99,14.491,14.491,0,0,0,6.238,1.31q.486,0,.984-.026l.28-.019a17.8,17.8,0,0,0,6.906-1.985,16.876,16.876,0,0,0,5.722-4.866,12.945,12.945,0,0,0,2.651-6.935A.532.532,0,0,0,3397.634,4801.938Z" transform="translate(-3358.309 -4745.422)" fill="#804ba3"/>
          <path id="Path_3917" data-name="Path 3917" d="M3415.6,4842.714a16.423,16.423,0,0,1,15.616-10.695,14.455,14.455,0,0,1,14.54,10.695" transform="translate(-3377.862 -4756.34)" fill="none" stroke="#654735" stroke-linecap="round" stroke-linejoin="round" stroke-width="5"/>
          <g id="Path_3918" data-name="Path 3918" transform="translate(-3345.996 -4712.75)" fill="none" stroke-linecap="round" stroke-linejoin="round">
            <path d="M3460.621,4769.994c0-.9-.028-1.8-.069-2.7-.006-.12-.012-.239-.018-.358a57.284,57.284,0,0,0-27.24-45.8c.025.041.048.08.074.12a57.312,57.312,0,1,0,27.253,48.8v-.069Z" stroke="none"/>
            <path d="M 3403.308837890625 4712.74951171875 C 3371.65625 4712.74951171875 3345.99609375 4738.40869140625 3345.99609375 4770.06298828125 C 3345.99609375 4801.71484375 3371.65625 4827.37451171875 3403.308837890625 4827.37451171875 C 3434.96142578125 4827.37451171875 3460.62060546875 4801.71484375 3460.62060546875 4770.06298828125 L 3460.620361328125 4770.02783203125 L 3460.62060546875 4769.994140625 C 3460.62060546875 4769.08984375 3460.592529296875 4768.19189453125 3460.551513671875 4767.298828125 C 3460.545654296875 4767.17919921875 3460.53955078125 4767.06005859375 3460.533447265625 4766.9404296875 C 3459.51513671875 4747.5595703125 3448.874755859375 4730.73046875 3433.293701171875 4721.14501953125 C 3433.31884765625 4721.185546875 3433.341796875 4721.224609375 3433.36767578125 4721.26513671875 C 3424.627197265625 4715.86962890625 3414.334228515625 4712.74951171875 3403.308837890625 4712.74951171875 M 3403.308837890625 4707.74951171875 C 3409.177001953125 4707.74951171875 3414.988037109375 4708.5673828125 3420.580322265625 4710.1796875 C 3425.686279296875 4711.65185546875 3430.588623046875 4713.77978515625 3435.167236328125 4716.5087890625 C 3435.4228515625 4716.6123046875 3435.67236328125 4716.73779296875 3435.91357421875 4716.88623046875 C 3440.12841796875 4719.4794921875 3444.0361328125 4722.578125 3447.528564453125 4726.0966796875 C 3451.021728515625 4729.61572265625 3454.091552734375 4733.54736328125 3456.65283203125 4737.78173828125 C 3459.2529296875 4742.080078125 3461.32568359375 4746.6865234375 3462.813232421875 4751.47216796875 C 3464.342041015625 4756.3896484375 3465.2548828125 4761.505859375 3465.526611328125 4766.67822265625 C 3465.526611328125 4766.6806640625 3465.52685546875 4766.68310546875 3465.52685546875 4766.68603515625 L 3465.528564453125 4766.7158203125 C 3465.5341796875 4766.82861328125 3465.5400390625 4766.94140625 3465.54541015625 4767.05419921875 C 3465.545654296875 4767.05908203125 3465.5458984375 4767.064453125 3465.546142578125 4767.0693359375 C 3465.596923828125 4768.173828125 3465.62060546875 4769.103515625 3465.62060546875 4769.994140625 C 3465.62060546875 4770.005859375 3465.62060546875 4770.017578125 3465.62060546875 4770.029296875 C 3465.62060546875 4770.04052734375 3465.62060546875 4770.0517578125 3465.62060546875 4770.06298828125 C 3465.62060546875 4778.47265625 3463.972412109375 4786.63330078125 3460.721923828125 4794.31884765625 C 3459.15966796875 4798.01220703125 3457.2265625 4801.57373046875 3454.975830078125 4804.9052734375 C 3452.74755859375 4808.20361328125 3450.1884765625 4811.30517578125 3447.369873046875 4814.12353515625 C 3444.551513671875 4816.9423828125 3441.449951171875 4819.5009765625 3438.151611328125 4821.7294921875 C 3434.820068359375 4823.98046875 3431.25830078125 4825.91357421875 3427.56494140625 4827.4755859375 C 3419.879638671875 4830.72607421875 3411.71875 4832.37451171875 3403.308837890625 4832.37451171875 C 3394.89892578125 4832.37451171875 3386.738037109375 4830.72607421875 3379.052490234375 4827.4755859375 C 3375.359130859375 4825.91357421875 3371.79736328125 4823.98046875 3368.4658203125 4821.7294921875 C 3365.16748046875 4819.50146484375 3362.065673828125 4816.9423828125 3359.247314453125 4814.12353515625 C 3356.4287109375 4811.30517578125 3353.86962890625 4808.20361328125 3351.64111328125 4804.9052734375 C 3349.390625 4801.57373046875 3347.457275390625 4798.01220703125 3345.89501953125 4794.31884765625 C 3342.644287109375 4786.6337890625 3340.99609375 4778.47265625 3340.99609375 4770.06298828125 C 3340.99609375 4761.65283203125 3342.644287109375 4753.4912109375 3345.89501953125 4745.8056640625 C 3347.457275390625 4742.1123046875 3349.390380859375 4738.55029296875 3351.64111328125 4735.21923828125 C 3353.86962890625 4731.92041015625 3356.4287109375 4728.81884765625 3359.247314453125 4726.00048828125 C 3362.065673828125 4723.181640625 3365.16748046875 4720.62255859375 3368.4658203125 4718.39453125 C 3371.79736328125 4716.1435546875 3375.359130859375 4714.21044921875 3379.052490234375 4712.6484375 C 3386.738037109375 4709.39794921875 3394.89892578125 4707.74951171875 3403.308837890625 4707.74951171875 Z" stroke="none" fill="#000"/>
          </g>
        </g>
      </g>
    </g>
  </g>
</svg>
