<svg xmlns="http://www.w3.org/2000/svg" width="196" height="196" viewBox="0 0 196 196">
  <g id="Group_1661" data-name="Group 1661" transform="translate(2639 1667)">
    <g id="Group_1659" data-name="Group 1659" transform="translate(-3635 -4266)">
      <rect id="Rectangle_1255" data-name="Rectangle 1255" width="196" height="196" rx="5" transform="translate(996 2599)" fill="#fff"/>
      <g id="Group_1516" data-name="Group 1516" transform="translate(-1843.092 -2062.956)">
        <path id="Path_3930" data-name="Path 3930" d="M2999.405,4765.173c0-.871-.027-1.737-.067-2.6-.006-.115-.011-.23-.017-.345a55.237,55.237,0,0,0-26.266-44.158c.024.038.046.077.071.116a55.262,55.262,0,1,0,26.279,47.051v-.065Z" transform="translate(-3.669 -2.749)" fill="#ffd77a"/>
        <g id="Group_1486" data-name="Group 1486" transform="translate(2911.678 4751.855)">
          <g id="Group_1485" data-name="Group 1485" transform="translate(0 0)">
            <g id="Group_1483" data-name="Group 1483">
              <path id="Path_3931" data-name="Path 3931" d="M2941.579,4785.674c0,3.79-1.823,6.863-4.072,6.863s-4.072-3.073-4.072-6.863,1.823-6.864,4.072-6.864S2941.579,4781.882,2941.579,4785.674Z" transform="translate(-2933.435 -4778.81)" fill="#2c2c2c"/>
            </g>
            <g id="Group_1484" data-name="Group 1484" transform="translate(40.719)">
              <path id="Path_3932" data-name="Path 3932" d="M3004.383,4785.674c0,3.79-1.823,6.863-4.072,6.863s-4.073-3.073-4.073-6.863,1.823-6.864,4.073-6.864S3004.383,4781.882,3004.383,4785.674Z" transform="translate(-2996.239 -4778.81)" fill="#2c2c2c"/>
            </g>
          </g>
        </g>
        <path id="Path_3933" data-name="Path 3933" d="M2915.424,4767.989c.595-.174,1.173-.335,1.738-.493,1.242-.347,2.415-.676,3.547-1.069a31.4,31.4,0,0,0,4.657-1.98,27.573,27.573,0,0,0,4.209-2.731,41.644,41.644,0,0,0,4-3.669.24.24,0,0,1,.411.179,10.528,10.528,0,0,1-2.159,5.642,13.781,13.781,0,0,1-4.676,3.976,14.557,14.557,0,0,1-5.648,1.624l-.227.015a12.176,12.176,0,0,1-5.892-1.045.24.24,0,0,1,.036-.448Z" transform="translate(-12.942 -19.628)" fill="#3f3e40"/>
        <path id="Path_3934" data-name="Path 3934" d="M3012.915,4769.127c-.595-.173-1.173-.335-1.738-.494-1.242-.347-2.415-.675-3.548-1.068a31.524,31.524,0,0,1-4.656-1.979,27.7,27.7,0,0,1-4.209-2.731,41.521,41.521,0,0,1-4-3.67.24.24,0,0,0-.41.18,10.525,10.525,0,0,0,2.159,5.641,13.775,13.775,0,0,0,4.675,3.976,14.527,14.527,0,0,0,5.649,1.624c.075.006.152.011.227.015a12.176,12.176,0,0,0,5.892-1.045.243.243,0,0,0,.137-.237A.24.24,0,0,0,3012.915,4769.127Z" transform="translate(-40.757 -20.028)" fill="#3f3e40"/>
        <ellipse id="Ellipse_808" data-name="Ellipse 808" cx="15.79" cy="7.753" rx="15.79" ry="7.753" transform="translate(2891.906 4769.547)" fill="#f9cac5"/>
        <ellipse id="Ellipse_809" data-name="Ellipse 809" cx="15.79" cy="7.753" rx="15.79" ry="7.753" transform="translate(2957.461 4771.167)" fill="#f9cac5"/>
        <circle id="Ellipse_810" data-name="Ellipse 810" cx="1.651" cy="1.651" r="1.651" transform="translate(2964.905 4776.125)" fill="#fccbbb" stroke="#ef8e8e" stroke-miterlimit="10" stroke-width="1"/>
        <circle id="Ellipse_811" data-name="Ellipse 811" cx="1.651" cy="1.651" r="1.651" transform="translate(2896.848 4774.801)" fill="#fccbbb" stroke="#ef8e8e" stroke-miterlimit="10" stroke-width="1"/>
        <circle id="Ellipse_812" data-name="Ellipse 812" cx="1.651" cy="1.651" r="1.651" transform="translate(2912.447 4774.801)" fill="#fccbbb" stroke="#ef8e8e" stroke-miterlimit="10" stroke-width="1"/>
        <circle id="Ellipse_813" data-name="Ellipse 813" cx="1.651" cy="1.651" r="1.651" transform="translate(2903.819 4779.539)" fill="#fccbbb" stroke="#ef8e8e" stroke-miterlimit="10" stroke-width="1"/>
        <circle id="Ellipse_814" data-name="Ellipse 814" cx="1.651" cy="1.651" r="1.651" transform="translate(2979.695 4776.125)" fill="#fccbbb" stroke="#ef8e8e" stroke-miterlimit="10" stroke-width="1"/>
        <circle id="Ellipse_815" data-name="Ellipse 815" cx="1.651" cy="1.651" r="1.651" transform="translate(2972.624 4781.622)" fill="#fccbbb" stroke="#ef8e8e" stroke-miterlimit="10" stroke-width="1"/>
        <path id="Path_3935" data-name="Path 3935" d="M2946,4829.737a16.561,16.561,0,0,1,15.748-10.785,14.576,14.576,0,0,1,14.662,10.785" transform="translate(-23.754 -41.071)" fill="none" stroke="#654735" stroke-linecap="round" stroke-linejoin="round" stroke-width="5"/>
        <g id="Path_3936" data-name="Path 3936" fill="none" stroke-linecap="round" stroke-linejoin="round">
          <path d="M2994.04,4759.887c0-.912-.029-1.815-.07-2.718-.006-.12-.012-.241-.018-.361a57.767,57.767,0,0,0-27.47-46.182c.025.04.049.081.074.12a57.8,57.8,0,1,0,27.484,49.21v-.069Z" stroke="none"/>
          <path d="M 2936.2431640625 4702.158203125 C 2904.323974609375 4702.158203125 2878.447021484375 4728.03515625 2878.447021484375 4759.95556640625 C 2878.447021484375 4791.87548828125 2904.323974609375 4817.75244140625 2936.2431640625 4817.75244140625 C 2968.164306640625 4817.75244140625 2994.040283203125 4791.87548828125 2994.040283203125 4759.95556640625 L 2994.039794921875 4759.9208984375 L 2994.040283203125 4759.88671875 C 2994.040283203125 4758.97509765625 2994.01171875 4758.0712890625 2993.970458984375 4757.1689453125 C 2993.96484375 4757.048828125 2993.958740234375 4756.927734375 2993.95263671875 4756.8076171875 C 2992.925537109375 4737.26318359375 2982.1953125 4720.291015625 2966.482421875 4710.62548828125 C 2966.507568359375 4710.6650390625 2966.53125 4710.7060546875 2966.556396484375 4710.74560546875 C 2957.742919921875 4705.30419921875 2947.362548828125 4702.158203125 2936.2431640625 4702.158203125 M 2936.2431640625 4697.158203125 C 2942.15771484375 4697.158203125 2948.01416015625 4697.98193359375 2953.649658203125 4699.60693359375 C 2958.798095703125 4701.09130859375 2963.7412109375 4703.2373046875 2968.356689453125 4705.98974609375 C 2968.61181640625 4706.0927734375 2968.861328125 4706.21875 2969.10205078125 4706.36669921875 C 2973.349609375 4708.9794921875 2977.2880859375 4712.10205078125 2980.8076171875 4715.6484375 C 2984.327880859375 4719.19482421875 2987.421630859375 4723.15673828125 2990.0029296875 4727.42431640625 C 2992.623291015625 4731.75634765625 2994.712158203125 4736.3984375 2996.21142578125 4741.22119140625 C 2997.751953125 4746.17724609375 2998.671875 4751.33251953125 2998.94580078125 4756.54541015625 C 2998.94580078125 4756.54833984375 2998.946044921875 4756.55126953125 2998.9462890625 4756.55419921875 C 2998.95263671875 4756.6806640625 2998.958984375 4756.80859375 2998.965087890625 4756.93505859375 C 2998.965087890625 4756.93701171875 2998.965087890625 4756.93896484375 2998.96533203125 4756.9404296875 C 2999.016357421875 4758.06005859375 2999.040283203125 4758.99658203125 2999.040283203125 4759.88671875 C 2999.040283203125 4759.8984375 2999.040283203125 4759.90966796875 2999.0400390625 4759.92138671875 C 2999.040283203125 4759.9326171875 2999.040283203125 4759.9443359375 2999.040283203125 4759.95556640625 C 2999.040283203125 4768.4306640625 2997.379150390625 4776.6552734375 2994.103515625 4784.400390625 C 2992.529052734375 4788.12255859375 2990.580810546875 4791.7119140625 2988.312744140625 4795.0693359375 C 2986.06689453125 4798.3935546875 2983.488037109375 4801.51904296875 2980.647705078125 4804.359375 C 2977.807373046875 4807.2001953125 2974.681640625 4809.77880859375 2971.357421875 4812.0244140625 C 2968 4814.29296875 2964.41064453125 4816.2412109375 2960.6884765625 4817.8154296875 C 2952.943359375 4821.09130859375 2944.71875 4822.75244140625 2936.2431640625 4822.75244140625 C 2927.76806640625 4822.75244140625 2919.5439453125 4821.09130859375 2911.798828125 4817.8154296875 C 2908.076904296875 4816.2412109375 2904.4873046875 4814.29296875 2901.130126953125 4812.0244140625 C 2897.805908203125 4809.77880859375 2894.68017578125 4807.19970703125 2891.83984375 4804.359375 C 2888.99951171875 4801.51904296875 2886.42041015625 4798.3935546875 2884.1748046875 4795.0693359375 C 2881.906494140625 4791.7119140625 2879.958251953125 4788.12255859375 2878.384033203125 4784.400390625 C 2875.108154296875 4776.6552734375 2873.447021484375 4768.4306640625 2873.447021484375 4759.95556640625 C 2873.447021484375 4751.48046875 2875.108154296875 4743.255859375 2878.384033203125 4735.5107421875 C 2879.958251953125 4731.78857421875 2881.906494140625 4728.19873046875 2884.1748046875 4724.841796875 C 2886.42041015625 4721.517578125 2888.99951171875 4718.3916015625 2891.83984375 4715.55126953125 C 2894.68017578125 4712.7109375 2897.805908203125 4710.1318359375 2901.130126953125 4707.88623046875 C 2904.4873046875 4705.61767578125 2908.076904296875 4703.66943359375 2911.798828125 4702.09521484375 C 2919.5439453125 4698.8193359375 2927.76806640625 4697.158203125 2936.2431640625 4697.158203125 Z" stroke="none" fill="#000"/>
        </g>
      </g>
    </g>
  </g>
</svg>
