<svg xmlns="http://www.w3.org/2000/svg" width="135.388" height="121.916" viewBox="0 0 135.388 121.916">
  <g id="Group_1550" data-name="Group 1550" transform="translate(-1843.735 -681.725)">
    <g id="Group_917" data-name="Group 917" transform="translate(60.831 153.046)">
      <path id="Path_1882" data-name="Path 1882" d="M1876.805,538.688h-42.31a15.2,15.2,0,0,0-13.164,7.6l-21.155,36.641a15.2,15.2,0,0,0,0,15.2l21.155,36.641a15.2,15.2,0,0,0,13.164,7.6h42.31a15.2,15.2,0,0,0,13.164-7.6l21.155-36.641a15.2,15.2,0,0,0,0-15.2l-21.155-36.641A15.2,15.2,0,0,0,1876.805,538.688Z" fill="#1898e8" style="isolation: isolate"/>
      <g id="Ca" style="isolation: isolate">
        <text id="Ca-2" data-name="Ca" transform="translate(1816.865 606.516)" fill="#fff" font-size="48" font-family="Quicksand-Bold, Quicksand" font-weight="700" style="isolation: isolate"><tspan x="0" y="0">Ca</tspan></text>
      </g>
      <path id="Path_1883" data-name="Path 1883" d="M1875,532.179h-48.8a15.2,15.2,0,0,0-13.163,7.6l-24.4,42.258a15.2,15.2,0,0,0,0,15.2l24.4,42.258a15.2,15.2,0,0,0,13.163,7.6H1875a15.2,15.2,0,0,0,13.164-7.6l24.4-42.258a15.2,15.2,0,0,0,0-15.2l-24.4-42.258A15.2,15.2,0,0,0,1875,532.179Z" fill="none" stroke="#000" stroke-linejoin="round" stroke-width="7"/>
      <g id="Group_800" data-name="Group 800">
        <path id="Path_1884" data-name="Path 1884" d="M1819.438,560.94l6.827-11.553a8.4,8.4,0,0,1,7.238-4.13h12.311" fill="none" stroke="#fff" stroke-linecap="round" stroke-miterlimit="10" stroke-width="5"/>
        <line id="Line_307" data-name="Line 307" x1="7.218" y2="11.851" transform="translate(1807.568 568.726)" fill="none" stroke="#fff" stroke-linecap="round" stroke-miterlimit="10" stroke-width="5"/>
      </g>
    </g>
  </g>
</svg>
