<svg xmlns="http://www.w3.org/2000/svg" width="135.389" height="121.914" viewBox="0 0 135.389 121.914">
  <g id="Group_1553" data-name="Group 1553" transform="translate(-1843.735 -1039.607)">
    <g id="Group_918" data-name="Group 918" transform="translate(60.831 153.046)">
      <path id="Path_1885" data-name="Path 1885" d="M1877.83,896.571H1834.7a15.2,15.2,0,0,0-13.164,7.6l-21.566,37.353a15.2,15.2,0,0,0,0,15.2l21.566,37.353a15.2,15.2,0,0,0,13.164,7.6h43.131a15.2,15.2,0,0,0,13.164-7.6l21.566-37.353a15.2,15.2,0,0,0,0-15.2l-21.569-37.353A15.2,15.2,0,0,0,1877.83,896.571Z" fill="#35c985"/>
      <path id="Path_1886" data-name="Path 1886" d="M1875,890.061h-48.8a15.2,15.2,0,0,0-13.164,7.6l-24.4,42.257a15.2,15.2,0,0,0,0,15.2l24.4,42.257a15.2,15.2,0,0,0,13.164,7.6H1875a15.2,15.2,0,0,0,13.164-7.6l24.4-42.257a15.2,15.2,0,0,0,0-15.2l-24.4-42.257A15.2,15.2,0,0,0,1875,890.061Z" fill="none" stroke="#000" stroke-linejoin="round" stroke-width="7"/>
      <g id="Fe" style="isolation: isolate">
        <text id="Fe-2" data-name="Fe" transform="translate(1826.921 965.52)" fill="#fff" font-size="48" font-family="Quicksand-Bold, Quicksand" font-weight="700" style="isolation: isolate"><tspan x="0" y="0">Fe</tspan></text>
      </g>
      <g id="Group_801" data-name="Group 801">
        <path id="Path_1887" data-name="Path 1887" d="M1819.668,918.822l6.827-11.553a8.4,8.4,0,0,1,7.238-4.13h12.311" fill="none" stroke="#fff" stroke-linecap="round" stroke-miterlimit="10" stroke-width="5"/>
        <line id="Line_308" data-name="Line 308" x1="7.218" y2="11.851" transform="translate(1807.798 926.609)" fill="none" stroke="#fff" stroke-linecap="round" stroke-miterlimit="10" stroke-width="5"/>
      </g>
    </g>
  </g>
</svg>
