<svg xmlns="http://www.w3.org/2000/svg" width="135.389" height="121.914" viewBox="0 0 135.389 121.914">
  <g id="Group_1552" data-name="Group 1552" transform="translate(-1843.735 -860.667)">
    <g id="Group_1551" data-name="Group 1551">
      <g id="Group_1220" data-name="Group 1220">
        <g id="Group_919" data-name="Group 919" transform="translate(60.831 153.046)">
          <path id="Path_1888" data-name="Path 1888" d="M1877.83,717.631H1834.7a15.2,15.2,0,0,0-13.164,7.6l-21.566,37.353a15.2,15.2,0,0,0,0,15.2l21.566,37.353a15.2,15.2,0,0,0,13.164,7.6h43.13a15.2,15.2,0,0,0,13.164-7.6l21.566-37.353a15.2,15.2,0,0,0,0-15.2l-21.566-37.353A15.2,15.2,0,0,0,1877.83,717.631Z" fill="#20b6ce"/>
          <path id="Path_1889" data-name="Path 1889" d="M1875,711.121h-48.8a15.2,15.2,0,0,0-13.164,7.6l-24.4,42.257a15.2,15.2,0,0,0,0,15.2l24.4,42.257a15.2,15.2,0,0,0,13.164,7.6H1875a15.2,15.2,0,0,0,13.164-7.6l24.4-42.257a15.2,15.2,0,0,0,0-15.2l-24.4-42.257A15.2,15.2,0,0,0,1875,711.121Z" fill="none" stroke="#000" stroke-linejoin="round" stroke-width="7"/>
          <g id="K-2" transform="translate(-3 3)" style="isolation: isolate">
            <text id="K" transform="translate(1839.877 785.219)" fill="#fff" font-size="48" font-family="Quicksand-Bold, Quicksand" font-weight="700" style="isolation: isolate"><tspan x="0" y="0">K</tspan></text>
          </g>
          <g id="Group_802" data-name="Group 802">
            <path id="Path_1890" data-name="Path 1890" d="M1819.321,739.644l6.827-11.553a8.4,8.4,0,0,1,7.238-4.13H1845.7" fill="none" stroke="#fff" stroke-linecap="round" stroke-miterlimit="10" stroke-width="5"/>
            <line id="Line_309" data-name="Line 309" x1="7.218" y2="11.851" transform="translate(1807.451 747.43)" fill="none" stroke="#fff" stroke-linecap="round" stroke-miterlimit="10" stroke-width="5"/>
          </g>
        </g>
      </g>
    </g>
  </g>
</svg>
