<svg xmlns="http://www.w3.org/2000/svg" width="196" height="196" viewBox="0 0 196 196">
  <g id="Group_1950" data-name="Group 1950" transform="translate(-3423 -166)">
    <g id="Group_1938" data-name="Group 1938" transform="translate(3126 97)">
      <rect id="Rectangle_1254" data-name="Rectangle 1254" width="196" height="196" rx="5" transform="translate(297 69)" fill="#fff"/>
    </g>
    <g id="Group_1916" data-name="Group 1916" transform="translate(3448 198)">
      <g id="Group_917" data-name="Group 917" transform="translate(0 0)">
        <path id="Path_1882" data-name="Path 1882" d="M1888.124,538.688h-48.4a17.383,17.383,0,0,0-15.058,8.692l-24.2,41.913a17.382,17.382,0,0,0,0,17.387l24.2,41.913a17.384,17.384,0,0,0,15.058,8.694h48.4a17.387,17.387,0,0,0,15.058-8.694l24.2-41.913a17.388,17.388,0,0,0,0-17.387l-24.2-41.913A17.386,17.386,0,0,0,1888.124,538.688Z" transform="translate(-1784.937 -531.242)" fill="#1898e8" style="isolation: isolate"/>
        <g id="Ca" transform="translate(42.622 30.126)" style="isolation: isolate">
          <text id="Ca-2" data-name="Ca" transform="translate(0 54)" fill="#fff" font-size="54" font-family="Quicksand-Bold, Quicksand" font-weight="700" style="isolation: isolate"><tspan x="0" y="0">Ca</tspan></text>
        </g>
        <path id="Path_1883" data-name="Path 1883" d="M1887.718,532.179H1831.9a17.39,17.39,0,0,0-15.057,8.694l-27.911,48.338a17.383,17.383,0,0,0,0,17.387l27.911,48.339a17.385,17.385,0,0,0,15.057,8.694h55.822a17.387,17.387,0,0,0,15.058-8.694l27.911-48.339a17.389,17.389,0,0,0,0-17.387l-27.911-48.338A17.389,17.389,0,0,0,1887.718,532.179Z" transform="translate(-1786.598 -532.179)" fill="none" stroke="#000" stroke-linejoin="round" stroke-width="7"/>
        <g id="Group_800" data-name="Group 800" transform="translate(23.987 14.96)">
          <path id="Path_1884" data-name="Path 1884" d="M1819.438,563.2l7.809-13.215a9.611,9.611,0,0,1,8.28-4.724h14.082" transform="translate(-1805.859 -545.257)" fill="none" stroke="#fff" stroke-linecap="round" stroke-miterlimit="10" stroke-width="5"/>
          <line id="Line_307" data-name="Line 307" x1="8.257" y2="13.556" transform="translate(0 26.846)" fill="none" stroke="#fff" stroke-linecap="round" stroke-miterlimit="10" stroke-width="5"/>
        </g>
      </g>
    </g>
  </g>
</svg>
