<svg xmlns="http://www.w3.org/2000/svg" width="196" height="196" viewBox="0 0 196 196">
  <g id="Group_1953" data-name="Group 1953" transform="translate(-4076 -166)">
    <g id="Group_1941" data-name="Group 1941" transform="translate(3779 97)">
      <rect id="Rectangle_1254" data-name="Rectangle 1254" width="196" height="196" rx="5" transform="translate(297 69)" fill="#fff"/>
    </g>
    <g id="Group_1921" data-name="Group 1921" transform="translate(4101 198)">
      <g id="Group_922" data-name="Group 922" transform="translate(0 0)">
        <path id="Path_1897" data-name="Path 1897" d="M1888.128,1075.508h-48.4a17.387,17.387,0,0,0-15.058,8.694l-24.2,41.913a17.382,17.382,0,0,0,0,17.387l24.2,41.913a17.387,17.387,0,0,0,15.058,8.693h48.4a17.391,17.391,0,0,0,15.057-8.693l24.2-41.913a17.387,17.387,0,0,0,0-17.387l-24.2-41.913A17.386,17.386,0,0,0,1888.128,1075.508Z" transform="translate(-1784.936 -1068.065)" fill="#30b553"/>
        <path id="Path_1898" data-name="Path 1898" d="M1887.719,1069H1831.9a17.386,17.386,0,0,0-15.058,8.694l-27.911,48.339a17.382,17.382,0,0,0,0,17.387l27.911,48.337a17.386,17.386,0,0,0,15.058,8.694h55.822a17.389,17.389,0,0,0,15.058-8.694l27.911-48.337a17.388,17.388,0,0,0,0-17.387l-27.911-48.339A17.389,17.389,0,0,0,1887.719,1069Z" transform="translate(-1786.598 -1069.001)" fill="none" stroke="#000" stroke-linejoin="round" stroke-width="7"/>
        <g id="Mg" transform="translate(39.956 27.293)" style="isolation: isolate">
          <text id="Mg-2" data-name="Mg" transform="translate(0 54)" fill="#fff" font-size="54" font-family="Quicksand-Bold, Quicksand" font-weight="700" style="isolation: isolate"><tspan x="0" y="0">Mg</tspan></text>
        </g>
        <g id="Group_805" data-name="Group 805" transform="translate(22.571 14.326)">
          <path id="Path_1899" data-name="Path 1899" d="M1818.2,1099.465l7.809-13.215a9.617,9.617,0,0,1,8.279-4.724h14.082" transform="translate(-1804.622 -1081.525)" fill="none" stroke="#fff" stroke-linecap="round" stroke-miterlimit="10" stroke-width="5"/>
          <line id="Line_312" data-name="Line 312" x1="8.257" y2="13.556" transform="translate(0 26.847)" fill="none" stroke="#fff" stroke-linecap="round" stroke-miterlimit="10" stroke-width="5"/>
        </g>
      </g>
    </g>
  </g>
</svg>
