<svg xmlns="http://www.w3.org/2000/svg" width="196" height="196" viewBox="0 0 196 196">
  <g id="Group_1951" data-name="Group 1951" transform="translate(-3639 -166)">
    <g id="Group_1939" data-name="Group 1939" transform="translate(3342 97)">
      <rect id="Rectangle_1254" data-name="Rectangle 1254" width="196" height="196" rx="5" transform="translate(297 69)" fill="#fff"/>
    </g>
    <g id="Group_1918" data-name="Group 1918" transform="translate(3664 198)">
      <g id="Group_1551" data-name="Group 1551" transform="translate(0 0)">
        <g id="Group_1220" data-name="Group 1220">
          <g id="Group_919" data-name="Group 919">
            <path id="Path_1888" data-name="Path 1888" d="M1889.326,717.631H1839.99a17.387,17.387,0,0,0-15.058,8.694l-24.669,42.728a17.389,17.389,0,0,0,0,17.387l24.669,42.728a17.387,17.387,0,0,0,15.058,8.694h49.336a17.389,17.389,0,0,0,15.058-8.694l24.669-42.728a17.389,17.389,0,0,0,0-17.387l-24.669-42.728A17.389,17.389,0,0,0,1889.326,717.631Z" transform="translate(-1784.967 -710.184)" fill="#20b6ce"/>
            <path id="Path_1889" data-name="Path 1889" d="M1887.719,711.121H1831.9a17.386,17.386,0,0,0-15.058,8.694l-27.911,48.337a17.383,17.383,0,0,0,0,17.387l27.911,48.337a17.386,17.386,0,0,0,15.058,8.694h55.822a17.389,17.389,0,0,0,15.058-8.694l27.911-48.337a17.389,17.389,0,0,0,0-17.387l-27.911-48.337A17.39,17.39,0,0,0,1887.719,711.121Z" transform="translate(-1786.598 -711.121)" fill="none" stroke="#000" stroke-linejoin="round" stroke-width="7"/>
            <g id="K-2" transform="translate(57.513 33.285)" style="isolation: isolate">
              <text id="K" transform="translate(0 53)" fill="#fff" font-size="53" font-family="Quicksand-Bold, Quicksand" font-weight="700" style="isolation: isolate"><tspan x="0" y="0">K</tspan></text>
            </g>
            <g id="Group_802" data-name="Group 802" transform="translate(23.853 14.688)">
              <path id="Path_1890" data-name="Path 1890" d="M1819.321,741.9l7.809-13.215a9.614,9.614,0,0,1,8.279-4.724h14.084" transform="translate(-1805.743 -723.961)" fill="none" stroke="#fff" stroke-linecap="round" stroke-miterlimit="10" stroke-width="5"/>
              <line id="Line_309" data-name="Line 309" x1="8.257" y2="13.556" transform="translate(0 26.846)" fill="none" stroke="#fff" stroke-linecap="round" stroke-miterlimit="10" stroke-width="5"/>
            </g>
          </g>
        </g>
      </g>
    </g>
  </g>
</svg>
