<svg xmlns="http://www.w3.org/2000/svg" width="135.388" height="121.916" viewBox="0 0 135.388 121.916">
  <g id="Group_1555" data-name="Group 1555" transform="translate(-1843.735 -1397.486)">
    <g id="Group_1221" data-name="Group 1221">
      <g id="Group_923" data-name="Group 923" transform="translate(60.831 153.046)">
        <path id="Path_1900" data-name="Path 1900" d="M1876.805,1254.45h-42.31a15.2,15.2,0,0,0-13.164,7.6l-21.154,36.641a15.2,15.2,0,0,0,0,15.2l21.154,36.641a15.2,15.2,0,0,0,13.164,7.6h42.31a15.2,15.2,0,0,0,13.164-7.6l21.155-36.641a15.2,15.2,0,0,0,0-15.2l-21.155-36.641A15.2,15.2,0,0,0,1876.805,1254.45Z" fill="#168b16"/>
        <g id="Cu" style="isolation: isolate">
          <text id="Cu-2" data-name="Cu" transform="translate(1818.647 1320.494)" fill="#fff" font-size="48" font-family="Quicksand-Bold, Quicksand" font-weight="700" style="isolation: isolate"><tspan x="0" y="0">Cu</tspan></text>
        </g>
        <path id="Path_1901" data-name="Path 1901" d="M1875,1247.94h-48.8a15.2,15.2,0,0,0-13.164,7.6l-24.4,42.258a15.2,15.2,0,0,0,0,15.2l24.4,42.258a15.2,15.2,0,0,0,13.164,7.6H1875a15.2,15.2,0,0,0,13.163-7.6l24.4-42.258a15.2,15.2,0,0,0,0-15.2l-24.4-42.258A15.2,15.2,0,0,0,1875,1247.94Z" fill="none" stroke="#000" stroke-linejoin="round" stroke-width="7"/>
        <g id="Group_806" data-name="Group 806">
          <path id="Path_1902" data-name="Path 1902" d="M1819.816,1276.7l6.827-11.552a8.4,8.4,0,0,1,7.238-4.13h12.311" fill="none" stroke="#fff" stroke-linecap="round" stroke-miterlimit="10" stroke-width="5"/>
          <line id="Line_313" data-name="Line 313" x1="7.218" y2="11.851" transform="translate(1807.946 1284.487)" fill="none" stroke="#fff" stroke-linecap="round" stroke-miterlimit="10" stroke-width="5"/>
        </g>
      </g>
    </g>
  </g>
</svg>
