<svg xmlns="http://www.w3.org/2000/svg" width="248.265" height="137.613" viewBox="0 0 248.265 137.613">
  <g id="Group_1501" data-name="Group 1501" transform="translate(0 0)">
    <g id="Group_1498" data-name="Group 1498" transform="translate(0 0)">
      <path id="Path_3716" data-name="Path 3716" d="M1747.143,3210.086l2.375-3.341h-4Z" transform="translate(-1624.712 -3080.884)" fill="none"/>
      <path id="Path_3717" data-name="Path 3717" d="M1778.709,3274.995a9.082,9.082,0,0,1-8.911-10.806,56.86,56.86,0,0,1,25.151-37.008l-21.452-44.219a108.908,108.908,0,0,0-52.524,73.6,17.379,17.379,0,0,0,17.054,20.679h81.21l-1.089-2.243Z" transform="translate(-1698.426 -3151.378)" fill="#d4ccff"/>
      <path id="Path_3718" data-name="Path 3718" d="M1786.118,3228.986a56.587,56.587,0,0,1,32.4,10.14l29.678-41.759a108.593,108.593,0,0,0-114.211-3.555l21.453,44.219A56.474,56.474,0,0,1,1786.118,3228.986Z" transform="translate(-1658.914 -3162.229)" fill="#b6a9fb"/>
      <path id="Path_3719" data-name="Path 3719" d="M1857.92,3253.9a108.788,108.788,0,0,0-46.914-70.041l-29.679,41.759a56.866,56.866,0,0,1,23.436,35.913,9.078,9.078,0,0,1-8.911,10.806h-47.731l-1.589,2.243h94.335A17.38,17.38,0,0,0,1857.92,3253.9Z" transform="translate(-1621.725 -3148.719)" fill="#9886fb"/>
      <path id="Path_3720" data-name="Path 3720" d="M1745.248,3206.18l1.088,2.24h4l1.593-2.24Z" transform="translate(-1625.526 -3082.561)" fill="#ffe6a9"/>
      <path id="Path_3724" data-name="Path 3724" d="M1835.144,3182.711a114.142,114.142,0,0,0-112.046,92.417,18.229,18.229,0,0,0,17.886,21.69H1929.3a18.229,18.229,0,0,0,17.885-21.69,114.139,114.139,0,0,0-112.046-92.417m0-11.752a125.96,125.96,0,0,1,123.587,101.95,29.982,29.982,0,0,1-29.426,35.663H1740.983a29.982,29.982,0,0,1-29.426-35.665A125.967,125.967,0,0,1,1835.144,3170.959Z" transform="translate(-1711.011 -3170.959)"/>
      <path id="Line_403" data-name="Line 403" d="M1.016,47.053a2.519,2.519,0,0,1-2.137-3.847L25.9-.31a2.518,2.518,0,0,1,4.279,2.657L3.158,45.862A2.517,2.517,0,0,1,1.016,47.053Z" transform="translate(128.353 61.34)"/>
    </g>
    <path id="Path_3946" data-name="Path 3946" d="M1728.985,3224.28a4.2,4.2,0,0,1-3.954-5.614,64.6,64.6,0,0,1,9.484-16.46,55.71,55.71,0,0,1,13.019-12.157,45.986,45.986,0,0,1,19.784-7.34,4.2,4.2,0,1,1,1.041,8.33c-10.505,1.313-19.619,6.749-27.088,16.155a57.268,57.268,0,0,0-8.338,14.3A4.194,4.194,0,0,1,1728.985,3224.28Z" transform="translate(-1671.931 -3148.524)" fill="#fff"/>
  </g>
</svg>
