<svg id="Group_1499" data-name="Group 1499" xmlns="http://www.w3.org/2000/svg" width="172.564" height="122.17" viewBox="0 0 172.564 122.17">
  <rect id="Rectangle_1114" data-name="Rectangle 1114" width="143.811" height="98.279" rx="6" transform="translate(21.389 15.809)" fill="#b6a9fb"/>
  <path id="Path_3501" data-name="Path 3501" d="M181.235,2868.646a24.816,24.816,0,0,1-12.558-3.405L119.988,2836.7a4.163,4.163,0,1,1,4.21-7.184l48.69,28.537a16.523,16.523,0,0,0,16.694,0l48.69-28.537a4.163,4.163,0,1,1,4.21,7.184l-48.69,28.537A24.821,24.821,0,0,1,181.235,2868.646Z" transform="translate(-92.192 -2806.151)" fill="#fff"/>
  <path id="Rectangle_1113" data-name="Rectangle 1113" d="M13.748-3.5H151.817a17.267,17.267,0,0,1,17.248,17.248v87.674a17.267,17.267,0,0,1-17.248,17.248H13.748A17.267,17.267,0,0,1-3.5,101.422V13.748A17.267,17.267,0,0,1,13.748-3.5ZM151.817,110.343a8.931,8.931,0,0,0,8.921-8.921V13.748a8.931,8.931,0,0,0-8.921-8.921H13.748a8.931,8.931,0,0,0-8.921,8.921v87.674a8.931,8.931,0,0,0,8.921,8.921Z" transform="translate(3.5 3.5)"/>
</svg>
