<svg xmlns="http://www.w3.org/2000/svg" width="346.6" height="346.601" viewBox="0 0 346.6 346.601">
  <g id="Group_1751" data-name="Group 1751" transform="translate(-491.4 -366.2)">
    <g id="Group_943" data-name="Group 943" transform="translate(180.449 -1327.517)">
      <ellipse id="Ellipse_142" data-name="Ellipse 142" cx="149.502" cy="149.502" rx="149.502" ry="149.502" transform="translate(341.207 1721.105)" fill="#f3dcff"/>
      <path id="Ellipse_143" data-name="Ellipse 143" d="M169.8-3.5c95.558,0,173.3,77.742,173.3,173.3S265.358,343.1,169.8,343.1-3.5,265.359-3.5,169.8,74.242-3.5,169.8-3.5Zm0,328.153c85.386,0,154.852-69.466,154.852-154.852S255.186,14.948,169.8,14.948,14.948,84.415,14.948,169.8,84.414,324.653,169.8,324.653Z" transform="translate(314.451 1697.217)" fill="#815497"/>
      <path id="Path_1878" data-name="Path 1878" d="M1581.972,261.748a9.231,9.231,0,0,1-8.752-12.143,135.58,135.58,0,0,1,28.6-48.764,9.224,9.224,0,0,1,13.634,12.427,117.242,117.242,0,0,0-24.73,42.17A9.228,9.228,0,0,1,1581.972,261.748Z" transform="translate(-1219.149 1573.802)" fill="#815497"/>
      <path id="Path_1879" data-name="Path 1879" d="M1744.146,229.552a9.187,9.187,0,0,1-5.853-2.1,119.251,119.251,0,0,0-127.708-15.022,9.224,9.224,0,0,1-8.09-16.58A137.746,137.746,0,0,1,1750.01,213.2a9.224,9.224,0,0,1-5.863,16.35Z" transform="translate(-1178.964 1547.902)" fill="#815497"/>
      <g id="A" transform="translate(376.152 1792.607)" style="isolation: isolate">
        <text id="_404" data-name="404" transform="translate(0 125)" fill="#815497" font-size="125" font-family="Quicksand-Bold, Quicksand" font-weight="700"><tspan x="0" y="0">404</tspan></text>
      </g>
    </g>
  </g>
</svg>
