<svg xmlns="http://www.w3.org/2000/svg" width="235" height="111" viewBox="0 0 235 111">
  <g id="Group_1762" data-name="Group 1762" transform="translate(-320.2 -560.31)">
    <path id="Path_3977" data-name="Path 3977" d="M555.2,615.81a116.9,116.9,0,0,1-13.91,55.5H334.11a117.676,117.676,0,0,1,0-111H541.29A116.9,116.9,0,0,1,555.2,615.81Z" fill="#815497"/>
    <g id="Group_1450" data-name="Group 1450">
      <path id="Path_3978" data-name="Path 3978" d="M555.2,615.81a116.9,116.9,0,0,1-13.91,55.5H334.11a117.676,117.676,0,0,1,0-111H541.29A116.9,116.9,0,0,1,555.2,615.81Z" fill="#995cb7"/>
      <path id="Path_3979" data-name="Path 3979" d="M535.2,615.81a97,97,0,0,1-17.34,55.5H357.54a97.489,97.489,0,0,1,0-111H517.86A97,97,0,0,1,535.2,615.81Z" fill="#e4acff"/>
      <path id="Path_3980" data-name="Path 3980" d="M517.2,615.81a79.221,79.221,0,0,1-22.59,55.5H380.78a79.5,79.5,0,0,1,0-111H494.61A79.221,79.221,0,0,1,517.2,615.81Z" fill="#fff8e9"/>
    </g>
    <g id="Group_1070" data-name="Group 1070">
      <g id="Group_667" data-name="Group 667">
        <g id="Group_219" data-name="Group 219">
          <path id="Path_216" data-name="Path 216" d="M407.606,644.353,377.2,581.9h0a30.11,30.11,0,0,1,26.907,16.6l7.32,14.578a25.456,25.456,0,0,1,.418,21.973Z" fill="#5cbc2a" fill-rule="evenodd"/>
          <path id="Path_214" data-name="Path 214" d="M417.438,621.5s-18.1-34.959,17.484-42.242C423.889,603.189,417.438,621.5,417.438,621.5Z" fill="#5cbc2a" fill-rule="evenodd"/>
          <path id="Path_215" data-name="Path 215" d="M417.418,621.5s-8.558-19.536,4.206-28.539C419.306,599.937,416.291,600.607,417.418,621.5Z" fill="#f2d8ff" fill-rule="evenodd"/>
        </g>
      </g>
      <path id="Path_245" data-name="Path 245" d="M441.6,595.36a5.423,5.423,0,0,0-3.98-1.66,5.356,5.356,0,0,0-3.95,1.66,5.5,5.5,0,0,0-1.62,3.98,5.531,5.531,0,0,0,5.57,5.56,5.457,5.457,0,0,0,3.98-1.62,5.272,5.272,0,0,0,1.65-3.94A5.413,5.413,0,0,0,441.6,595.36Zm3.06,35.97c0,.01-.01.01-.01.02a9.738,9.738,0,0,1-2.53,4.45,5.385,5.385,0,0,1-3.8,1.73,3.292,3.292,0,0,1-2.21-.6,2.578,2.578,0,0,1-.67-2.01,8.64,8.64,0,0,1,.28-2.26l5.07-23.95H430.64l-4.79,22.62a24.192,24.192,0,0,0-.56,4.57q0,4.23,2.08,6.34a7.31,7.31,0,0,0,5.46,2.11,14.55,14.55,0,0,0,8.1-2.7,12.888,12.888,0,0,0,3.36-3.42,27.737,27.737,0,0,0,3.33-6.9Zm18.8-.01a9.754,9.754,0,0,1-.9,2.28,10.041,10.041,0,0,1-1.63,2.2,5.411,5.411,0,0,1-3.8,1.72,3.3,3.3,0,0,1-2.22-.6,2.554,2.554,0,0,1-.67-2.01,8.567,8.567,0,0,1,.28-2.25l4.51-21.13h4.22l.57-2.82h-4.23l2.4-11.13-10.42,1.41-2.12,9.72h-2.32l-.57,2.82h2.33l-4.23,19.79v.01c0,.01-.01.01-.01.02a24.919,24.919,0,0,0-.55,4.55,13.006,13.006,0,0,0,.19,2.33,7.217,7.217,0,0,0,1.89,4.01,7.3,7.3,0,0,0,5.46,2.11,14.555,14.555,0,0,0,8.09-2.71,12.865,12.865,0,0,0,3.48-3.59,28.162,28.162,0,0,0,3.21-6.73Zm29.14,5.6a2.591,2.591,0,0,1-.67-2.01,8.95,8.95,0,0,1,.28-2.25l5.08-23.95H487.14l-.77,3.73v-.49a3.055,3.055,0,0,0-1.41-2.61,7.509,7.509,0,0,0-4.3-.98,13.654,13.654,0,0,0-9.83,3.98,25.139,25.139,0,0,0-6.2,9.72,32.282,32.282,0,0,0-2.08,10.95c0,.2,0,.4.01.59a16.641,16.641,0,0,0,.65,4.45,8.725,8.725,0,0,0,2.02,3.56,8.971,8.971,0,0,0,6.69,2.74q6.21,0,10.5-6.55a8,8,0,0,0,2.22,4.83,6.453,6.453,0,0,0,4.69,1.72,5.126,5.126,0,0,0,4.08-1.58,19.414,19.414,0,0,0,2.96-5.53,3.445,3.445,0,0,1-1.55.28A3.318,3.318,0,0,1,492.6,636.92Zm-10.25-5.6a8.676,8.676,0,0,1-2.36,4.54,5.073,5.073,0,0,1-3.49,1.66,3.489,3.489,0,0,1-2.5-.99c-.68-.66-1.02-2.16-1.02-4.51a31.548,31.548,0,0,1,1.27-8.13,26.166,26.166,0,0,1,3.52-7.89q2.265-3.285,5.08-3.28a2.626,2.626,0,0,1,2.18.88,2.851,2.851,0,0,1,.7,1.8Z" fill="#ff960c"/>
    </g>
  </g>
</svg>
