<svg xmlns="http://www.w3.org/2000/svg" width="566.802" height="566.802" viewBox="0 0 566.802 566.802">
  <g id="Group_1145" data-name="Group 1145" transform="translate(-449.815 -1544)">
    <path id="Path_2452" data-name="Path 2452" d="M297.567,326.065a126.162,126.162,0,0,1,27.005-78.2l-123.45-96.522a283.951,283.951,0,0,0-52.792,239.569L300.9,355.056A127.042,127.042,0,0,1,297.567,326.065Z" transform="translate(308.949 1501.336)" fill="#eb3860"/>
    <path id="Path_2453" data-name="Path 2453" d="M413.044,219.608V62.907A282.9,282.9,0,0,0,189.9,171.587l123.45,96.522A126.48,126.48,0,0,1,413.044,219.608Z" transform="translate(320.173 1481.093)" fill="#b71174"/>
    <path id="Path_2454" data-name="Path 2454" d="M479.621,326.131a127.069,127.069,0,0,1-3.248,28.626l152.685,35.406a284.044,284.044,0,0,0-53.265-239.1l-123.233,96.8A126.154,126.154,0,0,1,479.621,326.131Z" transform="translate(380.296 1501.271)" fill="#e8a113"/>
    <path id="Path_2455" data-name="Path 2455" d="M471.118,268.039l123.233-96.8A282.9,282.9,0,0,0,371.48,62.907v156.7A126.474,126.474,0,0,1,471.118,268.039Z" transform="translate(361.737 1481.093)" fill="#eabb36"/>
    <path id="Path_2456" data-name="Path 2456" d="M394.251,398.96A126.209,126.209,0,0,1,339.6,386.595L272,528a284.017,284.017,0,0,0,245.4-.429L449.307,386.4A126.191,126.191,0,0,1,394.251,398.96Z" transform="translate(338.966 1555.141)" fill="#f56224"/>
    <path id="Path_2457" data-name="Path 2457" d="M299.513,317.112,146.939,352.969A283.962,283.962,0,0,0,300.626,543.864l67.6-141.408A126.951,126.951,0,0,1,299.513,317.112Z" transform="translate(310.339 1539.28)" fill="#f1483d"/>
    <path id="Path_2458" data-name="Path 2458" d="M637.361,352.221,484.677,316.815a126.947,126.947,0,0,1-68.4,85.517L484.373,543.5A283.957,283.957,0,0,0,637.361,352.221Z" transform="translate(371.992 1539.212)" fill="#f69128"/>
    <text id="A" transform="translate(788.273 1668.323)" fill="#fff" font-size="60" font-family="Quicksand-Bold, Quicksand" font-weight="700"><tspan x="0" y="0">A</tspan></text>
    <text id="B3" transform="translate(690.153 2048.673)" fill="#fff" font-size="60" font-family="Quicksand-Bold, Quicksand" font-weight="700"><tspan x="0" y="0">B3</tspan></text>
    <text id="B5" transform="translate(541.668 1976.691)" fill="#fff" font-size="60" font-family="Quicksand-Bold, Quicksand" font-weight="700"><tspan x="0" y="0">B5</tspan></text>
    <text id="B6" transform="translate(495.92 1813.669)" fill="#fff" font-size="60" font-family="Quicksand-Bold, Quicksand" font-weight="700"><tspan x="0" y="0">B6</tspan></text>
    <text id="E" transform="translate(917.236 1813.669)" fill="#fff" font-size="60" font-family="Quicksand-Bold, Quicksand" font-weight="700"><tspan x="0" y="0">E</tspan></text>
    <text id="K" transform="translate(636.644 1668.322)" fill="#fff" font-size="60" font-family="Quicksand-Bold, Quicksand" font-weight="700"><tspan x="0" y="0">K</tspan></text>
    <text id="C" transform="translate(864.367 1969)" fill="#fff" font-size="60" font-family="Quicksand-Bold, Quicksand" font-weight="700"><tspan x="0" y="0">C</tspan></text>
  </g>
</svg>
