<svg xmlns="http://www.w3.org/2000/svg" width="129.959" height="146.145" viewBox="0 0 129.959 146.145">
  <g id="Group_1523" data-name="Group 1523" transform="translate(-56.003 -561.434)">
    <g id="Group_1465" data-name="Group 1465" transform="translate(-18.05 74.898)">
      <g id="Path_3849" data-name="Path 3849" transform="translate(0 0)" fill="none" stroke-linecap="round" stroke-linejoin="round">
        <path d="M200.578,552.009l-1.219.552,1.4-1.42c.549-.554.128-1.295-.612-1.076l-2.3.683,1.446-1.026a.219.219,0,0,0-.138-.374,45.715,45.715,0,0,0-8.947.635l.38-.373a.26.26,0,0,0-.115-.46c-2.791-.2-10.729.645-13.905,4.037-2.248,2.4-1.577,4.56-.159,5.695.051.04.112.071.166.108l-11.833,6.793,2.917-7.3a.161.161,0,0,0-.245-.2c-1.767,1.341-8.035,6.32-8.664,9.858a5.017,5.017,0,0,0-.075,1.115L140.673,579.6l3.008-7.2a.162.162,0,0,0-.243-.2c-1.788,1.315-8.133,6.2-8.815,9.728a4.9,4.9,0,0,0-.088,1.191l-22.227,12.76,2.875-14.659,9.768-8.433a3.729,3.729,0,0,0,2.057.338c3.552-.241,9.144-5.984,10.66-7.61a.162.162,0,0,0-.165-.268l-5.687,1.611,11.557-9.979a4.544,4.544,0,0,0,1.474.77,3.418,3.418,0,0,0,3.03-.54l6.987-5.105a.561.561,0,0,0-.354-1.035l-4.631.291,9.129-7.882a3.633,3.633,0,0,0,1.08.316c2.92.392,7.509-4.277,8.753-5.611a.184.184,0,0,0-.137-.294l-3.766.467,5.932-5.123c.8,1.326,2.455,2.138,4.986,1.024,4.235-1.863,7.727-9.129,8.5-11.851a.256.256,0,0,0-.387-.266l-.476.232a47.055,47.055,0,0,0,3.645-8.293.217.217,0,0,0-.3-.26l-1.095.776,1.113-1.663c.436-.651-.117-1.3-.8-.939l-2.132,1.11,1.228-1.284a.219.219,0,0,0-.205-.341,45.812,45.812,0,0,0-8.666,2.336l.3-.439a.26.26,0,0,0-.2-.43c-2.777.341-10.415,2.688-12.9,6.627-1.758,2.787-.7,4.779.91,5.622.057.03.122.048.183.074l-10.35,8.937,1.5-7.722a.161.161,0,0,0-.277-.145c-1.485,1.656-6.709,7.745-6.665,11.339a5.076,5.076,0,0,0,.135,1.109l-15.748,13.6,1.608-7.641a.161.161,0,0,0-.276-.149c-1.508,1.634-6.826,7.646-6.838,11.241a4.935,4.935,0,0,0,.136,1.187l-9.453,8.163,2.554-13.023a4.5,4.5,0,0,0,1.629-.322,3.478,3.478,0,0,0,2.048-2.325l2.356-8.39a.555.555,0,0,0-.912-.59l-3.456,3.134,2.336-11.913a3.634,3.634,0,0,0,1.042-.428c2.531-1.525,3.273-8.067,3.433-9.894a.182.182,0,0,0-.287-.145l-2.669,2.73,1.518-7.743c1.438.54,3.236.138,4.54-2.325,2.182-4.119.473-12.012-.588-14.63a.255.255,0,0,0-.467.033l-.231.482a47.3,47.3,0,0,0-2.219-8.8.216.216,0,0,0-.4-.016l-.383,1.3-.145-2c-.057-.783-.886-.943-1.2-.233l-.993,2.21.177-1.779a.216.216,0,0,0-.37-.139,46.833,46.833,0,0,0-5.37,7.271l-.031-.534a.256.256,0,0,0-.419-.212c-1.97,2.01-6.527,8.643-6.065,13.294.327,3.29,2.381,4.186,4.157,3.841.063-.012.124-.039.188-.056l-2.649,13.506-3.551-7a.16.16,0,0,0-.306.061c-.15,2.231-.522,10.286,1.714,13.079a5.057,5.057,0,0,0,.785.786l-4.029,20.55-3.417-7a.161.161,0,0,0-.308.056c-.184,2.229-.675,10.283,1.518,13.11a4.857,4.857,0,0,0,.833.847l-2.724,13.9L77.9,600.021a.906.906,0,0,0-.066,1.267l5.358,6.358a.879.879,0,0,0,1.246.133L102.819,591.9l-2.084,10.628L77.476,615.883a.9.9,0,0,0-.3,1.232l4.073,7.268a.882.882,0,0,0,1.2.369l15.7-9.013L95.937,627a.9.9,0,0,0,.723,1.036l8.1,1.627a.887.887,0,0,0,1.059-.677l3.9-19.889,19.053-10.938a3.746,3.746,0,0,0,1.957.726c3.534.444,10.1-4.125,11.89-5.431a.163.163,0,0,0-.112-.295l-5.886.493,13.213-7.586a4.575,4.575,0,0,0,1.3,1.039,3.414,3.414,0,0,0,3.076.051l7.815-3.676a.561.561,0,0,0-.154-1.084l-4.6-.6,10.436-5.992a3.607,3.607,0,0,0,1,.518c2.795.945,8.173-2.762,9.644-3.832a.184.184,0,0,0-.079-.314l-3.786-.263,6.79-3.9c.534,1.456,2,2.573,4.7,1.964,4.506-1.019,9.294-7.484,10.559-10.009a.258.258,0,0,0-.331-.335l-.511.137a46.773,46.773,0,0,0,5.129-7.446A.218.218,0,0,0,200.578,552.009Z" stroke="none"/>
        <path d="M 127.444580078125 489.5355224609375 C 127.2184753417969 489.5355224609375 126.9834899902344 489.6796875 126.844970703125 489.98828125 L 125.8521118164062 492.1981201171875 L 126.029541015625 490.4188232421875 C 126.0357513427734 490.2373046875 125.7732543945312 490.1387329101562 125.6591644287109 490.2798461914062 C 124.7202301025391 491.447998046875 121.9958801269531 494.3902587890625 120.2892608642578 497.5503540039062 L 120.2581634521484 497.0160522460938 C 120.2861633300781 496.8013916015625 119.9894104003906 496.65087890625 119.8390045166016 496.804443359375 C 117.8688507080078 498.8140258789062 113.3123321533203 505.447509765625 113.7740173339844 510.0984497070312 C 114.1008148193359 513.38818359375 116.1549377441406 514.2848510742188 117.9311218261719 513.9390869140625 C 117.9944000244141 513.9266967773438 118.0556030273438 513.8997192382812 118.118896484375 513.8831176757812 L 115.4702606201172 527.3887329101562 L 111.9190368652344 520.386962890625 C 111.8422546386719 520.2344970703125 111.6243896484375 520.2769775390625 111.6129760742188 520.4481201171875 C 111.4625549316406 522.6787109375 111.0911560058594 530.7345581054688 113.3268737792969 533.5274047851562 C 113.5945434570312 533.8614501953125 113.8559722900391 534.1063232421875 114.1122436523438 534.3138427734375 L 110.0827331542969 554.8638305664062 L 106.6653442382812 547.85888671875 C 106.5895843505859 547.7053833007812 106.3717498779297 547.7437744140625 106.3572235107422 547.9149169921875 C 106.173583984375 550.1444091796875 105.6818237304688 558.1981811523438 107.8750305175781 561.0252685546875 C 108.1582641601562 561.3914794921875 108.4352416992188 561.6539916992188 108.7080993652344 561.871826171875 L 105.9837341308594 575.767578125 L 77.89553833007812 600.0213012695312 C 77.53347778320312 600.3345947265625 77.50337219238281 600.9010620117188 77.82913208007812 601.2880249023438 L 83.1876220703125 607.6455688476562 C 83.51341247558594 608.0315551757812 84.07049560546875 608.0916137695312 84.43362426757812 607.7783813476562 L 102.8195037841797 591.9021606445312 L 100.7352294921875 602.5299072265625 L 77.47640991210938 615.8829956054688 C 77.06143188476562 616.1217041015625 76.92549133300781 616.6725463867188 77.1734619140625 617.114501953125 L 81.24653625488281 624.3829345703125 C 81.49449157714844 624.8248291015625 82.03083801269531 624.98974609375 82.44583129882812 624.7522583007812 L 98.14468383789062 615.7388305664062 L 95.93695068359375 626.9983520507812 C 95.84359741210938 627.4714965820312 96.16728210449219 627.9351806640625 96.66007995605469 628.0347900390625 L 104.7584838867188 629.6615600585938 C 105.2501831054688 629.7600708007812 105.7243499755859 629.4572143554688 105.8177337646484 628.9840698242188 L 109.7175598144531 609.094970703125 L 128.7705230712891 598.156982421875 C 129.1885986328125 598.5034790039062 129.8193817138672 598.7691040039062 130.7271575927734 598.8832397460938 C 134.2606201171875 599.3272705078125 140.8247528076172 594.7582397460938 142.6174774169922 593.4521484375 C 142.7544097900391 593.3525390625 142.6747436523438 593.1436157226562 142.5054321289062 593.157470703125 L 136.6199188232422 593.6502685546875 L 149.8330230712891 586.0643310546875 C 150.1930236816406 586.4990234375 150.6681518554688 586.8424682617188 151.1371154785156 587.1029052734375 C 152.0573120117188 587.6134033203125 153.2234649658203 587.6184692382812 154.2131805419922 587.1537475585938 L 162.0283508300781 583.4779663085938 C 162.5813140869141 583.2186279296875 162.4744567871094 582.4727172851562 161.8747863769531 582.3938598632812 L 157.273681640625 581.7931518554688 L 167.70947265625 575.80078125 C 167.9833679199219 576.0010375976562 168.3028869628906 576.1815185546875 168.7106323242188 576.3184814453125 C 171.5055541992188 577.2635498046875 176.8837585449219 573.5567016601562 178.3548736572266 572.4861450195312 C 178.4668884277344 572.4041137695312 178.410888671875 572.1810913085938 178.2760162353516 572.1717529296875 L 174.4903259277344 571.9082641601562 L 181.2804870605469 568.010498046875 C 181.8147888183594 569.466064453125 183.2827453613281 570.5833740234375 185.9781188964844 569.9744262695312 C 190.4838256835938 568.9556274414062 195.2716674804688 562.4901733398438 196.5373840332031 559.9649658203125 C 196.6338500976562 559.77197265625 196.3994140625 559.534423828125 196.2064361572266 559.6298828125 L 195.6949462890625 559.766845703125 C 198.1226348876953 557.1337280273438 200.0242919921875 553.5908813476562 200.8241577148438 552.3209838867188 C 200.9216918945312 552.1664428710938 200.7462615966797 551.9452514648438 200.5783081054688 552.0087280273438 L 199.3592529296875 552.5606079101562 L 200.7629699707031 551.140380859375 C 201.311767578125 550.58642578125 200.8905944824219 549.8453369140625 200.1508483886719 550.0645141601562 L 197.8497772216797 550.7471313476562 L 199.2959899902344 549.7210693359375 C 199.4360656738281 549.6069946289062 199.3383941650391 549.341064453125 199.1579895019531 549.3466186523438 C 197.6702880859375 549.3901977539062 193.6905975341797 549.22412109375 190.2109680175781 549.9815063476562 L 190.5906677246094 549.6080322265625 C 190.7701416015625 549.48974609375 190.689208984375 549.1640014648438 190.4755249023438 549.1484375 C 187.6848602294922 548.95263671875 179.7461090087891 549.793701171875 176.5704345703125 553.1852416992188 C 174.322265625 555.5848388671875 174.9934997558594 557.7448120117188 176.4117126464844 558.8797607421875 C 176.4625396728516 558.9202270507812 176.5237579345703 558.9503173828125 176.5776672363281 558.9876708984375 L 164.7444458007812 565.781005859375 L 167.6617584228516 558.4855346679688 C 167.7260894775391 558.3268432617188 167.5517578125 558.1876831054688 167.4169311523438 558.29052734375 C 165.650146484375 559.6319580078125 159.3818054199219 564.6107788085938 158.7530822753906 568.1484985351562 C 158.6773681640625 568.57177734375 158.6649169921875 568.9317626953125 158.6784057617188 569.2637329101562 L 140.6732940673828 579.6010131835938 L 143.6808776855469 572.4052124023438 C 143.7472839355469 572.2463989257812 143.5750427246094 572.1054077148438 143.4381103515625 572.2059936523438 C 141.6505584716797 573.521484375 135.3054504394531 578.4058837890625 134.6228179931641 581.9342651367188 C 134.5335845947266 582.3896484375 134.5190734863281 582.7735595703125 134.5346374511719 583.125244140625 L 112.3080902099609 595.8849487304688 L 115.1828918457031 581.2256469726562 L 124.9505615234375 572.7921752929688 C 125.4267730712891 573.0525512695312 126.0949401855469 573.1925659179688 127.0078430175781 573.13037109375 C 130.5601348876953 572.8896484375 136.1520385742188 567.1463012695312 137.6677703857422 565.5205688476562 C 137.7839508056641 565.3971557617188 137.6665649414062 565.20703125 137.5028228759766 565.2529296875 L 131.8154296875 566.8641357421875 L 143.3727569580078 556.884765625 C 143.8074645996094 557.24267578125 144.3376007080078 557.488525390625 144.8469696044922 557.6546020507812 C 145.8460693359375 557.979248046875 146.992431640625 557.7614135742188 147.8774108886719 557.1150512695312 L 154.8646850585938 552.009765625 C 155.3585357666016 551.6487426757812 155.11474609375 550.9378662109375 154.5109252929688 550.974365234375 L 149.8796997070312 551.264892578125 L 159.00830078125 543.38330078125 C 159.3143615722656 543.5264892578125 159.6619262695312 543.6426391601562 160.0882873535156 543.69970703125 C 163.0090026855469 544.091796875 167.5974426269531 539.4223022460938 168.8413543701172 538.089111328125 C 168.9357604980469 537.9874267578125 168.8394470214844 537.77978515625 168.7044067382812 537.7954711914062 L 164.9384460449219 538.2623901367188 L 170.8706359863281 533.139404296875 C 171.6684112548828 534.4652099609375 173.3252258300781 535.2775268554688 175.8566589355469 534.1633911132812 C 180.091552734375 532.300048828125 183.5836486816406 525.0347290039062 184.3544921875 522.3125 C 184.4136352539062 522.10498046875 184.1387023925781 521.9161987304688 183.9675140380859 522.046875 L 183.4913177490234 522.2792358398438 C 185.3826141357422 519.2291259765625 186.588134765625 515.3853759765625 187.1359252929688 513.98583984375 C 187.2023315429688 513.8156127929688 186.9885559082031 513.631103515625 186.8360900878906 513.7254028320312 L 185.7415771484375 514.5014038085938 L 186.8547668457031 512.83837890625 C 187.2904968261719 512.1878051757812 186.7374877929688 511.54248046875 186.0528259277344 511.8994750976562 L 183.9208374023438 513.009521484375 L 185.149169921875 511.7252197265625 C 185.265380859375 511.586181640625 185.1202087402344 511.3442993164062 184.9437866210938 511.3838500976562 C 183.4913177490234 511.7117309570312 179.5520935058594 512.310302734375 176.2778778076172 513.72021484375 L 176.5797576904297 513.2813720703125 C 176.7343444824219 513.130859375 176.59326171875 512.8259887695312 176.381591796875 512.8518676757812 C 173.6043090820312 513.1931762695312 165.966552734375 515.5399169921875 163.4808044433594 519.4791870117188 C 161.7222900390625 522.2657470703125 162.78466796875 524.2577514648438 164.3906555175781 525.1011962890625 C 164.4477233886719 525.1312255859375 164.5130615234375 525.1488647460938 164.5732421875 525.1748046875 L 154.2235412597656 534.1115112304688 L 155.7247314453125 526.3897094726562 C 155.7569274902344 526.2206420898438 155.5608825683594 526.1180419921875 155.44775390625 526.2444458007812 C 153.9631652832031 527.9002075195312 148.7384948730469 533.9890747070312 148.7830963134766 537.5838623046875 C 148.7882995605469 538.014404296875 148.8432922363281 538.3692626953125 148.9179840087891 538.6929321289062 L 133.1703643798828 552.2909545898438 L 134.7784423828125 544.6499633789062 C 134.8136901855469 544.48193359375 134.6186828613281 544.3760375976562 134.5024719238281 544.5006103515625 C 132.9940032958984 546.1346435546875 127.6759643554688 552.1466674804688 127.66455078125 555.7415161132812 C 127.6624755859375 556.2052001953125 127.7195434570312 556.5859375 127.8004760742188 556.9283447265625 L 118.3471374511719 565.091064453125 L 120.9013519287109 552.06787109375 C 121.4619293212891 552.07666015625 122.0290832519531 551.9361572265625 122.5301818847656 551.7462158203125 C 123.5126495361328 551.3748779296875 124.2793121337891 550.4846801757812 124.5781097412109 549.4212646484375 L 126.9342041015625 541.0313720703125 C 127.1001892089844 540.43896484375 126.4725189208984 540.0322875976562 126.0222778320312 540.4410400390625 L 122.5664825439453 543.5752563476562 L 124.9028625488281 531.6620483398438 C 125.2306823730469 531.5831909179688 125.5751342773438 531.4556274414062 125.9444580078125 531.2335815429688 C 128.4758758544922 529.70849609375 129.2176513671875 523.1663208007812 129.3774108886719 521.3392944335938 C 129.3888397216797 521.1992797851562 129.1854400634766 521.0965576171875 129.0900421142578 521.194091796875 L 126.420654296875 523.9236450195312 L 127.9384307861328 516.1810913085938 C 129.3763427734375 516.7213134765625 131.1742858886719 516.3190307617188 132.4783935546875 513.8561401367188 C 134.6601715087891 509.7374267578125 132.9514617919922 501.8444213867188 131.8901519775391 499.2258911132812 C 131.8081817626953 499.0245971679688 131.4772338867188 499.0494384765625 131.4232940673828 499.259033203125 L 131.1919403076172 499.741455078125 C 130.8070373535156 496.16015625 129.4002532958984 492.3890380859375 128.9728240966797 490.9459228515625 C 128.9209289550781 490.7705688476562 128.6408081054688 490.7601318359375 128.5775299072266 490.9303588867188 L 128.1947174072266 492.2261352539062 L 128.0494842529297 490.2217407226562 C 128.0172271728516 489.7791137695312 127.7384185791016 489.5355224609375 127.444580078125 489.5355224609375 M 127.444580078125 486.5355224609375 C 128.7540130615234 486.5355224609375 129.8936004638672 487.2389526367188 130.5256195068359 488.320068359375 C 131.1494598388672 488.722412109375 131.6261596679688 489.3401489257812 131.8494415283203 490.0943603515625 C 131.9183959960938 490.3272705078125 132.0291900634766 490.66796875 132.1574554443359 491.0624389648438 C 132.6144409179688 492.4678344726562 133.2964782714844 494.5653076171875 133.7654418945312 496.8491821289062 C 134.1546630859375 497.177734375 134.4675750732422 497.6007690429688 134.6686096191406 498.0944213867188 C 135.2510986328125 499.5316162109375 136.0485229492188 502.3750610351562 136.3849639892578 505.674072265625 C 136.79443359375 509.6893920898438 136.3720245361328 512.9146728515625 135.1294097900391 515.2604370117188 C 134.4401245117188 516.562255859375 133.5730743408203 517.580078125 132.5526580810547 518.2852172851562 C 132.1562805175781 518.5591430664062 131.7374572753906 518.7842407226562 131.3033447265625 518.9581909179688 C 131.3856964111328 519.0308227539062 131.4646301269531 519.10791015625 131.5396575927734 519.1893310546875 C 132.1369171142578 519.8372192382812 132.4386596679688 520.7095947265625 132.3675231933594 521.5828857421875 C 132.3670349121094 521.5888061523438 132.3665313720703 521.5947265625 132.3660125732422 521.6005859375 C 132.2682800292969 522.7183837890625 132.0203399658203 524.9241333007812 131.4579772949219 527.13818359375 C 130.603759765625 530.5014038085938 129.3238372802734 532.671875 127.5465393066406 533.7703857421875 L 126.8538055419922 537.3026123046875 C 127.7909545898438 537.419921875 128.6600036621094 537.9147338867188 129.2370910644531 538.6757202148438 C 129.9205017089844 539.5769653320312 130.1340179443359 540.7305908203125 129.8229370117188 541.8408203125 L 128.2675018310547 547.3796997070312 C 129.7969207763672 545.2481079101562 131.4360809326172 543.3994750976562 132.2981567382812 542.4656982421875 C 132.3017120361328 542.4618530273438 132.3052825927734 542.4580078125 132.3088531494141 542.4541625976562 C 132.9064331054688 541.8135986328125 133.7494201660156 541.4461669921875 134.6216125488281 541.4461669921875 C 135.5776977539062 541.4461669921875 136.4720001220703 541.872314453125 137.0752410888672 542.615234375 C 137.4835815429688 543.1181030273438 137.7223358154297 543.7229614257812 137.7729797363281 544.3529052734375 L 145.7836151123047 537.435791015625 C 145.81689453125 535.2809448242188 146.8914794921875 532.6806030273438 149.063720703125 529.4963989257812 C 150.6144256591797 527.2232666015625 152.3255920410156 525.23291015625 153.2101745605469 524.2461547851562 L 153.2101745605469 524.2461547851562 C 153.8107604980469 523.5736694335938 154.6700134277344 523.18798828125 155.5676574707031 523.18798828125 C 156.5118408203125 523.18798828125 157.3990478515625 523.6056518554688 158.0017547607422 524.3338623046875 C 158.456298828125 524.883056640625 158.70703125 525.5596313476562 158.7272491455078 526.259033203125 L 160.2190246582031 524.970947265625 C 160.0369262695312 524.6066284179688 159.8907928466797 524.22265625 159.7833557128906 523.8222045898438 C 159.4307861328125 522.5081176757812 159.3458862304688 520.41015625 160.9437408447266 517.878173828125 C 162.3638610839844 515.6276245117188 164.9468078613281 513.6725463867188 168.6207275390625 512.0672607421875 C 171.6390075683594 510.7484741210938 174.49072265625 510.0616455078125 176.0156860351562 509.874267578125 C 176.5556488037109 509.8087158203125 177.0723571777344 509.8789672851562 177.5447082519531 510.0577392578125 C 179.7347412109375 509.3610229492188 181.8651428222656 508.94091796875 183.2947998046875 508.6590576171875 C 183.6993408203125 508.5792846679688 184.0487060546875 508.5104370117188 184.2831726074219 508.45751953125 C 184.51513671875 508.4054565429688 184.7489624023438 508.3795776367188 184.9822540283203 508.3795776367188 C 185.5427551269531 508.3795776367188 186.0836181640625 508.5298461914062 186.5565643310547 508.799560546875 C 187.8340148925781 508.8416748046875 188.987548828125 509.5527954101562 189.5874328613281 510.6766357421875 C 189.9498291015625 511.3555297851562 190.0759735107422 512.1240844726562 189.9725189208984 512.8761596679688 C 190.2173919677734 513.584716796875 190.2087097167969 514.3641967773438 189.9305114746094 515.0767822265625 C 189.8410797119141 515.3052978515625 189.7195434570312 515.641845703125 189.5787658691406 516.0315551757812 C 189.0759124755859 517.423828125 188.3249816894531 519.5028686523438 187.2912902832031 521.5933227539062 C 187.3977203369141 522.0994873046875 187.3835601806641 522.6296997070312 187.2395935058594 523.134765625 C 186.8168334960938 524.6251831054688 185.7013854980469 527.35546875 183.9460601806641 530.154052734375 C 181.8033752441406 533.5702514648438 179.4881896972656 535.8430786132812 177.0648498535156 536.9093017578125 C 175.8914184570312 537.4258422851562 174.7398681640625 537.6878051757812 173.6426086425781 537.6878051757812 C 173.0114898681641 537.6878051757812 172.4039001464844 537.6015014648438 171.8311767578125 537.4351806640625 C 171.9995727539062 538.3985595703125 171.7188873291016 539.3988037109375 171.0401000976562 540.1300659179688 C 171.038330078125 540.1320190429688 171.0365600585938 540.1338500976562 171.0347900390625 540.1357421875 C 170.3180389404297 540.9039306640625 168.8602294921875 542.3939208984375 167.150146484375 543.741943359375 C 164.6055145263672 545.7479248046875 162.4129028320312 546.7230224609375 160.4470520019531 546.7230224609375 C 160.2210083007812 546.7230224609375 159.9956817626953 546.7098999023438 159.7759552001953 546.6839599609375 L 157.0847320556641 549.007568359375 C 157.4736938476562 549.3935546875 157.7754211425781 549.8724365234375 157.95361328125 550.4181518554688 C 158.4344482421875 551.8906860351562 157.9046173095703 553.5036010742188 156.6351776123047 554.431640625 L 149.6472930908203 559.537353515625 C 148.5291748046875 560.35400390625 147.1644592285156 560.8035278320312 145.8040924072266 560.8035278320312 C 145.15771484375 560.8035278320312 144.5237121582031 560.7039794921875 143.9196929931641 560.5076904296875 C 143.8828277587891 560.4956665039062 143.84619140625 560.4834594726562 143.8097076416016 560.4710693359375 L 140.1613159179688 563.621337890625 C 140.2748565673828 563.7872924804688 140.3735961914062 563.965576171875 140.4553527832031 564.15478515625 C 140.9537506103516 565.3084716796875 140.7206573486328 566.6459350585938 139.8620300292969 567.5663452148438 L 139.8620300292969 567.5663452148438 C 138.9592895507812 568.5346069335938 137.1279907226562 570.4193115234375 135.0060119628906 572.1627807617188 C 131.9422607421875 574.6801147460938 129.3923797607422 575.9756469726562 127.2106628417969 576.12353515625 C 127.0014953613281 576.1377563476562 126.7924957275391 576.14501953125 126.5907745361328 576.14501953125 C 126.2894287109375 576.14501953125 125.9968414306641 576.12890625 125.7136383056641 576.0968017578125 L 117.9274749755859 582.8194580078125 L 116.5175018310547 590.0092163085938 L 131.6904754638672 581.298828125 C 132.1262969970703 579.1630859375 133.7115020751953 576.801025390625 136.5341796875 574.080322265625 C 138.5128784179688 572.173095703125 140.5949554443359 570.573486328125 141.6599578857422 569.7897338867188 C 142.2105712890625 569.38525390625 142.8587188720703 569.1721801757812 143.5362701416016 569.1721801757812 C 144.5950622558594 569.1721801757812 145.5779724121094 569.69921875 146.1656036376953 570.5819091796875 C 146.5856475830078 571.212890625 146.7596893310547 571.9614868164062 146.6752166748047 572.6958618164062 L 155.8352508544922 567.436767578125 C 156.2717590332031 565.328369140625 157.8143005371094 562.9797973632812 160.5437164306641 560.2677612304688 C 162.4947509765625 558.3292236328125 164.5508728027344 556.6998901367188 165.6028442382812 555.9011840820312 C 166.1513977050781 555.484619140625 166.8307800292969 555.2552490234375 167.5164184570312 555.2552490234375 C 168.5681457519531 555.2552490234375 169.5474395751953 555.77685546875 170.135986328125 556.6505737304688 C 170.5937042236328 557.3300170898438 170.7648315429688 558.1499633789062 170.6319122314453 558.9418334960938 L 172.3382263183594 557.9622802734375 C 172.226806640625 557.5665283203125 172.1550903320312 557.1581420898438 172.1251983642578 556.7408447265625 C 172.028076171875 555.38525390625 172.3406066894531 553.3121337890625 174.3811798095703 551.1340942382812 C 176.0647277832031 549.3361206054688 178.6968688964844 547.9739990234375 182.2039184570312 547.0863037109375 C 184.5897827148438 546.4823608398438 187.361328125 546.121826171875 189.6177978515625 546.121826171875 C 190.00537109375 546.121826171875 190.3646850585938 546.1332397460938 190.6857757568359 546.1558227539062 C 190.6884002685547 546.156005859375 190.6910400390625 546.1561889648438 190.6936645507812 546.1563720703125 C 191.2217407226562 546.1948852539062 191.7180480957031 546.3619384765625 192.1491851806641 546.6295166015625 C 194.4332580566406 546.364013671875 196.6064758300781 546.3594970703125 198.0646057128906 546.3565063476562 C 198.4755554199219 546.3556518554688 198.8304595947266 546.3549194335938 199.0701599121094 546.347900390625 C 199.1012268066406 546.3470458984375 199.1324462890625 546.3465576171875 199.1632080078125 546.3465576171875 C 199.9386291503906 546.3465576171875 200.6689453125 546.6318969726562 201.2358703613281 547.1185913085938 C 202.3524169921875 547.375 203.2901611328125 548.1430053710938 203.7384643554688 549.2180786132812 C 204.0800476074219 550.0372314453125 204.095703125 550.9373779296875 203.8181762695312 551.761962890625 C 203.92578125 552.503662109375 203.7720947265625 553.2710571289062 203.3610382080078 553.9223022460938 C 203.2334594726562 554.1248779296875 203.0511474609375 554.43212890625 202.8400268554688 554.7879638671875 C 202.0872497558594 556.0567016601562 200.9640197753906 557.9498291015625 199.5613098144531 559.802001953125 C 199.5720367431641 560.3145751953125 199.4591064453125 560.8297729492188 199.2205963134766 561.3067626953125 C 198.5264587402344 562.6915893554688 196.918701171875 565.1632080078125 194.6678771972656 567.5794677734375 C 191.9225463867188 570.5264892578125 189.2215270996094 572.3167724609375 186.6397552490234 572.9005737304688 C 185.9242401123047 573.0621948242188 185.2265930175781 573.1441040039062 184.5656127929688 573.1441040039062 C 183.419189453125 573.1441040039062 182.3450622558594 572.8944702148438 181.4129333496094 572.4163208007812 C 181.3922119140625 573.3878784179688 180.9296875 574.3189086914062 180.1274566650391 574.906494140625 C 180.1250152587891 574.9082641601562 180.1225891113281 574.9100341796875 180.1201477050781 574.9118041992188 C 179.3637084960938 575.4622802734375 177.8320007324219 576.5274658203125 176.0725708007812 577.4761352539062 C 173.5826568603516 578.818603515625 171.5082397460938 579.4712524414062 169.7307586669922 579.4712524414062 C 169.0586547851562 579.4712524414062 168.4212799072266 579.3760986328125 167.8345642089844 579.1883544921875 L 164.7746887207031 580.9453735351562 C 165.0647125244141 581.3707885742188 165.2640075683594 581.8643798828125 165.3473358154297 582.4015502929688 C 165.5924072265625 583.9813232421875 164.7705383300781 585.5054321289062 163.3022155761719 586.194091796875 L 155.4900207519531 589.8684692382812 C 154.6175537109375 590.2781982421875 153.6515502929688 590.4943237304688 152.69482421875 590.4943237304688 C 151.6295166015625 590.4943237304688 150.587646484375 590.228759765625 149.6819000244141 589.726318359375 C 149.6476898193359 589.7073364257812 149.6137237548828 589.6881713867188 149.5799713134766 589.6688842773438 L 145.4231262207031 592.055419921875 C 145.4636383056641 592.1484985351562 145.4999542236328 592.2442016601562 145.5318756103516 592.3423461914062 C 145.9565582275391 593.6480712890625 145.4945831298828 595.0689697265625 144.3822937011719 595.8781127929688 C 143.3885345458984 596.6021728515625 141.3780517578125 598.0078125 139.0979766845703 599.273193359375 C 135.8966827392578 601.0498046875 133.32421875 601.9135131835938 131.233642578125 601.9135131835938 C 130.9326934814453 601.9135131835938 130.6364135742188 601.8954467773438 130.3530120849609 601.8598022460938 C 129.8322906494141 601.7943725585938 129.3443603515625 601.6898803710938 128.8908233642578 601.547119140625 L 112.3981475830078 611.0152587890625 L 108.7616729736328 629.561279296875 C 108.4046936035156 631.3699951171875 106.7998199462891 632.68017578125 104.9448699951172 632.68017578125 C 104.685302734375 632.68017578125 104.4242706298828 632.6541748046875 104.1690368652344 632.60302734375 L 96.06925964355469 630.97607421875 C 93.95988464355469 630.5496215820312 92.58181762695312 628.5050048828125 92.99371337890625 626.4176025390625 L 93.93540954589844 621.6148681640625 L 83.9395751953125 627.3539428710938 C 83.359375 627.6861572265625 82.70249938964844 627.8609008789062 82.03697204589844 627.8609008789062 C 80.63119506835938 627.8609008789062 79.32579040527344 627.0906982421875 78.63017272949219 625.850830078125 L 74.55635070800781 618.5810546875 C 73.50909423828125 616.7144165039062 74.14761352539062 614.3369140625 75.98049926757812 613.2825927734375 L 81.46539306640625 610.1336669921875 C 81.25941467285156 609.9705200195312 81.06817626953125 609.78564453125 80.89509582519531 609.58056640625 L 75.53526306152344 603.221435546875 C 74.88449096679688 602.4484252929688 74.55580139160156 601.4715576171875 74.60855102539062 600.4692993164062 C 74.66361999511719 599.4232788085938 75.14619445800781 598.43310546875 75.93255615234375 597.752685546875 L 103.2390594482422 574.1738891601562 L 105.4662322998047 562.8141479492188 C 104.1523284912109 561.0885009765625 103.4193420410156 558.3311767578125 103.2283172607422 554.3912963867188 C 103.0946350097656 551.6336059570312 103.2580413818359 548.9956665039062 103.3673400878906 547.6686401367188 C 103.3675384521484 547.6661987304688 103.3677368164062 547.663818359375 103.3679504394531 547.661376953125 C 103.4374389648438 546.8421020507812 103.813720703125 546.0928955078125 104.427490234375 545.5517578125 C 105.0046997070312 545.0428466796875 105.7467498779297 544.7625732421875 106.5169830322266 544.7625732421875 C 107.4048156738281 544.7625732421875 108.2256317138672 545.1258544921875 108.8129272460938 545.7486572265625 L 110.8705444335938 535.255126953125 C 109.5752868652344 533.538818359375 108.8261871337891 530.82470703125 108.5811614990234 526.9671020507812 C 108.4061737060547 524.21240234375 108.5302581787109 521.5739135742188 108.6197814941406 520.2462768554688 C 108.7303924560547 518.591064453125 110.1154632568359 517.2930908203125 111.7729034423828 517.2930908203125 C 112.7145080566406 517.2930908203125 113.5833740234375 517.7039794921875 114.1759185791016 518.4000854492188 L 114.5643157958984 516.4196166992188 C 113.9559020996094 516.1321411132812 113.3965148925781 515.743408203125 112.9082183837891 515.2623901367188 C 111.7048950195312 514.0770263671875 110.9917907714844 512.4393920898438 110.7887115478516 510.39501953125 C 110.5259246826172 507.74755859375 111.3530578613281 504.6034545898438 113.2471618652344 501.0498657226562 C 114.8049774169922 498.1271362304688 116.6177520751953 495.8048706054688 117.6967620849609 494.7042236328125 C 118.0674133300781 494.3258056640625 118.5154876708984 494.0508422851562 119.0065765380859 493.8939819335938 C 120.2999267578125 491.9691772460938 121.7183532714844 490.2982177734375 122.6693725585938 489.1779174804688 C 122.9374694824219 488.862060546875 123.1690216064453 488.5892944335938 123.3208618164062 488.400390625 C 123.3227996826172 488.3980102539062 123.3247222900391 488.3955688476562 123.32666015625 488.3931884765625 C 123.8257446289062 487.7761840820312 124.5255737304688 487.3756103515625 125.29736328125 487.2528686523438 C 125.9082794189453 486.7931518554688 126.6516876220703 486.5355224609375 127.444580078125 486.5355224609375 Z M 124.6650085449219 555.672119140625 C 124.6717376708984 555.0982666015625 124.7541198730469 554.49365234375 124.9134063720703 553.8549194335938 C 124.5039367675781 554.1396484375 124.0606536865234 554.3748779296875 123.5908355712891 554.5524291992188 C 123.5478210449219 554.5687255859375 123.5048065185547 554.5846557617188 123.4618530273438 554.6002197265625 L 122.9634552001953 557.141357421875 L 124.6650085449219 555.672119140625 Z M 98.05470275878906 600.6095581054688 L 98.20327758789062 599.8519287109375 L 95.87997436523438 601.8580932617188 L 98.05470275878906 600.6095581054688 Z" stroke="none" fill="#000"/>
      </g>
      <g id="Group_1460" data-name="Group 1460" transform="translate(79.474 513.179)">
        <path id="Path_3850" data-name="Path 3850" d="M178.9,523.174c-1.375-1.471-2.7-2.986-4.012-4.517l-4.518,2.053a12.875,12.875,0,0,0-3.027,1.926L79.671,597.423a.864.864,0,0,0-.065,1.219l5.222,6.121a.865.865,0,0,0,1.215.128L173.708,530.1a12.846,12.846,0,0,0,2.378-2.687Z" transform="translate(-79.386 -512.088)" fill="#9ad052"/>
        <path id="Path_3851" data-name="Path 3851" d="M172.024,517.787l9.671-4.977c.667-.343,1.206.278.782.9l-6,8.852a4.793,4.793,0,0,1-3.22,2.089c-1.659.217-3.693-.041-3.913-2.525A4.743,4.743,0,0,1,172.024,517.787Z" transform="translate(-76.017 -512.31)" fill="#96a961"/>
        <path id="Path_3852" data-name="Path 3852" d="M172.267,521.56l8.623-8.9a.211.211,0,0,0-.2-.329c-2.245.5-10.591,1.654-12.769,5.545-1.3,2.33-.148,3.9,1.242,4.443A2.708,2.708,0,0,0,172.267,521.56Z" transform="translate(-76.091 -512.325)" fill="#a5ba6c"/>
        <path id="Path_3853" data-name="Path 3853" d="M172.247,521.615,182.4,514.5a.211.211,0,0,1,.293.25c-.848,2.138-3.3,10.2-7.487,11.735-2.507.92-3.872-.467-4.193-1.926A2.713,2.713,0,0,1,172.247,521.615Z" transform="translate(-75.956 -512.244)" fill="#a5ba6c"/>
        <path id="Path_3854" data-name="Path 3854" d="M170.8,519.239l7.714-3.832a.509.509,0,0,1,.658.762l-4.635,7.107a3.577,3.577,0,0,1-2.557,1.631c-1.338.135-3-.129-3.237-2.172A3.616,3.616,0,0,1,170.8,519.239Z" transform="translate(-76.04 -512.212)" fill="#b0c673"/>
        <path id="Path_3855" data-name="Path 3855" d="M169.837,524.332l6.15-8.831a.2.2,0,0,0-.159-.336c-2.206.268-8.275,2.11-10.25,5.2-1.4,2.188-.553,3.751.723,4.413A3.4,3.4,0,0,0,169.837,524.332Z" transform="translate(-76.184 -512.219)" fill="#bbd37b"/>
        <path id="Path_3856" data-name="Path 3856" d="M165.3,524.934l7.541-10.83a.249.249,0,0,0-.193-.413c-2.706.329-10.149,2.587-12.571,6.379-1.713,2.684-.679,4.6.886,5.412A4.168,4.168,0,0,0,165.3,524.934Z" transform="translate(-76.396 -512.274)" fill="#d1e095"/>
        <path id="Path_3857" data-name="Path 3857" d="M169.065,523.429l9.69-4.681a.2.2,0,0,1,.307.208c-.612,2.137-3.387,7.84-6.752,9.3-2.381,1.035-3.792-.045-4.244-1.409A3.4,3.4,0,0,1,169.065,523.429Z" transform="translate(-76.069 -512.086)" fill="#bbd37b"/>
        <path id="Path_3858" data-name="Path 3858" d="M167.887,527.966l11.882-5.741a.25.25,0,0,1,.378.256c-.751,2.621-4.155,9.614-8.281,11.408-2.919,1.27-4.65-.055-5.2-1.727A4.164,4.164,0,0,1,167.887,527.966Z" transform="translate(-76.123 -511.956)" fill="#d1e095"/>
        <path id="Path_3859" data-name="Path 3859" d="M162.635,525.175l10.966-5.45a.724.724,0,0,1,.935,1.083l-6.589,10.1a5.087,5.087,0,0,1-3.636,2.319c-1.9.192-4.258-.184-4.6-3.09A5.139,5.139,0,0,1,162.635,525.175Z" transform="translate(-76.378 -512.052)" fill="#d1e095"/>
        <g id="Group_1459" data-name="Group 1459" transform="translate(45.205 14.256)">
          <path id="Path_3860" data-name="Path 3860" d="M143.522,549.6l8.526-.529a.539.539,0,0,1,.344,1l-6.809,4.914a3.36,3.36,0,0,1-2.953.52c-1.294-.416-2.743-1.343-2.251-3.4A3.436,3.436,0,0,1,143.522,549.6Z" transform="translate(-122.31 -525.205)" fill="#c6e582"/>
          <path id="Path_3861" data-name="Path 3861" d="M150.8,537.469l2.206-11.209a.157.157,0,0,0-.271-.14c-1.446,1.595-6.537,7.456-6.494,10.917.031,2.448,1.365,3.026,2.584,2.687A2.885,2.885,0,0,0,150.8,537.469Z" transform="translate(-122.087 -526.066)" fill="#c6e582"/>
          <path id="Path_3862" data-name="Path 3862" d="M125.1,565.4l11.024-3.084a.157.157,0,0,1,.161.258c-1.477,1.564-6.926,7.093-10.387,7.325-2.449.165-3.134-1.116-2.892-2.356A2.885,2.885,0,0,1,125.1,565.4Z" transform="translate(-122.959 -524.708)" fill="#c6e582"/>
          <path id="Path_3863" data-name="Path 3863" d="M130.958,554.381l2.381-11.177a.157.157,0,0,0-.269-.143c-1.471,1.574-6.652,7.361-6.664,10.822-.008,2.448,1.318,3.046,2.542,2.724A2.889,2.889,0,0,0,130.958,554.381Z" transform="translate(-122.83 -525.431)" fill="#c6e582"/>
          <path id="Path_3864" data-name="Path 3864" d="M156.285,537.945l9.059-1.108a.177.177,0,0,1,.134.283c-1.213,1.283-5.684,5.779-8.53,5.4-2.014-.268-2.579-1.651-2.383-2.83A2.01,2.01,0,0,1,156.285,537.945Z" transform="translate(-121.776 -525.663)" fill="#c6e582"/>
        </g>
      </g>
      <g id="Group_1462" data-name="Group 1462" transform="translate(78.934 549.513)">
        <path id="Path_3865" data-name="Path 3865" d="M190.761,557.3c-1.072-1.7-2.09-3.443-3.085-5.195l-4.824,1.162a12.862,12.862,0,0,0-3.338,1.318L79.282,611.44a.863.863,0,0,0-.295,1.185l3.969,7a.864.864,0,0,0,1.168.356l100.232-56.851a12.875,12.875,0,0,0,2.843-2.189Z" transform="translate(-78.866 -547.169)" fill="#9ad052"/>
        <path id="Path_3866" data-name="Path 3866" d="M184.554,551.281l10.438-3.056c.721-.212,1.132.5.6,1.035l-7.564,7.557a4.793,4.793,0,0,1-3.557,1.442c-1.669-.1-3.619-.739-3.364-3.22A4.744,4.744,0,0,1,184.554,551.281Z" transform="translate(-75.037 -547.316)" fill="#96a961"/>
        <path id="Path_3867" data-name="Path 3867" d="M184.067,555.028l10.152-7.111a.211.211,0,0,0-.135-.361c-2.3.066-10.714-.38-13.588,3.029-1.72,2.042-.883,3.8.379,4.6A2.712,2.712,0,0,0,184.067,555.028Z" transform="translate(-75.096 -547.339)" fill="#a5ba6c"/>
        <path id="Path_3868" data-name="Path 3868" d="M184.052,555.09l11.312-5.064a.21.21,0,0,1,.24.3c-1.237,1.939-5.172,9.39-9.573,10.107-2.635.429-3.713-1.192-3.752-2.685A2.708,2.708,0,0,1,184.052,555.09Z" transform="translate(-74.993 -547.247)" fill="#a5ba6c"/>
        <path id="Path_3869" data-name="Path 3869" d="M183.062,552.493l8.3-2.3a.508.508,0,0,1,.5.871l-5.895,6.1a3.581,3.581,0,0,1-2.82,1.117c-1.34-.12-2.917-.694-2.768-2.746A3.615,3.615,0,0,1,183.062,552.493Z" transform="translate(-75.064 -547.242)" fill="#b0c673"/>
        <path id="Path_3870" data-name="Path 3870" d="M181.156,557.307l7.709-7.508a.2.2,0,0,0-.091-.361c-2.217-.154-8.526.506-11.049,3.169-1.786,1.884-1.253,3.579-.126,4.47A3.4,3.4,0,0,0,181.156,557.307Z" transform="translate(-75.207 -547.27)" fill="#bbd37b"/>
        <path id="Path_3871" data-name="Path 3871" d="M176.6,557.022l9.454-9.207a.249.249,0,0,0-.112-.442c-2.719-.189-10.454.621-13.55,3.886-2.19,2.31-1.536,4.39-.154,5.482A4.165,4.165,0,0,0,176.6,557.022Z" transform="translate(-75.416 -547.347)" fill="#d1e095"/>
        <path id="Path_3872" data-name="Path 3872" d="M180.569,556.273l10.4-2.764a.2.2,0,0,1,.262.264c-1.005,1.983-4.81,7.058-8.391,7.858-2.533.565-3.715-.761-3.9-2.187A3.4,3.4,0,0,1,180.569,556.273Z" transform="translate(-75.118 -547.117)" fill="#bbd37b"/>
        <path id="Path_3873" data-name="Path 3873" d="M178.565,560.488,191.32,557.1a.249.249,0,0,1,.322.324c-1.232,2.43-5.9,8.655-10.29,9.635-3.106.694-4.555-.934-4.784-2.682A4.165,4.165,0,0,1,178.565,560.488Z" transform="translate(-75.207 -546.983)" fill="#d1e095"/>
        <path id="Path_3874" data-name="Path 3874" d="M173.944,556.749l11.8-3.276a.723.723,0,0,1,.713,1.24l-8.382,8.675a5.086,5.086,0,0,1-4.009,1.588c-1.906-.171-4.147-.986-3.935-3.9A5.138,5.138,0,0,1,173.944,556.749Z" transform="translate(-75.448 -547.119)" fill="#d1e095"/>
        <g id="Group_1461" data-name="Group 1461" transform="translate(49.743 8.793)">
          <path id="Path_3875" data-name="Path 3875" d="M150.512,577.169l8.472,1.093a.539.539,0,0,1,.15,1.044l-7.615,3.538a3.365,3.365,0,0,1-3-.048c-1.192-.654-2.44-1.838-1.569-3.762A3.437,3.437,0,0,1,150.512,577.169Z" transform="translate(-126.07 -555.024)" fill="#c6e582"/>
          <path id="Path_3876" data-name="Path 3876" d="M160.006,566.633l4.286-10.589a.156.156,0,0,0-.239-.188c-1.722,1.292-7.831,6.085-8.443,9.491-.434,2.41.768,3.231,2.029,3.128A2.889,2.889,0,0,0,160.006,566.633Z" transform="translate(-125.738 -555.822)" fill="#c6e582"/>
          <path id="Path_3877" data-name="Path 3877" d="M129.445,589.153l11.408-.943a.157.157,0,0,1,.11.284c-1.747,1.256-8.143,5.654-11.586,5.228-2.436-.3-2.865-1.689-2.394-2.86A2.884,2.884,0,0,1,129.445,589.153Z" transform="translate(-126.813 -554.609)" fill="#c6e582"/>
          <path id="Path_3878" data-name="Path 3878" d="M137.321,579.485l4.452-10.524a.156.156,0,0,0-.235-.192c-1.742,1.267-7.925,5.969-8.591,9.365-.471,2.4.718,3.24,1.981,3.156A2.888,2.888,0,0,0,137.321,579.485Z" transform="translate(-126.588 -555.339)" fill="#c6e582"/>
          <path id="Path_3879" data-name="Path 3879" d="M165.246,568.133l9.106.626a.177.177,0,0,1,.077.3c-1.433,1.031-6.674,4.6-9.4,3.69-1.927-.644-2.22-2.109-1.8-3.23A2.008,2.008,0,0,1,165.246,568.133Z" transform="translate(-125.456 -555.361)" fill="#c6e582"/>
        </g>
      </g>
      <g id="Group_1464" data-name="Group 1464" transform="translate(95.541 489.619)">
        <path id="Path_3880" data-name="Path 3880" d="M127.932,502.228c-2.066-.314-4.122-.693-6.173-1.1l-2.358,4.578a13.39,13.39,0,0,0-1.227,3.515L94.89,626.524a.9.9,0,0,0,.731,1.034l8.19,1.626a.9.9,0,0,0,1.071-.676l23.284-117.3a13.373,13.373,0,0,0,.209-3.718Z" transform="translate(-94.873 -489.185)" fill="#9ad052"/>
        <path id="Path_3881" data-name="Path 3881" d="M120.528,500.342l4.675-10.274a.622.622,0,0,1,1.218.233l.81,11.067a4.972,4.972,0,0,1-1.278,3.773c-1.212,1.243-3.035,2.342-4.812.46A4.921,4.921,0,0,1,120.528,500.342Z" transform="translate(-93.93 -489.616)" fill="#96a961"/>
        <path id="Path_3882" data-name="Path 3882" d="M123.19,503.272l1.295-12.8a.219.219,0,0,0-.375-.139c-1.506,1.852-7.561,8.161-6.831,12.731.437,2.736,2.385,3.268,3.87,2.82A2.813,2.813,0,0,0,123.19,503.272Z" transform="translate(-94.036 -489.592)" fill="#a5ba6c"/>
        <path id="Path_3883" data-name="Path 3883" d="M123.156,503.285l3.69-12.321a.219.219,0,0,1,.4.015c.686,2.287,3.872,10.431,1.451,14.374-1.449,2.361-3.454,2.11-4.654,1.129A2.813,2.813,0,0,1,123.156,503.285Z" transform="translate(-93.821 -489.57)" fill="#a5ba6c"/>
        <path id="Path_3884" data-name="Path 3884" d="M120.506,502.252l3.816-8.084a.529.529,0,0,1,1.026.2l.8,8.769a3.709,3.709,0,0,1-1.033,2.973c-1,.971-2.522,1.822-4.035.313A3.753,3.753,0,0,1,120.506,502.252Z" transform="translate(-93.927 -489.459)" fill="#b0c673"/>
        <path id="Path_3885" data-name="Path 3885" d="M123,507.036l-.672-11.148a.211.211,0,0,0-.345-.172c-1.625,1.637-5.382,7.042-5,10.83.27,2.681,1.964,3.411,3.428,3.13A3.525,3.525,0,0,0,123,507.036Z" transform="translate(-94.046 -489.39)" fill="#bbd37b"/>
        <path id="Path_3886" data-name="Path 3886" d="M119.659,510.5l-.825-13.671a.259.259,0,0,0-.423-.212c-1.992,2.008-6.6,8.636-6.133,13.282.331,3.288,2.408,4.183,4.2,3.838A4.323,4.323,0,0,0,119.659,510.5Z" transform="translate(-94.223 -489.356)" fill="#d1e095"/>
        <path id="Path_3887" data-name="Path 3887" d="M121.788,506.8l4.88-10.046a.211.211,0,0,1,.385-.027c.876,2.134,2.284,8.564.486,11.919-1.273,2.375-3.118,2.4-4.364,1.583A3.528,3.528,0,0,1,121.788,506.8Z" transform="translate(-93.868 -489.354)" fill="#bbd37b"/>
        <path id="Path_3888" data-name="Path 3888" d="M123.715,511.306l5.983-12.32a.26.26,0,0,1,.473-.033c1.074,2.617,2.8,10.5.594,14.617-1.56,2.912-3.822,2.947-5.35,1.941A4.322,4.322,0,0,1,123.715,511.306Z" transform="translate(-93.796 -489.272)" fill="#d1e095"/>
        <path id="Path_3889" data-name="Path 3889" d="M117.619,512.437l5.425-11.492a.751.751,0,0,1,1.458.28l1.134,12.468a5.277,5.277,0,0,1-1.47,4.227c-1.427,1.381-3.585,2.589-5.735.445A5.334,5.334,0,0,1,117.619,512.437Z" transform="translate(-94.042 -489.211)" fill="#d1e095"/>
        <g id="Group_1463" data-name="Group 1463" transform="translate(10.374 30.73)">
          <path id="Path_3890" data-name="Path 3890" d="M117.9,544.561l6.6-5.916a.56.56,0,0,1,.922.59l-2.383,8.382a3.489,3.489,0,0,1-2.071,2.323c-1.322.494-3.1.672-4.019-1.318A3.567,3.567,0,0,1,117.9,544.561Z" transform="translate(-104.431 -518.516)" fill="#c6e582"/>
          <path id="Path_3891" data-name="Path 3891" d="M115.9,529.877l-5.414-10.547a.163.163,0,0,0-.31.06c-.151,2.229-.527,10.277,1.734,13.068,1.6,1.974,3.059,1.587,3.833.526A2.994,2.994,0,0,0,115.9,529.877Z" transform="translate(-104.678 -519.237)" fill="#c6e582"/>
          <path id="Path_3892" data-name="Path 3892" d="M110.615,556.418l-5.252-10.632a.162.162,0,0,0-.31.055c-.186,2.227-.684,10.274,1.534,13.1,1.569,2,3.032,1.633,3.822.583A3,3,0,0,0,110.615,556.418Z" transform="translate(-104.873 -518.246)" fill="#c6e582"/>
          <path id="Path_3893" data-name="Path 3893" d="M120.8,526.836l6.666-6.731a.183.183,0,0,1,.289.145c-.161,1.825-.911,8.362-3.471,9.885-1.812,1.078-3.162.315-3.761-.772A2.083,2.083,0,0,1,120.8,526.836Z" transform="translate(-104.297 -519.205)" fill="#c6e582"/>
        </g>
      </g>
      <g id="Path_3894" data-name="Path 3894" transform="translate(0.668 0.002)" fill="none" stroke-linecap="round" stroke-linejoin="round">
        <path d="M131.248,499.278a.259.259,0,0,0-.472.034l-.234.481a46.675,46.675,0,0,0-2.244-8.787.219.219,0,0,0-.4-.016l-.387,1.294-.147-2a.622.622,0,0,0-1.218-.233l-1,2.207.179-1.777a.218.218,0,0,0-.375-.138,46.787,46.787,0,0,0-5.43,7.264l-.032-.534a.259.259,0,0,0-.423-.212c-1.992,2.008-6.6,8.636-6.133,13.282.331,3.287,2.407,4.183,4.2,3.838.063-.012.127-.039.19-.056l-2.678,13.494-3.592-7a.163.163,0,0,0-.31.06c-.151,2.228-.527,10.277,1.734,13.068a5.07,5.07,0,0,0,.795.785L109.2,554.866l-3.457-7a.162.162,0,0,0-.31.056c-.187,2.227-.684,10.274,1.533,13.1a4.949,4.949,0,0,0,.843.846L94.89,626.935a.9.9,0,0,0,.731,1.035l8.19,1.626a.9.9,0,0,0,1.071-.677l15.254-76.847a4.593,4.593,0,0,0,1.647-.32,3.489,3.489,0,0,0,2.071-2.323l2.383-8.383a.56.56,0,0,0-.922-.589l-3.494,3.131,2.362-11.9a3.7,3.7,0,0,0,1.053-.428c2.56-1.523,3.311-8.061,3.471-9.886a.182.182,0,0,0-.289-.144l-2.7,2.726,1.535-7.735c1.455.539,3.272.138,4.591-2.323C134.05,509.78,132.322,501.9,131.248,499.278Z" stroke="none"/>
        <path d="M 126.7526397705078 489.5968627929688 C 126.5240478515625 489.5968627929688 126.2864227294922 489.7408447265625 126.1461715698242 490.04931640625 L 125.1419219970703 492.2559814453125 L 125.3213882446289 490.4788208007812 C 125.3286437988281 490.2972412109375 125.0620346069336 490.1987915039062 124.9468612670898 490.3408203125 C 123.9975891113281 491.5079956054688 121.2421035766602 494.4471435546875 119.5167922973633 497.6051025390625 L 119.4846496582031 497.07080078125 C 119.5136795043945 496.8560791015625 119.2138748168945 496.7056274414062 119.0613555908203 496.8592529296875 C 117.0694274902344 498.86767578125 112.4610290527344 505.4949951171875 112.9279022216797 510.1407470703125 C 113.2588500976562 513.427490234375 115.3347778320312 514.3235473632812 117.1316833496094 513.9783935546875 C 117.1949768066406 513.9659423828125 117.2582473754883 513.93896484375 117.3215408325195 513.92236328125 L 114.6438446044922 527.4166259765625 L 111.0521774291992 520.4209594726562 C 110.9743576049805 520.2684326171875 110.7544097900391 520.3099365234375 110.7419738769531 520.481201171875 C 110.5904998779297 522.7095947265625 110.2149353027344 530.7582397460938 112.4755554199219 533.5490112304688 C 112.746337890625 533.883056640625 113.0109024047852 534.1268310546875 113.270263671875 534.3343505859375 L 109.1951217651367 554.8656616210938 L 105.7383041381836 547.8670043945312 C 105.6625747680664 547.7134399414062 105.4415664672852 547.7528686523438 105.4281005859375 547.9230346679688 C 105.2413558959961 550.1504516601562 104.7444076538086 558.1969604492188 106.9614639282227 561.02197265625 C 107.2488479614258 561.3871459960938 107.5289535522461 561.6495971679688 107.8049163818359 561.8674926757812 L 94.88957214355469 626.9349365234375 C 94.79518127441406 627.4080200195312 95.12298583984375 627.8717651367188 95.62098693847656 627.9702758789062 L 103.8106994628906 629.5960083007812 C 104.3076324462891 629.694580078125 104.7879943847656 629.3916015625 104.8813552856445 628.9185180664062 L 120.1351165771484 552.07177734375 C 120.7027587890625 552.0814819335938 121.2763366699219 551.941162109375 121.7826080322266 551.7512817382812 C 122.7765045166016 551.3798217773438 123.5514831542969 550.49072265625 123.8533935546875 549.4283447265625 L 126.2364273071289 541.045654296875 C 126.4045104980469 540.4533081054688 125.7705917358398 540.0476684570312 125.3141174316406 540.4564208984375 L 121.819953918457 543.5874633789062 L 124.1822662353516 531.6857299804688 C 124.5132064819336 531.60693359375 124.8617935180664 531.479248046875 125.2352828979492 531.2572631835938 C 127.7957382202148 529.7342529296875 128.5458374023438 523.1961669921875 128.7066345214844 521.3712768554688 C 128.7190856933594 521.2313232421875 128.5137023925781 521.129638671875 128.4171752929688 521.2271118164062 L 125.7166442871094 523.9535522460938 L 127.2520980834961 516.21826171875 C 128.7066650390625 516.7578125 130.5242614746094 516.356201171875 131.8428649902344 513.8953857421875 C 134.0495300292969 509.77978515625 132.3221740722656 501.89501953125 131.2483825683594 499.277587890625 C 131.1654052734375 499.0773315429688 130.8303070068359 499.1021118164062 130.7763519287109 499.311767578125 L 130.5419006347656 499.7930908203125 C 130.1538848876953 496.2159423828125 128.7304992675781 492.4468994140625 128.2978668212891 491.005859375 C 128.2460174560547 490.83056640625 127.9617233276367 490.8202514648438 127.8984451293945 490.9902954101562 L 127.5114669799805 492.2840576171875 L 127.3641357421875 490.28271484375 C 127.3318862915039 489.8405151367188 127.049919128418 489.5968627929688 126.7526397705078 489.5968627929688 M 126.7526473999023 488.5968627929688 C 127.5136489868164 488.5968627929688 128.1292724609375 489.1231689453125 128.3118591308594 489.88720703125 C 128.7601928710938 489.9655151367188 129.1264343261719 490.2814331054688 129.2568054199219 490.7222290039062 C 129.3328552246094 490.9755249023438 129.4481811523438 491.32568359375 129.5816955566406 491.7311401367188 C 130.0887298583984 493.2706298828125 130.8802795410156 495.674072265625 131.3194274902344 498.1746215820312 C 131.7011871337891 498.2650756835938 132.020263671875 498.5280151367188 132.1722259521484 498.8948364257812 C 132.7536010742188 500.3118896484375 133.4723358154297 503.0321044921875 133.7705230712891 505.9220581054688 C 134.0268859863281 508.4066162109375 134.0534362792969 511.8887329101562 132.7241821289062 514.367919921875 C 131.2971038818359 517.03125 129.3997955322266 517.428955078125 128.3958435058594 517.428955078125 C 128.2753601074219 517.428955078125 128.1548309326172 517.4236450195312 128.0344390869141 517.4130249023438 L 127.3444366455078 520.8890991210938 L 127.7067031860352 520.5233764648438 C 127.9201583862305 520.3076171875 128.2073364257812 520.1884765625 128.5148620605469 520.1884765625 C 128.8504791259766 520.1884765625 129.1738891601562 520.3316040039062 129.4021759033203 520.5810546875 C 129.6214904785156 520.8207397460938 129.7310180664062 521.1410522460938 129.7026977539062 521.4598388671875 C 129.6097106933594 522.5149536132812 129.3738250732422 524.596923828125 128.8393402099609 526.6763916015625 C 128.1042175292969 529.5364990234375 127.0925369262695 531.3160400390625 125.7464981079102 532.11669921875 C 125.5183868408203 532.2523193359375 125.2868804931641 532.3662109375 125.0480880737305 532.4600830078125 L 123.3842010498047 540.843017578125 L 124.6467742919922 539.711669921875 C 124.9499359130859 539.440185546875 125.3309707641602 539.2908325195312 125.7199401855469 539.2908325195312 C 126.1993713378906 539.2908325195312 126.6586074829102 539.519775390625 126.9484252929688 539.9032592773438 C 127.2495040893555 540.3016967773438 127.3406295776367 540.8175659179688 127.1984481811523 541.3186645507812 L 124.8152847290039 549.7017822265625 C 124.4203720092773 551.0914306640625 123.4175338745117 552.2078247070312 122.1327209472656 552.68798828125 C 121.7356567382812 552.8368530273438 121.3465881347656 552.9429321289062 120.9693069458008 553.00537109375 L 105.8622131347656 629.1131591796875 C 105.6906280517578 629.982666015625 104.9069519042969 630.6146240234375 103.9990310668945 630.6146240234375 C 103.8711013793945 630.6146240234375 103.742301940918 630.6019287109375 103.6162109375 630.576904296875 L 95.42628479003906 628.951171875 C 94.91487121582031 628.8499755859375 94.47508239746094 628.5581665039062 94.1885986328125 628.129638671875 C 93.91192626953125 627.7157592773438 93.81259155273438 627.221923828125 93.90890502929688 626.7392578125 L 106.7118148803711 562.2382202148438 C 106.5224380493164 562.0540161132812 106.3464736938477 561.8574829101562 106.1756286621094 561.6404418945312 C 105.0987396240234 560.2681884765625 104.4661407470703 557.7980346679688 104.2945556640625 554.29736328125 C 104.1599044799805 551.5501098632812 104.3455352783203 548.865966796875 104.4315948486328 547.8394775390625 C 104.479606628418 547.2323608398438 104.977424621582 546.77099609375 105.5891723632812 546.77099609375 C 106.0356063842773 546.77099609375 106.4364471435547 547.0215454101562 106.6352462768555 547.4248657226562 L 108.7875747680664 551.7824096679688 L 112.1774673461914 534.7035522460938 C 112.007698059082 534.5385131835938 111.8504180908203 534.3658447265625 111.6987380981445 534.1787719726562 C 110.6014099121094 532.8240966796875 109.9311370849609 530.3646240234375 109.706298828125 526.868408203125 C 109.5367584228516 524.2322998046875 109.6573181152344 521.692626953125 109.7442855834961 520.4133911132812 C 109.7894134521484 519.7919311523438 110.2877349853516 519.3267211914062 110.9037551879883 519.3267211914062 C 111.343376159668 519.3267211914062 111.7415542602539 519.5718383789062 111.9429016113281 519.9664306640625 L 114.2218933105469 524.4053344726562 L 116.0812454223633 515.0350952148438 C 114.2374954223633 514.895751953125 112.2693862915039 513.582275390625 111.9329376220703 510.2409057617188 C 111.7776794433594 508.696044921875 112.0436859130859 506.0187377929688 114.1925048828125 502.0361328125 C 115.572135925293 499.4791870117188 117.2753753662109 497.2399291992188 118.3513412475586 496.1550903320312 C 118.5812454223633 495.9236450195312 118.8882446289062 495.7964477539062 119.2163391113281 495.7964477539062 C 119.2838592529297 495.7964477539062 119.3507995605469 495.8018188476562 119.4166030883789 495.812255859375 C 120.7750701904297 493.6735229492188 122.4214630126953 491.75732421875 123.476188659668 490.52978515625 C 123.7574081420898 490.2025146484375 124.0002670288086 489.9198608398438 124.1710662841797 489.7098388671875 C 124.3955764770508 489.4328002929688 124.7329940795898 489.2730712890625 125.0956649780273 489.2730712890625 C 125.2053527832031 489.2730712890625 125.3139495849609 489.2877807617188 125.4185180664062 489.3159790039062 C 125.73681640625 488.8652954101562 126.2234268188477 488.5968627929688 126.7526473999023 488.5968627929688 Z" stroke="none" fill="#000"/>
      </g>
    </g>
  </g>
</svg>
