<svg xmlns="http://www.w3.org/2000/svg" width="196" height="196" viewBox="0 0 196 196">
  <g id="Group_1978" data-name="Group 1978" transform="translate(-315 -163)">
    <g id="Group_1955" data-name="Group 1955">
      <rect id="Rectangle_1132" data-name="Rectangle 1132" width="196" height="196" rx="5" transform="translate(315 163)" fill="#fff"/>
    </g>
    <g id="Group_1903" data-name="Group 1903" transform="translate(299.217 -374.434)">
      <g id="Group_1465" data-name="Group 1465" transform="translate(59 564.434)">
        <g id="Path_3849" data-name="Path 3849" transform="translate(-77.05 -489.536)" fill="none" stroke-linecap="round" stroke-linejoin="round">
          <path d="M203.977,553.727l-1.253.567,1.442-1.459c.564-.569.131-1.33-.629-1.105l-2.364.7,1.486-1.054a.225.225,0,0,0-.142-.385,46.972,46.972,0,0,0-9.193.652l.39-.384a.267.267,0,0,0-.118-.472c-2.868-.2-11.025.663-14.288,4.148-2.31,2.466-1.62,4.685-.163,5.851.052.042.115.073.171.111l-12.159,6.98,3-7.5a.165.165,0,0,0-.252-.2c-1.815,1.378-8.256,6.494-8.9,10.129a5.155,5.155,0,0,0-.077,1.146l-18.5,10.622,3.09-7.394a.166.166,0,0,0-.249-.2c-1.837,1.352-8.356,6.37-9.058,10a5.037,5.037,0,0,0-.091,1.224l-22.838,13.111,2.954-15.063,10.036-8.665a3.832,3.832,0,0,0,2.114.348c3.65-.247,9.4-6.149,10.953-7.819a.167.167,0,0,0-.169-.275l-5.844,1.656L145.2,558.738a4.67,4.67,0,0,0,1.515.791,3.512,3.512,0,0,0,3.114-.554l7.179-5.246a.576.576,0,0,0-.363-1.064l-4.759.3,9.38-8.1a3.734,3.734,0,0,0,1.11.325c3,.4,7.716-4.4,8.994-5.765a.189.189,0,0,0-.141-.3l-3.87.48,6.1-5.264c.82,1.362,2.522,2.2,5.123,1.052,4.351-1.915,7.94-9.38,8.732-12.177a.263.263,0,0,0-.4-.273l-.489.239a48.349,48.349,0,0,0,3.745-8.522.223.223,0,0,0-.308-.268l-1.125.8,1.144-1.709c.448-.668-.12-1.331-.824-.965l-2.191,1.141,1.262-1.32a.225.225,0,0,0-.211-.351,47.072,47.072,0,0,0-8.9,2.4l.31-.451a.267.267,0,0,0-.2-.441c-2.854.351-10.7,2.762-13.256,6.81-1.807,2.863-.715,4.91.935,5.777.059.031.126.049.188.076l-10.634,9.183,1.543-7.934a.165.165,0,0,0-.285-.149c-1.525,1.7-6.894,7.958-6.848,11.651a5.214,5.214,0,0,0,.139,1.14l-16.181,13.972,1.652-7.851a.166.166,0,0,0-.284-.153c-1.55,1.679-7.014,7.856-7.026,11.55a5.071,5.071,0,0,0,.14,1.219l-9.713,8.387,2.624-13.381a4.625,4.625,0,0,0,1.674-.331,3.574,3.574,0,0,0,2.1-2.389l2.421-8.621a.57.57,0,0,0-.937-.607l-3.551,3.22,2.4-12.241a3.733,3.733,0,0,0,1.07-.44c2.6-1.567,3.363-8.289,3.527-10.166a.187.187,0,0,0-.3-.149l-2.743,2.8,1.56-7.956c1.477.555,3.325.142,4.665-2.389,2.242-4.232.486-12.342-.6-15.033a.262.262,0,0,0-.48.034l-.238.5a48.6,48.6,0,0,0-2.28-9.038.222.222,0,0,0-.406-.016L129.6,492.3l-.149-2.06c-.059-.8-.91-.969-1.238-.24l-1.02,2.271.182-1.828A.222.222,0,0,0,127,490.3a48.121,48.121,0,0,0-5.518,7.471l-.032-.549a.263.263,0,0,0-.431-.217c-2.024,2.065-6.706,8.881-6.232,13.66.336,3.38,2.446,4.3,4.271,3.946.065-.013.128-.04.193-.057l-2.722,13.877-3.649-7.194a.165.165,0,0,0-.314.063c-.155,2.292-.536,10.569,1.761,13.439a5.2,5.2,0,0,0,.807.808l-4.14,21.115-3.511-7.2a.165.165,0,0,0-.317.058c-.189,2.291-.694,10.566,1.56,13.471a4.991,4.991,0,0,0,.856.87l-2.8,14.278L77.919,603.061a.931.931,0,0,0-.068,1.3l5.506,6.532a.9.9,0,0,0,1.28.136l18.892-16.313-2.142,10.92-23.9,13.72a.929.929,0,0,0-.311,1.265l4.185,7.468a.906.906,0,0,0,1.232.379l16.131-9.261L96.457,630.78a.921.921,0,0,0,.743,1.065l8.321,1.672a.912.912,0,0,0,1.088-.7l4.007-20.436,19.577-11.239a3.849,3.849,0,0,0,2.01.746c3.631.456,10.375-4.238,12.217-5.581a.167.167,0,0,0-.115-.3l-6.047.506,13.577-7.795a4.7,4.7,0,0,0,1.34,1.067,3.508,3.508,0,0,0,3.161.052l8.03-3.777a.577.577,0,0,0-.158-1.114l-4.728-.617,10.723-6.157a3.707,3.707,0,0,0,1.029.532c2.872.971,8.4-2.838,9.91-3.938a.189.189,0,0,0-.081-.323l-3.89-.271,6.977-4.005c.549,1.5,2.057,2.644,4.827,2.018,4.63-1.047,9.549-7.69,10.85-10.285a.265.265,0,0,0-.34-.344l-.526.141a48.061,48.061,0,0,0,5.27-7.651A.224.224,0,0,0,203.977,553.727Z" stroke="none"/>
          <path d="M 128.8309631347656 489.5355224609375 C 128.5986328125 489.5355224609375 128.357177734375 489.6836547851562 128.21484375 490.000732421875 L 127.1947021484375 492.2713623046875 L 127.3770141601562 490.443115234375 C 127.3833923339844 490.2566528320312 127.1137390136719 490.1553955078125 126.9964294433594 490.30029296875 C 126.0317077636719 491.5006103515625 123.2323913574219 494.5238037109375 121.4788208007812 497.7708740234375 L 121.4468231201172 497.2218017578125 C 121.4756164550781 497.001220703125 121.1707916259766 496.8467407226562 121.0161743164062 497.00439453125 C 118.9918212890625 499.0693359375 114.3099670410156 505.88525390625 114.7843322753906 510.6641845703125 C 115.1201171875 514.0443725585938 117.2308959960938 514.9655151367188 119.0558013916016 514.6104125976562 C 119.1208343505859 514.59765625 119.1837158203125 514.5699462890625 119.2487487792969 514.5529174804688 L 116.5272369384766 528.4300537109375 L 112.8783264160156 521.2356567382812 C 112.7994537353516 521.0789794921875 112.5755767822266 521.1226196289062 112.5638427734375 521.2985229492188 C 112.4092712402344 523.5904541015625 112.0276336669922 531.867919921875 114.3248901367188 534.7376098632812 C 114.5999145507812 535.0808715820312 114.8685302734375 535.3324584960938 115.1318206787109 535.5457153320312 L 110.9915008544922 556.6610107421875 L 107.4801025390625 549.46337890625 C 107.4022827148438 549.3056030273438 107.1784057617188 549.3450927734375 107.1634979248047 549.5209350585938 C 106.9748077392578 551.811767578125 106.4695129394531 560.0870971679688 108.7230529785156 562.991943359375 C 109.0140838623047 563.3682250976562 109.2986755371094 563.6380004882812 109.5790405273438 563.86181640625 L 106.7797241210938 578.1398315429688 L 77.9188232421875 603.060791015625 C 77.54678344726562 603.3826904296875 77.515869140625 603.9647827148438 77.85057067871094 604.3623657226562 L 83.35649108886719 610.8948364257812 C 83.69123840332031 611.2913818359375 84.26365661621094 611.3531494140625 84.63674926757812 611.0313110351562 L 103.5284271240234 594.7183227539062 L 101.3868408203125 605.638427734375 L 77.4881591796875 619.35888671875 C 77.06173706054688 619.6041259765625 76.92210388183594 620.170166015625 77.17686462402344 620.624267578125 L 81.36199951171875 628.0926513671875 C 81.61676025390625 628.5467529296875 82.16790771484375 628.7161865234375 82.59429931640625 628.4721069335938 L 98.72502136230469 619.2107543945312 L 96.45657348632812 630.780029296875 C 96.36062622070312 631.2661743164062 96.69322204589844 631.7426147460938 97.1995849609375 631.844970703125 L 105.5207824707031 633.5164794921875 C 106.0260620117188 633.6175537109375 106.5132293701172 633.3065185546875 106.6091613769531 632.8203735351562 L 110.6162719726562 612.3840942382812 L 130.1933746337891 601.1452026367188 C 130.6229705810547 601.501220703125 131.2711029052734 601.774169921875 132.2038421630859 601.8914184570312 C 135.8346405029297 602.3475952148438 142.5792388916016 597.6529541015625 144.4212799072266 596.3109130859375 C 144.56201171875 596.2085571289062 144.4794006347656 595.9950561523438 144.3061676025391 596.0081176757812 L 138.2587280273438 596.5145263671875 L 151.8353424072266 588.7198486328125 C 152.2052459716797 589.16650390625 152.6934509277344 589.5194091796875 153.1753082275391 589.7869873046875 C 154.1208190917969 590.3115234375 155.3190460205078 590.3168334960938 156.3359985351562 589.8392333984375 L 164.3661804199219 586.0623779296875 C 164.9343566894531 585.7958984375 164.8245391845703 585.0294189453125 164.2083892822266 584.9484252929688 L 159.480712890625 584.3311767578125 L 170.2035980224609 578.1739501953125 C 170.4850158691406 578.3796997070312 170.8133544921875 578.565185546875 171.2322845458984 578.7059326171875 C 174.1041259765625 579.6768798828125 179.6302490234375 575.8681640625 181.141845703125 574.7681274414062 C 181.2569580078125 574.683837890625 181.1994018554688 574.4547119140625 181.0608215332031 574.445068359375 L 177.1709747314453 574.1743774414062 L 184.14794921875 570.1693725585938 C 184.6969604492188 571.6649169921875 186.2053070068359 572.8129272460938 188.9748077392578 572.1873168945312 C 193.6044616699219 571.1405029296875 198.5240325927734 564.4971923828125 199.8245849609375 561.9024658203125 C 199.9237060546875 561.7042236328125 199.6827697753906 561.4600830078125 199.4845123291016 561.5581665039062 L 198.958984375 561.6989135742188 C 201.4534301757812 558.9933471679688 203.4073791503906 555.35302734375 204.2292633056641 554.0482177734375 C 204.3294677734375 553.889404296875 204.1493835449219 553.6622314453125 203.9766387939453 553.7273559570312 L 202.7240753173828 554.29443359375 L 204.1663818359375 552.8351440429688 C 204.7302856445312 552.265869140625 204.2975769042969 551.504638671875 203.5374298095703 551.7296752929688 L 201.1730651855469 552.4310913085938 L 202.6590576171875 551.3767700195312 C 202.8015747070312 551.2606811523438 202.7046508789062 550.991943359375 202.5225830078125 550.991943359375 C 202.5207977294922 550.991943359375 202.51904296875 550.991943359375 202.5172729492188 550.9920043945312 C 200.9886474609375 551.0368041992188 196.8994445800781 550.8661499023438 193.3240661621094 551.6444091796875 L 193.7142333984375 551.2606201171875 C 193.8986511230469 551.1390991210938 193.8155212402344 550.8043823242188 193.5959167480469 550.7883911132812 C 190.7283935546875 550.5867919921875 182.5713195800781 551.4513549804688 179.3083038330078 554.936279296875 C 176.9982604980469 557.40185546875 177.68798828125 559.6212768554688 179.1452331542969 560.7874145507812 C 179.1974487304688 560.8290405273438 179.2603454589844 560.8599243164062 179.3157653808594 560.8983154296875 L 167.156982421875 567.8785400390625 L 170.1545562744141 560.3823852539062 C 170.2206726074219 560.2192993164062 170.0415344238281 560.076416015625 169.9029846191406 560.1820068359375 C 168.0875854492188 561.560302734375 161.6467895507812 566.6760864257812 161.0007934570312 570.3111572265625 C 160.9229736328125 570.74609375 160.9102020263672 571.115966796875 160.9240570068359 571.4570922851562 L 142.4236145019531 582.0787353515625 L 145.5139465332031 574.6849975585938 C 145.5821685791016 574.5218505859375 145.4052276611328 574.3771362304688 145.2644958496094 574.4802856445312 C 143.4277648925781 575.8319702148438 136.9081115722656 580.8507080078125 136.2066955566406 584.4761962890625 C 136.1150207519531 584.944091796875 136.1000823974609 585.3385620117188 136.1161041259766 585.699951171875 L 113.278076171875 598.8106689453125 L 116.2319488525391 583.748046875 L 126.2683715820312 575.0825805664062 C 126.7576599121094 575.35009765625 127.4442138671875 575.4942626953125 128.3822174072266 575.4301147460938 C 132.0322418212891 575.1827392578125 137.7779998779297 569.2813720703125 139.3354034423828 567.6109619140625 C 139.4547882080078 567.484130859375 139.3344879150391 567.2886962890625 139.1659088134766 567.3359375 L 133.3220825195312 568.991455078125 L 145.1973419189453 558.737548828125 C 145.6439971923828 559.1052856445312 146.1887512207031 559.35791015625 146.7121124267578 559.528564453125 C 147.7386932373047 559.8619995117188 148.9165954589844 559.6382446289062 149.825927734375 558.9741821289062 L 157.0054016113281 553.7284545898438 C 157.5128631591797 553.3574829101562 157.2626342773438 552.6240234375 156.6419372558594 552.66455078125 L 151.88330078125 552.9630737304688 L 161.2630310058594 544.8646850585938 C 161.5775146484375 545.0117797851562 161.9346160888672 545.131103515625 162.3727416992188 545.1897583007812 C 165.3738555908203 545.5919799804688 170.0884704589844 540.7946166992188 171.3666076660156 539.4248046875 C 171.4635925292969 539.3203125 171.3645477294922 539.1055908203125 171.2259216308594 539.1231079101562 L 167.3563079833984 539.6028442382812 L 173.4517059326172 534.3389282226562 C 174.2714233398438 535.7012329101562 175.973876953125 536.5358276367188 178.5749206542969 535.39111328125 C 182.9263000488281 533.4765014648438 186.5144653320312 526.0112915039062 187.3065185546875 523.2141723632812 C 187.3672943115234 523.0009765625 187.0847778320312 522.80712890625 186.9088897705078 522.9412231445312 L 186.4195861816406 523.1799926757812 C 188.3629150390625 520.0459594726562 189.6015930175781 516.0964965820312 190.1644592285156 514.658447265625 C 190.2326965332031 514.4835815429688 190.0130920410156 514.293701171875 189.8563842773438 514.390869140625 L 188.7317504882812 515.1881713867188 L 189.8755493164062 513.4794311523438 C 190.3232879638672 512.81103515625 189.7550964355469 512.1480102539062 189.0515747070312 512.5147094726562 L 186.8609313964844 513.6552734375 L 188.123046875 512.3356323242188 C 188.2424621582031 512.1927490234375 188.0932006835938 511.9440307617188 187.9119873046875 511.98486328125 C 186.4195861816406 512.32177734375 182.3719940185547 512.9368286132812 179.0077056884766 514.385498046875 L 179.3178863525391 513.9346313476562 C 179.4767150878906 513.780029296875 179.3319091796875 513.4669799804688 179.1142883300781 513.4932861328125 C 176.2605895996094 513.843994140625 168.4127044677734 516.2553100585938 165.8585815429688 520.3029174804688 C 164.0516967773438 523.1661376953125 165.1432800292969 525.2129516601562 166.79345703125 526.07958984375 C 166.8520965576172 526.1104736328125 166.9192504882812 526.1286010742188 166.9810485839844 526.1552124023438 L 156.3466491699219 535.3377685546875 L 157.8891296386719 527.403564453125 C 157.9222106933594 527.2297973632812 157.720703125 527.1242065429688 157.6045379638672 527.2542724609375 C 156.0790710449219 528.9556274414062 150.7107086181641 535.2119750976562 150.7565307617188 538.9057006835938 C 150.7618713378906 539.3480834960938 150.8183746337891 539.7127075195312 150.8951263427734 540.0452270507812 L 134.7142791748047 554.0173950195312 L 136.3665924072266 546.1661376953125 C 136.4028472900391 545.9935913085938 136.2024230957031 545.8848876953125 136.0830383300781 546.0126953125 C 134.5330505371094 547.6917114257812 129.0687255859375 553.8690795898438 129.0570220947266 557.5628662109375 C 129.0548706054688 558.039306640625 129.1135101318359 558.4304809570312 129.1966552734375 558.7823486328125 L 119.4832916259766 567.1696166992188 L 122.1077575683594 553.7881469726562 C 122.6838531494141 553.79736328125 123.2665100097656 553.65283203125 123.7813873291016 553.4576416015625 C 124.7908630371094 553.0761108398438 125.5786590576172 552.161376953125 125.8856811523438 551.0687255859375 L 128.3065490722656 542.447998046875 C 128.4770965576172 541.8392944335938 127.8321990966797 541.4214477539062 127.3695373535156 541.8414306640625 L 123.8186798095703 545.0618896484375 L 126.2193298339844 532.8209228515625 C 126.5561828613281 532.7399291992188 126.9100952148438 532.6088256835938 127.2896118164062 532.3806762695312 C 129.8906402587891 530.8136596679688 130.6528015136719 524.0914916992188 130.8170013427734 522.2142333984375 C 130.8287353515625 522.0703125 130.6197814941406 521.96484375 130.5216979980469 522.0650024414062 L 127.7788696289062 524.86962890625 L 129.3384246826172 516.9141235351562 C 130.8159332275391 517.469482421875 132.6632995605469 517.055908203125 134.0032653808594 514.5252075195312 C 136.2450714111328 510.293212890625 134.4893493652344 502.18310546875 133.3988494873047 499.492431640625 C 133.3146362304688 499.2855834960938 132.9745635986328 499.3114013671875 132.9191436767578 499.5264892578125 L 132.6814270019531 500.022216796875 C 132.2859344482422 496.3424072265625 130.8404541015625 492.467529296875 130.4012451171875 490.9846801757812 C 130.3479461669922 490.8045043945312 130.0601348876953 490.7938842773438 129.9951019287109 490.96875 L 129.6017456054688 492.3001708984375 L 129.4524993896484 490.2406005859375 C 129.4193572998047 489.7857666015625 129.1328887939453 489.5355224609375 128.8309631347656 489.5355224609375 M 128.8309783935547 486.5355224609375 C 130.1527557373047 486.5355224609375 131.3022003173828 487.2494506835938 131.9352569580078 488.3453979492188 C 132.5684051513672 488.7481079101562 133.0523376464844 489.37109375 133.2779083251953 490.1333618164062 C 133.3490600585938 490.37353515625 133.4630584716797 490.72412109375 133.5950317382812 491.1300659179688 C 134.0658569335938 492.5780029296875 134.7695159912109 494.741943359375 135.2506713867188 497.0952758789062 C 135.6506958007812 497.4268798828125 135.9720458984375 497.8570556640625 136.1772003173828 498.3607177734375 C 136.1778717041016 498.3623657226562 136.1785125732422 498.3639526367188 136.1791839599609 498.3656005859375 C 136.7737426757812 499.8325805664062 137.5903930664062 502.745361328125 137.9351959228516 506.12646484375 C 138.3542633056641 510.2357177734375 137.9233093261719 513.533935546875 136.6542816162109 515.9295043945312 C 135.9522857666016 517.2553100585938 135.0701446533203 518.2913208007812 134.0326232910156 519.0082397460938 C 133.5914001464844 519.3131713867188 133.1228485107422 519.5584106445312 132.6364593505859 519.740966796875 C 132.7573852539062 519.8386840820312 132.8716278076172 519.945556640625 132.9781646728516 520.0610961914062 C 133.5762634277344 520.7100219726562 133.8783874511719 521.5836791992188 133.8070526123047 522.4581298828125 C 133.8065795898438 522.4639282226562 133.8060913085938 522.4697875976562 133.8055725097656 522.4755859375 C 133.7053527832031 523.6217041015625 133.4511413574219 525.8831787109375 132.8748016357422 528.15234375 C 131.9976501464844 531.6058349609375 130.6848297119141 533.8251342773438 128.8616943359375 534.9358520507812 L 128.1257171630859 538.6886596679688 C 129.1002197265625 538.7857055664062 130.0094299316406 539.2894287109375 130.6069793701172 540.077392578125 C 131.29345703125 540.9826049804688 131.5078887939453 542.1416625976562 131.1953277587891 543.25732421875 L 129.4681701660156 549.40771484375 C 129.4922943115234 549.3732299804688 129.5163726806641 549.3389282226562 129.540771484375 549.3043212890625 C 131.1654510498047 546.9984130859375 132.9559936523438 544.977294921875 133.8787078857422 543.977783203125 C 133.88232421875 543.973876953125 133.8859252929688 543.969970703125 133.8895568847656 543.966064453125 C 134.488037109375 543.3246459960938 135.3321380615234 542.956787109375 136.2054595947266 542.956787109375 C 137.1628723144531 542.956787109375 138.0584564208984 543.3834838867188 138.6625366210938 544.1275024414062 C 139.1071166992188 544.675048828125 139.3509368896484 545.34326171875 139.3702087402344 546.0333251953125 L 147.7565765380859 538.7916870117188 C 147.7786712646484 536.5872192382812 148.8779602050781 533.9185791015625 151.113037109375 530.6422119140625 C 152.7060089111328 528.3070678710938 154.4644775390625 526.2625122070312 155.3708801269531 525.2515258789062 C 155.9721527099609 524.580810546875 156.8308410644531 524.1962890625 157.7276916503906 524.1962890625 C 158.6732177734375 524.1962890625 159.5616760253906 524.6145629882812 160.1652679443359 525.3438720703125 C 160.6588134765625 525.940185546875 160.9124145507812 526.6865234375 160.8919067382812 527.4494018554688 L 162.6098785400391 525.9660034179688 C 162.4117126464844 525.5796508789062 162.2536926269531 525.1710205078125 162.1391296386719 524.7440795898438 C 161.7811279296875 523.4097290039062 161.6956481933594 521.2782592773438 163.3215179443359 518.7018432617188 C 164.771728515625 516.4036865234375 167.4133453369141 514.4054565429688 171.1729278564453 512.7626953125 C 174.2660980224609 511.4111938476562 177.1869506835938 510.7075805664062 178.7483520507812 510.5156860351562 C 178.8773040771484 510.4998168945312 179.0094909667969 510.49169921875 179.1402893066406 510.49169921875 C 179.5478820800781 510.49169921875 179.9419555664062 510.5679321289062 180.3067932128906 510.709716796875 C 182.5625610351562 509.9899291992188 184.7606048583984 509.5565185546875 186.2336578369141 509.2660522460938 C 186.64990234375 509.1840209960938 187.0093994140625 509.1131591796875 187.2514038085938 509.0584716796875 C 187.2538757324219 509.0579223632812 187.2563171386719 509.057373046875 187.2587890625 509.0568237304688 C 187.4859619140625 509.0061645507812 187.718994140625 508.98046875 187.9514465332031 508.98046875 C 188.5199127197266 508.98046875 189.0680541992188 509.134765625 189.5460510253906 509.4114379882812 C 190.8373107910156 509.44677734375 192.0050048828125 510.1624755859375 192.6106262207031 511.297119140625 C 192.9777679443359 511.9849243164062 193.1034545898438 512.7645263671875 192.9945678710938 513.526611328125 C 193.2464904785156 514.2412109375 193.2401275634766 515.0292358398438 192.9591369628906 515.7492065429688 C 192.8667907714844 515.9851684570312 192.74169921875 516.3314819335938 192.5968933105469 516.732421875 C 192.0787963867188 518.1668701171875 191.3041381835938 520.3116455078125 190.2373962402344 522.46435546875 C 190.3504638671875 522.979736328125 190.3384704589844 523.5211791992188 190.191650390625 524.0364379882812 C 189.7587738037109 525.5625 188.6160278320312 528.3592529296875 186.8169250488281 531.2276000976562 C 184.6242370605469 534.7235717773438 182.2577209472656 537.0482177734375 179.7831420898438 538.1370849609375 C 178.5878295898438 538.6631469726562 177.4158325195312 538.9299926757812 176.2999725341797 538.9299926757812 C 175.6112365722656 538.9299926757812 174.9503479003906 538.8286743164062 174.3311767578125 538.6339721679688 C 174.551025390625 539.6390380859375 174.2762451171875 540.699951171875 173.5652618408203 541.4658203125 C 173.5635375976562 541.4677124023438 173.5617828369141 541.4696044921875 173.5600280761719 541.471435546875 C 172.8251647949219 542.259033203125 171.3305969238281 543.78662109375 169.5778045654297 545.1683349609375 C 166.978271484375 547.217529296875 164.7420654296875 548.2136840820312 162.7413940429688 548.2136840820312 C 162.5000305175781 548.2136840820312 162.2594604492188 548.198974609375 162.0255432128906 548.1697998046875 L 159.1642456054688 550.6401977539062 C 159.5858612060547 551.0380859375 159.9122467041016 551.5410766601562 160.1008605957031 552.11865234375 C 160.5838317871094 553.59765625 160.0513916015625 555.2178344726562 158.7759399414062 556.1502685546875 L 151.5958099365234 561.396484375 C 150.4609375 562.225341796875 149.0759735107422 562.6815795898438 147.6956024169922 562.6815795898438 C 147.0400848388672 562.6815795898438 146.3971862792969 562.5806884765625 145.7848052978516 562.3816528320312 C 145.7322235107422 562.364501953125 145.6800842285156 562.3469848632812 145.6282806396484 562.3291015625 L 141.7871551513672 565.645751953125 C 141.9187774658203 565.8287963867188 142.0320892333984 566.0277099609375 142.1239776611328 566.2404174804688 C 142.6240844726562 567.3981323242188 142.3886108398438 568.7406005859375 141.5242767333984 569.6625366210938 C 140.5961761474609 570.6576538085938 138.7203826904297 572.5872192382812 136.5480499267578 574.3721313476562 C 133.4137420654297 576.9473876953125 130.8090362548828 578.2725219726562 128.5850830078125 578.4232177734375 C 128.3719329833984 578.4378051757812 128.1591186523438 578.4451904296875 127.9538421630859 578.4451904296875 C 127.6345062255859 578.4451904296875 127.3250579833984 578.4274291992188 127.0259246826172 578.3919677734375 L 118.9765319824219 585.3418579101562 L 117.4874725341797 592.9349975585938 L 133.2672271728516 583.876220703125 C 133.7008666992188 581.6891479492188 135.3239135742188 579.2646484375 138.2279052734375 576.465576171875 C 140.2575836181641 574.50927734375 142.3936767578125 572.8681640625 143.4863433837891 572.0640258789062 C 144.0374298095703 571.6590576171875 144.6866607666016 571.445556640625 145.3653717041016 571.445556640625 C 146.4255218505859 571.445556640625 147.4097595214844 571.9732666015625 147.9982452392578 572.8571166992188 C 148.4504699707031 573.536376953125 148.6179962158203 574.3517456054688 148.4852600097656 575.1392822265625 L 158.0760955810547 569.6329345703125 C 158.5108947753906 567.4736938476562 160.0904693603516 565.0626220703125 162.8988494873047 562.2721557617188 C 164.9002227783203 560.2835693359375 167.0096435546875 558.612060546875 168.0888977050781 557.7926635742188 C 168.6382751464844 557.3754272460938 169.3185729980469 557.145751953125 170.0052185058594 557.145751953125 C 171.0583801269531 557.145751953125 172.0390014648438 557.6680908203125 172.6283874511719 558.54296875 C 173.12060546875 559.2736206054688 173.2818298339844 560.1668090820312 173.0905151367188 561.012939453125 L 175.0568542480469 559.8840942382812 C 174.9337158203125 559.4635620117188 174.85498046875 559.0286865234375 174.8230895996094 558.5838012695312 C 174.7244567871094 557.2073364257812 175.042724609375 555.1012573242188 177.1190490722656 552.8851318359375 C 178.8380126953125 551.04931640625 181.5292053222656 549.6576538085938 185.1172485351562 548.7494506835938 C 187.5624084472656 548.1305541992188 190.4025573730469 547.7610473632812 192.7146301269531 547.7610473632812 C 193.1106567382812 547.7610473632812 193.4778442382812 547.772705078125 193.8060150146484 547.7957763671875 C 193.8086395263672 547.7959594726562 193.811279296875 547.796142578125 193.8139038085938 547.7963256835938 C 194.3528747558594 547.8355712890625 194.8588562011719 548.0086059570312 195.29638671875 548.2855224609375 C 197.6493225097656 548.0098876953125 199.8913269042969 548.0053100585938 201.3936462402344 548.002197265625 C 201.8166198730469 548.0012817382812 202.1819152832031 548.0005493164062 202.4293518066406 547.9932861328125 C 202.4607086181641 547.9923706054688 202.4915771484375 547.9918823242188 202.5225830078125 547.9918823242188 C 203.3063049316406 547.9918823242188 204.0440063476562 548.282958984375 204.6140289306641 548.7786254882812 C 205.7443542480469 549.03173828125 206.6947937011719 549.8057861328125 207.1475982666016 550.8917236328125 C 207.4932556152344 551.720703125 207.5065307617188 552.6323852539062 207.2210693359375 553.4661254882812 C 207.3344421386719 554.215087890625 207.1815185546875 554.9913330078125 206.7662963867188 555.6492919921875 C 206.6343994140625 555.8587036132812 206.4467468261719 556.1749877929688 206.2294769287109 556.5411376953125 C 205.4539489746094 557.8482666015625 204.2950134277344 559.801513671875 202.8483581542969 561.7083129882812 C 202.8639831542969 562.2311401367188 202.7511901855469 562.7573852539062 202.5079345703125 563.2439575195312 C 201.7970581054688 564.6622924804688 200.1500244140625 567.1939086914062 197.8432312011719 569.6702270507812 C 195.0339050292969 572.6859741210938 192.2727355957031 574.517333984375 189.6364288330078 575.1134033203125 C 188.9073181152344 575.2781982421875 188.1965637207031 575.3616333007812 187.5234069824219 575.3616333007812 C 186.3090515136719 575.3616333007812 185.175048828125 575.0862426757812 184.2015686035156 574.5596923828125 C 184.2228698730469 575.5809326171875 183.7547607421875 576.5730590820312 182.9143371582031 577.1885375976562 C 182.9119262695312 577.1902465820312 182.9095458984375 577.1920166015625 182.9071655273438 577.1937255859375 C 182.1316223144531 577.7581787109375 180.5612182617188 578.8502807617188 178.7575988769531 579.82275390625 C 176.2115325927734 581.195556640625 174.0928497314453 581.8628540039062 172.2804718017578 581.8628540039062 C 171.585205078125 581.8628540039062 170.9268493652344 581.7626342773438 170.3227233886719 581.56494140625 L 167.0685424804688 583.4335327148438 C 167.3876037597656 583.8768920898438 167.6063690185547 584.3983764648438 167.6948852539062 584.9688110351562 C 167.9411010742188 586.5556030273438 167.1153259277344 588.0865478515625 165.6400756835938 588.7785034179688 L 157.6128082275391 592.553955078125 C 156.7273712158203 592.9697875976562 155.7468872070312 593.189208984375 154.7758178710938 593.189208984375 C 153.6951293945312 593.189208984375 152.638427734375 592.9198608398438 151.7199554443359 592.4103393554688 C 151.6713256835938 592.3833618164062 151.6231079101562 592.3560180664062 151.5753784179688 592.328369140625 L 147.1982421875 594.8414306640625 C 147.2511138916016 594.9556884765625 147.2976837158203 595.0740966796875 147.3373870849609 595.1961669921875 C 147.7626647949219 596.5037841796875 147.2999267578125 597.9266967773438 146.1859741210938 598.7369995117188 C 145.1665191650391 599.479736328125 143.1039123535156 600.9218139648438 140.7649078369141 602.2199096679688 C 137.4880981445312 604.0384521484375 134.8579864501953 604.9224853515625 132.7242584228516 604.9224853515625 C 132.4184265136719 604.9224853515625 132.1174774169922 604.9041748046875 131.8297424316406 604.8679809570312 C 131.2864074707031 604.7996826171875 130.7784118652344 604.6897583007812 130.3074188232422 604.5389404296875 L 113.2968597412109 614.304443359375 L 109.5531005859375 633.3975830078125 C 109.1940002441406 635.2174072265625 107.5790100097656 636.5355834960938 105.7123260498047 636.5355834960938 C 105.4508209228516 636.5355834960938 105.1878662109375 636.5094604492188 104.9307861328125 636.4578857421875 L 96.6087646484375 634.7862548828125 C 94.4857177734375 634.3570556640625 93.09873962402344 632.2996215820312 93.51336669921875 630.1990966796875 L 94.51576232910156 625.0867919921875 L 84.08805847167969 631.0737915039062 C 83.50411987304688 631.4080810546875 82.84344482421875 631.583740234375 82.17416381835938 631.583740234375 C 80.75958251953125 631.583740234375 79.44586181640625 630.8084716796875 78.74568176269531 629.5606079101562 L 74.55976867675781 622.0908203125 C 73.50558471679688 620.2117919921875 74.14799499511719 617.819091796875 75.9925537109375 616.75830078125 L 81.73539733886719 613.4613037109375 C 81.49073791503906 613.279541015625 81.26509094238281 613.0681762695312 81.06387329101562 612.8297119140625 L 75.55668640136719 606.2957763671875 C 74.90162658691406 605.5176391601562 74.57070922851562 604.5343017578125 74.62382507324219 603.5254516601562 C 74.67922973632812 602.472900390625 75.16476440429688 601.4766235351562 75.95591735839844 600.7921142578125 L 104.0350494384766 576.546142578125 L 106.3361358642578 564.8093872070312 C 104.9824829101562 563.0518798828125 104.2274627685547 560.2247314453125 104.0309448242188 556.1714477539062 C 103.8938293457031 553.3426513671875 104.0614776611328 550.63623046875 104.1736145019531 549.274658203125 C 104.1738128662109 549.2722778320312 104.1740112304688 549.2699584960938 104.1742095947266 549.267578125 C 104.2437591552734 548.4468994140625 104.6206665039062 547.6964721679688 105.2354583740234 547.154541015625 C 105.8134307861328 546.64501953125 106.5564575195312 546.3644409179688 107.3276672363281 546.3644409179688 C 108.2730407714844 546.3644409179688 109.1426391601562 546.77587890625 109.73583984375 547.4736328125 L 111.8890686035156 536.492431640625 C 110.5546722412109 534.744140625 109.7830810546875 531.9608764648438 109.5309753417969 527.9915771484375 C 109.3514709472656 525.1657104492188 109.4787902832031 522.4586791992188 109.5706329345703 521.0966186523438 C 109.6812286376953 519.439208984375 111.0682373046875 518.1392211914062 112.7281799316406 518.1392211914062 C 113.7309112548828 518.1392211914062 114.6513214111328 518.6046142578125 115.2441711425781 519.3839721679688 L 115.6898040771484 517.1116333007812 C 115.0503387451172 516.8176879882812 114.4632110595703 516.4143676757812 113.9526214599609 515.911376953125 C 112.7303314208984 514.7073364257812 112.0057373046875 513.0416870117188 111.7990112304688 510.9607543945312 C 111.5306396484375 508.2569580078125 112.3774261474609 505.0421752929688 114.3158264160156 501.4054565429688 C 115.912353515625 498.41015625 117.7690582275391 496.03125 118.8739166259766 494.9042358398438 C 119.2523498535156 494.51806640625 119.7108459472656 494.2396240234375 120.2132110595703 494.083984375 C 121.5438995361328 492.0999755859375 123.00732421875 490.3759765625 123.9871215820312 489.2216796875 C 124.2630615234375 488.8966064453125 124.5013427734375 488.6159057617188 124.6580810546875 488.4208984375 C 124.6602783203125 488.4181518554688 124.6624755859375 488.4154052734375 124.6646881103516 488.4127197265625 C 125.1688842773438 487.7898559570312 125.8775634765625 487.3873901367188 126.6582183837891 487.2683715820312 C 127.2750244140625 486.7988891601562 128.02783203125 486.5355224609375 128.8309783935547 486.5355224609375 Z M 126.05712890625 557.5296630859375 C 126.0611877441406 556.8697509765625 126.1642303466797 556.1688842773438 126.3679046630859 555.423095703125 C 125.90234375 555.7723388671875 125.3899383544922 556.0568237304688 124.8419952392578 556.263916015625 C 124.7835083007812 556.2860717773438 124.7250823974609 556.3075561523438 124.6667175292969 556.3283081054688 L 124.0995941162109 559.2199096679688 L 126.05712890625 557.5296630859375 Z M 98.70631408691406 603.7180786132812 L 98.9122314453125 602.6680908203125 L 95.69244384765625 605.4483642578125 L 98.70631408691406 603.7180786132812 Z" stroke="none" fill="#000"/>
        </g>
        <g id="Group_1460" data-name="Group 1460" transform="translate(2.491 24.294)">
          <path id="Path_3850" data-name="Path 3850" d="M181.633,523.3c-1.412-1.512-2.778-3.068-4.122-4.641l-4.642,2.11a13.23,13.23,0,0,0-3.111,1.979L79.679,599.59a.888.888,0,0,0-.067,1.253l5.365,6.289a.888.888,0,0,0,1.248.131L176.3,530.418a13.2,13.2,0,0,0,2.443-2.761Z" transform="translate(-79.386 -511.907)" fill="#9ad052"/>
          <path id="Path_3851" data-name="Path 3851" d="M172.1,517.927l9.937-5.114c.685-.353,1.239.286.8.929l-6.163,9.1a4.925,4.925,0,0,1-3.309,2.147c-1.7.223-3.795-.043-4.021-2.595A4.873,4.873,0,0,1,172.1,517.927Z" transform="translate(-73.449 -512.299)" fill="#96a961"/>
          <path id="Path_3852" data-name="Path 3852" d="M172.4,521.814l8.861-9.147a.217.217,0,0,0-.207-.338c-2.307.514-10.883,1.7-13.12,5.7-1.339,2.394-.152,4,1.276,4.566A2.783,2.783,0,0,0,172.4,521.814Z" transform="translate(-73.58 -512.325)" fill="#a5ba6c"/>
          <path id="Path_3853" data-name="Path 3853" d="M172.283,521.811l10.43-7.307a.217.217,0,0,1,.3.257c-.871,2.2-3.393,10.479-7.693,12.058-2.575.945-3.978-.48-4.309-1.979A2.788,2.788,0,0,1,172.283,521.811Z" transform="translate(-73.343 -512.183)" fill="#a5ba6c"/>
          <path id="Path_3854" data-name="Path 3854" d="M170.855,519.346l7.926-3.938a.523.523,0,0,1,.676.783l-4.763,7.3a3.676,3.676,0,0,1-2.628,1.676c-1.375.139-3.078-.132-3.326-2.232A3.716,3.716,0,0,1,170.855,519.346Z" transform="translate(-73.49 -512.126)" fill="#b0c673"/>
          <path id="Path_3855" data-name="Path 3855" d="M169.974,524.584l6.319-9.074a.209.209,0,0,0-.163-.345c-2.266.275-8.5,2.168-10.532,5.345-1.436,2.248-.568,3.855.743,4.535A3.49,3.49,0,0,0,169.974,524.584Z" transform="translate(-73.745 -512.138)" fill="#bbd37b"/>
          <path id="Path_3856" data-name="Path 3856" d="M165.471,525.243l7.749-11.128a.256.256,0,0,0-.2-.424c-2.78.338-10.429,2.659-12.917,6.555-1.76,2.758-.7,4.728.91,5.561A4.283,4.283,0,0,0,165.471,525.243Z" transform="translate(-74.119 -512.235)" fill="#d1e095"/>
          <path id="Path_3857" data-name="Path 3857" d="M169.1,523.559l9.956-4.81a.209.209,0,0,1,.316.214c-.629,2.2-3.48,8.056-6.938,9.559-2.446,1.064-3.9-.046-4.361-1.448A3.491,3.491,0,0,1,169.1,523.559Z" transform="translate(-73.542 -511.903)" fill="#bbd37b"/>
          <path id="Path_3858" data-name="Path 3858" d="M167.925,528.125l12.209-5.9a.257.257,0,0,1,.388.263c-.772,2.693-4.269,9.879-8.509,11.722-3,1.3-4.778-.057-5.348-1.775A4.279,4.279,0,0,1,167.925,528.125Z" transform="translate(-73.636 -511.674)" fill="#d1e095"/>
          <path id="Path_3859" data-name="Path 3859" d="M162.716,525.328l11.268-5.6a.744.744,0,0,1,.96,1.113l-6.77,10.382a5.227,5.227,0,0,1-3.736,2.383c-1.956.2-4.375-.189-4.729-3.175A5.28,5.28,0,0,1,162.716,525.328Z" transform="translate(-74.087 -511.843)" fill="#d1e095"/>
          <g id="Group_1459" data-name="Group 1459" transform="translate(46.449 14.648)">
            <path id="Path_3860" data-name="Path 3860" d="M143.611,549.61l8.76-.544a.554.554,0,0,1,.354,1.024l-7,5.05a3.453,3.453,0,0,1-3.034.534c-1.329-.428-2.819-1.379-2.313-3.49A3.531,3.531,0,0,1,143.611,549.61Z" transform="translate(-121.816 -524.548)" fill="#c6e582"/>
            <path id="Path_3861" data-name="Path 3861" d="M150.927,537.782l2.266-11.517a.161.161,0,0,0-.278-.144c-1.486,1.638-6.717,7.661-6.673,11.218.032,2.516,1.4,3.109,2.655,2.761A2.964,2.964,0,0,0,150.927,537.782Z" transform="translate(-121.422 -526.066)" fill="#c6e582"/>
            <path id="Path_3862" data-name="Path 3862" d="M125.158,565.486l11.327-3.169a.161.161,0,0,1,.165.266c-1.518,1.607-7.117,7.288-10.673,7.527-2.517.169-3.22-1.147-2.972-2.421A2.965,2.965,0,0,1,125.158,565.486Z" transform="translate(-122.959 -523.674)" fill="#c6e582"/>
            <path id="Path_3863" data-name="Path 3863" d="M131.084,554.693l2.446-11.484a.161.161,0,0,0-.276-.147c-1.512,1.617-6.835,7.563-6.847,11.119-.009,2.516,1.354,3.13,2.612,2.8A2.969,2.969,0,0,0,131.084,554.693Z" transform="translate(-122.731 -524.948)" fill="#c6e582"/>
            <path id="Path_3864" data-name="Path 3864" d="M156.334,537.976l9.308-1.139a.182.182,0,0,1,.138.291c-1.246,1.319-5.841,5.938-8.765,5.55-2.069-.275-2.65-1.7-2.449-2.908A2.065,2.065,0,0,1,156.334,537.976Z" transform="translate(-120.875 -525.355)" fill="#c6e582"/>
          </g>
        </g>
        <g id="Group_1462" data-name="Group 1462" transform="translate(1.937 61.627)">
          <path id="Path_3865" data-name="Path 3865" d="M193.84,557.447c-1.1-1.751-2.148-3.538-3.17-5.337l-4.957,1.194a13.215,13.215,0,0,0-3.429,1.354L79.293,613.072a.887.887,0,0,0-.3,1.217l4.079,7.19a.887.887,0,0,0,1.2.366l102.99-58.415a13.229,13.229,0,0,0,2.921-2.249Z" transform="translate(-78.866 -547.033)" fill="#9ad052"/>
          <path id="Path_3866" data-name="Path 3866" d="M184.65,551.366l10.725-3.14c.741-.218,1.163.515.614,1.064l-7.772,7.765a4.924,4.924,0,0,1-3.655,1.482c-1.715-.1-3.718-.759-3.457-3.309A4.874,4.874,0,0,1,184.65,551.366Z" transform="translate(-72.12 -547.292)" fill="#96a961"/>
          <path id="Path_3867" data-name="Path 3867" d="M184.192,555.233l10.431-7.306a.217.217,0,0,0-.139-.371c-2.362.068-11.009-.39-13.961,3.113-1.767,2.1-.907,3.9.389,4.726A2.787,2.787,0,0,0,184.192,555.233Z" transform="translate(-72.223 -547.333)" fill="#a5ba6c"/>
          <path id="Path_3868" data-name="Path 3868" d="M184.1,555.23l11.624-5.2a.216.216,0,0,1,.246.309c-1.271,1.992-5.314,9.648-9.836,10.385-2.708.44-3.815-1.225-3.856-2.759A2.783,2.783,0,0,1,184.1,555.23Z" transform="translate(-72.041 -547.171)" fill="#a5ba6c"/>
          <path id="Path_3869" data-name="Path 3869" d="M183.136,552.557l8.527-2.368a.522.522,0,0,1,.515.9l-6.057,6.27a3.679,3.679,0,0,1-2.9,1.148c-1.377-.124-3-.713-2.844-2.822A3.714,3.714,0,0,1,183.136,552.557Z" transform="translate(-72.167 -547.161)" fill="#b0c673"/>
          <path id="Path_3870" data-name="Path 3870" d="M181.282,557.524l7.921-7.715a.209.209,0,0,0-.094-.371c-2.278-.158-8.76.52-11.353,3.257-1.836,1.936-1.288,3.678-.129,4.593A3.491,3.491,0,0,0,181.282,557.524Z" transform="translate(-72.418 -547.211)" fill="#bbd37b"/>
          <path id="Path_3871" data-name="Path 3871" d="M176.756,557.289l9.714-9.461a.256.256,0,0,0-.115-.454c-2.794-.194-10.742.639-13.923,3.993-2.25,2.374-1.579,4.51-.158,5.633A4.28,4.28,0,0,0,176.756,557.289Z" transform="translate(-72.787 -547.347)" fill="#d1e095"/>
          <path id="Path_3872" data-name="Path 3872" d="M180.614,556.35l10.687-2.84a.209.209,0,0,1,.27.271c-1.033,2.037-4.942,7.252-8.622,8.074-2.6.581-3.817-.782-4.008-2.247A3.491,3.491,0,0,1,180.614,556.35Z" transform="translate(-72.263 -546.942)" fill="#bbd37b"/>
          <path id="Path_3873" data-name="Path 3873" d="M178.621,560.582l13.105-3.483a.256.256,0,0,1,.33.332c-1.266,2.5-6.06,8.893-10.573,9.9-3.192.713-4.681-.959-4.915-2.756A4.28,4.28,0,0,1,178.621,560.582Z" transform="translate(-72.42 -546.705)" fill="#d1e095"/>
          <path id="Path_3874" data-name="Path 3874" d="M174.049,556.84l12.124-3.366a.743.743,0,0,1,.732,1.274l-8.612,8.914a5.226,5.226,0,0,1-4.119,1.632c-1.958-.176-4.261-1.013-4.043-4.011A5.28,5.28,0,0,1,174.049,556.84Z" transform="translate(-72.844 -546.945)" fill="#d1e095"/>
          <g id="Group_1461" data-name="Group 1461" transform="translate(51.112 9.035)">
            <path id="Path_3875" data-name="Path 3875" d="M150.618,577.17l8.7,1.124a.554.554,0,0,1,.155,1.072L151.653,583a3.457,3.457,0,0,1-3.081-.049c-1.225-.672-2.507-1.889-1.612-3.865A3.531,3.531,0,0,1,150.618,577.17Z" transform="translate(-125.504 -554.415)" fill="#c6e582"/>
            <path id="Path_3876" data-name="Path 3876" d="M160.129,566.931l4.4-10.881a.161.161,0,0,0-.245-.193c-1.77,1.327-8.046,6.252-8.675,9.752-.446,2.476.789,3.32,2.085,3.214A2.969,2.969,0,0,0,160.129,566.931Z" transform="translate(-124.919 -555.822)" fill="#c6e582"/>
            <path id="Path_3877" data-name="Path 3877" d="M129.517,589.179l11.722-.969a.161.161,0,0,1,.113.292c-1.8,1.291-8.367,5.81-11.905,5.372-2.5-.31-2.944-1.735-2.46-2.939A2.964,2.964,0,0,1,129.517,589.179Z" transform="translate(-126.813 -553.685)" fill="#c6e582"/>
            <path id="Path_3878" data-name="Path 3878" d="M137.444,579.781l4.574-10.814a.161.161,0,0,0-.242-.2c-1.79,1.3-8.143,6.133-8.828,9.623-.484,2.469.738,3.329,2.035,3.243A2.967,2.967,0,0,0,137.444,579.781Z" transform="translate(-126.416 -554.97)" fill="#c6e582"/>
            <path id="Path_3879" data-name="Path 3879" d="M165.306,568.133l9.356.643a.181.181,0,0,1,.079.311c-1.472,1.06-6.858,4.726-9.656,3.792-1.98-.662-2.281-2.167-1.854-3.319A2.064,2.064,0,0,1,165.306,568.133Z" transform="translate(-124.421 -555.01)" fill="#c6e582"/>
          </g>
        </g>
        <g id="Group_1464" data-name="Group 1464" transform="translate(19 0.086)">
          <path id="Path_3880" data-name="Path 3880" d="M128.841,502.258c-2.122-.323-4.235-.712-6.343-1.128l-2.423,4.7a13.758,13.758,0,0,0-1.261,3.612L94.89,629.973a.92.92,0,0,0,.752,1.063l8.415,1.67a.921.921,0,0,0,1.1-.7l23.924-120.527a13.741,13.741,0,0,0,.214-3.82Z" transform="translate(-94.873 -488.856)" fill="#9ad052"/>
          <path id="Path_3881" data-name="Path 3881" d="M120.542,500.637l4.8-10.557a.64.64,0,0,1,1.251.24l.833,11.371a5.108,5.108,0,0,1-1.313,3.877c-1.245,1.277-3.118,2.406-4.944.472A5.057,5.057,0,0,1,120.542,500.637Z" transform="translate(-93.212 -489.616)" fill="#96a961"/>
          <path id="Path_3882" data-name="Path 3882" d="M123.354,503.629l1.33-13.149a.225.225,0,0,0-.385-.143c-1.548,1.9-7.769,8.385-7.019,13.081.449,2.811,2.451,3.358,3.976,2.9A2.891,2.891,0,0,0,123.354,503.629Z" transform="translate(-93.399 -489.573)" fill="#a5ba6c"/>
          <path id="Path_3883" data-name="Path 3883" d="M123.161,503.628l3.792-12.66a.225.225,0,0,1,.41.015c.7,2.349,3.978,10.718,1.491,14.769-1.489,2.426-3.549,2.168-4.782,1.16A2.89,2.89,0,0,1,123.161,503.628Z" transform="translate(-93.019 -489.535)" fill="#a5ba6c"/>
          <path id="Path_3884" data-name="Path 3884" d="M120.516,502.484l3.921-8.306a.543.543,0,0,1,1.054.2l.819,9.01a3.811,3.811,0,0,1-1.062,3.055c-1.031,1-2.591,1.872-4.146.322A3.857,3.857,0,0,1,120.516,502.484Z" transform="translate(-93.207 -489.339)" fill="#b0c673"/>
          <path id="Path_3885" data-name="Path 3885" d="M123.163,507.348l-.691-11.454a.217.217,0,0,0-.355-.177c-1.669,1.682-5.53,7.236-5.139,11.128.277,2.755,2.018,3.505,3.522,3.216A3.622,3.622,0,0,0,123.163,507.348Z" transform="translate(-93.416 -489.217)" fill="#bbd37b"/>
          <path id="Path_3886" data-name="Path 3886" d="M119.863,510.884l-.847-14.047a.266.266,0,0,0-.435-.217c-2.047,2.064-6.782,8.873-6.3,13.647.34,3.378,2.474,4.3,4.319,3.943A4.442,4.442,0,0,0,119.863,510.884Z" transform="translate(-93.727 -489.158)" fill="#d1e095"/>
          <path id="Path_3887" data-name="Path 3887" d="M121.79,507.076l5.014-10.322a.217.217,0,0,1,.4-.028c.9,2.193,2.347,8.8.5,12.247-1.308,2.44-3.2,2.469-4.484,1.627A3.625,3.625,0,0,1,121.79,507.076Z" transform="translate(-93.102 -489.155)" fill="#bbd37b"/>
          <path id="Path_3888" data-name="Path 3888" d="M123.718,511.65l6.148-12.659a.267.267,0,0,1,.486-.034c1.1,2.689,2.878,10.791.611,15.019-1.6,2.992-3.927,3.029-5.5,1.995A4.441,4.441,0,0,1,123.718,511.65Z" transform="translate(-92.976 -489.009)" fill="#d1e095"/>
          <path id="Path_3889" data-name="Path 3889" d="M117.633,512.767l5.574-11.808a.771.771,0,0,1,1.5.288l1.165,12.811a5.423,5.423,0,0,1-1.511,4.343c-1.466,1.419-3.684,2.661-5.893.457A5.48,5.48,0,0,1,117.633,512.767Z" transform="translate(-93.408 -488.902)" fill="#d1e095"/>
          <g id="Group_1463" data-name="Group 1463" transform="translate(10.659 31.575)">
            <path id="Path_3890" data-name="Path 3890" d="M117.93,544.728l6.784-6.078a.576.576,0,0,1,.948.607l-2.449,8.612a3.585,3.585,0,0,1-2.128,2.387c-1.358.507-3.183.691-4.13-1.354A3.665,3.665,0,0,1,117.93,544.728Z" transform="translate(-104.094 -517.966)" fill="#c6e582"/>
            <path id="Path_3891" data-name="Path 3891" d="M116.059,530.17,110.5,519.333a.167.167,0,0,0-.319.062c-.156,2.29-.542,10.56,1.781,13.427,1.645,2.029,3.144,1.631,3.939.54A3.076,3.076,0,0,0,116.059,530.17Z" transform="translate(-104.531 -519.236)" fill="#c6e582"/>
            <path id="Path_3892" data-name="Path 3892" d="M110.773,556.714l-5.4-10.924a.167.167,0,0,0-.319.057c-.191,2.289-.7,10.557,1.577,13.46,1.612,2.054,3.116,1.678,3.927.6A3.082,3.082,0,0,0,110.773,556.714Z" transform="translate(-104.873 -517.491)" fill="#c6e582"/>
            <path id="Path_3893" data-name="Path 3893" d="M120.818,527.023l6.849-6.916a.188.188,0,0,1,.3.149c-.165,1.875-.936,8.592-3.567,10.157-1.862,1.108-3.249.324-3.864-.793A2.14,2.14,0,0,1,120.818,527.023Z" transform="translate(-103.859 -519.182)" fill="#c6e582"/>
          </g>
        </g>
        <g id="Path_3894" data-name="Path 3894" transform="translate(-75.873 -489.532)" fill="none" stroke-linecap="round" stroke-linejoin="round">
          <path d="M132.249,499.544a.266.266,0,0,0-.485.035l-.241.495a47.96,47.96,0,0,0-2.306-9.029.225.225,0,0,0-.41-.016l-.4,1.329-.151-2.056a.64.64,0,0,0-1.251-.24l-1.032,2.267.184-1.826a.224.224,0,0,0-.385-.142,48.075,48.075,0,0,0-5.579,7.464l-.033-.549a.266.266,0,0,0-.435-.217c-2.047,2.064-6.782,8.873-6.3,13.647.34,3.377,2.473,4.3,4.319,3.943.065-.013.13-.041.2-.058l-2.751,13.866-3.69-7.188a.167.167,0,0,0-.319.062c-.156,2.29-.542,10.56,1.781,13.427a5.213,5.213,0,0,0,.817.807l-4.187,21.1-3.552-7.191a.167.167,0,0,0-.319.058c-.192,2.289-.7,10.557,1.576,13.459a5.086,5.086,0,0,0,.867.869L94.89,630.713a.921.921,0,0,0,.752,1.064l8.415,1.67a.921.921,0,0,0,1.1-.7l15.673-78.961a4.72,4.72,0,0,0,1.693-.329,3.585,3.585,0,0,0,2.128-2.387l2.449-8.613a.575.575,0,0,0-.948-.605l-3.59,3.217,2.427-12.229a3.8,3.8,0,0,0,1.082-.44c2.631-1.565,3.4-8.283,3.567-10.158a.187.187,0,0,0-.3-.148l-2.775,2.8,1.578-7.948c1.495.554,3.362.142,4.717-2.387C135.127,510.335,133.352,502.233,132.249,499.544Z" stroke="none"/>
          <path d="M 127.6296463012695 489.596923828125 C 127.3947601318359 489.596923828125 127.1506118774414 489.7448120117188 127.0065002441406 490.061767578125 L 125.9746170043945 492.3291625976562 L 126.1590194702148 490.5030517578125 C 126.1664810180664 490.3165283203125 125.8925399780273 490.2153930664062 125.7742004394531 490.361328125 C 124.7988204956055 491.560546875 121.9675216674805 494.58056640625 120.1947555541992 497.825439453125 L 120.1617202758789 497.2764892578125 C 120.1915512084961 497.0557861328125 119.8834686279297 496.9010009765625 119.7267761230469 497.0590209960938 C 117.680061340332 499.1227416992188 112.9448776245117 505.932373046875 113.4245758056641 510.7059326171875 C 113.7646331787109 514.0831298828125 115.8976745605469 515.0042724609375 117.7440185546875 514.649169921875 C 117.8090362548828 514.6363525390625 117.8740615844727 514.608642578125 117.9391021728516 514.591552734375 L 115.1877365112305 528.4570922851562 L 111.4972610473633 521.2689819335938 C 111.4172821044922 521.1121826171875 111.1913223266602 521.1549682617188 111.1785202026367 521.3308715820312 C 111.0228805541992 523.6205444335938 110.6370010375977 531.890625 112.9598007202148 534.7581787109375 C 113.238037109375 535.1013793945312 113.5098571777344 535.3518676757812 113.7763595581055 535.5651245117188 L 109.5891189575195 556.6612548828125 L 106.0372009277344 549.4700317382812 C 105.9593658447266 549.312255859375 105.7322998046875 549.352783203125 105.7184600830078 549.5276489257812 C 105.5265808105469 551.8163452148438 105.0159606933594 560.084228515625 107.2940216064453 562.9869384765625 C 107.5893020629883 563.3621215820312 107.8771209716797 563.6318359375 108.1606597900391 563.855712890625 L 94.8900146484375 630.7131958007812 C 94.79301452636719 631.1992797851562 95.1298828125 631.67578125 95.64155578613281 631.7770385742188 L 104.0565567016602 633.447509765625 C 104.5672454833984 633.548583984375 105.0607299804688 633.2374267578125 105.1566772460938 632.7513427734375 L 120.830078125 553.79052734375 C 121.4131393432617 553.79833984375 122.0026779174805 553.65625 122.5228958129883 553.461181640625 C 123.5441207885742 553.0795288085938 124.3404388427734 552.1659545898438 124.6506423950195 551.0743408203125 L 127.099235534668 542.4610595703125 C 127.2719497680664 541.8524169921875 126.62060546875 541.4356079101562 126.1515579223633 541.8555908203125 L 122.561279296875 545.0728149414062 L 124.9885559082031 532.8436279296875 C 125.3286209106445 532.7626953125 125.6867980957031 532.6314697265625 126.070556640625 532.4033813476562 C 128.7014465332031 530.8384399414062 129.47216796875 524.1204833984375 129.6373901367188 522.2454223632812 C 129.6502075195312 522.1015014648438 129.4391174316406 521.9971313476562 129.3399810791016 522.0972900390625 L 126.5651779174805 524.8987426757812 L 128.1428527832031 516.9506225585938 C 129.6373901367188 517.5048217773438 131.5050354003906 517.0924072265625 132.8598937988281 514.5638427734375 C 135.1272888183594 510.3350219726562 133.3524169921875 502.2333984375 132.2490997314453 499.5438842773438 C 132.163818359375 499.3381958007812 131.8194885253906 499.36376953125 131.7640686035156 499.5789794921875 L 131.5231628417969 500.0736083984375 C 131.1244506835938 496.3980712890625 129.6619262695312 492.5252685546875 129.2174072265625 491.0446166992188 C 129.1640930175781 490.8644409179688 128.8719940185547 490.8538208007812 128.8069763183594 491.0286254882812 L 128.4093627929688 492.3579711914062 L 128.2579803466797 490.3016357421875 C 128.2248382568359 489.8472290039062 127.9351043701172 489.596923828125 127.6296463012695 489.596923828125 M 127.629638671875 488.596923828125 C 128.4041442871094 488.596923828125 129.0296478271484 489.1371459960938 129.2091217041016 489.9193115234375 C 129.6676635742188 489.99267578125 130.0436553955078 490.3125 130.1763305664062 490.7609252929688 C 130.2546081542969 491.021728515625 130.3731689453125 491.3817138671875 130.5104370117188 491.7985229492188 C 131.0323791503906 493.3833618164062 131.847900390625 495.8594360351562 132.2981262207031 498.433349609375 C 132.6896057128906 498.5203247070312 133.0178070068359 498.786865234375 133.1728820800781 499.1609497070312 C 133.7695159912109 500.6153564453125 134.5071411132812 503.4073486328125 134.813232421875 506.3739624023438 C 135.0762634277344 508.923095703125 135.103759765625 512.4951171875 133.7411956787109 515.036376953125 C 132.2817077636719 517.7603149414062 130.3435211181641 518.1671142578125 129.3180999755859 518.1671142578125 C 129.1869049072266 518.1671142578125 129.0556335449219 518.1609497070312 128.924560546875 518.1486206054688 L 128.1929626464844 521.8342895507812 L 128.6295013427734 521.3935546875 C 128.8438720703125 521.177001953125 129.1319274902344 521.0576171875 129.4403686523438 521.0576171875 C 129.7775421142578 521.0576171875 130.1024780273438 521.201416015625 130.3318481445312 521.4520874023438 C 130.552001953125 521.6926879882812 130.6619415283203 522.0142211914062 130.6334533691406 522.3341064453125 C 130.5379943847656 523.4173583984375 130.2957763671875 525.554931640625 129.7471160888672 527.6896362304688 C 128.99365234375 530.6210327148438 127.9582824707031 532.4440307617188 126.5817794799805 533.2628173828125 C 126.3441772460938 533.404052734375 126.1030654907227 533.522216796875 125.854133605957 533.619140625 L 124.1255035400391 542.328369140625 L 125.4841995239258 541.11083984375 C 125.7907028198242 540.83642578125 126.1756820678711 540.6854248046875 126.5685424804688 540.6854248046875 C 127.0525588989258 540.6854248046875 127.516242980957 540.9166259765625 127.8088607788086 541.3038330078125 C 128.1129760742188 541.7062377929688 128.2049865722656 542.2275390625 128.0612487792969 542.7340087890625 L 125.6125183105469 551.3477783203125 C 125.2091369628906 552.767333984375 124.1849975585938 553.9075927734375 122.8729629516602 554.3978881835938 C 122.4600830078125 554.552734375 122.0557250976562 554.6622924804688 121.6639556884766 554.7257080078125 L 106.1375427246094 632.946044921875 C 105.9637603759766 633.82666015625 105.1698379516602 634.466552734375 104.25 634.466552734375 C 104.1204605102539 634.466552734375 103.9899978637695 634.4537353515625 103.8622360229492 634.428466796875 L 95.44683837890625 632.7579345703125 C 94.92848205566406 632.6552734375 94.48283386230469 632.359619140625 94.19258117675781 631.9254150390625 C 93.91239929199219 631.5062255859375 93.81181335449219 631.0062255859375 93.90936279296875 630.5174560546875 L 107.0673904418945 564.227294921875 C 106.8695983886719 564.0358276367188 106.6862182617188 563.8316040039062 106.5082015991211 563.6054077148438 C 105.4052810668945 562.2000732421875 104.7572174072266 559.6671752929688 104.5812225341797 556.0759887695312 C 104.4429397583008 553.2548828125 104.6335830688477 550.498291015625 104.7219619750977 549.444091796875 C 104.7702789306641 548.8345336914062 105.2699966430664 548.3713989257812 105.8839797973633 548.3713989257812 C 106.3320999145508 548.3713989257812 106.7344970703125 548.6229248046875 106.9341201782227 549.02783203125 L 109.1815872192383 553.5780639648438 L 112.6834106445312 535.9351806640625 C 112.5056610107422 535.76318359375 112.3413543701172 535.583251953125 112.1830215454102 535.387939453125 C 111.0591430664062 534.00048828125 110.3724594116211 531.4785766601562 110.1417999267578 527.8919677734375 C 109.9676971435547 525.1848754882812 110.0915222167969 522.5767822265625 110.1808166503906 521.2630615234375 C 110.2262573242188 520.6390380859375 110.7265167236328 520.1721801757812 111.3447799682617 520.1721801757812 C 111.7861022949219 520.1721801757812 112.1858367919922 520.4182739257812 112.3880004882812 520.814453125 L 114.7657775878906 525.4457397460938 L 116.6977233886719 515.709716796875 C 114.805778503418 515.5797119140625 112.7754898071289 514.240966796875 112.4296188354492 510.8060913085938 C 112.2704772949219 509.2225952148438 112.5435791015625 506.4774780273438 114.7481994628906 502.3914184570312 C 116.1644592285156 499.7665405273438 117.9125595092773 497.4682006835938 119.0167617797852 496.3548583984375 C 119.2477569580078 496.1222534179688 119.5562591552734 495.9945068359375 119.8860015869141 495.9945068359375 C 119.9600296020508 495.9945068359375 120.0333633422852 496.0009155273438 120.1052780151367 496.0133666992188 C 121.5020370483398 493.81103515625 123.198356628418 491.8367919921875 124.2842025756836 490.5731201171875 C 124.5731582641602 490.23681640625 124.8227157592773 489.9463500976562 124.9983978271484 489.7303466796875 C 125.2239761352539 489.4520874023438 125.562858581543 489.291748046875 125.927116394043 489.291748046875 C 126.0438995361328 489.291748046875 126.1594085693359 489.3082885742188 126.2702255249023 489.3400268554688 C 126.5918960571289 488.8746948242188 127.0888442993164 488.596923828125 127.629638671875 488.596923828125 Z" stroke="none" fill="#000"/>
        </g>
      </g>
    </g>
  </g>
</svg>
