<svg xmlns="http://www.w3.org/2000/svg" width="196" height="196" viewBox="0 0 196 196">
  <g id="Group_1977" data-name="Group 1977" transform="translate(-1238 -166)">
    <g id="Group_1976" data-name="Group 1976">
      <g id="Group_1975" data-name="Group 1975">
        <g id="Group_1908" data-name="Group 1908">
          <g id="Group_1906" data-name="Group 1906" transform="translate(941 97)">
            <rect id="Rectangle_1254" data-name="Rectangle 1254" width="196" height="196" rx="5" transform="translate(297 69)" fill="#fff"/>
          </g>
        </g>
        <g id="Group_1866" data-name="Group 1866" transform="translate(469 19.304)">
          <g id="Group_1213" data-name="Group 1213" transform="translate(-7.178 -5.678)">
            <path id="Path_2492" data-name="Path 2492" d="M915.751,223.508c-35.956,3.423-33.171-29.46-33.171-29.46S914.9,187.4,915.751,223.508Z" transform="translate(8.341 86.092)" fill="#5cbc2a"/>
            <path id="Path_2493" data-name="Path 2493" d="M920.685,226.131c-42.708,4.067-39.4-34.993-39.4-34.993S919.678,183.241,920.685,226.131Z" transform="translate(8.217 85.805)" fill="none" stroke="#000" stroke-miterlimit="10" stroke-width="5"/>
            <path id="Path_2498" data-name="Path 2498" d="M838.748,170.639c-35.957,3.424-33.173-29.46-33.173-29.46S837.9,134.529,838.748,170.639Z" transform="translate(0.974 81.033)" fill="#5cbc2a"/>
            <path id="Path_2499" data-name="Path 2499" d="M843.681,173.262c-42.708,4.067-39.4-34.993-39.4-34.993S842.674,130.373,843.681,173.262Z" transform="translate(0.849 80.747)" fill="none" stroke="#000" stroke-miterlimit="10" stroke-width="5"/>
            <g id="Ellipse_196" data-name="Ellipse 196" transform="translate(831.704 207.418)" fill="#fff" stroke="#070707" stroke-miterlimit="10" stroke-width="5">
              <circle cx="24.892" cy="24.892" r="24.892" stroke="none"/>
              <circle cx="24.892" cy="24.892" r="27.392" fill="none"/>
            </g>
            <circle id="Ellipse_197" data-name="Ellipse 197" cx="23.456" cy="23.456" r="23.456" transform="translate(832.922 207.395)" fill="#4f57c1"/>
            <circle id="Ellipse_198" data-name="Ellipse 198" cx="7.066" cy="7.066" r="7.066" transform="translate(847.822 213.314)" fill="#132060"/>
            <g id="Ellipse_199" data-name="Ellipse 199" transform="translate(885.691 188.532)" fill="#fff" stroke="#070707" stroke-miterlimit="10" stroke-width="5">
              <circle cx="18.735" cy="18.735" r="18.735" stroke="none"/>
              <circle cx="18.735" cy="18.735" r="21.235" fill="none"/>
            </g>
            <path id="Path_3040" data-name="Path 3040" d="M17.654,0A17.654,17.654,0,1,1,0,17.654,17.654,17.654,0,0,1,17.654,0Z" transform="translate(886.608 188.515)" fill="#4f57c1"/>
            <circle id="Ellipse_201" data-name="Ellipse 201" cx="5.318" cy="5.318" r="5.318" transform="translate(903.14 192.97)" fill="#132060"/>
            <g id="Ellipse_202" data-name="Ellipse 202" transform="translate(893.503 216.593)" fill="#fff" stroke="#070707" stroke-miterlimit="10" stroke-width="5">
              <circle cx="24.892" cy="24.892" r="24.892" stroke="none"/>
              <circle cx="24.892" cy="24.892" r="27.392" fill="none"/>
            </g>
            <circle id="Ellipse_203" data-name="Ellipse 203" cx="23.456" cy="23.456" r="23.456" transform="translate(894.721 216.569)" fill="#4f57c1"/>
            <circle id="Ellipse_204" data-name="Ellipse 204" cx="10.844" cy="10.844" r="10.844" transform="translate(913.92 236.81)" fill="#132060"/>
            <g id="Ellipse_205" data-name="Ellipse 205" transform="translate(824.799 242.916)" fill="#fff" stroke="#070707" stroke-miterlimit="10" stroke-width="5">
              <circle cx="33.484" cy="33.484" r="33.484" stroke="none"/>
              <circle cx="33.484" cy="33.484" r="35.984" fill="none"/>
            </g>
            <circle id="Ellipse_206" data-name="Ellipse 206" cx="31.552" cy="31.552" r="31.552" transform="translate(825.577 246.463)" fill="#4f57c1"/>
            <circle id="Ellipse_207" data-name="Ellipse 207" cx="11.818" cy="11.818" r="11.818" transform="translate(836.003 271.864)" fill="#132060"/>
          </g>
        </g>
      </g>
      <path id="Path_4073" data-name="Path 4073" d="M1203.194,205.874a2.152,2.152,0,0,1-1.854-.942c-2.812-4.32-6.122-14.642,1.471-22.791a2.235,2.235,0,0,1,2.973-.21,1.838,1.838,0,0,1,.227,2.739c-7.488,8.037-1.317,17.853-1.05,18.268a1.861,1.861,0,0,1-.734,2.661A2.244,2.244,0,0,1,1203.194,205.874Z" transform="matrix(-0.829, 0.559, -0.559, -0.829, 2444.71, -230.876)" fill="#fff"/>
      <path id="Path_4074" data-name="Path 4074" d="M1201.527,198.5a1.424,1.424,0,0,1-1.241-.657c-1.883-3.015-4.1-10.221.985-15.909a1.453,1.453,0,0,1,1.991-.147,1.318,1.318,0,0,1,.152,1.912c-5.015,5.611-.882,12.462-.7,12.752a1.328,1.328,0,0,1-.491,1.858A1.456,1.456,0,0,1,1201.527,198.5Z" transform="matrix(-0.695, 0.719, -0.719, -0.695, 2364.22, -490.812)" fill="#fff"/>
      <path id="Path_4075" data-name="Path 4075" d="M1200.847,194.54a1.151,1.151,0,0,1-.992-.5c-1.5-2.314-3.276-7.844.787-12.209a1.2,1.2,0,0,1,1.591-.112.985.985,0,0,1,.121,1.467c-4.007,4.306-.7,9.564-.562,9.786a1,1,0,0,1-.393,1.426A1.2,1.2,0,0,1,1200.847,194.54Z" transform="matrix(-0.695, 0.719, -0.719, -0.695, 2300.835, -501.754)" fill="#fff"/>
      <path id="Path_4076" data-name="Path 4076" d="M1200.075,190.415a.834.834,0,0,1-.709-.345c-1.075-1.584-2.341-5.369.562-8.358a.881.881,0,0,1,1.137-.077.656.656,0,0,1,.087,1c-2.863,2.947-.5,6.547-.4,6.7a.669.669,0,0,1-.28.976A.887.887,0,0,1,1200.075,190.415Z" transform="translate(2586.11 362.618) rotate(178)" fill="#fff"/>
    </g>
  </g>
</svg>
