<svg xmlns="http://www.w3.org/2000/svg" width="196" height="196" viewBox="0 0 196 196">
  <g id="Group_1908" data-name="Group 1908" transform="translate(-1238 -166)">
    <g id="Group_1906" data-name="Group 1906" transform="translate(941 97)">
      <rect id="Rectangle_1254" data-name="Rectangle 1254" width="196" height="196" rx="5" transform="translate(297 69)" fill="#fff"/>
    </g>
    <g id="Group_1892" data-name="Group 1892" transform="translate(838.313 -373.422)">
      <g id="Group_1435" data-name="Group 1435" transform="translate(0.776 -2.451)">
        <g id="Group_1039" data-name="Group 1039" transform="translate(430.637 570.904)">
          <g id="Group_1038" data-name="Group 1038" transform="translate(5.996 4.318)">
            <path id="Path_2802" data-name="Path 2802" d="M205.631,1069.27s25.673,28.14,26.989,57.522v.095a4.731,4.731,0,0,0,4.89,4.7l14.7-.452a4.274,4.274,0,0,0,4.136-3.879,68.5,68.5,0,0,1,8.042-25.873c8.687-16.142,23.816-24.912,23.816-24.912l-5.7-9.21s-16.905,11.379-24.223,24.284a1.21,1.21,0,0,1-2.257-.662c.539-12.514.643-22.488.643-22.488l-26.039-.877s2.48,12.528,4.05,21.892a.925.925,0,0,1-1.757.526c-4.231-9.368-9.587-18.572-12.051-21.211C217.8,1065.432,205.631,1069.27,205.631,1069.27Z" transform="translate(-184.619 -999.781)" fill="#aec200"/>
            <circle id="Ellipse_432" data-name="Ellipse 432" cx="17.055" cy="17.055" r="17.055" transform="translate(2.234 48.554)" fill="#657f12"/>
            <circle id="Ellipse_433" data-name="Ellipse 433" cx="21.827" cy="21.827" r="21.827" transform="translate(0 30.848)" fill="#657f12"/>
            <circle id="Ellipse_434" data-name="Ellipse 434" cx="21.827" cy="21.827" r="21.827" transform="translate(21.658 35.433)" fill="#657f12"/>
            <circle id="Ellipse_435" data-name="Ellipse 435" cx="21.827" cy="21.827" r="21.827" transform="translate(82.835 33.021)" fill="#657f12"/>
            <circle id="Ellipse_436" data-name="Ellipse 436" cx="17.624" cy="17.624" r="17.624" transform="translate(59.376 49.05)" fill="#657f12"/>
            <circle id="Ellipse_437" data-name="Ellipse 437" cx="21.827" cy="21.827" r="21.827" transform="translate(65.48 9.021)" fill="#657f12"/>
            <circle id="Ellipse_438" data-name="Ellipse 438" cx="21.827" cy="21.827" r="21.827" transform="translate(33.347 21.956)" fill="#657f12"/>
            <circle id="Ellipse_439" data-name="Ellipse 439" cx="21.827" cy="21.827" r="21.827" transform="translate(21.827 17.25)" fill="#657f12"/>
            <circle id="Ellipse_440" data-name="Ellipse 440" cx="25.955" cy="25.955" r="25.955" transform="translate(36.344)" fill="#657f12"/>
          </g>
          <path id="Path_2803" data-name="Path 2803" d="M197.642,1055.4a7.1,7.1,0,0,1,11.85-5.27" transform="translate(-179.258 -996.97)" fill="none" stroke="#aec200" stroke-linecap="round" stroke-miterlimit="10" stroke-width="3"/>
          <path id="Path_2804" data-name="Path 2804" d="M235.522,1055.686a7.1,7.1,0,0,1,11.423-6.138" transform="translate(-176.247 -996.99)" fill="none" stroke="#aec200" stroke-linecap="round" stroke-miterlimit="10" stroke-width="3"/>
          <path id="Path_2805" data-name="Path 2805" d="M219.262,1035.08a7.1,7.1,0,0,1,11.162-6.6" transform="translate(-177.543 -998.651)" fill="none" stroke="#aec200" stroke-linecap="round" stroke-miterlimit="10" stroke-width="3"/>
          <path id="Path_2806" data-name="Path 2806" d="M200.8,1081.186a3.914,3.914,0,0,1,3.216-6.389" transform="translate(-177.657 -1000.261)" fill="none" stroke="#aec200" stroke-linecap="round" stroke-miterlimit="10" stroke-width="3"/>
          <path id="Path_2807" data-name="Path 2807" d="M247.272,1022.237a8.493,8.493,0,0,1,15.475,1.171" transform="translate(-175.311 -999.398)" fill="none" stroke="#aec200" stroke-linecap="round" stroke-miterlimit="10" stroke-width="3"/>
          <g id="Path_2808" data-name="Path 2808" transform="translate(-180.612 -1000.751)" fill="none" stroke-linecap="round" stroke-miterlimit="10">
            <path d="M306.765,1044.483a21.7,21.7,0,0,0-12-6.1,21.809,21.809,0,0,0-23.584-23.766,25.963,25.963,0,0,0-48.193,5.932A21.775,21.775,0,0,0,207,1033.456a21.816,21.816,0,0,0-20,36.764l0,0a17.049,17.049,0,0,0,28.481,16.636c.336-.336.642-.689.944-1.044,7.574,10.893,17.435,28.342,18.238,46.265v.1a4.732,4.732,0,0,0,4.89,4.7l14.7-.452a4.276,4.276,0,0,0,4.137-3.88,68.492,68.492,0,0,1,8.042-25.872c8.687-16.142,23.816-24.913,23.816-24.913l-.041-.067a21.8,21.8,0,0,0,16.55-37.207Zm-71.793,50.737c-1.754-3.883-3.7-7.729-5.553-11.1a21.879,21.879,0,0,0,5.338-.471c.666,3.575,1.383,7.534,1.972,11.047A.924.924,0,0,1,234.972,1095.22Zm23.1.948c.111-2.577.2-5.035.28-7.331a17.707,17.707,0,0,0,7.572.209,50.081,50.081,0,0,0-5.594,7.783A1.21,1.21,0,0,1,258.074,1096.168Z" stroke="none"/>
            <path d="M 248.2032012939453 1000.751220703125 C 241.5606689453125 1000.751220703125 234.9181518554688 1003.28515625 229.8498229980469 1008.35302734375 C 226.3597412109375 1011.843017578125 224.0722351074219 1016.080078125 222.9851684570312 1020.549194335938 C 218.8333435058594 1021.33935546875 214.8650512695312 1023.337646484375 211.6502685546875 1026.552490234375 C 209.606689453125 1028.596069335938 208.0673217773438 1030.949462890625 207.0029296875 1033.4560546875 C 200.0120849609375 1031.967163085938 192.4348754882812 1033.922485351562 187.0048828125 1039.352416992188 C 178.4810180664062 1047.876220703125 178.4810180664062 1061.696166992188 187.0048828125 1070.219970703125 L 187.0081481933594 1070.22216796875 C 185.4169311523438 1075.954467773438 186.8623657226562 1082.352661132812 191.369384765625 1086.858520507812 C 198.0299682617188 1093.519409179688 208.8283996582031 1093.519409179688 215.4889831542969 1086.858520507812 C 215.8247375488281 1086.522827148438 216.1313171386719 1086.169921875 216.4324951171875 1085.814575195312 C 224.0064086914062 1096.7080078125 233.8677673339844 1114.156372070312 234.6709289550781 1132.079467773438 L 234.6709289550781 1132.174560546875 C 234.6762084960938 1134.787109375 236.819580078125 1136.8759765625 239.4136810302734 1136.8759765625 C 239.4627227783203 1136.8759765625 239.5117645263672 1136.875122070312 239.5611114501953 1136.873657226562 L 254.2608795166016 1136.421264648438 C 256.4220886230469 1136.354248046875 258.2043762207031 1134.695068359375 258.3976440429688 1132.541625976562 C 258.8575439453125 1127.435424804688 260.5210266113281 1117.668090820312 266.4400329589844 1106.670043945312 C 275.1268920898438 1090.527954101562 290.2562866210938 1081.7568359375 290.2562866210938 1081.7568359375 L 290.2152709960938 1081.689819335938 C 296.1679077148438 1081.993286132812 302.219482421875 1079.896728515625 306.7653198242188 1075.350830078125 C 315.2891235351562 1066.827026367188 315.2891235351562 1053.007080078125 306.7653198242188 1044.483154296875 C 303.37890625 1041.096801757812 299.1558532714844 1039.0791015625 294.76220703125 1038.382934570312 C 295.3418579101562 1032.142211914062 293.2444152832031 1025.69970703125 288.4664611816406 1020.921630859375 C 283.7327575683594 1016.18798828125 277.3649291992188 1014.092407226562 271.177978515625 1014.617431640625 C 269.9916381835938 1012.3642578125 268.4511413574219 1010.24853515625 266.5566101074219 1008.35302734375 C 261.48828125 1003.28515625 254.8457336425781 1000.751220703125 248.2032012939453 1000.751220703125 M 235.8035888671875 1095.772338867188 C 235.4750061035156 1095.772338867188 235.1452941894531 1095.60400390625 234.9721069335938 1095.220458984375 C 233.2178955078125 1091.337524414062 231.2726135253906 1087.4912109375 229.4190673828125 1084.119873046875 C 231.2077941894531 1084.180541992188 232.9987487792969 1084.02685546875 234.7572937011719 1083.649169921875 C 235.42333984375 1087.224609375 236.1401672363281 1091.18310546875 236.7295532226562 1094.69580078125 C 236.8393249511719 1095.351684570312 236.3229370117188 1095.772338867188 235.8035888671875 1095.772338867188 M 262.63818359375 1089.35888671875 C 263.739013671875 1089.35888671875 264.8394775390625 1089.255859375 265.9250793457031 1089.046630859375 C 263.8038330078125 1091.515502929688 261.857421875 1094.138793945312 260.3310241699219 1096.830078125 C 259.7049560546875 1097.93408203125 258.019775390625 1097.436645507812 258.0737609863281 1096.168212890625 C 258.1849365234375 1093.591674804688 258.2767028808594 1091.133544921875 258.3533325195312 1088.837280273438 C 259.7599792480469 1089.182739257812 261.1993713378906 1089.35888671875 262.63818359375 1089.35888671875 M 248.2032012939453 995.751220703125 C 252.2213287353516 995.751220703125 256.1395568847656 996.513916015625 259.84912109375 998.01806640625 C 263.6922607421875 999.5765380859375 267.1384887695312 1001.864135742188 270.0919799804688 1004.817260742188 C 271.5467834472656 1006.272827148438 272.8466186523438 1007.8583984375 273.9773864746094 1009.5546875 C 277.1306762695312 1009.662719726562 280.20361328125 1010.315185546875 283.1258544921875 1011.498291015625 C 286.4576416015625 1012.847290039062 289.4440002441406 1014.828125 292.001953125 1017.386108398438 C 296.6201171875 1022.00439453125 299.3480224609375 1028.062866210938 299.7926635742188 1034.471069335938 C 303.7439880371094 1035.771362304688 307.321533203125 1037.968383789062 310.3008422851562 1040.947631835938 C 312.8601379394531 1043.506958007812 314.8427124023438 1046.493530273438 316.1934814453125 1049.824584960938 C 317.4971923828125 1053.03955078125 318.1581726074219 1056.43505859375 318.1581726074219 1059.9169921875 C 318.1581726074219 1063.39892578125 317.4971923828125 1066.794555664062 316.1934814453125 1070.009399414062 C 314.8427124023438 1073.340454101562 312.8601379394531 1076.327026367188 310.3008422851562 1078.886352539062 C 307.74365234375 1081.443603515625 304.756591796875 1083.422607421875 301.422607421875 1084.768310546875 C 298.3434143066406 1086.011108398438 295.0941162109375 1086.665649414062 291.7577514648438 1086.715454101562 C 290.3866271972656 1087.60986328125 287.7577819824219 1089.43212890625 284.693359375 1092.100952148438 C 282.0869750976562 1094.370849609375 279.6770629882812 1096.802734375 277.5305786132812 1099.329223632812 C 274.8841552734375 1102.444091796875 272.6340942382812 1105.711181640625 270.8429565429688 1109.03955078125 C 265.2959594726562 1119.346435546875 263.7846374511719 1128.469360351562 263.3775024414062 1132.990112304688 C 262.9593505859375 1137.649169921875 259.1066284179688 1141.2734375 254.4158782958984 1141.418823242188 L 239.7149047851562 1141.871337890625 C 239.6138153076172 1141.874267578125 239.5131225585938 1141.875854492188 239.4136810302734 1141.875854492188 C 234.0559387207031 1141.875854492188 229.6876525878906 1137.533935546875 229.6709594726562 1132.195068359375 C 229.324462890625 1124.8330078125 227.2538452148438 1116.803955078125 223.5158996582031 1108.32861328125 C 221.333251953125 1103.379638671875 218.6188659667969 1098.347900390625 215.4197387695312 1093.31591796875 C 214.2568969726562 1094.070068359375 213.0233764648438 1094.712524414062 211.7260437011719 1095.238647460938 C 209.0828857421875 1096.310546875 206.2914123535156 1096.854125976562 203.42919921875 1096.854125976562 C 200.5669555664062 1096.854125976562 197.7755126953125 1096.310546875 195.13232421875 1095.238647460938 C 192.3931884765625 1094.1279296875 189.9376220703125 1092.497924804688 187.8338012695312 1090.39404296875 C 185.0210876464844 1087.58203125 183.0221557617188 1084.064575195312 182.0536193847656 1080.222412109375 C 181.350341796875 1077.4326171875 181.2013244628906 1074.529052734375 181.6044616699219 1071.690551757812 C 179.9289855957031 1069.632080078125 178.5790100097656 1067.350219726562 177.5766906738281 1064.878540039062 C 176.2730407714844 1061.663696289062 175.6119995117188 1058.268188476562 175.6119995117188 1054.786254882812 C 175.6119995117188 1051.304321289062 176.2730407714844 1047.90869140625 177.5766906738281 1044.69384765625 C 178.927490234375 1041.36279296875 180.9100646972656 1038.376098632812 183.4693603515625 1035.81689453125 C 186.0264282226562 1033.259765625 189.0108947753906 1031.27978515625 192.3398742675781 1029.931884765625 C 195.5489501953125 1028.632568359375 198.9403381347656 1027.973754882812 202.4198608398438 1027.973754882812 C 203.0057983398438 1027.973754882812 203.592041015625 1027.992919921875 204.1773376464844 1028.031127929688 C 205.2828979492188 1026.209716796875 206.5996398925781 1024.531982421875 208.1147766113281 1023.016967773438 C 211.1889953613281 1019.942626953125 214.910888671875 1017.689575195312 219.0082397460938 1016.401733398438 C 220.5393981933594 1012.061767578125 223.0304870605469 1008.101196289062 226.3143310546875 1004.8173828125 C 229.2679443359375 1001.864135742188 232.7141418457031 999.5765380859375 236.5572814941406 998.01806640625 C 240.266845703125 996.513916015625 244.1850891113281 995.751220703125 248.2032012939453 995.751220703125 Z" stroke="none" fill="#000"/>
          </g>
          <path id="Path_2809" data-name="Path 2809" d="M272.987,1046.484a8.492,8.492,0,0,1,14.431,5.707" transform="translate(-173.267 -997.308)" fill="none" stroke="#aec200" stroke-linecap="round" stroke-miterlimit="10" stroke-width="3"/>
        </g>
        <g id="Path_3712" data-name="Path 3712" transform="translate(-95.33 -303.84)" fill="none" stroke-miterlimit="10">
          <path d="M652.111,918.444a21.7,21.7,0,0,0-12-6.1,21.809,21.809,0,0,0-23.584-23.766,25.929,25.929,0,0,0-48.162,5.927,21.775,21.775,0,0,0-16.013,12.911,21.8,21.8,0,0,0-20.375,36.348A17.366,17.366,0,0,0,564.837,954.8a22.219,22.219,0,0,0,26.835-3.507c.113-.113.207-.238.318-.353a17.914,17.914,0,0,0,33.34,1.56,21.816,21.816,0,0,0,26.781-34.057Z" stroke="none"/>
          <path d="M 593.5490112304688 874.7125244140625 C 586.906494140625 874.7125244140625 580.2639770507812 877.2466430664062 575.1961669921875 882.3150024414062 C 571.708251953125 885.8018188476562 569.450927734375 890.0410766601562 568.36279296875 894.5059204101562 C 564.1991577148438 895.2918090820312 560.2189331054688 897.292236328125 556.99658203125 900.5145874023438 C 554.953125 902.5580444335938 553.41259765625 904.9103393554688 552.3493041992188 907.4169311523438 C 545.3583374023438 905.9283447265625 537.7813110351562 907.8833618164062 532.3502197265625 913.3143310546875 C 523.9601440429688 921.704345703125 523.847900390625 935.2145385742188 531.9744873046875 943.765380859375 C 530.4200439453125 949.5634765625 531.9022216796875 956.007080078125 536.4523315429688 960.558349609375 C 543.2360229492188 967.341064453125 554.2340698242188 967.341064453125 561.0177612304688 960.558349609375 C 562.7158813476562 958.859130859375 563.9886474609375 956.8954467773438 564.8370971679688 954.8012084960938 C 573.3392944335938 959.72265625 584.394775390625 958.5699462890625 591.6716918945312 951.2939453125 C 591.7850952148438 951.1804809570312 591.8790283203125 951.0563354492188 591.9901733398438 950.94091796875 C 592.84619140625 953.4658813476562 594.2615356445312 955.843017578125 596.273681640625 957.855224609375 C 603.2840576171875 964.865478515625 614.648193359375 964.865478515625 621.6585693359375 957.855224609375 C 623.249755859375 956.2640380859375 624.4620361328125 954.440673828125 625.3298950195312 952.5008544921875 C 633.73291015625 957.6275024414062 644.8421630859375 956.5803833007812 652.1105346679688 949.3118896484375 C 660.634521484375 940.7880859375 660.634521484375 926.9681396484375 652.1105346679688 918.4442749023438 C 648.7252197265625 915.058837890625 644.5011596679688 913.041259765625 640.1085815429688 912.344970703125 C 640.6871337890625 906.104248046875 638.5907592773438 899.6617431640625 633.8128662109375 894.8837890625 C 629.0780029296875 890.1491088867188 622.7108154296875 888.0548706054688 616.5243530273438 888.5794067382812 C 615.3369140625 886.3253784179688 613.7974853515625 884.2095336914062 611.9019775390625 882.3150024414062 C 606.8341674804688 877.2466430664062 600.1915893554688 874.7125244140625 593.5490112304688 874.7125244140625 M 593.5490112304688 871.7125244140625 C 597.308349609375 871.7125244140625 600.9737548828125 872.4259643554688 604.4434204101562 873.8330688476562 C 608.0372314453125 875.2904663085938 611.2604370117188 877.4305419921875 614.0233764648438 880.1937866210938 C 615.63037109375 881.7999267578125 617.0370483398438 883.5795288085938 618.2202758789062 885.5011596679688 C 618.2753295898438 885.5007934570312 618.3303833007812 885.5006103515625 618.3853149414062 885.5006103515625 C 621.60888671875 885.500732421875 624.7496337890625 886.1107788085938 627.7212524414062 887.3137817382812 C 630.8031005859375 888.5615234375 633.5663452148438 890.3946533203125 635.9341430664062 892.762451171875 C 640.5341796875 897.3624877929688 643.1075439453125 903.5079956054688 643.2006225585938 909.940673828125 C 647.3771362304688 911.0654296875 651.1512451171875 913.2422485351562 654.2318725585938 916.322998046875 C 656.600830078125 918.6919555664062 658.4356689453125 921.4556274414062 659.6853637695312 924.5372924804688 C 660.8917846679688 927.5123291015625 661.5035400390625 930.655029296875 661.5035400390625 933.8781127929688 C 661.5035400390625 937.1011962890625 660.8917846679688 940.243896484375 659.6853637695312 943.2189331054688 C 658.4356689453125 946.300537109375 656.600830078125 949.0642700195312 654.2318115234375 951.4332275390625 C 651.8662109375 953.798828125 649.1071166992188 955.6305541992188 646.03125 956.8772583007812 C 643.063232421875 958.0802612304688 639.9266357421875 958.6902465820312 636.7086181640625 958.6902465820312 C 633.1915893554688 958.6902465820312 629.7342529296875 957.9490356445312 626.5556640625 956.5279541015625 C 625.7548828125 957.7760620117188 624.8268432617188 958.9295654296875 623.7799072265625 959.9765625 C 621.7808837890625 961.9755249023438 619.4486083984375 963.52392578125 616.8479614257812 964.57861328125 C 614.3374633789062 965.5967407226562 611.6856689453125 966.1129760742188 608.9661254882812 966.1129760742188 C 606.24658203125 966.1129760742188 603.5947875976562 965.5967407226562 601.0842895507812 964.57861328125 C 598.483642578125 963.52392578125 596.1514282226562 961.9755249023438 594.1524047851562 959.9765625 C 592.9083862304688 958.7324829101562 591.84130859375 957.3568115234375 590.9589233398438 955.8618774414062 C 589.26611328125 957.1171264648438 587.4268798828125 958.1494750976562 585.4599609375 958.9466552734375 C 582.4441528320312 960.1688842773438 579.2571411132812 960.78857421875 575.9873657226562 960.78857421875 C 572.60693359375 960.78857421875 569.2666625976562 960.1104125976562 566.1751708984375 958.8099975585938 C 565.3294067382812 960.2091064453125 564.3145141601562 961.5034790039062 563.1397705078125 962.678955078125 C 561.1952514648438 964.6231689453125 558.9275512695312 966.12841796875 556.3987426757812 967.1537475585938 C 553.957763671875 968.1434936523438 551.3792724609375 968.6453247070312 548.7350463867188 968.6453247070312 C 546.0908203125 968.6453247070312 543.5123291015625 968.1434936523438 541.0713500976562 967.1537475585938 C 538.5425415039062 966.12841796875 536.2747802734375 964.6231689453125 534.3311767578125 962.6798095703125 C 531.7560424804688 960.1040649414062 529.9190063476562 956.8865356445312 529.0182495117188 953.3748168945312 C 528.2840576171875 950.5122680664062 528.182373046875 947.513916015625 528.7120361328125 944.6109008789062 C 526.9736938476562 942.5271606445312 525.6021118164062 940.1947021484375 524.6253051757812 937.6578369140625 C 523.490966796875 934.7119140625 522.9336547851562 931.6126708984375 522.9688110351562 928.4462280273438 C 523.0039672851562 925.274658203125 523.6320190429688 922.18603515625 524.8355102539062 919.2661743164062 C 526.082275390625 916.2412109375 527.8968505859375 913.5250244140625 530.2288818359375 911.1929931640625 C 532.5958251953125 908.826171875 535.3572998046875 906.9937744140625 538.4367065429688 905.7468872070312 C 541.4063720703125 904.5443725585938 544.5453491210938 903.9346923828125 547.7664184570312 903.9346923828125 C 548.7190551757812 903.9346923828125 549.6730346679688 903.9894409179688 550.6204223632812 904.0982055664062 C 551.7561645507812 901.9991455078125 553.1814575195312 900.0870361328125 554.8753051757812 898.3932495117188 C 557.9680786132812 895.3004150390625 561.7678833007812 893.1064453125 565.9525756835938 891.9813232421875 C 567.3473510742188 887.5263061523438 569.7866821289062 883.4807739257812 573.0751953125 880.193359375 C 575.8377075195312 877.4305419921875 579.0608520507812 875.2904663085938 582.6546020507812 873.8330688476562 C 586.124267578125 872.4259643554688 589.7896728515625 871.7125244140625 593.5490112304688 871.7125244140625 Z" stroke="none" fill="#000"/>
        </g>
      </g>
    </g>
  </g>
</svg>
