<svg xmlns="http://www.w3.org/2000/svg" width="196" height="196" viewBox="0 0 196 196">
  <g id="Group_1980" data-name="Group 1980" transform="translate(-781 -166)">
    <g id="Group_1957" data-name="Group 1957">
      <g id="Group_1865" data-name="Group 1865" transform="translate(12579 3499)">
        <g id="Group_1860" data-name="Group 1860" transform="translate(137 -455)">
          <g id="Group_1856" data-name="Group 1856" transform="translate(-11968 -2947)">
            <rect id="Rectangle_1253" data-name="Rectangle 1253" width="196" height="196" rx="5" transform="translate(33 69)" fill="#fff"/>
          </g>
        </g>
      </g>
    </g>
    <g id="Group_1887" data-name="Group 1887" transform="translate(200.933 -378.861)">
      <g id="Group_1526" data-name="Group 1526" transform="translate(613.247 575.043)">
        <path id="Path_3219" data-name="Path 3219" d="M654.8,571.57a10.626,10.626,0,0,1,8.195-6.229c6.337-1.092,10.816.11,12.455.765S686.7,566,691.507,571.57s.552,7.647.712,8.085-18.671,3.6-26.025,1.092S654.8,571.57,654.8,571.57Z" transform="translate(-630.932 -498.672)" fill="#90be16"/>
        <path id="Path_3220" data-name="Path 3220" d="M645.305,580.019s.656-6.7,4.37-8.159,5.318-2.476,5.755-2.622,5.244-2.113,8.085,0,2.841,2.913,5.536,2.986,8.96.947,9.251,4.807,4.079,15.516,1.312,16.826-13.84,5.974-16.025,4.152S648.146,585.991,645.305,580.019Z" transform="translate(-634.116 -497.542)" fill="#5faa2e"/>
        <path id="Path_3221" data-name="Path 3221" d="M663.623,595.41s-1.531-3.933,2.4-7.648c1.092-5.9,1.748-8.851,3.387-10.27,0-2.4-.11-9.07,5.026-10.053,4.808,0,9.506,2.185,11.145,5.354,2.622.437,7.211,2.4,7.976,6.01,3.5,3.6,3.277,7.32,2.731,9.178s-1.3,20.978-6.935,21.525-14.917,5.245-16.884,2.731S663.623,595.41,663.623,595.41Z" transform="translate(-628.068 -497.82)" fill="#5ea036"/>
        <path id="Path_3222" data-name="Path 3222" d="M672.875,571.854s12.674,9.943,8.3,30.375" transform="translate(-624.865 -496.338)" fill="none" stroke="#e4ffa9" stroke-linecap="round" stroke-linejoin="round" stroke-width="2"/>
        <path id="Path_3223" data-name="Path 3223" d="M657.029,573.569a19.533,19.533,0,0,0,3.825,19.344" transform="translate(-630.544 -495.763)" fill="none" stroke="#e4ffa9" stroke-linecap="round" stroke-linejoin="round" stroke-width="2"/>
        <path id="Path_3224" data-name="Path 3224" d="M666.253,630.5s-13.876-1.092-20.759-14.1c-4.152-4.043-5.572-4.916-6.447-12.238-1.966-5.135-2.841-9.614-1.42-12.237a14.759,14.759,0,0,0,1.966-6.664c-.108-1.2-1.42-8.632.765-10.708s5.572-.546,6.774,1.421c1.967.109,6.01-.11,7.212,2.513,3.06,2.075,5.135-.438,9.287,6.993,1.858,1.093,9.287,1.747,11.035,5.791s6.664,7.422,5.9,10.758c3.06,1.042,10.27,9.127,7.648,17.65S681.55,634.108,666.253,630.5Z" transform="translate(-636.926 -495.763)" fill="#90be16"/>
        <path id="Path_3225" data-name="Path 3225" d="M672.231,628.836s-6.716-2.819-5.757-9.4,3.526-6.869,4.992-8.665,2.678-11.686,7.761-12.852,3.832-2.341,5.691-4.554,6.941-4.417,8.016-5.795,2.984-1.974,3.7-7.426,4.565-1.683,4.565-1.683,2.2,4.045,3.5,4.766,6.607,7.966-.618,21.179C699.834,614.725,693.452,629.688,672.231,628.836Z" transform="translate(-627.045 -494.545)" fill="#afd634"/>
        <path id="Path_3226" data-name="Path 3226" d="M643.15,588.194s-1.584,26.716,28.887,33.247" transform="translate(-634.843 -490.856)" fill="none" stroke="#fff" stroke-linecap="round" stroke-linejoin="round" stroke-width="2"/>
        <path id="Path_3227" data-name="Path 3227" d="M673.021,620.965s24.638-8.53,19.79-34.493" transform="translate(-624.817 -491.433)" fill="none" stroke="#fff" stroke-linecap="round" stroke-linejoin="round" stroke-width="2"/>
        <path id="Path_3228" data-name="Path 3228" d="M647.535,605.084s2.886-6.254,3.165-11.964" transform="translate(-633.368 -489.203)" fill="none" stroke="#fff" stroke-linecap="round" stroke-linejoin="round" stroke-width="2"/>
        <path id="Path_3229" data-name="Path 3229" d="M655.408,612.02s8.508-6.469,9.33-12.375" transform="translate(-630.727 -487.014)" fill="none" stroke="#fff" stroke-linecap="round" stroke-linejoin="round" stroke-width="2"/>
        <path id="Path_3230" data-name="Path 3230" d="M679.493,586.679s4.446-4.757,4.875-9.1" transform="translate(-622.645 -494.418)" fill="none" stroke="#e4ffa9" stroke-linecap="round" stroke-linejoin="round" stroke-width="2"/>
        <path id="Path_3231" data-name="Path 3231" d="M655.961,578.681s3.124-1.4,3.426-2.682" transform="translate(-630.54 -494.948)" fill="none" stroke="#e4ffa9" stroke-linecap="round" stroke-linejoin="round" stroke-width="2"/>
        <path id="Path_3232" data-name="Path 3232" d="M675.942,575.52a14.452,14.452,0,0,0,.748-3.666" transform="translate(-623.837 -496.338)" fill="none" stroke="#e4ffa9" stroke-linecap="round" stroke-linejoin="round" stroke-width="2"/>
        <path id="Path_3233" data-name="Path 3233" d="M673.738,579.017s3.066,2.241,5.886,2.484" transform="translate(-624.575 -493.935)" fill="none" stroke="#e4ffa9" stroke-linecap="round" stroke-linejoin="round" stroke-width="2"/>
        <path id="Path_3234" data-name="Path 3234" d="M646.007,605.506a10.691,10.691,0,0,0,4.713.128" transform="translate(-633.88 -485.047)" fill="none" stroke="#fff" stroke-linecap="round" stroke-linejoin="round" stroke-width="2"/>
        <path id="Path_3235" data-name="Path 3235" d="M679.226,600.314s-.859,5.91.531,10.512" transform="translate(-622.823 -486.789)" fill="none" stroke="#fff" stroke-linecap="round" stroke-linejoin="round" stroke-width="2"/>
        <path id="Path_3236" data-name="Path 3236" d="M685.919,591.694s-.859,5.91.532,10.512" transform="translate(-620.577 -489.681)" fill="none" stroke="#fff" stroke-linecap="round" stroke-linejoin="round" stroke-width="2"/>
        <g id="Path_3237" data-name="Path 3237" transform="translate(-636.926 -498.706)" fill="none" stroke-linecap="round" stroke-linejoin="round">
          <path d="M714.588,587.255c-1.3-.72-3.5-4.766-3.5-4.766s-3.846-3.767-4.565,1.684a12.453,12.453,0,0,1-1.417,4.764c.016-.083.034-.154.048-.208.546-1.856.765-5.572-2.731-9.178a6.458,6.458,0,0,0-2.646-3.746,8.3,8.3,0,0,0-2.27-4.339c-4.808-5.572-14.424-4.808-16.062-5.462s-6.118-1.858-12.455-.765a10.856,10.856,0,0,0-6.946,4.1,15.475,15.475,0,0,0-3.8.927c-.437.146-2.039,1.166-5.755,2.623-2.319.908-3.446,3.861-3.965,5.951-.518-.02-1-.029-1.389-.051-1.2-1.967-4.589-3.5-6.774-1.421s-.873,9.506-.765,10.707a14.768,14.768,0,0,1-1.966,6.666c-1.421,2.623-.546,7.1,1.42,12.237.875,7.32,2.294,8.195,6.447,12.238,6.883,13,20.759,14.1,20.759,14.1,7.4,1.744,12.163,1.258,15.409-.668.281.146.452.218.452.218,21.221.854,27.6-14.11,31.856-24.424C721.195,595.223,715.891,587.976,714.588,587.255Z" stroke="none"/>
          <path d="M 674.009033203125 564.796875 C 672.5068359375 564.796875 670.8243408203125 564.920654296875 668.9851684570312 565.2377319335938 C 665.3792114257812 565.8587646484375 663.2277221679688 567.7886352539062 662.0390625 569.3363037109375 C 660.1385498046875 569.515380859375 658.4878540039062 570.1805419921875 658.2408447265625 570.2632446289062 C 657.8041381835938 570.4088745117188 656.2014770507812 571.42919921875 652.4861450195312 572.8863525390625 C 650.1675415039062 573.7944946289062 649.0404052734375 576.7474365234375 648.5208129882812 578.83740234375 C 648.0027465820312 578.8173828125 647.5245971679688 578.80810546875 647.1319580078125 578.78662109375 C 645.9299926757812 576.8193969726562 642.5430297851562 575.2899780273438 640.358154296875 577.3656616210938 C 638.1732177734375 579.4410400390625 639.4846801757812 586.8718872070312 639.5929565429688 588.0724487304688 C 639.702392578125 589.2744750976562 639.046630859375 592.1151733398438 637.626953125 594.7381591796875 C 636.2059936523438 597.361083984375 637.0807495117188 601.8405151367188 639.046630859375 606.9754638671875 C 639.92138671875 614.2955322265625 641.3411254882812 615.1703491210938 645.4932250976562 619.2130126953125 C 652.3765258789062 632.2144165039062 666.252685546875 633.3081665039062 666.252685546875 633.3081665039062 C 673.6539916992188 635.0523681640625 678.4152221679688 634.566162109375 681.6619262695312 632.640380859375 C 681.9424438476562 632.7859497070312 682.1134643554688 632.8579711914062 682.1134643554688 632.8579711914062 C 703.336181640625 633.7117919921875 709.716064453125 618.7481689453125 713.9696655273438 608.4338989257812 C 721.1948852539062 595.2229614257812 715.8914184570312 587.9764404296875 714.5880737304688 587.255126953125 C 713.2858276367188 586.5353393554688 711.0835571289062 582.4886474609375 711.0835571289062 582.4886474609375 C 711.0835571289062 582.4887084960938 707.2371826171875 578.7213745117188 706.518798828125 584.1727905273438 C 706.2116088867188 586.5018920898438 705.686767578125 587.9403686523438 705.1017456054688 588.9366455078125 C 705.1178588867188 588.8538208007812 705.13525390625 588.7830200195312 705.14990234375 588.7283325195312 C 705.696044921875 586.8718872070312 705.9151611328125 583.1566162109375 702.4187622070312 579.5504760742188 C 702.0901489257812 578.0013427734375 701.0538330078125 576.7566528320312 699.7731323242188 575.804443359375 C 699.6502685546875 574.67578125 699.0426025390625 573.2508544921875 697.5027465820312 571.46533203125 C 692.6947631835938 565.8933715820312 683.0789794921875 566.6574096679688 681.4402465820312 566.0029296875 C 680.2771606445312 565.5374755859375 677.6828002929688 564.796875 674.009033203125 564.796875 M 674.009033203125 560.796875 C 678.4098510742188 560.796875 681.4246215820312 561.7186889648438 682.7023315429688 562.2020874023438 C 683.0001831054688 562.2474975585938 683.6396484375 562.3043212890625 684.1652221679688 562.3510131835938 C 686.02880859375 562.5164794921875 688.8450317382812 562.7666625976562 691.72314453125 563.5818481445312 C 695.4645385742188 564.6415405273438 698.427978515625 566.4147338867188 700.5311279296875 568.8521728515625 C 701.9365844726562 570.4818115234375 702.8765869140625 572.0540161132812 703.3746337890625 573.6163330078125 C 704.589599609375 574.7755737304688 705.4757080078125 576.1011352539062 705.9934692382812 577.5352783203125 C 706.0552368164062 577.6071166992188 706.1162719726562 577.6793212890625 706.1763916015625 577.751708984375 C 706.9071044921875 577.4030151367188 707.7135009765625 577.2203369140625 708.5612182617188 577.2203369140625 C 711.215087890625 577.220458984375 713.3051147460938 579.0654907226562 713.8824462890625 579.6309814453125 C 714.166259765625 579.9089965820312 714.4070434570312 580.2276611328125 714.5969848632812 580.5765991210938 C 715.3165893554688 581.8953247070312 716.3245239257812 583.4254760742188 716.7874755859375 583.9115600585938 C 718.020751953125 584.6968383789062 718.9494018554688 586.0159301757812 719.5250244140625 587.01708984375 C 720.4360961914062 588.6016845703125 721.0927124023438 590.501220703125 721.423828125 592.5103759765625 C 721.83251953125 594.9898071289062 721.7650146484375 597.6512451171875 721.2233276367188 600.420654296875 C 720.6116943359375 603.5475463867188 719.3882446289062 606.822021484375 717.5860595703125 610.156494140625 C 715.5555419921875 615.0789794921875 712.7716674804688 621.73876953125 707.7180786132812 627.154052734375 C 704.8914794921875 630.1829833984375 701.6026611328125 632.5346069335938 697.9429321289062 634.1435546875 C 693.793212890625 635.9678955078125 689.0446166992188 636.8929443359375 683.8289794921875 636.8929443359375 C 683.2925415039062 636.8929443359375 682.7437133789062 636.8831176757812 682.1941528320312 636.8638305664062 C 679.9231567382812 637.8851928710938 677.3259887695312 638.3842163085938 674.307861328125 638.3842163085938 C 671.7159423828125 638.3842163085938 668.8638916015625 638.01708984375 665.5964965820312 637.2625122070312 C 664.4791870117188 637.1383056640625 661.0220947265625 636.6299438476562 656.8477172851562 634.7993774414062 C 653.976806640625 633.5403442382812 651.3527221679688 631.9076538085938 649.04833984375 629.946533203125 C 646.3152465820312 627.62060546875 644.037353515625 624.8351440429688 642.27001953125 621.6591796875 C 642.134521484375 621.5281982421875 642.0022583007812 621.4005737304688 641.8729858398438 621.2759399414062 C 639.9766235351562 619.44677734375 638.478759765625 618.0020751953125 637.323974609375 615.8792114257812 C 636.2418212890625 613.889892578125 635.598388671875 611.5665893554688 635.1356201171875 607.9417114257812 C 632.572998046875 601.0784301757812 632.2484741210938 596.268798828125 634.1099243164062 592.8328247070312 C 635.2113647460938 590.7977294921875 635.5880126953125 588.8807983398438 635.6041259765625 588.3858642578125 C 635.591552734375 588.2756958007812 635.5638427734375 588.0628662109375 635.5408935546875 587.8865356445312 C 634.850830078125 582.5888061523438 634.6231689453125 577.2962036132812 637.6033935546875 574.4654541015625 C 639.0435180664062 573.097412109375 640.8597412109375 572.374267578125 642.8555908203125 572.374267578125 C 644.0944213867188 572.374267578125 645.3453369140625 572.6671752929688 646.4991455078125 573.1915893554688 C 647.6695556640625 571.2457885742188 649.1961059570312 569.8790893554688 651.02734375 569.161865234375 C 653.4574584960938 568.208740234375 654.9124755859375 567.45703125 655.6941528320312 567.0531616210938 C 656.197509765625 566.7931518554688 656.5344848632812 566.6190185546875 656.9423828125 566.4797973632812 C 656.9573364257812 566.4744262695312 656.9751586914062 566.4678955078125 656.9957275390625 566.4603881835938 C 657.4415283203125 566.2975463867188 658.5548706054688 565.890869140625 659.9874267578125 565.603271484375 C 661.71923828125 563.8192749023438 664.3868408203125 561.9707641601562 668.3062744140625 561.2957763671875 C 670.226318359375 560.9647827148438 672.145263671875 560.796875 674.009033203125 560.796875 Z" stroke="none" fill="#000"/>
        </g>
        <path id="Path_3238" data-name="Path 3238" d="M709.833,538.865a9.015,9.015,0,0,1,6.954-5.285,20.4,20.4,0,0,1,10.571.649c1.39.556,9.55-.093,13.63,4.636s.467,6.491.6,6.862-15.845,3.06-22.087.927A20.172,20.172,0,0,1,709.833,538.865Z" transform="translate(-615.93 -509.251)" fill="#90be16"/>
        <path id="Path_3239" data-name="Path 3239" d="M701.779,546.036s.557-5.687,3.709-6.923,4.513-2.1,4.884-2.225,4.45-1.794,6.862,0,2.411,2.472,4.7,2.533,7.6.8,7.852,4.08,3.462,13.167,1.112,14.279-11.745,5.07-13.6,3.523S704.19,551.1,701.779,546.036Z" transform="translate(-618.632 -508.293)" fill="#5faa2e"/>
        <path id="Path_3240" data-name="Path 3240" d="M717.324,559.1s-1.3-3.337,2.039-6.491c.928-5.007,1.484-7.511,2.875-8.716,0-2.041-.094-7.7,4.264-8.531,4.08,0,8.068,1.855,9.458,4.543,2.225.371,6.12,2.041,6.768,5.1a7.894,7.894,0,0,1,2.319,7.789c-.463,1.576-1.108,17.8-5.886,18.266s-12.659,4.451-14.328,2.319S717.324,559.1,717.324,559.1Z" transform="translate(-613.5 -508.529)" fill="#5ea036"/>
        <path id="Path_3241" data-name="Path 3241" d="M725.177,539.107s10.755,8.438,7.046,25.777" transform="translate(-610.782 -507.271)" fill="none" stroke="#e4ffa9" stroke-linecap="round" stroke-linejoin="round" stroke-width="2"/>
        <path id="Path_3242" data-name="Path 3242" d="M711.729,540.562a16.576,16.576,0,0,0,3.245,16.416" transform="translate(-615.601 -506.783)" fill="none" stroke="#e4ffa9" stroke-linecap="round" stroke-linejoin="round" stroke-width="2"/>
        <path id="Path_3243" data-name="Path 3243" d="M719.557,588.879s-11.775-.927-17.617-11.961c-3.523-3.431-4.729-4.174-5.47-10.385-1.669-4.359-2.412-8.16-1.206-10.385a12.534,12.534,0,0,0,1.669-5.657c-.093-1.019-1.206-7.324.649-9.087s4.729-.463,5.748,1.206c1.669.092,5.1-.092,6.121,2.133,2.6,1.761,4.358-.371,7.881,5.934,1.576.928,7.882,1.484,9.365,4.915s5.657,6.3,5.008,9.13c2.6.884,8.716,7.746,6.491,14.978S732.538,591.938,719.557,588.879Z" transform="translate(-621.018 -506.783)" fill="#90be16"/>
        <path id="Path_3244" data-name="Path 3244" d="M724.629,587.465s-5.7-2.392-4.885-7.973,2.992-5.83,4.236-7.353,2.273-9.918,6.587-10.907,3.251-1.986,4.828-3.865,5.891-3.748,6.8-4.917,2.532-1.675,3.142-6.3,3.874-1.429,3.874-1.429,1.868,3.434,2.974,4.045,5.606,6.762-.525,17.974C748.054,575.489,742.639,588.188,724.629,587.465Z" transform="translate(-612.632 -505.75)" fill="#afd634"/>
        <path id="Path_3245" data-name="Path 3245" d="M699.95,552.974s-1.344,22.672,24.515,28.214" transform="translate(-619.251 -502.619)" fill="none" stroke="#fff" stroke-linecap="round" stroke-linejoin="round" stroke-width="2"/>
        <path id="Path_3246" data-name="Path 3246" d="M725.3,580.784s20.908-7.238,16.794-29.272" transform="translate(-610.741 -503.109)" fill="none" stroke="#fff" stroke-linecap="round" stroke-linejoin="round" stroke-width="2"/>
        <path id="Path_3247" data-name="Path 3247" d="M703.672,567.307a32.438,32.438,0,0,0,2.686-10.153" transform="translate(-617.997 -501.216)" fill="none" stroke="#fff" stroke-linecap="round" stroke-linejoin="round" stroke-width="2"/>
        <path id="Path_3248" data-name="Path 3248" d="M710.353,573.193s7.221-5.491,7.918-10.5" transform="translate(-615.756 -499.358)" fill="none" stroke="#fff" stroke-linecap="round" stroke-linejoin="round" stroke-width="2"/>
        <path id="Path_3249" data-name="Path 3249" d="M730.793,551.687s3.773-4.037,4.136-7.723" transform="translate(-608.897 -505.642)" fill="none" stroke="#e4ffa9" stroke-linecap="round" stroke-linejoin="round" stroke-width="2"/>
        <path id="Path_3250" data-name="Path 3250" d="M710.822,544.9s2.652-1.19,2.907-2.276" transform="translate(-615.598 -506.091)" fill="none" stroke="#e4ffa9" stroke-linecap="round" stroke-linejoin="round" stroke-width="2"/>
        <path id="Path_3251" data-name="Path 3251" d="M727.779,542.219a12.272,12.272,0,0,0,.636-3.112" transform="translate(-609.908 -507.271)" fill="none" stroke="#e4ffa9" stroke-linecap="round" stroke-linejoin="round" stroke-width="2"/>
        <path id="Path_3252" data-name="Path 3252" d="M725.909,545.186a12.1,12.1,0,0,0,4.995,2.109" transform="translate(-610.536 -505.232)" fill="none" stroke="#e4ffa9" stroke-linecap="round" stroke-linejoin="round" stroke-width="2"/>
        <path id="Path_3253" data-name="Path 3253" d="M702.375,567.665a9.086,9.086,0,0,0,4,.109" transform="translate(-618.433 -497.689)" fill="none" stroke="#fff" stroke-linecap="round" stroke-linejoin="round" stroke-width="2"/>
        <path id="Path_3254" data-name="Path 3254" d="M730.566,563.259a24.361,24.361,0,0,0,.451,8.921" transform="translate(-609.049 -499.168)" fill="none" stroke="#fff" stroke-linecap="round" stroke-linejoin="round" stroke-width="2"/>
        <path id="Path_3255" data-name="Path 3255" d="M736.246,555.944a24.325,24.325,0,0,0,.451,8.92" transform="translate(-607.142 -501.622)" fill="none" stroke="#fff" stroke-linecap="round" stroke-linejoin="round" stroke-width="2"/>
        <g id="Path_3256" data-name="Path 3256" transform="translate(-621.018 -509.281)" fill="none" stroke-linecap="round" stroke-linejoin="round">
          <path d="M760.576,552.177c-1.106-.612-2.974-4.045-2.974-4.045s-3.264-3.2-3.874,1.429a10.582,10.582,0,0,1-1.2,4.043c.015-.069.028-.131.041-.176a7.9,7.9,0,0,0-2.319-7.789,5.487,5.487,0,0,0-2.245-3.18,7.03,7.03,0,0,0-1.927-3.681c-4.08-4.729-12.24-4.08-13.63-4.637a20.419,20.419,0,0,0-10.571-.649,9.214,9.214,0,0,0-5.9,3.479,13.058,13.058,0,0,0-3.222.787c-.371.123-1.731.988-4.884,2.225-1.967.772-2.923,3.277-3.364,5.051-.441-.017-.845-.025-1.179-.044-1.019-1.668-3.894-2.966-5.748-1.2s-.742,8.066-.649,9.087a12.528,12.528,0,0,1-1.669,5.656c-1.206,2.225-.463,6.027,1.206,10.385.741,6.213,1.947,6.954,5.47,10.385,5.841,11.034,17.617,11.961,17.617,11.961,6.281,1.481,10.322,1.068,13.076-.565.239.123.383.184.383.184,18.01.724,23.425-11.974,27.035-20.727C766.182,558.939,761.682,552.789,760.576,552.177Z" stroke="none"/>
          <path d="M 726.1375732421875 533.1179809570312 C 724.8629760742188 533.1179809570312 723.4356079101562 533.2229614257812 721.8750610351562 533.4918823242188 C 718.8153076171875 534.0193481445312 716.9883422851562 535.6566772460938 715.9798583984375 536.9708251953125 C 714.3680419921875 537.1218872070312 712.9669799804688 537.6867065429688 712.7574462890625 537.7575073242188 C 712.3861083984375 537.8803100585938 711.0265502929688 538.7457275390625 707.8734130859375 539.9825439453125 C 705.9061889648438 540.7544555664062 704.949951171875 543.2598266601562 704.5092163085938 545.0333862304688 C 704.068359375 545.01611328125 703.6637573242188 545.0081787109375 703.3298950195312 544.9893798828125 C 702.3108520507812 543.3213500976562 699.4353637695312 542.0233154296875 697.5817260742188 543.7848510742188 C 695.726806640625 545.54638671875 696.83935546875 551.851318359375 696.9327392578125 552.8716430664062 C 697.0248413085938 553.8908081054688 696.4693603515625 556.3026733398438 695.2633666992188 558.527587890625 C 694.0573120117188 560.7525634765625 694.7999877929688 564.5548095703125 696.4693603515625 568.9126586914062 C 697.2105102539062 575.1256713867188 698.4165649414062 575.8668212890625 701.9396362304688 579.2976684570312 C 707.7811279296875 590.3318481445312 719.5565185546875 591.2586669921875 719.5565185546875 591.2586669921875 C 725.837646484375 592.73974609375 729.8788452148438 592.3271484375 732.6326293945312 590.6937866210938 C 732.8717041015625 590.8165283203125 733.0160522460938 590.8781127929688 733.0160522460938 590.8781127929688 C 733.5095825195312 590.89794921875 733.9962158203125 590.9077758789062 734.4710083007812 590.9077758789062 C 751.3235473632812 590.9077758789062 756.5399169921875 578.663818359375 760.051025390625 570.1508178710938 C 766.1824951171875 558.9390258789062 761.6817016601562 552.788818359375 760.5758666992188 552.1771850585938 C 759.469970703125 551.5654907226562 757.6016845703125 548.1318359375 757.6016845703125 548.1318359375 C 757.6016845703125 548.1318359375 754.337646484375 544.9344482421875 753.7272338867188 549.5609130859375 C 753.4668579101562 551.5374145507812 753.020751953125 552.7581176757812 752.525390625 553.6034545898438 C 752.5400390625 553.5341796875 752.5533447265625 553.47265625 752.5667114257812 553.42724609375 C 753.0301513671875 551.851318359375 753.2158813476562 548.6981201171875 750.2481689453125 545.638427734375 C 749.9690551757812 544.3243408203125 749.0903930664062 543.2678833007812 748.0032348632812 542.4586181640625 C 747.8989868164062 541.5010375976562 747.3836059570312 540.2922973632812 746.0761108398438 538.7778930664062 C 741.99609375 534.0487670898438 733.8359375 534.6978759765625 732.4458618164062 534.140869140625 C 731.4580078125 533.74658203125 729.2557983398438 533.1179809570312 726.1375732421875 533.1179809570312 M 726.1375732421875 529.1179809570312 C 729.8965454101562 529.1179809570312 732.5123291015625 529.8964233398438 733.6685791015625 530.3258056640625 C 733.9227905273438 530.3602905273438 734.4112548828125 530.40380859375 734.81591796875 530.4398193359375 C 736.4197387695312 530.58251953125 738.843505859375 530.7982788085938 741.3397827148438 531.5057983398438 C 744.6293334960938 532.4381103515625 747.2418823242188 534.0056762695312 749.104736328125 536.1649780273438 C 750.3085327148438 537.5592651367188 751.1305541992188 538.9158935546875 751.5888061523438 540.2717895507812 C 752.5269165039062 541.1930541992188 753.2402954101562 542.2295532226562 753.7053833007812 543.346923828125 C 754.2584228515625 543.1549682617188 754.8483276367188 543.0555419921875 755.4609375 543.0555419921875 C 757.9425659179688 543.0556640625 759.869140625 544.7537231445312 760.4005126953125 545.274169921875 C 760.6844482421875 545.5521850585938 760.9253540039062 545.8710327148438 761.115234375 546.2200927734375 C 761.6725463867188 547.2410278320312 762.4559936523438 548.443603515625 762.839111328125 548.8754272460938 C 763.9522705078125 549.6111450195312 764.778076171875 550.7821655273438 765.2903442382812 551.6732788085938 C 766.0992431640625 553.0802001953125 766.6815185546875 554.7625732421875 766.9741821289062 556.5384521484375 C 767.332763671875 558.7140502929688 767.2744750976562 561.044921875 766.8009033203125 563.4662475585938 C 766.2717895507812 566.17138671875 765.218017578125 568.9984741210938 763.6676635742188 571.8727416992188 C 761.9274291992188 576.0906982421875 759.540771484375 581.786865234375 755.1884765625 586.4507446289062 C 752.7333374023438 589.0816040039062 749.8751831054688 591.124755859375 746.6935424804688 592.5234375 C 743.094482421875 594.1055297851562 738.9822387695312 594.90771484375 734.4710083007812 594.90771484375 C 734.0546875 594.90771484375 733.6298828125 594.9009399414062 733.2037963867188 594.8873901367188 C 731.2302856445312 595.7505493164062 728.9864501953125 596.1725463867188 726.39453125 596.1725463867188 C 724.1563720703125 596.1725463867188 721.700927734375 595.858154296875 718.8956909179688 595.2118530273438 C 717.8720092773438 595.0947265625 714.8955688476562 594.6417236328125 711.3323364257812 593.0792846679688 C 708.8419189453125 591.9873046875 706.5648193359375 590.5703735351562 704.564208984375 588.8677978515625 C 702.2120971679688 586.8660888671875 700.248046875 584.4727783203125 698.7191772460938 581.7466430664062 C 698.62548828125 581.6561279296875 698.5336303710938 581.5675048828125 698.4434814453125 581.4805908203125 C 696.7978515625 579.8931884765625 695.4979858398438 578.6393432617188 694.4739379882812 576.7562255859375 C 693.524658203125 575.0106201171875 692.9602661132812 572.9942626953125 692.5585327148438 569.8787231445312 C 690.3395385742188 563.9120483398438 690.0830688476562 559.690673828125 691.7467651367188 556.6213989257812 C 692.5816650390625 555.0811767578125 692.9047241210938 553.5899047851562 692.9396362304688 553.1531982421875 C 692.9281005859375 553.0593872070312 692.909912109375 552.919921875 692.8943481445312 552.8010864257812 C 692.28564453125 548.1431884765625 692.0985107421875 543.4757080078125 694.8272705078125 540.8843383789062 C 696.1439819335938 539.633056640625 697.8753051757812 538.943359375 699.7012329101562 538.943359375 C 700.6644897460938 538.943359375 701.6356201171875 539.1365966796875 702.553466796875 539.488525390625 C 703.5760498046875 537.9552001953125 704.8743896484375 536.8624267578125 706.4122924804688 536.2589721679688 C 708.4422607421875 535.4627075195312 709.6137084960938 534.8582153320312 710.3136596679688 534.4970703125 C 710.7457885742188 534.2740478515625 711.0633544921875 534.1101684570312 711.4469604492188 533.9782104492188 L 711.4846801757812 533.9644165039062 C 711.8572387695312 533.827880859375 712.760009765625 533.4970092773438 713.9359130859375 533.2467041015625 C 715.4776611328125 531.7023315429688 717.8118896484375 530.13330078125 721.195556640625 529.550048828125 C 722.859130859375 529.2633056640625 724.5217895507812 529.1179809570312 726.1375732421875 529.1179809570312 Z" stroke="none" fill="#000"/>
        </g>
        <path id="Path_3257" data-name="Path 3257" d="M654.8,513.344a7.933,7.933,0,0,1,7.471-1.8,17.951,17.951,0,0,1,8.285,4.261c.923.94,7.724,3.3,9.339,8.555s-1.919,5.394-1.94,5.74-13.844-3.139-18.118-7.064A17.748,17.748,0,0,1,654.8,513.344Z" transform="translate(-625.386 -510.987)" fill="#90be16"/>
        <path id="Path_3258" data-name="Path 3258" d="M644.98,516.017s2.459-4.383,5.436-4.264,4.377-.1,4.72-.065,4.219.129,5.526,2.426,1.068,2.844,2.888,3.7,5.84,3.336,4.88,6.062-1.868,11.83-4.153,11.9-11.254-.071-12.2-1.971S645.129,520.952,644.98,516.017Z" transform="translate(-627.104 -510.916)" fill="#5faa2e"/>
        <path id="Path_3259" data-name="Path 3259" d="M655.295,532.769a5.412,5.412,0,0,1,3.939-4.507c2.518-3.705,3.851-5.525,5.4-6,.721-1.643,2.647-6.232,6.452-5.363,3.286,1.443,5.842,4.347,6.012,7,1.661,1.086,4.207,3.808,3.648,6.5a6.947,6.947,0,0,1-.887,7.093c-.932,1.106-7.189,13.948-11.2,12.632s-11.771-.893-12.36-3.2S655.295,532.769,655.295,532.769Z" transform="translate(-625.299 -510.024)" fill="#5ea036"/>
        <path id="Path_3260" data-name="Path 3260" d="M668.693,520.729s5.68,10.6-3.44,23.254" transform="translate(-623.559 -509.335)" fill="none" stroke="#e4ffa9" stroke-linecap="round" stroke-linejoin="round" stroke-width="2"/>
        <path id="Path_3261" data-name="Path 3261" d="M655.657,516.563a14.582,14.582,0,0,0-3.192,14.37" transform="translate(-625.922 -510.064)" fill="none" stroke="#e4ffa9" stroke-linecap="round" stroke-linejoin="round" stroke-width="2"/>
        <path id="Path_3262" data-name="Path 3262" d="M643.906,557.285s-9.157-4.912-9.959-15.865c-1.625-4.01-2.334-5.033-.734-10.3.2-4.1.945-7.425,2.7-8.791a11.032,11.032,0,0,0,3.345-3.965c.286-.854,1.62-6.326,3.736-7.09s3.973,1.3,4.2,3c1.311.665,4.14,1.729,4.174,3.883,1.468,2.337,3.642,1.242,4.251,7.567.941,1.3,5.822,3.983,5.8,7.27s2.328,7.074.8,9.125c1.779,1.631,4.281,9.321-.069,14.36S653.28,564.341,643.906,557.285Z" transform="translate(-629.318 -511.017)" fill="#90be16"/>
        <path id="Path_3263" data-name="Path 3263" d="M651.828,558.29s-3.744-3.941-1.115-8.15,4.471-3.636,6.013-4.425,5.337-7.184,9.162-6.454,3.321-.451,5.256-1.406,6.07-.935,7.218-1.555,2.633-.453,4.76-3.963,3.626.219,3.626.219.29,3.427.964,4.31,2.125,7.428-6.779,14.291C674.931,556.93,666.079,565.243,651.828,558.29Z" transform="translate(-626.264 -507.569)" fill="#afd634"/>
        <path id="Path_3264" data-name="Path 3264" d="M639.832,523.283s-9.1,17.786,9.767,31.395" transform="translate(-628.387 -508.889)" fill="none" stroke="#fff" stroke-linecap="round" stroke-linejoin="round" stroke-width="2"/>
        <path id="Path_3265" data-name="Path 3265" d="M654.5,554.831s19.4,1.565,23.879-17.638" transform="translate(-625.439 -506.457)" fill="none" stroke="#fff" stroke-linecap="round" stroke-linejoin="round" stroke-width="2"/>
        <path id="Path_3266" data-name="Path 3266" d="M638.179,536.644a28.56,28.56,0,0,0,5.754-7.227" transform="translate(-628.292 -507.816)" fill="none" stroke="#fff" stroke-linecap="round" stroke-linejoin="round" stroke-width="2"/>
        <path id="Path_3267" data-name="Path 3267" d="M641.965,544.406s7.758-1.868,10.093-5.658" transform="translate(-627.631 -506.185)" fill="none" stroke="#fff" stroke-linecap="round" stroke-linejoin="round" stroke-width="2"/>
        <path id="Path_3268" data-name="Path 3268" d="M669.046,533.438s4.467-1.918,6.063-4.758" transform="translate(-622.895 -507.945)" fill="none" stroke="#e4ffa9" stroke-linecap="round" stroke-linejoin="round" stroke-width="2"/>
        <path id="Path_3269" data-name="Path 3269" d="M652.939,519.859s2.557-.02,3.146-.8" transform="translate(-625.711 -509.628)" fill="none" stroke="#e4ffa9" stroke-linecap="round" stroke-linejoin="round" stroke-width="2"/>
        <path id="Path_3270" data-name="Path 3270" d="M669.627,524.249a10.82,10.82,0,0,0,1.613-2.282" transform="translate(-622.794 -509.119)" fill="none" stroke="#e4ffa9" stroke-linecap="round" stroke-linejoin="round" stroke-width="2"/>
        <path id="Path_3271" data-name="Path 3271" d="M666.408,526.589a10.636,10.636,0,0,0,3.278,3.466" transform="translate(-623.356 -508.311)" fill="none" stroke="#e4ffa9" stroke-linecap="round" stroke-linejoin="round" stroke-width="2"/>
        <path id="Path_3272" data-name="Path 3272" d="M635.822,537.711a7.982,7.982,0,0,0,3.184,1.5" transform="translate(-628.703 -506.366)" fill="none" stroke="#fff" stroke-linecap="round" stroke-linejoin="round" stroke-width="2"/>
        <path id="Path_3273" data-name="Path 3273" d="M663.77,544.988a21.415,21.415,0,0,0-2.791,7.345" transform="translate(-624.306 -505.094)" fill="none" stroke="#fff" stroke-linecap="round" stroke-linejoin="round" stroke-width="2"/>
        <path id="Path_3274" data-name="Path 3274" d="M671.911,540.573a21.431,21.431,0,0,0-2.791,7.345" transform="translate(-622.883 -505.866)" fill="none" stroke="#fff" stroke-linecap="round" stroke-linejoin="round" stroke-width="2"/>
        <g id="Path_3275" data-name="Path 3275" transform="translate(-629.311 -511.031)" fill="none" stroke-linecap="round" stroke-linejoin="round">
          <path d="M690.8,540.234c-.673-.884-.964-4.31-.964-4.31s-1.5-3.73-3.625-.22a9.31,9.31,0,0,1-2.4,2.831,1.523,1.523,0,0,1,.1-.127,6.945,6.945,0,0,0,.887-7.094,4.821,4.821,0,0,0-.684-3.355,6.189,6.189,0,0,0-.25-3.647c-1.613-5.253-8.415-7.615-9.339-8.555a17.944,17.944,0,0,0-8.285-4.261,8.1,8.1,0,0,0-5.978.717,11.632,11.632,0,0,0-2.875-.507c-.342-.032-1.743.185-4.72.066-1.857-.074-3.514,1.605-4.5,2.878-.349-.17-.672-.319-.934-.452-.232-1.7-2.088-3.768-4.2-3s-3.452,6.235-3.737,7.09a11.018,11.018,0,0,1-3.345,3.965c-1.758,1.366-2.5,4.691-2.7,8.791-1.6,5.266-.891,6.29.734,10.3.8,10.953,9.959,15.865,9.959,15.865,4.536,3.413,7.936,4.51,10.733,4.168.148.185.243.284.243.284,14.249,6.953,23.1-1.36,29.106-7.134C692.926,547.662,691.476,541.117,690.8,540.234Z" stroke="none"/>
          <path d="M 665.341552734375 564.3009643554688 C 673.7459716796875 564.30126953125 679.6431274414062 558.7364501953125 684.0235595703125 554.52392578125 C 692.9263916015625 547.661865234375 691.4755859375 541.1170654296875 690.8012084960938 540.2335205078125 C 690.1281127929688 539.3499755859375 689.8367309570312 535.923095703125 689.8367309570312 535.923095703125 C 689.8367309570312 535.923095703125 688.3387451171875 532.193115234375 686.2112426757812 535.7034912109375 C 685.3018798828125 537.20361328125 684.5111694335938 538.0296630859375 683.8134155273438 538.53466796875 C 683.8486328125 538.4830322265625 683.8815307617188 538.4395751953125 683.9086303710938 538.4078369140625 C 684.8389282226562 537.30126953125 686.1043090820312 534.828125 684.7955932617188 531.3143310546875 C 685.036376953125 530.1571044921875 684.7015991210938 528.9952392578125 684.11181640625 527.958984375 C 684.3667602539062 527.1507568359375 684.37841796875 525.9947509765625 683.8616333007812 524.3123779296875 C 682.24853515625 519.059814453125 675.4462890625 516.697265625 674.5230712890625 515.7574462890625 C 673.5995483398438 514.817626953125 670.8985595703125 512.651123046875 666.2380981445312 511.4963073730469 C 663.5877075195312 510.8383178710938 661.53759765625 511.5115356445312 660.2605590820312 512.2130126953125 C 658.9083862304688 511.7652893066406 657.57958984375 511.7253112792969 657.3858032226562 511.7064514160156 C 657.1184692382812 511.6817626953125 656.2048950195312 511.8081970214844 654.3992309570312 511.8082275390625 C 653.89306640625 511.8082275390625 653.317138671875 511.7982788085938 652.6653442382812 511.7723083496094 C 650.80859375 511.6991577148438 649.1514892578125 513.3773803710938 648.1693725585938 514.6505126953125 C 647.8204345703125 514.4803466796875 647.4973754882812 514.3311767578125 647.2354736328125 514.1983642578125 C 647.00390625 512.49365234375 645.147705078125 510.4307861328125 643.031982421875 511.1943664550781 C 640.9148559570312 511.9579772949219 639.5802612304688 517.4290771484375 639.294677734375 518.284423828125 C 639.0093994140625 519.1385498046875 637.7075805664062 520.883056640625 635.9500732421875 522.2493896484375 C 634.1925659179688 523.61572265625 633.4453125 526.9404296875 633.2479858398438 531.04052734375 C 631.6490478515625 536.3060302734375 632.3574829101562 537.33056640625 633.9822387695312 541.340087890625 C 634.78466796875 552.29296875 643.941162109375 557.2049560546875 643.941162109375 557.2049560546875 C 648.4771118164062 560.61767578125 651.8772583007812 561.7154541015625 654.6744384765625 561.3731689453125 C 654.8223876953125 561.5577392578125 654.9176025390625 561.657470703125 654.9176025390625 561.657470703125 C 658.7695922851562 563.5369262695312 662.2279052734375 564.3008422851562 665.341552734375 564.3009643554688 M 665.3422241210938 568.3009643554688 L 665.3422241210938 564.3009643554688 L 665.3421020507812 568.3009643554688 C 661.5245971679688 568.3008422851562 657.5548095703125 567.3356323242188 653.5365600585938 565.4317626953125 C 651.7030029296875 565.4091186523438 649.7694702148438 564.9736938476562 647.787109375 564.1367797851562 C 645.8750610351562 563.3294677734375 643.8944702148438 562.1560668945312 641.739013671875 560.5529174804688 C 639.933349609375 559.487548828125 631.19921875 553.7711181640625 630.0499877929688 542.290771484375 C 630.0162353515625 542.20849609375 629.9830322265625 542.1275634765625 629.9502563476562 542.0478515625 C 629.2008666992188 540.2232666015625 628.5537109375 538.6474609375 628.3882446289062 536.6946411132812 C 628.2362670898438 534.9009399414062 628.4951782226562 533.0382080078125 629.2791748046875 530.3528442382812 C 629.6171875 524.6464233398438 630.9617309570312 521.0609130859375 633.4949951171875 519.0914306640625 C 634.6060791015625 518.2276611328125 635.3313598632812 517.2579956054688 635.5325927734375 516.9112548828125 C 635.5541381835938 516.8385009765625 635.5809326171875 516.7465209960938 635.6044311523438 516.6661376953125 C 636.7973022460938 512.5768432617188 638.3583374023438 508.6278381347656 641.6748046875 507.431640625 C 642.41162109375 507.1656799316406 643.1759643554688 507.0307006835938 643.9457397460938 507.0307006835938 C 645.6478271484375 507.0307006835938 647.2880249023438 507.6864624023438 648.6218872070312 508.8889465332031 C 649.8851928710938 508.1498107910156 651.205078125 507.7699584960938 652.54638671875 507.7699584960938 C 652.6385498046875 507.7699584960938 652.7319946289062 507.7718200683594 652.8241577148438 507.7754821777344 C 653.36962890625 507.7972106933594 653.8994140625 507.8082275390625 654.3992309570312 507.8082275390625 C 655.3991088867188 507.8081970214844 656.0882568359375 507.7647399902344 656.5442504882812 507.7359619140625 C 656.8338623046875 507.7176818847656 657.0625610351562 507.7032470703125 657.2990112304688 507.7032470703125 C 657.4467163085938 507.7032470703125 657.58544921875 507.7089233398438 657.7219848632812 507.7205810546875 L 657.758544921875 507.7230224609375 C 658.09912109375 507.7453308105469 658.9006958007812 507.7978210449219 659.8917846679688 507.9925842285156 C 661.2343139648438 507.4895629882812 662.6647338867188 507.2279663085938 664.1043090820312 507.2279663085938 C 665.12744140625 507.2279663085938 666.1695556640625 507.3578796386719 667.2017822265625 507.6141357421875 C 672.8060913085938 509.0028076171875 676.0271606445312 511.6562805175781 677.1505126953125 512.7315063476562 C 677.34619140625 512.8480834960938 677.699462890625 513.0421752929688 677.97119140625 513.1914672851562 C 679.228515625 513.8822021484375 681.1285400390625 514.926025390625 682.92431640625 516.4076538085938 C 685.3187255859375 518.3832397460938 686.9205322265625 520.647705078125 687.6853637695312 523.1380615234375 C 688.1656494140625 524.70166015625 688.3574829101562 526.1083984375 688.26220703125 527.392822265625 C 688.63232421875 528.3483276367188 688.8360595703125 529.3145751953125 688.8690795898438 530.2688598632812 C 689.9326782226562 530.447265625 691.37060546875 531.0289306640625 692.5912475585938 532.71484375 C 693.148681640625 533.4847412109375 693.4649047851562 534.22412109375 693.548583984375 534.432373046875 C 693.6964721679688 534.8005981445312 693.7887573242188 535.1887817382812 693.8223266601562 535.5841674804688 C 693.90380859375 536.52490234375 694.0906372070312 537.6846313476562 694.2347412109375 538.1738891601562 C 694.892822265625 539.2264404296875 695.15380859375 540.5078125 695.2553100585938 541.4424438476562 C 695.41552734375 542.9183349609375 695.2854614257812 544.5384521484375 694.8792114257812 546.1275634765625 C 694.384521484375 548.0624389648438 693.4895629882812 549.9713745117188 692.2191162109375 551.8013916015625 C 690.8128662109375 553.8271484375 688.937744140625 555.7616577148438 686.6434326171875 557.553955078125 C 684.555419921875 559.561279296875 681.7310180664062 562.249755859375 678.3096923828125 564.3853149414062 C 676.3800048828125 565.5897827148438 674.4016723632812 566.5263671875 672.4297485351562 567.1688842773438 C 670.124267578125 567.9201049804688 667.7396850585938 568.3009643554688 665.3422241210938 568.3009643554688 Z" stroke="none" fill="#000"/>
        </g>
      </g>
    </g>
  </g>
</svg>
