<svg xmlns="http://www.w3.org/2000/svg" width="196" height="196" viewBox="0 0 196 196">
  <g id="Group_1981" data-name="Group 1981" transform="translate(-1017 -166)">
    <g id="Group_1974" data-name="Group 1974">
      <g id="Group_1958" data-name="Group 1958">
        <g id="Group_1828" data-name="Group 1828" transform="translate(720 97)">
          <rect id="Rectangle_1254" data-name="Rectangle 1254" width="196" height="196" rx="5" transform="translate(297 69)" fill="#fff"/>
        </g>
      </g>
    </g>
    <g id="Group_1869" data-name="Group 1869" transform="translate(237.794 -390.842)">
      <g id="Group_1528" data-name="Group 1528" transform="translate(806.583 589.017)">
        <path id="Path_2652" data-name="Path 2652" d="M826.142,539.014s1.182-12.077,7.876-14.7,9.582-4.462,10.369-4.725,9.451-3.807,14.57,0,5.12,5.25,9.976,5.381,16.145,1.707,16.669,8.663,7.351,27.959,2.363,30.322-24.94,10.764-28.878,7.482S831.262,549.778,826.142,539.014Z" transform="translate(-805.978 -509.486)" fill="#5faa2e"/>
        <path id="Path_2653" data-name="Path 2653" d="M862.647,566.59s-2.756-7.089,4.331-13.783c1.969-10.632,3.151-15.948,6.1-18.507,0-4.332-.2-16.343,9.056-18.115,8.663,0,17.13,3.938,20.083,9.648,4.727.787,13,4.331,14.374,10.829,6.3,6.5,5.907,13.192,4.922,16.539s-2.352,37.8-12.5,38.788-26.881,9.451-30.424,4.923S862.647,566.59,862.647,566.59Z" transform="translate(-798.576 -509.826)" fill="#5ea036"/>
        <path id="Path_2654" data-name="Path 2654" d="M881.173,525s22.839,17.917,14.963,54.737" transform="translate(-794.656 -508.013)" fill="none" stroke="#e4ffa9" stroke-linecap="round" stroke-linejoin="round" stroke-width="3"/>
        <path id="Path_2655" data-name="Path 2655" d="M849.335,528.42s-7.482,18.713,6.892,34.858" transform="translate(-801.607 -507.309)" fill="none" stroke="#e4ffa9" stroke-linecap="round" stroke-linejoin="round" stroke-width="3"/>
        <path id="Path_2656" data-name="Path 2656" d="M862.267,631.017s-25.006-1.969-37.409-25.4c-7.482-7.285-10.041-8.861-11.617-22.053-3.544-9.254-5.118-17.327-2.559-22.052s3.74-9.845,3.544-12.01-2.56-15.554,1.378-19.3,10.041-.984,12.207,2.56c3.545.2,10.83-.2,13,4.529,5.513,3.74,9.254-.787,16.736,12.6,3.347,1.969,16.736,3.149,19.886,10.435s12.01,13.374,10.632,19.387c5.513,1.877,18.508,16.448,13.783,31.805S889.831,637.513,862.267,631.017Z" transform="translate(-809.419 -507.309)" fill="#90be16" stroke="#000" stroke-miterlimit="10" stroke-width="2"/>
        <path id="Path_2657" data-name="Path 2657" d="M878.751,628.716s-12.1-5.077-10.375-16.93,6.354-12.377,9-15.613,4.825-21.061,13.985-23.16,6.9-4.218,10.254-8.208,12.509-7.958,14.446-10.443,5.376-3.557,6.673-13.38,8.227-3.034,8.227-3.034,3.967,7.292,6.316,8.591,11.906,14.357-1.114,38.163C928.494,603.289,916.994,630.255,878.751,628.716Z" transform="translate(-797.324 -505.818)" fill="#afd634" stroke="#000" stroke-miterlimit="10" stroke-width="2"/>
        <path id="Path_2658" data-name="Path 2658" d="M819.085,554.006s-3.151,53.161,57.483,66.157" transform="translate(-807.436 -502.044)" fill="none" stroke="#fff" stroke-linecap="round" stroke-linejoin="round" stroke-width="3"/>
        <path id="Path_2659" data-name="Path 2659" d="M884.928,618.847s49.027-16.973,39.38-68.637" transform="translate(-793.884 -502.826)" fill="none" stroke="#fff" stroke-linecap="round" stroke-linejoin="round" stroke-width="3"/>
        <path id="Path_2660" data-name="Path 2660" d="M828.754,588.669s5.744-12.444,6.3-23.806" transform="translate(-805.441 -499.811)" fill="none" stroke="#fff" stroke-linecap="round" stroke-linejoin="round" stroke-width="3"/>
        <path id="Path_2661" data-name="Path 2661" d="M846.106,603.869S863.039,591,864.673,579.245" transform="translate(-801.871 -496.852)" fill="none" stroke="#fff" stroke-linecap="round" stroke-linejoin="round" stroke-width="3"/>
        <path id="Path_2662" data-name="Path 2662" d="M894.383,552.822s8.01-8.573,8.783-16.4" transform="translate(-791.938 -505.662)" fill="none" stroke="#e4ffa9" stroke-linecap="round" stroke-linejoin="round" stroke-width="3"/>
        <path id="Path_2663" data-name="Path 2663" d="M882.9,539.294s5.526,4.04,10.606,4.478" transform="translate(-794.302 -505.071)" fill="none" stroke="#e4ffa9" stroke-linecap="round" stroke-linejoin="round" stroke-width="3"/>
        <path id="Path_2664" data-name="Path 2664" d="M825.386,592.163s5.37,1.4,9.379.255" transform="translate(-806.134 -494.194)" fill="none" stroke="#fff" stroke-linecap="round" stroke-linejoin="round" stroke-width="3"/>
        <path id="Path_2665" data-name="Path 2665" d="M898.546,580.72s-1.707,11.76,1.059,20.917" transform="translate(-791.189 -496.548)" fill="none" stroke="#fff" stroke-linecap="round" stroke-linejoin="round" stroke-width="3"/>
        <path id="Path_2666" data-name="Path 2666" d="M913.3,561.72s-1.707,11.76,1.059,20.917" transform="translate(-788.154 -500.457)" fill="none" stroke="#fff" stroke-linecap="round" stroke-linejoin="round" stroke-width="3"/>
        <g id="Path_2667" data-name="Path 2667" transform="translate(-809.419 -510.911)" fill="none" stroke-linecap="round" stroke-linejoin="round">
          <path d="M949.367,551.383c-2.348-1.3-6.314-8.59-6.314-8.59s-6.931-6.79-8.227,3.034a22.456,22.456,0,0,1-2.553,8.584c.03-.147.059-.276.087-.372.985-3.348,1.379-10.043-4.922-16.539a11.637,11.637,0,0,0-4.769-6.752c-.222-2.033-1.315-4.6-4.091-7.818-8.663-10.041-25.99-8.663-28.944-9.845s-11.025-3.347-22.446-1.378a19.564,19.564,0,0,0-12.517,7.386,27.964,27.964,0,0,0-6.844,1.67c-.787.263-3.675,2.1-10.369,4.727-4.179,1.639-6.208,6.958-7.145,10.725-.936-.037-1.8-.054-2.5-.093-2.166-3.545-8.269-6.3-12.207-2.56s-1.576,17.129-1.378,19.3-.985,7.285-3.545,12.01-.984,12.8,2.56,22.052c1.576,13.192,4.135,14.767,11.617,22.052,12.4,23.43,37.409,25.4,37.409,25.4,13.337,3.145,21.917,2.269,27.766-1.2.506.263.814.392.814.392,38.243,1.537,49.743-25.427,57.408-44.013C961.274,565.741,951.716,552.682,949.367,551.383Z" stroke="none"/>
          <path d="M 876.2442626953125 510.9109497070312 C 873.53662109375 510.9109497070312 870.5038452148438 511.1340942382812 867.1885986328125 511.7056884765625 C 860.6920166015625 512.8258056640625 856.8131713867188 516.3019409179688 854.6718139648438 519.0919799804688 C 851.2474365234375 519.4151000976562 848.2741088867188 520.6136474609375 847.827880859375 520.761962890625 C 847.0405883789062 521.0247802734375 844.1528930664062 522.8623657226562 837.4586181640625 525.4884643554688 C 833.2794799804688 527.1270141601562 831.250244140625 532.4467163085938 830.3132934570312 536.2135620117188 C 829.377685546875 536.1761474609375 828.5180053710938 536.1593627929688 827.8102416992188 536.1206665039062 C 825.6446533203125 532.5758666992188 819.5413818359375 529.8195190429688 815.603271484375 533.5609130859375 C 811.6654052734375 537.3011474609375 814.0274658203125 550.6896362304688 814.2251586914062 552.8564453125 C 814.4216918945312 555.0218505859375 813.2400512695312 560.1414794921875 810.6802368164062 564.8667602539062 C 808.1217041015625 569.592041015625 809.6964111328125 577.6644897460938 813.2400512695312 586.9185791015625 C 814.8159790039062 600.110595703125 817.3745727539062 601.685302734375 824.857421875 608.9703979492188 C 837.2608642578125 632.400390625 862.2667846679688 634.3693237304688 862.2667846679688 634.3693237304688 C 875.6033935546875 637.513916015625 884.1834716796875 636.638671875 890.0325317382812 633.16845703125 C 890.5389404296875 633.431396484375 890.846435546875 633.560302734375 890.846435546875 633.560302734375 C 891.8944702148438 633.6024169921875 892.9282836914062 633.6232299804688 893.9365844726562 633.6232299804688 C 929.7222900390625 633.6232299804688 940.7993774414062 607.6243286132812 948.2542114257812 589.547119140625 C 961.2737426757812 565.740966796875 951.7159423828125 552.6815795898438 949.3671264648438 551.3829956054688 C 947.0194702148438 550.08447265625 943.0526733398438 542.7933349609375 943.0526733398438 542.7933349609375 C 943.0526733398438 542.7933349609375 936.1220703125 536.0034790039062 934.8258666992188 545.8269653320312 C 934.2724609375 550.0241088867188 933.3258666992188 552.616455078125 932.2733154296875 554.4105224609375 C 932.303466796875 554.2635498046875 932.3323974609375 554.1344604492188 932.360107421875 554.0380859375 C 933.34521484375 550.6896362304688 933.7395629882812 543.995361328125 927.438232421875 537.498779296875 C 926.8463134765625 534.7063598632812 924.9786376953125 532.463623046875 922.6694946289062 530.7467041015625 C 922.44775390625 528.7138671875 921.3541259765625 526.1455688476562 918.5785522460938 522.9287109375 C 909.9152221679688 512.8872680664062 892.5886840820312 514.265380859375 889.6347045898438 513.0838012695312 C 887.5389404296875 512.2451782226562 882.8641967773438 510.9109497070312 876.2442626953125 510.9109497070312 M 876.2442626953125 505.9109497070312 C 884.0725708007812 505.9109497070312 889.291748046875 507.5828857421875 891.32421875 508.3753051757812 C 891.8344116210938 508.4796752929688 893.2258911132812 508.6033935546875 894.3552856445312 508.703857421875 C 901.3784790039062 509.328369140625 914.4513549804688 510.4907836914062 922.3643188476562 519.6625366210938 C 924.8629760742188 522.5584716796875 926.4638671875 525.30908203125 927.2149047851562 528.0103759765625 C 928.171142578125 528.8701782226562 929.0103149414062 529.787353515625 929.7212524414062 530.7509155273438 C 930.7046508789062 532.0838012695312 931.4459838867188 533.5065307617188 931.9348754882812 534.9964599609375 C 932.565185546875 535.7083740234375 933.1471557617188 536.4374389648438 933.6797485351562 537.1820068359375 C 935.0492553710938 536.0921630859375 936.7128295898438 535.50732421875 938.5065307617188 535.50732421875 C 940.4268188476562 535.5076904296875 942.4014282226562 536.1734619140625 944.3767700195312 537.4861450195312 C 945.56982421875 538.2789916992188 946.3975219726562 539.0706176757812 946.55126953125 539.2212524414062 C 946.9061889648438 539.56884765625 947.207275390625 539.9674072265625 947.4447021484375 540.40380859375 C 947.4518432617188 540.4169311523438 948.2642822265625 541.9041137695312 949.3248291015625 543.5694580078125 C 950.9344482421875 546.0969848632812 951.7601928710938 546.9244384765625 951.9605102539062 547.1070556640625 C 953.9952392578125 548.3148193359375 955.5767211914062 550.7098999023438 956.3494873046875 552.0538330078125 C 957.8609619140625 554.6822509765625 958.9528198242188 557.8489379882812 959.5072021484375 561.2113647460938 C 960.2008666992188 565.4189453125 960.0833740234375 569.9514770507812 959.1580810546875 574.6830444335938 C 958.0927734375 580.1300659179688 955.9452514648438 585.8547973632812 952.7739868164062 591.7020874023438 C 949.175537109375 600.4268798828125 944.2440185546875 612.2716064453125 935.3749389648438 621.7754516601562 C 933.03173828125 624.286376953125 930.492431640625 626.5438232421875 927.8275146484375 628.485107421875 C 924.925048828125 630.5994262695312 921.7816162109375 632.4063720703125 918.4845581054688 633.855712890625 C 914.9711303710938 635.400146484375 911.18017578125 636.583984375 907.2169189453125 637.374267578125 C 903.0607299804688 638.2030029296875 898.5925903320312 638.6232299804688 893.9365844726562 638.6232299804688 C 892.8584594726562 638.6232299804688 891.7512817382812 638.6007080078125 890.6456298828125 638.5562744140625 C 890.6112060546875 638.554931640625 890.5767211914062 638.5531616210938 890.5423583984375 638.551025390625 C 888.9439086914062 639.3046875 887.2300415039062 639.9066162109375 885.42333984375 640.34765625 C 882.807861328125 640.986083984375 879.9017333984375 641.309814453125 876.7857055664062 641.309814453125 C 872.247314453125 641.309814453125 867.22607421875 640.6561279296875 861.444091796875 639.3118896484375 C 859.7808837890625 639.1300048828125 853.5916137695312 638.27392578125 846.20556640625 635.0352172851562 C 841.2291259765625 632.8532104492188 836.6834716796875 630.0256958007812 832.69482421875 626.6312866210938 C 827.8908081054688 622.54296875 823.8995971679688 617.6310424804688 820.8219604492188 612.0213623046875 C 820.4945068359375 611.7042846679688 820.176025390625 611.3970947265625 819.8643798828125 611.0965576171875 C 816.5841064453125 607.932861328125 813.9931640625 605.4340209960938 812.0746459960938 601.9072265625 C 810.2401123046875 598.5347290039062 809.1495971679688 594.5128784179688 808.3505859375 588.1268920898438 C 806.4307861328125 583.0270385742188 805.2415161132812 578.6865844726562 804.71826171875 574.8742065429688 C 804.400390625 572.5582885742188 804.336181640625 570.415771484375 804.52734375 568.5062866210938 C 804.7537841796875 566.2454223632812 805.3445434570312 564.2199096679688 806.2833862304688 562.486083984375 C 807.2525634765625 560.697021484375 808.0887451171875 558.6326904296875 808.6383666992188 556.6725463867188 C 809.1824340820312 554.7322998046875 809.260498046875 553.5647583007812 809.2450561523438 553.3023071289062 C 809.2291259765625 553.1325073242188 809.1705322265625 552.6837768554688 809.1138916015625 552.249755859375 C 808.83837890625 550.1392822265625 808.325439453125 546.2108154296875 808.3434448242188 542.278564453125 C 808.3543090820312 539.8836059570312 808.5543212890625 537.8604736328125 808.9547119140625 536.093505859375 C 809.5513305664062 533.4607543945312 810.6296997070312 531.3889770507812 812.159912109375 529.935546875 C 814.3370361328125 527.8671875 817.08447265625 526.773681640625 820.104736328125 526.773681640625 C 822.474609375 526.773681640625 824.8970336914062 527.4572143554688 827.110107421875 528.7503051757812 C 827.2639770507812 528.8401489257812 827.4160766601562 528.9327392578125 827.5664672851562 529.0278930664062 C 829.5333862304688 524.9459838867188 832.2658081054688 522.1538696289062 835.6334838867188 520.83349609375 C 840.1209716796875 519.0731201171875 842.8087158203125 517.6846923828125 844.252685546875 516.9387817382812 C 845.112060546875 516.494873046875 845.634521484375 516.2250366210938 846.2249755859375 516.0258178710938 C 846.2584838867188 516.013916015625 846.3016357421875 515.998046875 846.3539428710938 515.97900390625 C 847.1795654296875 515.6781005859375 849.3573608398438 514.8844604492188 852.0874633789062 514.4024047851562 C 854.9287719726562 511.3070678710938 859.469482421875 507.9628295898438 866.3390502929688 506.7783813476562 C 869.677490234375 506.2028198242188 873.0100708007812 505.9109497070312 876.2442626953125 505.9109497070312 Z" stroke="none" fill="#000"/>
        </g>
      </g>
    </g>
  </g>
</svg>
