<svg xmlns="http://www.w3.org/2000/svg" width="130.699" height="114.001" viewBox="0 0 130.699 114.001">
  <g id="Group_1529" data-name="Group 1529" transform="translate(-801.584 -584.017)">
    <g id="Group_1528" data-name="Group 1528">
      <path id="Path_2652" data-name="Path 2652" d="M826.142,535.4s.98-10.016,6.532-12.193,7.947-3.7,8.6-3.919,7.838-3.157,12.084,0,4.246,4.354,8.274,4.463,13.39,1.416,13.825,7.185,6.1,23.188,1.96,25.148-20.684,8.927-23.95,6.205S830.388,544.327,826.142,535.4Z" transform="translate(-2.836 78.106)" fill="#5faa2e"/>
      <path id="Path_2653" data-name="Path 2653" d="M862.557,557.989s-2.286-5.879,3.592-11.431c1.633-8.818,2.613-13.227,5.063-15.349,0-3.593-.164-13.554,7.511-15.024,7.185,0,14.207,3.266,16.656,8,3.92.653,10.778,3.592,11.921,8.981,5.225,5.389,4.9,10.941,4.082,13.717s-1.951,31.353-10.365,32.169-22.294,7.838-25.233,4.083S862.557,557.989,862.557,557.989Z" transform="translate(-2.836 78.106)" fill="#5ea036"/>
      <path id="Path_2654" data-name="Path 2654" d="M881.173,525s18.942,14.86,12.41,45.4" transform="translate(-2.836 78.106)" fill="none" stroke="#e4ffa9" stroke-linecap="round" stroke-linejoin="round" stroke-width="3"/>
      <path id="Path_2655" data-name="Path 2655" d="M849,528.42s-6.205,15.52,5.716,28.91" transform="translate(-2.836 78.106)" fill="none" stroke="#e4ffa9" stroke-linecap="round" stroke-linejoin="round" stroke-width="3"/>
      <path id="Path_2656" data-name="Path 2656" d="M853.249,613.51s-20.739-1.633-31.026-21.065c-6.205-6.042-8.328-7.349-9.635-18.29-2.939-7.675-4.245-14.37-2.122-18.289s3.1-8.165,2.939-9.961-2.123-12.9,1.143-16,8.328-.816,10.124,2.123c2.94.163,8.982-.163,10.778,3.756,4.572,3.1,7.675-.653,13.88,10.451,2.776,1.633,13.88,2.612,16.493,8.654s9.961,11.092,8.818,16.079c4.572,1.557,15.35,13.641,11.431,26.378S876.11,618.9,853.249,613.51Z" transform="translate(-2.836 78.106)" fill="#90be16" stroke="#000" stroke-miterlimit="10" stroke-width="2"/>
      <path id="Path_2657" data-name="Path 2657" d="M876.952,612.838s-10.038-4.211-8.605-14.041,5.27-10.265,7.462-12.949,4-17.467,11.6-19.208,5.726-3.5,8.5-6.807,10.375-6.6,11.981-8.661,4.459-2.95,5.534-11.1,6.823-2.516,6.823-2.516,3.29,6.048,5.238,7.125,9.874,11.907-.924,31.651C918.207,591.75,908.669,614.114,876.952,612.838Z" transform="translate(-2.836 78.106)" fill="#afd634" stroke="#000" stroke-miterlimit="10" stroke-width="2"/>
      <path id="Path_2658" data-name="Path 2658" d="M819.08,554.006s-2.613,44.09,47.674,54.868" transform="translate(-2.836 78.106)" fill="none" stroke="#fff" stroke-linecap="round" stroke-linejoin="round" stroke-width="3"/>
      <path id="Path_2659" data-name="Path 2659" d="M884.928,607.135s40.661-14.077,32.66-56.925" transform="translate(-2.836 78.106)" fill="none" stroke="#fff" stroke-linecap="round" stroke-linejoin="round" stroke-width="3"/>
      <path id="Path_2660" data-name="Path 2660" d="M828.754,584.607s4.764-10.321,5.223-19.744" transform="translate(-2.836 78.106)" fill="none" stroke="#fff" stroke-linecap="round" stroke-linejoin="round" stroke-width="3"/>
      <path id="Path_2661" data-name="Path 2661" d="M846.106,599.667s14.044-10.676,15.4-20.422" transform="translate(-2.836 78.106)" fill="none" stroke="#fff" stroke-linecap="round" stroke-linejoin="round" stroke-width="3"/>
      <path id="Path_2662" data-name="Path 2662" d="M894.383,550.023s6.643-7.11,7.284-13.6" transform="translate(-2.836 78.106)" fill="none" stroke="#e4ffa9" stroke-linecap="round" stroke-linejoin="round" stroke-width="3"/>
      <path id="Path_2663" data-name="Path 2663" d="M882.9,539.294s4.583,3.351,8.8,3.714" transform="translate(-2.836 78.106)" fill="none" stroke="#e4ffa9" stroke-linecap="round" stroke-linejoin="round" stroke-width="3"/>
      <path id="Path_2664" data-name="Path 2664" d="M825.386,592.163s4.454,1.163,7.779.212" transform="translate(-2.836 78.106)" fill="none" stroke="#fff" stroke-linecap="round" stroke-linejoin="round" stroke-width="3"/>
      <path id="Path_2665" data-name="Path 2665" d="M898.457,580.72s-1.416,9.753.878,17.348" transform="translate(-2.836 78.106)" fill="none" stroke="#fff" stroke-linecap="round" stroke-linejoin="round" stroke-width="3"/>
      <path id="Path_2666" data-name="Path 2666" d="M913.209,561.72s-1.416,9.753.878,17.348" transform="translate(-2.836 78.106)" fill="none" stroke="#fff" stroke-linecap="round" stroke-linejoin="round" stroke-width="3"/>
      <g id="Path_2667" data-name="Path 2667" transform="translate(-2.836 78.106)" fill="none" stroke-linecap="round" stroke-linejoin="round">
        <path d="M925.487,544.477c-1.947-1.077-5.237-7.124-5.237-7.124s-5.748-5.631-6.823,2.516a18.625,18.625,0,0,1-2.117,7.119c.025-.122.049-.229.072-.309.817-2.777,1.144-8.329-4.082-13.717a9.652,9.652,0,0,0-3.955-5.6c-.184-1.686-1.091-3.816-3.393-6.484-7.185-8.328-21.555-7.185-24.005-8.165s-9.144-2.776-18.616-1.143A16.226,16.226,0,0,0,846.95,517.7a23.193,23.193,0,0,0-5.676,1.385c-.653.218-3.048,1.742-8.6,3.92-3.466,1.359-5.149,5.771-5.926,8.9-.776-.031-1.489-.045-2.076-.077-1.8-2.94-6.858-5.226-10.124-2.123s-1.307,14.206-1.143,16-.817,6.042-2.94,9.961-.816,10.614,2.123,18.289c1.307,10.941,3.429,12.247,9.635,18.289C832.51,611.67,853.249,613.3,853.249,613.3c11.061,2.608,18.177,1.882,23.028-1,.42.218.675.325.675.325,31.717,1.275,41.255-21.088,47.612-36.5C935.362,556.385,927.435,545.554,925.487,544.477Z" stroke="none"/>
        <path d="M 864.8413696289062 510.910888671875 C 862.5957641601562 510.910888671875 860.08056640625 511.0960083007812 857.3309936523438 511.5700073242188 C 851.9429931640625 512.4990234375 848.7260131835938 515.3820190429688 846.9500122070312 517.6959838867188 C 844.1099853515625 517.9639892578125 841.6439819335938 518.9580078125 841.2739868164062 519.0809936523438 C 840.6209716796875 519.2990112304688 838.2260131835938 520.822998046875 832.6740112304688 523.0009765625 C 829.2080078125 524.3599853515625 827.5250244140625 528.77197265625 826.7479858398438 531.89599609375 C 825.9719848632812 531.864990234375 825.2589721679688 531.8510131835938 824.6719970703125 531.8189697265625 C 822.8759765625 528.8790283203125 817.8140869140625 526.5931396484375 814.5479736328125 529.6959838867188 C 811.281982421875 532.7979736328125 813.2410278320312 543.9019775390625 813.405029296875 545.698974609375 C 813.5679931640625 547.4949951171875 812.5880126953125 551.7410278320312 810.4650268554688 555.6599731445312 C 808.343017578125 559.5789794921875 809.6489868164062 566.2739868164062 812.5880126953125 573.948974609375 C 813.89501953125 584.8900146484375 816.0170288085938 586.1959838867188 822.2230224609375 592.2379760742188 C 832.510009765625 611.6699829101562 853.2490234375 613.302978515625 853.2490234375 613.302978515625 C 864.31005859375 615.9110107421875 871.426025390625 615.1849365234375 876.2769775390625 612.3070068359375 C 876.697021484375 612.5250244140625 876.9520263671875 612.6320190429688 876.9520263671875 612.6320190429688 C 877.8212280273438 612.6669311523438 878.678466796875 612.6842041015625 879.5147094726562 612.6842041015625 C 909.194091796875 612.6842041015625 918.3811645507812 591.12158203125 924.5640258789062 576.1290283203125 C 935.3619995117188 556.385009765625 927.4349975585938 545.5540161132812 925.4869995117188 544.4769897460938 C 923.5399780273438 543.4000244140625 920.25 537.35302734375 920.25 537.35302734375 C 920.25 537.35302734375 914.5020141601562 531.7221069335938 913.427001953125 539.8690185546875 C 912.968017578125 543.3499755859375 912.1829833984375 545.5 911.3099975585938 546.9879760742188 C 911.3350219726562 546.8660278320312 911.3590087890625 546.7589721679688 911.3820190429688 546.6790161132812 C 912.198974609375 543.9019775390625 912.5260009765625 538.3499755859375 907.2999877929688 532.9619750976562 C 906.8090209960938 530.64599609375 905.260009765625 528.7860107421875 903.344970703125 527.3619995117188 C 903.1610107421875 525.676025390625 902.2540283203125 523.5460205078125 899.9520263671875 520.8779907226562 C 892.7670288085938 512.5499877929688 878.39697265625 513.6929931640625 875.947021484375 512.7130126953125 C 874.2088623046875 512.0175170898438 870.3317260742188 510.910888671875 864.8413696289062 510.910888671875 M 864.8413696289062 505.910888671875 C 871.378173828125 505.910888671875 875.792236328125 507.2952880859375 877.5809936523438 507.9832153320312 C 878.0173950195312 508.0598754882812 879.0747680664062 508.1538696289062 879.937744140625 508.2305908203125 C 882.686279296875 508.4750366210938 886.8399047851562 508.8443603515625 891.0517578125 510.0377807617188 C 896.4542846679688 511.568603515625 900.7224731445312 514.1168212890625 903.73779296875 517.61181640625 C 905.822021484375 520.0274047851562 907.1865844726562 522.3408203125 907.86865234375 524.6270141601562 C 909.717529296875 526.3407592773438 911.0440673828125 528.3142700195312 911.7816162109375 530.4500732421875 C 912.0899047851562 530.8032836914062 912.384521484375 531.1613159179688 912.665283203125 531.5240478515625 C 913.7967529296875 530.82666015625 915.0967407226562 530.4571533203125 916.4795532226562 530.4571533203125 C 918.2432861328125 530.4573974609375 920.0397338867188 531.0575561523438 921.8203735351562 532.2409057617188 C 922.873779296875 532.94091796875 923.6114501953125 533.6466064453125 923.7485961914062 533.7809448242188 C 924.103515625 534.1285400390625 924.4046020507812 534.527099609375 924.6420288085938 534.9634399414062 C 924.6472778320312 534.9730224609375 925.2841186523438 536.1384887695312 926.1224365234375 537.4611206054688 C 927.3074340820312 539.3307495117188 927.9682006835938 540.0552368164062 928.1631469726562 540.2514038085938 C 929.9741821289062 541.3681640625 931.3455810546875 543.439453125 932.0175170898438 544.6080322265625 C 933.3214721679688 546.8756713867188 934.262451171875 549.60107421875 934.7386474609375 552.489501953125 C 935.33056640625 556.0797729492188 935.2316284179688 559.9407348632812 934.444580078125 563.9650268554688 C 933.546875 568.5552368164062 931.7437133789062 573.3712768554688 929.0841064453125 578.283203125 C 926.076171875 585.5758666992188 921.953369140625 595.4598999023438 914.5060424804688 603.440185546875 C 912.5258178710938 605.5621337890625 910.37890625 607.4705810546875 908.1250610351562 609.1124267578125 C 905.6683349609375 610.9020385742188 903.0078125 612.431396484375 900.21728515625 613.6580810546875 C 897.246826171875 614.9638671875 894.0433959960938 615.96435546875 890.6958618164062 616.6318359375 C 887.1939697265625 617.3301391601562 883.43212890625 617.6842041015625 879.5147705078125 617.6842041015625 C 878.64794921875 617.6842041015625 877.759033203125 617.6668701171875 876.8706665039062 617.6326904296875 C 875.5486450195312 618.240234375 874.1383666992188 618.728271484375 872.6565551757812 619.0899658203125 C 870.4212036132812 619.6356811523438 867.94287109375 619.912353515625 865.2904052734375 619.912353515625 C 861.4730834960938 619.912353515625 857.2598266601562 619.3663940429688 852.4201049804688 618.2440185546875 C 850.9098510742188 618.0738525390625 845.72509765625 617.32861328125 839.5857543945312 614.6365966796875 C 835.38232421875 612.79345703125 831.5415649414062 610.4041748046875 828.170166015625 607.5350341796875 C 824.1388549804688 604.1043090820312 820.7846069335938 599.98876953125 818.1906127929688 595.2921142578125 C 817.9517822265625 595.06103515625 817.718505859375 594.8360595703125 817.4896850585938 594.6154174804688 C 814.7163696289062 591.940673828125 812.5258178710938 589.8280029296875 810.8719482421875 586.7877197265625 C 809.3058471679688 583.9085693359375 808.3748779296875 580.5092163085938 807.6988525390625 575.1571655273438 C 806.1046752929688 570.9077758789062 805.114501953125 567.2777709960938 804.675048828125 564.0758666992188 C 804.4022827148438 562.0885009765625 804.3478393554688 560.2439575195312 804.5131225585938 558.5934448242188 C 804.7122192382812 556.605224609375 805.2354125976562 554.8172607421875 806.0681762695312 553.2792358398438 C 807.7902221679688 550.1004638671875 808.4368286132812 546.9396362304688 808.4227294921875 546.1228637695312 C 808.4077758789062 545.9790649414062 808.3612670898438 545.6231689453125 808.3199462890625 545.306640625 C 808.0888061523438 543.536376953125 807.6585693359375 540.2412719726562 807.6737060546875 536.9224853515625 C 807.6830444335938 534.873291015625 807.8557739257812 533.1348876953125 808.2017822265625 531.6079711914062 C 808.7344970703125 529.2571411132812 809.7111206054688 527.3941040039062 811.1046142578125 526.0706176757812 C 813.0715942382812 524.2017822265625 815.553466796875 523.2137451171875 818.2813110351562 523.2137451171875 C 820.2547607421875 523.2137451171875 822.26416015625 523.7415161132812 824.120361328125 524.7439575195312 C 825.8114624023438 521.6043090820312 828.0845947265625 519.4298706054688 830.8488159179688 518.3460083007812 C 834.5296630859375 516.902099609375 836.7333984375 515.7637329101562 837.9173583984375 515.1521606445312 C 838.636962890625 514.7804565429688 839.1162109375 514.5328979492188 839.6641235351562 514.3472290039062 C 839.6898193359375 514.3380126953125 839.7216186523438 514.3263549804688 839.7593383789062 514.3126220703125 C 840.4349975585938 514.06640625 842.171142578125 513.4337158203125 844.3746948242188 513.0182495117188 C 846.840576171875 510.40380859375 850.7101440429688 507.6378173828125 856.4814453125 506.6427001953125 C 859.2980346679688 506.1571044921875 862.1106567382812 505.910888671875 864.8413696289062 505.910888671875 Z" stroke="none" fill="#000"/>
      </g>
    </g>
  </g>
</svg>
