<svg xmlns="http://www.w3.org/2000/svg" width="131.718" height="143.504" viewBox="0 0 131.718 143.504">
  <g id="Group_1530" data-name="Group 1530" transform="translate(-984.905 -565.323)">
    <g id="Group_939" data-name="Group 939" transform="translate(-20.857 59.841)">
      <g id="Group_871" data-name="Group 871" transform="translate(1045.636 505.482)">
        <g id="Group_766" data-name="Group 766" transform="translate(5.073 5.075)">
          <path id="Path_1798" data-name="Path 1798" d="M1080.863,544.241l17.745-32.487a4.233,4.233,0,0,1,5.742-1.694c.051.029.1.057.152.087l6.212,3.729a6.1,6.1,0,0,1,2.089,8.365,6.187,6.187,0,0,1-.622.858L1089.4,549.356Z" transform="translate(-1031.979 -509.544)" fill="#e4ff83"/>
          <path id="Path_1799" data-name="Path 1799" d="M1074.61,540.161l11.949-26.311a3.691,3.691,0,0,1,4.889-1.825c.114.052.225.11.332.172l5.445,3.2a3.887,3.887,0,0,1,1.378,5.322c-.041.073-.086.142-.132.211l-15.737,23.2Z" transform="translate(-1033.538 -509.008)" fill="#39b54a"/>
          <g id="Path_1800" data-name="Path 1800" transform="translate(-1041.737 -503.88)" fill="#ff7139" stroke-miterlimit="10">
            <path d="M 1050.575805664062 612.2901611328125 C 1047.228271484375 612.2901611328125 1045.415283203125 611.114013671875 1044.8896484375 610.7083129882812 C 1044.563110351562 610.508544921875 1043.850219726562 610.0026245117188 1043.07373046875 609.0081787109375 C 1041.85595703125 607.4485473632812 1041.016845703125 605.4041137695312 1040.579833984375 602.9317016601562 C 1039.995971679688 599.62841796875 1040.159301757812 595.6287231445312 1041.065307617188 591.0436401367188 C 1042.175048828125 585.4281005859375 1044.414184570312 578.8751220703125 1047.720581054688 571.5667114257812 C 1052.7724609375 560.3999633789062 1057.739013671875 549.7691040039062 1062.956298828125 542.4339599609375 C 1065.67578125 538.610595703125 1068.34521484375 535.8235473632812 1071.117065429688 533.9135131835938 C 1072.616088867188 532.880615234375 1074.175170898438 532.0919189453125 1075.750854492188 531.5694580078125 C 1077.385620117188 531.02734375 1079.095092773438 530.7525024414062 1080.83154296875 530.7525024414062 C 1085.462646484375 530.7525024414062 1090.459716796875 532.6488647460938 1096.108642578125 536.5499267578125 C 1103.511352539062 541.6629638671875 1107.375366210938 547.0514526367188 1107.92138671875 553.0233764648438 C 1108.427490234375 558.5599365234375 1106.132080078125 564.5819702148438 1100.697265625 571.9752197265625 C 1095.6298828125 578.868896484375 1088.248779296875 586.420654296875 1080.493286132812 594.1978149414062 C 1073.822387695312 600.887451171875 1067.633178710938 605.79931640625 1062.097778320312 608.7969360351562 C 1057.817504882812 611.1148681640625 1053.94091796875 612.2901611328125 1050.575805664062 612.2901611328125 Z" stroke="none"/>
            <path d="M 1080.83154296875 532.2525024414062 C 1067.994140625 532.2525024414062 1059.842651367188 548.4107055664062 1049.087280273438 572.1849975585938 C 1034.799194335938 603.7672119140625 1045.74267578125 609.469482421875 1045.74267578125 609.469482421875 C 1045.742553710938 609.4694213867188 1054.954345703125 617.68408203125 1079.43115234375 593.1386108398438 C 1103.908325195312 568.593017578125 1117.444213867188 553.1091918945312 1095.256225585938 537.7841796875 C 1089.769897460938 533.9953002929688 1085.048217773438 532.2525024414062 1080.83154296875 532.2525024414062 M 1080.83154296875 529.2525024414062 C 1085.777221679688 529.2525024414062 1091.05322265625 531.2357788085938 1096.961059570312 535.3156127929688 C 1104.75244140625 540.6970825195312 1108.826171875 546.4446411132812 1109.415161132812 552.8867797851562 C 1109.956665039062 558.8098754882812 1107.570556640625 565.15771484375 1101.905883789062 572.8636474609375 C 1096.776733398438 579.8412475585938 1089.352905273438 587.437744140625 1081.555419921875 595.2569580078125 C 1074.78173828125 602.0497436523438 1068.475463867188 607.0490112304688 1062.812133789062 610.115966796875 C 1058.31005859375 612.5540161132812 1054.193115234375 613.7901611328125 1050.575805664062 613.7901611328125 C 1046.928100585938 613.7901611328125 1044.819702148438 612.5302734375 1044.03515625 611.9428100585938 C 1043.566650390625 611.645263671875 1042.747924804688 611.0283203125 1041.891479492188 609.9312744140625 C 1040.521240234375 608.1763916015625 1039.582885742188 605.9091796875 1039.102783203125 603.1928100585938 C 1037.734985351562 595.4556274414062 1040.174682617188 584.6070556640625 1046.35400390625 570.9484252929688 C 1051.437377929688 559.7118530273438 1056.438842773438 549.0092163085938 1061.734008789062 541.5645751953125 C 1064.556640625 537.5961303710938 1067.347412109375 534.6893920898438 1070.265991210938 532.6783447265625 C 1073.565063476562 530.4051513671875 1077.119750976562 529.2525024414062 1080.83154296875 529.2525024414062 Z" stroke="none" fill="#000"/>
          </g>
          <path id="Path_1801" data-name="Path 1801" d="M1063.094,555.057a3.044,3.044,0,0,1-3.6-4.1c.2-.477,4.911-11.708,13.843-14.1a3.044,3.044,0,0,1,1.577,5.881c-5.961,1.6-9.75,10.45-9.79,10.539A3.042,3.042,0,0,1,1063.094,555.057Z" transform="translate(-1037.366 -502.759)" fill="#fff"/>
        </g>
        <path id="Path_1802" data-name="Path 1802" d="M1098.172,513.362a3.67,3.67,0,0,0-2.4,2.035l-10.822,23.835c-14.679-2.782-23.245,13.994-34.843,39.632-14.291,31.578-3.346,37.279-3.346,37.279s9.208,8.217,33.689-16.33c22.187-22.254,35.388-37.061,21.116-51.054l21.388-24.646a6.1,6.1,0,0,0-.607-8.6,6.191,6.191,0,0,0-.858-.622l-6.212-3.727a4.232,4.232,0,0,0-5.808,1.448c-.03.05-.059.1-.087.154L1106.9,517.3a3.717,3.717,0,0,0-.464-.351l-5.448-3.2a3.668,3.668,0,0,0-2.821-.382m-1.313-4.9a8.7,8.7,0,0,1,6.7.909l1.429.845a9.3,9.3,0,0,1,12.9-3.4l6.211,3.729a11.169,11.169,0,0,1,2.688,16.9l-18.5,21.318a23.516,23.516,0,0,1,2.355,3.9,19.809,19.809,0,0,1,1.937,8.425c.035,6.172-2.692,12.684-8.582,20.5-5.189,6.877-12.7,14.553-19.955,21.824-10.075,10.1-19.1,16.277-26.847,18.354-7.471,2-11.773-.306-13.3-1.417a10.8,10.8,0,0,1-2.62-2.454,17.1,17.1,0,0,1-3.2-7.654c-1.442-8.156,1.05-19.413,7.4-33.459,4.6-10.175,9.134-19.92,13.942-27.318,5.521-8.5,11.025-13.239,17.32-14.927a19.639,19.639,0,0,1,5.071-.666l9.343-20.561a8.724,8.724,0,0,1,5.707-4.838Z" transform="translate(-1037.676 -505.482)"/>
        <path id="Line_296" data-name="Line 296" d="M1063.346,586.588a1.521,1.521,0,0,1-1.178-.165l-8.48-5.09a1.522,1.522,0,1,1,1.567-2.61l8.48,5.091a1.522,1.522,0,0,1-.389,2.774Z" transform="translate(-1033.867 -487.27)" fill="#e2511e"/>
        <path id="Line_297" data-name="Line 297" d="M1063.921,569.26a1.515,1.515,0,0,1-1.178-.166l-8.481-5.09a1.522,1.522,0,1,1,1.568-2.61l8.48,5.092a1.522,1.522,0,0,1-.389,2.774Z" transform="translate(-1033.724 -491.592)" fill="#e2511e"/>
        <path id="Line_298" data-name="Line 298" d="M1084.408,562.086a1.52,1.52,0,0,1-1.178-.165l-8.481-5.09a1.523,1.523,0,0,1,1.568-2.611l8.48,5.093a1.522,1.522,0,0,1-.389,2.774Z" transform="translate(-1028.615 -493.381)" fill="#e2511e"/>
      </g>
      <g id="Group_870" data-name="Group 870" transform="translate(1005.762 524.507)">
        <g id="Group_869" data-name="Group 869" transform="translate(5.08 5.075)">
          <path id="Path_1798-2" data-name="Path 1798-2" d="M1034.575,566.083l-20.888-30.56a4.233,4.233,0,0,1,1.1-5.885c.049-.034.1-.066.148-.1l6.143-3.841a6.1,6.1,0,0,1,8.4,1.935,6.029,6.029,0,0,1,.482.946l13.05,32.219Z" transform="translate(-1009.051 -524.772)" fill="#e4ff83"/>
          <path id="Path_1799-2" data-name="Path 1799-2" d="M1028.648,568.508l-18.019-22.592a3.69,3.69,0,0,1,.594-5.185c.1-.077.2-.15.3-.217l5.326-3.4a3.887,3.887,0,0,1,5.367,1.187c.045.07.088.141.127.215l13.529,24.556Z" transform="translate(-1009.828 -521.845)" fill="#39b54a"/>
          <g id="Path_1800-2" data-name="Path 1800-2" transform="translate(-1007.065 -518.224)" fill="#ff7139" stroke-miterlimit="10">
            <path d="M 1071.705200195312 634.064453125 C 1068.358154296875 634.064453125 1064.56884765625 632.7252807617188 1060.442504882812 630.0841064453125 C 1054.923095703125 626.55126953125 1048.888671875 620.7149658203125 1042.5068359375 612.7373046875 C 1035.64697265625 604.1614990234375 1029.134399414062 595.8502807617188 1024.84814453125 588.44189453125 C 1020.252746582031 580.4992065429688 1018.628173828125 574.2619018554688 1019.735534667969 568.8128662109375 C 1020.929931640625 562.9353637695312 1025.358764648438 558.0001831054688 1033.275024414062 553.7254028320312 C 1038.508422851562 550.8995971679688 1043.05859375 549.5259399414062 1047.185668945312 549.5259399414062 C 1049.063842773438 549.5259399414062 1050.876098632812 549.8209228515625 1052.572265625 550.4027099609375 C 1054.218383789062 550.9674072265625 1055.809326171875 551.8211669921875 1057.300659179688 552.9402465820312 C 1060.05859375 555.0098266601562 1062.5791015625 558.0310668945312 1065.006103515625 562.176513671875 C 1067.092407226562 565.739990234375 1069.182250976562 570.2781372070312 1071.395141601562 576.0501708984375 C 1073.506225585938 581.5569458007812 1075.600708007812 587.8406372070312 1077.549560546875 593.810791015625 C 1080.038940429688 601.4364013671875 1081.5498046875 608.19482421875 1082.0400390625 613.8983154296875 C 1082.4404296875 618.55517578125 1082.166259765625 622.5492553710938 1081.225219726562 625.7696533203125 C 1080.520874023438 628.179931640625 1079.463623046875 630.1209716796875 1078.082885742188 631.5388793945312 C 1077.200439453125 632.4450073242188 1076.43505859375 632.8701782226562 1076.08984375 633.0324096679688 C 1075.611572265625 633.3228149414062 1074.150512695312 634.064453125 1071.705200195312 634.064453125 Z" stroke="none"/>
            <path d="M 1047.185668945312 551.0259399414062 C 1043.396362304688 551.0259399414062 1039.058227539062 552.3074340820312 1033.98779296875 555.0452880859375 C 1010.260620117188 567.8578491210938 1022.02490234375 584.7308959960938 1043.67822265625 611.80029296875 C 1065.33154296875 638.8682250976562 1075.379150390625 631.7069702148438 1075.379150390625 631.7069091796875 C 1075.379150390625 631.7069091796875 1086.880981445312 627.2290649414062 1076.123657226562 594.2763061523438 C 1067.665161132812 568.364990234375 1061.129516601562 551.0259399414062 1047.185668945312 551.0259399414062 M 1047.185668945312 548.0259399414062 C 1051.210205078125 548.0259399414062 1054.916259765625 549.2756958007812 1058.200927734375 551.740478515625 C 1061.121459960938 553.9320068359375 1063.770874023438 557.0977783203125 1066.300537109375 561.4186401367188 C 1068.458251953125 565.10400390625 1070.522216796875 569.5827026367188 1072.795654296875 575.51318359375 C 1074.918701171875 581.0510864257812 1077.0205078125 587.3564453125 1078.9755859375 593.3453369140625 C 1083.6279296875 607.5966796875 1084.869140625 618.6473388671875 1082.6650390625 626.1903686523438 C 1081.89111328125 628.8384399414062 1080.711059570312 630.989990234375 1079.157470703125 632.5853271484375 C 1078.181396484375 633.587646484375 1077.29638671875 634.112060546875 1076.799560546875 634.3551635742188 C 1076.091674804688 634.7700805664062 1074.3857421875 635.564453125 1071.705200195312 635.564453125 C 1068.06689453125 635.564453125 1064.005493164062 634.1456298828125 1059.6337890625 631.3474731445312 C 1053.976196289062 627.7261352539062 1047.81982421875 621.780029296875 1041.335571289062 613.67431640625 C 1034.4384765625 605.0520629882812 1027.888305664062 596.691650390625 1023.5498046875 589.193115234375 C 1018.760009765625 580.9144287109375 1017.080932617188 574.3435668945312 1018.265502929688 568.51416015625 C 1019.553955078125 562.1738891601562 1024.230590820312 556.9047241210938 1032.562377929688 552.4055786132812 C 1038.020263671875 549.45849609375 1042.803588867188 548.0259399414062 1047.185668945312 548.0259399414062 Z" stroke="none" fill="#000"/>
          </g>
          <path id="Path_1801-2" data-name="Path 1801-2" d="M1036.764,584.7a3.043,3.043,0,0,1-5.289,1.347c-.336-.39-8.2-9.69-6.281-18.736a3.044,3.044,0,0,1,5.956,1.264c-1.283,6.037,4.884,13.432,4.945,13.507A3.039,3.039,0,0,1,1036.764,584.7Z" transform="translate(-1006.071 -514.765)" fill="#fff"/>
        </g>
        <path id="Path_1802-2" data-name="Path 1802-2" d="M1010.919,546.791a3.668,3.668,0,0,0,.724,3.062l16.323,20.465c-9.144,11.815,1.915,27.064,19.493,49.037,21.65,27.069,31.7,19.907,31.7,19.907s11.5-4.474.745-37.431c-9.755-29.872-16.954-48.356-35.9-41.992l-12.249-30.247a6.1,6.1,0,0,0-8.883-2.882l-6.141,3.843a4.232,4.232,0,0,0-1.346,5.832c.031.05.062.1.1.147l2.911,4.263a3.729,3.729,0,0,0-.522.255l-5.324,3.4a3.669,3.669,0,0,0-1.622,2.339m-4.964-1.053a8.7,8.7,0,0,1,3.854-5.561l1.4-.891a9.3,9.3,0,0,1,2.821-13.036l6.143-3.841a11.17,11.17,0,0,1,16.276,5.277l10.595,26.164a23.552,23.552,0,0,1,4.544-.328,19.809,19.809,0,0,1,8.386,2.1c5.515,2.771,10.079,8.157,14.363,16.952,3.772,7.745,7.2,17.925,10.387,27.688,4.428,13.565,5.83,24.412,4.164,32.253-1.607,7.568-5.619,10.351-7.3,11.21a10.849,10.849,0,0,1-3.376,1.219,17.1,17.1,0,0,1-8.271-.626c-7.922-2.419-16.821-9.749-26.453-21.786-6.975-8.721-13.6-17.183-18.01-24.824-5.064-8.776-6.789-15.834-5.436-22.209a19.668,19.668,0,0,1,1.709-4.821l-14.077-17.659a8.725,8.725,0,0,1-1.721-7.28Z" transform="translate(-1005.762 -520.71)"/>
        <path id="Line_296-2" data-name="Line 296-2" d="M1066.1,597.3a1.517,1.517,0,0,1-.682.974l-8.386,5.245a1.522,1.522,0,1,1-1.614-2.581l8.387-5.244a1.522,1.522,0,0,1,2.3,1.606Z" transform="translate(-993.556 -502.067)" fill="#e2511e"/>
        <path id="Line_297-2" data-name="Line 297-2" d="M1050.923,588.92a1.521,1.521,0,0,1-.682.975l-8.386,5.245a1.523,1.523,0,0,1-1.614-2.583l8.387-5.244a1.522,1.522,0,0,1,2.3,1.607Z" transform="translate(-997.342 -504.157)" fill="#e2511e"/>
        <path id="Line_298-2" data-name="Line 298-2" d="M1053.834,567.408a1.519,1.519,0,0,1-.683.975l-8.385,5.245a1.522,1.522,0,0,1-1.614-2.581l8.386-5.244a1.523,1.523,0,0,1,2.3,1.605Z" transform="translate(-996.616 -509.521)" fill="#e2511e"/>
      </g>
    </g>
  </g>
</svg>
