<svg xmlns="http://www.w3.org/2000/svg" width="196" height="196" viewBox="0 0 196 196">
  <g id="Group_1982" data-name="Group 1982" transform="translate(-1238 -166)">
    <g id="Group_1977" data-name="Group 1977">
      <g id="Group_1976" data-name="Group 1976">
        <g id="Group_1975" data-name="Group 1975">
          <g id="Group_1908" data-name="Group 1908">
            <g id="Group_1906" data-name="Group 1906" transform="translate(941 97)">
              <rect id="Rectangle_1254" data-name="Rectangle 1254" width="196" height="196" rx="5" transform="translate(297 69)" fill="#fff"/>
            </g>
          </g>
        </g>
        <path id="Path_4073" data-name="Path 4073" d="M1203.194,205.874a2.152,2.152,0,0,1-1.854-.942c-2.812-4.32-6.122-14.642,1.471-22.791a2.235,2.235,0,0,1,2.973-.21,1.838,1.838,0,0,1,.227,2.739c-7.488,8.037-1.317,17.853-1.05,18.268a1.861,1.861,0,0,1-.734,2.661A2.244,2.244,0,0,1,1203.194,205.874Z" transform="matrix(-0.829, 0.559, -0.559, -0.829, 2444.71, -230.876)" fill="#fff"/>
        <path id="Path_4074" data-name="Path 4074" d="M1201.527,198.5a1.424,1.424,0,0,1-1.241-.657c-1.883-3.015-4.1-10.221.985-15.909a1.453,1.453,0,0,1,1.991-.147,1.318,1.318,0,0,1,.152,1.912c-5.015,5.611-.882,12.462-.7,12.752a1.328,1.328,0,0,1-.491,1.858A1.456,1.456,0,0,1,1201.527,198.5Z" transform="matrix(-0.695, 0.719, -0.719, -0.695, 2364.22, -490.812)" fill="#fff"/>
        <path id="Path_4075" data-name="Path 4075" d="M1200.847,194.54a1.151,1.151,0,0,1-.992-.5c-1.5-2.314-3.276-7.844.787-12.209a1.2,1.2,0,0,1,1.591-.112.985.985,0,0,1,.121,1.467c-4.007,4.306-.7,9.564-.562,9.786a1,1,0,0,1-.393,1.426A1.2,1.2,0,0,1,1200.847,194.54Z" transform="matrix(-0.695, 0.719, -0.719, -0.695, 2300.835, -501.754)" fill="#fff"/>
        <path id="Path_4076" data-name="Path 4076" d="M1200.075,190.415a.834.834,0,0,1-.709-.345c-1.075-1.584-2.341-5.369.562-8.358a.881.881,0,0,1,1.137-.077.656.656,0,0,1,.087,1c-2.863,2.947-.5,6.547-.4,6.7a.669.669,0,0,1-.28.976A.887.887,0,0,1,1200.075,190.415Z" transform="translate(2586.11 362.618) rotate(178)" fill="#fff"/>
      </g>
    </g>
    <g id="Group_1890" data-name="Group 1890" transform="translate(92.241 -392.753)">
      <g id="Group_1228" data-name="Group 1228" transform="translate(1170.326 598.363)">
        <path id="Path_3683" data-name="Path 3683" d="M997.84,1236.733s19.914,5.524,22.384-16.684a18.84,18.84,0,0,0-3.721-12.6c-.991-1.422,1.7-3.93-.8-8.109a37.994,37.994,0,0,1-3.946-9.292c-.465-1.577-5.8-10.745-12.017-13.594s-7.45-11.287-14.318-13.257-18.692-4.078-20.157-2.846,6.5,9.013-4.1,26.537-2.293,35.187,2.559,37.3,11.754,10.186,20.1,11.548S980.906,1243.05,997.84,1236.733Z" transform="translate(-869.613 -1152.702)" fill="#9dd77f"/>
        <path id="Path_3684" data-name="Path 3684" d="M902.874,1252.429s-18.116-7.944-20.275-21.84-.946-22.336,4.946-38.307,23.918-30.182,23.918-30.182,4.332-2.6,3.986-.867,3.12.756,3.986,3.238,6.933,5.081,2.946,10.627-21.692,72.787-17.172,74.7S902.874,1252.429,902.874,1252.429Z" transform="translate(-881.602 -1152.596)" fill="#9dd77f"/>
        <path id="Path_3685" data-name="Path 3685" d="M942.9,1213.743a9.213,9.213,0,0,0-2.785-15.249c-.142-.059-.286-.1-.428-.153a9.208,9.208,0,0,0-2.247-15.438,12.165,12.165,0,0,0-22.11,3.66,42.462,42.462,0,0,1-11.879,16.133,6.723,6.723,0,0,0-.187,4.644,18.6,18.6,0,0,0,15.589,20.729,9.213,9.213,0,0,0,16.928,2.217,9.223,9.223,0,0,0,7.12-16.542Z" transform="translate(-878.358 -1150.186)" fill="#fff"/>
        <path id="Path_3686" data-name="Path 3686" d="M960.232,1204.464a11.935,11.935,0,0,0,4.313,19.611c.186.068.374.117.562.176a11.927,11.927,0,0,0,3.623,19.88,8.749,8.749,0,0,0,17.443,1.309,17.781,17.781,0,0,0,18.441-14.771,15.675,15.675,0,0,1,7.2-13.734,8.709,8.709,0,0,0,.027-6.02,11.931,11.931,0,0,0-10.351-18.153,11.927,11.927,0,0,0-10.787-7.954,11.934,11.934,0,0,0-22.016-2.084,11.946,11.946,0,0,0-8.449,21.742Z" transform="translate(-869.793 -1150.074)" fill="#fff"/>
        <path id="Path_3687" data-name="Path 3687" d="M941.868,1175.691a9.262,9.262,0,0,0,3.347,15.218c.144.055.29.092.435.138a9.256,9.256,0,0,0,2.812,15.427A12.231,12.231,0,0,0,970.541,1202a11.7,11.7,0,0,0,7.526-12.71,6.775,6.775,0,0,0,3.847-8.6,9.256,9.256,0,0,0-4.685-13.513,9.24,9.24,0,0,1-8.854-6.176,9.24,9.24,0,0,1-8.5-6.59,9.27,9.27,0,0,0-11.448,4.4,9.271,9.271,0,0,0-6.557,16.873Z" transform="translate(-872.559 -1153.692)" fill="#f4f0dc"/>
        <path id="Path_3688" data-name="Path 3688" d="M946.914,1199.036a9.943,9.943,0,0,0-2.161-16.588c-.15-.071-.3-.126-.453-.188a9.937,9.937,0,0,0-1.57-16.762,7.289,7.289,0,0,0-14.382-2.348,17.879,17.879,0,0,0-18.884,17.965,7.272,7.272,0,0,0-4.915,8.835,20.074,20.074,0,0,0,15.656,23.2,9.942,9.942,0,0,0,18.122,3.323,9.953,9.953,0,0,0,8.586-17.435Z" transform="translate(-878.218 -1153.142)" fill="#fff"/>
        <path id="Path_3689" data-name="Path 3689" d="M942.234,1246.061a12.71,12.71,0,0,1-5.93-14.919,8.886,8.886,0,0,1-5.726-10.44,8.914,8.914,0,0,1-4.159-9.5,14.381,14.381,0,0,0-22.992-.994,16.329,16.329,0,0,0-2.258,25.149,8.91,8.91,0,0,0,8.348,12.074c.075,0,.149-.009.223-.01a8.917,8.917,0,0,0,11.984,10.261,8.9,8.9,0,0,0,11.129,3.219,8.923,8.923,0,1,0,9.381-14.844Z" transform="translate(-879.158 -1145.889)" fill="#f4f0dc"/>
        <path id="Path_3690" data-name="Path 3690" d="M953.039,1233.849a9.216,9.216,0,0,0-8.4-13.029c-.153,0-.3.015-.454.022a9.208,9.208,0,0,0-7.974-13.409,12.171,12.171,0,0,0-19.035,11.83,11.644,11.644,0,0,0-2.608,14.462,6.738,6.738,0,0,0-.6,9.349,9.211,9.211,0,0,0,12.377,10.349,9.206,9.206,0,0,0,9.948,2.852,14.168,14.168,0,1,0,16.752-22.426Z" transform="translate(-876.648 -1145.813)" fill="#fff"/>
        <path id="Path_3691" data-name="Path 3691" d="M981.133,1216.11a12.928,12.928,0,0,0,1.255-5.542c0-7.429-6.272-13.452-14.011-13.452-.232,0-.459.023-.688.034a12.946,12.946,0,0,0,1.542-6.114,13.716,13.716,0,0,0-13.65-13.435,10.23,10.23,0,0,0-9.766-6.829,10.064,10.064,0,0,0-10.263,9.854,9.489,9.489,0,0,0,.331,2.442,10.019,10.019,0,0,0-9.409,9.812,9.556,9.556,0,0,0,.206,1.967,9.8,9.8,0,0,0-5.336,8.646,9.324,9.324,0,0,1-.658,6.569,9.539,9.539,0,0,0,2.034,5.87,9.549,9.549,0,0,0-.917,13.63,12.987,12.987,0,0,0-.259,2.547c0,7.43,6.272,13.452,14.01,13.452a14.45,14.45,0,0,0,5.042-.912,14.212,14.212,0,0,0,10.748,4.829,14.482,14.482,0,0,0,4.356-.672,14.17,14.17,0,0,0,11.15,5.332,13.82,13.82,0,0,0,13.89-11.773,13.339,13.339,0,0,0,.395-26.253Z" transform="translate(-875.518 -1150.964)" fill="#f4f0dc"/>
        <path id="Path_3692" data-name="Path 3692" d="M976.25,1200.083a14.049,14.049,0,0,0,.074-1.441,13.824,13.824,0,1,1-.074,1.441Z" transform="translate(-872.165 -1148.715)" fill="#fff"/>
        <path id="Path_3693" data-name="Path 3693" d="M991.99,1213.486a15.357,15.357,0,0,0-29.246-8.381,12.675,12.675,0,0,0,8.771,22.982,12.691,12.691,0,1,0,20.476-14.6Z" transform="translate(-869.401 -1147.15)" fill="#f4f0dc"/>
        <g id="Path_3694" data-name="Path 3694" transform="translate(-879.158 -1153.692)" fill="none" stroke-miterlimit="10">
          <path d="M1015.163,1197.119a11.876,11.876,0,0,0-4.313-.74,11.927,11.927,0,0,0-10.788-7.956,11.886,11.886,0,0,0-11.129-8.493c.129-.265.247-.537.353-.82a19.578,19.578,0,0,0-17.177-18.674,9.261,9.261,0,0,0-17.085-1.619,9.252,9.252,0,0,0-10.557,7.683c-.258-.161-.521-.315-.8-.454a7.289,7.289,0,0,0-14.382-2.348,17.879,17.879,0,0,0-18.884,17.965,7.274,7.274,0,0,0-4.915,8.835,9.924,9.924,0,0,0,.949,12.892,6.729,6.729,0,0,0-2.371,7.456,9.153,9.153,0,0,0-1.218,7.4,16.5,16.5,0,0,0-1.681,24.921,8.91,8.91,0,0,0,8.348,12.073c.075,0,.149-.008.223-.01a8.917,8.917,0,0,0,11.984,10.261,8.9,8.9,0,0,0,11.129,3.22,8.91,8.91,0,0,0,12.941-.918c.116,0,.23.02.347.02A456.115,456.115,0,0,1,962,1254.077a14.362,14.362,0,0,0,17.869-.687,8.721,8.721,0,0,0,15.667-4.333,17.782,17.782,0,0,0,18.441-14.771,15.667,15.667,0,0,1,7.2-13.733,8.719,8.719,0,0,0,.026-6.022,11.929,11.929,0,0,0-6.038-17.412Z" stroke="none"/>
          <path d="M 963.244140625 1153.833984375 C 959.8519897460938 1153.833984375 956.64306640625 1155.712524414062 955.0242919921875 1158.818603515625 C 950.7654418945312 1158.160888671875 946.487060546875 1160.5556640625 944.9254150390625 1164.754150390625 C 944.71044921875 1165.330932617188 944.5631103515625 1165.916259765625 944.4677734375 1166.50146484375 C 944.210205078125 1166.340087890625 943.946533203125 1166.186889648438 943.6712646484375 1166.047607421875 C 944.0755615234375 1162.992919921875 942.502197265625 1159.897338867188 939.5693359375 1158.504028320312 C 935.9295654296875 1156.777587890625 931.5786743164062 1158.327392578125 929.852294921875 1161.966430664062 C 929.5841064453125 1162.53076171875 929.404052734375 1163.113525390625 929.2891845703125 1163.699951171875 C 925.7745971679688 1162.373901367188 921.7734985351562 1163.940307617188 920.1329345703125 1167.394287109375 C 919.9193115234375 1167.844970703125 919.7567138671875 1168.305786132812 919.6406860351562 1168.7724609375 C 917.067626953125 1168.92236328125 914.6537475585938 1170.43408203125 913.4706420898438 1172.926879882812 C 913.208251953125 1173.480834960938 913.0294189453125 1174.05078125 912.9144897460938 1174.62548828125 C 912.1133422851562 1175.285034179688 911.4376220703125 1176.119873046875 910.9627685546875 1177.11962890625 C 910.2638549804688 1178.591918945312 910.109375 1180.18017578125 910.4054565429688 1181.6650390625 C 908.5151977539062 1182.24462890625 906.8629760742188 1183.577392578125 905.9480590820312 1185.504760742188 C 905.17822265625 1187.126953125 905.0633544921875 1188.889404296875 905.4906005859375 1190.499755859375 C 905.1224975585938 1191.001342773438 904.7927856445312 1191.54150390625 904.5164184570312 1192.124145507812 C 902.669189453125 1196.01611328125 903.5759887695312 1200.495727539062 906.4392700195312 1203.391357421875 C 905.5033569335938 1204.091430664062 904.7346801757812 1205.042236328125 904.2551879882812 1206.2021484375 C 903.618896484375 1207.740600585938 903.5957641601562 1209.377685546875 904.0682983398438 1210.84765625 C 903.7512817382812 1211.328247070312 903.471435546875 1211.843872070312 903.243896484375 1212.396606445312 C 902.4462890625 1214.326171875 902.3615112304688 1216.36865234375 902.8502197265625 1218.24365234375 C 899.5052490234375 1219.533569335938 897.1192626953125 1222.752197265625 897.1192626953125 1226.55126953125 C 897.1192626953125 1228.059326171875 897.4954223632812 1229.477172851562 898.1549072265625 1230.721801757812 C 897.2841796875 1232.101318359375 896.7720947265625 1233.728881835938 896.7720947265625 1235.481079101562 C 896.7720947265625 1238.75537109375 898.5403442382812 1241.610229492188 901.1690673828125 1243.1650390625 C 900.7998657226562 1244.143920898438 900.588623046875 1245.200439453125 900.588623046875 1246.30908203125 C 900.588623046875 1251.240356445312 904.586181640625 1255.237915039062 909.5172729492188 1255.237915039062 C 909.5926513671875 1255.237915039062 909.6658325195312 1255.229736328125 909.7401123046875 1255.2275390625 C 909.598388671875 1255.85888671875 909.5172729492188 1256.514038085938 909.5172729492188 1257.1884765625 C 909.5172729492188 1262.119506835938 913.5148315429688 1266.1171875 918.4469604492188 1266.1171875 C 919.6046752929688 1266.1171875 920.7076416015625 1265.889526367188 921.7236328125 1265.489013671875 C 923.3212280273438 1267.907592773438 926.0613403320312 1269.50732421875 929.177734375 1269.50732421875 C 930.48974609375 1269.50732421875 931.7308349609375 1269.217163085938 932.8525390625 1268.708740234375 C 934.442138671875 1270.168090820312 936.55517578125 1271.06689453125 938.883056640625 1271.06689453125 C 941.669677734375 1271.06689453125 944.15673828125 1269.78955078125 945.7938232421875 1267.790283203125 C 945.909912109375 1267.793701171875 946.0238037109375 1267.810180664062 946.1409912109375 1267.810180664062 C 950.845703125 1267.810180664062 954.72021484375 1264.2861328125 955.2879638671875 1259.734741210938 C 958.3636474609375 1259.101928710938 960.8739013671875 1256.937744140625 962.0013427734375 1254.0771484375 C 964.3570556640625 1255.813842773438 967.2877197265625 1256.86474609375 970.48876953125 1256.86474609375 C 974.10205078125 1256.86474609375 977.3890380859375 1255.547973632812 979.8702392578125 1253.390625 C 980.8408203125 1254.682861328125 982.159912109375 1255.735961914062 983.78662109375 1256.342041015625 C 988.319580078125 1258.027954101562 993.3597412109375 1255.720947265625 995.0455322265625 1251.189331054688 C 995.3079833984375 1250.486694335938 995.461181640625 1249.771606445312 995.5377197265625 1249.057373046875 C 999.8790893554688 1250.276245117188 1004.500122070312 1247.987060546875 1006.101318359375 1243.686401367188 C 1006.308959960938 1243.125732421875 1006.45654296875 1242.556640625 1006.546020507812 1241.986450195312 C 1009.606567382812 1241.538330078125 1012.336181640625 1239.479736328125 1013.491577148438 1236.376220703125 C 1013.748046875 1235.686645507812 1013.901245117188 1234.9853515625 1013.979125976562 1234.286254882812 C 1014.867431640625 1233.414306640625 1015.589599609375 1232.34619140625 1016.052978515625 1231.101440429688 C 1016.734375 1229.26708984375 1016.7529296875 1227.352172851562 1016.244384765625 1225.608520507812 C 1018.445678710938 1224.718872070312 1020.282592773438 1222.951904296875 1021.175537109375 1220.55322265625 C 1021.926879882812 1218.53271484375 1021.880249023438 1216.411499023438 1021.201171875 1214.531616210938 C 1021.5888671875 1213.893188476562 1021.926879882812 1213.213745117188 1022.197143554688 1212.488159179688 C 1024.498413085938 1206.30078125 1021.349609375 1199.420532226562 1015.163452148438 1197.119140625 C 1013.741149902344 1196.589477539062 1012.282592773438 1196.361450195312 1010.85009765625 1196.379516601562 C 1009.709838867188 1193.158569335938 1007.20654296875 1190.445190429688 1003.753540039062 1189.161254882812 C 1002.536865234375 1188.708129882812 1001.293334960938 1188.473754882812 1000.0625 1188.423828125 C 999.0186767578125 1184.970703125 996.4422607421875 1182.02294921875 992.798828125 1180.667724609375 C 991.5240478515625 1180.194213867188 990.219970703125 1179.963134765625 988.9337158203125 1179.930541992188 C 989.0623779296875 1179.665771484375 989.180908203125 1179.39306640625 989.28662109375 1179.110717773438 C 991.072265625 1174.309814453125 988.6282958984375 1168.969970703125 983.828369140625 1167.184204101562 C 982.72412109375 1166.773559570312 981.5923461914062 1166.598510742188 980.48095703125 1166.610595703125 C 979.5963134765625 1164.110961914062 977.652587890625 1162.005615234375 974.9739990234375 1161.008422851562 C 974.02880859375 1160.657958984375 973.06396484375 1160.475341796875 972.109619140625 1160.437133789062 C 971.2991943359375 1157.756225585938 969.2998046875 1155.470092773438 966.47265625 1154.418212890625 C 965.407958984375 1154.021850585938 964.3167724609375 1153.833984375 963.244140625 1153.833984375 M 963.244140625 1151.833984375 C 964.583984375 1151.833984375 965.9049682617188 1152.07275390625 967.1703491210938 1152.543823242188 C 968.8496704101562 1153.168701171875 970.3131103515625 1154.15087890625 971.5196533203125 1155.463134765625 C 972.3583984375 1156.375244140625 973.047119140625 1157.433959960938 973.5492553710938 1158.574951171875 C 974.2725830078125 1158.691650390625 974.9817504882812 1158.878295898438 975.6693115234375 1159.133178710938 C 978.3746948242188 1160.140380859375 980.5611572265625 1162.12353515625 981.8294067382812 1164.67529296875 C 982.7548217773438 1164.774658203125 983.65771484375 1164.98681640625 984.525634765625 1165.309692382812 C 987.347900390625 1166.359741210938 989.5924072265625 1168.446044921875 990.8456420898438 1171.184448242188 C 991.87060546875 1173.423950195312 992.1322631835938 1175.88037109375 991.619384765625 1178.244873046875 C 992.2578735351562 1178.383056640625 992.88427734375 1178.56591796875 993.4952392578125 1178.792846679688 C 995.5742797851562 1179.566284179688 997.385009765625 1180.781616210938 998.8778686523438 1182.405517578125 C 999.9866333007812 1183.611572265625 1000.883605957031 1185.024658203125 1001.513488769531 1186.547485351562 C 1002.520263671875 1186.686767578125 1003.504089355469 1186.934204101562 1004.451538085938 1187.286987304688 C 1007.895751953125 1188.567626953125 1010.662414550781 1191.132202148438 1012.208862304688 1194.4287109375 C 1013.463745117188 1194.53466796875 1014.687683105469 1194.807861328125 1015.861267089844 1195.244873046875 C 1019.353393554688 1196.5439453125 1022.130920410156 1199.125610351562 1023.681640625 1202.51416015625 C 1025.232421875 1205.902465820312 1025.370849609375 1209.692260742188 1024.07177734375 1213.185424804688 C 1023.873596191406 1213.71728515625 1023.637390136719 1214.245239257812 1023.3662109375 1214.76318359375 C 1023.929565429688 1216.899780273438 1023.82373046875 1219.169921875 1023.050109863281 1221.250366210938 C 1022.513916015625 1222.690551757812 1021.696594238281 1223.970581054688 1020.620422363281 1225.055297851562 C 1019.984985351562 1225.69580078125 1019.279602050781 1226.24853515625 1018.512329101562 1226.7080078125 C 1018.734008789062 1228.422485351562 1018.537902832031 1230.155395507812 1017.927795410156 1231.7978515625 C 1017.458435058594 1233.058715820312 1016.766967773438 1234.201171875 1015.867736816406 1235.20361328125 C 1015.754638671875 1235.85400390625 1015.586669921875 1236.48046875 1015.366088867188 1237.073486328125 C 1014.160583496094 1240.311645507812 1011.486877441406 1242.744506835938 1008.212463378906 1243.671142578125 C 1008.14208984375 1243.910034179688 1008.0634765625 1244.14697265625 1007.976806640625 1244.380981445312 C 1007.195190429688 1246.48046875 1005.809020996094 1248.25244140625 1003.966979980469 1249.508666992188 C 1002.16845703125 1250.735107421875 1000.070251464844 1251.383422851562 997.899169921875 1251.383422851562 C 997.6329345703125 1251.383422851562 997.3670043945312 1251.373413085938 997.1017456054688 1251.353637695312 C 997.0455322265625 1251.535034179688 996.984619140625 1251.713745117188 996.9190673828125 1251.88916015625 C 996.1397705078125 1253.984008789062 994.7532958984375 1255.757568359375 992.9105224609375 1257.015502929688 C 991.1104125976562 1258.244262695312 989.0108032226562 1258.893798828125 986.838623046875 1258.893798828125 C 985.55908203125 1258.893798828125 984.2976684570312 1258.665893554688 983.0894775390625 1258.216552734375 C 981.810302734375 1257.739990234375 980.638671875 1257.017944335938 979.6289672851562 1256.091552734375 C 976.9596557617188 1257.890625 973.77880859375 1258.86474609375 970.48876953125 1258.86474609375 C 967.7554931640625 1258.86474609375 965.1212768554688 1258.197875976562 962.757568359375 1256.920654296875 C 962.175537109375 1257.79345703125 961.4719848632812 1258.585571289062 960.6687622070312 1259.266723632812 C 959.5918579101562 1260.179931640625 958.3489990234375 1260.881591796875 957.0195922851562 1261.332763671875 C 955.8250732421875 1266.079711914062 951.6298217773438 1269.561401367188 946.677734375 1269.79736328125 C 944.6284790039062 1271.88623046875 941.8388671875 1273.06689453125 938.883056640625 1273.06689453125 C 936.5743408203125 1273.06689453125 934.345947265625 1272.336669921875 932.4884033203125 1270.989868164062 C 931.4177856445312 1271.333618164062 930.3087768554688 1271.50732421875 929.177734375 1271.50732421875 C 926.0157470703125 1271.50732421875 923.0521240234375 1270.149780273438 920.99072265625 1267.814086914062 C 920.15673828125 1268.015625 919.3057250976562 1268.1171875 918.4469604492188 1268.1171875 C 915.5274658203125 1268.1171875 912.78271484375 1266.980346679688 910.7183837890625 1264.916259765625 C 908.6541137695312 1262.85205078125 907.5172729492188 1260.107666015625 907.5172729492188 1257.1884765625 C 907.5172729492188 1257.14453125 907.517578125 1257.1005859375 907.5181274414062 1257.056640625 C 905.3601684570312 1256.659912109375 903.3743286132812 1255.621704101562 901.78955078125 1254.036987304688 C 899.7254028320312 1251.972778320312 898.588623046875 1249.228271484375 898.588623046875 1246.30908203125 C 898.588623046875 1245.525756835938 898.67431640625 1244.746826171875 898.84423828125 1243.979614257812 C 897.8103637695312 1243.145141601562 896.9306640625 1242.126708984375 896.258544921875 1240.977783203125 C 895.2861328125 1239.315551757812 894.7720947265625 1237.414794921875 894.7720947265625 1235.481079101562 C 894.7720947265625 1233.796508789062 895.1636962890625 1232.141479492188 895.9122314453125 1230.635009765625 C 895.3912353515625 1229.341430664062 895.1192626953125 1227.94921875 895.1192626953125 1226.55126953125 C 895.1192626953125 1224.300537109375 895.802490234375 1222.140502929688 897.0950927734375 1220.305053710938 C 898.0260620117188 1218.983154296875 899.2235107421875 1217.89501953125 900.6112060546875 1217.10009765625 C 900.4088745117188 1215.243774414062 900.673095703125 1213.380493164062 901.3955688476562 1211.632568359375 C 901.5477294921875 1211.262939453125 901.7239379882812 1210.896118164062 901.9220581054688 1210.535888671875 C 901.5737915039062 1208.832763671875 901.7385864257812 1207.053955078125 902.4070434570312 1205.437744140625 C 902.7354125976562 1204.643310546875 903.1788940429688 1203.904907226562 903.7200927734375 1203.244750976562 C 902.727783203125 1201.829467773438 902.0535278320312 1200.213623046875 901.742919921875 1198.485107421875 C 901.3010864257812 1196.026123046875 901.6353149414062 1193.530029296875 902.7095947265625 1191.2666015625 C 902.9004516601562 1190.8642578125 903.1182250976562 1190.46728515625 903.3605346679688 1190.079467773438 C 903.069580078125 1188.237548828125 903.3377685546875 1186.340209960938 904.1412353515625 1184.647216796875 C 905.0133666992188 1182.809936523438 906.4722290039062 1181.317260742188 908.2626953125 1180.389038085938 C 908.2361450195312 1178.968017578125 908.5372314453125 1177.5654296875 909.156005859375 1176.261962890625 C 909.6417846679688 1175.2392578125 910.2994384765625 1174.329467773438 911.1158447265625 1173.54931640625 C 911.2581176757812 1173.0341796875 911.4412841796875 1172.5390625 911.6631469726562 1172.070678710938 C 912.9176025390625 1169.427612304688 915.325927734375 1167.556274414062 918.1375122070312 1166.961669921875 C 918.19677734375 1166.818725585938 918.259521484375 1166.67724609375 918.32568359375 1166.53759765625 C 919.0950317382812 1164.917846679688 920.3033447265625 1163.566040039062 921.820556640625 1162.626708984375 C 923.2952880859375 1161.713745117188 924.9905395507812 1161.231079101562 926.7229614257812 1161.231079101562 C 927.1357421875 1161.231079101562 927.5458374023438 1161.258422851562 927.9518432617188 1161.312744140625 C 927.982421875 1161.243896484375 928.0137329101562 1161.175659179688 928.0458984375 1161.108032226562 C 928.8135986328125 1159.489868164062 930.0222778320312 1158.13671875 931.5407104492188 1157.196044921875 C 933.0169067382812 1156.281616210938 934.7135620117188 1155.79833984375 936.4471435546875 1155.79833984375 C 937.830322265625 1155.79833984375 939.1691284179688 1156.1005859375 940.4263916015625 1156.697021484375 C 942.2393798828125 1157.558227539062 943.6947631835938 1158.9462890625 944.6363525390625 1160.71142578125 C 944.6846923828125 1160.802124023438 944.7314453125 1160.893310546875 944.7766723632812 1160.984985351562 C 945.4751586914062 1160.1025390625 946.3071899414062 1159.326171875 947.254150390625 1158.6796875 C 949.2352294921875 1157.327270507812 951.5638427734375 1156.642944335938 953.959716796875 1156.7158203125 C 954.8687744140625 1155.395141601562 956.0532836914062 1154.279418945312 957.4395141601562 1153.446899414062 C 959.1967163085938 1152.391723632812 961.2039184570312 1151.833984375 963.244140625 1151.833984375 Z" stroke="none" fill="#000"/>
        </g>
        <g id="Path_3695" data-name="Path 3695" transform="translate(-874.563 -1147.335)" fill="#9dd77f" stroke-miterlimit="10">
          <path d="M 947.975830078125 1266.550415039062 C 943.7968139648438 1266.550415039062 939.6506958007812 1265.402709960938 935.652587890625 1263.139038085938 L 935.5165405273438 1263.06201171875 L 935.4105224609375 1262.947143554688 C 930.9129028320312 1258.075439453125 930.9305419921875 1253.470458984375 930.9371948242188 1251.73681640625 C 930.9373779296875 1251.687866210938 930.9375610351562 1251.641357421875 930.9376220703125 1251.597534179688 C 930.8590087890625 1251.436645507812 930.4060668945312 1251.0859375 930.103759765625 1250.851928710938 C 928.9319458007812 1249.944702148438 927.1610717773438 1248.57373046875 926.9075927734375 1245.564453125 C 926.5831909179688 1241.713134765625 925.4703369140625 1238.894775390625 924.935546875 1237.540283203125 L 924.8695678710938 1237.373046875 C 924.5 1236.433227539062 924.1929321289062 1233.584594726562 924.3412475585938 1230.62109375 C 924.4812622070312 1227.822387695312 925.0704956054688 1223.87744140625 927.0824584960938 1220.9775390625 C 928.5447387695312 1218.87109375 928.5747680664062 1216.418334960938 928.6065673828125 1213.821655273438 C 928.6255493164062 1212.270874023438 928.6451416015625 1210.667236328125 928.9847412109375 1209.108032226562 C 929.3815307617188 1207.285888671875 930.1686401367188 1205.7802734375 931.39111328125 1204.505249023438 C 933.7102661132812 1202.0849609375 936.9776611328125 1199.097290039062 939.9180297851562 1196.708374023438 C 941.4992065429688 1195.423706054688 942.8771362304688 1194.3984375 944.0135498046875 1193.660888671875 C 945.8672485351562 1192.457763671875 946.6535034179688 1192.303466796875 947.1314086914062 1192.303466796875 C 947.177734375 1192.303466796875 947.2239379882812 1192.30517578125 947.2687377929688 1192.30859375 C 947.8406982421875 1192.352661132812 948.3056030273438 1192.682006835938 948.650390625 1193.287475585938 C 948.8576049804688 1193.651489257812 949.0208129882812 1194.097778320312 949.2274169921875 1194.662841796875 C 949.7723999023438 1196.153442382812 950.5960083007812 1198.406127929688 952.966796875 1200.949829101562 C 955.8768920898438 1204.072021484375 960.3648071289062 1206.7890625 966.3058471679688 1209.025268554688 C 969.3955078125 1210.188232421875 972.3472290039062 1211.884399414062 975.0791625976562 1214.066650390625 C 977.52099609375 1216.017333984375 979.8017578125 1218.366088867188 981.8580322265625 1221.047729492188 C 985.330078125 1225.57568359375 988.1260375976562 1231.016845703125 989.7310180664062 1236.369018554688 C 990.4201049804688 1238.667114257812 990.8429565429688 1240.82421875 990.953857421875 1242.607177734375 C 991.0742797851562 1244.544189453125 990.8250122070312 1245.95361328125 990.2129516601562 1246.79638671875 C 989.65185546875 1247.569458007812 989.1229858398438 1248.3681640625 988.5631103515625 1249.2138671875 C 986.37158203125 1252.523681640625 983.8876342773438 1256.275268554688 978.389404296875 1259.971923828125 C 975.7640991210938 1261.736938476562 971.39306640625 1262.302978515625 966.331787109375 1262.958251953125 C 963.4970092773438 1263.325317382812 960.5672607421875 1263.704711914062 957.541748046875 1264.3251953125 C 956.7559204101562 1264.758056640625 953.1866455078125 1266.550415039062 947.975830078125 1266.550415039062 Z" stroke="none"/>
          <path d="M 947.975830078125 1265.550415039062 C 953.5656127929688 1265.550415039062 957.1851806640625 1263.377685546875 957.1851806640625 1263.377685546875 C 965.777099609375 1261.59423828125 974.0185546875 1261.70556640625 977.8314208984375 1259.14208984375 C 984.5355224609375 1254.634643554688 986.5986328125 1250.073852539062 989.40380859375 1246.208740234375 C 992.2100830078125 1242.3447265625 984.8907470703125 1217.0888671875 965.95361328125 1209.961181640625 C 947.0164794921875 1202.833251953125 949.1214599609375 1193.454223632812 947.1917724609375 1193.3056640625 C 947.1722412109375 1193.30419921875 947.1522827148438 1193.303466796875 947.1314086914062 1193.303466796875 C 945.0897827148438 1193.303466796875 936.6250610351562 1200.488403320312 932.1129150390625 1205.197265625 C 927.553466796875 1209.952880859375 931.4117431640625 1216.49462890625 927.904052734375 1221.547607421875 C 924.3975830078125 1226.601684570312 925.2742919921875 1235.669677734375 925.8001708984375 1237.007080078125 C 926.326171875 1238.3447265625 927.553466796875 1241.318359375 927.904052734375 1245.48046875 C 928.254638671875 1249.64208984375 931.9376220703125 1250.087890625 931.9376220703125 1251.575317382812 C 931.9376220703125 1253.061401367188 931.7623291015625 1257.521240234375 936.145263671875 1262.268798828125 C 940.5617065429688 1264.769287109375 944.622802734375 1265.550415039062 947.975830078125 1265.550415039062 M 947.975830078125 1267.550415039062 C 943.6220092773438 1267.550415039062 939.3101196289062 1266.359008789062 935.1598510742188 1264.009155273438 L 934.8878173828125 1263.855224609375 L 934.6757202148438 1263.62548828125 C 932.6497192382812 1261.430908203125 931.2540893554688 1259.013793945312 930.527587890625 1256.441162109375 C 929.9814453125 1254.507202148438 929.9375 1252.942016601562 929.9366455078125 1251.995727539062 C 929.805908203125 1251.885986328125 929.6325073242188 1251.751708984375 929.4915771484375 1251.642578125 C 928.2610473632812 1250.68994140625 926.2015380859375 1249.095581054688 925.9111328125 1245.648315429688 C 925.5990600585938 1241.943603515625 924.522705078125 1239.217651367188 924.00537109375 1237.907592773438 L 923.9389038085938 1237.739013671875 C 923.5224609375 1236.679809570312 923.1854858398438 1233.709106445312 923.3424682617188 1230.571166992188 C 923.489013671875 1227.642211914062 924.1142578125 1223.50146484375 926.2608032226562 1220.407592773438 C 927.548583984375 1218.552490234375 927.5755004882812 1216.3544921875 927.6066284179688 1213.809448242188 C 927.6461181640625 1210.579956054688 927.69091796875 1206.919555664062 930.6692504882812 1203.813110351562 C 933.0148315429688 1201.365356445312 936.3172607421875 1198.345336914062 939.2874755859375 1195.932250976562 C 940.8961181640625 1194.625366210938 942.3030395507812 1193.578857421875 943.4691162109375 1192.822021484375 C 945.2368774414062 1191.674682617188 946.3718872070312 1191.23486328125 947.3463134765625 1191.311645507812 C 947.980224609375 1191.360473632812 948.872802734375 1191.657104492188 949.5193481445312 1192.792724609375 C 949.76806640625 1193.229370117188 949.9527587890625 1193.734497070312 950.1665649414062 1194.319458007812 C 951.207275390625 1197.165893554688 953.372802734375 1203.088745117188 966.6581420898438 1208.08935546875 C 969.8460693359375 1209.289306640625 972.8893432617188 1211.037475585938 975.7033081054688 1213.285400390625 C 978.2083740234375 1215.286499023438 980.546142578125 1217.693481445312 982.651611328125 1220.439208984375 C 986.1956176757812 1225.06103515625 989.0499267578125 1230.616333007812 990.6889038085938 1236.081787109375 C 991.399658203125 1238.452026367188 991.8363647460938 1240.68701171875 991.951904296875 1242.545166015625 C 992.0890502929688 1244.750854492188 991.7848510742188 1246.333618164062 991.0220336914062 1247.384033203125 C 990.4738159179688 1248.139404296875 989.9507446289062 1248.929443359375 989.3969116210938 1249.765869140625 C 987.1537475585938 1253.15380859375 984.6112670898438 1256.993774414062 978.9473266601562 1260.801879882812 C 976.1264038085938 1262.698364257812 971.64697265625 1263.278442382812 966.4602661132812 1263.949951171875 C 963.6876831054688 1264.308959960938 960.823974609375 1264.679809570312 957.883544921875 1265.276123046875 C 956.7943725585938 1265.850341796875 953.1339111328125 1267.550415039062 947.975830078125 1267.550415039062 Z" stroke="none" fill="#000"/>
        </g>
        <g id="Path_3696" data-name="Path 3696" transform="translate(-881.602 -1153.712)" fill="none" stroke-miterlimit="10">
          <path d="M1028.492,1208.312c-.992-1.421,1.7-3.93-.8-8.109a37.974,37.974,0,0,1-3.945-9.292c-.467-1.577-5.8-10.743-12.017-13.594s-7.45-11.285-14.318-13.257c-6.4-1.837-17.1-3.789-19.712-3.048-.1-.04-.188-.088-.287-.125a9.239,9.239,0,0,1-8.5-6.59,9.27,9.27,0,0,0-11.448,4.4,9.243,9.243,0,0,0-10.557,7.683c-.258-.161-.521-.315-.8-.454a7.289,7.289,0,0,0-14.382-2.348,7.29,7.29,0,0,0-9.156,3.693,7.38,7.38,0,0,0-.492,1.378c-.031,0-.062.009-.093.011-1.034-1.21-2.21-2.224-2.555-3.217-.866-2.482-4.333-1.5-3.986-3.237s-3.986.866-3.986.866-18.026,14.211-23.917,30.183-7.107,24.41-4.947,38.307,20.275,21.839,20.275,21.839a13.987,13.987,0,0,0,3.032-.668,8.883,8.883,0,0,0,6.055,2.381c.076,0,.149-.009.223-.012a8.915,8.915,0,0,0,11.984,10.262,8.906,8.906,0,0,0,11.129,3.221,8.888,8.888,0,0,0,10.438,1.188c10.538,4.6,18.49-.161,18.49-.161,8.591-1.783,16.833-1.672,20.646-4.237,5.413-3.639,7.8-7.312,10-10.627a8.7,8.7,0,0,0,2.623-3.682,8.8,8.8,0,0,0,.493-2.132,598.357,598.357,0,0,1,16.919-10.729c6.076.042,15.649-2.329,17.313-17.288A18.844,18.844,0,0,0,1028.492,1208.312Z" stroke="none"/>
          <path d="M 965.687255859375 1153.711791992188 C 962.294921875 1153.711791992188 959.086669921875 1155.590698242188 957.4678955078125 1158.69677734375 C 953.209228515625 1158.038818359375 948.9306030273438 1160.433715820312 947.3677978515625 1164.631103515625 C 947.154052734375 1165.2080078125 947.006591796875 1165.793090820312 946.911376953125 1166.37939453125 C 946.65380859375 1166.218139648438 946.39013671875 1166.064819335938 946.1148681640625 1165.925537109375 C 946.5189208984375 1162.870727539062 944.94580078125 1159.774169921875 942.0128173828125 1158.382080078125 C 938.3731079101562 1156.654541015625 934.0224609375 1158.20458984375 932.2958984375 1161.844360351562 C 932.027587890625 1162.408935546875 931.84765625 1162.990356445312 931.7327880859375 1163.577880859375 C 928.2179565429688 1162.250854492188 924.2158203125 1163.81689453125 922.576416015625 1167.271362304688 C 922.3628540039062 1167.721557617188 922.2002563476562 1168.183959960938 922.0841674804688 1168.649536132812 C 922.0527954101562 1168.651733398438 922.0225830078125 1168.658569335938 921.9912109375 1168.660888671875 C 920.956787109375 1167.451293945312 919.7816772460938 1166.4365234375 919.4357299804688 1165.44384765625 C 918.569580078125 1162.96142578125 915.1026611328125 1163.940185546875 915.44970703125 1162.20654296875 C 915.7955932617188 1160.473388671875 911.4638671875 1163.072998046875 911.4638061523438 1163.072998046875 C 911.4638061523438 1163.072998046875 893.4380493164062 1177.284423828125 887.5467529296875 1193.256225585938 C 881.6531982421875 1209.226806640625 880.4398193359375 1217.666625976562 882.599365234375 1231.5634765625 C 884.7579345703125 1245.459106445312 902.8740844726562 1253.40234375 902.8740844726562 1253.40234375 C 902.8740844726562 1253.40234375 904.764404296875 1253.201538085938 905.9057006835938 1252.734497070312 C 907.4976806640625 1254.2080078125 909.6199951171875 1255.115844726562 911.9607543945312 1255.115844726562 C 912.0362548828125 1255.115844726562 912.109375 1255.106811523438 912.18359375 1255.104248046875 C 912.0419921875 1255.737060546875 911.9607543945312 1256.390869140625 911.9607543945312 1257.066650390625 C 911.9607543945312 1261.99755859375 915.9583129882812 1265.995239257812 920.890625 1265.995239257812 C 922.0482177734375 1265.995239257812 923.151123046875 1265.767700195312 924.1671752929688 1265.365966796875 C 925.7647094726562 1267.785400390625 928.5037231445312 1269.384399414062 931.6212158203125 1269.384399414062 C 932.93212890625 1269.384399414062 934.1744384765625 1269.095336914062 935.2960205078125 1268.586669921875 C 936.885498046875 1270.046142578125 938.998779296875 1270.94482421875 941.3267822265625 1270.94482421875 C 942.93017578125 1270.94482421875 944.4324951171875 1270.515380859375 945.734130859375 1269.774536132812 C 956.2721557617188 1274.37939453125 964.2241821289062 1269.613159179688 964.2242431640625 1269.613159179688 C 972.8150634765625 1267.829711914062 981.0574951171875 1267.941040039062 984.8704833984375 1265.376342773438 C 990.283447265625 1261.7373046875 992.6705322265625 1258.06396484375 994.8660888671875 1254.749145507812 C 996.010986328125 1253.802734375 996.9339599609375 1252.557861328125 997.4888916015625 1251.067260742188 C 997.750244140625 1250.363525390625 997.90478515625 1249.648315429688 997.9814453125 1248.935424804688 C 1002.322692871094 1250.154174804688 1006.943603515625 1247.86474609375 1008.543579101562 1243.563232421875 C 1008.752563476562 1243.00244140625 1008.900024414062 1242.433471679688 1008.989624023438 1241.864501953125 C 1011.349975585938 1241.5185546875 1013.5048828125 1240.207641601562 1014.900512695312 1238.2060546875 C 1014.952026367188 1238.206420898438 1015.004028320312 1238.20654296875 1015.056091308594 1238.20654296875 C 1021.138488769531 1238.20654296875 1030.563720703125 1235.750122070312 1032.21337890625 1220.917602539062 C 1032.601196289062 1213.89892578125 1029.483764648438 1209.733032226562 1028.492065429688 1208.311767578125 C 1027.50048828125 1206.890625 1030.188354492188 1204.381713867188 1027.69677734375 1200.203002929688 C 1025.205078125 1196.025512695312 1024.217041015625 1192.487426757812 1023.751342773438 1190.91064453125 C 1023.284790039062 1189.333984375 1017.948364257812 1180.167236328125 1011.734375 1177.316772460938 C 1005.51904296875 1174.467529296875 1004.284790039062 1166.031372070312 997.4158935546875 1164.059692382812 C 991.0137329101562 1162.222900390625 980.314697265625 1160.270629882812 977.704345703125 1161.011962890625 C 977.6068115234375 1160.972290039062 977.5162353515625 1160.923706054688 977.41748046875 1160.886474609375 C 976.472412109375 1160.534790039062 975.507568359375 1160.3525390625 974.5531005859375 1160.315307617188 C 973.74267578125 1157.634155273438 971.7432861328125 1155.347045898438 968.9161376953125 1154.296142578125 C 967.8511962890625 1153.899780273438 966.7598876953125 1153.711791992188 965.687255859375 1153.711791992188 M 965.687255859375 1148.711791992188 C 967.3855590820312 1148.711791992188 969.0587158203125 1149.014038085938 970.6602783203125 1149.610229492188 C 972.7562866210938 1150.389282226562 974.662841796875 1151.669067382812 976.1717529296875 1153.310424804688 C 976.8762817382812 1154.076782226562 977.4970703125 1154.924560546875 978.0206298828125 1155.830078125 C 978.089111328125 1155.84912109375 978.1574096679688 1155.86865234375 978.2255859375 1155.888793945312 C 978.581787109375 1155.86328125 978.9617309570312 1155.850830078125 979.3709106445312 1155.850830078125 C 984.0441284179688 1155.850952148438 993.0917358398438 1157.617309570312 998.7948608398438 1159.253540039062 C 1004.136657714844 1160.786987304688 1006.987976074219 1164.785888671875 1009.279052734375 1167.999145507812 C 1010.808898925781 1170.144775390625 1012.130187988281 1171.997802734375 1013.817993164062 1172.771606445312 C 1015.738525390625 1173.652587890625 1017.674499511719 1174.994384765625 1019.573181152344 1176.760498046875 C 1021.03759765625 1178.122436523438 1022.484680175781 1179.737182617188 1023.874267578125 1181.559814453125 C 1025.249145507812 1183.363159179688 1026.256225585938 1184.96142578125 1026.85888671875 1185.984741210938 C 1028.163330078125 1188.199462890625 1028.451171875 1189.172241210938 1028.5458984375 1189.491821289062 L 1028.606201171875 1189.696899414062 C 1029.066162109375 1191.26123046875 1029.922119140625 1194.17333984375 1031.990966796875 1197.641723632812 C 1034.312255859375 1201.534912109375 1033.863525390625 1204.858764648438 1033.46826171875 1206.737182617188 C 1034.10791015625 1207.72998046875 1034.91552734375 1209.133666992188 1035.6123046875 1210.90869140625 C 1036.869750976562 1214.111572265625 1037.405883789062 1217.571899414062 1037.205810546875 1221.193481445312 L 1037.198120117188 1221.332153320312 L 1037.182739257812 1221.470336914062 C 1036.726318359375 1225.574340820312 1035.696899414062 1229.181762695312 1034.123046875 1232.192626953125 C 1032.646728515625 1235.017333984375 1030.68017578125 1237.354125976562 1028.278564453125 1239.13818359375 C 1026.2470703125 1240.647094726562 1023.911743164062 1241.75390625 1021.33740234375 1242.427978515625 C 1020.029418945312 1242.770385742188 1018.659851074219 1243.0009765625 1017.245910644531 1243.117553710938 C 1016.012145996094 1244.300415039062 1014.566772460938 1245.245727539062 1012.992858886719 1245.901977539062 C 1011.964477539062 1248.322998046875 1010.282897949219 1250.3759765625 1008.100830078125 1251.864501953125 C 1006.141052246094 1253.201293945312 1003.902160644531 1254.000854492188 1001.563842773438 1254.207641601562 C 1000.835205078125 1255.648559570312 999.85546875 1256.953857421875 998.671142578125 1258.058837890625 C 996.434326171875 1261.4296875 993.5838623046875 1265.543334960938 987.6600952148438 1269.525756835938 C 984.25244140625 1271.81787109375 979.4468383789062 1272.440185546875 973.8824462890625 1273.160766601562 C 971.2897338867188 1273.49658203125 968.6154174804688 1273.842895507812 965.9139404296875 1274.372924804688 C 964.222900390625 1275.203369140625 960.3152465820312 1276.780151367188 955.0230102539062 1276.780151367188 C 951.936279296875 1276.780151367188 948.8580322265625 1276.245361328125 945.8438110351562 1275.1875 C 944.3931274414062 1275.686401367188 942.864990234375 1275.94482421875 941.3267822265625 1275.94482421875 C 938.8800659179688 1275.94482421875 936.5048217773438 1275.302612304688 934.4140014648438 1274.1015625 C 933.4998779296875 1274.289672851562 932.5670776367188 1274.384399414062 931.6212158203125 1274.384399414062 C 928.1834716796875 1274.384399414062 924.9305419921875 1273.126586914062 922.4186401367188 1270.910766601562 C 921.9126586914062 1270.967041015625 921.40283203125 1270.995239257812 920.890625 1270.995239257812 C 919.0122680664062 1270.995239257812 917.1875 1270.626342773438 915.4669799804688 1269.898681640625 C 913.8076171875 1269.196899414062 912.318359375 1268.193237304688 911.0407104492188 1266.915771484375 C 909.7630615234375 1265.63818359375 908.7593383789062 1264.149047851562 908.0574951171875 1262.489868164062 C 907.6152954101562 1261.444580078125 907.3056030273438 1260.360717773438 907.1305541992188 1259.249755859375 C 906.3450927734375 1258.958129882812 905.5858764648438 1258.594970703125 904.8621826171875 1258.1640625 C 904.2012329101562 1258.2822265625 903.663330078125 1258.3466796875 903.4022827148438 1258.374389648438 L 902.0820922851562 1258.5146484375 L 900.8662719726562 1257.9814453125 C 900.658203125 1257.890258789062 895.709716796875 1255.700317382812 890.4814453125 1251.644409179688 C 887.33544921875 1249.203857421875 884.70458984375 1246.5703125 882.6622314453125 1243.81689453125 C 879.960205078125 1240.174438476562 878.2767333984375 1236.309936523438 877.6585693359375 1232.330932617188 C 876.4556884765625 1224.590087890625 876.2874755859375 1218.669555664062 877.095947265625 1212.5341796875 C 877.8719482421875 1206.64599609375 879.5946044921875 1200.362915039062 882.85595703125 1191.525146484375 C 884.3494873046875 1187.47607421875 886.6456298828125 1183.236206054688 889.6802978515625 1178.92431640625 C 892.0458984375 1175.563110351562 894.8719482421875 1172.137084960938 898.0800170898438 1168.741455078125 C 903.5118408203125 1162.9921875 908.1724243164062 1159.300903320312 908.3681640625 1159.146484375 L 908.6179809570312 1158.949584960938 L 908.8908081054688 1158.785888671875 C 908.9714965820312 1158.737426757812 909.7048950195312 1158.300048828125 910.6091918945312 1157.855224609375 C 912.3590087890625 1156.994506835938 913.704833984375 1156.610595703125 914.9728393554688 1156.610595703125 C 916.663330078125 1156.610595703125 918.2235107421875 1157.330810546875 919.2532958984375 1158.58642578125 C 919.4114379882812 1158.779296875 919.5548706054688 1158.982055664062 919.6829833984375 1159.193115234375 C 920.0808715820312 1159.357055664062 920.5084228515625 1159.56298828125 920.943115234375 1159.828735351562 C 921.2744140625 1160.03125 921.5863037109375 1160.254760742188 921.8775024414062 1160.497680664062 C 922.1381225585938 1160.30615234375 922.4070434570312 1160.12451171875 922.6836547851562 1159.953247070312 C 924.494384765625 1158.832153320312 926.55712890625 1158.202026367188 928.6773681640625 1158.118041992188 C 929.6456298828125 1156.673095703125 930.9114990234375 1155.448120117188 932.4033813476562 1154.523681640625 C 934.3544311523438 1153.314575195312 936.597412109375 1152.675659179688 938.8897094726562 1152.675659179688 C 940.7219848632812 1152.675659179688 942.494140625 1153.075805664062 944.1569213867188 1153.865112304688 C 945.4719848632812 1154.4892578125 946.6453247070312 1155.323974609375 947.6424560546875 1156.336059570312 C 947.7621459960938 1156.248901367188 947.8833618164062 1156.163452148438 948.006103515625 1156.079711914062 C 950.07275390625 1154.669067382812 952.4378051757812 1153.834106445312 954.9056396484375 1153.635131835938 C 955.8856811523438 1152.50537109375 957.0422973632812 1151.531494140625 958.3380126953125 1150.753295898438 C 960.5615234375 1149.417724609375 963.1028442382812 1148.711791992188 965.687255859375 1148.711791992188 Z" stroke="none" fill="#000"/>
        </g>
        <path id="Path_3697" data-name="Path 3697" d="M887.37,1219.912s4.163-11.778,9.128-13.511" transform="translate(-880.673 -1145.225)" fill="none" stroke="#bfefa0" stroke-linecap="round" stroke-linejoin="round" stroke-width="3"/>
        <path id="Path_3698" data-name="Path 3698" d="M940.8,1206.645s-5.7,40.836,22.13,52.217" transform="translate(-872.144 -1145.186)" fill="none" stroke="#bfefa0" stroke-linecap="round" stroke-linejoin="round" stroke-width="3"/>
        <path id="Path_3699" data-name="Path 3699" d="M948.647,1246.068a31.543,31.543,0,0,0,15.319-20.47" transform="translate(-870.802 -1142.133)" fill="none" stroke="#bfefa0" stroke-linecap="round" stroke-linejoin="round" stroke-width="3"/>
        <path id="Path_3700" data-name="Path 3700" d="M933.326,1227.373s2.379,4.225,10.966,5.013" transform="translate(-873.27 -1141.847)" fill="none" stroke="#bfefa0" stroke-linecap="round" stroke-linejoin="round" stroke-width="3"/>
        <path id="Path_3701" data-name="Path 3701" d="M940.573,1221.242s6.9-2.716,8.139-8.443" transform="translate(-872.103 -1144.194)" fill="none" stroke="#bfefa0" stroke-linecap="round" stroke-linejoin="round" stroke-width="3"/>
        <path id="Path_3702" data-name="Path 3702" d="M895.268,1235.68s-18.169-14.772-4.219-36.039" transform="translate(-880.929 -1146.314)" fill="none" stroke="#bfefa0" stroke-linecap="round" stroke-linejoin="round" stroke-width="3"/>
      </g>
    </g>
  </g>
</svg>
