<svg xmlns="http://www.w3.org/2000/svg" width="148.424" height="119.25" viewBox="0 0 148.424 119.25">
  <g id="Group_1535" data-name="Group 1535" transform="translate(-50.211 -777.291)">
    <g id="Group_1127" data-name="Group 1127" transform="translate(-5.161 70.224)">
      <g id="Group_1126" data-name="Group 1126" transform="translate(58.374 710.067)">
        <path id="Path_3153" data-name="Path 3153" d="M80.908,730.058l5.865-6.634s60.924,53.918,60.213,57.2c3.189,2.986,28.948,33.483,28.948,33.483s2.131,4.548-3.019,7.379-7.456,2.307-9.713.122-23.252-32.517-24.411-33.148-1.19-.173-2.43-.995S80.908,730.058,80.908,730.058Z" transform="translate(-58.559 -710.177)" fill="#a1c63b"/>
        <path id="Path_3154" data-name="Path 3154" d="M103.194,762.429s-2.2.189-6.633.338c-5.229.176-8.974,4.232-13.276,3.831a12.41,12.41,0,0,0-6.8,1.007s1.155-4.967,3.257-5.689,5.809-3.334,4.231-4.211-9.408,4.177-13.042,2.11-4.942-2.714-4.942-2.714,7.424-.752,7.868-3.349-.952-1.832-3.32-2.545-11.546-6.1-12.144-7.908,12.231-2.8,14.017-1.839,3.919,3.151,3.915.914.616-5.631-.644-6.971,6.663-.926,8.191,3.069,5.468,9.2,5.929,7.457-.169-7.672-2.513-9.943,10.888,2.937,13.239,10.885A62.955,62.955,0,0,1,103.194,762.429Z" transform="translate(-58.374 -710.271)" fill="#d0efa3"/>
        <path id="Path_3155" data-name="Path 3155" d="M105.765,768.559a12.546,12.546,0,0,0-4.339,2.086,8.716,8.716,0,0,1-7.537,1.188,6.785,6.785,0,0,0-3.754-.237s1.184-2.527,2.392-2.674,3.489-1.122,2.744-1.77-5.511,1.162-7.221-.359-2.335-2.016-2.335-2.016,4.059.444,4.593-.9-.3-1.089-1.487-1.741-5.484-4.582-5.6-5.619,6.867-.1,7.713.616,1.739,2.133,1.991.936.972-2.945.451-3.8,3.671.264,4.033,2.578,1.876,5.549,2.323,4.667.784-4.126-.21-5.608,5.492,2.814,5.843,7.336S105.977,766.928,105.765,768.559Z" transform="translate(-58.578 -710.429)" fill="#9ccd40"/>
        <path id="Path_3156" data-name="Path 3156" d="M103.247,744.107s1.6-5.434,5.042-6.031a10.633,10.633,0,0,0,7.461-5.561,8.289,8.289,0,0,1,2.994-3.475s-3.213-1.121-4.371-.193-3.952,2.087-3.884.884,5.712-3.815,5.843-6.6.232-3.756.232-3.756-3.072,3.919-4.7,3.242-.693-1.19-.25-2.781.68-8.688-.127-9.671-5.944,5.9-6.039,7.25.378,3.334-.882,2.535-3.4-1.663-3.7-2.85-2.9,3.427-1.191,5.715,3.239,6.367,2.09,6-4.267-2.832-4.711-4.965-2.229,7.188,1.414,11.35S101.644,742.9,103.247,744.107Z" transform="translate(-58.686 -710.067)" fill="#7eb543"/>
        <path id="Path_3157" data-name="Path 3157" d="M102.541,741.3" transform="translate(-58.738 -710.325)" fill="#a1c63b"/>
        <path id="Path_3158" data-name="Path 3158" d="M95.618,761.456s9.3,8.542,19.71,11.065" transform="translate(-58.681 -710.491)" fill="none" stroke="#ceee89" stroke-miterlimit="10" stroke-width="1"/>
        <path id="Path_3159" data-name="Path 3159" d="M97.294,752.457s25.426,30.879,35.3,41.976,18.886,16.457,21.556,16.738c1.718-1.17,3.006-6.434.751-7.161s-16.455-6.879-44.482-41.471C100.3,751.417,99.16,750.684,99.16,750.684Z" transform="translate(-58.694 -710.402)" fill="#d0efa3"/>
        <path id="Path_3160" data-name="Path 3160" d="M106.724,747.768s-.461-8.482,6.014-8.368c4.521,3.207,58.22,40.566,81.364,55.058,7.049,4.039,7.093,4.71,7.093,4.71l-.159,3.089s-10.368.566-9.96,11.8a35.863,35.863,0,0,1-2.941,4.232C187.607,818.59,106.724,747.768,106.724,747.768Z" transform="translate(-58.772 -710.309)" fill="#d4ee8b"/>
        <line id="Line_369" data-name="Line 369" x2="69.935" y2="56.303" transform="translate(50.927 36.916)" fill="none" stroke="#7eb543" stroke-linecap="round" stroke-linejoin="round" stroke-width="2"/>
        <line id="Line_370" data-name="Line 370" x2="71.221" y2="52.079" transform="translate(52.049 34.335)" fill="none" stroke="#7eb543" stroke-linecap="round" stroke-linejoin="round" stroke-width="2"/>
        <line id="Line_371" data-name="Line 371" x2="77.302" y2="53.724" transform="translate(53.767 31.982)" fill="none" stroke="#7eb543" stroke-linecap="round" stroke-linejoin="round" stroke-width="2"/>
      </g>
      <g id="Path_3161" data-name="Path 3161" transform="translate(0 0)" fill="none" stroke-linecap="round" stroke-linejoin="round">
        <path d="M193.7,794.215c-23.144-14.492-76.842-51.851-81.365-55.057a5.07,5.07,0,0,0-4.882,2.862l-2.321-2.1a4.892,4.892,0,0,1,2.841-1.845,10.633,10.633,0,0,0,7.461-5.561,8.289,8.289,0,0,1,2.994-3.475s-3.213-1.121-4.371-.193-3.953,2.087-3.884.884,5.712-3.815,5.843-6.6.232-3.756.232-3.756-3.072,3.919-4.7,3.242-.693-1.19-.25-2.781.679-8.688-.128-9.671-5.943,5.9-6.038,7.25.378,3.334-.882,2.535-3.4-1.663-3.7-2.851-2.9,3.427-1.191,5.715,3.239,6.367,2.09,6-4.267-2.832-4.712-4.965c-.356-1.707-1.566,3.916-.171,8.366-5.961-5.343-9.986-8.9-9.986-8.9l-5.865,6.634s3.254,3.4,8.179,8.529a15.354,15.354,0,0,1,.9,7.25c-.461,1.745-4.4-3.461-5.929-7.457s-9.449-4.409-8.191-3.069.64,4.736.644,6.971-2.13.047-3.915-.914-14.616.028-14.017,1.839,9.775,7.2,12.144,7.908,3.763-.054,3.32,2.545-7.868,3.349-7.868,3.349,1.309.648,4.942,2.714c3.555,2.022,11.114-2.759,12.916-2.144.15.177.315.361.492.551.1,1.121-2.818,3.081-4.6,3.693-2.1.722-3.257,5.689-3.257,5.689a12.41,12.41,0,0,1,6.8-1.007,8.6,8.6,0,0,0,3.8-.632c.226.2.471.415.755.667,1.71,1.521,6.477-.291,7.221.358s-1.537,1.625-2.744,1.771-2.393,2.674-2.393,2.674a6.79,6.79,0,0,1,3.755.237,8.716,8.716,0,0,0,7.537-1.188,12.748,12.748,0,0,1,4.267-2.069,41.355,41.355,0,0,0,7.614,3.348c7.044,8.433,14.7,17.511,19.177,22.537,9.879,11.1,18.886,16.457,21.556,16.737a2.9,2.9,0,0,0,.7-.729c4.115,5.731,7.635,10.564,8.487,11.388,2.257,2.184,4.564,2.708,9.713-.122s3.019-7.379,3.019-7.379-11.093-13.134-19.621-23.007c16.779,14.584,31.385,27.187,31.608,27.061a35.961,35.961,0,0,0,2.941-4.232c-.408-11.235,9.96-11.8,9.96-11.8l.159-3.089S200.752,798.256,193.7,794.215Zm-88.1-27.408c-.071-.546-.238-1.4-.435-3.928a5.565,5.565,0,0,0-.22-1.12c2.2,2.65,4.695,5.653,7.305,8.781Zm4.5-4.6c-3.69-4.055-6.183-6.725-7.866-8.486-.1-.546-.209-1.109-.336-1.7,15.358,15.981,33.564,34.866,34.276,35.338,1.24.822,1.269.362,2.43.995.452.247,3.936,5.032,8.144,10.9C139.557,794.18,127.494,783.671,110.1,762.2Z" stroke="none"/>
        <path d="M 166.9706115722656 823.3169555664062 C 168.4414825439453 823.3169555664062 170.2581024169922 822.7315063476562 172.7302398681641 821.3726196289062 C 177.8804168701172 818.5421142578125 175.7491455078125 813.993896484375 175.7491455078125 813.993896484375 C 175.7491455078125 813.993896484375 164.6563415527344 800.860107421875 156.1282501220703 790.9871826171875 C 172.8227691650391 805.4979858398438 187.3671417236328 818.0479736328125 187.7321014404297 818.0491333007812 C 187.7339324951172 818.0491943359375 187.7353515625 818.048828125 187.7364807128906 818.0482177734375 C 187.8951568603516 817.95703125 188.8809509277344 816.605224609375 190.677001953125 813.8164672851562 C 190.2694091796875 802.5818481445312 200.6372222900391 802.0155639648438 200.6372222900391 802.0155639648438 L 200.7958831787109 798.9262084960938 C 200.7958831787109 798.9262084960938 200.7522583007812 798.2557983398438 193.7028656005859 794.21533203125 C 170.5592651367188 779.7238159179688 116.860725402832 742.3644409179688 112.3383255004883 739.1581420898438 C 109.7697906494141 739.111328125 108.3028717041016 740.4255981445312 107.4559097290039 742.0203857421875 C 106.6714324951172 741.3102416992188 105.8978729248047 740.6110229492188 105.1352233886719 739.9208374023438 C 105.8829956054688 739.022216796875 106.8241806030273 738.2755126953125 107.9765777587891 738.076171875 C 111.4159927368164 737.4781494140625 114.1294326782227 735.083984375 115.4375610351562 732.5154418945312 C 116.7466812133789 729.9467163085938 118.4316635131836 729.0402221679688 118.4316635131836 729.0402221679688 C 118.4316711425781 729.0402221679688 115.218391418457 727.919677734375 114.0609970092773 728.8468017578125 C 112.9036331176758 729.7741088867188 110.1078643798828 730.9334106445312 110.1772842407227 729.7305297851562 C 110.2457275390625 728.5275268554688 115.8897857666016 725.9152221679688 116.0207061767578 723.12841796875 C 116.1516189575195 720.341552734375 116.2527847290039 719.3726806640625 116.2527847290039 719.3726806640625 C 116.2527847290039 719.3726806640625 113.1803970336914 723.2914428710938 111.5568313598633 722.6146850585938 C 109.9333267211914 721.9373168945312 110.8635787963867 721.424560546875 111.3068923950195 719.8338012695312 C 111.7502212524414 718.2440185546875 111.9862670898438 711.1461181640625 111.178955078125 710.1631469726562 C 110.3716812133789 709.1797485351562 105.2363662719727 716.0631103515625 105.1411590576172 717.4129028320312 C 105.0459518432617 718.7628173828125 105.5189895629883 720.7471313476562 104.2594985961914 719.9478759765625 C 102.9999771118164 719.1475219726562 100.8637237548828 718.28466796875 100.5572662353516 717.0966186523438 C 100.2508392333984 715.9097290039062 97.65739440917969 720.5239868164062 99.36618041992188 722.8120727539062 C 101.0739669799805 725.0999755859375 102.6050491333008 729.17822265625 101.455810546875 728.8161010742188 C 100.3073501586914 728.4541625976562 97.18926239013672 725.9837036132812 96.74399566650391 723.8513793945312 C 96.38796997070312 722.144775390625 95.17799377441406 727.7678833007812 96.57341003417969 732.2178344726562 C 90.61195373535156 726.875244140625 86.58740997314453 723.3138427734375 86.58740997314453 723.3138427734375 L 80.72218322753906 729.9476928710938 C 80.72218322753906 729.9476928710938 83.97611999511719 733.343505859375 88.90120697021484 738.4768676757812 C 89.90287017822266 741.1297607421875 90.13095092773438 744.4848022460938 89.80270385742188 745.7265625 C 89.34148406982422 747.4718627929688 85.40325927734375 742.2653198242188 83.87397766113281 738.26953125 C 82.34568023681641 734.273681640625 74.42457580566406 733.8603515625 75.68309783935547 735.2000732421875 C 76.94261932373047 736.5388793945312 76.32276916503906 739.9357299804688 76.32672119140625 742.1710815429688 C 76.33071136474609 744.4064331054688 74.19645690917969 742.2177734375 72.41128540039062 741.2567138671875 C 70.62512969970703 740.2966918945312 57.79480743408203 741.2845458984375 58.39382934570312 743.0953979492188 C 58.99187088012695 744.9053344726562 68.16855621337891 750.2905883789062 70.53787231445312 751.0036010742188 C 72.90615844726562 751.7158203125 74.30057525634766 750.9500732421875 73.85826873779297 753.5484619140625 C 73.41493225097656 756.1458740234375 65.99066162109375 756.8976440429688 65.99066162109375 756.8976440429688 C 65.99066162109375 756.8976440429688 67.29978942871094 757.5452270507812 70.93257904052734 759.612060546875 C 74.27037048339844 761.5103759765625 81.13587188720703 757.412841796875 83.45485687255859 757.412841796875 C 83.6060791015625 757.412841796875 83.73788452148438 757.4302368164062 83.84820556640625 757.4678955078125 C 83.99795532226562 757.6444091796875 84.16358184814453 757.8289184570312 84.34009552001953 758.0193481445312 C 84.43828582763672 759.1400146484375 81.52253723144531 761.1007080078125 79.74333190917969 761.712646484375 C 77.64180755615234 762.4346313476562 76.48641204833984 767.4013061523438 76.48641204833984 767.4013061523438 C 76.48641204833984 767.4013061523438 78.984619140625 765.993408203125 83.28587341308594 766.3946533203125 C 84.58605194091797 766.5156860351562 85.83467864990234 766.2260131835938 87.09024810791016 765.762939453125 C 87.31635284423828 765.9622802734375 87.56132507324219 766.177490234375 87.844970703125 766.430419921875 C 89.27581787109375 767.7035522460938 92.84808349609375 766.6422119140625 94.41148376464844 766.6422729492188 C 94.71627807617188 766.6422729492188 94.944580078125 766.6825561523438 95.06593322753906 766.7883911132812 C 95.81074523925781 767.4380493164062 93.52870178222656 768.4129028320312 92.32174682617188 768.5597534179688 C 91.11378479003906 768.7064208984375 89.92864227294922 771.2334594726562 89.92864227294922 771.2334594726562 C 89.92864227294922 771.2334594726562 91.42718505859375 770.7643432617188 93.68343353271484 771.470458984375 C 95.93965911865234 772.1755981445312 98.89905548095703 771.9573974609375 101.2207641601562 770.2824096679688 C 103.312370300293 768.7739868164062 105.1421585083008 768.2948608398438 105.4872894287109 768.213623046875 C 107.8149337768555 769.5067749023438 110.3974761962891 770.7138671875 113.1009750366211 771.561767578125 C 120.1454086303711 779.99462890625 127.8047256469727 789.0731811523438 132.2775573730469 794.0983276367188 C 142.1564331054688 805.194091796875 151.1635437011719 810.5555419921875 153.8333435058594 810.8351440429688 C 154.0782928466797 810.6695556640625 154.3113555908203 810.4136962890625 154.5295562744141 810.1062622070312 C 158.6443328857422 815.8375854492188 162.1640625 820.6704711914062 163.0169677734375 821.49462890625 C 164.1905059814453 822.6300048828125 165.3778228759766 823.3169555664062 166.9706115722656 823.3169555664062 M 146.7502288818359 799.2426147460938 C 139.5570220947266 794.1796875 127.4943084716797 783.6710815429688 110.1019134521484 762.2045288085938 C 106.4115982055664 758.1492309570312 103.9193267822266 755.4794921875 102.2363052368164 753.7180786132812 C 102.1361389160156 753.1716918945312 102.0270538330078 752.6093139648438 101.9001235961914 752.0133056640625 C 117.258430480957 767.994384765625 135.4640502929688 786.8794555664062 136.1761474609375 787.3515014648438 C 137.4158325195312 788.173583984375 137.4455718994141 787.7134399414062 138.6059265136719 788.3462524414062 C 139.0581817626953 788.5931396484375 142.5422210693359 793.3783569335938 146.7502288818359 799.2426147460938 M 112.2480773925781 770.540283203125 L 105.5983734130859 766.8072509765625 C 105.5269546508789 766.2608032226562 105.3603286743164 765.4078979492188 105.1629943847656 762.8789672851562 C 105.1342239379883 762.5020751953125 105.049934387207 762.129150390625 104.9428253173828 761.7592163085938 C 107.1405334472656 764.4092407226562 109.6377868652344 767.4122314453125 112.2480773925781 770.540283203125 M 166.9706268310547 826.3169555664062 C 164.02734375 826.3169555664062 162.1141204833984 824.7953491210938 160.9310302734375 823.6507568359375 C 160.2252960205078 822.9688110351562 158.7318420410156 821.0730590820312 153.5029754638672 813.81689453125 C 150.6625518798828 813.5093994140625 146.3325042724609 810.6395874023438 144.0010833740234 808.9539184570312 C 140.7819061279297 806.6262817382812 135.7461395263672 802.5056762695312 130.0369262695312 796.0932006835938 C 126.3115921020508 791.9078369140625 120.0259094238281 784.525146484375 111.3495559692383 774.1444091796875 C 109.3622741699219 773.4650268554688 107.3018112182617 772.5679931640625 105.2003784179688 771.467529296875 C 104.6175079345703 771.7086181640625 103.8263854980469 772.10205078125 102.9755554199219 772.7156372070312 C 101.0414733886719 774.1110229492188 98.70893096923828 774.8486938476562 96.23053741455078 774.8486938476562 C 95.03966522216797 774.8486938476562 93.88162231445312 774.6754760742188 92.78855895996094 774.3338623046875 C 92.11978912353516 774.1245727539062 91.58537292480469 774.0807495117188 91.25462341308594 774.0807495117188 C 90.96492004394531 774.0807495117188 90.78189086914062 774.1134643554688 90.73664093017578 774.1226196289062 C 89.62578582763672 774.4332885742188 88.43118286132812 774.07958984375 87.66891479492188 773.2066650390625 C 86.88641357421875 772.310546875 86.70736694335938 771.0367431640625 87.21251678466797 769.9595947265625 C 87.22776794433594 769.9270629882812 87.28934478759766 769.79736328125 87.39000701904297 769.6044921875 C 87.04073333740234 769.46923828125 86.71674346923828 769.30322265625 86.41709899902344 769.106201171875 C 85.53585815429688 769.3200073242188 84.70704650878906 769.4222412109375 83.88397216796875 769.4222412109375 C 83.59101867675781 769.4222412109375 83.29620361328125 769.4085693359375 83.00770568847656 769.3817138671875 C 82.587158203125 769.3424682617188 82.16797637939453 769.3225708007812 81.76107788085938 769.3225708007812 C 79.49813079833984 769.3225708007812 78.12645721435547 769.9378662109375 77.93637847900391 770.0287475585938 C 76.90922546386719 770.6443481445312 75.65752410888672 770.563232421875 74.68449401855469 769.86083984375 C 73.70416259765625 769.1531982421875 73.29049682617188 767.899169921875 73.56443023681641 766.7215576171875 C 73.59972381591797 766.5698852539062 73.92728424072266 765.1959228515625 74.55503845214844 763.679931640625 C 74.65547943115234 763.4373779296875 74.75834655761719 763.203857421875 74.86373138427734 762.979248046875 C 74.28189849853516 763.0648193359375 73.70321655273438 763.1140747070312 73.13658142089844 763.1140747070312 C 71.73326873779297 763.1140747070312 70.49270629882812 762.8131713867188 69.44937133789062 762.2197265625 C 65.98003387451172 760.2459106445312 64.67026519775391 759.5914916992188 64.65745544433594 759.5851440429688 C 63.45870208740234 758.9921264648438 62.79876708984375 757.6780395507812 63.03718185424805 756.362060546875 C 63.27560043334961 755.0460815429688 64.35784912109375 754.0476684570312 65.68843078613281 753.9129028320312 C 65.69766235351562 753.9119262695312 66.92378997802734 753.7832641601562 68.31574249267578 753.46435546875 C 68.37265777587891 753.4513549804688 68.4287109375 753.438232421875 68.48352813720703 753.4252319335938 C 66.70819854736328 752.6546630859375 64.21562194824219 751.2543334960938 62.21437072753906 750.0065307617188 C 61.15518188476562 749.3461303710938 59.62635040283203 748.3499145507812 58.35786819458008 747.35400390625 C 56.71166229248047 746.0615844726562 55.89680862426758 745.1004028320312 55.54530715942383 744.03662109375 C 55.19905853271484 742.9899291992188 55.37707901000977 741.8675537109375 56.03401565551758 740.9583129882812 C 56.95653533935547 739.6814575195312 58.7276611328125 738.945068359375 62.14726638793945 738.4166870117188 C 64.31016540527344 738.0824584960938 66.90332794189453 737.8828735351562 69.08401489257812 737.8828735351562 C 71.59699249267578 737.8828735351562 72.76700592041016 738.14501953125 73.47563934326172 738.4437255859375 C 73.47620391845703 738.31103515625 73.47489166259766 738.181640625 73.47124481201172 738.0565185546875 C 73.45512390136719 737.5035400390625 73.39750671386719 737.2227172851562 73.36590576171875 737.107421875 C 72.52752685546875 736.1150512695312 72.31382751464844 734.8125 72.81185150146484 733.6614990234375 C 73.23609924316406 732.680908203125 74.28001403808594 731.5120849609375 76.84397125244141 731.5120849609375 C 77.28388977050781 731.5120849609375 77.74696350097656 731.543701171875 78.22042846679688 731.6040649414062 C 77.48256683349609 730.4917602539062 77.56166076660156 728.9932250976562 78.47466278076172 727.9605712890625 L 84.33988952636719 721.3267211914062 C 84.86705780029297 720.73046875 85.60953521728516 720.3681640625 86.4039306640625 720.3194580078125 C 87.1983642578125 720.271240234375 87.9794921875 720.539794921875 88.57551574707031 721.0671997070312 C 88.60143280029297 721.0901489257812 90.28845977783203 722.5833129882812 93.05781555175781 725.0518798828125 C 93.09477996826172 724.7440185546875 93.13863372802734 724.4490356445312 93.18887329101562 724.1717529296875 C 93.38105773925781 723.1112060546875 93.648681640625 722.3905029296875 94.05666351318359 721.8350219726562 C 94.49835968017578 721.233642578125 95.10683441162109 720.8193969726562 95.79057312011719 720.6394653320312 C 95.79524230957031 720.4506225585938 95.80665588378906 720.2593994140625 95.82486724853516 720.06591796875 C 95.97266387939453 718.4961547851562 96.51766204833984 717.218505859375 96.82936859130859 716.5966796875 C 97.08962249755859 716.0775146484375 97.37672424316406 715.6288452148438 97.68270111083984 715.26318359375 C 98.62232971191406 714.1403198242188 99.66806030273438 713.9046020507812 100.3798522949219 713.9046020507812 C 101.365478515625 713.9046020507812 102.2481689453125 714.3479614257812 102.8355484008789 715.0820922851562 C 102.9797515869141 714.8043212890625 103.1490707397461 714.5057983398438 103.3458251953125 714.1805419921875 C 103.8527221679688 713.3426513671875 104.5243682861328 712.3698120117188 105.2370147705078 711.4411010742188 C 105.7731628417969 710.742431640625 106.5890350341797 709.7349853515625 107.4311828613281 708.9033203125 C 108.350471496582 707.9954223632812 109.4891204833984 707.0673217773438 110.964225769043 707.0673217773438 C 111.9525146484375 707.0673217773438 112.8760604858398 707.5020751953125 113.4980773925781 708.2600708007812 C 114.0994720458984 708.9923095703125 114.4251861572266 709.9797973632812 114.5863876342773 711.56103515625 C 114.7000961303711 712.6762084960938 114.7173919677734 713.9326171875 114.7118453979492 714.790283203125 C 114.7078399658203 715.4122924804688 114.6897354125977 716.1184692382812 114.6543884277344 716.83203125 C 115.4537124633789 716.3280639648438 116.4656219482422 716.2200927734375 117.3794326782227 716.5899047851562 C 118.6188735961914 717.0914306640625 119.3754119873047 718.3544311523438 119.2365570068359 719.6842651367188 C 119.2361221313477 719.6887817382812 119.1403884887695 720.651123046875 119.0173873901367 723.2691650390625 C 118.9729919433594 724.2142333984375 118.6764907836914 725.0739135742188 118.2275161743164 725.8575439453125 C 118.824577331543 726.006103515625 119.2658309936523 726.1539306640625 119.4195175170898 726.20751953125 C 120.5718688964844 726.609375 121.4417419433594 727.6312255859375 121.5036163330078 728.8500366210938 C 121.5648422241211 730.0555419921875 120.971923828125 731.1416625976562 119.8890991210938 731.6649780273438 C 119.7042846679688 731.7898559570312 118.8536071777344 732.4194946289062 118.1104507446289 733.877685546875 C 117.417594909668 735.2380981445312 116.4608306884766 736.4999389648438 115.3096389770508 737.5794067382812 C 124.3659896850586 743.9185791015625 173.4313354492188 777.9773559570312 195.2456207275391 791.6417236328125 C 198.2513122558594 793.3658447265625 200.4224395751953 794.7279663085938 201.6990814208984 795.6906127929688 C 202.7061462402344 796.449951171875 203.6970825195312 797.3102416992188 203.78955078125 798.7313842773438 C 203.797119140625 798.8474731445312 203.7979125976562 798.9639282226562 203.7919311523438 799.080078125 L 203.6332702636719 802.16943359375 C 203.5538787841797 803.7154541015625 202.3576202392578 804.9443359375 200.8125 805.0106201171875 C 200.6476898193359 805.0245971679688 198.7018890380859 805.2125244140625 196.9078063964844 806.36328125 C 194.6067199707031 807.8392333984375 193.5492706298828 810.2415771484375 193.6750183105469 813.7077026367188 C 193.6972503662109 814.3204956054688 193.5311889648438 814.9253540039062 193.1991882324219 815.4408569335938 C 192.3590087890625 816.745361328125 191.6147003173828 817.8618774414062 191.0467376708984 818.6695556640625 C 190.2176055908203 819.8486938476562 189.8389739990234 820.300048828125 189.2311859130859 820.6493530273438 C 189.2186431884766 820.6565551757812 189.2060394287109 820.6636962890625 189.1934051513672 820.6707153320312 C 188.7477264404297 820.9182739257812 188.2419281005859 821.0491333007812 187.7321014404297 821.0491333007812 C 187.7289123535156 821.0491333007812 187.7257080078125 821.0491333007812 187.7225189208984 821.0491333007812 C 186.6095733642578 821.0455932617188 185.9353485107422 820.5070190429688 185.0817413330078 819.8251953125 C 184.6025543212891 819.4423828125 183.9416961669922 818.89794921875 183.0614471435547 818.1607055664062 C 182.0263214111328 817.2937622070312 180.6899108886719 816.161376953125 179.0695037841797 814.7782592773438 C 179.1673431396484 815.3782958984375 179.2196807861328 816.0792236328125 179.1627197265625 816.844482421875 C 179.0612030029297 818.2088012695312 178.6383514404297 819.484375 177.9059600830078 820.6357421875 C 177.0521545410156 821.9779052734375 175.7969512939453 823.1104125976562 174.1751861572266 824.001708984375 C 171.3016204833984 825.5812377929688 169.0122680664062 826.3169555664062 166.9706268310547 826.3169555664062 Z" stroke="none" fill="#000"/>
      </g>
    </g>
  </g>
</svg>
