<svg xmlns="http://www.w3.org/2000/svg" width="196" height="196" viewBox="0 0 196 196">
  <g id="Group_1983" data-name="Group 1983" transform="translate(-1896 -166)">
    <g id="Group_1961" data-name="Group 1961">
      <g id="Group_1924" data-name="Group 1924" transform="translate(1599 97)">
        <rect id="Rectangle_1254" data-name="Rectangle 1254" width="196" height="196" rx="5" transform="translate(297 69)" fill="#fff"/>
      </g>
    </g>
    <g id="Group_1883" data-name="Group 1883" transform="matrix(0.985, 0.174, -0.174, 0.985, 2009.295, -592.147)">
      <g id="Group_1127" data-name="Group 1127" transform="translate(53.212 780.291)">
        <g id="Group_1126" data-name="Group 1126" transform="translate(0)">
          <path id="Path_3153" data-name="Path 3153" d="M80.908,730.993l6.692-7.569s69.513,61.519,68.7,65.261c3.639,3.407,33.029,38.2,33.029,38.2s2.432,5.189-3.444,8.419-8.507,2.632-11.083.139-26.53-37.1-27.852-37.821-1.358-.2-2.772-1.135S80.908,730.993,80.908,730.993Z" transform="translate(-55.409 -708.31)" fill="#a1c63b"/>
          <path id="Path_3154" data-name="Path 3154" d="M109.513,766.336s-2.51.216-7.568.386c-5.966.2-10.24,4.828-15.147,4.371a14.159,14.159,0,0,0-7.758,1.149s1.318-5.667,3.716-6.491,6.628-3.8,4.827-4.8-10.734,4.766-14.88,2.408-5.639-3.1-5.639-3.1,8.471-.858,8.977-3.821-1.086-2.09-3.788-2.9-13.174-6.958-13.856-9.023,13.956-3.193,15.994-2.1,4.472,3.6,4.467,1.043.7-6.425-.734-7.954,7.6-1.057,9.346,3.5,6.238,10.5,6.765,8.508-.192-8.754-2.867-11.345,12.423,3.351,15.105,12.419A71.83,71.83,0,0,1,109.513,766.336Z" transform="translate(-58.374 -706.825)" fill="#d0efa3"/>
          <path id="Path_3155" data-name="Path 3155" d="M108.943,770.614a14.315,14.315,0,0,0-4.951,2.38,9.945,9.945,0,0,1-8.6,1.356,7.741,7.741,0,0,0-4.283-.271s1.351-2.883,2.729-3.051,3.981-1.28,3.131-2.02-6.288,1.326-8.239-.41-2.664-2.3-2.664-2.3,4.631.507,5.24-1.022-.343-1.243-1.7-1.986-6.258-5.228-6.388-6.411,7.835-.117,8.8.7,1.984,2.434,2.272,1.068,1.109-3.359.515-4.341,4.189.3,4.6,2.941,2.141,6.331,2.65,5.325.9-4.707-.24-6.4,6.267,3.21,6.667,8.37S109.185,768.754,108.943,770.614Z" transform="translate(-55.104 -704.29)" fill="#9ccd40"/>
          <path id="Path_3156" data-name="Path 3156" d="M104.236,748.906s1.827-6.2,5.753-6.881a12.131,12.131,0,0,0,8.513-6.345,9.457,9.457,0,0,1,3.416-3.965s-3.666-1.279-4.987-.221-4.509,2.381-4.431,1.008,6.518-4.353,6.667-7.533.265-4.285.265-4.285-3.506,4.472-5.358,3.7-.791-1.358-.285-3.173.776-9.912-.145-11.034-6.781,6.732-6.89,8.272.431,3.8-1.006,2.892-3.874-1.9-4.224-3.252-3.308,3.91-1.359,6.52,3.7,7.265,2.384,6.85-4.868-3.232-5.375-5.665-2.544,8.2,1.614,12.95S102.408,747.531,104.236,748.906Z" transform="translate(-53.393 -710.067)" fill="#7eb543"/>
          <path id="Path_3157" data-name="Path 3157" d="M102.541,741.3" transform="translate(-52.563 -705.958)" fill="#a1c63b"/>
          <path id="Path_3158" data-name="Path 3158" d="M95.618,761.456s10.613,9.746,22.489,12.625" transform="translate(-53.473 -703.307)" fill="none" stroke="#ceee89" stroke-miterlimit="10" stroke-width="1"/>
          <path id="Path_3159" data-name="Path 3159" d="M97.294,752.707S126.3,787.94,137.575,800.6s21.548,18.777,24.595,19.1c1.96-1.335,3.43-7.34.857-8.17s-18.775-7.849-50.753-47.317c-11.548-12.691-12.85-13.527-12.85-13.527Z" transform="translate(-53.253 -704.724)" fill="#d0efa3"/>
          <path id="Path_3160" data-name="Path 3160" d="M106.725,748.948s-.526-9.678,6.862-9.548c5.159,3.659,66.427,46.284,92.834,62.82,8.043,4.609,8.093,5.374,8.093,5.374l-.181,3.525s-11.829.646-11.364,13.465a40.922,40.922,0,0,1-3.355,4.828C199.011,829.753,106.725,748.948,106.725,748.948Z" transform="translate(-52.013 -706.208)" fill="#d4ee8b"/>
          <line id="Line_369" data-name="Line 369" x2="79.794" y2="64.24" transform="translate(58.107 42.12)" fill="none" stroke="#7eb543" stroke-linecap="round" stroke-linejoin="round" stroke-width="2"/>
          <line id="Line_370" data-name="Line 370" x2="81.262" y2="59.421" transform="translate(59.386 39.175)" fill="none" stroke="#7eb543" stroke-linecap="round" stroke-linejoin="round" stroke-width="2"/>
          <line id="Line_371" data-name="Line 371" x2="88.199" y2="61.298" transform="translate(61.347 36.491)" fill="none" stroke="#7eb543" stroke-linecap="round" stroke-linejoin="round" stroke-width="2"/>
        </g>
        <g id="Path_3161" data-name="Path 3161" transform="translate(-58.374 -710.067)" fill="none" stroke-linecap="round" stroke-linejoin="round">
          <path d="M212.781,806.078c-26.406-16.535-87.675-59.161-92.835-62.819a5.785,5.785,0,0,0-5.571,3.266l-2.648-2.4a5.582,5.582,0,0,1,3.242-2.1,12.131,12.131,0,0,0,8.513-6.345,9.457,9.457,0,0,1,3.416-3.965s-3.666-1.279-4.987-.221-4.51,2.381-4.431,1.008,6.518-4.353,6.667-7.533.265-4.285.265-4.285-3.506,4.472-5.358,3.7-.791-1.358-.285-3.173.775-9.912-.146-11.034-6.78,6.732-6.889,8.272.431,3.8-1.006,2.892-3.874-1.9-4.224-3.253-3.309,3.911-1.359,6.521,3.7,7.265,2.384,6.85-4.868-3.232-5.376-5.665c-.406-1.947-1.787,4.469-.195,9.546-6.8-6.1-11.394-10.159-11.394-10.159l-6.692,7.569s3.713,3.875,9.332,9.731c1.143,3.027,1.4,6.855,1.029,8.272-.526,1.992-5.02-3.949-6.765-8.508s-10.782-5.031-9.346-3.5.73,5.4.734,7.954-2.431.053-4.467-1.043-16.677.032-15.994,2.1,11.153,8.21,13.856,9.023,4.293-.061,3.788,2.9-8.977,3.821-8.977,3.821,1.494.739,5.639,3.1c4.057,2.307,12.68-3.148,14.736-2.446.171.2.36.412.561.629.112,1.279-3.215,3.516-5.245,4.214-2.4.824-3.716,6.491-3.716,6.491a14.16,14.16,0,0,1,7.758-1.149,9.816,9.816,0,0,0,4.341-.721c.258.227.537.473.861.762,1.951,1.736,7.39-.332,8.239.408s-1.754,1.854-3.131,2.021-2.73,3.051-2.73,3.051a7.747,7.747,0,0,1,4.284.271,9.945,9.945,0,0,0,8.6-1.356,14.547,14.547,0,0,1,4.868-2.36,47.183,47.183,0,0,0,8.687,3.82c8.038,9.622,16.777,19.98,21.88,25.714,11.272,12.66,21.548,18.777,24.595,19.1a3.305,3.305,0,0,0,.794-.832c4.695,6.539,8.711,12.053,9.684,12.994,2.575,2.492,5.207,3.09,11.083-.139s3.444-8.419,3.444-8.419-12.657-14.985-22.387-26.25c19.144,16.64,35.81,31.02,36.064,30.876a41.032,41.032,0,0,0,3.355-4.828c-.465-12.818,11.364-13.464,11.364-13.464l.181-3.525S220.824,810.688,212.781,806.078ZM112.256,774.806c-.081-.623-.272-1.6-.5-4.482a6.349,6.349,0,0,0-.251-1.278c2.508,3.024,5.357,6.45,8.335,10.019Zm5.138-5.252c-4.211-4.627-7.054-7.673-8.974-9.683-.114-.623-.239-1.265-.384-1.945,17.523,18.234,38.3,39.781,39.108,40.32,1.414.938,1.448.413,2.772,1.135.516.282,4.491,5.741,9.292,12.432C151,806.037,137.238,794.047,117.394,769.554Z" stroke="none"/>
          <path d="M 182.2799224853516 839.2821044921875 C 183.9581604003906 839.2821044921875 186.0307922363281 838.6141357421875 188.8514404296875 837.063720703125 C 194.7276458740234 833.8341064453125 192.2959136962891 828.644775390625 192.2959136962891 828.644775390625 C 192.2959136962891 828.644775390625 179.6393127441406 813.659423828125 169.9089965820312 802.3946533203125 C 188.9570007324219 818.951171875 205.5517272949219 833.2703247070312 205.9681396484375 833.271728515625 C 205.9702453613281 833.271728515625 205.9718627929688 833.2713623046875 205.97314453125 833.2706298828125 C 206.1541900634766 833.1666259765625 207.2789611816406 831.6241455078125 209.3282012939453 828.4422607421875 C 208.8631439208984 815.6239013671875 220.6925506591797 814.977783203125 220.6925506591797 814.977783203125 L 220.8735961914062 811.452880859375 C 220.8735961914062 811.452880859375 220.8237915039062 810.68798828125 212.7806396484375 806.0780029296875 C 186.3744049072266 789.54345703125 125.1058197021484 746.91748046875 119.9459075927734 743.2591552734375 C 117.0152587890625 743.2078857421875 115.3415756225586 744.705322265625 114.3752059936523 746.52490234375 C 113.4801406860352 745.7147216796875 112.597526550293 744.9168701171875 111.7273406982422 744.12939453125 C 112.5805511474609 743.1041259765625 113.654411315918 742.2520751953125 114.9692764282227 742.024658203125 C 118.8935470581055 741.3424072265625 121.989501953125 738.6107177734375 123.482048034668 735.6800537109375 C 124.9757080078125 732.7491455078125 126.8982315063477 731.7149658203125 126.8982315063477 731.7149658203125 C 126.8982238769531 731.7150268554688 123.2319793701172 730.436279296875 121.9114303588867 731.4942626953125 C 120.5908966064453 732.5524291992188 117.4010238647461 733.8751220703125 117.4802093505859 732.5025634765625 C 117.5582962036133 731.1298828125 123.9980239868164 728.1494140625 124.1474075317383 724.9697265625 C 124.2967758178711 721.7899169921875 124.4121856689453 720.6845703125 124.4121856689453 720.6845703125 C 124.4121932983398 720.6845703125 120.9066314697266 725.1567993164062 119.0542297363281 724.383544921875 C 117.2018661499023 723.6107177734375 118.2632522583008 723.025634765625 118.7690734863281 721.210693359375 C 119.2748870849609 719.396728515625 119.5442047119141 711.2982177734375 118.6230926513672 710.1766357421875 C 117.7020034790039 709.0542602539062 111.8427505493164 716.9083862304688 111.7341384887695 718.448486328125 C 111.6255035400391 719.9887084960938 112.1652069091797 722.2531127929688 110.7281875610352 721.3408203125 C 109.2910919189453 720.4276123046875 106.8537063598633 719.443115234375 106.5040512084961 718.0875244140625 C 106.1543121337891 716.7330322265625 103.1953506469727 721.9981079101562 105.1450271606445 724.6087646484375 C 107.0935821533203 727.21923828125 108.840690612793 731.8732299804688 107.5292510986328 731.459228515625 C 106.2188873291016 731.0462646484375 102.6612548828125 728.2275390625 102.1531829833984 725.7945556640625 C 101.7469253540039 723.8469848632812 100.3664245605469 730.26318359375 101.9585494995117 735.3404541015625 C 95.15670776367188 729.2447509765625 90.5648193359375 725.1812744140625 90.5648193359375 725.1812744140625 L 83.87274932861328 732.7503662109375 C 83.87274932861328 732.7503662109375 87.58541107177734 736.6248779296875 93.20477294921875 742.4818115234375 C 94.34766387939453 745.5087890625 94.60788726806641 749.3367919921875 94.23336791992188 750.7535400390625 C 93.70720672607422 752.744873046875 89.21372985839844 746.8045043945312 87.46884155273438 742.245361328125 C 85.72512054443359 737.6862182617188 76.68731689453125 737.21435546875 78.12327575683594 738.7431640625 C 79.56034088134766 740.2706298828125 78.85311889648438 744.1463623046875 78.85763549804688 746.6968994140625 C 78.86219024658203 749.2473754882812 76.42704772949219 746.7501220703125 74.39022827148438 745.653564453125 C 72.35230255126953 744.5582885742188 57.71323013305664 745.6852416992188 58.39670562744141 747.75146484375 C 59.07904815673828 749.8165283203125 69.54940795898438 755.9610595703125 72.25270843505859 756.7745361328125 C 74.95488739013672 757.587158203125 76.54586791992188 756.7135009765625 76.04118347167969 759.6781005859375 C 75.53536224365234 762.6417236328125 67.06447601318359 763.49951171875 67.06447601318359 763.49951171875 C 67.06447601318359 763.49951171875 68.55813598632812 764.2384033203125 72.70307159423828 766.5965576171875 C 76.51139068603516 768.762451171875 84.34474945068359 764.0873413085938 86.99063873291016 764.0873413085938 C 87.16318511962891 764.0873413085938 87.31356811523438 764.107177734375 87.43943023681641 764.150146484375 C 87.61029815673828 764.3515625 87.79927825927734 764.56201171875 88.00068664550781 764.779296875 C 88.11270904541016 766.0579833984375 84.78591156005859 768.2950439453125 82.75588989257812 768.9932861328125 C 80.35811614990234 769.8170166015625 79.03984069824219 775.48388671875 79.03984069824219 775.48388671875 C 79.03984069824219 775.48388671875 81.89014434814453 773.8771362304688 86.79784393310547 774.3353271484375 C 88.28131866455078 774.4734497070312 89.70595550537109 774.1429443359375 91.13852691650391 773.614501953125 C 91.39649963378906 773.8419189453125 91.676025390625 774.0875244140625 91.99966430664062 774.3760986328125 C 93.63217926025391 775.8287353515625 97.70806121826172 774.6178588867188 99.49185180664062 774.6177978515625 C 99.83960723876953 774.6177978515625 100.1001129150391 774.663818359375 100.2385711669922 774.7845458984375 C 101.0883865356445 775.5257568359375 98.48464202880859 776.6380615234375 97.10752868652344 776.8056640625 C 95.72929382324219 776.9730224609375 94.37706756591797 779.856201171875 94.37706756591797 779.856201171875 C 94.37706756591797 779.856201171875 96.08686828613281 779.3211059570312 98.66116333007812 780.126708984375 C 101.235466003418 780.9310913085938 104.612060546875 780.6821899414062 107.2610702514648 778.7711181640625 C 109.6475219726562 777.050048828125 111.7352752685547 776.50341796875 112.1290512084961 776.41064453125 C 114.7848434448242 777.8861083984375 117.7314376831055 779.263427734375 120.8160705566406 780.2308349609375 C 128.8535766601562 789.8525390625 137.5926666259766 800.2109375 142.6960296630859 805.9444580078125 C 153.9675445556641 818.6043701171875 164.2444152832031 824.7216796875 167.2905883789062 825.0406494140625 C 167.570068359375 824.851806640625 167.8359832763672 824.559814453125 168.0849609375 824.2091064453125 C 172.7798004150391 830.748291015625 176.7957000732422 836.2625732421875 177.7688598632812 837.202880859375 C 179.1078338623047 838.4982299804688 180.4625854492188 839.2821044921875 182.2799224853516 839.2821044921875 M 159.2089385986328 811.81396484375 C 151.0016784667969 806.0372314453125 137.2384490966797 794.0472412109375 117.3942031860352 769.554443359375 C 113.1836624145508 764.927490234375 110.3400497436523 761.88134765625 108.4197769165039 759.8717041015625 C 108.3054809570312 759.248291015625 108.181022644043 758.6065673828125 108.0361862182617 757.9266357421875 C 125.5595932006836 776.1605224609375 146.3317260742188 797.7078857421875 147.1442108154297 798.2464599609375 C 148.5586547851562 799.1844482421875 148.5926208496094 798.659423828125 149.9165191650391 799.3814697265625 C 150.4325256347656 799.6632080078125 154.4077301025391 805.1229248046875 159.2089385986328 811.81396484375 M 119.8429336547852 779.0653076171875 L 112.2557983398438 774.8060302734375 C 112.1743240356445 774.1826171875 111.9842071533203 773.20947265625 111.7590255737305 770.323974609375 C 111.726203918457 769.8939208984375 111.6300506591797 769.468505859375 111.5078201293945 769.04638671875 C 114.0153656005859 772.0699462890625 116.8646621704102 775.496337890625 119.8429336547852 779.0653076171875 M 182.2799377441406 842.2821044921875 C 179.0750732421875 842.2821044921875 176.9800262451172 840.6138916015625 175.6829528808594 839.3590087890625 C 174.8889770507812 838.5918579101562 173.1817779541016 836.4207153320312 167.1424560546875 828.0369873046875 C 167.0876922607422 828.0343017578125 167.032958984375 828.0300903320312 166.9781646728516 828.0243530273438 C 163.8353729248047 827.6952514648438 158.9515228271484 824.4541625976562 156.3200225830078 822.551513671875 C 152.6641387939453 819.9081420898438 146.9441223144531 815.227294921875 140.4554138183594 807.9393310546875 C 136.1965789794922 803.1546630859375 129.0018310546875 794.70361328125 119.0662078857422 782.8154296875 C 116.7297897338867 782.024169921875 114.3014907836914 780.9651489257812 111.8226699829102 779.656494140625 C 111.1198348999023 779.932373046875 110.1147613525391 780.411865234375 109.0158920288086 781.204345703125 C 106.881591796875 782.744140625 104.3057556152344 783.5582275390625 101.5672760009766 783.5582275390625 C 100.2513656616211 783.5582275390625 98.97254943847656 783.3670654296875 97.76634216308594 782.9901733398438 C 97.11259460449219 782.7855224609375 96.48163604736328 782.6820068359375 95.88977813720703 782.6820068359375 C 95.55004119873047 782.6820068359375 95.32025909423828 782.7180786132812 95.23043823242188 782.7351684570312 C 94.10043334960938 783.14697265625 92.91380310058594 782.8126831054688 92.09193420410156 781.9275512695312 C 91.25977325439453 781.0313110351562 91.14163970947266 779.6895751953125 91.66095733642578 778.5823364257812 C 91.68750762939453 778.5256958007812 91.84119415283203 778.2022705078125 92.09102630615234 777.7593994140625 C 91.47794342041016 777.5751953125 90.93345642089844 777.3134765625 90.45236968994141 776.9727172851562 C 89.4112548828125 777.239501953125 88.44091033935547 777.3667602539062 87.48018646240234 777.3667602539062 C 87.158935546875 777.3667602539062 86.83577728271484 777.351806640625 86.51970672607422 777.3223876953125 C 86.02716064453125 777.2764282226562 85.53565979003906 777.2531127929688 85.05809020996094 777.2531127929688 C 82.32967376708984 777.2531127929688 80.68704986572266 778.0143432617188 80.49261474609375 778.1094970703125 C 79.46412658691406 778.7207641601562 78.20834350585938 778.6392211914062 77.23825073242188 777.9354248046875 C 76.26174926757812 777.2269287109375 75.84452819824219 775.9791870117188 76.11786651611328 774.8041381835938 C 76.13359069824219 774.7365112304688 76.51152801513672 773.1273803710938 77.22693634033203 771.3997192382812 C 77.45409393310547 770.8511352539062 77.69190216064453 770.3449096679688 77.94092559814453 769.8802490234375 C 77.02154541015625 770.0594482421875 76.10467529296875 770.1693115234375 75.2177734375 770.1693115234375 C 73.69081878662109 770.1693115234375 72.34572601318359 769.8446044921875 71.21986389160156 769.2042236328125 C 67.24461364746094 766.942626953125 65.74625396728516 766.1944580078125 65.7315673828125 766.1871337890625 C 64.53286743164062 765.5941162109375 63.87277603149414 764.2799072265625 64.1112060546875 762.9639892578125 C 64.34963989257812 761.6480712890625 65.43166351318359 760.6494750976562 66.76225280761719 760.5147705078125 C 66.77439117431641 760.5134887695312 68.25405120849609 760.3585205078125 69.9102783203125 759.9716796875 C 70.43410491943359 759.8493041992188 70.88096618652344 759.7265014648438 71.26138305664062 759.6077880859375 C 69.35353088378906 758.9939575195312 65.75400543212891 757.0079345703125 62.97959136962891 755.278076171875 C 61.25925064086914 754.2053833007812 59.75063705444336 753.1679077148438 58.6168212890625 752.2777709960938 C 56.80986404418945 750.8590698242188 55.92079925537109 749.8204345703125 55.54818344116211 748.6926879882812 C 55.19622802734375 747.6287231445312 55.37795639038086 746.4868774414062 56.04702377319336 745.560791015625 C 56.68132019042969 744.6829223632812 57.66788864135742 744.0745239257812 59.24593353271484 743.588134765625 C 60.18052673339844 743.300048828125 61.3574104309082 743.04541015625 62.74393463134766 742.8311157226562 C 65.19165802001953 742.452880859375 68.12629699707031 742.22705078125 70.59404754638672 742.22705078125 C 73.90541076660156 742.22705078125 75.08924865722656 742.6234130859375 75.810546875 743.0111083984375 C 75.87831115722656 743.0475463867188 75.94586944580078 743.0848999023438 76.01310729980469 743.1229248046875 C 76.02848815917969 742.6897583007812 76.03375244140625 742.2705078125 76.01882171630859 741.8855590820312 C 75.99001312255859 741.1431884765625 75.89511871337891 740.8143920898438 75.85655212402344 740.7090454101562 C 74.96024322509766 739.6929321289062 74.72172546386719 738.3427734375 75.23541259765625 737.155517578125 C 75.4822998046875 736.5849609375 76.13107299804688 735.56640625 77.70230102539062 735.1558227539062 C 78.20425415039062 735.024658203125 78.79152679443359 734.9581298828125 79.44782257080078 734.9581298828125 C 80.28490447998047 734.9581298828125 81.19857025146484 735.0618896484375 82.11632537841797 735.25341796875 C 81.85466766357422 734.9804077148438 81.71372222900391 734.8333129882812 81.7066650390625 734.825927734375 C 80.62686920166016 733.6990966796875 80.59145355224609 731.9324951171875 81.62522888183594 730.7632446289062 L 88.31729888916016 723.1941528320312 C 88.84445953369141 722.597900390625 89.58695983886719 722.235595703125 90.38134002685547 722.1868896484375 C 91.17572784423828 722.1376953125 91.9569091796875 722.4072265625 92.55293273925781 722.9346313476562 C 92.58438110351562 722.9624633789062 94.76026153564453 724.8883666992188 98.28575897216797 728.0326538085938 C 98.33724975585938 727.3910522460938 98.41403961181641 726.7819213867188 98.51304626464844 726.2355346679688 C 98.72027587890625 725.0919799804688 99.00241088867188 724.3236083984375 99.42788696289062 723.7443237304688 C 99.93985748291016 723.0471801757812 100.6726608276367 722.599609375 101.4864349365234 722.4737548828125 C 101.4819030761719 722.1608276367188 101.4948654174805 721.8410034179688 101.5255508422852 721.5150756835938 C 101.6877059936523 719.792724609375 102.2863235473633 718.3896484375 102.6287078857422 717.7066040039062 C 103.5727310180664 715.8233642578125 104.808479309082 714.8684692382812 106.3016128540039 714.8684692382812 C 107.5391387939453 714.8684692382812 108.6162109375 715.564697265625 109.157341003418 716.6589965820312 C 109.3652420043945 716.172119140625 109.65673828125 715.6253051757812 110.0475463867188 714.9793090820312 C 110.6181182861328 714.0361938476562 111.3750686645508 712.9398803710938 112.1790008544922 711.8922119140625 C 112.7826614379883 711.1055908203125 113.7003631591797 709.97216796875 114.6441650390625 709.0401000976562 C 115.6319580078125 708.0645751953125 116.8480453491211 707.0673217773438 118.3780899047852 707.0673217773438 C 119.3784103393555 707.0673217773438 120.3129119873047 707.5068969726562 120.9420013427734 708.2733154296875 C 121.5801620483398 709.0503540039062 121.912956237793 710.0764770507812 122.0901641845703 711.8145141601562 C 122.2179794311523 713.068115234375 122.2373657226562 714.4852905273438 122.2311172485352 715.453369140625 C 122.2246932983398 716.4502563476562 122.186653137207 717.6369018554688 122.10693359375 718.7647094726562 C 122.939094543457 717.7650756835938 124.3254089355469 717.4133911132812 125.5374145507812 717.903564453125 C 126.7768402099609 718.4050903320312 127.5348205566406 719.666259765625 127.3959579467773 720.99609375 C 127.3953170776367 721.0025634765625 127.2853012084961 722.1046142578125 127.1441192626953 725.1104736328125 C 127.0921630859375 726.2161254882812 126.714485168457 727.2916259765625 125.9967269897461 728.3657836914062 C 126.9932022094727 728.5774536132812 127.7505722045898 728.8350219726562 127.8861618041992 728.88232421875 C 129.0343170166016 729.28271484375 129.8920745849609 730.3037719726562 129.9585876464844 731.5179443359375 C 130.0244903564453 732.7207641601562 129.4282684326172 733.8129272460938 128.3500213623047 734.3421630859375 C 128.1508636474609 734.4720458984375 127.0784378051758 735.2301635742188 126.1549530029297 737.042236328125 C 125.310173034668 738.7009887695312 124.1108551025391 740.2283325195312 122.6597137451172 741.5004272460938 C 131.7521362304688 747.8744506835938 189.0587005615234 787.6796264648438 214.3232574462891 803.5043334960938 C 217.7410583496094 805.464599609375 220.2058715820312 807.0103149414062 221.6494598388672 808.0988159179688 C 222.7645416259766 808.9396362304688 223.7732543945312 809.8139038085938 223.8672485351562 811.2579956054688 C 223.8748168945312 811.3741455078125 223.8756103515625 811.4905395507812 223.8696441650391 811.6067504882812 L 223.6885986328125 815.1316528320312 C 223.6092834472656 816.6758422851562 222.4096527099609 817.904296875 220.8661956787109 817.972900390625 C 220.6967620849609 817.9866333007812 218.3826599121094 818.197998046875 216.2338256835938 819.5665893554688 C 215.041259765625 820.3261108398438 214.1112518310547 821.3121337890625 213.4696350097656 822.4973754882812 C 212.6269073486328 824.0541381835938 212.2422027587891 826.0177001953125 212.3262329101562 828.33349609375 C 212.3484497070312 828.9462890625 212.1823883056641 829.5511474609375 211.8503875732422 830.066650390625 C 210.8947448730469 831.5504760742188 210.0488586425781 832.8193969726562 209.4041137695312 833.7362670898438 C 208.4984283447266 835.0242919921875 208.0915985107422 835.513427734375 207.4674530029297 835.8720092773438 C 207.4654998779297 835.8731079101562 207.4635314941406 835.874267578125 207.4615478515625 835.8753662109375 C 207.0048980712891 836.13623046875 206.4840850830078 836.274658203125 205.9581604003906 836.2716674804688 C 204.8359527587891 836.2679443359375 204.1531372070312 835.7225341796875 203.2080993652344 834.9676513671875 C 202.6639404296875 834.532958984375 201.9124145507812 833.913818359375 200.9105987548828 833.0747680664062 C 199.5299224853516 831.9183959960938 197.678955078125 830.3477172851562 195.3890075683594 828.3892822265625 C 195.6321716308594 829.2054443359375 195.8757934570312 830.4303588867188 195.7689819335938 831.8657836914062 C 195.6583709716797 833.3521728515625 195.19775390625 834.74169921875 194.3999328613281 835.9959106445312 C 193.4644165039062 837.4666137695312 192.0837707519531 838.71044921875 190.2964172363281 839.6928100585938 C 187.0826873779297 841.4592895507812 184.5353698730469 842.2821044921875 182.2799377441406 842.2821044921875 Z" stroke="none" fill="#000"/>
        </g>
      </g>
    </g>
  </g>
</svg>
