<svg xmlns="http://www.w3.org/2000/svg" width="196" height="196" viewBox="0 0 196 196">
  <g id="Group_1984" data-name="Group 1984" transform="translate(-2112 -166)">
    <g id="Group_1962" data-name="Group 1962">
      <g id="Group_1928" data-name="Group 1928" transform="translate(1815 97)">
        <rect id="Rectangle_1254" data-name="Rectangle 1254" width="196" height="196" rx="5" transform="translate(297 69)" fill="#fff"/>
      </g>
    </g>
    <g id="Group_1880" data-name="Group 1880" transform="translate(1906 -583.37)">
      <path id="Path_2731" data-name="Path 2731" d="M280.033,810.236S240.9,809.094,263.6,770.044c22.392-31.618,44.335-30.427,46.512-59.68,2.312.534,8.372,2.486,8.372,2.486s-8.593,11.744,0,22.974a207.705,207.705,0,0,0,37.251,38.142c8.038,8.422,10.321,33.249-13.318,34.68-8.97,3.433-14.411,5.638-26.07,2.376-9.606,6.413-24.911,9.5-36.312-.786" transform="translate(-1.456 76.621)" fill="none"/>
      <g id="Group_1051" data-name="Group 1051" transform="translate(236.777 776.369)">
        <path id="Path_2389" data-name="Path 2389" d="M466.967,1678.695c-7.77-.326-13.39-.625-17.981-4.765-6.253-5.637-7.892-16.663-3.34-26.43,3.143-6.747,6.65-13.339,10.3-19.833A69.993,69.993,0,0,0,464.6,1601.5c.153-1.269.608-2.78-.815-3.382-1.713-.724-2.3.994-2.5,2.085-2.6,14.364-11.625,25.68-18.254,38.078-4.527,8.466-7.238,17.027-6.176,26.532.514,4.6-1.372,5.236-5.265,4.657-10.773-1.6-17.731-13.427-14.5-25.638,1.991-7.528,6.119-14.148,10.8-20.292,7.354-9.652,16.093-17.963,25.407-25.742,12.9-10.771,22.849-23.6,25.941-40.648.525-2.893,1.953-3.214,4.266-2.775,2.766.522,3.328,2.21,2.169,4.5-5.219,10.325-1.312,18.976,5.074,27.028,8.625,10.873,17.442,21.586,26.986,31.691,4.055,4.291,7.729,8.945,11.561,13.446,1.735,2.039,1.446,3.289-1.1,4.679-6.044,3.3-6.344,3.309-9.314-3.044-5.316-11.375-14.071-20.184-22.125-29.508-2.183-2.528-4.5-4.947-6.819-7.351-.85-.88-1.841-2.21-3.223-1.378-1.709,1.03-1.068,2.757-.367,4.081a37.487,37.487,0,0,0,3.678,5.841c5.112,6.44,10.32,12.8,15.545,19.154a64.834,64.834,0,0,1,8.1,13.071c1.635,3.365.5,4.693-2.785,5.247a21.2,21.2,0,0,1-5.325.4c-7.043-.559-9.234.926-12.2,7.759-3.186,7.33-2.8,10.577,2.261,14.956,1.469,1.272,3.129,2.695,2.323,4.336-1.118,2.275-3.726.6-5.654.9-2.022.315-3.569-.474-3.535-2.9a14.865,14.865,0,0,1,.157-3.076c3.422-14.992.588-29.6-2.581-44.214-2.559-11.791-6.841-23.166-8.47-35.182-.239-1.764-.59-4.038-2.887-3.72-2.085.289-2.272,2.536-2.3,4.373-.063,4.692,1.3,9.118,2.507,13.593,3.211,11.9,7.043,23.647,9.07,35.858a79.641,79.641,0,0,1-.258,28.383C481.76,1674.863,476.642,1678.994,466.967,1678.695Z" transform="translate(-415.208 -1548.121)" fill="#d7d7d7"/>
        <path id="Path_2390" data-name="Path 2390" d="M415.7,1651.238c-.619-5.767,1.534-11.188,4.239-16.549,8.085-16.023,20.9-27.771,34.529-38.865,12.5-10.181,21.525-22.57,24.158-38.941.915-5.7,4.331-7.662,9.948-6.1,8.088,2.249,10.614,5.574,7.585,13.306-3.365,8.588-1.588,14.278,4.685,21.036,11.682,12.581,21.846,26.552,34.432,38.384,2.931,2.754,4.586,7.738,7.869,9.01,3.593,1.392,7.218-3.015,11.013-4.492,6.018-2.343,9.226-1.02,10.956,5.309,2.374,8.69-1.349,15.809-4.476,24.144-4.55,12.123-15.476,19.469-35.915,22.1a4.075,4.075,0,0,1-1.525.173,77.993,77.993,0,0,0-28.253-.611c-2.419.369-4.478-.1-6.733,1.769-11.753,9.721-29.484,8.834-40.68-1.7-1.562-1.469-2.484-3.4-5.646-2.874-14.486,2.416-25.476-6.852-26.179-21.627C415.652,1653.681,415.7,1652.652,415.7,1651.238Zm56.283,29.6c9.675.3,14.793-3.831,17.024-15.4a79.638,79.638,0,0,0,.258-28.383c-2.027-12.211-5.859-23.955-9.07-35.859-1.207-4.475-2.57-8.9-2.507-13.592.026-1.837.213-4.084,2.3-4.373,2.3-.318,2.647,1.956,2.886,3.72,1.628,12.017,5.91,23.391,8.47,35.182,3.169,14.611,6,29.221,2.581,44.214a14.869,14.869,0,0,0-.157,3.076c-.034,2.425,1.513,3.214,3.535,2.9,1.928-.3,4.536,1.375,5.654-.9.806-1.641-.854-3.064-2.323-4.336-5.063-4.379-5.447-7.625-2.261-14.956,2.97-6.833,5.16-8.318,12.2-7.759a21.2,21.2,0,0,0,5.325-.395c3.288-.554,4.419-1.882,2.785-5.247a64.825,64.825,0,0,0-8.1-13.071c-5.225-6.349-10.433-12.714-15.545-19.154a37.51,37.51,0,0,1-3.678-5.841c-.7-1.324-1.341-3.052.367-4.081,1.382-.832,2.372.5,3.223,1.379,2.323,2.4,4.637,4.822,6.819,7.35,8.054,9.324,16.809,18.134,22.125,29.508,2.97,6.353,3.269,6.339,9.314,3.044,2.545-1.389,2.834-2.639,1.1-4.679-3.833-4.5-7.506-9.155-11.561-13.446-9.544-10.1-18.361-20.818-26.986-31.691-6.386-8.051-10.292-16.7-5.074-27.028,1.159-2.292.6-3.981-2.169-4.5-2.314-.439-3.741-.118-4.266,2.775-3.092,17.05-13.041,29.877-25.941,40.648-9.314,7.78-18.053,16.09-25.407,25.742-4.68,6.143-8.807,12.764-10.8,20.292-3.231,12.211,3.728,24.039,14.5,25.638,3.893.579,5.779-.057,5.265-4.657-1.062-9.505,1.649-18.066,6.176-26.532,6.63-12.4,15.655-23.714,18.254-38.078.2-1.091.787-2.809,2.5-2.085,1.423.6.968,2.113.815,3.382a69.991,69.991,0,0,1-8.655,26.168c-3.646,6.494-7.153,13.086-10.3,19.833-4.552,9.768-2.913,20.793,3.34,26.43C458.588,1680.215,464.208,1680.514,471.978,1680.84Zm88.085-40.583c-.19-2.684.9-6.207-2.034-7.659-2.589-1.283-4.569,1.641-6.633,2.96a97.65,97.65,0,0,1-23.553,11.259c-8.451,2.6-15,5.172-17.509,14.8-1.411,5.43-2.2,6.889,2.575,9.689,3.458,2.028,7.367,4.288,11.364,3.578,9.672-1.329,23.342-7.016,29.328-15.436C558.231,1650.187,558.231,1648.643,560.063,1640.257Zm-51.606,12.852c.026-1.69-.2-3.028-1.565-3.5-2.017-.7-2.69,1.144-3.212,2.363-1.062,2.477-2.68,4.989-1.341,7.877a1.263,1.263,0,0,0,1.9.569A10.672,10.672,0,0,0,508.457,1653.109Z" transform="translate(-415.589 -1550.266)"/>
        <path id="Path_2391" data-name="Path 2391" d="M527.08,1611.376c.548,9.036-4.757,14.869-10.878,20.31-7.264,6.458-15.483,10.916-25.14,12.631a15.77,15.77,0,0,1-11.137-1.892c-4.774-2.8-3.985-4.259-2.575-9.689,2.5-9.627,9.058-12.2,17.509-14.8a97.654,97.654,0,0,0,23.553-11.259c2.064-1.32,4.044-4.243,6.633-2.96C527.975,1605.17,526.89,1608.692,527.08,1611.376Z" transform="translate(-382.606 -1521.386)" fill="#fff"/>
        <path id="Path_2392" data-name="Path 2392" d="M478.087,1618.182a10.672,10.672,0,0,1-4.22,7.306,1.263,1.263,0,0,1-1.9-.57c-1.338-2.888.279-5.4,1.341-7.877.522-1.22,1.195-3.067,3.212-2.363C477.886,1615.153,478.113,1616.491,478.087,1618.182Z" transform="translate(-385.218 -1515.339)" fill="#fff"/>
      </g>
    </g>
  </g>
</svg>
