<svg xmlns="http://www.w3.org/2000/svg" width="147.64" height="144.215" viewBox="0 0 147.64 144.215">
  <g id="Group_1537" data-name="Group 1537" transform="translate(-421.318 -766.308)">
    <g id="Group_1128" data-name="Group 1128" transform="translate(-22.248 58.168)">
      <path id="Path_3162" data-name="Path 3162" d="M450.68,737.954s10.289,13.481,9.25,17.734,8.834,9.861,15.007,8.633,22.33-1.385,23.237-6.015-3.2-22.982-8.547-30.874-15.754-17.312-28.034-13.362S447.682,733.762,450.68,737.954Z" transform="translate(0.33 0)" fill="#ce983c" stroke="#000" stroke-miterlimit="10" stroke-width="1"/>
      <path id="Path_3163" data-name="Path 3163" d="M501.607,721.253s-9.187,4.477-10.5,11.876S492.5,759.5,492.5,759.5l24.416,21.292a6.754,6.754,0,0,0,5.558-3.5c1.729-3.42,16-22.393,11.711-34.688s-6.754-25.973-18.967-25.445A25.562,25.562,0,0,0,501.607,721.253Z" transform="translate(13.1 1.235)" fill="#ce983c" stroke="#000" stroke-miterlimit="10" stroke-width="1"/>
      <path id="Path_3164" data-name="Path 3164" d="M464.565,778.856s-16.583.033-16.248,12.468,1.4,21.051,9.789,21.177,8.984-2.976,13.783-4.777,16.388-6.75,18.553-10.293-4.75-16.5-12.193-17.68A75.361,75.361,0,0,0,464.565,778.856Z" transform="translate(0 20.276)" fill="#ce983c" stroke="#000" stroke-miterlimit="10" stroke-width="1"/>
      <path id="Path_3165" data-name="Path 3165" d="M448.581,777.252s1.117,8.4,7.755,13.9,23.816,24.92,50.271,29.627c2.4,4.929,5.443,8.49,10.309,7.377s6.282-3.633,10.23-2.876,22.5,3.032,26.266,10.541c1.939,2.5,5.833,5.485,12.6,4.178s18.2-5.626,19.644-9.256-.6-8.491-3.884-10.8-13.963-16.453-17.312-18.4-6.113-6.944-9.709-8.565-8.842-16.959-18.778-22.4c-3.551-4.777-9-14.2-14.351-15.411a169.665,169.665,0,0,1-17.178-5.531c-1.726-.7-8.431-5.526-8.507-6.1s-11.993-7.327-19.408-6.517-14.866,8.685-17.593,9.279-6.913,4.628-5.979,8.158S450.076,772.7,448.581,777.252Z" transform="translate(0.083 7.041)" fill="#dcb56f"/>
      <path id="Path_3166" data-name="Path 3166" d="M465.107,796.829s.425-34.88,14.94-50.218l3.944-5.093" transform="translate(5.184 8.76)" fill="none" stroke="#f6d6b8" stroke-linecap="round" stroke-linejoin="round" stroke-width="3" stroke-dasharray="8"/>
      <path id="Path_3167" data-name="Path 3167" d="M477.894,802.069s4.235-30.049,20.975-44.821l4.65-4.809" transform="translate(9.131 12.131)" fill="none" stroke="#f6d6b8" stroke-linecap="round" stroke-linejoin="round" stroke-width="3" stroke-dasharray="8"/>
      <path id="Path_3168" data-name="Path 3168" d="M494.558,810.51s3.789-27.263,18.919-40.646l4.2-4.358" transform="translate(14.275 16.164)" fill="none" stroke="#f6d6b8" stroke-linecap="round" stroke-linejoin="round" stroke-width="3" stroke-dasharray="8"/>
      <path id="Path_3169" data-name="Path 3169" d="M508.19,808.726s6.507-15.815,20-25.314l3.832-3" transform="translate(18.483 20.766)" fill="none" stroke="#f6d6b8" stroke-linecap="round" stroke-linejoin="round" stroke-width="3" stroke-dasharray="8"/>
      <path id="Path_3170" data-name="Path 3170" d="M527.728,811.251a95.96,95.96,0,0,1,17.811-12.668l3.07-1.771" transform="translate(24.514 25.827)" fill="none" stroke="#f6d6b8" stroke-linecap="round" stroke-linejoin="round" stroke-width="3" stroke-dasharray="8"/>
      <path id="Path_3171" data-name="Path 3171" d="M451.94,784.932s9.828,1.6,12.693,20" transform="translate(1.12 22.16)" fill="none" stroke="#f6d6b8" stroke-linecap="round" stroke-linejoin="round" stroke-width="3" stroke-dasharray="8"/>
      <path id="Path_3172" data-name="Path 3172" d="M454.051,736.288s15.058-17.074,29.075-10.536" transform="translate(1.772 3.433)" fill="none" stroke="#f6d6b8" stroke-linecap="round" stroke-linejoin="round" stroke-width="3" stroke-dasharray="8"/>
      <path id="Path_3173" data-name="Path 3173" d="M494.5,736.949S513.99,725.3,528.364,739.2" transform="translate(14.258 5.94)" fill="none" stroke="#f6d6b8" stroke-linecap="round" stroke-linejoin="round" stroke-width="3" stroke-dasharray="8"/>
      <g id="Path_3174" data-name="Path 3174" transform="translate(0.06)" fill="none" stroke-linecap="round" stroke-linejoin="round">
        <path d="M581.809,827.044c-3.271-2.3-13.923-16.4-17.261-18.344s-6.093-6.923-9.68-8.539-8.813-16.9-18.713-22.33c2.825-4.757,15.378-22.361,11.323-34-4.284-12.295-6.754-25.973-18.968-25.443a25.537,25.537,0,0,0-13.607,4.1s-9.187,4.477-10.5,11.875c-.957,5.4.224,16.975.93,22.825-.255-.1-.478-.182-.622-.242a44.859,44.859,0,0,1-6.183-4.063c-.982-7.47-4.32-19.467-8.377-25.451-5.351-7.894-15.754-17.314-28.034-13.362s-13.911,19.692-10.912,23.883c0,0,7.457,9.773,9.03,15.3a4.008,4.008,0,0,1-.9.363c-2.718.592-6.893,4.614-5.961,8.133s-2.873,18.191-4.363,22.729c0,0,1.114,8.378,7.732,13.855.561.463,1.2,1.033,1.913,1.679-4.692,1.25-10.346,4.272-10.149,11.584.334,12.435,1.4,21.051,9.789,21.177s8.984-2.976,13.783-4.777a92.248,92.248,0,0,0,14.681-6.971,72.156,72.156,0,0,0,20.105,6.846c2.4,4.914,5.426,8.465,10.278,7.355s6.262-3.622,10.2-2.867,22.429,3.023,26.188,10.509c1.933,2.5,5.816,5.47,12.561,4.167s18.149-5.609,19.586-9.229S585.079,829.343,581.809,827.044Z" stroke="none"/>
        <path d="M 562.930419921875 847.3545532226562 C 563.9071044921875 847.3545532226562 564.9599609375 847.2562866210938 566.0941162109375 847.037109375 C 572.8390502929688 845.7335815429688 584.2427978515625 841.4281616210938 585.6797485351562 837.808349609375 C 587.1165771484375 834.1871948242188 585.0791015625 829.342529296875 581.8087158203125 827.04443359375 C 578.5382080078125 824.7464599609375 567.8857421875 810.6403198242188 564.5473022460938 808.7008056640625 C 561.2088012695312 806.7600708007812 558.4541015625 801.7779541015625 554.8670043945312 800.1617431640625 C 551.2811889648438 798.5468139648438 546.054443359375 783.26416015625 536.1543579101562 777.831787109375 C 538.9796752929688 773.0748291015625 551.532470703125 755.4705810546875 547.4768676757812 743.8350830078125 C 543.1923828125 731.5401611328125 540.7234497070312 717.8634033203125 528.5089721679688 718.3919677734375 C 521.6266479492188 718.6078491210938 517.7464599609375 720.7711181640625 514.9014892578125 722.4893188476562 C 514.9014892578125 722.4893188476562 505.7146301269531 726.9663696289062 504.4032897949219 734.3642578125 C 503.4466857910156 739.767822265625 504.6271057128906 751.3390502929688 505.3337707519531 757.1888427734375 C 505.0786437988281 757.0919189453125 504.8561706542969 757.0069580078125 504.7121887207031 756.9467163085938 C 503.6416931152344 756.5109252929688 500.6553039550781 754.4890747070312 498.5287170410156 752.88330078125 C 497.5472106933594 745.4134521484375 494.2087707519531 733.416748046875 490.1519165039062 727.4321899414062 C 484.8006896972656 719.538330078125 474.3982238769531 710.1183471679688 462.1174926757812 714.0706787109375 C 449.8356018066406 718.0227661132812 448.2063293457031 733.7622680664062 451.2057800292969 737.9539794921875 C 451.2057800292969 737.9539794921875 458.66259765625 747.7271118164062 460.235595703125 753.2562255859375 C 459.9019165039062 753.4263916015625 459.5943908691406 753.5638427734375 459.3391418457031 753.6187744140625 C 456.6210327148438 754.2103271484375 452.4464416503906 758.233154296875 453.3782043457031 761.752197265625 C 454.3112487792969 765.2711791992188 450.5056457519531 779.9427490234375 449.0150146484375 784.481201171875 C 449.0150146484375 784.481201171875 450.1287536621094 792.8594360351562 456.7467346191406 798.336181640625 C 457.30810546875 798.79931640625 457.9493713378906 799.3687133789062 458.6600036621094 800.01513671875 C 453.9683837890625 801.264892578125 448.3136291503906 804.2866821289062 448.5112609863281 811.5994873046875 C 448.8449401855469 824.0344848632812 449.9128112792969 832.6507568359375 458.3000793457031 832.7764892578125 C 458.4654541015625 832.7789916992188 458.6282958984375 832.7802124023438 458.7877197265625 832.7802124023438 C 466.7142944335938 832.7802124023438 467.3787231445312 829.7650756835938 472.0830383300781 827.9998779296875 C 475.4921569824219 826.7212524414062 482.314208984375 823.85400390625 486.7637634277344 821.0285034179688 C 492.7090148925781 824.052978515625 499.4186096191406 826.5485229492188 506.8688049316406 827.8742065429688 C 509.2649841308594 832.7882690429688 512.2946166992188 836.3385620117188 517.1471557617188 835.2289428710938 C 521.9984130859375 834.119140625 523.4090576171875 831.6062622070312 527.3456420898438 832.3616943359375 C 531.283447265625 833.1179809570312 549.77490234375 835.3847045898438 553.533447265625 842.8702392578125 C 555.141357421875 844.9484252929688 558.0989379882812 847.3544311523438 562.930419921875 847.3545532226562 M 562.9310913085938 852.3545532226562 L 562.9310913085938 847.3545532226562 L 562.930908203125 852.3545532226562 C 557.52587890625 852.3544311523438 552.7842407226562 850.07275390625 549.578857421875 845.9298706054688 C 549.3817138671875 845.675048828125 549.2096557617188 845.4017944335938 549.0650634765625 845.1138305664062 C 548.7774047851562 844.5408935546875 547.3284912109375 842.5072021484375 540.7632446289062 840.3944091796875 C 536.1655883789062 838.914794921875 531.2109985351562 838.087158203125 528.250732421875 837.5927124023438 C 527.4868774414062 837.465087890625 526.8836059570312 837.3643188476562 526.402587890625 837.27197265625 C 526.2319946289062 837.2392578125 526.0810546875 837.2225341796875 525.9549560546875 837.2225341796875 C 525.5612182617188 837.2225341796875 525.0903930664062 837.4334106445312 523.9428100585938 837.9915161132812 C 522.6123657226562 838.6385498046875 520.790283203125 839.524658203125 518.26220703125 840.10302734375 C 517.3045043945312 840.3220825195312 516.3471069335938 840.43310546875 515.4164428710938 840.43310546875 C 513.7642211914062 840.43310546875 512.1685180664062 840.0881958007812 510.6736755371094 839.407958984375 C 509.3641662597656 838.8120727539062 508.12646484375 837.952392578125 506.9948425292969 836.8528442382812 C 505.7781372070312 835.6705322265625 504.6484069824219 834.1768188476562 503.5724182128906 832.3228149414062 C 497.9793090820312 831.1270751953125 492.420654296875 829.242919921875 486.9895324707031 826.7019653320312 C 481.3766479492188 829.8209228515625 474.6859741210938 832.3637084960938 473.8389282226562 832.681396484375 C 472.7807312011719 833.0784912109375 472.0072937011719 833.5814819335938 471.0281066894531 834.2183227539062 C 468.5880126953125 835.8052368164062 465.5512390136719 837.7802124023438 458.7877197265625 837.7802124023438 C 458.6029357910156 837.7802124023438 458.4136657714844 837.7787475585938 458.2251892089844 837.7759399414062 C 455.0753173828125 837.7286987304688 452.3653869628906 836.821533203125 450.1706848144531 835.0795288085938 C 448.218505859375 833.530029296875 446.7102355957031 831.3217163085938 445.6877746582031 828.515869140625 C 444.1376953125 824.2621459960938 443.7064514160156 818.9407958984375 443.5130615234375 811.7335815429688 C 443.3855590820312 807.0149536132812 445.06103515625 802.9093627929688 448.3584899902344 799.8617553710938 C 448.8636779785156 799.3948974609375 449.4043579101562 798.95458984375 449.9798889160156 798.541259765625 C 449.4904174804688 797.9303588867188 449.0246887207031 797.29296875 448.5839538574219 796.630615234375 C 447.4759521484375 794.96533203125 446.5235900878906 793.1393432617188 445.7533264160156 791.2032470703125 C 444.4561462402344 787.9427490234375 444.0954895019531 785.4172973632812 444.0586242675781 785.1400756835938 C 443.95947265625 784.394287109375 444.0299072265625 783.6357421875 444.2646789550781 782.9210205078125 C 444.9588623046875 780.8074951171875 446.1574096679688 776.4431762695312 447.1051025390625 772.1911010742188 C 448.6279907226562 765.3582153320312 448.5411682128906 763.234619140625 448.5135192871094 762.9105224609375 C 448.1654052734375 761.5174560546875 448.1546630859375 760.0689086914062 448.4813842773438 758.6012573242188 C 448.7481384277344 757.4029541015625 449.2379760742188 756.2155151367188 449.9373474121094 755.0718383789062 C 450.8480834960938 753.58251953125 452.0951232910156 752.1998901367188 453.5436401367188 751.073486328125 C 453.6131286621094 751.0194702148438 453.6852111816406 750.9644165039062 453.7598266601562 750.9085693359375 C 453.1011657714844 749.6952514648438 452.1959533691406 748.1691284179688 450.9529418945312 746.278564453125 C 449.0109558105469 743.3248901367188 447.248291015625 741.0099487304688 447.230712890625 740.9868774414062 C 447.19970703125 740.9462890625 447.1693420410156 740.9052124023438 447.1395874023438 740.8636474609375 C 445.4227294921875 738.46435546875 444.9831237792969 735.2865600585938 444.9166259765625 733.043212890625 C 444.8301391601562 730.12451171875 445.2980041503906 727.0277709960938 446.2696533203125 724.0877685546875 C 447.3624267578125 720.78125 449.0119934082031 717.873291015625 451.172607421875 715.4447021484375 C 453.7404479980469 712.558349609375 456.9075622558594 710.4946899414062 460.5859375 709.31103515625 C 463.0016479492188 708.5336303710938 465.4764709472656 708.139404296875 467.94140625 708.139404296875 C 470.8489685058594 708.139404296875 473.7745971679688 708.6859130859375 476.6370544433594 709.7637329101562 C 479.1234130859375 710.699951171875 481.5819091796875 712.045166015625 483.9443054199219 713.7620849609375 C 488.8012084960938 717.2919311523438 492.25146484375 721.6185302734375 494.2905883789062 724.6265869140625 C 496.3526000976562 727.6683959960938 498.0307922363281 731.6272583007812 499.2595825195312 735.0899047851562 C 499.3190612792969 734.5227661132812 499.3920288085938 733.9886474609375 499.4798583984375 733.4926147460938 C 499.9104919433594 731.0631713867188 500.937255859375 728.7029418945312 502.5318603515625 726.4765014648438 C 503.7057495117188 724.83740234375 505.1919555664062 723.2661743164062 506.9492492675781 721.8064575195312 C 509.41845703125 719.7553100585938 511.7274780273438 718.4976806640625 512.4810180664062 718.1102905273438 C 514.1792602539062 717.0902099609375 516.0880737304688 716.0354614257812 518.5059814453125 715.1698608398438 C 521.5189208984375 714.0911865234375 524.7301635742188 713.5106811523438 528.3223876953125 713.3953857421875 C 528.6126098632812 713.3831787109375 528.904052734375 713.3770141601562 529.1892700195312 713.3770141601562 C 535.4231567382812 713.3770141601562 540.4616088867188 716.2499389648438 544.16455078125 721.9159545898438 C 547.0081787109375 726.2670288085938 548.8111572265625 731.8419189453125 550.5548095703125 737.2333374023438 C 551.0849609375 738.8726196289062 551.6331787109375 740.5677490234375 552.1983642578125 742.1897583007812 C 553.305908203125 745.3671264648438 553.5599365234375 749.0091552734375 552.953369140625 753.0143432617188 C 552.4837036132812 756.1156616210938 551.4813232421875 759.5247192382812 549.9741821289062 763.1467895507812 C 547.8234252929688 768.3154296875 545.0133666992188 773.07275390625 542.895751953125 776.4789428710938 C 547.796142578125 780.6768188476562 551.3313598632812 786.4501953125 554.0715942382812 790.9251098632812 C 554.8695068359375 792.2281494140625 555.6231689453125 793.4588623046875 556.2696533203125 794.4113159179688 C 556.8203735351562 795.22265625 557.1469116210938 795.61328125 557.3037719726562 795.7838745117188 C 559.9796752929688 797.1051635742188 562.0228271484375 799.3341064453125 563.8350830078125 801.3112182617188 C 564.985107421875 802.5657958984375 566.17431640625 803.8631591796875 567.0601806640625 804.3781127929688 C 569.443359375 805.7626953125 572.6409912109375 809.41259765625 577.6607666015625 815.2531127929688 C 579.2794799804688 817.1364135742188 580.808349609375 818.915283203125 582.136962890625 820.3789672851562 C 583.9761962890625 822.4052124023438 584.5838012695312 822.881103515625 584.6869506835938 822.9559326171875 C 587.1207275390625 824.6661376953125 589.0747680664062 827.2255249023438 590.1856079101562 830.1600952148438 C 591.4160766601562 833.4105834960938 591.4663696289062 836.7816772460938 590.3272705078125 839.6524658203125 C 589.6000366210938 841.484375 588.1085205078125 843.14599609375 585.76708984375 844.7330322265625 C 584.2017822265625 845.7939453125 582.2206420898438 846.8505859375 579.8786010742188 847.8734130859375 C 575.8448486328125 849.6350708007812 570.9264526367188 851.1957397460938 567.0428466796875 851.9462890625 C 565.6410522460938 852.2171630859375 564.2576904296875 852.3545532226562 562.9310913085938 852.3545532226562 Z" stroke="none" fill="#000"/>
      </g>
    </g>
  </g>
</svg>
