<svg xmlns="http://www.w3.org/2000/svg" width="196" height="196" viewBox="0 0 196 196">
  <g id="Group_1985" data-name="Group 1985" transform="translate(-2549 -166)">
    <g id="Group_1964" data-name="Group 1964">
      <g id="Group_1936" data-name="Group 1936">
        <g id="Group_1930" data-name="Group 1930" transform="translate(2252 97)">
          <rect id="Rectangle_1254" data-name="Rectangle 1254" width="196" height="196" rx="5" transform="translate(297 69)" fill="#fff"/>
        </g>
      </g>
    </g>
    <g id="Group_1884" data-name="Group 1884" transform="translate(2163.627 -572.703)">
      <g id="Group_1128" data-name="Group 1128" transform="translate(426.063 771.308)">
        <path id="Path_3162" data-name="Path 3162" d="M450.633,737.049s9.914,12.989,8.912,17.087,8.511,9.5,14.459,8.318,21.515-1.334,22.389-5.8-3.079-22.143-8.235-29.748-15.179-16.681-27.012-12.874S447.744,733.01,450.633,737.049Z" transform="translate(-448.032 -713.139)" fill="#ce983c" stroke="#000" stroke-miterlimit="10" stroke-width="1"/>
        <path id="Path_3163" data-name="Path 3163" d="M501.211,721.1s-8.852,4.314-10.115,11.443,1.338,25.408,1.338,25.408l23.526,20.516a6.508,6.508,0,0,0,5.355-3.375c1.666-3.295,15.414-21.576,11.284-33.423s-6.508-25.026-18.275-24.516A24.63,24.63,0,0,0,501.211,721.1Z" transform="translate(-437.237 -712.095)" fill="#ce983c" stroke="#000" stroke-miterlimit="10" stroke-width="1"/>
        <path id="Path_3164" data-name="Path 3164" d="M463.972,778.855s-15.979.031-15.656,12.013,1.35,20.283,9.432,20.4,8.656-2.867,13.28-4.6,15.791-6.5,17.876-9.917-4.577-15.9-11.748-17.035A72.611,72.611,0,0,0,463.972,778.855Z" transform="translate(-448.311 -695.999)" fill="#ce983c" stroke="#000" stroke-miterlimit="10" stroke-width="1"/>
        <path id="Path_3165" data-name="Path 3165" d="M448.581,775.782s1.076,8.1,7.472,13.39S479,813.182,504.491,817.717c2.317,4.749,5.245,8.18,9.933,7.108s6.053-3.5,9.857-2.771,21.676,2.921,25.308,10.157c1.868,2.413,5.62,5.285,12.139,4.026s17.539-5.421,18.928-8.919-.582-8.182-3.742-10.4-13.454-15.853-16.68-17.727-5.89-6.69-9.355-8.252-8.519-16.34-18.093-21.585c-3.421-4.6-8.672-13.679-13.827-14.849a163.487,163.487,0,0,1-16.551-5.329c-1.663-.678-8.123-5.325-8.2-5.877s-11.556-7.06-18.7-6.279-14.324,8.369-16.951,8.94-6.661,4.459-5.761,7.86S450.022,771.4,448.581,775.782Z" transform="translate(-448.241 -707.224)" fill="#dcb56f"/>
        <path id="Path_3166" data-name="Path 3166" d="M465.107,794.812s.41-33.608,14.395-48.386l3.8-4.908" transform="translate(-443.929 -705.734)" fill="none" stroke="#f6d6b8" stroke-linecap="round" stroke-linejoin="round" stroke-width="3" stroke-dasharray="8"/>
        <path id="Path_3167" data-name="Path 3167" d="M477.894,800.259s4.08-28.953,20.21-43.186l4.48-4.634" transform="translate(-440.592 -702.884)" fill="none" stroke="#f6d6b8" stroke-linecap="round" stroke-linejoin="round" stroke-width="3" stroke-dasharray="8"/>
        <path id="Path_3168" data-name="Path 3168" d="M494.558,808.869s3.65-26.269,18.229-39.164l4.049-4.2" transform="translate(-436.244 -699.475)" fill="none" stroke="#f6d6b8" stroke-linecap="round" stroke-linejoin="round" stroke-width="3" stroke-dasharray="8"/>
        <path id="Path_3169" data-name="Path 3169" d="M508.19,807.693s6.269-15.238,19.274-24.39l3.692-2.89" transform="translate(-432.686 -695.585)" fill="none" stroke="#f6d6b8" stroke-linecap="round" stroke-linejoin="round" stroke-width="3" stroke-dasharray="8"/>
        <path id="Path_3170" data-name="Path 3170" d="M527.728,810.724a92.461,92.461,0,0,1,17.161-12.206l2.958-1.706" transform="translate(-427.588 -691.306)" fill="none" stroke="#f6d6b8" stroke-linecap="round" stroke-linejoin="round" stroke-width="3" stroke-dasharray="8"/>
        <path id="Path_3171" data-name="Path 3171" d="M451.94,784.932s9.47,1.54,12.23,19.271" transform="translate(-447.364 -694.406)" fill="none" stroke="#f6d6b8" stroke-linecap="round" stroke-linejoin="round" stroke-width="3" stroke-dasharray="8"/>
        <path id="Path_3172" data-name="Path 3172" d="M454.051,735.849S468.559,719.4,482.065,725.7" transform="translate(-446.813 -710.237)" fill="none" stroke="#f6d6b8" stroke-linecap="round" stroke-linejoin="round" stroke-width="3" stroke-dasharray="8"/>
        <path id="Path_3173" data-name="Path 3173" d="M494.5,736.783s18.778-11.22,32.628,2.169" transform="translate(-436.258 -708.118)" fill="none" stroke="#f6d6b8" stroke-linecap="round" stroke-linejoin="round" stroke-width="3" stroke-dasharray="8"/>
        <g id="Path_3174" data-name="Path 3174" transform="translate(-448.26 -713.139)" fill="none" stroke-linecap="round" stroke-linejoin="round">
          <path d="M576.947,822.89c-3.151-2.214-13.415-15.806-16.632-17.675s-5.871-6.67-9.327-8.228-8.491-16.281-18.03-21.516c2.722-4.583,14.817-21.546,10.91-32.757-4.128-11.846-6.508-25.026-18.276-24.515a24.606,24.606,0,0,0-13.111,3.948s-8.852,4.314-10.115,11.442c-.922,5.206.216,16.356.9,21.992-.246-.093-.46-.175-.6-.233a43.216,43.216,0,0,1-5.958-3.915c-.946-7.2-4.162-18.757-8.071-24.523-5.156-7.606-15.179-16.682-27.012-12.874s-13.4,18.973-10.514,23.012c0,0,7.185,9.417,8.7,14.744a3.863,3.863,0,0,1-.864.349c-2.619.57-6.641,4.446-5.744,7.837s-2.768,17.527-4.2,21.9c0,0,1.073,8.073,7.45,13.35.541.446,1.159.995,1.844,1.618-4.521,1.2-9.969,4.116-9.779,11.162.322,11.981,1.35,20.283,9.432,20.4s8.656-2.867,13.28-4.6a88.881,88.881,0,0,0,14.145-6.717,69.522,69.522,0,0,0,19.372,6.6c2.309,4.735,5.228,8.156,9.9,7.086s6.034-3.49,9.827-2.763,21.611,2.913,25.233,10.125c1.862,2.407,5.6,5.271,12.1,4.015s17.487-5.4,18.871-8.892S580.1,825.1,576.947,822.89Z" stroke="none"/>
          <path d="M 558.757080078125 842.4592895507812 C 559.6981201171875 842.4592895507812 560.7125854492188 842.3646240234375 561.8053588867188 842.1534423828125 C 568.3042602539062 840.8974609375 579.2920532226562 836.7490844726562 580.6766357421875 833.2612915039062 C 582.06103515625 829.772216796875 580.097900390625 825.104248046875 576.94677734375 822.8899536132812 C 573.7955322265625 820.6758422851562 563.5316162109375 807.0841674804688 560.31494140625 805.2153930664062 C 557.0982055664062 803.345458984375 554.4439697265625 798.5450439453125 550.9877319335938 796.98779296875 C 547.5326538085938 795.4317626953125 542.49658203125 780.7064819335938 532.9575805664062 775.4722900390625 C 535.6798706054688 770.8887939453125 547.7747802734375 753.9266357421875 543.8671264648438 742.7155151367188 C 539.8167724609375 731.092529296875 537.4493408203125 718.18603515625 526.2465209960938 718.18603515625 C 526.0311889648438 718.18603515625 525.81298828125 718.1907958984375 525.5910034179688 718.200439453125 C 518.959716796875 718.408447265625 515.2210693359375 720.4927978515625 512.4798583984375 722.1483154296875 C 512.4798583984375 722.1483154296875 503.6280517578125 726.4620971679688 502.3645324707031 733.5901489257812 C 501.4428405761719 738.796630859375 502.5802001953125 749.94580078125 503.2610778808594 755.582275390625 C 503.0152587890625 755.4888305664062 502.8009033203125 755.406982421875 502.6621704101562 755.3489379882812 C 501.6307067871094 754.9290771484375 498.7532653808594 752.98095703125 496.7042236328125 751.4337158203125 C 495.7585144042969 744.236328125 492.5418395996094 732.6771850585938 488.6329650878906 726.910888671875 C 483.4769287109375 719.304931640625 473.4537963867188 710.2286987304688 461.6210327148438 714.0367431640625 C 449.787109375 717.8446655273438 448.2172546386719 733.0101318359375 451.1073303222656 737.0489501953125 C 451.1073303222656 737.0489501953125 458.2921752929688 746.4656372070312 459.8078002929688 751.7930908203125 C 459.4862670898438 751.95703125 459.1899719238281 752.0894775390625 458.9440307617188 752.1423950195312 C 456.3250732421875 752.7123413085938 452.302734375 756.5884399414062 453.2005004882812 759.9791870117188 C 454.0995178222656 763.3698120117188 450.4327087402344 777.5062255859375 448.9964599609375 781.879150390625 C 448.9964599609375 781.879150390625 450.069580078125 789.9518432617188 456.4461669921875 795.2288208007812 C 456.987060546875 795.675048828125 457.6049499511719 796.2236938476562 458.2896728515625 796.8464965820312 C 453.7691650390625 798.0507202148438 448.3206481933594 800.9622802734375 448.5110778808594 808.0083618164062 C 448.8325805664062 819.9898071289062 449.8615112304688 828.2918090820312 457.94287109375 828.4129638671875 C 466.0265197753906 828.5352783203125 466.5992126464844 825.545654296875 471.2231140136719 823.810546875 C 474.5079040527344 822.5785522460938 481.0811157226562 819.81591796875 485.3683776855469 817.0934448242188 C 491.0968017578125 820.0076293945312 497.5616760253906 822.4121704101562 504.7401428222656 823.689453125 C 507.0489196777344 828.42431640625 509.9678039550781 831.845458984375 514.6436157226562 830.7759399414062 C 519.3179321289062 829.7066040039062 520.6768188476562 827.2857055664062 524.4701538085938 828.0133056640625 C 528.2642822265625 828.7420043945312 546.0813598632812 830.926025390625 549.7028198242188 838.1385498046875 C 551.2520141601562 840.1409301757812 554.1017456054688 842.4591674804688 558.757080078125 842.4592895507812 M 558.7573852539062 847.4592895507812 L 558.7573852539062 842.4592895507812 L 558.75732421875 847.4592895507812 C 553.4918212890625 847.4591674804688 548.8718872070312 845.235595703125 545.7482299804688 841.1981811523438 C 545.5510864257812 840.943359375 545.3790283203125 840.6701049804688 545.2344360351562 840.3821411132812 C 545.0899658203125 840.0943603515625 544.5723876953125 839.3158569335938 542.8915405273438 838.3046875 C 541.4867553710938 837.4595947265625 539.6197509765625 836.6594848632812 537.3424682617188 835.9265747070312 C 532.9251098632812 834.5050048828125 528.1594848632812 833.708984375 525.3121337890625 833.2333984375 C 524.5750122070312 833.1102294921875 523.9927368164062 833.0130004882812 523.527099609375 832.923583984375 C 523.3740844726562 832.8942260742188 523.2401733398438 832.8792114257812 523.1301879882812 832.8792114257812 C 522.7907104492188 832.8792114257812 522.3269653320312 833.0883178710938 521.2711791992188 833.601806640625 C 519.9813232421875 834.2290649414062 518.21484375 835.0881958007812 515.7586059570312 835.6500244140625 C 514.8225708007812 835.8641357421875 513.8864135742188 835.97265625 512.9760131835938 835.97265625 C 511.3578186035156 835.97265625 509.794921875 835.6348266601562 508.3306884765625 834.968505859375 C 507.0498352050781 834.3856811523438 505.8399047851562 833.5455322265625 504.7344970703125 832.4713745117188 C 503.5656127929688 831.3356323242188 502.4800109863281 829.9058837890625 501.4469604492188 828.13720703125 C 496.0994262695312 826.9876098632812 490.78662109375 825.1871337890625 485.5929565429688 822.7645874023438 C 480.1890258789062 825.7559204101562 473.79248046875 828.18701171875 472.9789733886719 828.4921264648438 C 471.9780883789062 828.86767578125 471.240234375 829.3475341796875 470.3060913085938 829.955078125 C 467.9347839355469 831.4972534179688 464.9836120605469 833.4165649414062 458.4126892089844 833.4165649414062 C 458.2337036132812 833.4165649414062 458.0503845214844 833.4151611328125 457.8678588867188 833.4124145507812 C 454.7918090820312 833.3662719726562 452.1435241699219 832.4788818359375 449.99658203125 830.7748413085938 C 448.0888671875 829.2606201171875 446.6160583496094 827.1057739257812 445.6192016601562 824.3701782226562 C 444.1172180175781 820.2484130859375 443.69970703125 815.1051025390625 443.5128784179688 808.1424560546875 C 443.3690490722656 802.8204345703125 445.54833984375 798.4180297851562 449.6674194335938 795.3941040039062 C 449.2349243164062 794.8460693359375 448.82177734375 794.2763671875 448.4292602539062 793.6864624023438 C 447.3546752929688 792.0714111328125 446.4311218261719 790.3006591796875 445.6842651367188 788.4234619140625 C 444.42626953125 785.2614135742188 444.0758666992188 782.8074340820312 444.0400695800781 782.5379638671875 C 443.94091796875 781.792236328125 444.0113525390625 781.03369140625 444.2461242675781 780.3189697265625 C 444.910888671875 778.2949829101562 446.060302734375 774.1109619140625 446.9709167480469 770.0302734375 C 448.42333984375 763.5219116210938 448.3580627441406 761.4569702148438 448.3326416015625 761.1246337890625 C 447.9939270019531 759.7590942382812 447.9844360351562 758.3402709960938 448.3042907714844 756.9034423828125 C 448.5657348632812 755.7291870117188 449.0452575683594 754.5663452148438 449.7296752929688 753.4472045898438 C 450.6185302734375 751.99365234375 451.8351745605469 750.6445922851562 453.248046875 749.5459594726562 C 453.2760009765625 749.5242309570312 453.3043823242188 749.5023193359375 453.3332214355469 749.480224609375 C 452.7144470214844 748.3510131835938 451.8773193359375 746.9462280273438 450.7457885742188 745.2225341796875 C 448.8761901855469 742.3745727539062 447.1487121582031 740.1034545898438 447.1314697265625 740.0808715820312 C 447.1010437011719 740.0408935546875 447.0703735351562 739.9994506835938 447.0411682128906 739.9586181640625 C 445.3601684570312 737.6094970703125 444.9300842285156 734.5095825195312 444.8652648925781 732.32275390625 C 444.7812805175781 729.489501953125 445.2352600097656 726.4840087890625 446.1780395507812 723.6312866210938 C 447.2388000488281 720.4215698242188 448.8406372070312 717.59814453125 450.9390869140625 715.2394409179688 C 453.4352111816406 712.4337158203125 456.5138549804688 710.4276733398438 460.0894775390625 709.277099609375 C 462.4350891113281 708.522216796875 464.8384399414062 708.139404296875 467.2325439453125 708.139404296875 C 470.0560607910156 708.139404296875 472.8966064453125 708.669921875 475.6752624511719 709.7161865234375 C 478.0862121582031 710.6240234375 480.4695434570312 711.927978515625 482.7589721679688 713.5918579101562 C 487.4600524902344 717.0084228515625 490.7986755371094 721.1948852539062 492.7716369628906 724.1052856445312 C 494.6257629394531 726.8404541015625 496.158203125 730.3377685546875 497.3189392089844 733.5038452148438 C 497.3558349609375 733.2323608398438 497.3964538574219 732.9705200195312 497.4410705566406 732.7185668945312 C 497.86083984375 730.3506469726562 498.8606872558594 728.0514526367188 500.4130859375 725.8839111328125 C 501.5532531738281 724.2919311523438 502.9959411621094 722.7665405273438 504.7011108398438 721.35009765625 C 507.0863037109375 719.3687744140625 509.319580078125 718.150146484375 510.0586547851562 717.7697143554688 C 511.7016906738281 716.7830200195312 513.54931640625 715.7625732421875 515.8914184570312 714.9241333007812 C 518.8124389648438 713.87841796875 521.9247436523438 713.3156127929688 525.4049682617188 713.203857421875 C 525.686767578125 713.1920166015625 525.9697265625 713.18603515625 526.2465209960938 713.18603515625 C 532.3185424804688 713.18603515625 537.2244873046875 715.98193359375 540.8282470703125 721.4959716796875 C 543.5814819335938 725.7088012695312 545.322509765625 731.0921020507812 547.0062255859375 736.2982177734375 C 547.5167846679688 737.8768310546875 548.044677734375 739.5092163085938 548.5886840820312 741.0701904296875 C 549.6655883789062 744.1599731445312 549.9131469726562 747.6985473632812 549.32421875 751.5872802734375 C 548.8694458007812 754.5902099609375 547.8995971679688 757.8892822265625 546.4417114257812 761.3929443359375 C 544.391845703125 766.3191528320312 541.7241821289062 770.8547973632812 539.6904907226562 774.13232421875 C 544.37158203125 778.1857299804688 547.7515869140625 783.7056884765625 550.3767700195312 787.9927368164062 C 551.1384887695312 789.236572265625 551.85791015625 790.4114379882812 552.474853515625 791.3222045898438 C 552.9862060546875 792.0770874023438 553.294189453125 792.4515991210938 553.4473266601562 792.621337890625 C 556.04052734375 793.9110107421875 558.0128784179688 796.0626831054688 559.7631225585938 797.9721069335938 C 560.810791015625 799.1150512695312 561.998291015625 800.4105224609375 562.8278198242188 800.8927001953125 C 565.1493530273438 802.241455078125 568.2391967773438 805.767822265625 573.0883178710938 811.4097290039062 C 574.6411743164062 813.2164916992188 576.10791015625 814.9230346679688 577.3832397460938 816.3286743164062 C 579.1340942382812 818.258544921875 579.7213134765625 818.72509765625 579.8255615234375 818.8018798828125 C 582.2017822265625 820.4730224609375 584.106201171875 822.9678344726562 585.188720703125 825.8274536132812 C 586.390380859375 829.001953125 586.4384765625 832.296875 585.3241577148438 835.1053466796875 C 584.6094360351562 836.9056396484375 583.1503295898438 838.5340576171875 580.8630981445312 840.0843505859375 C 579.3456420898438 841.1128540039062 577.4268798828125 842.1363525390625 575.1600341796875 843.1263427734375 C 571.261962890625 844.8287963867188 566.50830078125 846.3370971679688 562.7540893554688 847.0626220703125 C 561.3919067382812 847.3258666992188 560.0472412109375 847.4592895507812 558.7573852539062 847.4592895507812 Z" stroke="none" fill="#000"/>
        </g>
      </g>
    </g>
  </g>
</svg>
