<svg xmlns="http://www.w3.org/2000/svg" width="196" height="196" viewBox="0 0 196 196">
  <g id="Group_1986" data-name="Group 1986" transform="translate(-3639 -166)">
    <g id="Group_1969" data-name="Group 1969">
      <g id="Group_1951" data-name="Group 1951">
        <g id="Group_1939" data-name="Group 1939" transform="translate(3342 97)">
          <rect id="Rectangle_1254" data-name="Rectangle 1254" width="196" height="196" rx="5" transform="translate(297 69)" fill="#fff"/>
        </g>
      </g>
    </g>
    <g id="Group_1875" data-name="Group 1875" transform="translate(2302.872 -590.135)">
      <path id="Path_2769" data-name="Path 2769" d="M1361.985,723.674s12.75,1.232,18.486,17.923" transform="translate(-0.368 83.552)" fill="none" stroke="#87b838" stroke-linecap="round" stroke-linejoin="round" stroke-width="3"/>
      <path id="Path_2770" data-name="Path 2770" d="M1378.625,740.319s23.338-5.206,46.856,11.849c22.579,16.373,43.338,43.67,81.024,55.99a1.113,1.113,0,0,1-.233,2.172c-21.792,1.826-72.015-6.531-88.689-21.719C1399.45,772.094,1382.934,755.578,1378.625,740.319Z" transform="translate(0.97 84.83)" fill="#56880f"/>
      <ellipse id="Ellipse_425" data-name="Ellipse 425" cx="11.984" cy="11.984" rx="11.984" ry="11.984" transform="translate(1382.658 820.499)" fill="#c5d771"/>
      <ellipse id="Ellipse_426" data-name="Ellipse 426" cx="12.567" cy="12.567" rx="12.567" ry="12.567" transform="translate(1400.51 836.997)" fill="#c5d771"/>
      <ellipse id="Ellipse_427" data-name="Ellipse 427" cx="13.796" cy="13.795" rx="13.796" ry="13.795" transform="translate(1417.922 852.851)" fill="#c5d771"/>
      <ellipse id="Ellipse_428" data-name="Ellipse 428" cx="12.432" cy="12.432" rx="12.432" ry="12.432" transform="translate(1443.551 863.907)" fill="#c5d771"/>
      <ellipse id="Ellipse_429" data-name="Ellipse 429" cx="11.31" cy="11.31" rx="11.31" ry="11.31" transform="translate(1466.172 876.313)" fill="#c5d771"/>
      <path id="Path_2771" data-name="Path 2771" d="M1378.625,740.263s22.8,35.546,67.681,52.96c37.615,11.517,51.076,14.748,59.614,15.843a1.45,1.45,0,0,1,.383,2.771c-13.071,5.529-34.585,10.951-64.664-2.278-34.29-15.08-47.574-29.622-51.883-36.8S1378.446,753.368,1378.625,740.263Z" transform="translate(0.97 84.886)" fill="#87b838"/>
      <g id="Path_2772" data-name="Path 2772" transform="translate(-0.488 83.431)" fill="none" stroke-miterlimit="10">
        <path d="M1507.963,809.557a122.32,122.32,0,0,1-19.024-8.075,11.247,11.247,0,0,0-13.673-8.261q-3.847-2.622-7.447-5.378a12.45,12.45,0,0,0-8.868-7.119c-11.516-9.681-21.57-19.588-32.011-27.158a65.952,65.952,0,0,0-21.326-10.316,11.963,11.963,0,0,0-19.367-2.221c-1.68.077-3.051.216-4.078.35a1.729,1.729,0,0,0-.043-.189c-6.006-17.474-19.3-18.953-19.862-19.008a1.62,1.62,0,0,0-.319,3.225c.48.051,11.815,1.416,17.115,16.837a1.616,1.616,0,0,0,1.055,1.02c.358,12.513,6.962,24.051,11.1,30.948,4.308,7.18,17.593,21.722,51.883,36.8,30.08,13.228,51.594,7.807,64.664,2.277a1.44,1.44,0,0,0,.734-1.973A1.116,1.116,0,0,0,1507.963,809.557Z" stroke="none"/>
        <path d="M 1479.1611328125 819.2350463867188 C 1491.173461914062 819.235595703125 1500.6982421875 816.2793579101562 1507.760864257812 813.29150390625 C 1508.61328125 812.9306640625 1508.819580078125 812.0047607421875 1508.494506835938 811.3187255859375 C 1508.927612304688 810.7677001953125 1508.793701171875 809.8277587890625 1507.962890625 809.556640625 C 1501.095703125 807.3115234375 1494.7958984375 804.5640258789062 1488.939086914062 801.481689453125 C 1487.72265625 796.5464477539062 1483.279907226562 792.8817138671875 1477.969848632812 792.8817138671875 C 1477.036254882812 792.8817138671875 1476.133178710938 793.0070190429688 1475.265625 793.2210083007812 C 1472.700805664062 791.472900390625 1470.222290039062 789.6751708984375 1467.818359375 787.8428344726562 C 1466.203247070312 784.2321166992188 1462.924072265625 781.5289916992188 1458.950439453125 780.7240600585938 C 1447.434448242188 771.0426635742188 1437.380004882812 761.1365356445312 1426.939208984375 753.5661010742188 C 1419.576171875 748.2257080078125 1412.230590820312 745.0687866210938 1405.613159179688 743.2504272460938 C 1403.570190429688 739.5652465820312 1399.642822265625 737.0672607421875 1395.1298828125 737.0672607421875 C 1391.601440429688 737.0672607421875 1388.437866210938 738.6016235351562 1386.245727539062 741.0291137695312 C 1384.56591796875 741.10595703125 1383.194946289062 741.2452392578125 1382.167358398438 741.3792114257812 C 1382.154296875 741.3155517578125 1382.14453125 741.2528076171875 1382.124267578125 741.190185546875 C 1376.1181640625 723.7158203125 1362.823852539062 722.2367553710938 1362.261962890625 722.1817626953125 C 1361.383666992188 722.0903930664062 1360.58740234375 722.7434692382812 1360.49658203125 723.632568359375 C 1360.407104492188 724.5196533203125 1361.056274414062 725.3138427734375 1361.943359375 725.4066772460938 C 1362.423095703125 725.4574584960938 1373.758544921875 726.822998046875 1379.057983398438 742.2435913085938 C 1379.23291015625 742.7525024414062 1379.635986328125 743.1154174804688 1380.11328125 743.2633666992188 C 1380.471069335938 755.776611328125 1387.075561523438 767.314208984375 1391.213623046875 774.2113647460938 C 1395.522094726562 781.3916625976562 1408.806884765625 795.933837890625 1443.096557617188 811.0140991210938 C 1456.9228515625 817.0945434570312 1468.942504882812 819.234619140625 1479.1611328125 819.2350463867188 M 1479.164428710938 824.2350463867188 L 1479.164428710938 819.2350463867188 L 1479.163208007812 824.2350463867188 C 1473.375732421875 824.2348022460938 1467.40966796875 823.5811767578125 1461.428466796875 822.2924194335938 C 1454.784790039062 820.86083984375 1447.939819335938 818.6061401367188 1441.083740234375 815.591064453125 C 1425.574829101562 808.7703857421875 1412.700317382812 801.364013671875 1402.817749023438 793.5776977539062 C 1393.70263671875 786.3959350585938 1389.144775390625 780.481201171875 1386.92626953125 776.783935546875 C 1384.453002929688 772.6616821289062 1381.857543945312 768.1106567382812 1379.630615234375 762.7667236328125 C 1378.332275390625 759.6513061523438 1377.30078125 756.5725708007812 1376.564819335938 753.6159057617188 C 1375.888671875 750.8995971679688 1375.443237304688 748.2142333984375 1375.234985351562 745.6047973632812 C 1374.852172851562 745.079345703125 1374.544921875 744.4955444335938 1374.32958984375 743.8690185546875 C 1373.330322265625 740.9613647460938 1372.017333984375 738.4440307617188 1370.427124023438 736.3865356445312 C 1369.19580078125 734.79345703125 1367.790161132812 733.4646606445312 1366.24951171875 732.4371337890625 C 1363.669067382812 730.716064453125 1361.51513671875 730.3933715820312 1361.393310546875 730.3763427734375 C 1357.789672851562 729.9830322265625 1355.157836914062 726.7391967773438 1355.521850585938 723.1307983398438 L 1355.5224609375 723.1243286132812 C 1355.689208984375 721.4921264648438 1356.450805664062 719.9865112304688 1357.6669921875 718.884765625 C 1358.885498046875 717.781005859375 1360.458618164062 717.1731567382812 1362.0966796875 717.1731567382812 C 1362.317993164062 717.1731567382812 1362.542114257812 717.1845092773438 1362.762817382812 717.2069091796875 C 1363.600708007812 717.2904663085938 1367.842407226562 717.849365234375 1372.77978515625 720.9002075195312 C 1375.652587890625 722.67529296875 1378.234497070312 724.9671630859375 1380.453979492188 727.712158203125 C 1382.266845703125 729.9541015625 1383.837524414062 732.5015869140625 1385.147705078125 735.3204345703125 C 1386.0703125 734.6471557617188 1387.060424804688 734.068359375 1388.111450195312 733.5888671875 C 1390.32470703125 732.5792236328125 1392.68603515625 732.0672607421875 1395.1298828125 732.0672607421875 C 1400.556030273438 732.0672607421875 1405.613525390625 734.663818359375 1408.791015625 738.9661865234375 C 1416.275512695312 741.24853515625 1423.35986328125 744.7933349609375 1429.874877929688 749.5186157226562 C 1436.730834960938 754.48974609375 1443.29052734375 760.3190307617188 1450.2353515625 766.4906005859375 C 1453.800415039062 769.65869140625 1457.477905273438 772.9267578125 1461.285278320312 776.1519775390625 C 1465.7470703125 777.4351196289062 1469.534790039062 780.4736328125 1471.76806640625 784.5618286132812 C 1473.329345703125 785.7359619140625 1474.893676757812 786.8721313476562 1476.442993164062 787.9571533203125 C 1476.954833984375 787.9069213867188 1477.464477539062 787.8817138671875 1477.969848632812 787.8817138671875 C 1479.841186523438 787.8817138671875 1481.677978515625 788.1976318359375 1483.42919921875 788.8207397460938 C 1485.120727539062 789.4227294921875 1486.693237304688 790.2967529296875 1488.10302734375 791.4186401367188 C 1490.275268554688 793.1472778320312 1491.975463867188 795.4196166992188 1493.032104492188 797.9681396484375 C 1498.45068359375 800.7122192382812 1503.862182617188 802.95556640625 1509.5166015625 804.80419921875 C 1511.416625976562 805.4241943359375 1512.89599609375 806.9271850585938 1513.471557617188 808.8237915039062 C 1513.761474609375 809.7792358398438 1513.810668945312 810.7756958007812 1513.634521484375 811.7297973632812 C 1513.666381835938 812.5919189453125 1513.5283203125 813.4595336914062 1513.218017578125 814.2742309570312 C 1512.59228515625 815.9169921875 1511.346435546875 817.2032470703125 1509.7099609375 817.89599609375 C 1499.626586914062 822.1616821289062 1489.635375976562 824.2350463867188 1479.164428710938 824.2350463867188 Z" stroke="none" fill="#000"/>
      </g>
      <ellipse id="Ellipse_430" data-name="Ellipse 430" cx="10.533" cy="10.533" rx="10.533" ry="10.533" transform="translate(1462.341 836.215)" fill="#c5d771" stroke="#000" stroke-miterlimit="10" stroke-width="3"/>
      <ellipse id="Ellipse_431" data-name="Ellipse 431" cx="7.178" cy="7.178" rx="7.178" ry="7.178" transform="translate(1482.872 854.952)" fill="#c5d771" stroke="#000" stroke-miterlimit="10" stroke-width="3"/>
      <path id="Path_3185" data-name="Path 3185" d="M2.12,10.249a.9.9,0,0,1-.778-.4C.161,8.04-1.229,3.706,1.959.285A.938.938,0,0,1,3.208.2a.772.772,0,0,1,.1,1.15c-3.144,3.375-.553,7.5-.441,7.67a.781.781,0,0,1-.308,1.117A.942.942,0,0,1,2.12,10.249Z" transform="matrix(0.574, 0.819, -0.819, 0.574, 1394.5, 822.005)" fill="#fff"/>
      <path id="Path_3186" data-name="Path 3186" d="M3.217,12.1a1.522,1.522,0,0,1-1.181-.467c-1.791-2.142-3.9-7.259.937-11.3a1.733,1.733,0,0,1,1.894-.1A.79.79,0,0,1,5.011,1.59c-4.77,3.985-.839,8.851-.669,9.057.378.456.169,1.047-.467,1.319A1.758,1.758,0,0,1,3.217,12.1Z" transform="matrix(0.574, 0.819, -0.819, 0.574, 1411.297, 837.365)" fill="#fff"/>
      <path id="Path_3187" data-name="Path 3187" d="M3.175,12.31a1.479,1.479,0,0,1-1.165-.475C.242,9.657-1.84,4.452,2.934.342A1.668,1.668,0,0,1,4.8.236a.816.816,0,0,1,.143,1.381c-4.709,4.053-.828,9-.661,9.212a.853.853,0,0,1-.461,1.342A1.69,1.69,0,0,1,3.175,12.31Z" transform="translate(1430.669 853.307) rotate(49)" fill="#fff"/>
      <path id="Path_3188" data-name="Path 3188" d="M2.9,11.631a1.33,1.33,0,0,1-1.066-.449C.221,9.124-1.682,4.206,2.682.323a1.484,1.484,0,0,1,1.709-.1.784.784,0,0,1,.13,1.305c-4.3,3.829-.757,8.506-.6,8.7A.816.816,0,0,1,3.5,11.5,1.5,1.5,0,0,1,2.9,11.631Z" transform="translate(1453.773 863.677) rotate(49)" fill="#fff"/>
      <path id="Path_3189" data-name="Path 3189" d="M2.12,10.249a.9.9,0,0,1-.778-.4C.161,8.04-1.229,3.706,1.959.285A.938.938,0,0,1,3.208.2a.772.772,0,0,1,.1,1.15c-3.144,3.375-.553,7.5-.441,7.67a.781.781,0,0,1-.308,1.117A.942.942,0,0,1,2.12,10.249Z" transform="translate(1477.066 875.753) rotate(49)" fill="#fff"/>
      <path id="Path_3190" data-name="Path 3190" d="M2.12,10.249a.9.9,0,0,1-.778-.4C.161,8.04-1.229,3.706,1.959.285A.938.938,0,0,1,3.208.2a.772.772,0,0,1,.1,1.15c-3.144,3.375-.553,7.5-.441,7.67a.781.781,0,0,1-.308,1.117A.942.942,0,0,1,2.12,10.249Z" transform="translate(1472.388 837.37) rotate(49)" fill="#fff"/>
    </g>
  </g>
</svg>
