<svg xmlns="http://www.w3.org/2000/svg" width="196" height="196" viewBox="0 0 196 196">
  <g id="Group_1987" data-name="Group 1987" transform="translate(-2765 -166)">
    <g id="Group_1965" data-name="Group 1965">
      <g id="Group_1937" data-name="Group 1937">
        <g id="Group_1931" data-name="Group 1931" transform="translate(2468 97)">
          <rect id="Rectangle_1254" data-name="Rectangle 1254" width="196" height="196" rx="5" transform="translate(297 69)" fill="#fff"/>
        </g>
      </g>
    </g>
    <g id="Group_1872" data-name="Group 1872" transform="translate(2183.627 -577.625)">
      <g id="Group_1035" data-name="Group 1035" transform="translate(-9.299 81.239)">
        <path id="Path_2773" data-name="Path 2773" d="M673.062,801.633a32.866,32.866,0,0,0-4.822-16.575c-5.18-8.806-8.929-18.614-3.44-15.735s13.77,7.029,11.486-1.114-6.041-11.39-5.677-23.533,1.056-17.636,4.66-14.126,11.351,8.516,8.957-.044-6.3-12.7-4.274-15.515,4.782-3.181,7.954-4.688,7.172-5.284,7.844-8.317,19.134-12.793,20.929-8.783,1.039,11.037,3.421,15.495,3.659,8.538-3.258,12.506.7,9.119,2.537,10.876,5.712,5.286-3.421,10.24-17.663,4.462-23.442,11.476c-.964,3.066,1.417,5.114,5.721,5.952s16.308,7.14,4.153,9.647-16.206,2.5-19.318,8.714,5.764,4.468,7.752,4.646,2.171,4-3.279,6.131S678.028,792.893,673.062,801.633Z" fill="#90be16"/>
        <path id="Path_2774" data-name="Path 2774" d="M705.491,707.859s-26.439,60.505-37.944,114.584" fill="none" stroke="#f7fae5" stroke-linecap="round" stroke-linejoin="round" stroke-width="3"/>
      </g>
      <g id="Group_1036" data-name="Group 1036" transform="translate(-9.299 81.239)">
        <g id="Path_2775" data-name="Path 2775" fill="#64a338" stroke-miterlimit="10">
          <path d="M 660.3574829101562 802.4979858398438 C 660.1699829101562 802.4979858398438 659.828125 802.4190063476562 659.645751953125 801.889892578125 C 659.5647583007812 801.6549682617188 659.5109252929688 801.3272094726562 659.4811401367188 800.8878173828125 C 659.2289428710938 797.1798706054688 653.5862426757812 790.0213012695312 648.6078491210938 783.7054443359375 C 648.3659057617188 783.3985595703125 648.1248168945312 783.0927124023438 647.8851928710938 782.7882690429688 L 647.3731079101562 782.137939453125 L 648.1870727539062 781.9873657226562 C 652.994873046875 781.0977172851562 655.821533203125 779.4226684570312 656.5885620117188 777.0086059570312 C 657.1834106445312 775.1362915039062 656.5681762695312 772.7747192382812 654.7599487304688 769.9894409179688 C 653.2568969726562 767.6742553710938 651.3378295898438 765.7052612304688 650.41552734375 764.7589721679688 C 650.3080444335938 764.6487426757812 650.2142333984375 764.5524291992188 650.1363525390625 764.4713134765625 C 649.7356567382812 764.0537719726562 648.6258544921875 763.1634521484375 647.3408813476562 762.1325073242188 C 645.3780517578125 760.557861328125 642.935302734375 758.59814453125 641.0111694335938 756.7572021484375 C 638.5287475585938 754.3821411132812 637.5853881835938 752.857421875 637.952392578125 751.8134155273438 C 638.3308715820312 750.73681640625 639.8630981445312 750.73681640625 640.3665771484375 750.73681640625 C 640.9073486328125 750.73681640625 641.55810546875 750.7921752929688 642.3007202148438 750.9013061523438 C 643.3746337890625 751.0592651367188 644.3076782226562 751.1393432617188 645.073974609375 751.1392822265625 C 646.502197265625 751.1392822265625 647.3887939453125 750.8572998046875 647.5704956054688 750.3452758789062 C 647.715087890625 749.9379272460938 647.630126953125 748.8952026367188 645.4373168945312 746.4884643554688 C 644.1232299804688 745.0462036132812 642.2591552734375 743.34228515625 639.8967895507812 741.4241943359375 C 636.4827270507812 738.65185546875 634.9519653320312 736.0087280273438 635.5865478515625 733.981689453125 C 635.875 733.0603637695312 636.59228515625 732.316650390625 637.7184448242188 731.7711791992188 C 638.8386840820312 731.2286376953125 640.380615234375 730.880126953125 642.3013916015625 730.7354125976562 C 644.921142578125 730.5380249023438 645.7783203125 730.2399291992188 646.0494384765625 730.0945434570312 C 645.8455200195312 729.92529296875 645.2387084960938 729.5584716796875 643.4680786132812 729.01611328125 C 641.9502563476562 728.5511474609375 639.8492431640625 728.0431518554688 637.39208984375 727.547119140625 C 635.7644653320312 727.2183227539062 634.50927734375 726.7542114257812 633.6614379882812 726.1676635742188 C 632.8395385742188 725.5990600585938 632.3814697265625 724.9129028320312 632.300048828125 724.1282348632812 C 632.2099609375 723.260009765625 632.5986328125 722.3340454101562 633.424072265625 721.4503784179688 C 634.0928344726562 720.7344360351562 635.012939453125 720.0930786132812 635.9484252929688 719.6907348632812 C 636.4487915039062 719.4754028320312 636.75 719.1965942382812 636.8692626953125 718.8382568359375 C 637.2061767578125 717.8260498046875 636.219482421875 716.1101684570312 635.1749267578125 714.29345703125 C 634.8380126953125 713.7075805664062 634.4896240234375 713.1016845703125 634.1674194335938 712.4885864257812 C 633.3632202148438 710.9579467773438 633.43408203125 708.5057983398438 634.3779907226562 705.2000732421875 C 635.0643920898438 702.7960815429688 635.9581909179688 700.8464965820312 635.9959106445312 700.7647094726562 L 636.3445434570312 700.0084228515625 L 636.8482055664062 700.6715698242188 C 636.8527221679688 700.677490234375 637.4212036132812 701.4055786132812 638.643310546875 702.1583251953125 C 639.7713623046875 702.85302734375 641.7048950195312 703.7123413085938 644.5103759765625 703.8606567382812 C 650.3760375976562 704.1698608398438 651.3582153320312 709.3789672851562 651.6809692382812 711.0906982421875 C 651.6934204101562 711.15673828125 651.7049560546875 711.2178344726562 651.7157592773438 711.2734985351562 C 651.8688354492188 712.06005859375 652.6036376953125 712.5682373046875 653.5877075195312 712.5682373046875 C 654.130615234375 712.5682373046875 654.7361450195312 712.41455078125 655.3386840820312 712.1236572265625 L 655.3512573242188 712.1176147460938 L 655.3640747070312 712.1123046875 C 656.669189453125 711.5697021484375 657.8202514648438 711.2945556640625 658.7853393554688 711.2945556640625 C 660.1616821289062 711.2945556640625 661.1949462890625 711.8330688476562 661.8564453125 712.8951416015625 C 663.0469360351562 714.8064575195312 662.7054443359375 718.0740356445312 662.2093505859375 720.4786376953125 C 661.6341552734375 723.2666625976562 660.6333618164062 726.02734375 659.896728515625 727.5265502929688 C 659.2362670898438 728.870361328125 659.0962524414062 730.0243530273438 659.5125122070312 730.6926879882812 C 659.85693359375 731.2457275390625 660.5330200195312 731.3617553710938 661.0396118164062 731.3616943359375 C 661.785400390625 731.3616333007812 663.0852661132812 731.1187133789062 665.0425415039062 729.9616088867188 C 666.8749389648438 728.8787231445312 668.4505615234375 728.32958984375 669.7255859375 728.32958984375 C 670.9780883789062 728.32958984375 671.9629516601562 728.838134765625 672.6527099609375 729.841064453125 C 673.27783203125 730.7498779296875 673.6513671875 732.0823974609375 673.762939453125 733.8015747070312 C 673.9783935546875 737.1319580078125 671.4580688476562 740.7451782226562 669.020751953125 744.2394409179688 C 667.6488037109375 746.206298828125 666.3529052734375 748.0641479492188 665.5277709960938 749.847900390625 C 664.6845703125 751.6712036132812 664.7283935546875 752.3992919921875 664.9136352539062 752.6890869140625 C 665.0675048828125 752.9296875 665.46630859375 753.0516967773438 666.0989379882812 753.0516967773438 C 667.5836181640625 753.0515747070312 670.140625 752.3668212890625 673.0836791992188 751.5396728515625 C 674.1890869140625 751.2289428710938 675.1163330078125 751.0714721679688 675.8397216796875 751.0714721679688 C 676.8846435546875 751.0714721679688 677.5791625976562 751.3953857421875 677.9039916992188 752.0343017578125 C 678.6265869140625 753.4554443359375 676.973876953125 755.7918090820312 676.7830200195312 756.0535278320312 L 676.7633056640625 756.0806274414062 L 676.7401123046875 756.1047973632812 C 676.6683959960938 756.1797485351562 669.530517578125 763.6773681640625 666.509765625 770.6409912109375 C 665.31640625 773.3922119140625 665.069091796875 775.4306640625 665.7944946289062 776.5359497070312 C 666.2964477539062 777.3007202148438 667.3018188476562 777.6884155273438 668.7827758789062 777.6883544921875 C 669.171875 777.6883544921875 669.595458984375 777.6608276367188 670.041748046875 777.606689453125 L 670.3579711914062 777.568115234375 C 671.468994140625 777.4323120117188 672.271728515625 777.3341674804688 672.87646484375 777.3341674804688 C 673.3674926757812 777.3341674804688 673.973876953125 777.39208984375 674.3076171875 777.8434448242188 C 674.6678466796875 778.3306274414062 674.5260009765625 779.0224609375 674.3190307617188 779.6975708007812 L 674.2559814453125 779.9033203125 L 674.063232421875 779.9989624023438 C 669.4742431640625 782.2756958007812 664.999267578125 789.5250854492188 664.0531616210938 793.3209228515625 C 663.5659790039062 795.2734985351562 662.9551391601562 797.3860473632812 662.419189453125 798.97216796875 C 662.0852661132812 799.96044921875 661.781982421875 800.7416381835938 661.517822265625 801.2939453125 C 661.21875 801.9193115234375 660.8711547851562 802.4979858398438 660.3574829101562 802.4979858398438 Z" stroke="none"/>
          <path d="M 636.4500122070312 700.9739990234375 C 636.4500122070312 700.9739990234375 632.8200073242188 708.8489990234375 634.6099853515625 712.2559814453125 C 636.4000244140625 715.6619873046875 639.0440063476562 718.9030151367188 636.14599609375 720.1500244140625 C 633.2490234375 721.39599609375 629.7440185546875 725.4920043945312 637.4910278320312 727.0570068359375 C 645.2379760742188 728.6209716796875 650.9249877929688 730.5869750976562 642.3389892578125 731.2340087890625 C 633.7529907226562 731.8809814453125 634.6160278320312 736.4920043945312 640.2119750976562 741.0360107421875 C 645.8070068359375 745.5789794921875 653.718505859375 753.0863037109375 642.22802734375 751.39599609375 C 630.7371826171875 749.7066650390625 648.4259643554688 761.9669799804688 650.4970092773438 764.125 C 652.5679931640625 766.281982421875 665.9719848632812 779.2050170898438 648.2780151367188 782.47900390625 C 653.6380004882812 789.2869873046875 659.7050170898438 796.8109741210938 659.97998046875 800.85400390625 C 660.2540283203125 804.897705078125 662.56103515625 797.23583984375 663.5679931640625 793.2000122070312 C 664.573974609375 789.1640014648438 669.1710205078125 781.8679809570312 673.8410034179688 779.551025390625 C 674.4669799804688 777.5089721679688 673.6038208007812 777.6770629882812 670.1019897460938 778.10302734375 C 666.600830078125 778.5283203125 662.9580078125 777.5729370117188 666.051025390625 770.4420166015625 C 669.1439819335938 763.31201171875 676.3790283203125 755.7589721679688 676.3790283203125 755.7589721679688 C 676.3790283203125 755.7589721679688 680.6226196289062 749.9402465820312 673.218994140625 752.02099609375 C 665.8150634765625 754.1019897460938 662.7320556640625 754.7019653320312 665.073974609375 749.6380004882812 C 667.4169921875 744.572998046875 673.5830078125 738.7650146484375 673.2639770507812 733.833984375 C 672.9439697265625 728.9039306640625 670.4630126953125 727.3388671875 665.2969970703125 730.3920288085938 C 660.1310424804688 733.44580078125 657.429931640625 731.4119873046875 659.447998046875 727.3060302734375 C 661.4650268554688 723.200927734375 665.9776000976562 708.2408447265625 655.5560302734375 712.573974609375 C 653.3330078125 713.6470947265625 651.5130004882812 712.8490600585938 651.2249755859375 711.3690185546875 C 650.93701171875 709.8889770507812 650.1749877929688 704.6599731445312 644.4840087890625 704.3599853515625 C 638.7930297851562 704.0590209960938 636.4500122070312 700.9739990234375 636.4500122070312 700.9739990234375 M 636.2503662109375 699.0182495117188 L 637.2443237304688 700.366455078125 C 637.2835693359375 700.4151611328125 637.8274536132812 701.077392578125 638.9514770507812 701.7606811523438 C 640.0244140625 702.4129028320312 641.8643188476562 703.2200317382812 644.5368041992188 703.3613891601562 C 645.97021484375 703.4369506835938 647.2412719726562 703.8050537109375 648.314453125 704.4554443359375 C 649.2227172851562 705.005859375 649.9942016601562 705.7612915039062 650.607421875 706.7006225585938 C 651.66845703125 708.3257446289062 652.0087890625 710.1306762695312 652.1723022460938 710.998046875 C 652.1845703125 711.0630493164062 652.1959228515625 711.1231689453125 652.2066040039062 711.1780395507812 C 652.3134155273438 711.7271118164062 652.8426513671875 712.0682373046875 653.5877075195312 712.0682373046875 C 654.0558471679688 712.0682373046875 654.586181640625 711.9317016601562 655.121337890625 711.6734008789062 L 655.172119140625 711.6505737304688 C 656.5576171875 711.0745849609375 657.739501953125 710.7945556640625 658.7853393554688 710.7945556640625 C 660.3239135742188 710.7945556640625 661.5326538085938 711.4295043945312 662.2808837890625 712.6307373046875 C 663.3067016601562 714.27783203125 663.4473876953125 716.9522705078125 662.6990356445312 720.5796508789062 C 662.1149291992188 723.4107666015625 661.0961303710938 726.2194213867188 660.3455200195312 727.7470092773438 C 659.771484375 728.9150390625 659.6187133789062 729.9173583984375 659.9368896484375 730.42822265625 C 660.1160278320312 730.7158813476562 660.4869995117188 730.8616943359375 661.0396118164062 730.8616943359375 C 662.0054931640625 730.8616943359375 663.3367309570312 730.38916015625 664.7880859375 729.5311889648438 C 666.7255859375 728.3861694335938 668.340576171875 727.8296508789062 669.7255859375 727.8296508789062 C 671.1324462890625 727.8296508789062 672.287109375 728.4271850585938 673.064697265625 729.5577392578125 C 673.7510986328125 730.5557250976562 674.1427001953125 731.9332885742188 674.2619018554688 733.7691650390625 C 674.4886474609375 737.2743530273438 671.9174194335938 740.9606323242188 669.4308471679688 744.5255126953125 C 668.0718383789062 746.4738159179688 666.7882080078125 748.3140869140625 665.9815673828125 750.057861328125 C 665.094482421875 751.9760131835938 665.332275390625 752.4158325195312 665.3349609375 752.4197387695312 C 665.335693359375 752.4204711914062 665.4828491210938 752.5516967773438 666.0989990234375 752.5516967773438 C 667.51953125 752.5516967773438 670.0413818359375 751.8753662109375 672.9484252929688 751.0582885742188 C 674.114013671875 750.730712890625 675.0597534179688 750.5714111328125 675.8397216796875 750.5714111328125 C 677.3947143554688 750.5714111328125 678.0629272460938 751.2437133789062 678.3496704101562 751.8076782226562 C 678.7483520507812 752.5916748046875 678.64697265625 753.627197265625 678.04833984375 754.8853759765625 C 677.6672973632812 755.686279296875 677.2064819335938 756.3214721679688 677.1870727539062 756.34814453125 L 677.1475219726562 756.4022827148438 L 677.1011352539062 756.4507446289062 C 677.0300903320312 756.52490234375 669.952392578125 763.961181640625 666.9684448242188 770.8399658203125 C 665.8614501953125 773.39208984375 665.5929565429688 775.3175048828125 666.2124633789062 776.261474609375 C 666.6160888671875 776.8765258789062 667.4808959960938 777.1883544921875 668.7828369140625 777.1883544921875 C 669.1516723632812 777.1883544921875 669.5549926757812 777.162109375 669.9814453125 777.1102905273438 L 670.2974853515625 777.07177734375 C 671.4259643554688 776.933837890625 672.2413940429688 776.8341674804688 672.87646484375 776.8341674804688 C 673.23388671875 776.8341674804688 674.1834106445312 776.8341674804688 674.7098388671875 777.546142578125 C 675.2030029296875 778.213134765625 675.0307006835938 779.0820922851562 674.797119140625 779.8441162109375 L 674.6709594726562 780.2555541992188 L 674.2854614257812 780.4468383789062 C 672.3171997070312 781.42333984375 670.1367797851562 783.5054931640625 668.1458740234375 786.3097534179688 C 666.406494140625 788.759765625 665.024169921875 791.4926147460938 664.538330078125 793.4418334960938 C 664.0480346679688 795.4068603515625 663.4329223632812 797.5340576171875 662.8928833007812 799.1322021484375 C 662.5525512695312 800.1394653320312 662.24169921875 800.9393310546875 661.9688720703125 801.5097045898438 C 661.5991821289062 802.28271484375 661.1481323242188 802.9979858398438 660.3574829101562 802.9979858398438 C 660.1560668945312 802.9979858398438 659.4754028320312 802.9298706054688 659.1730346679688 802.0528564453125 C 659.076171875 801.7717895507812 659.0155029296875 801.412353515625 658.9822998046875 800.921630859375 C 658.8785400390625 799.3964233398438 657.7072143554688 796.9647827148438 655.5008544921875 793.6946411132812 C 653.45556640625 790.6632080078125 650.7914428710938 787.2833862304688 648.2150268554688 784.014892578125 C 647.97314453125 783.7079467773438 647.7319946289062 783.4020385742188 647.4923095703125 783.0975952148438 L 646.46826171875 781.796875 L 648.0960693359375 781.4957275390625 C 652.7083129882812 780.6422729492188 655.4052124023438 779.0816650390625 656.1119995117188 776.857177734375 C 656.6593627929688 775.1343994140625 656.0634155273438 772.9154052734375 654.3406372070312 770.26171875 C 652.8643798828125 767.9879150390625 650.9685668945312 766.0427856445312 650.0574951171875 765.1079711914062 C 649.9490356445312 764.9966430664062 649.8543090820312 764.8994750976562 649.7756958007812 764.8175659179688 C 649.3973999023438 764.4234008789062 648.2993774414062 763.5425415039062 647.0280151367188 762.5225219726562 C 645.0576171875 760.9418334960938 642.60546875 758.9744873046875 640.66552734375 757.1184692382812 C 637.9862060546875 754.5550537109375 637.0337524414062 752.9188842773438 637.480712890625 751.6475830078125 C 637.809814453125 750.71142578125 638.78076171875 750.23681640625 640.3665771484375 750.23681640625 C 640.9315185546875 750.23681640625 641.6067504882812 750.2939453125 642.3734130859375 750.4066162109375 C 643.4232788085938 750.56103515625 644.3318481445312 750.6393432617188 645.073974609375 750.6393432617188 C 646.6011962890625 750.6393432617188 647.0537719726562 750.306396484375 647.0993041992188 750.1781005859375 C 647.124755859375 750.1063842773438 647.6298217773438 748.34716796875 639.5816650390625 741.8123168945312 C 637.92626953125 740.4681396484375 636.6904296875 739.1412353515625 635.908447265625 737.8684692382812 C 635.0017700195312 736.3927001953125 634.7329711914062 735.0347290039062 635.1094360351562 733.832275390625 C 635.4407348632812 732.7740478515625 636.2452392578125 731.92919921875 637.50048828125 731.3212280273438 C 638.677490234375 730.7511596679688 640.2801513671875 730.3862915039062 642.2638549804688 730.23681640625 C 643.3731689453125 730.1532592773438 644.1458740234375 730.0530395507812 644.6812133789062 729.95849609375 C 644.2925415039062 729.806884765625 643.767578125 729.6253051757812 643.0607299804688 729.41552734375 C 641.5857543945312 728.977783203125 639.5913696289062 728.501220703125 637.2931518554688 728.0372314453125 C 635.5985107421875 727.6948852539062 634.2809448242188 727.2042236328125 633.376953125 726.578857421875 C 632.1968994140625 725.762451171875 631.8695068359375 724.8236694335938 631.802734375 724.1798706054688 C 631.5657348632812 721.8970336914062 634.0339965820312 719.9697875976562 635.7509155273438 719.2313842773438 C 636.2884521484375 719.0000610351562 636.3685302734375 718.7593994140625 636.3948364257812 718.6803588867188 C 636.6609497070312 717.880859375 635.6411743164062 716.107421875 634.741455078125 714.542724609375 C 634.4022216796875 713.9527587890625 634.0513916015625 713.3427124023438 633.7247924804688 712.72119140625 C 632.8587646484375 711.0728759765625 632.9168090820312 708.4962768554688 633.897216796875 705.0628051757812 C 634.5941162109375 702.6221923828125 635.5034790039062 700.6386108398438 635.5418701171875 700.5553588867188 L 636.2503662109375 699.0182495117188 Z" stroke="none" fill="#000"/>
        </g>
        <path id="Path_2776" data-name="Path 2776" d="M642.754,711.6s33.452,58.619,12.372,108.268" fill="none" stroke="#f7fae5" stroke-linecap="round" stroke-linejoin="round" stroke-width="3"/>
      </g>
      <g id="Group_1037" data-name="Group 1037" transform="translate(-9.299 81.239)">
        <g id="Path_2777" data-name="Path 2777" fill="#64a338" stroke-linecap="round" stroke-linejoin="round">
          <path d="M 684.44091796875 799.8914794921875 L 683.7015991210938 799.259765625 C 685.7693481445312 795.2072143554688 686.8551025390625 791.8855590820312 687.1185302734375 788.806396484375 C 687.3610229492188 785.972412109375 686.9159545898438 783.5635986328125 686.3088989257812 780.708984375 C 685.760986328125 778.1348876953125 686.0579833984375 775.9033813476562 687.1238403320312 774.5867919921875 C 687.6548461914062 773.9307861328125 688.3521118164062 773.5545654296875 689.036865234375 773.5545654296875 C 689.5996704101562 773.5545654296875 690.107666015625 773.8035888671875 690.46728515625 774.2557983398438 C 690.70556640625 774.5555419921875 690.9881591796875 775.0355834960938 691.345947265625 775.6432495117188 C 692.319091796875 777.2959594726562 693.9478759765625 780.0621948242188 695.5106201171875 780.0621948242188 C 695.5108032226562 780.0621948242188 695.5108032226562 780.0621948242188 695.510986328125 780.0621948242188 C 696.2405395507812 780.0619506835938 696.9739990234375 779.432373046875 697.6910400390625 778.19091796875 C 699.1136474609375 775.7284545898438 699.5439453125 773.7366333007812 699.1763305664062 771.3157958984375 C 698.8060913085938 768.8777465820312 697.603515625 765.9356079101562 695.9391479492188 761.8634643554688 C 695.4615478515625 760.6950073242188 694.9202270507812 759.37060546875 694.3524780273438 757.9450073242188 C 693.1655883789062 754.9640502929688 692.9701538085938 752.9524536132812 693.7550048828125 751.7952880859375 C 694.0670776367188 751.3350830078125 694.7030639648438 750.7865600585938 695.9607543945312 750.7865600585938 C 697.6409912109375 750.7865600585938 699.6941528320312 751.725341796875 701.1206665039062 752.5128784179688 C 702.805908203125 753.4432373046875 704.443115234375 754.6243286132812 705.3933715820312 755.5952758789062 C 707.1661987304688 757.40673828125 708.8509521484375 758.3641967773438 710.2655029296875 758.3641967773438 C 711.1588745117188 758.3641357421875 711.9469604492188 757.9691162109375 712.6091918945312 757.189697265625 C 714.1505737304688 752.0933227539062 712.91943359375 747.6744384765625 711.4952392578125 742.562744140625 C 710.5794067382812 739.2755737304688 709.63232421875 735.8764038085938 709.2918090820312 731.8905639648438 C 708.9531860351562 727.9314575195312 709.4368286132812 725.3009033203125 710.770263671875 723.8485107421875 C 711.53857421875 723.0116577148438 712.5908203125 722.5873413085938 713.8977661132812 722.5873413085938 C 714.81884765625 722.5873413085938 715.69482421875 722.788330078125 716.3987426757812 722.9498291015625 L 716.4935302734375 722.9715576171875 C 716.8041381835938 723.0426025390625 717.1947631835938 723.1553955078125 717.6470336914062 723.2859497070312 C 718.9994506835938 723.6764526367188 720.8516235351562 724.211181640625 722.5197143554688 724.2111206054688 C 723.8126831054688 724.2109985351562 724.7385864257812 723.8946533203125 725.3502807617188 723.2440185546875 C 726.0401611328125 722.51025390625 726.3388061523438 721.3087158203125 726.2379760742188 719.6727905273438 C 726.005615234375 715.8966674804688 726.7925415039062 713.3013916015625 728.6436767578125 711.7385864257812 C 730.36572265625 710.2847900390625 732.833251953125 709.8795166015625 735.2432861328125 709.6581420898438 C 737.8457641601562 709.4189453125 740.6077880859375 708.0283203125 743.27880859375 706.6834716796875 C 745.6137084960938 705.5078125 747.8191528320312 704.3973999023438 749.8566284179688 704.0655517578125 C 749.9539794921875 704.0496215820312 750.052734375 704.0415649414062 750.1499633789062 704.0415649414062 C 751.2549438476562 704.0415649414062 752.2383422851562 705.0421752929688 753.07275390625 707.0154418945312 C 754.1498413085938 709.5624389648438 755.0097045898438 713.889892578125 755.3167724609375 718.30908203125 C 755.45849609375 720.3477783203125 755.4685668945312 722.2066040039062 755.3458862304688 723.6846923828125 C 755.2044067382812 725.3893432617188 754.902099609375 726.45849609375 754.4216918945312 726.9533081054688 C 753.4970703125 727.906005859375 752.7324829101562 729.6080322265625 752.2688598632812 731.7457275390625 C 751.842041015625 733.7138061523438 751.7251586914062 735.87646484375 751.9561767578125 737.5308227539062 C 752.0800170898438 738.4175415039062 752.2528076171875 739.2421875 752.419921875 740.0396728515625 C 752.8894653320312 742.2803344726562 753.3330078125 744.396728515625 752.3822021484375 746.89111328125 C 751.9834594726562 747.9370727539062 751.1689453125 748.6589965820312 749.8187866210938 749.1629028320312 C 748.6458129882812 749.6007080078125 747.1736450195312 749.853759765625 745.3098754882812 750.1741943359375 C 743.0247802734375 750.5670776367188 740.180908203125 751.0560302734375 736.9383544921875 752.0932006835938 C 734.8289184570312 752.7682495117188 733.6864013671875 753.5518188476562 733.7213134765625 754.299560546875 C 733.79052734375 755.78076171875 737.9945678710938 757.72607421875 741.7243041992188 758.545654296875 C 743.7228393554688 758.9846801757812 745.39697265625 759.4468383789062 745.640380859375 760.6602172851562 C 745.8026123046875 761.46875 745.2826538085938 762.3980712890625 743.9544677734375 763.6735229492188 C 742.741943359375 764.837890625 740.8089599609375 766.3411254882812 737.871337890625 768.4041748046875 C 733.3119506835938 771.606201171875 731.7865600585938 773.7306518554688 730.5609130859375 775.4376220703125 C 729.1923828125 777.3436279296875 728.20361328125 778.720703125 723.8349609375 780.1143798828125 C 720.1177978515625 781.3006591796875 717.9888916015625 782.7831420898438 717.8403930664062 784.2887573242188 C 717.7185668945312 785.5245361328125 718.9511108398438 786.9244384765625 721.3110961914062 788.2305908203125 C 722.335205078125 788.7974243164062 722.7736206054688 789.4337768554688 722.6143798828125 790.1219482421875 C 722.4423217773438 790.8650512695312 721.5725708007812 791.4898071289062 719.8771362304688 792.0881958007812 C 718.531982421875 792.5629272460938 716.6776123046875 793.0140991210938 714.3654174804688 793.4293212890625 C 710.357421875 794.1490478515625 705.1644287109375 794.7206420898438 700.4743041992188 794.9583740234375 C 695.3381958007812 795.2181396484375 691.2427978515625 796.5516357421875 688.7116088867188 797.6245727539062 C 685.9807739257812 798.7821655273438 684.4559326171875 799.8805541992188 684.44091796875 799.8914794921875 Z" stroke="none"/>
          <path d="M 684.14697265625 799.4869995117188 C 684.14697265625 799.4869995117188 690.364990234375 794.968994140625 700.448974609375 794.458984375 C 710.531982421875 793.947998046875 726.4290161132812 791.635009765625 721.0689697265625 788.6680297851562 C 715.7100219726562 785.7020263671875 715.7210083007812 782.1790161132812 723.6829833984375 779.6380004882812 C 731.64501953125 777.0980224609375 727.7589721679688 774.89501953125 737.583984375 767.9949951171875 C 747.4089965820312 761.094970703125 746.4739990234375 760.1010131835938 741.6170043945312 759.0339965820312 C 736.760986328125 757.9669799804688 728.4199829101562 754.2940063476562 736.7860107421875 751.6170043945312 C 745.1519775390625 748.9409790039062 750.6959838867188 749.9110107421875 751.9149780273438 746.7130126953125 C 753.1339721679688 743.5150146484375 751.9409790039062 741.0369873046875 751.4609985351562 737.5999755859375 C 750.9810180664062 734.1630249023438 751.9249877929688 728.8079833984375 754.06298828125 726.60498046875 C 756.2009887695312 724.4030151367188 754.2230834960938 703.8619995117188 749.93701171875 704.5590209960938 C 745.6519775390625 705.2570190429688 740.2630004882812 709.698974609375 735.2890014648438 710.156005859375 C 730.3150024414062 710.6129760742188 726.2529907226562 711.7760009765625 726.7369995117188 719.6420288085938 C 727.2219848632812 727.5070190429688 718.8308715820312 724.0189819335938 716.3820190429688 723.458984375 C 713.9339599609375 722.8990478515625 708.9149780273438 721.6170043945312 709.7899780273438 731.8480224609375 C 710.6640014648438 742.0780029296875 715.7069702148438 748.8510131835938 713.0579833984375 757.4320068359375 C 711.0518188476562 759.8939819335938 708.0668334960938 759.0418701171875 705.0360107421875 755.9450073242188 C 702.0050048828125 752.8480224609375 690.2799682617188 746.3650512695312 694.8170166015625 757.760009765625 C 699.35498046875 769.155029296875 701.5579833984375 772.4970092773438 698.1240234375 778.4409790039062 C 694.69091796875 784.3848876953125 691.302978515625 776.1110229492188 690.0759887695312 774.5670166015625 C 688.8480834960938 773.0228881835938 685.5939331054688 774.9489135742188 686.7979736328125 780.60498046875 C 688.0009765625 786.2620239257812 688.6619873046875 790.6380004882812 684.14697265625 799.4869995117188 M 684.1470947265625 800.4869995117188 C 683.9150390625 800.4869995117188 683.6837158203125 800.406494140625 683.497314453125 800.2472534179688 C 683.145751953125 799.94677734375 683.0460205078125 799.4444580078125 683.2562255859375 799.0325317382812 C 685.2936401367188 795.0394287109375 686.3626098632812 791.7764282226562 686.620361328125 788.7637329101562 C 686.8569946289062 785.9983520507812 686.4181518554688 783.6264038085938 685.81982421875 780.81298828125 C 685.0264892578125 777.0858154296875 686.0527954101562 775.1151123046875 686.7352294921875 774.272216796875 C 687.3616333007812 773.4983520507812 688.2005615234375 773.0545654296875 689.036865234375 773.0545654296875 C 689.7551879882812 773.0545654296875 690.4022216796875 773.3706665039062 690.858642578125 773.944580078125 C 691.11865234375 774.2717895507812 691.4090576171875 774.7650146484375 691.7767944335938 775.3894653320312 C 692.3064575195312 776.2890014648438 692.9656372070312 777.4085083007812 693.6947631835938 778.2808837890625 C 694.3953857421875 779.119140625 695.0233154296875 779.5621948242188 695.5106201171875 779.5621948242188 C 695.813720703125 779.5620727539062 696.4434204101562 779.3513793945312 697.258056640625 777.9408569335938 C 698.618408203125 775.586181640625 699.0309448242188 773.6885375976562 698.6820068359375 771.390869140625 C 698.3206787109375 769.0117797851562 697.1276245117188 766.0927124023438 695.4762573242188 762.0526123046875 C 694.998291015625 760.8831787109375 694.45654296875 759.5576782226562 693.8880004882812 758.1300048828125 C 692.6350708007812 754.9833374023438 692.4562377929688 752.8193969726562 693.3411865234375 751.5145874023438 C 693.7211303710938 750.954345703125 694.4840087890625 750.2865600585938 695.9607543945312 750.2865600585938 C 697.7474365234375 750.2865600585938 699.8843383789062 751.2592163085938 701.3623657226562 752.0751342773438 C 703.0872192382812 753.0274047851562 704.7687377929688 754.2422485351562 705.7506713867188 755.2455444335938 C 707.4033813476562 756.9342041015625 709.0067749023438 757.8641967773438 710.2655029296875 757.8641967773438 C 710.9862670898438 757.8641357421875 711.6079711914062 757.5625 712.1610717773438 756.943115234375 C 713.6133422851562 752.0271606445312 712.4072265625 747.6988525390625 711.0136108398438 742.6969604492188 C 710.091552734375 739.3876342773438 709.1381225585938 735.965576171875 708.7935791015625 731.9331665039062 C 708.4423828125 727.8267822265625 708.968505859375 725.0715942382812 710.4019775390625 723.5103149414062 C 711.2688598632812 722.5661010742188 712.4450073242188 722.0873413085938 713.8977661132812 722.0873413085938 C 714.87548828125 722.0873413085938 715.820556640625 722.30419921875 716.5106201171875 722.4625244140625 L 716.6050415039062 722.4841918945312 C 716.9293212890625 722.558349609375 717.326171875 722.6729125976562 717.7857055664062 722.8056030273438 C 719.1094360351562 723.1878051757812 720.9223022460938 723.711181640625 722.5196533203125 723.7111206054688 C 723.6671752929688 723.7109985351562 724.4739379882812 723.4462280273438 724.9860229492188 722.9015502929688 C 725.57763671875 722.2722778320312 725.8309326171875 721.1962890625 725.7388916015625 719.7035522460938 C 725.4961547851562 715.7586669921875 726.3408203125 713.0283203125 728.3211669921875 711.3565063476562 C 730.1488037109375 709.8135986328125 732.7061767578125 709.3890991210938 735.197509765625 709.1602172851562 C 737.7056274414062 708.9297485351562 740.424560546875 707.560791015625 743.053955078125 706.2368774414062 C 745.4241333007812 705.04345703125 747.6629028320312 703.916259765625 749.7762451171875 703.572021484375 C 749.9000854492188 703.5518188476562 750.02587890625 703.5415649414062 750.1499633789062 703.5415649414062 C 751.474853515625 703.5415649414062 752.6131591796875 704.6448364257812 753.5333251953125 706.8207397460938 C 754.6470336914062 709.4544067382812 755.5001831054688 713.7361450195312 755.8156127929688 718.2744750976562 C 755.958984375 720.3379516601562 755.9688720703125 722.2230834960938 755.8441772460938 723.7260131835938 C 755.6424560546875 726.1566772460938 755.1405029296875 726.9307861328125 754.7804565429688 727.3015747070312 C 753.23388671875 728.8951416015625 751.9091796875 733.5789184570312 752.451416015625 737.461669921875 C 752.5728759765625 738.3316040039062 752.743896484375 739.1477661132812 752.9093017578125 739.9370727539062 C 753.3943481445312 742.2515869140625 753.8524169921875 744.437744140625 752.849365234375 747.0692138671875 C 751.9046630859375 749.5477294921875 749.1740112304688 750.0172119140625 745.3945922851562 750.6669921875 C 743.1248168945312 751.0572509765625 740.2999877929688 751.5429077148438 737.0906982421875 752.5694580078125 C 734.7918701171875 753.3050537109375 734.208251953125 754.007568359375 734.2207641601562 754.2762451171875 C 734.234619140625 754.572021484375 734.7622680664062 755.32421875 736.65234375 756.2672729492188 C 738.1143188476562 756.9967651367188 740.050537109375 757.6659545898438 741.8316040039062 758.0573120117188 C 744.0045166015625 758.53466796875 745.8278198242188 759.0526123046875 746.130615234375 760.5618896484375 C 746.4837646484375 762.3220825195312 744.5466918945312 764.3271484375 738.15869140625 768.8133544921875 C 733.668701171875 771.9666748046875 732.1707153320312 774.0529174804688 730.967041015625 775.729248046875 C 729.54248046875 777.7132568359375 728.5132446289062 779.146728515625 723.9869384765625 780.5906982421875 C 719.0670776367188 782.1608276367188 718.3975219726562 783.7342529296875 718.3380126953125 784.3378295898438 C 718.2384033203125 785.34765625 719.4103393554688 786.6070556640625 721.55322265625 787.7930908203125 C 723.1015625 788.6502075195312 723.2498168945312 789.5938720703125 723.1015014648438 790.2346801757812 C 722.8843383789062 791.1729125976562 721.9412231445312 791.8899536132812 720.0435791015625 792.5596923828125 C 718.6730346679688 793.0433349609375 716.7924194335938 793.5015258789062 714.4537963867188 793.9214477539062 C 710.4261474609375 794.6447143554688 705.2096557617188 795.218994140625 700.4995727539062 795.4577026367188 C 690.8242797851562 795.947021484375 684.7945556640625 800.2525634765625 684.7348022460938 800.2960205078125 C 684.5590209960938 800.4237060546875 684.352783203125 800.4869995117188 684.1470947265625 800.4869995117188 Z" stroke="none" fill="#000"/>
        </g>
        <path id="Path_2778" data-name="Path 2778" d="M651.064,808.378s59.525,1.247,83.228-73.426" fill="none" stroke="#f7fae5" stroke-linecap="round" stroke-linejoin="round" stroke-width="3"/>
      </g>
      <g id="Path_2779" data-name="Path 2779" transform="translate(-9.299 81.239)" fill="none" stroke-linecap="round" stroke-linejoin="round">
        <path d="M749.937,704.559c-4.285.7-9.674,5.14-14.648,5.6s-9.036,1.62-8.552,9.485-7.906,4.378-10.355,3.818a14.889,14.889,0,0,0-1.79-.333,6.658,6.658,0,0,1,2.25-1.922c6.917-3.968,5.64-8.048,3.258-12.506s-1.626-11.484-3.421-15.495-20.257,5.75-20.929,8.783-4.672,6.81-7.844,8.317-5.929,1.878-7.954,4.688,1.88,6.955,4.274,15.515-5.353,3.555-8.957.044c-1.341-1.306-2.277-1.361-2.945-.3-1.181-1.875-3.465-1.967-7.027.138-5.166,3.054-7.867,1.019-5.849-3.086s6.53-19.065-3.892-14.732c-2.224,1.073-4.043.275-4.331-1.2s-1.05-6.709-6.741-7.009-8.034-3.386-8.034-3.386-3.63,7.875-1.84,11.282,4.434,6.647,1.536,7.894-6.4,5.342,1.345,6.907,13.434,3.53,4.848,4.177-7.723,5.258-2.127,9.8,13.507,12.051,2.016,10.361,6.2,10.571,8.269,12.729,15.475,15.08-2.219,18.354c4.541,5.767,9.574,12.04,11.179,16.283q-.567,3.78-1.466,7.547a51.655,51.655,0,0,1-6.79.57c-.158,0-.12,0-.136,0a1.5,1.5,0,0,0-.032,3c.038,0,.131,0,.277,0a50.568,50.568,0,0,0,5.862-.412,80.788,80.788,0,0,1-3.426,9.811,1.5,1.5,0,1,0,2.761,1.172,84.022,84.022,0,0,0,3.9-11.452,80.968,80.968,0,0,0,9.253-2.133c-1.3,5.113-2.509,10.22-3.582,15.264a1.5,1.5,0,0,0,1.154,1.779,1.469,1.469,0,0,0,.314.033,1.5,1.5,0,0,0,1.465-1.187c1.191-5.6,2.549-11.276,4.021-16.954a87.157,87.157,0,0,0,11.432-4.8,86.208,86.208,0,0,0,9.53-5.625,35.765,35.765,0,0,1,6.453-.922c10.083-.511,25.98-2.825,20.62-5.791s-5.348-6.489,2.614-9.03,4.076-4.743,13.9-11.643,8.89-7.894,4.034-8.961-13.2-4.74-4.832-7.417,13.91-1.706,15.129-4.9.026-5.676-.454-9.113.464-8.792,2.6-10.994S754.223,703.86,749.937,704.559Zm-37.525,39.45c1.227,4.513,2.106,8.694.646,13.423-2.006,2.462-4.991,1.61-8.022-1.487-2.044-2.088-8.038-5.71-10.335-4.355C699.5,747.535,705.708,746.823,712.412,744.009Zm-17.166,14.816c-2.337-1.077-3.438-2.778-2.73-5.029a17.011,17.011,0,0,1,1.69-1.754c-.646.892-.609,2.654.611,5.718C694.965,758.131,695.1,758.471,695.246,758.825Zm-12.174,19.283c2.842-5.669,6.486-6.166,16.348-8.116a10.364,10.364,0,0,1-1.3,8.449c-3.433,5.944-6.821-2.33-8.048-3.874s-4.482.382-3.278,6.038c.163.768.314,1.511.446,2.245C684.254,782.854,680.995,782.251,683.072,778.108Zm-6.786-9.9c2.093,7.463-4.685,4.6-10.058,1.854a51.846,51.846,0,0,1,6.837-10.5A81.853,81.853,0,0,1,676.286,768.209Zm-11.212-18.571c1.3-2.815,3.784-5.86,5.678-8.856-.054,1.212-.1,2.5-.143,3.894a40.362,40.362,0,0,0,.464,7.934C665.247,754.161,662.974,754.179,665.074,749.638Zm-3.883,56.145a94.3,94.3,0,0,0,1.66-9.909c.272-.953.52-1.883.717-2.674a25.879,25.879,0,0,1,4.492-8.453l.18.311a35.584,35.584,0,0,1,4.269,11.17q-1,3.6-1.957,7.21A80.389,80.389,0,0,1,661.191,805.783Zm12.769-3.5q.5-1.881,1.024-3.759c4.14-6.125,7.829-7.79,12.561-9.639.026-.01.046-.021.071-.031a25.722,25.722,0,0,1-2.386,8.359c-.667.362-1.328.714-1.978,1.044A83.2,83.2,0,0,1,673.96,802.284Z" stroke="none"/>
        <path d="M 714.5619506835938 692.2506103515625 C 709.240234375 692.2506103515625 696.3103637695312 699.4569091796875 695.75 701.9860229492188 C 695.0780029296875 705.0189819335938 691.0780029296875 708.7960205078125 687.906005859375 710.302978515625 C 684.7340087890625 711.8099975585938 681.9769897460938 712.1810302734375 679.9520263671875 714.9910278320312 C 677.927001953125 717.801025390625 681.8319702148438 721.9459838867188 684.2260131835938 730.5059814453125 C 686.6201171875 739.0661010742188 678.8729858398438 734.0609741210938 675.2689819335938 730.5499877929688 C 673.9278564453125 729.243896484375 672.9918823242188 729.1890258789062 672.323974609375 730.2540283203125 C 671.1429443359375 728.3789672851562 668.8589477539062 728.2869262695312 665.2969970703125 730.3920288085938 C 660.1307983398438 733.4459228515625 657.4299926757812 731.410888671875 659.447998046875 727.3060302734375 C 661.4650268554688 723.200927734375 665.9774780273438 708.2406616210938 655.5560302734375 712.573974609375 C 653.3320922851562 713.6468505859375 651.5130004882812 712.8490600585938 651.2249755859375 711.3690185546875 C 650.93701171875 709.8889770507812 650.1749877929688 704.6599731445312 644.4840087890625 704.3599853515625 C 638.7930297851562 704.0590209960938 636.4500122070312 700.9739990234375 636.4500122070312 700.9739990234375 C 636.4500122070312 700.9739990234375 632.8200073242188 708.8489990234375 634.6099853515625 712.2559814453125 C 636.4000244140625 715.6619873046875 639.0440063476562 718.9030151367188 636.14599609375 720.1500244140625 C 633.2490234375 721.39599609375 629.7440185546875 725.4920043945312 637.4910278320312 727.0570068359375 C 645.2379760742188 728.6209716796875 650.9249877929688 730.5869750976562 642.3389892578125 731.2340087890625 C 633.7540283203125 731.8809814453125 634.6160278320312 736.4920043945312 640.2119750976562 741.0349731445312 C 645.8079223632812 745.5789794921875 653.718994140625 753.086181640625 642.22802734375 751.39599609375 C 630.7368774414062 749.70654296875 648.426025390625 761.9669799804688 650.4970092773438 764.125 C 652.5679931640625 766.281982421875 665.9719848632812 779.2050170898438 648.2780151367188 782.47900390625 C 652.8189697265625 788.2459716796875 657.8519897460938 794.5189819335938 659.4569702148438 798.7620239257812 C 659.0789794921875 801.281982421875 658.5910034179688 803.7999877929688 657.9910278320312 806.3090209960938 C 654.2030029296875 806.843994140625 651.7319946289062 806.8790283203125 651.2009887695312 806.8790283203125 C 651.0409545898438 806.8790283203125 651.0802001953125 806.8772583007812 651.0650024414062 806.8779907226562 C 650.25 806.8779907226562 649.5809936523438 807.530029296875 649.5650024414062 808.3480224609375 C 649.5479736328125 809.176025390625 650.2050170898438 809.8599853515625 651.0330200195312 809.8779907226562 C 651.0709838867188 809.8779907226562 651.1640014648438 809.8800048828125 651.3099975585938 809.8800048828125 C 652.0460205078125 809.8800048828125 654.1179809570312 809.8389892578125 657.1719970703125 809.468017578125 C 656.2479858398438 812.7680053710938 655.1190185546875 816.0460205078125 653.7459716796875 819.2789916992188 C 653.4219970703125 820.0419921875 653.7780151367188 820.9219970703125 654.5399780273438 821.2459716796875 C 654.7319946289062 821.3270263671875 654.9299926757812 821.364990234375 655.125 821.364990234375 C 655.708984375 821.364990234375 656.2650146484375 821.0230102539062 656.5070190429688 820.4509887695312 C 658.1090087890625 816.6790161132812 659.3939819335938 812.8510131835938 660.4089965820312 808.9990234375 C 663.0709838867188 808.551025390625 666.198974609375 807.8779907226562 669.6619873046875 806.8660278320312 C 668.3579711914062 811.97900390625 667.1530151367188 817.0859985351562 666.0800170898438 822.1300048828125 C 665.906982421875 822.9409790039062 666.4240112304688 823.7369995117188 667.2340087890625 823.9089965820312 C 667.3389892578125 823.9320068359375 667.4450073242188 823.9420166015625 667.5479736328125 823.9420166015625 C 668.2410278320312 823.9420166015625 668.864013671875 823.4600219726562 669.0130004882812 822.7550048828125 C 670.2039794921875 817.156005859375 671.56201171875 811.47900390625 673.0339965820312 805.801025390625 C 676.6079711914062 804.593017578125 680.4580078125 803.0330200195312 684.4660034179688 801.0059814453125 C 687.4819946289062 799.4810180664062 690.6909790039062 797.6259765625 693.9959716796875 795.3809814453125 C 695.9140014648438 794.927001953125 698.0689697265625 794.5789794921875 700.448974609375 794.458984375 C 710.531982421875 793.947998046875 726.4290161132812 791.6339721679688 721.0689697265625 788.6680297851562 C 715.7100219726562 785.7020263671875 715.7210083007812 782.1790161132812 723.6829833984375 779.6380004882812 C 731.64501953125 777.0980224609375 727.7589721679688 774.89501953125 737.583984375 767.9949951171875 C 747.4089965820312 761.094970703125 746.4739990234375 760.1010131835938 741.6179809570312 759.0339965820312 C 736.760986328125 757.9669799804688 728.4199829101562 754.2940063476562 736.7860107421875 751.6170043945312 C 745.1519775390625 748.9409790039062 750.6959838867188 749.9110107421875 751.9149780273438 746.7130126953125 C 753.1339721679688 743.5150146484375 751.9409790039062 741.0369873046875 751.4609985351562 737.5999755859375 C 750.9810180664062 734.1630249023438 751.9249877929688 728.8079833984375 754.06298828125 726.6060180664062 C 756.2009887695312 724.4029541015625 754.2230224609375 703.8607177734375 749.93701171875 704.5590209960938 C 745.6519775390625 705.2570190429688 740.2630004882812 709.698974609375 735.2890014648438 710.156005859375 C 730.3150024414062 710.6129760742188 726.2529907226562 711.7760009765625 726.7369995117188 719.6409912109375 C 727.2219848632812 727.5071411132812 718.8309936523438 724.0189208984375 716.3820190429688 723.458984375 C 715.8720092773438 723.3419799804688 715.2490234375 723.1950073242188 714.5919799804688 723.1259765625 C 715.041015625 722.468017578125 715.7650146484375 721.822021484375 716.8419799804688 721.2039794921875 C 723.7589721679688 717.2360229492188 722.4819946289062 713.156005859375 720.0999755859375 708.697998046875 C 717.718017578125 704.239990234375 718.4739990234375 697.2139892578125 716.6790161132812 693.2030029296875 C 716.3807983398438 692.5368041992188 715.6222534179688 692.2506103515625 714.5619506835938 692.2506103515625 M 666.1028442382812 753.5487670898438 C 664.1629028320312 753.5487670898438 663.7518920898438 752.4969482421875 665.073974609375 749.6380004882812 C 666.3759765625 746.822998046875 668.8579711914062 743.7780151367188 670.7520141601562 740.781982421875 C 670.697998046875 741.9940185546875 670.6510009765625 743.2860107421875 670.6090087890625 744.676025390625 C 670.5139770507812 747.8489990234375 670.7050170898438 750.406005859375 671.072998046875 752.6099853515625 C 668.9149169921875 753.1845092773438 667.2442016601562 753.5487670898438 666.1028442382812 753.5487670898438 M 710.2655029296875 758.8641967773438 C 708.675537109375 758.8641967773438 706.8641357421875 757.8129272460938 705.0360107421875 755.9450073242188 C 702.991943359375 753.8569946289062 696.9977416992188 750.23486328125 694.7009887695312 751.5900268554688 C 699.5040283203125 747.5349731445312 705.7080078125 746.822998046875 712.4119873046875 744.0089721679688 C 713.6389770507812 748.52197265625 714.5180053710938 752.7030029296875 713.0579833984375 757.4320068359375 C 712.2619018554688 758.4090576171875 711.3115844726562 758.8641967773438 710.2655029296875 758.8641967773438 M 695.2459716796875 758.8250122070312 C 692.9089965820312 757.7479858398438 691.8079833984375 756.0469970703125 692.5159912109375 753.7960205078125 C 693.0540161132812 753.1430053710938 693.6229858398438 752.573974609375 694.2059936523438 752.0419921875 C 693.5599975585938 752.9340209960938 693.5969848632812 754.6959838867188 694.8170166015625 757.760009765625 C 694.9650268554688 758.1309814453125 695.10302734375 758.4710083007812 695.2459716796875 758.8250122070312 M 674.3546142578125 772.9735717773438 C 672.24609375 772.9735717773438 669.0443725585938 771.5023803710938 666.22802734375 770.06298828125 C 667.9630126953125 766.2329711914062 670.8189697265625 762.3289794921875 673.0650024414062 759.5670166015625 C 674.125 762.2630004882812 675.3330078125 764.8099975585938 676.2860107421875 768.208984375 C 677.2819213867188 771.7601318359375 676.2686157226562 772.9735717773438 674.3546142578125 772.9735717773438 M 695.5111083984375 780.5621948242188 C 693.0857543945312 780.5621948242188 690.986328125 775.7125854492188 690.0759887695312 774.5670166015625 C 688.8488159179688 773.0233764648438 685.5940551757812 774.9491577148438 686.7979736328125 780.60498046875 C 686.9609985351562 781.3729858398438 687.1119995117188 782.1160278320312 687.2440185546875 782.8499755859375 C 687.2343139648438 782.8499755859375 687.2241821289062 782.8499755859375 687.2145385742188 782.8499755859375 C 684.2325439453125 782.8499755859375 681.001708984375 782.2376098632812 683.072021484375 778.1079711914062 C 685.9140014648438 772.4390258789062 689.5579833984375 771.9420166015625 699.4199829101562 769.9920043945312 C 700.1530151367188 773.0670166015625 699.8690185546875 775.4199829101562 698.1240234375 778.4409790039062 C 697.2380981445312 779.974853515625 696.3546752929688 780.5621948242188 695.5111083984375 780.5621948242188 M 661.1909790039062 805.7830200195312 C 661.9290161132812 802.4860229492188 662.4739990234375 799.177001953125 662.8510131835938 795.8740234375 C 663.1229858398438 794.9210205078125 663.3709716796875 793.9910278320312 663.5679931640625 793.2000122070312 C 664.135009765625 790.926025390625 665.8419799804688 787.6170043945312 668.0599975585938 784.7470092773438 C 668.1199951171875 784.8510131835938 668.1799926757812 784.9550170898438 668.239990234375 785.0579833984375 C 670.7169799804688 789.2670288085938 671.9199829101562 793.22802734375 672.5089721679688 796.22802734375 C 671.8389892578125 798.6259765625 671.1859741210938 801.031005859375 670.552001953125 803.43798828125 C 667.0850219726562 804.5280151367188 663.9180297851562 805.2750244140625 661.1909790039062 805.7830200195312 M 673.9600219726562 802.2839965820312 C 674.2960205078125 801.030029296875 674.6380004882812 799.7769775390625 674.9840087890625 798.5250244140625 C 679.1240234375 792.4000244140625 682.81298828125 790.7349853515625 687.5449829101562 788.885986328125 C 687.5709838867188 788.8759765625 687.5910034179688 788.864990234375 687.6160278320312 788.85498046875 C 687.4119873046875 791.2369995117188 686.7139892578125 793.9000244140625 685.22998046875 797.2139892578125 C 684.56298828125 797.5759887695312 683.9019775390625 797.927978515625 683.2520141601562 798.2579956054688 C 680.0380249023438 799.8900146484375 676.9169921875 801.2109985351562 673.9600219726562 802.2839965820312 M 714.5619506835938 688.2506103515625 C 715.6525268554688 688.2506103515625 716.63720703125 688.4365234375 717.4886474609375 688.8032836914062 C 718.7880859375 689.3629760742188 719.7705688476562 690.3192749023438 720.3298950195312 691.5686645507812 C 721.4029541015625 693.9664306640625 721.7366333007812 696.8351440429688 722.0593872070312 699.6094360351562 C 722.3713989257812 702.2915649414062 722.6940307617188 705.0650024414062 723.6279296875 706.81298828125 C 724.2171020507812 707.9156494140625 724.7789916992188 709.060302734375 725.2078247070312 710.2520751953125 C 725.5638427734375 709.8226928710938 725.9568481445312 709.4262084960938 726.3860473632812 709.0639038085938 C 728.847412109375 706.9861450195312 731.9437255859375 706.4464721679688 734.9230346679688 706.1727905273438 C 736.8645629882812 705.994384765625 739.3251953125 704.7554931640625 741.704833984375 703.5573120117188 C 744.1731567382812 702.3145751953125 746.7255249023438 701.0294189453125 749.2939453125 700.611083984375 C 749.5764770507812 700.5650024414062 749.8646850585938 700.5415649414062 750.1499633789062 700.5415649414062 C 751.2833251953125 700.5416870117188 752.9522705078125 700.9005737304688 754.468994140625 702.6097412109375 C 755.1638793945312 703.392822265625 755.761474609375 704.3876953125 756.2958374023438 705.6511840820312 C 757.5318603515625 708.5734252929688 758.4711303710938 713.2145385742188 758.808349609375 718.0660400390625 C 758.962158203125 720.279052734375 758.9710083007812 722.3220825195312 758.8339233398438 723.974365234375 C 758.6168823242188 726.59033203125 758.03076171875 728.2611083984375 756.9334716796875 729.3917846679688 C 756.6591796875 729.6742553710938 756.0894165039062 730.6432495117188 755.6893920898438 732.4877319335938 C 755.350341796875 734.05078125 755.2481079101562 735.7976684570312 755.4225463867188 737.0467529296875 C 755.5299682617188 737.8158569335938 755.6832275390625 738.54736328125 755.8455200195312 739.32177734375 C 756.3721923828125 741.8351440429688 756.9691772460938 744.683837890625 755.6526489257812 748.1376953125 C 754.8908081054688 750.1364135742188 753.3397216796875 751.5845947265625 751.0426025390625 752.4419555664062 C 749.5621948242188 752.9945068359375 747.866455078125 753.2860107421875 745.9028930664062 753.6235961914062 C 744.3319702148438 753.8936767578125 742.6173706054688 754.1884765625 740.7244873046875 754.6574096679688 C 741.3154907226562 754.8426513671875 741.9117431640625 755.003173828125 742.4762573242188 755.127197265625 C 743.5617065429688 755.3656616210938 744.702880859375 755.6469116210938 745.6958618164062 756.0860595703125 C 748.0511474609375 757.1278076171875 748.8319091796875 758.7740478515625 749.0722045898438 759.9716796875 C 749.251953125 760.8675537109375 749.2659912109375 762.2715454101562 748.3121948242188 763.87255859375 C 747.8670043945312 764.619873046875 747.252685546875 765.3587646484375 746.3788452148438 766.1978759765625 C 745.0343627929688 767.489013671875 742.97021484375 769.1001586914062 739.8828735351562 771.2683715820312 C 735.8090209960938 774.1294555664062 734.53125 775.908935546875 733.4039306640625 777.47900390625 C 732.6255493164062 778.5630493164062 731.8206176757812 779.68408203125 730.4449462890625 780.7559204101562 C 729.0567626953125 781.8374633789062 727.34619140625 782.66796875 724.898681640625 783.4487915039062 C 723.546142578125 783.8804321289062 722.6535034179688 784.2818603515625 722.0765380859375 784.5977172851562 C 722.3197631835938 784.765869140625 722.6249389648438 784.9573974609375 723.0059204101562 785.1682739257812 C 723.9105224609375 785.6688232421875 724.6021728515625 786.2395629882812 725.1202392578125 786.9129638671875 C 726.0138549804688 788.074462890625 726.3433837890625 789.531494140625 726.0242919921875 790.9104614257812 C 725.813720703125 791.8203735351562 725.2169799804688 793.1295166015625 723.5697021484375 794.1990966796875 C 722.8953857421875 794.6369018554688 722.0686645507812 795.0258178710938 721.0421142578125 795.3881225585938 C 719.5196533203125 795.9254760742188 717.4815063476562 796.4253540039062 714.9843139648438 796.8738403320312 C 710.8384399414062 797.6184692382812 705.4803466796875 798.2091674804688 700.6514282226562 798.453857421875 C 698.968505859375 798.5386962890625 697.2752075195312 798.7618408203125 695.6073608398438 799.1181030273438 C 692.5801391601562 801.1378173828125 689.4428100585938 802.9718627929688 686.2709350585938 804.5756225585938 C 683.0700073242188 806.1945190429688 679.7506713867188 807.6333618164062 676.376953125 808.8654174804688 C 675.0756225585938 813.98486328125 673.9169921875 818.9260864257812 672.9265747070312 823.5819702148438 L 672.9265747070312 823.5819702148438 C 672.6640625 824.8242797851562 671.9734497070312 825.9448852539062 670.9819946289062 826.7374267578125 C 670.0101318359375 827.5142211914062 668.7905883789062 827.9420166015625 667.5479736328125 827.9420166015625 C 667.1546630859375 827.9420166015625 666.763427734375 827.9002075195312 666.385009765625 827.81787109375 C 664.955078125 827.5093383789062 663.7297973632812 826.664306640625 662.93310546875 825.436767578125 C 662.1329956054688 824.2039184570312 661.8612670898438 822.733154296875 662.1680908203125 821.2952880859375 C 662.7847290039062 818.3965454101562 663.4601440429688 815.4067993164062 664.1871948242188 812.3565063476562 C 663.9885864257812 812.3978881835938 663.7901000976562 812.4385375976562 663.5917358398438 812.4783935546875 C 662.6283569335938 815.7581787109375 661.4883422851562 818.9541015625 660.19091796875 822.009521484375 L 660.19091796875 822.009521484375 C 659.3285522460938 824.0478515625 657.3400268554688 825.364990234375 655.125 825.364990234375 C 654.3865966796875 825.364990234375 653.6663818359375 825.218994140625 652.9843139648438 824.9310302734375 C 652.9811401367188 824.9296875 652.9779663085938 824.9284057617188 652.9747924804688 824.927001953125 C 650.1851196289062 823.7408447265625 648.87939453125 820.505859375 650.0641479492188 817.7156372070312 C 650.5945434570312 816.466796875 651.0963134765625 815.1857299804688 651.5672607421875 813.8787231445312 C 651.3148193359375 813.881103515625 651.1404418945312 813.87939453125 651.0419921875 813.8782348632812 L 651.0186767578125 813.8779296875 C 650.9944458007812 813.8778686523438 650.9702758789062 813.8775634765625 650.9461059570312 813.8770751953125 C 647.9171752929688 813.8112182617188 645.5036010742188 811.2940063476562 645.5658569335938 808.2658081054688 C 645.5941162109375 806.8193359375 646.180908203125 805.4617309570312 647.218017578125 804.4470825195312 C 648.2350463867188 803.4520263671875 649.5731811523438 802.8966064453125 650.9929809570312 802.87841796875 C 651.051025390625 802.8773193359375 651.1095581054688 802.87744140625 651.168701171875 802.8789672851562 L 651.2009887695312 802.8790283203125 C 651.3834838867188 802.8790283203125 652.643310546875 802.8712768554688 654.7012939453125 802.673583984375 C 654.9329833984375 801.544189453125 655.1422119140625 800.4091796875 655.32763671875 799.2755737304688 C 653.65673828125 795.7650756835938 649.5020141601562 790.4939575195312 645.8003540039062 785.7975463867188 C 645.5778198242188 785.5152587890625 645.3560180664062 785.2338256835938 645.1353149414062 784.95361328125 C 644.2686767578125 783.8529663085938 644.041015625 782.3792114257812 644.5349731445312 781.068359375 C 645.0289916992188 779.757568359375 646.1727905273438 778.8006591796875 647.5502319335938 778.5457763671875 C 651.3751831054688 777.8380126953125 653.0127563476562 776.7044677734375 653.2528686523438 775.9487915039062 C 653.4439697265625 775.3472900390625 653.1690673828125 773.966552734375 651.8243408203125 771.8953247070312 C 650.5093994140625 769.8698120117188 648.7531127929688 768.06787109375 647.9091186523438 767.201904296875 C 647.796142578125 767.0859375 647.6973266601562 766.9844970703125 647.614990234375 766.8987426757812 C 647.3237915039062 766.60595703125 646.1190185546875 765.639404296875 645.1506958007812 764.8626098632812 C 643.1348266601562 763.245361328125 640.6260375976562 761.232666015625 638.591552734375 759.2861938476562 C 637.3496704101562 758.0980224609375 636.4304809570312 757.0717163085938 635.7814331054688 756.1486206054688 C 634.4263916015625 754.2214965820312 634.0458984375 752.3723754882812 634.6504516601562 750.6526489257812 C 635.1207885742188 749.3147583007812 636.143310546875 748.2726440429688 637.5296630859375 747.71826171875 C 638.3397216796875 747.394287109375 639.2677001953125 747.23681640625 640.3665771484375 747.23681640625 C 640.6617431640625 747.23681640625 640.9701538085938 747.2478637695312 641.2947998046875 747.270263671875 C 640.3944091796875 746.4178466796875 639.2199096679688 745.382080078125 637.6904907226562 744.14013671875 C 635.77197265625 742.5825805664062 634.3123779296875 741.000732421875 633.3527221679688 739.4387817382812 C 631.6326293945312 736.6392822265625 631.8018798828125 734.3575439453125 632.2467041015625 732.9364013671875 C 632.4979858398438 732.133544921875 632.9840087890625 731.1357421875 633.9224243164062 730.2013549804688 C 633.0617065429688 729.8756713867188 632.3150634765625 729.4921264648438 631.670166015625 729.0459594726562 C 630.0177001953125 727.90283203125 629.0050659179688 726.28466796875 628.8187255859375 724.4895629882812 C 628.623779296875 722.6112670898438 629.3509521484375 720.6834106445312 630.8663940429688 719.0612182617188 C 631.4512329101562 718.4351196289062 632.1423950195312 717.861572265625 632.8919677734375 717.3740844726562 C 632.6475219726562 716.9194946289062 632.3670043945312 716.431640625 632.1407470703125 716.0382080078125 C 631.7875366210938 715.4239501953125 631.4223022460938 714.7887573242188 631.0692138671875 714.1168212890625 C 629.8147583007812 711.729248046875 629.7963256835938 708.4983520507812 631.0125122070312 704.2391357421875 C 631.7720947265625 701.5787353515625 632.7750244140625 699.391357421875 632.8173828125 699.2994995117188 C 633.4053955078125 698.02392578125 634.6193237304688 697.1502075195312 636.015625 696.9976806640625 C 637.3746337890625 696.8484497070312 638.7131958007812 697.4054565429688 639.5670166015625 698.4671020507812 C 639.7158813476562 698.6306762695312 641.2164916992188 700.1815795898438 644.6952514648438 700.3655395507812 C 646.6275024414062 700.4674072265625 648.3685302734375 700.980224609375 649.8693237304688 701.8898315429688 C 651.1650390625 702.6751098632812 652.2586059570312 703.7418823242188 653.1195068359375 705.0606079101562 C 653.9279174804688 706.2988891601562 654.406005859375 707.5630493164062 654.7036743164062 708.6116333007812 C 656.1859130859375 708.0625 657.527099609375 707.7945556640625 658.7852783203125 707.7945556640625 C 660.0682373046875 707.7945556640625 661.244873046875 708.0778198242188 662.2826538085938 708.6363525390625 C 663.325439453125 709.1976318359375 664.1815795898438 710.0078735351562 664.8273315429688 711.0447387695312 C 666.2942504882812 713.39990234375 666.5591430664062 716.7171020507812 665.6371459960938 721.1858520507812 C 665.2378540039062 723.1212768554688 664.67919921875 724.9562377929688 664.1294555664062 726.4605102539062 C 666.185546875 725.3648071289062 668.0228881835938 724.8304443359375 669.7235107421875 724.8304443359375 C 670.8601684570312 724.8304443359375 671.9193725585938 725.0685424804688 672.8773803710938 725.5386962890625 C 673.0619506835938 725.518310546875 673.2487182617188 725.5079956054688 673.4375610351562 725.5079956054688 C 675.0440063476562 725.5079956054688 676.555908203125 726.2199096679688 678.0596923828125 727.684326171875 C 678.5172729492188 728.130126953125 679.0322875976562 728.5834350585938 679.5653686523438 729.0123291015625 C 678.89208984375 727.0829467773438 678.1649780273438 725.4193115234375 677.5004272460938 723.8987426757812 C 676.6939697265625 722.0535278320312 675.9974975585938 720.4599609375 675.6417236328125 718.9055786132812 C 675.0912475585938 716.5009155273438 675.4496459960938 714.3970336914062 676.7069091796875 712.6524047851562 C 678.8855590820312 709.6290893554688 681.6181640625 708.5509643554688 684.0291137695312 707.5996704101562 C 684.7744140625 707.3056030273438 685.4783935546875 707.02783203125 686.1895141601562 706.6900024414062 C 687.3470458984375 706.1400756835938 688.7717895507812 705.0779418945312 689.9076538085938 703.9180297851562 C 691.2515258789062 702.5458374023438 691.757568359375 701.5140380859375 691.8447265625 701.1207275390625 C 692.2119140625 699.4632568359375 693.3877563476562 697.9912109375 695.7764282226562 696.1986083984375 C 697.3146362304688 695.0442504882812 699.289306640625 693.8140258789062 701.4869995117188 692.6410522460938 C 703.9603271484375 691.3209838867188 710.1854248046875 688.2506103515625 714.5619506835938 688.2506103515625 Z M 709.635986328125 754.5806274414062 C 709.8302001953125 753.4370727539062 709.8682861328125 752.2631225585938 709.7575073242188 750.9847412109375 C 709.7107543945312 750.4446411132812 709.63916015625 749.9002685546875 709.5457153320312 749.3431396484375 C 708.6964721679688 749.6287841796875 707.8612060546875 749.8975219726562 707.0364379882812 750.1629028320312 C 706.3494262695312 750.3839111328125 705.6788330078125 750.5996704101562 705.0265502929688 750.817138671875 C 706.2446899414062 751.6531982421875 707.2526245117188 752.4912719726562 707.8944091796875 753.1468505859375 C 708.6489868164062 753.9178466796875 709.2334594726562 754.3450317382812 709.635986328125 754.5806274414062 Z M 672.170654296875 768.3926391601562 C 672.1129760742188 768.2056274414062 672.054443359375 768.0213012695312 671.9951171875 767.8392333984375 C 671.9133911132812 767.9688110351562 671.8320922851562 768.0991821289062 671.751708984375 768.229736328125 C 671.8347778320312 768.2630004882812 671.9175415039062 768.2955932617188 671.999755859375 768.327392578125 C 672.0579833984375 768.3499145507812 672.1149291992188 768.3716430664062 672.170654296875 768.3926391601562 Z M 695.2435913085938 775.3143920898438 C 695.3109130859375 775.1637573242188 695.371826171875 775.01611328125 695.4264526367188 774.8705444335938 C 695.2881469726562 774.8997802734375 695.1515502929688 774.928955078125 695.0169067382812 774.9580078125 C 695.091552734375 775.0777587890625 695.1671752929688 775.1968994140625 695.2435913085938 775.3143920898438 Z M 668.3930053710938 796.0983276367188 C 668.1903076171875 795.2085571289062 667.9476318359375 794.3271484375 667.665771484375 793.4561767578125 C 667.5743408203125 793.7175903320312 667.501953125 793.9561767578125 667.4491577148438 794.1677856445312 C 667.2554931640625 794.9452514648438 667.0282592773438 795.7990112304688 666.787353515625 796.6546020507812 C 666.6349487304688 797.9526977539062 666.4578247070312 799.2451171875 666.2569580078125 800.5263061523438 C 666.5917358398438 800.4359741210938 666.9264526367188 800.3432006835938 667.2610473632812 800.248046875 C 667.6311645507812 798.8682250976562 668.0096435546875 797.4808349609375 668.3930053710938 796.0983276367188 Z" stroke="none" fill="#000"/>
      </g>
    </g>
  </g>
</svg>
