<svg xmlns="http://www.w3.org/2000/svg" width="196" height="196" viewBox="0 0 196 196">
  <g id="Group_1988" data-name="Group 1988" transform="translate(-2986 -166)">
    <g id="Group_1966" data-name="Group 1966">
      <g id="Group_1948" data-name="Group 1948">
        <g id="Group_1932" data-name="Group 1932" transform="translate(2689 97)">
          <rect id="Rectangle_1254" data-name="Rectangle 1254" width="196" height="196" rx="5" transform="translate(297 69)" fill="#fff"/>
        </g>
      </g>
    </g>
    <g id="Group_1871" data-name="Group 1871" transform="translate(2175.899 -730.6) rotate(9)">
      <g id="Group_1054" data-name="Group 1054" transform="translate(995.761 790.209)">
        <path id="Path_2757" data-name="Path 2757" d="M1056.522,825.688l7.042-2.561a5.089,5.089,0,0,0,2.985-6.676l-7.123-17.781-18.233-4.964,9.587,29.192A4.445,4.445,0,0,0,1056.522,825.688Z" transform="translate(-995.438 -708.748)" fill="#fbfbfb"/>
        <path id="Path_2758" data-name="Path 2758" d="M1050.04,769.036l-1.114-49.855a1.8,1.8,0,0,0-2.03-1.75l-8.479,1.072a2.792,2.792,0,0,0-2.42,2.418l-4.526,35.483Z" transform="translate(-995.991 -713.087)" fill="#62a537"/>
        <path id="Path_2759" data-name="Path 2759" d="M1005.645,714.942l2.58-1.35a2.383,2.383,0,0,1,2.884.523l23.911,26.749-2.011,15.772-14.229-7.086-14.152-31.679A2.263,2.263,0,0,1,1005.645,714.942Z" transform="translate(-997.529 -713.32)" fill="#4d9e1d"/>
        <path id="Path_2760" data-name="Path 2760" d="M1022.954,728.724l2.986-13.06a2.253,2.253,0,0,1,2.434-1.737l3.489.371a1.783,1.783,0,0,1,1.592,1.67l1.206,20.662-.693,4.2Z" transform="translate(-996.476 -713.286)" fill="#157b23"/>
        <path id="Path_2761" data-name="Path 2761" d="M1061.888,801.722l-18.233-4.964-8.076-19.769a31.29,31.29,0,0,0-11.877-14.38l-24.937-16.261a1.9,1.9,0,0,1-.444-2.786l1.977-2.46a2.8,2.8,0,0,1,3.432-.752l43.366,21.6a9.444,9.444,0,0,1,4.854,5.8Z" transform="translate(-997.901 -711.799)" fill="#82cc58"/>
      </g>
      <g id="Path_2894" data-name="Path 2894" transform="translate(-1.895 76.431)" fill="none" stroke-linecap="round" stroke-linejoin="round">
        <path d="M1068.767,821.482l-7.123-17.781-9.939-33.974-1.114-49.855a1.8,1.8,0,0,0-2.029-1.749l-8.48,1.071a2.793,2.793,0,0,0-2.419,2.418l-1.871,14.664-1.157-19.816a1.784,1.784,0,0,0-1.592-1.67l-3.489-.371a2.251,2.251,0,0,0-2.433,1.738l-2.948,12.891-12.936-14.473a2.385,2.385,0,0,0-2.884-.523l-2.58,1.35a2.265,2.265,0,0,0-1.018,2.93l14.152,31.678-15.422-7.68a2.8,2.8,0,0,0-3.431.752l-1.979,2.46a1.9,1.9,0,0,0,.444,2.787l24.937,16.26a31.3,31.3,0,0,1,11.877,14.38l8.076,19.769L1053,827.928a4.446,4.446,0,0,0,5.743,2.791l7.042-2.562A5.09,5.09,0,0,0,1068.767,821.482Z" stroke="none"/>
        <path d="M 1057.2216796875 830.9884643554688 C 1057.725708007812 830.9884643554688 1058.238525390625 830.902099609375 1058.740600585938 830.7196655273438 L 1065.782470703125 828.1577758789062 C 1068.48388671875 827.1749267578125 1069.835693359375 824.151123046875 1068.76708984375 821.4824829101562 L 1061.643798828125 803.7015991210938 L 1051.704956054688 769.7271118164062 L 1050.590942382812 719.8720092773438 C 1050.567626953125 718.802490234375 1049.62353515625 717.989013671875 1048.561767578125 718.1228637695312 L 1040.081298828125 719.1934814453125 C 1038.818359375 719.3541870117188 1037.822875976562 720.34765625 1037.662231445312 721.6116333007812 L 1035.79150390625 736.2758178710938 L 1034.63427734375 716.4593505859375 C 1034.583374023438 715.5885009765625 1033.910278320312 714.8825073242188 1033.04248046875 714.7894897460938 L 1029.553833007812 714.41845703125 C 1028.418334960938 714.2982788085938 1027.37451171875 715.0442504882812 1027.120849609375 716.1560668945312 L 1024.173217773438 729.0467529296875 L 1011.236938476562 714.5738525390625 C 1010.5087890625 713.7600708007812 1009.319885253906 713.5433959960938 1008.352783203125 714.0507202148438 L 1005.77294921875 715.4003295898438 C 1004.712890625 715.9552612304688 1004.267944335938 717.23828125 1004.755126953125 718.330078125 L 1018.90673828125 750.0078735351562 L 1003.48486328125 742.3275756835938 C 1002.306457519531 741.7410278320312 1000.878601074219 742.0548706054688 1000.05419921875 743.0800170898438 L 998.07568359375 745.5404663085938 C 997.3707275390625 746.4176635742188 997.5767822265625 747.7123413085938 998.5196533203125 748.3274536132812 L 1023.456665039062 764.5875854492188 C 1028.785400390625 768.0625610351562 1032.928466796875 773.0785522460938 1035.333862304688 778.9674072265625 L 1043.409545898438 798.7363891601562 L 1052.99755859375 827.9284057617188 C 1053.614013671875 829.8060913085938 1055.357055664062 830.9883422851562 1057.2216796875 830.9884643554688 M 1057.221923828125 834.9884643554688 C 1057.221801757812 834.9884643554688 1057.221435546875 834.9884643554688 1057.221313476562 834.9884643554688 C 1053.563110351562 834.9882202148438 1050.33837890625 832.6524047851562 1049.197143554688 829.176025390625 L 1039.653198242188 800.1184692382812 L 1031.630859375 780.4801025390625 C 1030.586791992188 777.9238891601562 1029.165893554688 775.5484619140625 1027.407470703125 773.4196166992188 C 1025.649047851562 771.2907104492188 1023.584716796875 769.4464721679688 1021.271728515625 767.9381103515625 L 996.3348999023438 751.6781005859375 C 994.9404907226562 750.7684326171875 993.9911499023438 749.304443359375 993.7294921875 747.6611328125 C 993.4678344726562 746.0178833007812 993.91552734375 744.3316040039062 994.957763671875 743.0347290039062 L 996.93701171875 740.5733642578125 C 998.2346801757812 738.9596557617188 1000.1669921875 738.0340576171875 1002.238525390625 738.0340576171875 C 1003.283386230469 738.0340576171875 1004.330688476562 738.2804565429688 1005.267211914062 738.7466430664062 L 1010.704650878906 741.4545288085938 L 1001.10302734375 719.9616088867188 C 999.757568359375 716.9464721679688 1000.994262695312 713.386962890625 1003.917785644531 711.8565673828125 L 1006.498596191406 710.5064086914062 C 1007.405212402344 710.0308837890625 1008.4296875 709.7783813476562 1009.457336425781 709.7783813476562 C 1011.272521972656 709.7783813476562 1013.007629394531 710.5540771484375 1014.217834472656 711.9066162109375 L 1021.998718261719 720.6117553710938 L 1023.221496582031 715.264404296875 C 1023.536193847656 713.8849487304688 1024.321166992188 712.639404296875 1025.43115234375 711.7592163085938 C 1026.531982421875 710.8864135742188 1027.910888671875 710.40576171875 1029.314086914062 710.40576171875 C 1029.534301757812 710.40576171875 1029.757080078125 710.4175415039062 1029.976440429688 710.4408569335938 L 1033.465454101562 710.8118896484375 C 1034.828369140625 710.9580078125 1036.0966796875 711.5831909179688 1037.039916992188 712.5726928710938 C 1037.801391601562 713.3714599609375 1038.315551757812 714.370361328125 1038.527709960938 715.4435424804688 C 1038.866821289062 715.3446655273438 1039.217163085938 715.2711791992188 1039.576416015625 715.2254638671875 L 1048.060791015625 714.1543579101562 C 1048.30224609375 714.1238403320312 1048.548095703125 714.1083984375 1048.791015625 714.1083984375 C 1050.305908203125 714.1083984375 1051.740112304688 714.6903076171875 1052.82958984375 715.7470703125 C 1053.931274414062 716.8157958984375 1054.556518554688 718.2498168945312 1054.589965820312 719.7848510742188 L 1055.692138671875 769.1103515625 L 1065.4287109375 802.3931274414062 L 1072.480224609375 819.9949340820312 C 1073.403442382812 822.3007202148438 1073.353637695312 824.818603515625 1072.339965820312 827.0853881835938 C 1071.326416015625 829.35205078125 1069.483276367188 831.06787109375 1067.150024414062 831.916748046875 L 1060.108154296875 834.4786376953125 C 1059.176513671875 834.817138671875 1058.2060546875 834.9884643554688 1057.221923828125 834.9884643554688 Z" stroke="none" fill="#000"/>
      </g>
      <g id="Group_1055" data-name="Group 1055" transform="translate(1057.082 766.142)">
        <path id="Path_2763" data-name="Path 2763" d="M1089.874,702.776l6.211-11.091a2.216,2.216,0,0,1,1.925-1.134l.808,0a1.509,1.509,0,0,1,1.486,1.808l-5.234,25.925-7.771,4.275Z" transform="translate(-1054.137 -690.548)" fill="#569e2b"/>
        <path id="Path_2764" data-name="Path 2764" d="M1058.093,800.268l4.5,2.066a3.338,3.338,0,0,0,4.448-1.69l13.775-31.329-10.575-14.555-14.113,40.908A3.727,3.727,0,0,0,1058.093,800.268Z" transform="translate(-1055.922 -686.896)" fill="#fbfbfb"/>
        <path id="Path_2765" data-name="Path 2765" d="M1076.109,738.492l-6.641,19.023,10.575,14.555,9.051-23.381a14.678,14.678,0,0,0,.14-10.22L1078.1,707.193a1.313,1.313,0,0,0-1.64-.81l-3.506,1.13a2.277,2.277,0,0,0-1.548,2.54Z" transform="translate(-1055.151 -689.651)" fill="#9dd77f"/>
        <path id="Path_2766" data-name="Path 2766" d="M1084.115,726.466,1095.7,706.8a2.257,2.257,0,0,1,2.292-1.086l5.882.912a1.784,1.784,0,0,1,1.366,2.466l-17.056,39.845Z" transform="translate(-1054.318 -689.687)" fill="#82cc58"/>
        <path id="Path_2767" data-name="Path 2767" d="M1081.47,719.317l3.352-24.514a1.714,1.714,0,0,1,1.843-1.475l1.955.167a1.415,1.415,0,0,1,1.294,1.357l.8,21.367-6.448,10.95Z" transform="translate(-1054.469 -690.39)" fill="#62a537"/>
      </g>
      <g id="Path_2895" data-name="Path 2895" transform="translate(1.161 75.815)" fill="none" stroke-linecap="round" stroke-linejoin="round">
        <path d="M1105.474,707.261l-5.882-.912a2.307,2.307,0,0,0-.373,0l2.869-14.213a1.509,1.509,0,0,0-1.486-1.808l-.808,0a2.216,2.216,0,0,0-1.925,1.134l-6.211,11.091h0l-.291-7.767a1.415,1.415,0,0,0-1.294-1.357l-1.955-.167a1.714,1.714,0,0,0-1.843,1.475l-3.351,24.513-4.053-11.384a1.313,1.313,0,0,0-1.64-.81l-3.506,1.13a2.277,2.277,0,0,0-1.548,2.54l4.7,28.44-6.641,19.023L1056.126,799.1a3.727,3.727,0,0,0,1.967,4.6l4.5,2.065a3.337,3.337,0,0,0,4.448-1.689l13.775-31.329,8.971-23.174h0l17.056-39.845A1.784,1.784,0,0,0,1105.474,707.261Z" stroke="none"/>
        <path d="M 1100.609497070312 690.3270263671875 C 1100.607177734375 690.3270263671875 1100.60498046875 690.3270263671875 1100.602661132812 690.3270263671875 L 1099.794189453125 690.3302001953125 C 1098.9951171875 690.3333740234375 1098.2607421875 690.7666625976562 1097.86962890625 691.4642333984375 L 1091.658325195312 702.5551147460938 L 1091.36767578125 694.7880859375 C 1091.34130859375 694.0736694335938 1090.786376953125 693.492431640625 1090.073974609375 693.4310302734375 L 1088.118774414062 693.2640991210938 C 1087.210693359375 693.1871337890625 1086.399291992188 693.834716796875 1086.275634765625 694.739501953125 L 1082.924194335938 719.2527465820312 L 1078.87109375 707.8690795898438 C 1078.633422851562 707.2000122070312 1077.907104492188 706.8417358398438 1077.230834960938 707.0595092773438 L 1073.72509765625 708.1893920898438 C 1072.6513671875 708.534912109375 1071.993041992188 709.6151123046875 1072.176879882812 710.72900390625 L 1076.8798828125 739.1685791015625 L 1070.238525390625 758.19140625 L 1056.1259765625 799.0989379882812 C 1055.50146484375 800.909423828125 1056.352172851562 802.8994750976562 1058.0927734375 803.6995849609375 L 1062.58984375 805.7647094726562 C 1064.284057617188 806.5436401367188 1066.287841796875 805.7825927734375 1067.038208007812 804.0758056640625 L 1080.813598632812 772.7467041015625 L 1089.784545898438 749.572509765625 L 1106.84033203125 709.7271118164062 C 1107.299072265625 708.6554565429688 1106.624755859375 707.4400024414062 1105.473876953125 707.2613525390625 L 1099.59228515625 706.3493041992188 C 1099.466674804688 706.3303833007812 1099.343872070312 706.34716796875 1099.21923828125 706.3482666015625 L 1102.088623046875 692.1353759765625 C 1102.278442382812 691.2001953125 1101.562622070312 690.3270263671875 1100.609497070312 690.3270263671875 M 1100.609619140625 686.3270263671875 C 1102.269775390625 686.3270263671875 1103.824584960938 687.0642700195312 1104.875366210938 688.3497924804688 C 1105.92578125 689.6348266601562 1106.3388671875 691.3046875 1106.008666992188 692.9310913085938 L 1103.979614257812 702.9818115234375 L 1106.086791992188 703.30859375 C 1107.865966796875 703.5847778320312 1109.386596679688 704.6458740234375 1110.259155273438 706.2200317382812 C 1111.1318359375 707.7942504882812 1111.225952148438 709.6463012695312 1110.517578125 711.3012084960938 L 1093.489501953125 751.08203125 L 1084.543823242188 774.1907348632812 C 1084.522216796875 774.24658203125 1084.499389648438 774.3019409179688 1084.475219726562 774.3567504882812 L 1070.699829101562 805.6858520507812 C 1069.528930664062 808.3494262695312 1066.891723632812 810.0706176757812 1063.9814453125 810.0706176757812 C 1062.918579101562 810.0706176757812 1061.88818359375 809.8446044921875 1060.918823242188 809.39892578125 L 1056.423583984375 807.3346557617188 C 1054.6767578125 806.5316772460938 1053.299560546875 805.116943359375 1052.54443359375 803.3505249023438 C 1051.789184570312 801.583740234375 1051.718139648438 799.610595703125 1052.344604492188 797.7946166992188 L 1066.457153320312 756.8869018554688 C 1066.458862304688 756.8822631835938 1066.46044921875 756.8775634765625 1066.462036132812 756.8729248046875 L 1072.766967773438 738.81396484375 L 1068.23046875 711.3816528320312 C 1067.985473632812 709.896728515625 1068.281494140625 708.3727416992188 1069.06396484375 707.089111328125 C 1069.84716796875 705.8041381835938 1071.0673828125 704.8425903320312 1072.499755859375 704.3816528320312 L 1076.003784179688 703.2523803710938 C 1076.533325195312 703.0819702148438 1077.081298828125 702.9959106445312 1077.63427734375 702.9959106445312 C 1078.8662109375 702.9959106445312 1080.028442382812 703.4243774414062 1080.950317382812 704.1607666015625 L 1082.3125 694.1976928710938 C 1082.500366210938 692.8235473632812 1083.180419921875 691.5660400390625 1084.2275390625 690.6571044921875 C 1085.26708984375 689.7547607421875 1086.596923828125 689.2578735351562 1087.972045898438 689.2578735351562 C 1088.13330078125 689.2578735351562 1088.296630859375 689.2647705078125 1088.45751953125 689.2784423828125 L 1090.414306640625 689.4454956054688 C 1091.6513671875 689.5521240234375 1092.765502929688 690.0713500976562 1093.622436523438 690.86181640625 L 1094.379638671875 689.5097045898438 C 1095.474609375 687.5567626953125 1097.542846679688 686.339111328125 1099.7783203125 686.3302001953125 L 1100.609619140625 686.3270263671875 Z" stroke="none" fill="#000"/>
      </g>
    </g>
  </g>
</svg>
