<svg xmlns="http://www.w3.org/2000/svg" width="196" height="196" viewBox="0 0 196 196">
  <g id="Group_1989" data-name="Group 1989" transform="translate(-3202 -166)">
    <g id="Group_1967" data-name="Group 1967">
      <g id="Group_1949" data-name="Group 1949">
        <g id="Group_1933" data-name="Group 1933" transform="translate(2905 97)">
          <rect id="Rectangle_1254" data-name="Rectangle 1254" width="196" height="196" rx="5" transform="translate(297 69)" fill="#fff"/>
        </g>
      </g>
    </g>
    <g id="Group_1904" data-name="Group 1904" transform="translate(2069.627 -576.5)">
      <g id="Group_1467" data-name="Group 1467" transform="translate(-5.293 79.605)">
        <g id="Path_3895" data-name="Path 3895" fill="#f49227" stroke-linecap="round" stroke-linejoin="round">
          <path d="M 1223.439697265625 817.6426391601562 C 1223.439208984375 817.6426391601562 1223.440063476562 817.6426391601562 1223.439575195312 817.6426391601562 C 1218.99267578125 817.6426391601562 1214.655395507812 817.2099609375 1210.548217773438 816.3565063476562 C 1207.245971679688 815.6703491210938 1204.08251953125 814.7117309570312 1201.145751953125 813.50732421875 C 1196.15283203125 811.4597778320312 1193.462524414062 809.3677978515625 1193.25830078125 809.2060546875 C 1181.4306640625 799.8783569335938 1174.74169921875 788.7320556640625 1173.378051757812 776.0774536132812 C 1172.806274414062 770.7719116210938 1173.186889648438 765.2021484375 1174.509155273438 759.5227661132812 C 1175.5576171875 755.0197143554688 1177.19775390625 750.4371948242188 1179.384033203125 745.902587890625 C 1183.099853515625 738.1954345703125 1187.090209960938 733.3080444335938 1187.25830078125 733.103759765625 L 1187.284912109375 733.0714721679688 L 1187.3125 733.0401611328125 C 1193.223999023438 726.3246459960938 1197.936889648438 720.0045776367188 1201.3203125 714.2553100585938 C 1203.992065429688 709.7152709960938 1205.090942382812 706.7677612304688 1205.560302734375 705.5090942382812 C 1205.693481445312 705.1516723632812 1205.787475585938 704.899658203125 1205.887573242188 704.68212890625 C 1205.953247070312 704.4376220703125 1206.082275390625 703.8505859375 1206.188232421875 703.3688354492188 C 1206.553588867188 701.7064208984375 1207.105712890625 699.1941528320312 1207.87060546875 697.0372314453125 C 1208.341552734375 695.709228515625 1208.832885742188 694.681396484375 1209.372680664062 693.8951416015625 C 1210.587036132812 692.1263427734375 1211.971435546875 691.7550659179688 1212.9189453125 691.7550659179688 C 1214.313842773438 691.7550659179688 1215.557739257812 692.5120239257812 1216.616088867188 694.0050048828125 C 1217.381713867188 695.0850219726562 1218.111450195312 696.6239624023438 1218.846801757812 698.7097778320312 C 1220.36865234375 703.0263671875 1223.45947265625 706.8505859375 1228.573608398438 710.7449340820312 C 1233.332641601562 714.36865234375 1239.214599609375 717.5762329101562 1245.442016601562 720.9721069335938 C 1250.1328125 723.5300903320312 1254.983276367188 726.1751708984375 1259.646606445312 729.1630249023438 C 1263.74609375 731.7894287109375 1267.394653320312 734.9340209960938 1270.490844726562 738.50927734375 C 1273.455810546875 741.9330444335938 1275.91064453125 745.7451171875 1277.786987304688 749.8394775390625 C 1281.4208984375 757.7691650390625 1282.796508789062 766.5187377929688 1281.765014648438 775.1422729492188 C 1280.775268554688 783.4163818359375 1277.591796875 791.182373046875 1272.558837890625 797.6007080078125 C 1269.923095703125 800.9618530273438 1266.796020507812 803.9348754882812 1263.264282226562 806.4370727539062 C 1259.574829101562 809.051025390625 1255.4287109375 811.1600952148438 1250.941040039062 812.7056884765625 C 1241.429565429688 815.9814453125 1232.175903320312 817.6426391601562 1223.439697265625 817.6426391601562 Z" stroke="none"/>
          <path d="M 1212.9189453125 694.2550659179688 C 1210.12451171875 694.2543334960938 1208.583862304688 704.9385375976562 1208.192016601562 705.6599731445312 C 1207.656982421875 706.64501953125 1205.248046875 716.448974609375 1189.18896484375 734.6920166015625 C 1189.18896484375 734.6920166015625 1155.197998046875 776.010986328125 1194.81005859375 807.2459716796875 C 1194.81005859375 807.2460327148438 1214.177001953125 822.722900390625 1250.126953125 810.3419799804688 C 1286.077026367188 797.9600219726562 1289.535034179688 751.281005859375 1258.297973632812 731.2680053710938 C 1241.379028320312 720.427978515625 1221.573974609375 713.9639892578125 1216.489013671875 699.541015625 C 1215.12841796875 695.6817016601562 1213.939819335938 694.25537109375 1212.9189453125 694.2550659179688 M 1212.917724609375 689.2550659179688 C 1212.917846679688 689.2550659179688 1212.91796875 689.2550659179688 1212.91796875 689.2550659179688 C 1212.918212890625 689.2550659179688 1212.91845703125 689.2550659179688 1212.918701171875 689.2550659179688 C 1214.46923828125 689.2556762695312 1216.720458984375 689.8295288085938 1218.655517578125 692.5592041015625 C 1219.557250976562 693.8310546875 1220.390991210938 695.571044921875 1221.20458984375 697.8785400390625 C 1222.556884765625 701.7141723632812 1225.379638671875 705.1705322265625 1230.088256835938 708.7559204101562 C 1234.696166992188 712.2646484375 1240.497192382812 715.4281005859375 1246.638916015625 718.7772216796875 C 1251.367797851562 721.3560180664062 1256.257690429688 724.0225219726562 1260.995361328125 727.0579833984375 C 1265.296752929688 729.8138427734375 1269.12744140625 733.1160278320312 1272.380615234375 736.8726806640625 C 1275.5009765625 740.4757080078125 1278.08447265625 744.4879760742188 1280.059692382812 748.7979736328125 C 1283.885375976562 757.1461181640625 1285.33349609375 766.3585205078125 1284.247314453125 775.4391479492188 C 1283.203247070312 784.1679077148438 1279.841674804688 792.3646850585938 1274.526123046875 799.1433715820312 C 1271.741333007812 802.6947021484375 1268.4384765625 805.8350219726562 1264.70947265625 808.4769897460938 C 1260.826049804688 811.2283325195312 1256.467529296875 813.4463500976562 1251.755249023438 815.0693969726562 C 1241.98046875 818.435791015625 1232.453857421875 820.1426391601562 1223.439575195312 820.1426391601562 C 1218.822143554688 820.1426391601562 1214.313720703125 819.6923217773438 1210.039672851562 818.80419921875 C 1206.587280273438 818.0868530273438 1203.275756835938 817.0829467773438 1200.197143554688 815.8203735351562 C 1194.968994140625 813.6763305664062 1192.103149414062 811.4804077148438 1191.707885742188 811.167236328125 C 1185.221069335938 806.0512084960938 1180.154418945312 800.3213500976562 1176.647827148438 794.1361083984375 C 1173.503295898438 788.5894165039062 1171.56689453125 782.6036987304688 1170.892456054688 776.3452758789062 C 1170.29052734375 770.7599487304688 1170.688232421875 764.9093017578125 1172.074340820312 758.9558715820312 C 1173.164428710938 754.27392578125 1174.866088867188 749.5169067382812 1177.132080078125 744.81689453125 C 1180.976928710938 736.8422241210938 1185.151733398438 731.729248046875 1185.32763671875 731.5155029296875 C 1185.363037109375 731.4724731445312 1185.399047851562 731.4300537109375 1185.435913085938 731.3882446289062 C 1191.243041992188 724.7913818359375 1195.862426757812 718.6004028320312 1199.165649414062 712.9873657226562 C 1201.726196289062 708.6363525390625 1202.733642578125 705.9342651367188 1203.2177734375 704.6357421875 C 1203.324951171875 704.3482055664062 1203.416381835938 704.1029052734375 1203.513061523438 703.8724365234375 C 1203.573852539062 703.617919921875 1203.667602539062 703.191162109375 1203.746459960938 702.8321533203125 C 1204.125122070312 701.1091918945312 1204.697387695312 698.50537109375 1205.514282226562 696.2017822265625 C 1206.058959960938 694.665771484375 1206.646728515625 693.448486328125 1207.311401367188 692.4802856445312 C 1209.237426757812 689.6747436523438 1211.650268554688 689.2553100585938 1212.917724609375 689.2550659179688 L 1212.917724609375 689.2550659179688 Z" stroke="none" fill="#000"/>
        </g>
        <g id="Group_1466" data-name="Group 1466">
          <path id="Path_3896" data-name="Path 3896" d="M1237.435,739.492s-1.732,5.182.933,12.148a20.659,20.659,0,0,1,1.244,8.995,148.633,148.633,0,0,1-3.243,20.662c-4.376,19.573,13.464,34.638,22.815,40.637,10.352,6.64,34.488,12.837,51.628-15.6Z" fill="#ffbf73"/>
          <path id="Path_3897" data-name="Path 3897" d="M1239.651,738.315c-.42.216-.848.414-1.277.611-.955.437-2.483,2.536,3.107,12.559,7.187,12.886,4.073,19.347,3.574,25.739-.29,3.718-.885,36.362,42.718,38.133,7.628.309,28.286-.266,26.466-26.563a12.364,12.364,0,0,0-.354-2.255c-3.886-14.959-26.665-26.714-41.707-26.6-13.391.1-24.444-14.411-27.138-18.257a11.848,11.848,0,0,1-.823-1.345C1243.7,739.339,1242.18,737.012,1239.651,738.315Z" fill="#efe9b9"/>
          <g id="Path_3898" data-name="Path 3898" fill="none" stroke-linecap="round" stroke-linejoin="round">
            <path d="M1314.239,788.794a12.28,12.28,0,0,0-.354-2.255c-3.885-14.959-26.665-26.714-41.707-26.6-13.391.1-24.444-14.411-27.137-18.257a11.492,11.492,0,0,1-.823-1.345c-.514-.994-2.038-3.321-4.567-2.018-.419.216-.847.414-1.277.611a1.448,1.448,0,0,0-.715.77l-.224-.2s-1.731,5.182.933,12.148a20.659,20.659,0,0,1,1.244,8.995,148.777,148.777,0,0,1-3.242,20.663c-4.376,19.572,13.463,34.637,22.814,40.636,10.353,6.64,34.488,12.837,51.628-15.6l-.1-.09C1313.283,802.312,1314.789,796.73,1314.239,788.794Z" stroke="none"/>
            <path d="M 1278.418090820312 827.5357055664062 C 1288.912109375 827.5358276367188 1301.006469726562 822.6027221679688 1310.81201171875 806.3350219726562 L 1310.713012695312 806.2449951171875 C 1313.282958984375 802.31201171875 1314.788940429688 796.72998046875 1314.239013671875 788.7940063476562 C 1314.18701171875 788.0339965820312 1314.077026367188 787.2769775390625 1313.885009765625 786.5390014648438 C 1310.018310546875 771.6503295898438 1287.431030273438 759.9342651367188 1272.387939453125 759.9342651367188 C 1272.271606445312 759.9342041015625 1272.158325195312 759.9354858398438 1272.042846679688 759.9354858398438 C 1258.712524414062 759.9357299804688 1247.724975585938 745.5110473632812 1245.041015625 741.677978515625 C 1244.738037109375 741.2459716796875 1244.458984375 740.802001953125 1244.218017578125 740.3330078125 C 1243.703979492188 739.3389892578125 1242.180297851562 737.011962890625 1239.651000976562 738.3150024414062 C 1239.232055664062 738.531005859375 1238.803955078125 738.72900390625 1238.3740234375 738.926025390625 C 1238.130004882812 739.0380249023438 1237.849975585938 739.2620239257812 1237.659057617188 739.6959838867188 L 1237.43505859375 739.4920043945312 C 1237.43505859375 739.4920043945312 1235.703979492188 744.6740112304688 1238.368041992188 751.6400146484375 C 1239.463012695312 754.5009765625 1239.849975585938 757.5800170898438 1239.612060546875 760.635009765625 C 1239.261962890625 765.1270141601562 1238.412963867188 772.156005859375 1236.369995117188 781.2979736328125 C 1231.994018554688 800.8699951171875 1249.8330078125 815.9349975585938 1259.183959960938 821.9340209960938 C 1263.6142578125 824.775390625 1270.568481445312 827.53564453125 1278.418090820312 827.5357055664062 M 1278.41845703125 830.5357055664062 L 1278.41845703125 827.5357055664062 L 1278.418212890625 830.5357055664062 C 1268.147338867188 830.5355834960938 1260.412963867188 826.2862548828125 1257.564331054688 824.4592895507812 C 1253.566772460938 821.8946533203125 1245.996337890625 816.407958984375 1240.206176757812 808.4744873046875 C 1237.2177734375 804.3799438476562 1235.091552734375 800.141357421875 1233.886596679688 795.8763427734375 C 1232.46044921875 790.8285522460938 1232.310913085938 785.7034301757812 1233.442260742188 780.6433715820312 C 1235.474487304688 771.5494995117188 1236.292724609375 764.6165161132812 1236.62109375 760.4019165039062 C 1236.8330078125 757.681884765625 1236.47802734375 755.0947265625 1235.566284179688 752.7123413085938 C 1234.330444335938 749.4810180664062 1233.75634765625 746.05908203125 1233.90576171875 742.8157348632812 C 1234.021362304688 740.30517578125 1234.531860351562 738.714599609375 1234.589599609375 738.54150390625 C 1234.863037109375 737.7230224609375 1235.472534179688 737.0692749023438 1236.252685546875 736.7348022460938 C 1236.520385742188 736.5221557617188 1236.811889648438 736.3421020507812 1237.12255859375 736.1995239257812 C 1237.526489257812 736.014404296875 1237.917236328125 735.8336791992188 1238.276245117188 735.6485595703125 C 1239.203979492188 735.1705322265625 1240.156494140625 734.9284057617188 1241.10791015625 734.9284057617188 C 1243.454711914062 734.9284057617188 1245.5595703125 736.3960571289062 1246.8828125 738.9550170898438 C 1246.884033203125 738.9573364257812 1246.88525390625 738.9596557617188 1246.886474609375 738.9619750976562 C 1247.044921875 739.2703857421875 1247.24462890625 739.5953369140625 1247.497192382812 739.9554443359375 C 1248.697021484375 741.6689453125 1251.973876953125 746.0709838867188 1256.506103515625 749.9700317382812 C 1258.970825195312 752.0903930664062 1261.44970703125 753.754638671875 1263.874145507812 754.91650390625 C 1266.669555664062 756.2562866210938 1269.41796875 756.935546875 1272.042846679688 756.9354858398438 C 1272.157836914062 756.9353637695312 1272.271240234375 756.9341430664062 1272.387939453125 756.9342041015625 C 1280.440185546875 756.9342041015625 1290.338989257812 759.9788208007812 1298.867309570312 765.07861328125 C 1303.317504882812 767.7396850585938 1307.09912109375 770.7698974609375 1310.107055664062 774.0849609375 C 1313.493774414062 777.8175659179688 1315.741821289062 781.7539672851562 1316.788696289062 785.7848510742188 C 1317.015014648438 786.6544799804688 1317.164184570312 787.5984497070312 1317.232055664062 788.5892333984375 C 1317.513793945312 792.6550903320312 1317.293334960938 796.3810424804688 1316.576782226562 799.6609497070312 C 1315.975830078125 802.4120483398438 1315.013549804688 804.9108276367188 1313.712646484375 807.1024169921875 C 1313.641235351562 807.3718872070312 1313.53125 807.6350708007812 1313.38134765625 807.8837280273438 C 1308.577026367188 815.854248046875 1302.861328125 821.822265625 1296.39306640625 825.6220703125 C 1290.8427734375 828.8825073242188 1284.795288085938 830.5357055664062 1278.41845703125 830.5357055664062 Z" stroke="none" fill="#000"/>
          </g>
          <path id="Path_3899" data-name="Path 3899" d="M1246.02,747.363s6.436,12.673,7.441,32.279c1.154,22.515,26.683,40.566,54.483,29.112,6.2-19.07-4.8-36.182-30.783-41.757C1257.784,762.839,1246.02,747.363,1246.02,747.363Z" fill="#f4f0dc"/>
          <path id="Path_3900" data-name="Path 3900" d="M1258.864,766.145s3.689,8.715,8.618,22.438c5.26,14.645,16.967,20.374,39.414,18.705.5-12.588-12.666-27.348-27.345-31.027S1258.864,766.145,1258.864,766.145Z" fill="#fafcf5"/>
          <path id="Path_3901" data-name="Path 3901" d="M1273.251,779.831s2.469,5.625,5.765,14.482c3.516,9.452,11.394,13.132,26.523,12.012.361-8.135-8.483-17.647-18.367-20S1273.251,779.831,1273.251,779.831Z" fill="#e4fcca"/>
        </g>
        <path id="Path_3902" data-name="Path 3902" d="M1210.649,700.681a109.8,109.8,0,0,1-7.254,32.747,79.552,79.552,0,0,1-3.465,7.794l-.906,1.822-.832,1.786c-.538,1.2-1.03,2.432-1.482,3.678a72.277,72.277,0,0,0-3.77,15.455,56.659,56.659,0,0,0,.011,15.726,36.656,36.656,0,0,0,5.251,14.458,33.263,33.263,0,0,0,11.4,10.6,57.688,57.688,0,0,0,15.284,5.834,45.407,45.407,0,0,1-16.549-3.271,36.713,36.713,0,0,1-7.558-4.309,32.622,32.622,0,0,1-6.277-6.223,37.542,37.542,0,0,1-6.994-16.16,55.9,55.9,0,0,1-.341-17.407,68.117,68.117,0,0,1,4.406-16.7q.823-2.007,1.791-3.963c.325-.652.659-1.3,1.018-1.937l1.053-1.844c1.337-2.331,2.629-4.707,3.81-7.153A197.763,197.763,0,0,0,1210.649,700.681Z" fill="#ffbf73"/>
        <path id="Path_3903" data-name="Path 3903" d="M1212.979,705.249a144.919,144.919,0,0,1,.157,29.2,67.459,67.459,0,0,1-2.821,14.721l-.611,1.8c-.17.493-.356.973-.487,1.5a25.636,25.636,0,0,0-.7,3.206,43.613,43.613,0,0,0-.57,6.746,56.116,56.116,0,0,0,6.037,26.537,37.576,37.576,0,0,0,3.738,5.735,30.77,30.77,0,0,0,4.763,4.973,37.44,37.44,0,0,0,12.334,6.9,31.025,31.025,0,0,1-14.017-4.588,35,35,0,0,1-10.721-10.69,46.981,46.981,0,0,1-6.109-13.9,60.781,60.781,0,0,1-1.44-7.457,58.186,58.186,0,0,1-.407-7.6,47.366,47.366,0,0,1,.737-7.663,31.228,31.228,0,0,1,.959-3.838c.183-.639.442-1.282.689-1.922l.622-1.609a86.109,86.109,0,0,0,3.523-13.495C1210.4,724.442,1211.607,714.872,1212.979,705.249Z" fill="#ffbf73"/>
      </g>
    </g>
  </g>
</svg>
