<svg xmlns="http://www.w3.org/2000/svg" width="196" height="196" viewBox="0 0 196 196">
  <g id="Group_1990" data-name="Group 1990" transform="translate(-3423 -166)">
    <g id="Group_1968" data-name="Group 1968">
      <g id="Group_1950" data-name="Group 1950">
        <g id="Group_1938" data-name="Group 1938" transform="translate(3126 97)">
          <rect id="Rectangle_1254" data-name="Rectangle 1254" width="196" height="196" rx="5" transform="translate(297 69)" fill="#fff"/>
        </g>
      </g>
    </g>
    <g id="Group_1891" data-name="Group 1891" transform="translate(1908.087 -573.604)">
      <path id="Path_3674" data-name="Path 3674" d="M4850.7,3290.117" transform="translate(-3236.478 -2415.604)" fill="none" stroke="#000" stroke-width="1"/>
      <g id="Group_1231" data-name="Group 1231" transform="translate(1560.408 768.604)">
        <g id="Group_1230" data-name="Group 1230" transform="translate(0 0)">
          <g id="Path_3703" data-name="Path 3703" transform="translate(-1388.331 -1138.471)" fill="none" stroke-miterlimit="10">
            <path d="M1475.842,1154.841l-.1,0c.005-3.873.817-12.035,4.726-13.1a1.661,1.661,0,0,0-.873-3.205c-6.617,1.806-7.185,12.544-7.181,16.264-14.022.55-15.7,10.8-15.244,11.192a1.418,1.418,0,0,0,1.355.44c-2.637,7.064,1.229,18.473.955,28.387a92.752,92.752,0,0,1-7.981,24.213,41.13,41.13,0,0,0-8.982-11.936c-10.772-9.181-15.2-32.23-16.269-37.361-.16-.765-.333-1.594-.577-2.436.106-.071.2-.147.29-.222.516-.406-1.485-11.353-18.56-11.212-2.13-8.924-12.725-13.708-13.21-13.922a1.661,1.661,0,1,0-1.343,3.039c.1.044,9.051,4.074,11.163,11.053-17.739,1.672-15.6,15.544-15.6,15.544a2.5,2.5,0,0,0,.714.819,29.853,29.853,0,0,0-.142,12.926s7.267,35.326,31.363,43.086a40.124,40.124,0,0,1,19.206,10.774,180.06,180.06,0,0,1-25.236,28.734s-6,6.761.865,5.316a92.79,92.79,0,0,0,35.776-16.94c4.882,10.58,6.745,19.792,10.12,19.022,3.415-.779,3.262-13.719.1-28.445,25.4-27.5,27.993-65.45,28.323-75.262,1,.041,1.507-1.115,1.507-1.115S1493.036,1155.97,1475.842,1154.841Z" stroke="none"/>
            <path d="M 1480.029663085938 1138.471435546875 C 1479.885498046875 1138.471435546875 1479.739013671875 1138.490356445312 1479.593383789062 1138.529907226562 C 1472.976318359375 1140.335693359375 1472.408569335938 1151.07421875 1472.412719726562 1154.793823242188 C 1458.390258789062 1155.344116210938 1456.717651367188 1165.59228515625 1457.168579101562 1165.9853515625 C 1457.447021484375 1166.22900390625 1457.693359375 1166.5166015625 1458.523559570312 1166.425415039062 C 1455.886840820312 1173.489135742188 1459.752807617188 1184.89794921875 1459.478881835938 1194.812133789062 C 1458.03759765625 1203.241577148438 1455.145629882812 1211.399291992188 1451.498046875 1219.025146484375 C 1448.885498046875 1214.132934570312 1445.880859375 1209.958129882812 1442.51611328125 1207.088989257812 C 1431.74365234375 1197.908325195312 1427.319946289062 1174.859252929688 1426.246704101562 1169.727905273438 C 1426.087158203125 1168.962646484375 1425.913696289062 1168.133911132812 1425.670166015625 1167.292236328125 C 1425.776123046875 1167.221313476562 1425.866821289062 1167.144897460938 1425.960571289062 1167.070556640625 C 1426.473754882812 1166.667114257812 1424.50048828125 1155.856811523438 1407.726196289062 1155.856811523438 C 1407.618041992188 1155.856811523438 1407.510009765625 1155.857299804688 1407.400634765625 1155.858154296875 C 1405.270751953125 1146.934326171875 1394.675170898438 1142.150024414062 1394.1904296875 1141.936157226562 C 1393.3486328125 1141.565185546875 1392.369384765625 1141.945922851562 1391.999267578125 1142.784545898438 C 1391.629272460938 1143.6240234375 1392.007934570312 1144.6044921875 1392.84765625 1144.9755859375 C 1392.946899414062 1145.019287109375 1401.898315429688 1149.050048828125 1404.0107421875 1156.028564453125 C 1386.271728515625 1157.701049804688 1388.411743164062 1171.572998046875 1388.411743164062 1171.572998046875 C 1388.411743164062 1171.572998046875 1388.6552734375 1172.058715820312 1389.125732421875 1172.391845703125 C 1387.430297851562 1178.850708007812 1388.983764648438 1185.318237304688 1388.983764648438 1185.318237304688 C 1388.983764648438 1185.318237304688 1396.25048828125 1220.644287109375 1420.346801757812 1228.404296875 C 1428.542724609375 1230.411010742188 1434.744995117188 1234.375244140625 1439.553100585938 1239.177856445312 C 1427.339599609375 1256.49755859375 1414.317016601562 1267.911743164062 1414.317016601562 1267.911743164062 C 1414.317016601562 1267.911743164062 1408.316650390625 1274.6728515625 1415.181762695312 1273.2275390625 C 1429.796020507812 1269.670776367188 1441.530151367188 1263.668212890625 1450.957641601562 1256.287841796875 C 1455.839965820312 1266.8681640625 1457.703125 1276.078979492188 1461.078125 1275.3095703125 C 1464.493286132812 1274.531005859375 1464.34033203125 1261.590576171875 1461.177612304688 1246.864990234375 C 1486.57958984375 1219.361450195312 1489.170166015625 1181.415283203125 1489.501098632812 1171.6025390625 C 1489.518798828125 1171.603271484375 1489.536254882812 1171.603637695312 1489.553588867188 1171.603637695312 C 1490.52197265625 1171.603637695312 1491.007690429688 1170.48779296875 1491.007690429688 1170.48779296875 C 1491.007690429688 1170.48779296875 1493.0361328125 1155.969604492188 1475.842163085938 1154.840698242188 C 1475.80712890625 1154.838623046875 1475.775512695312 1154.838623046875 1475.740600585938 1154.83642578125 C 1475.745971679688 1150.963745117188 1476.55712890625 1142.801879882812 1480.466796875 1141.7353515625 C 1481.352294921875 1141.494018554688 1481.873901367188 1140.580200195312 1481.6328125 1139.695922851562 C 1481.430297851562 1138.956420898438 1480.759765625 1138.471435546875 1480.029663085938 1138.471435546875 M 1480.029663085938 1133.471435546875 L 1480.029907226562 1133.471435546875 C 1483.0224609375 1133.471557617188 1485.664794921875 1135.488159179688 1486.455322265625 1138.37548828125 L 1486.456787109375 1138.380737304688 C 1486.924682617188 1140.096923828125 1486.696166992188 1141.892822265625 1485.8134765625 1143.4375 C 1485.016967773438 1144.831176757812 1483.77392578125 1145.869873046875 1482.278076171875 1146.403442382812 C 1482.068359375 1146.735107421875 1481.616333007812 1147.623901367188 1481.237060546875 1149.559326171875 C 1481.174560546875 1149.877807617188 1481.1171875 1150.212768554688 1481.0654296875 1150.558837890625 C 1482.732299804688 1150.947265625 1484.278564453125 1151.478515625 1485.6923828125 1152.149536132812 C 1488.209594726562 1153.344360351562 1490.328369140625 1154.985107421875 1491.989990234375 1157.0263671875 C 1494.089721679688 1159.60595703125 1495.443725585938 1162.845458984375 1495.905639648438 1166.394653320312 C 1496.2373046875 1168.942626953125 1496.0087890625 1170.82763671875 1495.959594726562 1171.1796875 L 1495.864990234375 1171.856689453125 L 1495.592163085938 1172.483520507812 C 1495.432250976562 1172.850830078125 1495.067016601562 1173.57861328125 1494.417358398438 1174.325927734375 C 1494.405395507812 1174.339721679688 1494.393310546875 1174.353515625 1494.381225585938 1174.3671875 C 1494.015380859375 1180.910034179688 1492.896850585938 1191.713256835938 1489.564453125 1203.916870117188 C 1487.308349609375 1212.178588867188 1484.338745117188 1219.989501953125 1480.737915039062 1227.132690429688 C 1476.788696289062 1234.967041015625 1472.032836914062 1242.086669921875 1466.581665039062 1248.329833984375 C 1467.87841796875 1254.97509765625 1468.588012695312 1261.2822265625 1468.594604492188 1266.310913085938 C 1468.598510742188 1269.38916015625 1468.334106445312 1271.943359375 1467.808471679688 1273.90283203125 C 1467.44384765625 1275.262084960938 1466.95166015625 1276.3779296875 1466.303466796875 1277.31396484375 C 1464.990356445312 1279.210693359375 1463.341430664062 1279.921875 1462.189453125 1280.184448242188 C 1461.6953125 1280.297241210938 1461.189331054688 1280.354736328125 1460.687133789062 1280.354736328125 C 1459.411010742188 1280.354736328125 1457.51025390625 1279.98388671875 1455.701538085938 1278.217041015625 C 1454.871948242188 1277.406616210938 1454.14013671875 1276.39013671875 1453.398803710938 1275.017944335938 C 1452.322998046875 1273.026977539062 1451.324096679688 1270.4453125 1450.167358398438 1267.4560546875 C 1449.744018554688 1266.361938476562 1449.298217773438 1265.209838867188 1448.821655273438 1264.01708984375 C 1445.13623046875 1266.5009765625 1441.242431640625 1268.736694335938 1437.18896484375 1270.694091796875 C 1430.752319335938 1273.80224609375 1423.745849609375 1276.289184570312 1416.364135742188 1278.085693359375 L 1416.212036132812 1278.120239257812 C 1415.221557617188 1278.328735351562 1414.346313476562 1278.43017578125 1413.5361328125 1278.43017578125 C 1412.374755859375 1278.43017578125 1411.317138671875 1278.213012695312 1410.392333984375 1277.78466796875 C 1409.066040039062 1277.17041015625 1408.012451171875 1276.11328125 1407.425415039062 1274.807983398438 C 1406.9443359375 1273.738159179688 1406.543212890625 1271.982177734375 1407.363891601562 1269.6923828125 C 1407.663696289062 1268.856079101562 1408.102905273438 1267.996459960938 1408.706665039062 1267.064331054688 C 1409.55322265625 1265.757568359375 1410.474365234375 1264.708984375 1410.57666015625 1264.593627929688 L 1410.785034179688 1264.358642578125 L 1411.021362304688 1264.151611328125 C 1411.051025390625 1264.12548828125 1414.237426757812 1261.31787109375 1418.832885742188 1256.487915039062 C 1422.453491210938 1252.682495117188 1427.61181640625 1246.915405273438 1432.854736328125 1239.89453125 C 1431.528564453125 1238.843505859375 1430.143798828125 1237.8984375 1428.711669921875 1237.067749023438 C 1425.806274414062 1235.382446289062 1422.591918945312 1234.101684570312 1419.15771484375 1233.260864257812 L 1418.984252929688 1233.218383789062 L 1418.814086914062 1233.16357421875 C 1412.4892578125 1231.126708984375 1406.70068359375 1227.300903320312 1401.60888671875 1221.792236328125 C 1397.681274414062 1217.54296875 1394.160400390625 1212.283813476562 1391.143920898438 1206.160888671875 C 1386.26416015625 1196.255737304688 1384.301879882812 1187.345825195312 1384.10107421875 1186.396484375 C 1383.998901367188 1185.949951171875 1383.615234375 1184.156494140625 1383.43212890625 1181.640014648438 C 1383.223754882812 1178.7763671875 1383.340454101562 1176.044799804688 1383.77880859375 1173.48828125 L 1383.589965820312 1173.11181640625 L 1383.47021484375 1172.335327148438 C 1383.354614257812 1171.585693359375 1382.47412109375 1164.83984375 1387.105590820312 1158.895141601562 C 1388.768310546875 1156.760986328125 1390.929565429688 1155.01953125 1393.529418945312 1153.719360351562 C 1394.23388671875 1153.366943359375 1394.972412109375 1153.046752929688 1395.743896484375 1152.7587890625 C 1395.42822265625 1152.48779296875 1395.116577148438 1152.238037109375 1394.819946289062 1152.01171875 C 1392.800170898438 1150.470825195312 1390.916137695312 1149.590698242188 1390.803466796875 1149.538696289062 C 1387.46337890625 1148.047485351562 1385.947143554688 1144.118896484375 1387.423828125 1140.768188476562 C 1388.489990234375 1138.352905273438 1390.882080078125 1136.794067382812 1393.519165039062 1136.794067382812 C 1394.449584960938 1136.794067382812 1395.35400390625 1136.984741210938 1396.207397460938 1137.360961914062 C 1396.794799804688 1137.620239257812 1399.88916015625 1139.044555664062 1403.267944335938 1141.699462890625 C 1405.317260742188 1143.309814453125 1407.071899414062 1145.065551757812 1408.483276367188 1146.91796875 C 1409.479614257812 1148.2255859375 1410.307250976562 1149.583984375 1410.9609375 1150.982421875 C 1416.094116210938 1151.393432617188 1420.430297851562 1152.81103515625 1423.8837890625 1155.212036132812 C 1428.072265625 1158.1240234375 1429.778564453125 1161.6826171875 1430.4228515625 1163.544555664062 C 1430.712768554688 1164.382446289062 1430.901489257812 1165.187622070312 1430.983764648438 1165.937744140625 C 1431.058959960938 1166.62353515625 1431.034912109375 1167.234130859375 1430.943115234375 1167.775512695312 C 1431.016357421875 1168.107177734375 1431.08154296875 1168.420166015625 1431.141479492188 1168.70751953125 C 1431.181030273438 1168.896606445312 1431.225830078125 1169.113647460938 1431.275512695312 1169.353637695312 C 1431.876708984375 1172.263305664062 1433.28466796875 1179.0771484375 1435.749633789062 1186.061279296875 C 1438.619750976562 1194.193359375 1442.0810546875 1200.148803710938 1445.75927734375 1203.283447265625 C 1447.423950195312 1204.703002929688 1449.038818359375 1206.41015625 1450.594482421875 1208.392578125 C 1452.380615234375 1203.590454101562 1453.684326171875 1198.884521484375 1454.488403320312 1194.326293945312 C 1454.545166015625 1190.85205078125 1454.037963867188 1186.985717773438 1453.546752929688 1183.242797851562 C 1453.141845703125 1180.156616210938 1452.72314453125 1176.965576171875 1452.6220703125 1173.9765625 C 1452.553466796875 1171.950073242188 1452.633056640625 1170.160522460938 1452.869384765625 1168.540405273438 C 1452.496337890625 1167.920776367188 1452.181274414062 1167.103759765625 1452.117919921875 1166.069702148438 C 1452.091064453125 1165.630981445312 1452.1083984375 1165.17431640625 1452.170776367188 1164.673583984375 C 1452.2705078125 1163.874267578125 1452.488159179688 1162.983764648438 1452.80029296875 1162.09814453125 C 1453.853759765625 1159.109130859375 1455.891479492188 1156.33544921875 1458.538330078125 1154.287963867188 C 1461.070678710938 1152.328979492188 1464.120361328125 1150.99951171875 1467.641967773438 1150.314575195312 C 1467.826416015625 1148.531372070312 1468.1513671875 1146.525756835938 1468.713989257812 1144.565063476562 C 1470.836669921875 1137.167846679688 1475.086059570312 1134.5771484375 1478.276977539062 1133.706298828125 L 1478.2822265625 1133.704956054688 C 1478.852294921875 1133.549926757812 1479.440185546875 1133.471435546875 1480.029663085938 1133.471435546875 Z" stroke="none" fill="#000"/>
          </g>
          <path id="Path_3704" data-name="Path 3704" d="M1391.856,1184.366s-5.115-20.927,13.93-23.928,20.575,4.427,21.6,9.256,5.24,26.521,15.511,35.161c16.937,14.249,24.3,62.717,17.7,64.2s-7.1-36.469-38.835-44.144C1398.785,1217.611,1391.856,1184.366,1391.856,1184.366Z" transform="translate(-1388.064 -1136.519)" fill="#e2474f"/>
          <path id="Path_3705" data-name="Path 3705" d="M1390.132,1170.668a1.811,1.811,0,0,0,2.214.987c1.478-.557,17.6-11.406,29.963-5.981,3.9,1.53,4.313.973,4.843.556s-1.619-12.1-20.429-10.988S1390.132,1170.668,1390.132,1170.668Z" transform="translate(-1388.173 -1136.939)" fill="#4e9624"/>
          <path id="Path_3706" data-name="Path 3706" d="M1394.255,1142.539s11.714,5.173,12.39,14.477" transform="translate(-1387.787 -1138.098)" fill="none" stroke="#4e9624" stroke-linecap="round" stroke-linejoin="round" stroke-width="3"/>
          <g id="Path_3707" data-name="Path 3707" transform="translate(-1386.322 -1138.451)" fill="#fff" stroke-miterlimit="10">
            <path d="M 1411.861083984375 1273.893676757812 C 1410.298706054688 1273.893676757812 1409.662719726562 1273.208374023438 1409.404174804688 1272.633422851562 C 1408.976806640625 1271.682861328125 1409.299438476562 1270.401977539062 1410.390747070312 1268.717407226562 C 1411.086669921875 1267.643188476562 1411.857543945312 1266.77099609375 1411.890014648438 1266.734375 L 1411.931884765625 1266.687255859375 L 1411.979370117188 1266.645629882812 C 1412.074462890625 1266.562377929688 1421.614379882812 1258.1591796875 1431.843383789062 1245.08984375 C 1437.841064453125 1237.4267578125 1442.898803710938 1229.682373046875 1446.876098632812 1222.071655273438 C 1451.8203125 1212.610717773438 1455.097534179688 1203.334838867188 1456.617553710938 1194.4990234375 C 1456.715576171875 1190.655883789062 1456.175659179688 1186.539916992188 1455.6533203125 1182.558715820312 C 1454.892211914062 1176.757690429688 1454.17041015625 1171.254516601562 1455.415405273438 1166.925048828125 C 1455.257202148438 1166.822265625 1455.135864257812 1166.714111328125 1455.0380859375 1166.627075195312 C 1455.019287109375 1166.610229492188 1455.00048828125 1166.593505859375 1454.9814453125 1166.577026367188 C 1454.5302734375 1166.18359375 1454.540161132812 1165.566528320312 1454.609008789062 1165.0146484375 C 1454.653686523438 1164.65673828125 1454.76416015625 1164.06787109375 1455.036743164062 1163.294921875 C 1455.494384765625 1161.996459960938 1456.6689453125 1159.50390625 1459.392333984375 1157.397338867188 C 1462.0546875 1155.338134765625 1465.51123046875 1154.143920898438 1469.677124023438 1153.842163085938 C 1469.72509765625 1151.82373046875 1469.954345703125 1148.722412109375 1470.796752929688 1145.78662109375 C 1471.361083984375 1143.820434570312 1472.131103515625 1142.1748046875 1473.08544921875 1140.8955078125 C 1474.271118164062 1139.30615234375 1475.750732421875 1138.2607421875 1477.483154296875 1137.788208007812 C 1477.709350585938 1137.72607421875 1477.943969726562 1137.6943359375 1478.1787109375 1137.6943359375 C 1479.36279296875 1137.6943359375 1480.408569335938 1138.493896484375 1480.721801757812 1139.638671875 C 1481.103637695312 1141.0439453125 1480.27294921875 1142.496459960938 1478.870361328125 1142.878295898438 C 1477.231689453125 1143.325439453125 1476.297119140625 1145.685180664062 1475.8017578125 1147.5859375 C 1475.186645507812 1149.946655273438 1475.01171875 1152.466674804688 1474.963989257812 1153.9033203125 C 1480.30126953125 1154.40576171875 1484.322265625 1156.276123046875 1486.92138671875 1159.469360351562 C 1490.799682617188 1164.234375 1490.025390625 1170.149047851562 1489.990478515625 1170.398559570312 L 1489.971557617188 1170.534301757812 L 1489.916748046875 1170.659912109375 C 1489.715576171875 1171.121215820312 1489.231689453125 1171.815673828125 1488.490356445312 1172.156616210938 C 1488.31982421875 1176.46826171875 1487.814208984375 1182.990112304688 1486.413330078125 1190.763549804688 C 1484.4423828125 1201.701293945312 1481.282470703125 1211.967407226562 1477.021240234375 1221.276977539062 C 1471.3837890625 1233.59326171875 1463.862548828125 1244.083740234375 1454.66650390625 1252.457153320312 C 1449.320556640625 1257.324829101562 1443.329956054688 1261.537231445312 1436.861083984375 1264.977172851562 C 1429.8251953125 1268.71875 1422.044799804688 1271.641357421875 1413.735961914062 1273.663696289062 L 1413.720825195312 1273.667358398438 L 1413.705444335938 1273.670532226562 C 1412.992309570312 1273.820678710938 1412.389038085938 1273.893676757812 1411.861083984375 1273.893676757812 Z" stroke="none"/>
            <path d="M 1478.1787109375 1138.6943359375 C 1478.035888671875 1138.6943359375 1477.890747070312 1138.713256835938 1477.746337890625 1138.7529296875 C 1471.221923828125 1140.532470703125 1470.661865234375 1151.120361328125 1470.666259765625 1154.78857421875 C 1456.84130859375 1155.331176757812 1455.192626953125 1165.434326171875 1455.636962890625 1165.82177734375 C 1455.877319335938 1166.030395507812 1456.090087890625 1166.27392578125 1456.68408203125 1166.27392578125 C 1454.01904296875 1173.304809570312 1457.888305664062 1184.698364257812 1457.615356445312 1194.597412109375 C 1450.892211914062 1233.90625 1412.638061523438 1267.398071289062 1412.638061523438 1267.398071289062 C 1412.638061523438 1267.398071289062 1406.664672851562 1274.130737304688 1413.49951171875 1272.692016601562 C 1482.218139648438 1255.966064453125 1487.074340820312 1184.97900390625 1487.5185546875 1171.359252929688 C 1487.534423828125 1171.35986328125 1487.550170898438 1171.360107421875 1487.565673828125 1171.360107421875 C 1488.520385742188 1171.360107421875 1489.000122070312 1170.260131835938 1489.000122070312 1170.260131835938 C 1489.000122070312 1170.260131835938 1491.000366210938 1155.946899414062 1474.048461914062 1154.83349609375 C 1474.013549804688 1154.8310546875 1473.980712890625 1154.8310546875 1473.946899414062 1154.828979492188 C 1473.952270507812 1151.011108398438 1474.753784179688 1142.96484375 1478.607666015625 1141.913452148438 C 1479.481079101562 1141.675659179688 1479.994262695312 1140.77490234375 1479.757202148438 1139.902587890625 C 1479.557739257812 1139.173828125 1478.897827148438 1138.6943359375 1478.1787109375 1138.6943359375 M 1478.1787109375 1136.6943359375 L 1478.178833007812 1136.6943359375 C 1479.812133789062 1136.694458007812 1481.254516601562 1137.796630859375 1481.686279296875 1139.374755859375 C 1482.213134765625 1141.313598632812 1481.0673828125 1143.316650390625 1479.133056640625 1143.843139648438 C 1478.241943359375 1144.086303710938 1477.35791015625 1145.579833984375 1476.76953125 1147.838134765625 C 1476.292846679688 1149.667114257812 1476.090942382812 1151.602661132812 1476.00634765625 1153.0126953125 C 1481.15380859375 1153.6689453125 1485.080932617188 1155.624267578125 1487.696899414062 1158.838134765625 C 1491.847290039062 1163.937255859375 1491.018188476562 1170.269897460938 1490.980834960938 1170.536987304688 L 1490.94287109375 1170.808471679688 L 1490.833374023438 1171.059692382812 C 1490.576538085938 1171.6484375 1490.11328125 1172.2919921875 1489.466430664062 1172.748291015625 C 1489.27392578125 1177.08837890625 1488.749877929688 1183.4365234375 1487.397583007812 1190.94091796875 C 1485.411743164062 1201.961059570312 1482.2265625 1212.307495117188 1477.930541992188 1221.693237304688 C 1472.236572265625 1234.132690429688 1464.635986328125 1244.73193359375 1455.339721679688 1253.196533203125 C 1449.93212890625 1258.120361328125 1443.873046875 1262.380981445312 1437.33056640625 1265.860107421875 C 1430.22119140625 1269.640869140625 1422.3623046875 1272.593139648438 1413.972534179688 1274.63525390625 L 1413.911499023438 1274.649169921875 C 1413.129760742188 1274.813598632812 1412.459106445312 1274.893676757812 1411.861083984375 1274.893676757812 C 1409.653564453125 1274.893676757812 1408.802856445312 1273.734497070312 1408.4921875 1273.043579101562 C 1407.914428710938 1271.758666992188 1408.260986328125 1270.165771484375 1409.551513671875 1268.173706054688 C 1410.287963867188 1267.036865234375 1411.107421875 1266.109619140625 1411.141967773438 1266.07080078125 L 1411.225708007812 1265.976440429688 L 1411.320678710938 1265.893310546875 C 1411.4150390625 1265.810546875 1420.907958984375 1257.4453125 1431.0810546875 1244.44140625 C 1437.035766601562 1236.82958984375 1442.055541992188 1229.140502929688 1446.000732421875 1221.587646484375 C 1450.877075195312 1212.252075195312 1454.113037109375 1203.106323242188 1455.619750976562 1194.4013671875 C 1455.707153320312 1190.656372070312 1455.17578125 1186.606811523438 1454.661865234375 1182.688842773438 C 1453.923217773438 1177.058715820312 1453.220581054688 1171.7041015625 1454.283813476562 1167.29443359375 C 1453.416137695312 1166.497680664062 1453.5615234375 1165.33349609375 1453.61669921875 1164.890869140625 C 1453.689575195312 1164.307739257812 1453.854370117188 1163.640869140625 1454.093505859375 1162.962524414062 C 1454.587890625 1161.560302734375 1455.854125976562 1158.869995117188 1458.780395507812 1156.6064453125 C 1461.406005859375 1154.575561523438 1464.739501953125 1153.34033203125 1468.708618164062 1152.924072265625 C 1468.802124023438 1150.886840820312 1469.0810546875 1148.140014648438 1469.835571289062 1145.510864257812 C 1470.433227539062 1143.427978515625 1471.256958007812 1141.674072265625 1472.283935546875 1140.297485351562 C 1473.606201171875 1138.52490234375 1475.266967773438 1137.356079101562 1477.220092773438 1136.823364257812 C 1477.530883789062 1136.738037109375 1477.8544921875 1136.6943359375 1478.1787109375 1136.6943359375 Z" stroke="none" fill="#000"/>
          </g>
          <g id="Group_1229" data-name="Group 1229" transform="translate(24.075 1.924)">
            <path id="Path_3708" data-name="Path 3708" d="M1412.795,1265.427s38.168-33.417,44.876-72.638c.36-13.044-6.5-28.7,3.989-33.477s26.048.693,25.888,8.7-1.925,85.177-73.894,102.694C1406.834,1272.146,1412.795,1265.427,1412.795,1265.427Z" transform="translate(-1410.383 -1138.647)" fill="#5cbc2a"/>
            <path id="Path_3709" data-name="Path 3709" d="M1485.182,1168.884s-.661,1.539-1.991.985-15.826-11.379-26.941-5.967c-3.5,1.526-3.878.972-4.355.554s1.455-12.073,18.37-10.963S1485.182,1168.884,1485.182,1168.884Z" transform="translate(-1406.579 -1139.024)" fill="#4e9624"/>
            <path id="Path_3710" data-name="Path 3710" d="M1467.14,1155.7s-.567-13.714,5.84-15.461" transform="translate(-1405.176 -1140.234)" fill="none" stroke="#4e9624" stroke-linecap="round" stroke-linejoin="round" stroke-width="3"/>
          </g>
        </g>
        <path id="Path_2893" data-name="Path 2893" d="M0,26S7.254,5.806,23.208,0" transform="translate(105.009 58.611) rotate(150)" fill="none" stroke="#fff" stroke-linecap="round" stroke-linejoin="round" stroke-width="4"/>
        <path id="Path_2892" data-name="Path 2892" d="M0,26S7.254,5.806,23.208,0" transform="translate(0.756 63.083) rotate(-69)" fill="none" stroke="#fff" stroke-linecap="round" stroke-linejoin="round" stroke-width="4"/>
      </g>
    </g>
  </g>
</svg>
