<svg xmlns="http://www.w3.org/2000/svg" width="196" height="196" viewBox="0 0 196 196">
  <g id="Group_1991" data-name="Group 1991" transform="translate(-1675 -166)">
    <g id="Group_1960" data-name="Group 1960">
      <g id="Group_1923" data-name="Group 1923" transform="translate(1378 97)">
        <rect id="Rectangle_1254" data-name="Rectangle 1254" width="196" height="196" rx="5" transform="translate(297 69)" fill="#fff"/>
      </g>
      <path id="Path_1871" data-name="Path 1871" d="M1645.995,373.632" transform="translate(127.005 -109.632)" fill="#ff9d00"/>
      <path id="Path_1871-2" data-name="Path 1871" d="M1645.995,373.632" transform="translate(127.005 -109.632)" fill="#ff9d00"/>
    </g>
    <g id="Group_1886" data-name="Group 1886" transform="translate(164.153 -779.308) rotate(13)">
      <g id="Group_1141" data-name="Group 1141" transform="translate(1727.526 595.974)">
        <g id="Group_1139" data-name="Group 1139" transform="translate(0)">
          <path id="Path_3212" data-name="Path 3212" d="M1752.045,538.314s26.846-24,51.68-3.189c11.074,9.566,26.511,16.616,32.719,22.827s24.666,24.5,17.45,49.848-42.62,34.239-69.3,24.168-35.74-18.126-42.62-32.225c-4.446-9.111-6.376-18.411-5.034-30.715C1738.638,553.5,1745.669,544.859,1752.045,538.314Z" transform="translate(-1732.661 -525.288)" fill="#d4a450"/>
          <g id="Path_3213" data-name="Path 3213" transform="translate(-1733.124 -525.449)" fill="none" stroke-linecap="round" stroke-linejoin="round">
            <path d="M1748.84,537.272s27.185-24.3,52.332-3.228c11.214,9.685,26.845,16.82,33.132,23.107s24.976,24.806,17.67,50.461-43.156,34.661-70.171,24.466-36.19-18.349-43.156-32.621c-4.5-9.223-6.457-18.639-5.1-31.093C1735.266,552.642,1742.385,543.9,1748.84,537.272Z" stroke="none"/>
            <path d="M 1778.604858398438 525.4493408203125 C 1762.06982421875 525.4493408203125 1748.840454101562 537.2718505859375 1748.840454101562 537.2718505859375 C 1742.384887695312 543.89794921875 1735.265625 552.641845703125 1733.548828125 568.364013671875 C 1732.190063476562 580.818603515625 1734.144165039062 590.2339477539062 1738.646728515625 599.4573974609375 C 1745.612670898438 613.7298583984375 1754.787231445312 621.8851928710938 1781.802856445312 632.0787963867188 C 1789.107177734375 634.8353271484375 1797.0537109375 636.187744140625 1804.9111328125 636.187744140625 C 1826.113525390625 636.187744140625 1846.64306640625 626.3314819335938 1851.973388671875 607.6127319335938 C 1859.280029296875 581.95703125 1840.590209960938 563.4376831054688 1834.303588867188 557.1512451171875 C 1828.017456054688 550.86376953125 1812.385864257812 543.7286376953125 1801.171997070312 534.0439453125 C 1793.5654296875 527.6707763671875 1785.775634765625 525.4493408203125 1778.604858398438 525.4493408203125 M 1778.604858398438 520.4493408203125 C 1787.978759765625 520.4493408203125 1796.65185546875 523.7337646484375 1804.383178710938 530.2113647460938 C 1804.402221679688 530.2274169921875 1804.421264648438 530.2435302734375 1804.440063476562 530.2598266601562 C 1809.936157226562 535.0064086914062 1816.786010742188 539.2530517578125 1822.82958984375 542.999755859375 C 1829.033935546875 546.84619140625 1834.392211914062 550.1680908203125 1837.839477539062 553.6160888671875 L 1837.93505859375 553.711669921875 C 1841.161499023438 556.9375610351562 1847.875244140625 563.650146484375 1852.734252929688 572.9300537109375 C 1855.504516601562 578.2207641601562 1857.322143554688 583.6724243164062 1858.13671875 589.133544921875 C 1859.117065429688 595.7060546875 1858.661254882812 602.3840942382812 1856.7822265625 608.9822387695312 C 1853.901489257812 619.0985717773438 1847.014404296875 627.4959106445312 1836.865600585938 633.266357421875 C 1832.29833984375 635.8632202148438 1827.177001953125 637.8639526367188 1821.644165039062 639.2129516601562 C 1816.26953125 640.5233764648438 1810.639770507812 641.187744140625 1804.9111328125 641.187744140625 C 1800.668701171875 641.187744140625 1796.420166015625 640.8189086914062 1792.283569335938 640.0914306640625 C 1788.04638671875 639.3462524414062 1783.926147460938 638.2243041992188 1780.037475585938 636.7567749023438 C 1765.967041015625 631.4476928710938 1756.58984375 626.66259765625 1749.632934570312 621.24169921875 C 1746.119262695312 618.5037231445312 1743.155029296875 615.545166015625 1740.571166992188 612.1969604492188 C 1738.213012695312 609.1411743164062 1736.173706054688 605.7899780273438 1734.1533203125 601.6504516601562 C 1728.915893554688 590.9215698242188 1727.196411132812 580.4883422851562 1728.578369140625 567.8217163085938 C 1729.430419921875 560.0186157226562 1731.550537109375 553.193359375 1735.059814453125 546.955322265625 C 1738.232055664062 541.316650390625 1741.995849609375 537.1322021484375 1745.259155273438 533.78271484375 C 1745.339599609375 533.7001342773438 1745.4228515625 533.6204223632812 1745.5087890625 533.5436401367188 C 1746.107055664062 533.0089721679688 1760.370849609375 520.4493408203125 1778.604858398438 520.4493408203125 Z" stroke="none" fill="#000"/>
          </g>
          <circle id="Ellipse_582" data-name="Ellipse 582" cx="2.485" cy="2.485" r="2.485" transform="translate(51.084 86.546)" fill="#92602d"/>
          <circle id="Ellipse_583" data-name="Ellipse 583" cx="2.485" cy="2.485" r="2.485" transform="translate(29.23 77.753)" fill="#92602d"/>
          <circle id="Ellipse_584" data-name="Ellipse 584" cx="2.485" cy="2.485" r="2.485" transform="translate(48.599 69.021)" fill="#92602d"/>
          <circle id="Ellipse_585" data-name="Ellipse 585" cx="2.485" cy="2.485" r="2.485" transform="translate(31.715 59.633)" fill="#92602d"/>
          <circle id="Ellipse_586" data-name="Ellipse 586" cx="2.485" cy="2.485" r="2.485" transform="translate(14.726 62.824)" fill="#92602d"/>
        </g>
        <g id="Group_1140" data-name="Group 1140" transform="translate(65.845 31.724)">
          <path id="Path_3214" data-name="Path 3214" d="M1823.195,558.533s-40.872,18.932-30.4,53.013c4.787,13.5,16.672,20.3,23.114,21.041s18.307,2.97,18.989,2.985,18.05,5.573,32.593-11.8,23.214-38.582.061-61.055C1859.178,554.952,1838.406,548.441,1823.195,558.533Z" transform="translate(-1791.078 -553.372)" fill="#bd7e2f"/>
          <g id="Path_3215" data-name="Path 3215" transform="translate(-1791.078 -553.372)" fill="none" stroke-miterlimit="10">
            <path d="M1823.195,558.533s-40.872,18.932-30.4,53.013c4.787,13.5,16.672,20.3,23.114,21.041s18.307,2.97,18.989,2.985,18.05,5.573,32.593-11.8,23.214-38.582.061-61.055C1859.178,554.952,1838.406,548.441,1823.195,558.533Z" stroke="none"/>
            <path d="M 1841.23779296875 553.3717651367188 C 1835.064575195312 553.3713989257812 1828.758911132812 554.8412475585938 1823.194946289062 558.5325317382812 C 1823.194946289062 558.5325317382812 1782.322631835938 577.46435546875 1792.794799804688 611.5457153320312 C 1797.581420898438 625.042236328125 1809.466674804688 631.8421630859375 1815.908813476562 632.5863647460938 C 1822.350830078125 633.3294067382812 1834.2158203125 635.5562133789062 1834.8974609375 635.5709838867188 C 1835.579345703125 635.5869140625 1852.94775390625 641.1439819335938 1867.490478515625 623.7731323242188 C 1882.034545898438 606.40234375 1890.70458984375 585.1913452148438 1867.551879882812 562.7181396484375 C 1862.2412109375 557.79296875 1851.941040039062 553.3723754882812 1841.23779296875 553.3717651367188 M 1841.2353515625 550.3717651367188 L 1841.2353515625 553.3717651367188 L 1841.236206054688 550.3717651367188 C 1846.608032226562 550.3720703125 1852.221923828125 551.4158325195312 1857.472900390625 553.3901977539062 C 1862.280517578125 555.1978759765625 1866.58447265625 557.7294311523438 1869.591918945312 560.5184936523438 L 1869.641357421875 560.5654907226562 C 1872.598022460938 563.4353637695312 1875.156127929688 566.3916015625 1877.244506835938 569.35205078125 C 1879.274536132812 572.2296752929688 1880.9189453125 575.1934204101562 1882.132080078125 578.160888671875 C 1884.421630859375 583.7617797851562 1885.265747070312 589.5872802734375 1884.640747070312 595.4756469726562 C 1883.619384765625 605.0980224609375 1878.761962890625 614.984130859375 1869.790649414062 625.6990356445312 C 1865.512329101562 630.8093872070312 1860.576782226562 634.55712890625 1855.121215820312 636.838134765625 C 1851.008911132812 638.5574951171875 1846.652954101562 639.4293212890625 1842.174438476562 639.4293212890625 C 1838.454345703125 639.4293212890625 1835.706298828125 638.8153686523438 1834.671875 638.5842895507812 C 1834.620849609375 638.5728759765625 1834.56298828125 638.5599365234375 1834.515625 638.549560546875 C 1834.05810546875 638.5020141601562 1833.151733398438 638.350830078125 1830.335083007812 637.8678588867188 C 1826.095947265625 637.140869140625 1819.689697265625 636.0423583984375 1815.565063476562 635.5665893554688 C 1811.39453125 635.0848388671875 1806.272583007812 632.7033081054688 1801.863403320312 629.1959838867188 C 1798.0556640625 626.1670532226562 1792.901000976562 620.8201904296875 1789.967407226562 612.5484619140625 L 1789.945922851562 612.4880981445312 L 1789.927124023438 612.4268798828125 C 1787.34375 604.0193481445312 1787.470336914062 595.7572631835938 1790.303466796875 587.8701171875 C 1792.539794921875 581.644775390625 1796.45361328125 575.6819458007812 1801.9365234375 570.1472778320312 C 1804.587280273438 567.4714965820312 1809.070434570312 563.449462890625 1815.374877929688 559.4837646484375 C 1818.597045898438 557.4569702148438 1821.003784179688 556.2572021484375 1821.71875 555.91259765625 C 1824.602172851562 554.027587890625 1827.790405273438 552.601806640625 1831.198364257812 551.673583984375 C 1834.369995117188 550.8097534179688 1837.746948242188 550.3717651367188 1841.2353515625 550.3717651367188 Z" stroke="none" fill="#000"/>
          </g>
          <path id="Path_3216" data-name="Path 3216" d="M1814.149,565.558s-16.528,16.846-8.189,38.481,17.477,25.476,21.311,27.246,23.849,7.516,37.413-10.548,13.637-29.592,13.025-32.291-5.28-21.605-24.042-30.322S1817.084,561.921,1814.149,565.558Z" transform="translate(-1789.372 -553.137)" fill="#f4e192"/>
          <path id="Path_3217" data-name="Path 3217" d="M1818.155,570s-13.63,13.892-6.754,31.733,14.412,21.009,17.574,22.469,19.667,6.2,30.852-8.7,11.246-24.4,10.741-26.628-4.354-17.817-19.827-25.006S1820.575,567.005,1818.155,570Z" transform="translate(-1788.575 -552.282)" fill="#dcbb72"/>
          <line id="Line_375" data-name="Line 375" x1="5.953" y1="18.683" transform="translate(46.443 17.657)" fill="none" stroke="#f4e192" stroke-linecap="round" stroke-linejoin="round" stroke-width="3"/>
          <line id="Line_376" data-name="Line 376" x1="4.194" y1="7.264" transform="translate(55.57 44.014)" fill="none" stroke="#f4e192" stroke-linecap="round" stroke-linejoin="round" stroke-width="3"/>
          <line id="Line_377" data-name="Line 377" x1="9.239" y1="3.28" transform="translate(36.43 35.449)" fill="none" stroke="#f4e192" stroke-linecap="round" stroke-linejoin="round" stroke-width="3"/>
          <line id="Line_378" data-name="Line 378" x1="15.322" y2="2.464" transform="translate(56.77 35.856)" fill="none" stroke="#f4e192" stroke-linecap="round" stroke-linejoin="round" stroke-width="3"/>
        </g>
      </g>
      <path id="Path_3218" data-name="Path 3218" d="M6.02,36.057a2.453,2.453,0,0,1-2.21-1.391C.458,28.285-3.488,13.039,5.563,1A2.3,2.3,0,0,1,9.108.692a3.158,3.158,0,0,1,.27,4.046C.451,16.609,7.808,31.108,8.126,31.72a3.111,3.111,0,0,1-.875,3.931A2.287,2.287,0,0,1,6.02,36.057Z" transform="matrix(0.966, 0.259, -0.259, 0.966, 1744.263, 616.63)" fill="#fff"/>
    </g>
  </g>
</svg>
