<svg xmlns="http://www.w3.org/2000/svg" width="145.842" height="109.026" viewBox="0 0 145.842 109.026">
  <g id="Group_1534" data-name="Group 1534" transform="translate(-1722.522 -590.974)">
    <g id="Group_1141" data-name="Group 1141" transform="translate(-5.599 70.525)">
      <g id="Group_1139" data-name="Group 1139">
        <path id="Path_3212" data-name="Path 3212" d="M1750.185,536.914s23.629-21.125,45.487-2.807c9.747,8.42,23.334,14.625,28.8,20.091s21.71,21.567,15.359,43.874-37.512,30.136-60.993,21.272-31.457-15.954-37.512-28.363c-3.913-8.019-5.612-16.205-4.431-27.034C1738.385,550.277,1744.573,542.675,1750.185,536.914Z" fill="#d4a450"/>
        <g id="Path_3213" data-name="Path 3213" fill="none" stroke-linecap="round" stroke-linejoin="round">
          <path d="M1746.957,535.855s23.927-21.385,46.06-2.841c9.87,8.524,23.628,14.8,29.161,20.338s21.983,21.833,15.552,44.414-37.984,30.507-61.761,21.534-31.853-16.15-37.984-28.712c-3.963-8.118-5.683-16.405-4.487-27.367C1735.009,549.383,1741.275,541.687,1746.957,535.855Z" stroke="none"/>
          <path d="M 1773.154296875 525.4493408203125 C 1758.600952148438 525.4493408203125 1746.95703125 535.85498046875 1746.95703125 535.85498046875 C 1741.275024414062 541.68701171875 1735.009033203125 549.3829956054688 1733.498046875 563.2210083007812 C 1732.302001953125 574.1829833984375 1734.02197265625 582.469970703125 1737.984985351562 590.5880126953125 C 1744.115966796875 603.1500244140625 1752.191040039062 610.3280029296875 1775.968994140625 619.2999877929688 C 1782.39794921875 621.7261352539062 1789.39208984375 622.91650390625 1796.307861328125 622.91650390625 C 1814.969360351562 622.91650390625 1833.03857421875 614.2413940429688 1837.72998046875 597.7659912109375 C 1844.161010742188 575.1849975585938 1827.711059570312 558.885009765625 1822.177978515625 553.3519897460938 C 1816.64501953125 547.8179931640625 1802.886962890625 541.5380249023438 1793.016967773438 533.0139770507812 C 1786.322021484375 527.4046020507812 1779.465698242188 525.4493408203125 1773.154296875 525.4493408203125 M 1773.154296875 520.4493408203125 C 1777.095703125 520.4493408203125 1780.953369140625 521.1117553710938 1784.619995117188 522.4181518554688 C 1788.702270507812 523.8726806640625 1792.607788085938 526.148193359375 1796.22802734375 529.181396484375 C 1796.247192382812 529.1973876953125 1796.266235351562 529.2135620117188 1796.285034179688 529.2298583984375 C 1801.086669921875 533.376708984375 1807.094360351562 537.1011962890625 1812.394897460938 540.3872680664062 C 1817.88720703125 543.7922973632812 1822.630615234375 546.7329711914062 1825.7138671875 549.8167724609375 L 1825.798095703125 549.9010009765625 C 1828.658813476562 552.7612915039062 1834.611572265625 558.7131958007812 1838.9306640625 566.9620361328125 C 1841.400024414062 571.6781005859375 1843.0205078125 576.5401611328125 1843.747436523438 581.4132080078125 C 1844.622802734375 587.2828979492188 1844.216186523438 593.2455444335938 1842.538818359375 599.135498046875 C 1839.95947265625 608.193603515625 1833.801025390625 615.7079467773438 1824.729125976562 620.8660888671875 C 1820.660766601562 623.17919921875 1816.101318359375 624.9607543945312 1811.177490234375 626.1612548828125 C 1806.400512695312 627.325927734375 1801.397705078125 627.91650390625 1796.307861328125 627.91650390625 C 1788.674682617188 627.91650390625 1781.031127929688 626.5545654296875 1774.20361328125 623.9779663085938 C 1761.760620117188 619.2828979492188 1753.458984375 615.044189453125 1747.2861328125 610.2342529296875 C 1744.1533203125 607.7930908203125 1741.509765625 605.1542358398438 1739.204345703125 602.1668701171875 C 1737.132080078125 599.4816284179688 1735.263427734375 596.4114990234375 1733.491577148438 592.7810668945312 C 1728.829223632812 583.2303466796875 1727.298095703125 573.9463500976562 1728.527587890625 562.6786499023438 C 1729.286376953125 555.7286987304688 1731.176391601562 549.6465454101562 1734.3056640625 544.084228515625 C 1737.131591796875 539.06103515625 1740.476440429688 535.3416748046875 1743.375732421875 532.3658447265625 C 1743.456176757812 532.2832641601562 1743.539306640625 532.2035522460938 1743.625244140625 532.1267700195312 C 1744.158813476562 531.6499633789062 1756.87939453125 520.4493408203125 1773.154296875 520.4493408203125 Z" stroke="none" fill="#000"/>
        </g>
        <circle id="Ellipse_582" data-name="Ellipse 582" cx="2.187" cy="2.187" r="2.187" transform="translate(1778.086 601.623)" fill="#92602d"/>
        <circle id="Ellipse_583" data-name="Ellipse 583" cx="2.187" cy="2.187" r="2.187" transform="translate(1758.851 593.884)" fill="#92602d"/>
        <circle id="Ellipse_584" data-name="Ellipse 584" cx="2.187" cy="2.187" r="2.187" transform="translate(1775.899 586.199)" fill="#92602d"/>
        <circle id="Ellipse_585" data-name="Ellipse 585" cx="2.187" cy="2.187" r="2.187" transform="translate(1761.038 577.935)" fill="#92602d"/>
        <circle id="Ellipse_586" data-name="Ellipse 586" cx="2.187" cy="2.187" r="2.187" transform="translate(1746.085 580.744)" fill="#92602d"/>
      </g>
      <g id="Group_1140" data-name="Group 1140">
        <path id="Path_3214" data-name="Path 3214" d="M1819.346,557.914s-35.974,16.663-26.757,46.66c4.213,11.879,14.674,17.864,20.344,18.519s16.113,2.614,16.713,2.627,15.887,4.905,28.687-10.384,20.432-33.958.054-53.738C1851.017,554.763,1832.734,549.032,1819.346,557.914Z" fill="#bd7e2f"/>
        <g id="Path_3215" data-name="Path 3215" fill="none" stroke-miterlimit="10">
          <path d="M1819.346,557.914s-35.974,16.663-26.757,46.66c4.213,11.879,14.674,17.864,20.344,18.519s16.113,2.614,16.713,2.627,15.887,4.905,28.687-10.384,20.432-33.958.054-53.738C1851.017,554.763,1832.734,549.032,1819.346,557.914Z" stroke="none"/>
          <path d="M 1835.226318359375 553.3717041015625 C 1829.79296875 553.3713989257812 1824.243041992188 554.6651000976562 1819.345947265625 557.9140014648438 C 1819.345947265625 557.9140014648438 1783.371948242188 574.5770263671875 1792.588989257812 604.573974609375 C 1796.802001953125 616.4530029296875 1807.262939453125 622.43798828125 1812.932983398438 623.093017578125 C 1818.60302734375 623.7470092773438 1829.046020507812 625.7069702148438 1829.64599609375 625.719970703125 C 1830.245849609375 625.7340087890625 1845.532958984375 630.6251831054688 1858.3330078125 615.3359985351562 C 1871.134033203125 600.0469970703125 1878.765014648438 581.3779907226562 1858.386962890625 561.5980224609375 C 1853.712768554688 557.2631225585938 1844.64697265625 553.372314453125 1835.226318359375 553.3717041015625 M 1835.224243164062 550.3717041015625 L 1835.224243164062 553.3717041015625 L 1835.224975585938 550.3717041015625 C 1839.995727539062 550.3720092773438 1844.980712890625 551.2986450195312 1849.642456054688 553.0514526367188 C 1853.91650390625 554.6585083007812 1857.74658203125 556.91259765625 1860.427001953125 559.3983764648438 L 1860.476440429688 559.4453125 C 1863.0947265625 561.98681640625 1865.36083984375 564.6058349609375 1867.211791992188 567.2296752929688 C 1869.01416015625 569.7845458984375 1870.474609375 572.4170532226562 1871.552612304688 575.0540161132812 C 1873.590576171875 580.039306640625 1874.341796875 585.2252807617188 1873.785400390625 590.4677734375 C 1872.878784179688 599.0101928710938 1868.57666015625 607.7745971679688 1860.633178710938 617.2619018554688 C 1856.830200195312 621.8043212890625 1852.440063476562 625.1369018554688 1847.584716796875 627.1669311523438 C 1843.921142578125 628.69873046875 1840.04052734375 629.4754028320312 1836.05078125 629.4754028320312 C 1832.737060546875 629.4754028320312 1830.290283203125 628.9288330078125 1829.369140625 628.7230224609375 C 1829.327026367188 628.713623046875 1829.289184570312 628.705078125 1829.255859375 628.6976318359375 C 1828.836303710938 628.6526489257812 1828.023315429688 628.5166625976562 1825.569458007812 628.0958862304688 C 1821.84228515625 627.4567260742188 1816.209838867188 626.4908447265625 1812.589233398438 626.0732421875 C 1808.8544921875 625.6417846679688 1804.278198242188 623.517333984375 1800.347045898438 620.3903198242188 C 1796.958862304688 617.6951293945312 1792.3720703125 612.9373779296875 1789.761596679688 605.5767211914062 L 1789.740112304688 605.516357421875 L 1789.721313476562 605.4551391601562 C 1787.424194335938 597.9791870117188 1787.537475585938 590.630859375 1790.057983398438 583.6141967773438 C 1792.044067382812 578.0851440429688 1795.516845703125 572.7926635742188 1800.379760742188 567.8837890625 C 1807.927490234375 560.264892578125 1816.390747070312 556.0062866210938 1817.870971679688 555.2933349609375 C 1820.434814453125 553.6204833984375 1823.26806640625 552.3547973632812 1826.295654296875 551.5302124023438 C 1829.117919921875 550.761474609375 1832.121948242188 550.3717041015625 1835.224243164062 550.3717041015625 Z" stroke="none" fill="#000"/>
        </g>
        <path id="Path_3216" data-name="Path 3216" d="M1812.886,564.3s-14.547,14.827-7.208,33.869,15.382,22.423,18.757,23.981,20.991,6.615,32.929-9.284,12-26.046,11.464-28.421-4.647-19.016-21.161-26.688S1815.469,561.1,1812.886,564.3Z" fill="#f4e192"/>
        <path id="Path_3217" data-name="Path 3217" d="M1817.113,568.971s-12,12.227-5.944,27.93,12.685,18.491,15.468,19.776,17.31,5.455,27.155-7.656,9.9-21.479,9.454-23.437-3.832-15.682-17.451-22.009S1819.243,566.331,1817.113,568.971Z" fill="#dcbb72"/>
        <line id="Line_375" data-name="Line 375" x1="5.24" y1="16.444" transform="translate(1831.955 568.913)" fill="none" stroke="#f4e192" stroke-linecap="round" stroke-linejoin="round" stroke-width="3"/>
        <line id="Line_376" data-name="Line 376" x1="3.691" y1="6.394" transform="translate(1839.989 592.111)" fill="none" stroke="#f4e192" stroke-linecap="round" stroke-linejoin="round" stroke-width="3"/>
        <line id="Line_377" data-name="Line 377" x1="8.132" y1="2.887" transform="translate(1823.142 584.572)" fill="none" stroke="#f4e192" stroke-linecap="round" stroke-linejoin="round" stroke-width="3"/>
        <line id="Line_378" data-name="Line 378" x1="13.486" y2="2.169" transform="translate(1841.045 584.931)" fill="none" stroke="#f4e192" stroke-linecap="round" stroke-linejoin="round" stroke-width="3"/>
      </g>
    </g>
    <path id="Path_3218" data-name="Path 3218" d="M1203.443,213.2a2.159,2.159,0,0,1-1.945-1.224c-2.95-5.616-6.424-19.035,1.543-29.63a2.027,2.027,0,0,1,3.12-.273,2.779,2.779,0,0,1,.238,3.561c-7.857,10.449-1.382,23.21-1.1,23.749a2.738,2.738,0,0,1-.77,3.46A2.013,2.013,0,0,1,1203.443,213.2Z" transform="matrix(0.966, 0.259, -0.259, 0.966, 631.904, 128.772)" fill="#fff"/>
  </g>
</svg>
