<svg xmlns="http://www.w3.org/2000/svg" width="145" height="135.553" viewBox="0 0 145 135.553">
  <g id="Group_1533" data-name="Group 1533" transform="translate(-1535 -569.806)">
    <g id="Group_963" data-name="Group 963" transform="translate(1535 569.806)">
      <path id="Path_2415" data-name="Path 2415" d="M1626.49,586.3c.825,14.726-3.638,28.581-7.589,42.591-1.529,5.42-5.159,6.152-9.678,7-4.566.849-4.751-2.835-6.22-5.1-8.143-12.566-10.007-26.727-8.734-41.111a114.826,114.826,0,0,1,13.436-45.47c3.148-5.75,3.171-5.77,7.7-.791,5.557,6.106,8.325,13.546,9.6,21.474C1626.133,571.915,1627.187,579.015,1626.49,586.3Z" transform="translate(-1537.172 -500.458)" fill="#ff9421"/>
      <path id="Path_2416" data-name="Path 2416" d="M1551.633,578.812a53.67,53.67,0,0,1,16.28-38.432c8.226-8.325,21.649-9.52,32.9-3.343,3.4,1.87.687,2.652-.849,3.5a55.341,55.341,0,0,0-23.884,25.375c-8.465,17.894-4.341,34.87,3.463,51.622,1.042,2.236,2.578,4.241,3.67,6.458.878,1.794,3.432,3.937,1.767,5.5-1.432,1.342-4.148-.447-6.021-1.505-13.9-7.8-23.914-18.483-25.524-35.2C1552.954,587.87,1551.138,583.111,1551.633,578.812Z" transform="translate(-1547.943 -502.147)" fill="#ff9421"/>
      <path id="Path_2417" data-name="Path 2417" d="M1571.4,584.8c.48-20.32,10.452-34.648,28.029-44.161a10.574,10.574,0,0,1,3.785-1.539c2.925-.251,6.7-1.328,8.492.992,1.441,1.868-1.657,4.256-2.835,6.344-12.005,21.3-17.174,43.88-12.813,68.219a49.53,49.53,0,0,0,6.5,16.837c1.129,1.881.725,3.254-1.871,2.718-5.868-1.214-11.383-2.125-14.525-8.862-4.5-9.658-11.315-18.2-13.391-29.053A62.823,62.823,0,0,1,1571.4,584.8Z" transform="translate(-1542.896 -500.749)" fill="#ff9421"/>
      <path id="Path_2418" data-name="Path 2418" d="M1649.879,591.568a63.481,63.481,0,0,1-8.744,31.789c-4.5,7.651-11.875,8.054-18.983,9.637-1.7.376-2.442-.771-1.963-2.52.29-1.057.478-2.145.794-3.195,5.77-19.261,5.946-38.954,4.286-58.734a47.19,47.19,0,0,0-10.382-26.4c-.68-.834-1.7-1.831-.864-2.734a4.285,4.285,0,0,1,3.016-.753,5.846,5.846,0,0,1,3.037.985c10.536,7.651,20.153,16.266,25.908,28.205C1649.376,574.87,1649.726,582.665,1649.879,591.568Z" transform="translate(-1532.136 -500.753)" fill="#ff9421"/>
      <path id="Path_2419" data-name="Path 2419" d="M1668.553,586.863c.243,17.988-8.328,27.649-19.35,35.828-.753.562-1.747,1.681-2.76.421-.835-1.037,0-2.065.446-3.01,6.039-12.953,6.683-26.618,4.85-40.45-2.171-16.376-12.285-27.81-24.568-37.722-1.234-1-3.612-1.518-3.1-3.293.251-.878,2.795-1.267,4.361-1.568,13.693-2.625,23.651,2.174,30.685,16.431A92.278,92.278,0,0,1,1668.553,586.863Z" transform="translate(-1529.52 -501.321)" fill="#ff9421"/>
      <path id="Path_2420" data-name="Path 2420" d="M1693.577,593.679c1.254,18.564-9.783,29.852-24.238,37.959a96.3,96.3,0,0,1-54.06,12.011,92.4,92.4,0,0,1-39.429-11.272c-17.811-10.133-25.657-26.115-27.02-46.31-1.291-19.123,5.519-34.641,19.075-47.258,7.749-7.212,17.251-10.719,28.193-7.237,5.239,1.664,11.058,5.175,15.715,4.066,5.712-1.362,2.94-9.539,5.713-14.161,2.4-4.008,4.073-8.438,8.191-11.173a9.77,9.77,0,0,1,12.174.536c4.014,3.493,4.079,5.863,1.248,11.43-2.162,4.252-7.412,8.869-4.516,13.13,2.12,3.116,8.221.312,12.543-.3,18.027-2.549,28.622,3.091,36.807,19.515C1689.54,565.785,1692.669,578.631,1693.577,593.679Zm-53.935-4.37c.7-7.289-.358-14.386-1.488-21.415-1.274-7.931-4.042-15.368-9.6-21.474-4.528-4.973-4.549-4.958-7.7.792a114.825,114.825,0,0,0-13.436,45.47c-1.272,14.384.591,28.545,8.734,41.111,1.469,2.267,1.655,5.95,6.22,5.1,4.516-.843,8.153-1.575,9.678-6.994,3.956-14.01,8.419-27.866,7.594-42.591Zm-85.627-9.177c-.5,4.3,1.321,9.059,1.794,13.981,1.609,16.712,11.622,27.394,25.524,35.2,1.882,1.052,4.592,2.841,6.021,1.505,1.665-1.559-.878-3.7-1.767-5.5-1.093-2.216-2.628-4.221-3.67-6.458-7.806-16.747-11.928-33.728-3.463-51.622a55.35,55.35,0,0,1,23.885-25.376c1.535-.849,4.252-1.631.849-3.5-11.247-6.177-24.67-4.982-32.9,3.343a53.674,53.674,0,0,0-16.271,38.425Zm24.811,7.39a62.845,62.845,0,0,0,1.38,11.494c2.077,10.847,8.887,19.394,13.391,29.053,3.142,6.738,8.655,7.651,14.525,8.863,2.6.536,3-.844,1.871-2.718a49.549,49.549,0,0,1-6.5-16.838c-4.363-24.332.808-46.922,12.813-68.219,1.178-2.088,4.276-4.477,2.835-6.344-1.79-2.32-5.567-1.245-8.492-.991a10.555,10.555,0,0,0-3.787,1.539c-17.578,9.511-27.551,23.844-28.031,44.159Zm89.242,6.759c-.152-8.906-.5-16.7-3.888-23.729-5.755-11.94-15.378-20.552-25.908-28.207a5.864,5.864,0,0,0-3.037-.985,4.289,4.289,0,0,0-3.01.754c-.834.9.183,1.9.863,2.733a47.2,47.2,0,0,1,10.382,26.4c1.662,19.782,1.488,39.473-4.286,58.734-.316,1.051-.5,2.132-.794,3.2-.48,1.75.266,2.9,1.963,2.52,7.107-1.583,14.48-1.983,18.983-9.638a63.5,63.5,0,0,0,8.736-31.783Zm21.291-5.268a92.265,92.265,0,0,0-9.444-33.365c-7.034-14.255-16.992-19.055-30.685-16.431-1.567.3-4.108.692-4.361,1.569-.509,1.776,1.868,2.3,3.1,3.292,12.283,9.909,22.4,21.346,24.568,37.722,1.834,13.832,1.189,27.5-4.851,40.45-.444.95-1.281,1.978-.445,3.01,1.017,1.254,2.007.14,2.76-.421,11.032-8.184,19.6-17.845,19.36-35.828Zm-56.905-70.366c-.063-1.518-1.2-1.79-2.119-2.322-1.835-1.061-3.142-.413-4.12,1.228a45.157,45.157,0,0,0-5.861,13.565c-.4,1.881-2.383,4.641.818,5.609,3.344,1,5.725-.376,6.283-4.361a30.08,30.08,0,0,1,4.129-11.583,13.146,13.146,0,0,0,.874-2.137Z" transform="translate(-1548.674 -508.43)"/>
      <path id="Path_2421" data-name="Path 2421" d="M1618.121,517.149a13.073,13.073,0,0,1-.871,2.132,30.077,30.077,0,0,0-4.128,11.582c-.558,3.985-2.939,5.367-6.283,4.362-3.2-.965-1.218-3.727-.818-5.61a45.151,45.151,0,0,1,5.861-13.565c.978-1.639,2.285-2.288,4.12-1.228C1616.922,515.357,1618.059,515.631,1618.121,517.149Z" transform="translate(-1534.339 -506.936)" fill="#569e2b"/>
    </g>
    <path id="Path_3152" data-name="Path 3152" d="M1204.592,220.078a2.627,2.627,0,0,1-2.367-1.49c-3.59-6.833-7.816-23.161,1.878-36.053a2.467,2.467,0,0,1,3.8-.332,3.381,3.381,0,0,1,.29,4.333c-9.56,12.714-1.681,28.242-1.341,28.9a3.332,3.332,0,0,1-.937,4.21A2.45,2.45,0,0,1,1204.592,220.078Z" transform="translate(374.075 449.064)" fill="#fff"/>
  </g>
</svg>
