<svg xmlns="http://www.w3.org/2000/svg" width="196" height="196" viewBox="0 0 196 196">
  <g id="Group_1992" data-name="Group 1992" transform="translate(-1454 -166)">
    <g id="Group_1959" data-name="Group 1959">
      <g id="Group_1907" data-name="Group 1907" transform="translate(1157 97)">
        <rect id="Rectangle_1254" data-name="Rectangle 1254" width="196" height="196" rx="5" transform="translate(297 69)" fill="#fff"/>
      </g>
    </g>
    <g id="Group_1876" data-name="Group 1876" transform="translate(-55.5 -378.583)">
      <g id="Group_963" data-name="Group 963" transform="translate(1535 570.806)">
        <path id="Path_2415" data-name="Path 2415" d="M1628.226,588.779c.869,15.51-3.831,30.1-7.993,44.861-1.611,5.709-5.434,6.48-10.194,7.368-4.809.895-5-2.986-6.552-5.373-8.577-13.235-10.54-28.151-9.2-43.3a120.945,120.945,0,0,1,14.152-47.893c3.316-6.056,3.34-6.077,8.108-.834,5.853,6.431,8.769,14.268,10.111,22.618C1627.851,573.628,1628.96,581.106,1628.226,588.779Z" transform="translate(-1534.149 -498.363)" fill="#ff9421"/>
        <path id="Path_2416" data-name="Path 2416" d="M1551.638,581.246a56.53,56.53,0,0,1,17.147-40.48c8.664-8.768,22.8-10.027,34.648-3.521,3.586,1.97.724,2.793-.895,3.686a58.29,58.29,0,0,0-25.157,26.727c-8.916,18.847-4.573,36.728,3.648,54.373,1.1,2.356,2.715,4.467,3.865,6.8.925,1.889,3.615,4.147,1.862,5.788-1.509,1.414-4.369-.47-6.342-1.585-14.642-8.217-25.189-19.468-26.884-37.071C1553.029,590.786,1551.116,585.774,1551.638,581.246Z" transform="translate(-1547.751 -500.495)" fill="#ff9421"/>
        <path id="Path_2417" data-name="Path 2417" d="M1571.4,587.265c.506-21.4,11.009-36.494,29.522-46.515a11.137,11.137,0,0,1,3.987-1.621c3.081-.264,7.059-1.4,8.944,1.045,1.518,1.967-1.745,4.483-2.986,6.682-12.645,22.432-18.089,46.219-13.5,71.855a52.171,52.171,0,0,0,6.848,17.734c1.189,1.982.764,3.427-1.971,2.863-6.18-1.279-11.989-2.238-15.3-9.334-4.744-10.173-11.918-19.175-14.1-30.6A66.169,66.169,0,0,1,1571.4,587.265Z" transform="translate(-1541.377 -498.73)" fill="#ff9421"/>
        <path id="Path_2418" data-name="Path 2418" d="M1651.807,594.389a66.865,66.865,0,0,1-9.21,33.483c-4.743,8.059-12.508,8.483-19.994,10.15-1.786.4-2.572-.812-2.068-2.654.305-1.114.5-2.259.837-3.365,6.077-20.288,6.263-41.03,4.514-61.864a49.706,49.706,0,0,0-10.935-27.81c-.716-.879-1.789-1.929-.91-2.88a4.513,4.513,0,0,1,3.177-.793,6.158,6.158,0,0,1,3.2,1.037c11.1,8.059,21.227,17.133,27.288,29.709C1651.277,576.8,1651.645,585.012,1651.807,594.389Z" transform="translate(-1527.788 -498.735)" fill="#ff9421"/>
        <path id="Path_2419" data-name="Path 2419" d="M1670.928,589.553c.256,18.947-8.772,29.122-20.381,37.737-.793.592-1.84,1.77-2.907.444-.88-1.093,0-2.175.469-3.171,6.361-13.644,7.039-28.036,5.109-42.606-2.287-17.249-12.939-29.292-25.877-39.732-1.3-1.049-3.8-1.6-3.269-3.468.264-.925,2.943-1.334,4.594-1.651,14.423-2.765,24.911,2.29,32.32,17.307A97.194,97.194,0,0,1,1670.928,589.553Z" transform="translate(-1524.484 -499.453)" fill="#ff9421"/>
        <path id="Path_2420" data-name="Path 2420" d="M1701.3,598.222c1.321,19.553-10.3,31.443-25.53,39.982a101.433,101.433,0,0,1-56.941,12.651,97.329,97.329,0,0,1-41.531-11.873c-18.76-10.673-27.024-27.506-28.46-48.778-1.359-20.142,5.813-36.487,20.092-49.777,8.162-7.6,18.17-11.29,29.7-7.623,5.519,1.753,11.647,5.451,16.553,4.283,6.016-1.435,3.1-10.047,6.018-14.916,2.533-4.221,4.29-8.887,8.627-11.769a10.29,10.29,0,0,1,12.823.564c4.228,3.679,4.3,6.175,1.314,12.04-2.278,4.479-7.807,9.342-4.756,13.83,2.233,3.282,8.659.329,13.212-.313,18.987-2.684,30.147,3.255,38.769,20.555C1697.047,568.842,1700.343,582.372,1701.3,598.222Zm-56.809-4.6c.733-7.677-.377-15.152-1.567-22.556-1.342-8.354-4.258-16.187-10.111-22.618-4.769-5.238-4.792-5.222-8.108.834a120.944,120.944,0,0,0-14.152,47.893c-1.34,15.151.622,30.067,9.2,43.3,1.547,2.387,1.743,6.268,6.552,5.373,4.756-.888,8.588-1.659,10.194-7.367,4.167-14.757,8.868-29.351,8-44.861Zm-90.191-9.666c-.528,4.528,1.391,9.541,1.889,14.726,1.7,17.6,12.242,28.854,26.884,37.071,1.982,1.108,4.837,2.992,6.342,1.585,1.753-1.642-.925-3.9-1.861-5.788-1.151-2.334-2.768-4.446-3.866-6.8-8.222-17.64-12.564-35.526-3.648-54.373a58.3,58.3,0,0,1,25.157-26.728c1.617-.894,4.479-1.717.894-3.686-11.847-6.507-25.984-5.248-34.648,3.521a56.535,56.535,0,0,0-17.138,40.473Zm26.134,7.784a66.192,66.192,0,0,0,1.453,12.107c2.188,11.425,9.36,20.427,14.1,30.6,3.31,7.1,9.116,8.059,15.3,9.335,2.735.564,3.16-.889,1.971-2.863a52.19,52.19,0,0,1-6.848-17.735c-4.6-25.629.851-49.423,13.5-71.855,1.24-2.2,4.5-4.715,2.986-6.682-1.885-2.444-5.863-1.312-8.944-1.044a11.117,11.117,0,0,0-3.989,1.621c-18.515,10.018-29.019,25.115-29.525,46.512Zm94,7.12c-.16-9.38-.528-17.586-4.1-24.993-6.062-12.576-16.2-21.647-27.288-29.71a6.176,6.176,0,0,0-3.2-1.037,4.518,4.518,0,0,0-3.171.794c-.879.95.193,2,.909,2.879a49.712,49.712,0,0,1,10.935,27.81c1.751,20.836,1.567,41.576-4.514,61.864-.333,1.107-.528,2.246-.836,3.366-.506,1.843.28,3.053,2.068,2.654,7.485-1.667,15.251-2.089,19.994-10.152a66.881,66.881,0,0,0,9.2-33.477Zm22.425-5.549a97.181,97.181,0,0,0-9.947-35.143c-7.409-15.015-17.9-20.071-32.32-17.307-1.65.317-4.327.729-4.594,1.653-.536,1.871,1.967,2.419,3.267,3.468,12.938,10.437,23.59,22.483,25.877,39.732,1.932,14.57,1.253,28.962-5.109,42.606-.468,1-1.349,2.083-.469,3.171,1.072,1.321,2.114.148,2.907-.444,11.62-8.621,20.648-18.8,20.392-37.737Zm-59.938-74.116c-.066-1.6-1.263-1.885-2.231-2.445-1.933-1.118-3.309-.435-4.34,1.293a47.566,47.566,0,0,0-6.174,14.288c-.421,1.982-2.51,4.888.861,5.908,3.522,1.057,6.03-.4,6.618-4.594a31.684,31.684,0,0,1,4.349-12.2,13.843,13.843,0,0,0,.921-2.251Z" transform="translate(-1548.674 -508.43)"/>
        <path id="Path_2421" data-name="Path 2421" d="M1618.817,517.3a13.767,13.767,0,0,1-.917,2.246,31.681,31.681,0,0,0-4.348,12.2c-.588,4.2-3.1,5.653-6.618,4.595-3.374-1.016-1.283-3.925-.861-5.909a47.559,47.559,0,0,1,6.174-14.288c1.031-1.727,2.407-2.41,4.34-1.293C1617.554,515.414,1618.753,515.7,1618.817,517.3Z" transform="translate(-1530.57 -506.544)" fill="#569e2b"/>
      </g>
      <path id="Path_3152" data-name="Path 3152" d="M1204.935,222.136a2.767,2.767,0,0,1-2.493-1.569c-3.781-7.2-8.233-24.4,1.978-37.974a2.6,2.6,0,0,1,4-.35,3.561,3.561,0,0,1,.305,4.564c-10.07,13.392-1.771,29.747-1.412,30.437a3.509,3.509,0,0,1-.986,4.434A2.581,2.581,0,0,1,1204.935,222.136Z" transform="translate(376.059 452.246)" fill="#fff"/>
    </g>
  </g>
</svg>
