<svg xmlns="http://www.w3.org/2000/svg" width="196" height="196" viewBox="0 0 196 196">
  <g id="Group_2097" data-name="Group 2097" transform="translate(-315 -163)">
    <rect id="Rectangle_1132" data-name="Rectangle 1132" width="196" height="196" rx="5" transform="translate(315 163)" fill="#fff"/>
    <g id="Group_1830" data-name="Group 1830" transform="translate(12582.602 3478.662)">
      <path id="Path_2467" data-name="Path 2467" d="M1646.166,2857.809c1.092-5.839,6.682-8.588,9.275-13.42.654-1.216,1.894-.3,2.519.4a63.666,63.666,0,0,1,4.816,5.855c5.574,7.914,5.584,12.914-1.095,19.576a82.506,82.506,0,0,1-39.19,22.069c-9.01,2.2-16.712-1.443-20.877-8.7-2.084-3.632-3.641-7.831-1.745-11.606,7.153-14.249,16.188-26.844,32.127-32.531a20.33,20.33,0,0,1,8.187-1.348c2.418.166,5.952-1.762,6.907,2.146.707,2.9-2.643,6.474-6.1,7.016-4.107.645-7.855,1.962-10.805,5-1.073,1.1-2.066,2.531-1.046,4.028,1.1,1.621,2.708.634,4.133.231,2.3-.647,4.853-4.276,6.431-2.183,1.5,1.988-2.048,4.6-3.26,6.993-1.5,2.967-3.26,4.656-7.163,2.989a11.49,11.49,0,0,0-9.6.5c-.625.314-1.426,1.042-1.454,1.614-.054,1.062.794,1.693,1.891,1.987,2.614.707,7.15-.836,7.594,1.313.705,3.412-4.144,3.452-6.312,5.328-1.007.87-1.738,1.929-1.087,3.3.791,1.663,2.224,1.833,3.836,1.382,3.546-1,6.05-3.524,8.8-5.765,5.59-4.557,8.035-11.648,13.42-16.337-1.3,4.685-.374,9.468-.585,14.2-.036.8-.064,2.219,1.427,1.957a2.257,2.257,0,0,0,1.549-1.347C1649.61,2867.284,1650.761,2862.019,1646.166,2857.809Z" transform="translate(-13846.938 -6086.949)" fill="#3da007"/>
      <path id="Path_2468" data-name="Path 2468" d="M1720.126,2878.22c0,3.284.2,6.583-.038,9.851-.622,8.71-4.729,12.594-13.276,13.642a38.038,38.038,0,0,1-28.511-7.547c-6.264-4.683-13.219-8.5-18.722-14.135-10.172-10.417-10.177-22.742-.442-32.107,2.525-2.428,4.356-3.222,6.39.362a28.034,28.034,0,0,0,3.591,4.875c2.589,2.869,2.9,5.43.156,8.556a13.971,13.971,0,0,0-3.5,11.253c.192,1.5.406,3.494,2.07,3.615.968.072,1.113-2.014,1.394-3.21.749-3.193,1.367-6.4,2.979-9.344,1.4-2.559,2.774-3.493,4.939-.765,4.236,5.338,11.334,8.906,10.6,17.328a2.231,2.231,0,0,0,1.213,1.737c.81.28,1.173-.594,1.134-1.326-.217-4.06,1.426-3.6,3.751-1.583,2.669,2.317,5.217,4.8,8.064,6.874,1.541,1.121,3.884,2.5,5.495.59,1.961-2.33-.8-3.53-2.14-4.708-4.174-3.669-8.487-7.182-12.783-10.71-2.18-1.791-2.188-3.167.616-4.15,2.856-1,5.732-1.945,8.582-2.965.662-.237,1.5-.731,1.172-1.508a2.4,2.4,0,0,0-1.708-1.172c-3.3-.311-7-.47-9.641,1.206-5.547,3.514-8.261.178-11.2-3.472-.792-.984-1.546-2-2.338-2.984-1.534-1.911-1.28-2.914,1.319-3.41,3.218-.615,6.366-1.6,9.542-2.423.985-.256,2.188-.6,2.2-1.683.018-1.646-1.515-1.779-2.733-1.9a22.343,22.343,0,0,0-10.464,1.169c-4.121,1.6-6.779.179-8.565-3.57-1.958-4.112,1.661-5.581,3.892-7.011,15.329-9.832,29.088-6.107,39.991,10.227C1719.586,2857.451,1720.448,2863.132,1720.126,2878.22Z" transform="translate(-13815.44 -6056.033)" fill="#3da007"/>
      <path id="Path_2469" data-name="Path 2469" d="M1666.7,2815.081c3.418,4.882,2.9,9.6-.069,14.592a94.057,94.057,0,0,0-5.472,11.654c-1.521,3.606-1.017,6.732,2.289,9.419a25.636,25.636,0,0,1,6.845,8.058c2.134,4.174,3.067,8.582,1.713,13.21a58.34,58.34,0,0,1-17.342,28,26.7,26.7,0,0,1-13.453,6.481c-8.377,1.473-16.638.873-24.94-.161-12.459-1.55-24.938-17.746-15.974-32.385a87.228,87.228,0,0,1,22.233-24.63c6.885-5.149,15.118-6.826,23.6-7.3,1.923-.108,4.349.547,5.011-2.187,2.239-9.24,7.38-16.989,12.522-24.748Zm-17.9,51.307c-5.385,4.688-7.829,11.78-13.42,16.337-2.75,2.24-5.253,4.77-8.8,5.765-1.613.451-3.046.281-3.837-1.381-.651-1.367.081-2.426,1.087-3.3,2.169-1.875,7.018-1.915,6.312-5.327-.444-2.149-4.979-.606-7.594-1.314-1.1-.294-1.944-.926-1.891-1.986.029-.572.83-1.3,1.455-1.615a11.49,11.49,0,0,1,9.6-.5c3.9,1.667,5.659-.021,7.164-2.988,1.213-2.392,4.758-5.005,3.26-6.993-1.578-2.094-4.131,1.535-6.431,2.182-1.424.4-3.029,1.389-4.133-.231-1.02-1.5-.027-2.923,1.046-4.028,2.95-3.035,6.7-4.353,10.806-5,3.453-.543,6.8-4.12,6.1-7.016-.954-3.908-4.488-1.981-6.907-2.146a20.337,20.337,0,0,0-8.186,1.347c-15.939,5.687-24.974,18.283-32.127,32.531-1.9,3.775-.339,7.974,1.745,11.607,4.165,7.26,11.867,10.9,20.877,8.7a82.511,82.511,0,0,0,39.19-22.069c6.679-6.662,6.668-11.662,1.094-19.576a63.724,63.724,0,0,0-4.815-5.855c-.625-.7-1.865-1.611-2.519-.4-2.593,4.832-8.183,7.58-9.275,13.421Zm6.392,27.408c.035-.535-.546-.88-1.319-.41q-5.445,3.3-10.792,6.772c-.693.447-.743,1.093.257,1.411C1645.638,2902.3,1654.6,2896.757,1655.2,2893.8Z" transform="translate(-13847.854 -6098.743)"/>
      <path id="Path_2470" data-name="Path 2470" d="M1727.034,2882.774c0,3.7.2,6.25-.035,8.757-.961,10.457-6.934,16.667-17.354,17.71-9.71.973-19.014.33-27.512-5.716-7.208-5.126-14.8-9.759-21.389-15.672-10.337-9.271-13.3-20.116-9-31.338a33.928,33.928,0,0,1,4.6-7.8c1.729-2.359,6.313-2.734,5.584-6.483a24.9,24.9,0,0,0-5.674-12.239c-.663-.731-1.7-1.116-2.394-1.824-1.715-1.74-1.573-3.694-.062-5.414,1.581-1.8,3.68-2.8,6.1-2.043,1.394.437,1.692,1.672,1.12,3.081-2.874,7.082,4.283,10.534,6,15.994.6,1.915,2.5-.156,3.461-1.067a27.854,27.854,0,0,1,12.5-6.869c9.944-2.484,18.868-1.049,26.791,6.18,8.778,8.01,14.3,17.593,16,29.3C1726.556,2872.824,1727.276,2878.361,1727.034,2882.774Zm-4.32-1.487c.323-15.087-.539-20.769-6.968-30.4-10.9-16.334-24.662-20.058-39.991-10.227-2.231,1.43-5.85,2.9-3.893,7.011,1.786,3.749,4.445,5.166,8.565,3.571a22.331,22.331,0,0,1,10.464-1.169c1.217.124,2.751.256,2.733,1.9-.011,1.086-1.214,1.428-2.2,1.683-3.176.823-6.324,1.808-9.542,2.423-2.6.5-2.853,1.5-1.32,3.411.792.985,1.546,2,2.338,2.984,2.935,3.651,5.65,6.987,11.2,3.473,2.643-1.677,6.338-1.517,9.641-1.207a2.4,2.4,0,0,1,1.709,1.171c.331.777-.509,1.271-1.172,1.508-2.85,1.02-5.726,1.964-8.582,2.966-2.8.982-2.8,2.359-.616,4.149,4.3,3.528,8.609,7.041,12.783,10.71,1.341,1.178,4.1,2.377,2.14,4.707-1.611,1.916-3.954.532-5.495-.59-2.847-2.073-5.394-4.556-8.063-6.873-2.326-2.019-3.969-2.478-3.751,1.583.039.732-.324,1.606-1.134,1.326a2.234,2.234,0,0,1-1.213-1.737c.739-8.422-6.36-11.99-10.6-17.328-2.164-2.729-3.537-1.8-4.938.765-1.613,2.943-2.23,6.151-2.979,9.343-.281,1.2-.426,3.282-1.394,3.21-1.664-.121-1.879-2.117-2.07-3.614a13.974,13.974,0,0,1,3.5-11.254c2.747-3.125,2.432-5.686-.156-8.556a28.028,28.028,0,0,1-3.592-4.875c-2.034-3.583-3.865-2.79-6.39-.361-9.736,9.365-9.73,21.69.442,32.107,5.5,5.635,12.458,9.451,18.722,14.135a38.039,38.039,0,0,0,28.511,7.547c8.547-1.047,12.654-4.932,13.275-13.642C1722.91,2887.871,1722.714,2884.572,1722.714,2881.288Z" transform="translate(-13816.51 -6062.142)"/>
      <path id="Path_2471" data-name="Path 2471" d="M1639.691,2867.084c-.595,2.961-9.558,8.5-11.855,7.772-1-.318-.95-.964-.256-1.41q5.349-3.461,10.792-6.772C1639.145,2866.2,1639.725,2866.55,1639.691,2867.084Z" transform="translate(-13832.348 -6072.031)" fill="#fff"/>
      <path id="Path_2472" data-name="Path 2472" d="M1631.209,2849.011c4.595,4.211,3.444,9.476,2.593,14.637a2.256,2.256,0,0,1-1.548,1.346c-1.491.263-1.464-1.16-1.427-1.957.211-4.733-.719-9.516.585-14.2Z" transform="translate(-13830.46 -6081.19)"/>
    </g>
  </g>
</svg>
