<svg xmlns="http://www.w3.org/2000/svg" width="196" height="196" viewBox="0 0 196 196">
  <g id="Group_1993" data-name="Group 1993" transform="translate(-2328 -166)">
    <g id="Group_1963" data-name="Group 1963">
      <g id="Group_1929" data-name="Group 1929" transform="translate(2031 97)">
        <rect id="Rectangle_1254" data-name="Rectangle 1254" width="196" height="196" rx="5" transform="translate(297 69)" fill="#fff"/>
      </g>
    </g>
    <g id="Group_1905" data-name="Group 1905" transform="translate(632.627 -574.272)">
      <g id="Group_1471" data-name="Group 1471" transform="translate(1727.303 769.76)">
        <g id="Group_1470" data-name="Group 1470">
          <ellipse id="Ellipse_104" data-name="Ellipse 104" cx="58.529" cy="48.594" rx="58.529" ry="48.594" transform="translate(4.409 32.399)" fill="#ff4d4d"/>
          <path id="Path_1781_-_Outline" data-name="Path 1781 - Outline" d="M2064.212,1294.343a3.544,3.544,0,0,1-3.16-4.6c.226-.711,5.66-17.57,18.1-30.082a3.541,3.541,0,0,1,5.162,4.85c-.045.047-.091.094-.139.139-11.24,11.307-16.318,27.065-16.369,27.228A3.543,3.543,0,0,1,2064.212,1294.343Z" transform="translate(-2004.826 -1258.54)" fill="#009245"/>
          <path id="Path_1782" data-name="Path 1782" d="M2054.2,1295.91a41.466,41.466,0,0,1-18.584-3.838,5.192,5.192,0,0,1,4.793-9.21,32.9,32.9,0,0,0,24.54.671,5.193,5.193,0,0,1,3.478,9.784A44.514,44.514,0,0,1,2054.2,1295.91Z" transform="translate(-2007.579 -1256.2)" fill="#009245"/>
          <path id="Path_1783" data-name="Path 1783" d="M2080.822,1296.651a41.487,41.487,0,0,1-18.586-3.839,5.193,5.193,0,0,1,4.793-9.211,32.887,32.887,0,0,0,24.539.673,5.192,5.192,0,0,1,3.477,9.783A44.487,44.487,0,0,1,2080.822,1296.651Z" transform="translate(-2004.96 -1256.128)" fill="#009245"/>
          <path id="Path_1784" data-name="Path 1784" d="M2047.217,1306.532c-.727.012-1.173-.013-1.272-.02a5.192,5.192,0,0,1,.632-10.364,24.732,24.732,0,0,0,19.1-9.351,5.192,5.192,0,0,1,8.026,6.587A35.481,35.481,0,0,1,2047.217,1306.532Z" transform="translate(-2006.769 -1255.94)" fill="#009245"/>
          <path id="Path_1785" data-name="Path 1785" d="M2083.772,1306.853a5.289,5.289,0,0,1-.9-.065,27.609,27.609,0,0,1-17.9-10.717,5.192,5.192,0,0,1,8.6-5.812,17.1,17.1,0,0,0,10.921,6.273,5.193,5.193,0,0,1-.721,10.32Z" transform="translate(-2004.508 -1255.638)" fill="#009245"/>
          <path id="Path_1788" data-name="Path 1788" d="M2026.1,1345.57a5.193,5.193,0,0,1-5.075-4.128c-.184-.875-4.289-21.6,13.885-35.276a5.192,5.192,0,0,1,6.243,8.3c-12.958,9.75-10,24.7-9.966,24.848a5.193,5.193,0,0,1-5.087,6.259Z" transform="translate(-2008.798 -1253.952)" fill="#fff"/>
          <g id="Path_3904" data-name="Path 3904" transform="translate(-2009.847 -1258.519)" fill="none" stroke-linecap="round" stroke-linejoin="round">
            <path d="M2099.941,1296.433a5.191,5.191,0,0,0-3.51-9.768,32.882,32.882,0,0,1-21.767.381c2.355-5.528,7.046-14.845,14.4-22.243.047-.044.092-.09.136-.137a3.51,3.51,0,0,0-5.115-4.808c-8.9,8.954-14.181,20.149-16.515,25.949-.064.02-.129.023-.193.044a32.9,32.9,0,0,1-24.54-.671,5.192,5.192,0,0,0-4.793,9.21c.916.425,1.85.8,2.789,1.159-18.465,8.377-30.987,24.6-30.987,43.253,0,27.23,26.689,49.3,59.613,49.3s59.61-22.074,59.61-49.3C2129.07,1320.786,2117.382,1305.034,2099.941,1296.433Z" stroke="none"/>
            <path d="M 2086.643310546875 1258.752319335938 C 2085.70849609375 1258.752319335938 2084.77587890625 1259.123291015625 2084.085693359375 1259.858154296875 C 2075.185302734375 1268.812133789062 2069.904296875 1280.006713867188 2067.571044921875 1285.807373046875 C 2067.506591796875 1285.827270507812 2067.44189453125 1285.83056640625 2067.378173828125 1285.851318359375 C 2059.418212890625 1288.802612304688 2050.625732421875 1288.56201171875 2042.838134765625 1285.18017578125 C 2040.334716796875 1283.932250976562 2037.293212890625 1284.892456054688 2035.958984375 1287.350463867188 C 2034.59130859375 1289.870239257812 2035.525146484375 1293.022705078125 2038.044921875 1294.390258789062 C 2038.960693359375 1294.815185546875 2039.894775390625 1295.192993164062 2040.833740234375 1295.548950195312 C 2022.368896484375 1303.92626953125 2009.84716796875 1320.153686523438 2009.84716796875 1338.801879882812 C 2009.84716796875 1366.031860351562 2036.53662109375 1388.10595703125 2069.4599609375 1388.10595703125 C 2102.38134765625 1388.10595703125 2129.069580078125 1366.031860351562 2129.069580078125 1338.801879882812 C 2129.069580078125 1320.786499023438 2117.382080078125 1305.034423828125 2099.940673828125 1296.432983398438 C 2102.544921875 1295.439086914062 2103.903564453125 1292.567749023438 2103.010986328125 1289.922973632812 C 2102.09375 1287.206665039062 2099.14794921875 1285.748291015625 2096.43017578125 1286.665161132812 C 2089.40185546875 1289.271728515625 2081.725341796875 1289.3837890625 2074.66357421875 1287.04638671875 C 2077.0185546875 1281.518188476562 2081.7099609375 1272.201782226562 2089.064697265625 1264.80322265625 C 2089.111572265625 1264.759033203125 2089.156982421875 1264.713012695312 2089.200927734375 1264.665893554688 C 2090.52880859375 1263.253051757812 2090.45947265625 1261.032348632812 2089.046875 1259.704345703125 C 2088.369384765625 1259.067749023438 2087.50537109375 1258.752319335938 2086.643310546875 1258.752319335938 M 2086.643310546875 1253.752319335938 C 2088.81689453125 1253.752319335938 2090.88623046875 1254.571899414062 2092.470458984375 1256.060302734375 C 2095.8857421875 1259.27099609375 2096.05712890625 1264.656982421875 2092.857177734375 1268.076416015625 L 2092.857177734375 1268.076416015625 C 2092.76318359375 1268.177124023438 2092.6669921875 1268.275268554688 2092.5703125 1268.369018554688 C 2087.831298828125 1273.1484375 2084.267333984375 1278.882568359375 2081.848876953125 1283.535400390625 C 2082.8955078125 1283.654418945312 2083.949951171875 1283.71435546875 2085.008544921875 1283.71435546875 C 2088.32568359375 1283.71435546875 2091.58349609375 1283.1298828125 2094.69140625 1281.977172851562 C 2094.73779296875 1281.960083007812 2094.7841796875 1281.943603515625 2094.8310546875 1281.927856445312 C 2095.88623046875 1281.571533203125 2096.9833984375 1281.390991210938 2098.091796875 1281.390991210938 C 2102.467529296875 1281.390991210938 2106.34814453125 1284.176879882812 2107.748046875 1288.323364257812 C 2108.48876953125 1290.517944335938 2108.462890625 1292.858032226562 2107.689697265625 1295.01220703125 C 2114.72705078125 1299.356567382812 2120.68896484375 1304.879516601562 2125.137451171875 1311.213623046875 C 2128.00048828125 1315.290649414062 2130.21484375 1319.667846679688 2131.71875 1324.2236328125 C 2133.27880859375 1328.948608398438 2134.069580078125 1333.853393554688 2134.069580078125 1338.801879882812 C 2134.069580078125 1342.551391601562 2133.61279296875 1346.298583984375 2132.712158203125 1349.939208984375 C 2131.8369140625 1353.477172851562 2130.533203125 1356.952880859375 2128.8369140625 1360.269775390625 C 2127.18212890625 1363.505859375 2125.137939453125 1366.621826171875 2122.76171875 1369.53125 C 2120.424072265625 1372.393188476562 2117.744384765625 1375.080322265625 2114.797119140625 1377.51806640625 C 2111.866943359375 1379.941528320312 2108.647216796875 1382.139404296875 2105.22705078125 1384.050415039062 C 2101.789306640625 1385.971435546875 2098.117431640625 1387.620239257812 2094.313720703125 1388.950927734375 C 2086.432861328125 1391.7080078125 2078.07080078125 1393.10595703125 2069.4599609375 1393.10595703125 C 2060.8486328125 1393.10595703125 2052.486328125 1391.7080078125 2044.60498046875 1388.950927734375 C 2040.801025390625 1387.620239257812 2037.12890625 1385.971557617188 2033.69091796875 1384.050415039062 C 2030.270751953125 1382.139404296875 2027.05078125 1379.941650390625 2024.12060546875 1377.51806640625 C 2021.173095703125 1375.080322265625 2018.493408203125 1372.393188476562 2016.15576171875 1369.531372070312 C 2013.779296875 1366.621948242188 2011.735107421875 1363.505981445312 2010.080078125 1360.269897460938 C 2008.3837890625 1356.952880859375 2007.079833984375 1353.477172851562 2006.20458984375 1349.939208984375 C 2005.303955078125 1346.298583984375 2004.84716796875 1342.551391601562 2004.84716796875 1338.801879882812 C 2004.84716796875 1333.681274414062 2005.693115234375 1328.612426757812 2007.361328125 1323.735961914062 C 2008.968505859375 1319.03857421875 2011.330078125 1314.542236328125 2014.380615234375 1310.371826171875 C 2018.852294921875 1304.258544921875 2024.722900390625 1298.956909179688 2031.60693359375 1294.773803710938 C 2031.251708984375 1294.130615234375 2030.9638671875 1293.4443359375 2030.750244140625 1292.722778320312 C 2029.976806640625 1290.112670898438 2030.26611328125 1287.357666015625 2031.564453125 1284.96533203125 C 2033.349853515625 1281.6767578125 2036.78369140625 1279.634033203125 2040.526123046875 1279.634033203125 C 2042.038818359375 1279.634033203125 2043.55615234375 1279.979858398438 2044.925048828125 1280.635131835938 C 2048.42529296875 1282.14013671875 2052.131591796875 1282.903076171875 2055.943359375 1282.903076171875 C 2058.630859375 1282.903076171875 2061.280029296875 1282.519653320312 2063.843017578125 1281.761474609375 C 2066.67138671875 1275.232788085938 2072.037841796875 1264.901611328125 2080.499267578125 1256.373901367188 C 2082.096923828125 1254.706665039062 2084.331298828125 1253.752319335938 2086.643310546875 1253.752319335938 Z" stroke="none" fill="#000"/>
          </g>
          <g id="Group_1469" data-name="Group 1469" transform="translate(55.977 71.417)">
            <g id="Group_1468" data-name="Group 1468" transform="translate(0 0.06)">
              <path id="Path_3905" data-name="Path 3905" d="M2140.472,1332.831a2.894,2.894,0,0,1,.316,1.043c.972,9.219,1.183,31.306-17.108,41.1-22.485,12.044-36.977-1.775-42.6-9.04a3.977,3.977,0,0,1,1.3-5.965l17.712-9.273a16.886,16.886,0,0,1-3.66-4.406l-32.62,17.075a5.731,5.731,0,0,0-.837.538,5.586,5.586,0,0,0-.984,7.839c7.9,10.2,28.25,29.607,59.826,12.695,24.209-12.968,25.338-41.259,24.245-55.31-1.666.744-3.944,1.817-6.1,3.014A2.861,2.861,0,0,1,2140.472,1332.831Z" transform="translate(-2060.811 -1323.072)" fill="#e53333"/>
              <path id="Path_3906" data-name="Path 3906" d="M2078.47,1361.078a4.093,4.093,0,0,0-.722,5.745c5.79,7.476,21.287,22.73,43.841,9.3,27.052-16.1,18.171-45.777,17.967-45.984-.677.376-2.56,2.667-3.19,3.059.152,4.084-1.636,13.185-8.734,17.774-3.571,2.31-9.04,4.4-19.411,2.82-4.263-.65-6.858-1.888-9-3.737l-20.138,10.625A4.15,4.15,0,0,0,2078.47,1361.078Z" transform="translate(-2059.23 -1322.973)" fill="#c62c2c"/>
              <path id="Path_3907" data-name="Path 3907" d="M2088.131,1357.023a2.968,2.968,0,0,0-.524,4.166c4.2,5.423,15.015,15.736,31.8,6.747,13.653-7.313,13.495-23.8,12.77-30.678a2.146,2.146,0,0,0-.236-.779,2.1,2.1,0,0,0-.385-.512c-.491.272-.974.553-1.431.837.111,2.961-.263,9.821-5.41,13.149a23.983,23.983,0,0,1-16.052,2.953,13.392,13.392,0,0,1-6.864-3.091l-13.22,6.921A3.018,3.018,0,0,0,2088.131,1357.023Z" transform="translate(-2058.236 -1322.4)" fill="#b21f1f"/>
              <path id="Path_3908" data-name="Path 3908" d="M2142.866,1329.676c-.066-.857-.139-1.667-.217-2.412a4.074,4.074,0,0,0-5.94-3.183l-43.472,22.757a16.887,16.887,0,0,0,3.66,4.406,17.94,17.94,0,0,0,9.2,4.141c10.079,1.538,18.037-1.712,21.506-3.956,6.9-4.46,7.4-13.65,7.249-17.617.613-.382,1.259-.757,1.917-1.121C2138.923,1331.493,2141.2,1330.42,2142.866,1329.676Z" transform="translate(-2057.621 -1323.615)" fill="#ff8f8f"/>
            </g>
            <ellipse id="Ellipse_105" data-name="Ellipse 105" cx="3.532" cy="1.219" rx="3.532" ry="1.219" transform="translate(43.473 40.088) rotate(-71.942)" fill="#ff9d00"/>
            <ellipse id="Ellipse_105-2" data-name="Ellipse 105" cx="1.219" cy="3.532" rx="1.219" ry="3.532" transform="translate(54 35.097) rotate(-13.793)" fill="#ff9d00"/>
            <ellipse id="Ellipse_105-3" data-name="Ellipse 105" cx="1.219" cy="3.532" rx="1.219" ry="3.532" transform="translate(59.824 35.265) rotate(-55.678)" fill="#ff9d00"/>
            <g id="Path_3909" data-name="Path 3909" transform="translate(-2060.811 -1323.56)" fill="none" stroke-linecap="round" stroke-linejoin="round">
              <path d="M2146.058,1329.621c-.067-.857-.14-1.667-.219-2.412a4.074,4.074,0,0,0-5.94-3.183l-43.473,22.757-32.619,17.076a5.73,5.73,0,0,0-.837.538,5.586,5.586,0,0,0-.984,7.839c7.9,10.2,28.25,29.607,59.826,12.7C2146.022,1371.962,2147.152,1343.672,2146.058,1329.621Z" stroke="none"/>
              <path d="M 2141.78466796875 1323.560180664062 C 2141.147705078125 1323.560180664062 2140.502197265625 1323.709838867188 2139.899169921875 1324.025756835938 L 2063.8076171875 1363.858764648438 C 2063.513671875 1364.013549804688 2063.233154296875 1364.193603515625 2062.970703125 1364.396728515625 C 2060.53466796875 1366.289306640625 2060.0927734375 1369.798583984375 2061.98681640625 1372.235961914062 C 2067.64990234375 1379.549682617188 2079.715576171875 1391.595092773438 2097.726318359375 1391.595092773438 C 2104.838134765625 1391.595092773438 2112.874267578125 1389.718383789062 2121.81298828125 1384.931030273438 C 2146.022216796875 1371.96240234375 2147.151611328125 1343.671508789062 2146.0576171875 1329.62109375 C 2145.99072265625 1328.76416015625 2145.917236328125 1327.95361328125 2145.839111328125 1327.208862304688 C 2145.784423828125 1326.697143554688 2145.633544921875 1326.19970703125 2145.3955078125 1325.74365234375 C 2144.667724609375 1324.354614257812 2143.250732421875 1323.560302734375 2141.78466796875 1323.560180664062 M 2141.7841796875 1320.560180664062 L 2141.7841796875 1323.560180664062 L 2141.7841796875 1320.560180664062 C 2141.784423828125 1320.560180664062 2141.78466796875 1320.560180664062 2141.784912109375 1320.560180664062 C 2144.426025390625 1320.560424804688 2146.827880859375 1322.01318359375 2148.052978515625 1324.3515625 C 2148.468994140625 1325.148803710938 2148.72705078125 1326.001586914062 2148.822021484375 1326.890014648438 C 2148.822265625 1326.891967773438 2148.822509765625 1326.893920898438 2148.82275390625 1326.895874023438 C 2148.90380859375 1327.669555664062 2148.979736328125 1328.507934570312 2149.048583984375 1329.3876953125 C 2149.616455078125 1336.6826171875 2149.599853515625 1347.66357421875 2146.294677734375 1358.552978515625 C 2144.46240234375 1364.58984375 2141.7978515625 1369.983520507812 2138.375244140625 1374.584228515625 C 2134.371826171875 1379.965576171875 2129.276123046875 1384.33642578125 2123.2294921875 1387.575439453125 C 2114.53271484375 1392.2333984375 2105.952392578125 1394.595092773438 2097.726318359375 1394.595092773438 C 2078.395751953125 1394.595092773438 2065.553955078125 1381.74169921875 2059.617919921875 1374.076782226562 L 2059.617919921875 1374.076782226562 C 2058.210205078125 1372.26513671875 2057.592529296875 1370.014038085938 2057.87841796875 1367.738037109375 C 2058.164306640625 1365.462768554688 2059.319091796875 1363.434692382812 2061.130126953125 1362.027709960938 C 2061.131591796875 1362.026489257812 2061.133056640625 1362.025390625 2061.134521484375 1362.024291992188 C 2061.53271484375 1361.716186523438 2061.961669921875 1361.440307617188 2062.409912109375 1361.204345703125 C 2062.411865234375 1361.203125 2062.4140625 1361.202026367188 2062.416259765625 1361.200927734375 L 2138.5078125 1321.367919921875 C 2139.51611328125 1320.839599609375 2140.6494140625 1320.560180664062 2141.7841796875 1320.560180664062 Z" stroke="none" fill="#000"/>
            </g>
          </g>
        </g>
      </g>
    </g>
  </g>
</svg>
