<svg xmlns="http://www.w3.org/2000/svg" width="196" height="196" viewBox="0 0 196 196">
  <g id="Group_1660" data-name="Group 1660" transform="translate(2373 1667)">
    <g id="Group_1529" data-name="Group 1529" transform="translate(-2789 -4220)">
      <g id="Group_1518" data-name="Group 1518" transform="translate(-579 1663)">
        <rect id="Rectangle_1255" data-name="Rectangle 1255" width="196" height="196" rx="5" transform="translate(995 890)" fill="#fff"/>
      </g>
    </g>
    <g id="Group_1517" data-name="Group 1517" transform="translate(-2450.074 -1784.078)">
      <g id="Group_1494" data-name="Group 1494" transform="translate(100.229 143.116)">
        <rect id="Rectangle_1127" data-name="Rectangle 1127" width="10.289" height="3.842" rx="1.921" transform="translate(5.235 3.58)" fill="#fff"/>
        <path id="Path_3938" data-name="Path 3938" d="M2719.18,4765.958c0-.872-.027-1.736-.067-2.6-.006-.114-.01-.229-.017-.344a55.177,55.177,0,0,0-26.238-44.112c.024.038.046.077.071.115a55.206,55.206,0,1,0,26.252,47v-.065Z" transform="translate(-2582.197 -4691.674)" fill="#ffd77a"/>
        <g id="Path_3939" data-name="Path 3939" transform="translate(-2579.052 -4688.624)" fill="none" stroke-linecap="round" stroke-linejoin="round">
          <path d="M2715.317,4759.828c0-.911-.029-1.814-.07-2.715-.006-.12-.011-.241-.018-.36a57.708,57.708,0,0,0-27.442-46.135c.025.04.049.08.074.12a57.738,57.738,0,1,0,27.456,49.159v-.068Z" stroke="none"/>
          <path d="M 2657.5791015625 4702.158203125 C 2625.6923828125 4702.158203125 2599.842041015625 4728.00830078125 2599.842041015625 4759.89599609375 C 2599.842041015625 4791.783203125 2625.6923828125 4817.6337890625 2657.5791015625 4817.6337890625 C 2689.46728515625 4817.6337890625 2715.317138671875 4791.783203125 2715.317138671875 4759.89599609375 L 2715.316162109375 4759.861328125 L 2715.317138671875 4759.82763671875 C 2715.317138671875 4758.91650390625 2715.288330078125 4758.01318359375 2715.246826171875 4757.1123046875 C 2715.2412109375 4756.9921875 2715.2353515625 4756.87158203125 2715.22900390625 4756.751953125 C 2714.20263671875 4737.22705078125 2703.48388671875 4720.27197265625 2687.786865234375 4710.61669921875 C 2687.812255859375 4710.65625 2687.835693359375 4710.69677734375 2687.861083984375 4710.73681640625 C 2679.05615234375 4705.30126953125 2668.686767578125 4702.158203125 2657.5791015625 4702.158203125 M 2657.5791015625 4697.158203125 C 2663.48779296875 4697.158203125 2669.33837890625 4697.9814453125 2674.968994140625 4699.60498046875 C 2680.112060546875 4701.087890625 2685.05029296875 4703.2314453125 2689.66162109375 4705.98095703125 C 2689.916748046875 4706.08447265625 2690.165771484375 4706.2099609375 2690.406494140625 4706.35791015625 C 2694.650146484375 4708.96826171875 2698.584716796875 4712.087890625 2702.10107421875 4715.63037109375 C 2705.6181640625 4719.173828125 2708.708984375 4723.1318359375 2711.28759765625 4727.3955078125 C 2713.905517578125 4731.7236328125 2715.992431640625 4736.361328125 2717.490234375 4741.1796875 C 2719.029296875 4746.130859375 2719.9482421875 4751.28173828125 2720.22216796875 4756.4892578125 C 2720.22900390625 4756.6171875 2720.2353515625 4756.748046875 2720.241455078125 4756.87841796875 C 2720.293212890625 4758.001953125 2720.317138671875 4758.9375 2720.317138671875 4759.82763671875 C 2720.317138671875 4759.8388671875 2720.317138671875 4759.8505859375 2720.31689453125 4759.86181640625 C 2720.317138671875 4759.873046875 2720.317138671875 4759.884765625 2720.317138671875 4759.89599609375 C 2720.317138671875 4768.36328125 2718.65771484375 4776.580078125 2715.384765625 4784.31787109375 C 2713.81201171875 4788.0361328125 2711.86572265625 4791.62255859375 2709.599609375 4794.9765625 C 2707.35595703125 4798.29736328125 2704.779541015625 4801.42041015625 2701.941650390625 4804.25830078125 C 2699.10400390625 4807.095703125 2695.981201171875 4809.67236328125 2692.66015625 4811.916015625 C 2689.305908203125 4814.18212890625 2685.7197265625 4816.12841796875 2682.001220703125 4817.70166015625 C 2674.263427734375 4820.97412109375 2666.046630859375 4822.6337890625 2657.5791015625 4822.6337890625 C 2649.112060546875 4822.6337890625 2640.8955078125 4820.97412109375 2633.15771484375 4817.701171875 C 2629.439208984375 4816.12841796875 2625.85302734375 4814.18212890625 2622.4990234375 4811.916015625 C 2619.177978515625 4809.67236328125 2616.05517578125 4807.095703125 2613.217529296875 4804.25830078125 C 2610.379638671875 4801.42041015625 2607.80322265625 4798.29736328125 2605.5595703125 4794.9765625 C 2603.293701171875 4791.62255859375 2601.34716796875 4788.0361328125 2599.7744140625 4784.31787109375 C 2596.50146484375 4776.580078125 2594.842041015625 4768.36328125 2594.842041015625 4759.89599609375 C 2594.842041015625 4751.4287109375 2596.50146484375 4743.2119140625 2599.7744140625 4735.47412109375 C 2601.34716796875 4731.75537109375 2603.293701171875 4728.16943359375 2605.5595703125 4724.8154296875 C 2607.80322265625 4721.494140625 2610.379638671875 4718.37158203125 2613.217529296875 4715.53369140625 C 2616.05517578125 4712.69580078125 2619.177978515625 4710.11962890625 2622.4990234375 4707.8759765625 C 2625.85302734375 4705.60986328125 2629.439208984375 4703.6630859375 2633.15771484375 4702.09033203125 C 2640.8955078125 4698.81787109375 2649.112060546875 4697.158203125 2657.5791015625 4697.158203125 Z" stroke="none" fill="#000"/>
        </g>
        <g id="Group_1491" data-name="Group 1491" transform="translate(51.524 60.635)">
          <g id="Group_1490" data-name="Group 1490" transform="translate(0)">
            <g id="Group_1488" data-name="Group 1488">
              <path id="Path_3940" data-name="Path 3940" d="M2661.605,4781.738c0,3.786-1.822,6.857-4.067,6.857s-4.068-3.071-4.068-6.857,1.821-6.856,4.068-6.856S2661.605,4777.951,2661.605,4781.738Z" transform="translate(-2653.47 -4774.882)" fill="#2c2c2c"/>
            </g>
            <g id="Group_1489" data-name="Group 1489" transform="translate(40.677)">
              <path id="Path_3941" data-name="Path 3941" d="M2724.409,4781.738c0,3.786-1.821,6.857-4.067,6.857s-4.068-3.071-4.068-6.857,1.822-6.856,4.068-6.856S2724.409,4777.951,2724.409,4781.738Z" transform="translate(-2716.274 -4774.882)" fill="#2c2c2c"/>
            </g>
          </g>
        </g>
        <g id="Group_1492" data-name="Group 1492" transform="translate(43.148 48.303)">
          <path id="Path_3942" data-name="Path 3942" d="M2731.411,4762.157c-.594-.174-1.172-.335-1.736-.494-1.241-.347-2.412-.675-3.544-1.068a31.416,31.416,0,0,1-4.652-1.977,27.68,27.68,0,0,1-4.2-2.729,41.585,41.585,0,0,1-4-3.666.24.24,0,0,0-.41.18,10.51,10.51,0,0,0,2.157,5.635,13.761,13.761,0,0,0,4.67,3.972,14.537,14.537,0,0,0,5.643,1.623c.075.006.152.01.227.015a12.158,12.158,0,0,0,5.886-1.044.239.239,0,0,0-.036-.446Z" transform="translate(-2666.019 -4752.152)" fill="#3f3e40"/>
          <path id="Path_3943" data-name="Path 3943" d="M2640.711,4762.157c.594-.174,1.172-.335,1.736-.494,1.24-.347,2.412-.675,3.544-1.068a31.419,31.419,0,0,0,4.652-1.977,27.653,27.653,0,0,0,4.2-2.729,41.441,41.441,0,0,0,4-3.666.24.24,0,0,1,.41.18,10.516,10.516,0,0,1-2.157,5.635,13.766,13.766,0,0,1-4.67,3.972,14.543,14.543,0,0,1-5.643,1.623l-.227.015a12.156,12.156,0,0,1-5.885-1.044.241.241,0,0,1-.137-.236A.238.238,0,0,1,2640.711,4762.157Z" transform="translate(-2640.538 -4752.152)" fill="#3f3e40"/>
        </g>
        <path id="Path_3945" data-name="Path 3945" d="M2669.442,4822.387a16.545,16.545,0,0,1,15.732-10.774,14.562,14.562,0,0,1,14.647,10.774" transform="translate(-2606.104 -4727.186)" fill="none" stroke="#654735" stroke-linecap="round" stroke-linejoin="round" stroke-width="5"/>
        <g id="Path_3937" data-name="Path 3937" transform="translate(-2451.887 -4680.233)" fill="#fff" stroke-linejoin="round">
          <path d="M 2582.55322265625 4725.7109375 L 2575.5322265625 4725.7109375 C 2570.41015625 4725.7109375 2566.2431640625 4721.54345703125 2566.2431640625 4716.4208984375 L 2566.2431640625 4696.8916015625 C 2566.2431640625 4694.822265625 2566.91259765625 4692.86328125 2568.178955078125 4691.22607421875 C 2569.162109375 4689.955078125 2570.47265625 4688.95361328125 2571.94482421875 4688.33251953125 C 2572.014404296875 4686.642578125 2573.411376953125 4685.2890625 2575.118896484375 4685.2890625 L 2582.96728515625 4685.2890625 C 2584.67431640625 4685.2890625 2586.071044921875 4686.642578125 2586.140625 4688.3330078125 C 2587.61279296875 4688.95361328125 2588.92333984375 4689.95556640625 2589.906494140625 4691.22607421875 C 2591.1728515625 4692.86328125 2591.84228515625 4694.822265625 2591.84228515625 4696.8916015625 L 2591.84228515625 4716.4208984375 C 2591.84228515625 4721.54345703125 2587.67529296875 4725.7109375 2582.55322265625 4725.7109375 Z" stroke="none"/>
          <path d="M 2575.118896484375 4686.7890625 C 2574.1923828125 4686.7890625 2573.442138671875 4687.5390625 2573.442138671875 4688.46484375 L 2573.442138671875 4689.2939453125 C 2573.442138671875 4689.328125 2573.44970703125 4689.359375 2573.4521484375 4689.392578125 C 2570.165771484375 4690.3056640625 2567.7431640625 4693.3173828125 2567.7431640625 4696.8916015625 L 2567.7431640625 4716.4208984375 C 2567.7431640625 4720.716796875 2571.2373046875 4724.2109375 2575.5322265625 4724.2109375 L 2582.55322265625 4724.2109375 C 2586.847900390625 4724.2109375 2590.34228515625 4720.716796875 2590.34228515625 4716.4208984375 L 2590.34228515625 4696.8916015625 C 2590.34228515625 4693.3173828125 2587.919677734375 4690.3056640625 2584.633056640625 4689.392578125 C 2584.63525390625 4689.359375 2584.643310546875 4689.328125 2584.643310546875 4689.2939453125 L 2584.643310546875 4688.46484375 C 2584.643310546875 4687.5390625 2583.892822265625 4686.7890625 2582.96728515625 4686.7890625 L 2575.118896484375 4686.7890625 M 2575.118896484375 4683.7890625 L 2582.96728515625 4683.7890625 C 2585.1494140625 4683.7890625 2586.987060546875 4685.291015625 2587.50048828125 4687.31591796875 C 2588.89208984375 4688.0380859375 2590.12841796875 4689.0615234375 2591.093017578125 4690.30859375 C 2592.564453125 4692.21044921875 2593.34228515625 4694.48681640625 2593.34228515625 4696.8916015625 L 2593.34228515625 4716.4208984375 C 2593.34228515625 4722.37060546875 2588.50244140625 4727.2109375 2582.55322265625 4727.2109375 L 2575.5322265625 4727.2109375 C 2569.5830078125 4727.2109375 2564.7431640625 4722.37060546875 2564.7431640625 4716.4208984375 L 2564.7431640625 4696.8916015625 C 2564.7431640625 4694.48681640625 2565.52099609375 4692.21044921875 2566.992431640625 4690.30859375 C 2567.95703125 4689.0615234375 2569.193115234375 4688.0380859375 2570.5849609375 4687.31591796875 C 2571.0986328125 4685.29150390625 2572.9365234375 4683.7890625 2575.118896484375 4683.7890625 Z" stroke="none" fill="#000"/>
        </g>
        <path id="Rectangle_1126" data-name="Rectangle 1126" d="M0,0H15.544a0,0,0,0,1,0,0V0a4.183,4.183,0,0,1-4.183,4.183H4.183A4.183,4.183,0,0,1,0,0V0A0,0,0,0,1,0,0Z" transform="translate(119.383 37.107)" fill="#ff3e3e"/>
      </g>
    </g>
  </g>
</svg>
